<svg xmlns="http://www.w3.org/2000/svg" xmlns:xlink="http://www.w3.org/1999/xlink" width="120.805" height="116.473" viewBox="0 0 120.805 116.473">
  <defs>
    <clipPath id="clip-path">
      <rect id="Rectangle_2898" data-name="Rectangle 2898" width="120.805" height="116.473" fill="none"/>
    </clipPath>
  </defs>
  <g id="Group_4353" data-name="Group 4353" transform="translate(0 0)">
    <g id="Group_4353-2" data-name="Group 4353" transform="translate(0 0)" clip-path="url(#clip-path)">
      <path id="Path_10856" data-name="Path 10856" d="M91.942,32.659A40.842,40.842,0,0,0,103.234,2.106,1.881,1.881,0,0,0,101.173.07,38.662,38.662,0,0,0,73.594,8.908a49.32,49.32,0,0,0-5.37,5.475c-.852.964-1.733,1.962-2.636,2.9-.155.161-.957.962-1.569.8-3.259-.828-6.569-1.735-9.767-2.612L51.388,14.7l.352-.919A1.9,1.9,0,0,0,48.585,11.7c-.16.153-.313.311-.466.469a9.121,9.121,0,0,1-.826.792,1.587,1.587,0,0,1-1.169.418c-2.383-.612-4.721-1.249-7.2-1.923l-2.46-.67L37.4,9.61a1.919,1.919,0,0,0,0-2.7,1.856,1.856,0,0,0-2.683.034,16.7,16.7,0,0,0-1.76,1.669A2.036,2.036,0,0,1,30.6,9.22C25.706,7.882,20.719,6.562,15.9,5.285l-2.5-.662c-1.6-.425-2.153-.2-2.951,1.217Q8.769,8.806,7.111,11.784L6.022,13.73c-1.118,2-.934,2.635,1.091,3.79L46.234,39.813l-.329.474a3.463,3.463,0,0,1-.239.332l-3.029,3.547C36.768,51.041,30.7,58.151,24.688,65.11a2.612,2.612,0,0,1-2,.661c-6.212-.6-12.375-1.265-17.052-1.781a4.011,4.011,0,0,0-.435-.025,2.4,2.4,0,0,0-2.179,1.249c-.463.732-.966,1.45-1.451,2.146-.293.419-.585.838-.873,1.261a2.7,2.7,0,0,0-.644,2.154c.162.574.723,1.069,1.711,1.513.968.435,1.93.885,2.892,1.334,2.187,1.02,4.447,2.074,6.73,2.935a25.257,25.257,0,0,1,11.1,7.712,16.432,16.432,0,0,1,2.231,3.3C26.2,90.744,27.641,94,29.04,97.14q.984,2.216,1.976,4.429c.428.951.9,1.491,1.437,1.647a2.731,2.731,0,0,0,2.136-.642c.475-.314.946-.638,1.415-.962.688-.473,1.4-.962,2.118-1.416a2.689,2.689,0,0,0,1.289-2.976c-.351-2.944-.67-5.94-.977-8.837-.272-2.555-.543-5.108-.839-7.66a2.77,2.77,0,0,1,1.138-2.695c3.617-3.046,7.27-6.174,10.8-9.2l13.939-11.9.474.77c.2.324.379.611.546.906l10.645,18.7a5.915,5.915,0,0,0,.561.883,1.877,1.877,0,0,0,3.217-1.881,6.322,6.322,0,0,0-.514-.995l-.171-.293L67.413,56.1c-.185-.321-.364-.646-.553-.99l-.377-.682L81.772,41.361l.556,2.072c.3,1.14.585,2.194.883,3.243A2.423,2.423,0,0,0,84.287,48.2a1.82,1.82,0,0,0,1.417.116c1.064-.311,1.513-1.326,1.173-2.648l-.241-.937c-.4-1.562-.81-3.176-1.293-4.736a1.841,1.841,0,0,1,.689-2.287c.4-.325.815-.646,1.226-.968a40.21,40.21,0,0,0,4.684-4.079M9.856,14.6l3.527-6.07L61.91,21.481,48.838,36.823ZM51.9,61.891q-8.567,7.324-17.14,14.642a2.913,2.913,0,0,0-1.1,2.864c.372,3.181.713,6.418,1.042,9.548.248,2.363.5,4.725.758,7.086a1.768,1.768,0,0,1-1.394,2.224l-.23.063-.307-.594c-.151-.287-.309-.584-.446-.889q-.841-1.857-1.675-3.713c-1.258-2.795-2.559-5.683-3.869-8.511a9.988,9.988,0,0,0-1.41-2.06,32.166,32.166,0,0,0-14.388-10A45.638,45.638,0,0,1,7.233,70.6c-.67-.318-1.337-.636-2.011-.937l-.21-.094.041-.226c.28-1.513,1.353-1.6,2.363-1.492,1.8.2,3.605.386,5.409.574,3.459.359,7.033.729,10.54,1.183a3.746,3.746,0,0,0,3.781-1.45c15.808-18.608,30.088-35.4,44.769-52.508,5.409-6.3,12.726-10.169,21.749-11.5,1.167-.172,2.342-.239,3.584-.311.589-.034,1.193-.068,1.817-.116l.316-.023v.316a37.074,37.074,0,0,1-2.634,14.007,36.281,36.281,0,0,1-10.53,14.632C74.746,42.36,63.132,52.288,51.9,61.891" transform="translate(0 0)"/>
      <path id="Path_10857" data-name="Path 10857" d="M105.88,45.491q-15.846-.014-31.7,0c-1.867,0-2.529.668-2.531,2.546q-.014,12.558,0,25.114c0,1.884.619,2.49,2.54,2.492q5.674.009,11.342,0H94.45q5.723,0,11.44,0c1.937,0,2.5-.564,2.5-2.5q.011-12.556,0-25.114c0-1.918-.611-2.534-2.508-2.537M104.511,71.77H75.554v-22.4h12.4L88,49.6a8.179,8.179,0,0,1,.118,1.4c.049,1.616.168,2.61,1.9,2.61h.049c1.763-.019,1.856-1.028,1.861-2.671A9.33,9.33,0,0,1,92,49.623l.036-.25h12.48Z" transform="translate(12.411 7.879)" fill="#ffca0a"/>
      <path id="Path_10858" data-name="Path 10858" d="M72.194,73.572q-15.851-.016-31.695,0c-1.894,0-2.533.644-2.534,2.545q-.014,12.556,0,25.113c0,1.885.619,2.492,2.538,2.5q5.57.007,11.137,0h9.324q5.612,0,11.235,0c1.938,0,2.5-.564,2.5-2.5q.011-12.556,0-25.113c0-1.921-.61-2.538-2.506-2.539m-1.42,26.257H41.841V77.472h12.45l.041.244a9.024,9.024,0,0,1,.09,1.32c.035,1.637.145,2.64,1.905,2.654,1.8-.012,1.9-.991,1.915-2.636a9.406,9.406,0,0,1,.077-1.333l.039-.248H70.774Z" transform="translate(6.575 12.743)" fill="#ffca0a"/>
      <path id="Path_10859" data-name="Path 10859" d="M105.991,73.574q-15.916-.019-31.833,0c-1.847,0-2.5.676-2.5,2.574q-.012,12.488,0,24.977c0,2.016.577,2.6,2.568,2.6q5.6.009,11.2,0h9.129q5.683,0,11.369,0c1.868,0,2.468-.585,2.471-2.393q.012-12.694,0-25.387c0-1.726-.652-2.368-2.4-2.37M104.5,99.855H75.541V77.483H87.972l.043.241a8.892,8.892,0,0,1,.1,1.327c.045,1.665.188,2.709,2,2.64,1.74-.041,1.824-1.057,1.818-2.711a10.757,10.757,0,0,1,.043-1.235l.031-.26h12.5Z" transform="translate(12.411 12.743)" fill="#ffca0a"/>
      <path id="Path_10860" data-name="Path 10860" d="M52.641,39.632c-1.84,1.592-3.682,3.185-5.508,4.791a1.606,1.606,0,0,0-.594,2.066,4.942,4.942,0,0,0,1.086,1.138c.168.144.341.294.514.454.235-.141.455-.267.664-.386a8.239,8.239,0,0,0,1.261-.822q6.049-5.2,12.067-10.43l3.477-3.013q.926-.8,1.86-1.6c1.674-1.431,3.407-2.911,5.024-4.452a2.749,2.749,0,0,0,.676-2.114,2.13,2.13,0,0,0-1.423-1.237,1.025,1.025,0,0,0-.161-.013,3.177,3.177,0,0,0-1.762.778c-4.249,3.621-8.536,7.34-12.683,10.937Z" transform="translate(8.028 4.161)"/>
      <path id="Path_10861" data-name="Path 10861" d="M30.427,58.713a1.917,1.917,0,0,0-2.743-.1,53.019,53.019,0,0,0-4.622,4.678,2.6,2.6,0,0,0-.217,2.25c.263.63,1.139,1,1.657,1.418.627-.229,1.055-.263,1.293-.494,1.706-1.648,3.45-3.27,5.021-5.044a1.859,1.859,0,0,0-.388-2.705" transform="translate(3.93 10.061)"/>
      <path id="Path_10862" data-name="Path 10862" d="M30.427,58.713a1.917,1.917,0,0,0-2.743-.1,53.019,53.019,0,0,0-4.622,4.678,2.6,2.6,0,0,0-.217,2.25c.263.63,1.139,1,1.657,1.418.627-.229,1.055-.263,1.293-.494,1.706-1.648,3.45-3.27,5.021-5.044A1.859,1.859,0,0,0,30.427,58.713Z" transform="translate(3.93 10.061)" fill="none" stroke="#fff" stroke-miterlimit="10" stroke-width="0.5"/>
    </g>
  </g>
</svg>
