<svg xmlns="http://www.w3.org/2000/svg" xmlns:xlink="http://www.w3.org/1999/xlink" width="156.802" height="98.673" viewBox="0 0 156.802 98.673">
  <defs>
    <clipPath id="clip-path">
      <rect id="Rectangle_2896" data-name="Rectangle 2896" width="156.802" height="98.673" transform="translate(0 0)" fill="none"/>
    </clipPath>
  </defs>
  <g id="Group_4350" data-name="Group 4350" transform="translate(0 0)">
    <g id="Group_4350-2" data-name="Group 4350" clip-path="url(#clip-path)">
      <path id="Path_10841" data-name="Path 10841" d="M147.038,42.582a2.32,2.32,0,0,1-1.482-1.53c-1.063-4.111-2.089-8.231-3.06-12.132l-.79-3.174.185-.276c.258-.384.533-.725.79-1.043a3.334,3.334,0,0,0,.789-1.255c.5-3.89-.323-7.15-2.379-9.427a10.414,10.414,0,0,0-8.185-3.211c-3.756.1-7.572.071-11.262.046-1.561-.01-3.122-.02-4.683-.022-.381,0-.763-.022-1.178-.046l-1.311-.067V8.209c0-1.063,0-2.078,0-3.092C114.46,1.627,112.819,0,109.306,0Q62.535,0,15.763,0c-3.569,0-5.232,1.666-5.233,5.238q-.008,21.5,0,42.991v.2a5.1,5.1,0,0,0,.1,1.292,1.553,1.553,0,0,0,1.72,1.319,1.56,1.56,0,0,0,1.609-1.581,9.694,9.694,0,0,0,.027-1.092l0-.378V3.556h97.033l0,44.825a8.306,8.306,0,0,0,.019.934,1.73,1.73,0,0,0,1.757,1.745,1.7,1.7,0,0,0,1.668-1.79c.027-.577.02-1.155.013-1.746,0-.278-.007-.56-.007-.845v-.634l.625-.106c.113-.019.208-.038.292-.055a2.748,2.748,0,0,1,.565-.074q3.445,0,6.892-.011c7.271-.016,14.791-.032,22.187.1,1.787.031,3.565,1.083,4.994,1.929a6.242,6.242,0,0,1,2.79,4.149l.211.918-3.23-.005c-1.665,0-3.263-.009-4.861.011-1.547.02-2.1.568-2.129,2.1-.026,1.495-.026,3.055,0,4.77a6.908,6.908,0,0,0,7.038,7.148c.612.016,1.226.013,1.827.008l1.569,0v12.46h-.75c-.539,0-1.067,0-1.588-.007-1.238-.009-2.408-.017-3.582.024a2.207,2.207,0,0,1-2.3-1.487c-2.805-6.045-7.4-9.091-13.788-9.08-6.246.019-10.852,3.06-13.689,9.037a.922.922,0,0,0-.03.1,1.309,1.309,0,0,1-.4.712,2.034,2.034,0,0,1-1.414.622c-.836-.087-1.152-1.235-1.165-1.285a3.038,3.038,0,0,1-.061-.986c.005-.1.011-.19.011-.284V72.109c0-4.021,0-8.043-.018-12.064a1.955,1.955,0,0,0-.537-1.4,1.693,1.693,0,0,0-1.177-.453,1.82,1.82,0,0,0-1.714,1.82c-.023.271-.018.545-.014.818l0,.356V79.207l-1.156.1a7.831,7.831,0,0,1-.813.057l-13.313,0q-17.85,0-35.7.019h-.008a2.254,2.254,0,0,1-2.285-1.484C54.963,71.88,50.34,68.825,44,68.825h-.04c-6.268.012-10.867,3.053-13.669,9.039a2.239,2.239,0,0,1-2.255,1.529c-2.594-.03-5.188-.028-7.782-.026-1.425,0-2.848,0-4.271,0a5.518,5.518,0,0,1-.926-.1c-.111-.019-.221-.038-.331-.053l-.649-.088V72.2l5.091,0c2.086,0,4.243.009,6.359-.033a1.631,1.631,0,0,0,1.692-1.6A1.722,1.722,0,0,0,25.644,68.8a5.856,5.856,0,0,0-.9-.046c-7.426,0-14.8,0-22.167.005a5.064,5.064,0,0,0-1.323.125A1.518,1.518,0,0,0,.01,70.642a1.49,1.49,0,0,0,1.4,1.5,9.35,9.35,0,0,0,1.359.056l.386,0c1.549.005,3.1,0,4.71,0h2.665l0,2.389c0,1.128,0,2.2,0,3.277.025,3.169,1.772,4.926,4.92,4.947,2.586.017,5.174.014,7.761.009l3.367,0H28.9l.047.7c.785,11.368,9.265,14.857,14.151,15.126A14.542,14.542,0,0,0,52.771,95.8c3.958-2.911,6-6.887,6.246-12.154l.033-.715h57.115l.045.7c.637,10,7.938,14.8,14.451,15.024a14.559,14.559,0,0,0,9.738-3.125c3.719-2.905,5.648-6.83,5.9-12l.034-.714h.715c.729,0,1.447,0,2.159-.01,1.686-.012,3.279-.022,4.9.029a2.679,2.679,0,0,0,2.695-1.219V52.961a1.448,1.448,0,0,1-.2-.456,12.169,12.169,0,0,0-9.566-9.923m-32.484-28.31.648-.088c.113-.016.222-.035.329-.053a4.869,4.869,0,0,1,.834-.093l3.683-.007c4.54-.01,9.078-.019,13.617.012a6.49,6.49,0,0,1,4.789,1.967,5.746,5.746,0,0,1,1.5,4.338l-.045.7H114.554Zm.055,28V24.754l1.215-.063c.77-.046,1.5-.043,2.246-.044q2.125,0,4.25,0c4.4.006,8.947.011,13.418-.038a2.384,2.384,0,0,1,2.686,2.13c.724,3.078,1.505,6.2,2.26,9.219q.513,2.052,1.022,4.1c.069.28.117.563.169.876l.236,1.329ZM51.944,92.016a11.374,11.374,0,0,1-7.934,3.208l-.238,0A11.525,11.525,0,0,1,32.514,83.527a11.495,11.495,0,0,1,22.987.321,11.549,11.549,0,0,1-3.557,8.168m79.332,3.208h-.016a11.535,11.535,0,0,1-11.492-11.472,11.564,11.564,0,0,1,11.608-11.516,11.494,11.494,0,0,1-.1,22.988m21.957-31.911-.694.052c-.646.049-1.243.079-1.791.079a4.726,4.726,0,0,1-3.515-1.024c-1.028-1.038-1.1-2.785-.887-5.268l.059-.685h6.828Z"/>
      <path id="Path_10842" data-name="Path 10842" d="M82.3,24.484c-.5.459-.97.942-1.444,1.424l-.619.626L59.6,47.193l-.52-.686c-.181-.238-.341-.463-.493-.677a8.034,8.034,0,0,0-.782-1c-3.273-3.3-6.48-6.533-9.727-9.72a2.2,2.2,0,0,0-1.518-.695,1.64,1.64,0,0,0-.37.042,1.587,1.587,0,0,0-1.135,1.087c-.269.773-.047,1.381.82,2.243q3.48,3.462,6.947,6.938,2.65,2.654,5.3,5.3c1.442,1.439,2.069,1.436,3.531-.02q4.385-4.37,8.758-8.752l5.811-5.811q4.252-4.247,8.486-8.512a2.106,2.106,0,0,0,.681-1.476,1.617,1.617,0,0,0-.535-1.156,1.731,1.731,0,0,0-2.563.18" fill="#ffca0a"/>
      <path id="Path_10843" data-name="Path 10843" d="M101.3,68.753H96.256q-14.991,0-29.982.007c-.137-.016-.264,0-.4-.008-.1,0-.23-.007-.36-.007a1.406,1.406,0,0,0-.613.083c-.928.654-1.3,1.18-1.338,1.455a2.658,2.658,0,0,0,.844,1.686c.209.208,1.187.213,1.509.215,4.635.025,9.273.021,13.907.018l3.711,0,5.371,0q6.51,0,13.02-.013c1.195-.005,1.936-.611,1.981-1.621s-.731-1.719-1.978-1.806c-.209-.015-.42-.012-.629-.01" fill="#ffca0a"/>
      <path id="Path_10844" data-name="Path 10844" d="M40.16,59.081c-.142-.424-.49-.912-1.94-.912h-.009q-15.3.015-30.588.01c-.7,0-2.345.17-2.359,1.727a1.5,1.5,0,0,0,.4,1.116,2.661,2.661,0,0,0,1.913.6q5.455.008,10.913,0h4.225l3.873.006c3.791.011,7.71.018,11.56-.054a2.98,2.98,0,0,0,1.949-.816,2.329,2.329,0,0,0,.061-1.678" fill="#ffca0a"/>
      <path id="Path_10845" data-name="Path 10845" d="M131.269,79.388h0a4.349,4.349,0,0,0-3.1,1.274,4.3,4.3,0,0,0-1.252,3.072,4.434,4.434,0,0,0,4.356,4.381h.012a4.445,4.445,0,0,0,4.365-4.395,4.288,4.288,0,0,0-1.274-3.069,4.373,4.373,0,0,0-3.1-1.263" fill="#ffca0a"/>
      <path id="Path_10846" data-name="Path 10846" d="M44.044,79.388h-.025a4.378,4.378,0,0,0-4.394,4.305,4.455,4.455,0,0,0,4.351,4.423,4.138,4.138,0,0,0,3.049-1.236,4.429,4.429,0,0,0,.089-6.225,4.31,4.31,0,0,0-3.07-1.267" fill="#ffca0a"/>
    </g>
  </g>
</svg>
