<svg xmlns="http://www.w3.org/2000/svg" xmlns:xlink="http://www.w3.org/1999/xlink" width="120.493" height="120.506" viewBox="0 0 120.493 120.506">
  <defs>
    <clipPath id="clip-path">
      <rect id="Rectangle_2900" data-name="Rectangle 2900" width="120.493" height="120.506" fill="none"/>
    </clipPath>
  </defs>
  <g id="Group_4355" data-name="Group 4355" transform="translate(0 0)">
    <g id="Group_4355-2" data-name="Group 4355" transform="translate(0 0)" clip-path="url(#clip-path)">
      <path id="Path_10869" data-name="Path 10869" d="M120.495,113.521a2.66,2.66,0,0,1-2.49,1.192q-57.774-.027-115.546-.016c-.078,0-.156,0-.236,0C.83,114.67.018,114.034,0,112.958s.8-1.767,2.173-1.787c1.095-.016,2.191,0,3.468,0V110c0-4.863.017-9.725-.024-14.588a2.8,2.8,0,0,0-.55-1.56,5.377,5.377,0,0,1-.823-5.743,5.147,5.147,0,0,1,4.866-3.3c4.235-.061,8.472-.026,12.707-.031h1.337a7.924,7.924,0,0,0,.12-.857q.606-27.344,1.2-54.688c.056-2.564.459-2.973,3.061-2.973q4.531,0,9.06,0c2.232,0,2.721.45,2.771,2.641q.445,19.346.86,38.693c.066,3.166.01,6.333.01,9.569h5.12c.171-2.574.352-5.139.51-7.7q.624-10.1,1.236-20.192c.1-1.66.707-2.228,2.373-2.247,2.079-.024,4.157-.016,6.236,0,1.91.011,2.445.486,2.569,2.409.356,5.477.677,10.956,1.018,16.434.234,3.75.477,7.5.72,11.307h4.2c.161-2.4.331-4.81.481-7.217.424-6.808.829-13.618,1.264-20.425.132-2.07.633-2.5,2.711-2.509,1.961-.006,3.923-.01,5.884,0s2.487.553,2.607,2.5Q78,63.08,78.843,76.637a4.837,4.837,0,0,0,.093.52h4.149c.149-2.192.306-4.4.447-6.612.453-7.121.889-14.243,1.356-21.362.107-1.634.67-2.143,2.3-2.162q3.235-.038,6.471,0c1.662.02,2.252.62,2.353,2.26.554,9,1.12,18,1.649,27,.046.787.33.974,1.064.968,3.372-.032,6.746.01,10.118-.022a5.439,5.439,0,0,1,5.433,3.187,5.3,5.3,0,0,1-.962,6.111,1.562,1.562,0,0,0-.342.942c-.018,7.84-.015,15.68-.015,23.7,1.673,0,3.3.04,4.931-.013a2.6,2.6,0,0,1,2.608,1.19ZM109.373,88.3c-1.3,0-2.479.038-3.651-.01a1.8,1.8,0,0,1-1.938-1.784,1.777,1.777,0,0,1,1.966-1.725c1.175-.031,2.357.04,3.527-.041a1.987,1.987,0,1,0-.111-3.97c-.312-.017-.627-.009-.941-.009h-73.3a11.4,11.4,0,0,0-1.293.037,1.921,1.921,0,0,0-1.782,1.861,1.833,1.833,0,0,0,1.5,1.969,7.655,7.655,0,0,0,1.629.139q30.886.011,61.77.007a12.051,12.051,0,0,1,1.41.037,1.621,1.621,0,0,1,1.544,1.642A1.581,1.581,0,0,1,98.4,88.174a7.407,7.407,0,0,1-1.631.129q-30.767.007-61.534,0H33.781v22.774h75.592ZM36.926,77.252c-.355-15.929-.7-31.637-1.053-47.365H28q-.9,40.69-1.8,81.211h3.855a2.322,2.322,0,0,0,.083-.4c.006-7.725.016-15.451-.012-23.176a2.258,2.258,0,0,0-.531-1.218,5.357,5.357,0,0,1-.824-5.74,5.228,5.228,0,0,1,4.869-3.308c1.048-.039,2.1-.006,3.285-.006M22.776,111.11V95.849c-.32,0-.743,0-1.166,0-1.529,0-3.057.018-4.586-.013-.842-.017-1.627-.347-1.776-1.234a2.312,2.312,0,0,1,.389-1.69,2.335,2.335,0,0,1,1.568-.566c1.909-.065,3.82-.024,5.837-.024V88.309c-2.052,0-4.082,0-6.113,0-2.547,0-5.1-.018-7.642.024a1.96,1.96,0,0,0-.421,3.875c.227.061.46.1.69.145.87.186,1.534.746,1.418,1.594-.085.618-.684,1.18-1.1,1.728-.121.156-.424.173-.631.251V111.11ZM69.447,50.617c-.557,8.878-1.109,17.688-1.664,26.523h7.552L73.678,50.617ZM56.472,77.165c-.557-8.888-1.108-17.7-1.661-26.531H50.57c-.554,8.894-1.1,17.7-1.651,26.531ZM88.312,50.608C87.754,59.522,87.2,68.3,86.65,77.155H94.2c-.555-8.9-1.106-17.705-1.658-26.547Z" transform="translate(0 5.792)"/>
      <path id="Path_10870" data-name="Path 10870" d="M115.379,24.71a53.078,53.078,0,0,1-1.355,5.327,22.366,22.366,0,0,1-34.213,10.74,37.2,37.2,0,0,1-5.348-5.395A1.233,1.233,0,0,0,73,34.895a16.636,16.636,0,0,1-15.829-3.523,1.637,1.637,0,0,0-1.294-.334,13.048,13.048,0,0,1-13.205-2.524c-.117-.1-.253-.178-.311.074-1.636.438-3.253.985-4.914,1.275a1.617,1.617,0,0,1-1.972-1.532,1.7,1.7,0,0,1,1.665-1.9,6.017,6.017,0,0,0,3.906-1.911c.981-.983,1.964-.84,3,.348A9.141,9.141,0,0,0,52.2,28.206a11.8,11.8,0,0,0,3.468-1,2.244,2.244,0,0,1,2.848.492c4.3,4.363,9.336,5.44,15.069,3.274,1.42-.536,2.027-.33,2.9,1.114A18.973,18.973,0,1,0,91.808,3.576a18.273,18.273,0,0,0-11.33,4.6c-1.736,1.5-2.126,1.528-3.942.157A13.149,13.149,0,0,0,58.629,9.645c-1.153,1.174-1.56,1.243-3.111.525a9.469,9.469,0,0,0-13.145,5.463c-.729,1.991-1.384,2.286-3.375,1.523a4.685,4.685,0,0,0-6.5,3.6c-.415,2.035-1.088,2.439-3.032,1.821a1.958,1.958,0,0,0-2.685,1.477c-.051.189-.082.383-.128.574a1.726,1.726,0,0,1-1.922,1.492A1.794,1.794,0,0,1,23.191,24.1a5.523,5.523,0,0,1,5.27-5.2,1.241,1.241,0,0,0,1.217-.82,8.112,8.112,0,0,1,8.858-4.708,1.05,1.05,0,0,0,1.277-.665,13.037,13.037,0,0,1,15.94-6.3,1.75,1.75,0,0,0,1.415-.3A16.706,16.706,0,0,1,77.56,4.722c.527.33.906.541,1.533.045A21.471,21.471,0,0,1,90.244.181,1.619,1.619,0,0,0,90.665,0h4.472a4.153,4.153,0,0,0,.651.217c8.93,1.445,15.04,6.391,18.256,14.827a45.888,45.888,0,0,1,1.335,5.195Z" transform="translate(5.114 0)" fill="#ffca0a"/>
      <path id="Path_10871" data-name="Path 10871" d="M51.466,84.087c-.038.7-.027,1.413-.124,2.107a1.569,1.569,0,0,1-1.72,1.432,1.5,1.5,0,0,1-1.616-1.4,38.3,38.3,0,0,1-.016-4.333,1.518,1.518,0,0,1,1.662-1.479,1.557,1.557,0,0,1,1.694,1.452c.1.734.084,1.482.12,2.225" transform="translate(10.573 17.735)" fill="#ffca0a"/>
      <path id="Path_10872" data-name="Path 10872" d="M76.131,83.975a16.646,16.646,0,0,1-.017,2.109,1.662,1.662,0,0,1-1.759,1.555,1.7,1.7,0,0,1-1.677-1.766c-.044-1.252-.038-2.507,0-3.759a1.611,1.611,0,0,1,1.6-1.7A1.589,1.589,0,0,1,76.1,81.868a17.989,17.989,0,0,1,.121,2.105h-.088" transform="translate(16.023 17.735)" fill="#ffca0a"/>
      <path id="Path_10873" data-name="Path 10873" d="M78.851,83.956c0-.627-.038-1.256.007-1.88A1.631,1.631,0,0,1,80.5,80.412a1.5,1.5,0,0,1,1.749,1.377,28.284,28.284,0,0,1,0,4.444A1.517,1.517,0,0,1,80.5,87.624a1.636,1.636,0,0,1-1.643-1.671c-.04-.663-.007-1.33-.009-2" transform="translate(17.388 17.735)" fill="#ffca0a"/>
      <path id="Path_10874" data-name="Path 10874" d="M38.992,84.053c0,.7.052,1.413-.013,2.112A1.56,1.56,0,0,1,37.4,87.625a1.462,1.462,0,0,1-1.72-1.261A30.727,30.727,0,0,1,35.67,81.7a1.45,1.45,0,0,1,1.693-1.286,1.571,1.571,0,0,1,1.628,1.531c.063.7.012,1.409.012,2.113h-.011" transform="translate(7.849 17.735)" fill="#ffca0a"/>
      <path id="Path_10875" data-name="Path 10875" d="M63.868,84.062c-.056.743-.056,1.492-.181,2.219a1.692,1.692,0,0,1-3.336-.149,40.616,40.616,0,0,1,0-4.223,1.692,1.692,0,0,1,3.332-.181,23.048,23.048,0,0,1,.186,2.334" transform="translate(13.299 17.735)" fill="#ffca0a"/>
      <path id="Path_10876" data-name="Path 10876" d="M70.055,83.991a22.517,22.517,0,0,1-.173,2.262,1.7,1.7,0,0,1-3.366-.2c-.049-1.369-.061-2.744.01-4.11a1.549,1.549,0,0,1,1.627-1.529A1.52,1.52,0,0,1,69.86,81.7a20.6,20.6,0,0,1,.2,2.292" transform="translate(14.662 17.735)" fill="#ffca0a"/>
      <path id="Path_10877" data-name="Path 10877" d="M45.175,84.045a20.617,20.617,0,0,1-.013,2.11,1.563,1.563,0,0,1-1.684,1.471,1.483,1.483,0,0,1-1.644-1.366,33.426,33.426,0,0,1,.018-4.559,1.462,1.462,0,0,1,1.689-1.293,1.545,1.545,0,0,1,1.612,1.41c.1.732.079,1.483.112,2.225h-.09" transform="translate(9.212 17.735)" fill="#ffca0a"/>
      <path id="Path_10878" data-name="Path 10878" d="M57.672,83.925c-.046.791-.043,1.538-.146,2.27A1.564,1.564,0,0,1,55.8,87.624a1.54,1.54,0,0,1-1.638-1.52,40.934,40.934,0,0,1,.01-4.222,1.691,1.691,0,0,1,3.332-.129,21.67,21.67,0,0,1,.165,2.173" transform="translate(11.936 17.735)" fill="#ffca0a"/>
    </g>
  </g>
</svg>
