<svg id="Group_4354" data-name="Group 4354" xmlns="http://www.w3.org/2000/svg" xmlns:xlink="http://www.w3.org/1999/xlink" width="114.603" height="114.587" viewBox="0 0 114.603 114.587">
  <defs>
    <clipPath id="clip-path">
      <rect id="Rectangle_2899" data-name="Rectangle 2899" width="114.603" height="114.587" fill="none"/>
    </clipPath>
  </defs>
  <g id="Group_4354-2" data-name="Group 4354" transform="translate(0 0)" clip-path="url(#clip-path)">
    <path id="Path_10863" data-name="Path 10863" d="M65,53.986a3.687,3.687,0,0,0,.945.78q6.786,4.206,13.593,8.382a4.214,4.214,0,0,0,.935.442,1.8,1.8,0,0,0,2.39-1.79V61.79a2.066,2.066,0,0,0-1.242-1.852q-6.89-4.254-13.787-8.5A3.9,3.9,0,0,0,67,51.054a2.094,2.094,0,0,0-.636-.107,1.738,1.738,0,0,0-1.447.841,1.7,1.7,0,0,0,.089,2.2" transform="translate(7.929 6.257)" fill="#ffca0a"/>
    <path id="Path_10864" data-name="Path 10864" d="M59.614,46.726h-.02a1.9,1.9,0,0,0,.062,3.805h.013a1.914,1.914,0,0,0,1.849-1.821,1.985,1.985,0,0,0-.6-1.413,1.878,1.878,0,0,0-1.309-.572" transform="translate(7.092 5.739)" fill="#ffca0a"/>
    <path id="Path_10865" data-name="Path 10865" d="M37.55,51.279c-4.179,2.6-9.117,5.7-14.062,8.885a3.743,3.743,0,0,0-.914,1.057c-.125.182-.256.372-.4.563.117.183.225.36.327.531a4.153,4.153,0,0,0,.811,1.09,1.759,1.759,0,0,0,2.132,0l3-1.884q5.59-3.515,11.168-7.054a2.227,2.227,0,0,0,1.03-1.359,1.794,1.794,0,0,0-.268-1.374,1.98,1.98,0,0,0-2.821-.456" transform="translate(2.724 6.251)" fill="#ffca0a"/>
    <path id="Path_10866" data-name="Path 10866" d="M43.988,46.56h0A1.882,1.882,0,0,0,42.654,49.8a1.837,1.837,0,0,0,1.274.564h.007a1.84,1.84,0,0,0,1.325-3.206,1.861,1.861,0,0,0-1.272-.6" transform="translate(5.168 5.719)" fill="#ffca0a"/>
    <path id="Path_10867" data-name="Path 10867" d="M112.92,98.881c-.563-.07-1.246.246-2.207,1.029l-.578.474a27.851,27.851,0,0,1-4.65,3.309c-3.612,1.878-7.588,1.679-12.16-.613l-.248-.125L93.4,101.8c.177-.641.354-1.277.542-1.909q4.19-14.109,8.39-28.214l2.243-7.541c.6-2,.422-2.46-1.32-3.517l-2.307-1.4c-2.233-1.362-4.543-2.769-6.84-4.107a2.08,2.08,0,0,1-1.141-2.074c.029-4.67.025-9.339.02-14.009l0-3.211c0-2.1-.6-2.714-2.689-2.719-.812,0-1.625,0-2.481,0H86.231V28.45c0-4.366,0-4.366-4.424-4.366H76.888v-.15h-3.9V24H41.573v-.067H37.7v.15H31.31c-2.425,0-2.95.518-2.951,2.91v6.1H26.533c-4.93,0-4.93,0-4.93,4.985v3.648c0,3.85-.006,7.7.017,11.549a1.758,1.758,0,0,1-.962,1.716c-2.39,1.415-4.765,2.858-7.139,4.3l-2.2,1.335c-1.7,1.03-1.9,1.542-1.34,3.42l8.846,29.73C19.418,95.77,20,97.764,20.6,99.791l.915,3.11-.583-.158a23.852,23.852,0,0,0-6.272-.971,14.779,14.779,0,0,0-3.247.347c-4.331.97-7.717,3.558-10.731,6.211a1.844,1.844,0,0,0-.214,2.66,1.893,1.893,0,0,0,2.687.193c.513-.369,1.009-.762,1.5-1.155.612-.485,1.245-.986,1.9-1.438a14.5,14.5,0,0,1,8.774-2.988,15.411,15.411,0,0,1,5.969,1.777l.447.2c5.123,2.315,9.416,2.752,13.506,1.374a38.53,38.53,0,0,0,4.674-2.056q.561-.278,1.122-.55c4.9-2.369,9.331-2.382,13.557-.043.938.52,1.938.976,2.906,1.417.376.172.752.344,1.126.519A16.356,16.356,0,0,0,71.7,109a44.831,44.831,0,0,0,4.871-2.269l1.079-.552a13.025,13.025,0,0,1,10.383-.977c1.226.414,2.43.935,3.6,1.439.642.277,1.285.555,1.932.816A15.615,15.615,0,0,0,107,107.145a31.6,31.6,0,0,0,4.92-3.372c.478-.376.958-.75,1.442-1.115a4.363,4.363,0,0,0,.889-1.068c.113-.168.228-.338.347-.5v-.9c-.633-.839-1.155-1.244-1.682-1.31m-23.8-61.9V52.049L64.254,36.986ZM25.465,37H50.3L25.465,52.056Zm29.822,64.84-.392-.066c-.7-.116-1.39-.249-2.088-.383a41.643,41.643,0,0,0-4.684-.712,16.565,16.565,0,0,0-8.685,2.073,39.745,39.745,0,0,1-6.862,2.874,7.266,7.266,0,0,1-1.948.229c-.551,0-1.107-.037-1.655-.074-.5-.034-1-.067-1.488-.073-1.017-.009-1.363-.721-1.569-1.416Q22.63,93.1,19.3,81.924l-.618-2.086c-1.085-3.65-2.172-7.3-3.266-10.978l-1.574-5.285.222-.135L55.287,38.466ZM32.244,27.972H82.311v5.045H32.244Zm57.3,73.316-.312-.076a19.539,19.539,0,0,0-14.568,2.2c-.949.518-1.976,1.029-3.141,1.558a12.138,12.138,0,0,1-5.107,1.128,15.773,15.773,0,0,1-6.471-1.53,1.409,1.409,0,0,1-.6-.8c-.03-.066-.058-.131-.089-.191a.868.868,0,0,1-.052-.482c0-.038.008-.076.008-.112V38.412l.511.31,41.027,24.851L98.126,72.4Z" transform="translate(0 2.94)"/>
    <path id="Path_10868" data-name="Path 10868" d="M37.45,21.933h31.41v4.94h3.9V24.82c0-1.351,0-2.662,0-3.973-.007-2.247-.584-2.828-2.806-2.83H59.59l0-5.445c-.006-3.244-.012-6.6.02-9.9A2.458,2.458,0,0,0,58.06,0H48.281a2.46,2.46,0,0,0-1.546,2.677c.034,3.3.027,6.654.021,9.9l0,5.442H36.382c-2.22,0-2.8.584-2.8,2.835,0,1.311,0,2.622,0,3.971v2.049H37.45ZM50.642,3.927H55.68v14.04H50.642Z" transform="translate(4.124 0)" fill="#ffca0a"/>
  </g>
</svg>
