<svg id="Group_4352" data-name="Group 4352" xmlns="http://www.w3.org/2000/svg" xmlns:xlink="http://www.w3.org/1999/xlink" width="86.397" height="105.051" viewBox="0 0 86.397 105.051">
  <defs>
    <clipPath id="clip-path">
      <rect id="Rectangle_2897" data-name="Rectangle 2897" width="86.397" height="105.051" fill="none"/>
    </clipPath>
  </defs>
  <g id="Group_4351" data-name="Group 4351" clip-path="url(#clip-path)">
    <path id="Path_10847" data-name="Path 10847" d="M86.393,103.392c.044-.534-.282-1.145-1.028-1.925q-3.986-4.171-7.978-8.335l-4.276-4.464c-.161-.168-.319-.342-.5-.543l-.619-.677.463-.086c.286-.053.553-.1.807-.137a10.637,10.637,0,0,0,1.36-.275,9.924,9.924,0,0,0,7.47-9.879c.023-17.919.04-39.188-.007-61.09A13.845,13.845,0,0,0,70.909,2.346,108.422,108.422,0,0,0,56.881.468C40.994-.455,28.785-.025,17.3,1.86,9.445,3.149,4.082,9.459,4.26,17.206c.144,6.348.11,12.8.077,19.047-.015,2.752-.029,5.5-.029,8.258l0,9.238Q4.3,65.357,4.319,76.963a9.647,9.647,0,0,0,5.344,9.1,15.49,15.49,0,0,0,2.875,1.066c.467.14.936.28,1.4.439l.376.129-.437.486c-.152.172-.327.369-.511.559L8.538,93.722Q4.784,97.6,1.03,101.47c-.744.769-1.07,1.379-1.026,1.92.043.522.436,1.051,1.238,1.661H17.117c.152-.159.307-.316.461-.472a11.626,11.626,0,0,0,1.085-1.2c1.61-2.166,3.268-4.453,5.07-7a1.71,1.71,0,0,1,1.545-.825h.005c11.955.02,24.08.02,36.037,0h.005a1.712,1.712,0,0,1,1.545.825c1.79,2.526,3.447,4.814,5.069,7a11.573,11.573,0,0,0,1.088,1.2c.154.156.308.312.458.47H85.155c.8-.616,1.2-1.145,1.238-1.659M7.908,76.484q0-29.776,0-59.554c0-6.23,3.409-10.277,9.6-11.4A115.8,115.8,0,0,1,39.791,3.661q1.863.028,3.729.048c4.691.054,9.542.11,14.3.425a85.282,85.282,0,0,1,12.75,1.861c4.761,1.057,7.873,5.093,7.928,10.283.025,2.407.019,4.854.014,7.221q0,1.594-.006,3.189V76.451c0,4.692-2.576,7.276-7.252,7.276H15.2c-4.7,0-7.292-2.574-7.292-7.245M25.278,88.1c-.137.206-.246.369-.361.527L22.642,91.77q-3.214,4.432-6.411,8.875a1.7,1.7,0,0,1-1.509.824h-.042c-1.863-.028-3.722-.023-5.688-.019l-2.875,0,.8-.861c.206-.224.368-.4.534-.572L10.4,96.973c2.792-2.88,5.681-5.856,8.5-8.806a2.5,2.5,0,0,1,2.077-.856c.965.038,1.932.031,2.956.022.446,0,.9-.007,1.374-.007H25.8Zm1.7,3.828,1.016-1.41c.705-.982,1.372-1.91,2.071-2.82a1.442,1.442,0,0,1,1.026-.361c9.464-.016,17.224-.014,24.418.007a1.6,1.6,0,0,1,1.146.519c.649.829,1.265,1.687,1.917,2.6.245.342.5.693.757,1.052l.3.415Zm50.923,9.52H76.249c-1.624,0-3.229,0-4.834-.02a1.229,1.229,0,0,1-.832-.535q-4.314-5.93-8.6-11.877L61.3,88.07a.69.69,0,0,1-.092-.218c-.013-.043-.029-.1-.054-.172l-.117-.346h1.55c1.325,0,2.633,0,3.939.018a1.166,1.166,0,0,1,.766.437q6.161,6.42,12.3,12.856a.823.823,0,0,1,.149.252c.021.047.046.1.081.173l.189.379Z" transform="translate(0 0)"/>
    <path id="Path_10848" data-name="Path 10848" d="M70.695,15.811H14.639c-2.1,0-2.639.538-2.641,2.613V50.986c0,2.093.539,2.635,2.619,2.635H70.673c2.114,0,2.631-.514,2.631-2.613V18.446c0-2.118-.512-2.635-2.609-2.635m-29.9,34.161H15.675V19.453H40.793Zm28.858-.031H44.524V19.457H69.652Z" transform="translate(0.554 0.73)"/>
    <path id="Path_10849" data-name="Path 10849" d="M20.034,58.371h-.083a8.075,8.075,0,0,0-7.945,7.975,8.019,8.019,0,0,0,7.929,7.976A7.835,7.835,0,0,0,25.562,72a7.92,7.92,0,0,0,2.392-5.654,8.016,8.016,0,0,0-7.919-7.975m3.051,11.046A4.335,4.335,0,0,1,20,70.722h-.017a4.41,4.41,0,0,1-4.378-4.389,4.4,4.4,0,0,1,4.309-4.364,4.369,4.369,0,0,1,3.17,7.448" transform="translate(0.554 2.694)" fill="#ffca0a"/>
    <path id="Path_10850" data-name="Path 10850" d="M63.33,58.371h-.017a8.027,8.027,0,0,0-7.966,7.938,7.847,7.847,0,0,0,2.339,5.623,8.007,8.007,0,0,0,5.629,2.388h.021a8.01,8.01,0,0,0,7.958-7.937,8.046,8.046,0,0,0-7.964-8.013M66.442,69.4a4.335,4.335,0,0,1-3.073,1.322h-.043a4.376,4.376,0,0,1,0-8.752h.009a4.367,4.367,0,0,1,3.107,7.43" transform="translate(2.555 2.694)" fill="#ffca0a"/>
    <path id="Path_10851" data-name="Path 10851" d="M51.285,8.511a2.053,2.053,0,0,0-1.479-.569c-2.526-.01-5.059-.015-7.518-.015-3.051,0-5.986.006-8.656.014A1.745,1.745,0,0,0,31.859,9.1a1.655,1.655,0,0,0,.131,1.574,2.13,2.13,0,0,0,1.8.847c1.855.02,3.711.015,5.566.012l2.364,0,2.353,0c1.894,0,3.788.008,5.681-.01a1.83,1.83,0,0,0,2.015-1.768,1.717,1.717,0,0,0-.482-1.242" transform="translate(1.464 0.366)" fill="#ffca0a"/>
    <path id="Path_10852" data-name="Path 10852" d="M49.895,60.351c-2.645-.015-5.309-.02-7.9-.02-2.928,0-5.764.006-8.376.014a1.736,1.736,0,0,0-1.764,1.17,1.655,1.655,0,0,0,.138,1.566,2.146,2.146,0,0,0,1.811.844c1.832.019,3.664.015,5.5.01l2.331-.007q1.2,0,2.4.005c1.914.006,3.893.01,5.837-.016a1.8,1.8,0,0,0,1.9-1.774,1.75,1.75,0,0,0-.5-1.249,1.924,1.924,0,0,0-1.377-.543" transform="translate(1.464 2.785)" fill="#ffca0a"/>
    <path id="Path_10853" data-name="Path 10853" d="M49.894,68.231c-2.585-.015-5.148-.02-7.819-.02s-5.443.005-8.458.015a1.732,1.732,0,0,0-1.763,1.169,1.662,1.662,0,0,0,.138,1.568A2.151,2.151,0,0,0,33.8,71.8c1.854.02,3.708.015,5.562.01l2.369-.006q1.178,0,2.359,0c1.9.006,3.852.012,5.777-.016a1.8,1.8,0,0,0,1.9-1.775,1.746,1.746,0,0,0-.511-1.262,1.936,1.936,0,0,0-1.364-.529" transform="translate(1.464 3.148)" fill="#ffca0a"/>
    <path id="Path_10854" data-name="Path 10854" d="M26.854,8.475a1.772,1.772,0,0,0-1.23-.528h-.013a1.783,1.783,0,0,0,.009,3.565h.013A1.827,1.827,0,0,0,27.4,9.718a1.79,1.79,0,0,0-.546-1.243" transform="translate(1.1 0.367)"/>
    <path id="Path_10855" data-name="Path 10855" d="M57.159,7.946h-.018a1.856,1.856,0,0,0-1.784,1.766,1.77,1.77,0,0,0,.528,1.244,1.8,1.8,0,0,0,1.241.556,1.685,1.685,0,0,0,1.24-.521,1.8,1.8,0,0,0,.554-1.245,1.828,1.828,0,0,0-1.762-1.8" transform="translate(2.555 0.367)"/>
  </g>
</svg>
