<svg id="svg2" xmlns="http://www.w3.org/2000/svg" viewBox="0 0 512 359.94"><defs><style>.cls-1{fill:#024778;}</style></defs><g id="g8"><path id="path170" class="cls-1" d="M34,358.39c-3-.81-5.89-1.87-6.37-2.35s31.45-33.34,75.67-77.71l76.55-76.83,23.32,23.11c12.83,12.72,25.2,24.29,27.49,25.72,10,6.23,26.16,8.68,37.38,5.66s15.51-6.33,40.26-30.87l23.8-23.6,76.62,76.76c46.87,47,76.26,77.13,75.69,77.69s-3.6,1.63-6.88,2.48c-5.3,1.38-29.86,1.54-222,1.48C68.4,359.88,38.77,359.67,34,358.39ZM2.33,328.75C.59,323.76.5,316.49.5,180S.59,36.24,2.33,31.25c1-2.89,2.13-5.25,2.5-5.25S40.15,60.65,82.5,103l77,77-77,77C40.15,299.35,5.2,334,4.83,334S3.34,331.64,2.33,328.75ZM429.51,257l-77-77,77-77c42.34-42.36,77.29-77,77.66-77s1.5,2.36,2.51,5.25c1.74,5,1.83,12.26,1.83,148.75s-.09,143.76-1.83,148.75c-1,2.89-2.13,5.25-2.5,5.25s-35.32-34.65-77.66-77Zm-181-31.43C244.39,223.75,26.46,5.14,27.6,4c.5-.49,3.58-1.6,6.86-2.45C39.76.17,64.42,0,256,0S472.24.17,477.54,1.55c3.28.85,6.38,2,6.89,2.49,1.25,1.24-216.78,219.69-221.15,221.57-4,1.74-10.85,1.73-14.78,0Z"/></g></svg>