<svg xmlns="http://www.w3.org/2000/svg" xmlns:xlink="http://www.w3.org/1999/xlink" width="1920" height="253" viewBox="0 0 1920 253">
  <defs>
    <clipPath id="clip-path">
      <rect id="Rectangle_2901" data-name="Rectangle 2901" width="1920" height="253" transform="translate(0 1166)" fill="#fff" stroke="#707070" stroke-width="1"/>
    </clipPath>
  </defs>
  <g id="Mask_Group_1049" data-name="Mask Group 1049" transform="translate(0 -1166)" clip-path="url(#clip-path)">
    <path id="Path_3489" data-name="Path 3489" d="M-210.63,2595.245s-7.479-67.035-81.38-65.818-143.8-23.387-158.383-5.865-63.963-9.991-91.089,5.865-50.758,49.789-73.052,27.935-22.718-29.3-14.9-33.8,35.621-12.85,37.363-14.652-8.267-6.785-8-11.181,21.541-49.859,17.872-60.853-7.115.775-9.877-1.853-12.237-32.443-12.237-32.443-5.664,3.177-11.025,12.462-21.378,4.754-23.22,0-2.049,28.222-8.859,28.9-20.652-45.8-21.407-47.18-5.03,1.309-6.215,3.632-5.283,10.862-10.48,9.175-32.549-22.036-33.307-21.894,1.962,40.328,0,41.735-19.208,1.733-19.729,3.175,32.49,41.973,30.391,44.17-19.122-1.535-26.658-6.01,1.722,11.663-6.566,15.317-24.4,5.423-24.683,6.039,21.093,24.507,19.729,28-6.269,8.357-5.131,9.327,27.594,11.85,45.75,12.1,21.062,17.489,21.3,18.532,19.052-17.514,25.845-20.25,13.028-7.015,17.746,0,12.9,24.266,11.392,28.846-10.677,32.461-76.284,16.433-63.4-27.42-115.161-61.523-67.432-49.1-147.2-14.652-113.046,59.65-219.055,20.517-145.055-48.927-331.793-9.327-291.04-14.065-384.919,9.327c-3.1.772-212.243-32.465-215.856-31.7-280.6,42.684-137.424,76.978-257.722,87.357" transform="translate(2285.551 -1177.58)" fill="none" stroke="#ffd729" stroke-width="3"/>
  </g>
</svg>
