<svg xmlns="http://www.w3.org/2000/svg" xmlns:xlink="http://www.w3.org/1999/xlink" width="729" height="666" viewBox="0 0 729 666">
  <defs>
    <clipPath id="clip-path">
      <rect id="Rectangle_2883" data-name="Rectangle 2883" width="729" height="666" transform="translate(0 414)" fill="#fff" stroke="#707070" stroke-width="1"/>
    </clipPath>
  </defs>
  <g id="Mask_Group_1045" data-name="Mask Group 1045" transform="translate(0 -414)" clip-path="url(#clip-path)">
    <g id="Group_4128" data-name="Group 4128" transform="translate(-306.521 -380.608)" opacity="0.02">
      <path id="Path_10705" data-name="Path 10705" d="M290.083,812.946c1.838,1.929,4.129,3.592,5.443,5.825Q391.282,981.636,486.883,1144.6q96.077,163.642,192.16,327.265,17.678,30.1,35.336,60.219c1.081,1.838,1.948,3.806,3.6,7.049H292.038q.019-15.378.045-30.76H665.142c-8.51-14.491-16.426-26.962-23.253-40-3.43-6.563-7.546-8.388-14.723-8.375q-167.554.32-335.115.078v-30.761H618.784c-15.157-25.777-29.3-49.793-43.413-73.836Q459.812,1158.543,344.252,961.6c-17.862-30.417-35.983-60.679-53.988-91.012Q290.177,841.768,290.083,812.946Z" transform="translate(360.196 0)" fill="#fff"/>
      <path id="Path_10706" data-name="Path 10706" d="M650.279,812.946q.088,28.822.181,57.644c-1.961,3.611-3.831,7.281-5.909,10.821Q464.95,1187.4,285.329,1493.363c-2.582,4.4-4.964,8.918-8.265,14.879,4.835,0,8.025-.007,11.209,0q182,.059,364.005.13-.02,15.376-.045,30.76-210.754.067-421.507.11a62.351,62.351,0,0,1-6.472-.744c1.54-3.068,2.6-5.489,3.922-7.754q157.022-267.562,314.095-535.1,50.4-85.874,100.823-171.735C645.309,820.149,647.878,816.6,650.279,812.946Z" transform="translate(0 0)" fill="#fff"/>
      <path id="Path_10707" data-name="Path 10707" d="M482.08,939.012H255.354c6.394-10.789,11.681-20.166,17.545-29.168.938-1.444,4.472-1.657,6.8-1.657q101.193-.058,202.379.064Z" transform="translate(170.167 521.066)" fill="#fff"/>
      <path id="Path_10708" data-name="Path 10708" d="M538.344,1262.286c-4.11.162-8.213.466-12.322.472-64.5.026-129,.13-193.493-.122-7.514-.033-11.869,2.3-15.578,8.989-10.918,19.661-22.723,38.831-33.931,58.331-2.628,4.562-5.721,6.7-11.144,6.432-8.426-.407-16.891-.11-27.13-.11,2.149-4.18,3.443-7.016,5-9.682Q332.3,1185.612,414.9,1044.666q58.877-100.474,117.819-200.923c1.656-2.815,3.637-5.436,5.469-8.148l.136,57.825c-2.356,4.323-4.6,8.718-7.087,12.963q-93.116,158.923-186.251,317.835c-1.32,2.259-2.375,4.66-4.414,8.691H540.157Z" transform="translate(112.122 123.93)" fill="#fff"/>
      <path id="Path_10709" data-name="Path 10709" d="M290.224,893.421l-.136-57.825c1.689,1.715,3.818,3.171,5,5.183Q409.13,1035.146,523.02,1229.6q9.533,16.27,19.072,32.547l-251.856.13.007.006,1.812-29.376H489.47c-2.246-4.09-3.734-6.95-5.359-9.727q-69.555-118.677-139.156-237.314C326.815,954.987,308.474,924.232,290.224,893.421Z" transform="translate(360.223 123.93)" fill="#fff"/>
    </g>
  </g>
</svg>
