<svg xmlns="http://www.w3.org/2000/svg" xmlns:xlink="http://www.w3.org/1999/xlink" width="98.977" height="99.013" viewBox="0 0 98.977 99.013">
  <defs>
    <clipPath id="clip-path">
      <rect id="Rectangle_3040" data-name="Rectangle 3040" width="98.977" height="99.013" fill="none"/>
    </clipPath>
  </defs>
  <g id="Group_4472" data-name="Group 4472" transform="translate(0 0)">
    <g id="Group_4472-2" data-name="Group 4472" transform="translate(0 0)" clip-path="url(#clip-path)">
      <path id="Path_11484" data-name="Path 11484" d="M90.8,86.146c2.124,0,4.283-.021,6.442.01a1.624,1.624,0,0,1,1.712,1.672,1.663,1.663,0,0,1-1.678,1.612c-.135.01-.275,0-.412,0q-47.383,0-94.766.006c-.892,0-1.76-.151-1.967-1.1a2.252,2.252,0,0,1,.441-1.732,2.346,2.346,0,0,1,1.595-.457c7.186-.028,14.37-.018,21.552-.018h1.263A49.675,49.675,0,0,1,30.745,64.7c-2.17-.493-4.231-.958-6.294-1.433a9.19,9.19,0,0,1-1.788-.468c-1.157-.53-1.815-.072-2.552.844a38.315,38.315,0,0,0-7.969,17.311c-.153.84-.469,1.521-1.392,1.7-1.269.242-2.2-.782-1.864-2.2a48.217,48.217,0,0,1,1.9-6.94C17.215,57.56,28.993,48.42,46.121,46.757,58.381,45.567,69.09,49.6,78,58.081A40.066,40.066,0,0,1,90.55,84.428c.042.48.1.958.148,1.437a1.773,1.773,0,0,0,.1.281M70.638,86.1c0-.351.014-.623,0-.892-.019-.309-.081-.614-.1-.921a45.363,45.363,0,0,0-5.283-18.2,1.26,1.26,0,0,0-1.549-.718c-2.448.3-4.9.546-7.362.756-1.727.147-3.462.2-5.169.3V86.1Zm-22.894,0V66.41a2.41,2.41,0,0,0-.27-.06c-4.166-.342-8.336-.67-12.5-1.038a1.07,1.07,0,0,0-1.19.7,44.978,44.978,0,0,0-4.7,13.236c-.406,2.242-.6,4.524-.9,6.857ZM68.319,64.714a49.449,49.449,0,0,1,5.733,21.348H87.377a38.2,38.2,0,0,0-8.724-22.533,1.732,1.732,0,0,0-2.32-.712,9.821,9.821,0,0,1-1.684.441c-2.058.477-4.117.947-6.33,1.456M51.177,50.172v12.9l11.7-.866a47.636,47.636,0,0,0-11.7-12.033m-3.416.1C43.87,52.735,37.108,59.79,36.337,62.241l11.424.828Zm-23.8,9.378a4.31,4.31,0,0,0,.641.263c2.31.5,4.631.95,6.926,1.508a1.3,1.3,0,0,0,1.636-.727,47.868,47.868,0,0,1,8.07-9.453c.155-.141.281-.317.563-.639a38.123,38.123,0,0,0-17.837,9.048m51.095.133a38.232,38.232,0,0,0-17.7-9.119c.081.163.1.269.166.327a50.082,50.082,0,0,1,8.7,10.114.893.893,0,0,0,.741.3c2.612-.5,5.218-1.039,8.1-1.623" transform="translate(0.02 9.563)" fill="#ffca0a"/>
      <path id="Path_11485" data-name="Path 11485" d="M74.009,36.3c.574,2.466-.016,4.442-2.062,5.792a4.554,4.554,0,0,1-5.247.043c-2.113-1.348-2.713-3.345-2.138-5.834-1.594,0-3.135-.031-4.672.031-.268.011-.594.374-.767.653a11.467,11.467,0,0,1-7.61,5.692A10.575,10.575,0,0,1,40.377,37.7a2.472,2.472,0,0,0-2.671-1.43,28.767,28.767,0,0,1-3.285.025,5.11,5.11,0,0,1-1.28,5.171A4.767,4.767,0,0,1,29.5,42.892c-3.184-.1-4.983-2.642-4.6-6.594H2.429a7.912,7.912,0,0,1-.927-.017A1.619,1.619,0,0,1,0,34.611a1.587,1.587,0,0,1,1.466-1.592A6.509,6.509,0,0,1,2.5,33H38.287a15.359,15.359,0,0,1,1.181-9.9H32.879c-.516,0-1.033.024-1.547-.011A1.639,1.639,0,0,1,29.7,21.438a1.61,1.61,0,0,1,1.649-1.629c1.855-.037,3.712-.013,5.568-.014.481,0,.964-.029,1.443,0a6.845,6.845,0,0,0,5.579-1.582c.979-.893,2.488-1.2,3.9-1.841V14.825q0-6.394,0-12.787C47.841.746,48.475-.011,49.5,0s1.629.765,1.63,2.075q.009,6.65,0,13.3V16.6a11.815,11.815,0,0,1,5.781,2.968,1.723,1.723,0,0,0,1.056.221c3.163.017,6.325,0,9.487.017a1.653,1.653,0,0,1,1.817,1.676A1.672,1.672,0,0,1,67.5,23.092c-.344.014-.687,0-1.032,0H59.521A15.345,15.345,0,0,1,60.669,33h35.84a5.854,5.854,0,0,1,1.029.025,1.637,1.637,0,0,1,0,3.246,5.724,5.724,0,0,1-1.028.027h-22.5Zm-16.265-6.6a11.248,11.248,0,0,0-1.811-6.153c-2.875-4.32-8.211-5.012-11.653-1.518a11.243,11.243,0,0,0-.6,14.689,7.316,7.316,0,0,0,11.67-.075,11.022,11.022,0,0,0,2.392-6.945M31.328,37.96a1.641,1.641,0,1,0-1.654,1.63,1.66,1.66,0,0,0,1.654-1.63m39.6-.048a1.642,1.642,0,1,0-1.607,1.678,1.661,1.661,0,0,0,1.607-1.678" transform="translate(0 0)"/>
      <path id="Path_11486" data-name="Path 11486" d="M36.969,23c0-1.433,1.3-2.333,2.324-1.714a4.56,4.56,0,0,0,5.206-.008,1.437,1.437,0,0,1,2.046.609,1.532,1.532,0,0,1-.347,2.125c-2.1,1.9-6.507,1.9-8.612-.018A3.635,3.635,0,0,1,36.969,23" transform="translate(7.595 4.325)"/>
    </g>
  </g>
</svg>
