<svg xmlns="http://www.w3.org/2000/svg" xmlns:xlink="http://www.w3.org/1999/xlink" width="96.595" height="60.933" viewBox="0 0 96.595 60.933">
  <defs>
    <clipPath id="clip-path">
      <rect id="Rectangle_3042" data-name="Rectangle 3042" width="96.595" height="60.933" fill="none"/>
    </clipPath>
  </defs>
  <g id="Group_4474" data-name="Group 4474" transform="translate(0 0)">
    <g id="Group_4474-2" data-name="Group 4474" transform="translate(0 0)" clip-path="url(#clip-path)">
      <path id="Path_11492" data-name="Path 11492" d="M96.59,32.622a.759.759,0,0,1-.121-.256,7.649,7.649,0,0,0-6.013-6.236,1.25,1.25,0,0,1-.767-.8c-.644-2.495-1.267-4.994-1.856-7.364l-.484-1.94.065-.1c.154-.229.319-.435.473-.625a2.1,2.1,0,0,0,.527-.869A7.221,7.221,0,0,0,86.9,8.5a6.558,6.558,0,0,0-5.174-2.034c-2.3.057-4.628.043-6.885.027-.964-.006-1.927-.013-2.891-.014-.234,0-.469-.013-.725-.028l-.6-.031V5.307c0-.679,0-1.325,0-1.971C70.616,1.059,69.547,0,67.257,0H9.869C7.576,0,6.46,1.116,6.459,3.412q0,13.187,0,26.375V29.9a3.321,3.321,0,0,0,.067.852,1.149,1.149,0,0,0,1.259.956,1.146,1.146,0,0,0,1.171-1.149,6.024,6.024,0,0,0,.018-.688l0-.233V2.577H68.109l0,27.295a5.187,5.187,0,0,0,.014.6,1.268,1.268,0,0,0,1.254,1.25H69.4a1.229,1.229,0,0,0,1.216-1.287c.018-.36.014-.718.009-1.087l0-.734.4-.073a1.678,1.678,0,0,1,.306-.042q2.151,0,4.3-.005c4.436-.01,9.027-.02,13.538.058a6.561,6.561,0,0,1,2.967,1.157,3.629,3.629,0,0,1,1.619,2.418l.074.32-1.738,0c-1.022,0-2-.006-2.98.007-1.05.014-1.484.443-1.5,1.48-.017.913-.017,1.872,0,2.932a4.426,4.426,0,0,0,4.51,4.581c.377.01.752.006,1.123.005l.767,0v7.247h-.262c-.331,0-.657,0-.979,0-.759-.007-1.478-.009-2.2.014a1.15,1.15,0,0,1-1.227-.8c-1.751-3.772-4.645-5.684-8.6-5.684H80.7c-3.914.012-6.8,1.915-8.577,5.657a.558.558,0,0,0-.031.1.632.632,0,0,1-.178.335,1.041,1.041,0,0,1-.723.336c-.311-.03-.5-.473-.541-.642a1.662,1.662,0,0,1-.032-.542c0-.063.007-.125.007-.185V44.46c0-2.476,0-4.952-.012-7.426a1.387,1.387,0,0,0-.388-1,1.2,1.2,0,0,0-.844-.335h-.02A1.307,1.307,0,0,0,68.115,37a5.045,5.045,0,0,0-.008.519l0,.218V48.608l-.524.048a4.518,4.518,0,0,1-.486.036H58.679q-10.826,0-21.651.013h-.005a1.179,1.179,0,0,1-1.221-.8c-1.739-3.773-4.636-5.686-8.612-5.686h-.024c-3.93.008-6.811,1.912-8.564,5.659a1.171,1.171,0,0,1-1.178.824H17.4c-1.6-.019-3.193-.016-4.79-.016q-1.3,0-2.606,0a3.191,3.191,0,0,1-.531-.06C9.4,48.617,9.33,48.6,9.26,48.6l-.227-.031V44.692h2.956c1.292,0,2.584.006,3.874-.019A1.2,1.2,0,0,0,17.094,43.5a1.247,1.247,0,0,0-1.132-1.293,3.018,3.018,0,0,0-.585-.03c-4.557,0-9.078,0-13.6,0a3.288,3.288,0,0,0-.866.085,1.132,1.132,0,0,0-.906,1.285,1.115,1.115,0,0,0,1.027,1.1,6.235,6.235,0,0,0,.872.037H6.459v1.283c0,.687,0,1.341,0,2A2.933,2.933,0,0,0,9.675,51.2c1.6.012,3.2.009,4.8.006l2.032,0H17.74l.016.243c.491,7.112,5.806,9.3,8.869,9.464a9.081,9.081,0,0,0,6.066-1.782A9.52,9.52,0,0,0,36.6,51.526l.013-.25H71.279l.016.246c.4,6.259,4.975,9.262,9.057,9.4a9.136,9.136,0,0,0,6.1-1.959,9.533,9.533,0,0,0,3.692-7.508l.012-.249h.25c.45,0,.9,0,1.335-.006,1.029-.007,2-.015,2.992.018a1.769,1.769,0,0,0,1.859-.893ZM70.675,9.128,70.9,9.1c.071-.009.142-.021.21-.033a3.034,3.034,0,0,1,.476-.054L73.8,9c2.8-.005,5.6-.01,8.4.007a3.792,3.792,0,0,1,2.794,1.144,3.329,3.329,0,0,1,.866,2.514l-.016.245H70.675Zm.035,16.8V15.573l.55-.03c.471-.028.921-.026,1.379-.026,1.743,0,3.481.005,5.252,0,1.854,0,3.731-.005,5.585-.025a1.276,1.276,0,0,1,1.453,1.153c.445,1.89.916,3.773,1.387,5.655q.316,1.261.628,2.521c.04.164.068.332.1.517l.1.588ZM31.928,56.5A6.776,6.776,0,0,1,27.2,58.418h-.14a6.871,6.871,0,0,1-6.711-6.974,6.888,6.888,0,0,1,6.808-6.731h.141A6.839,6.839,0,0,1,31.928,56.5m48.807,1.914h-.009a6.877,6.877,0,0,1-6.852-6.84,6.9,6.9,0,0,1,6.836-6.865h.085a6.853,6.853,0,0,1-.06,13.706M94.008,38.855l-.242.019c-.395.029-.758.047-1.09.047a2.723,2.723,0,0,1-2.01-.568c-.577-.583-.615-1.609-.488-3.076l.02-.239h3.81Z" transform="translate(0 0)"/>
      <path id="Path_11493" data-name="Path 11493" d="M45.99,21.311q2.549-2.545,5.086-5.1a1.49,1.49,0,0,0,.475-1.048,1.183,1.183,0,0,0-.39-.85,1.254,1.254,0,0,0-1.842.109c-.308.284-.6.582-.9.88l-.377.382L35.549,28.2l-.181-.239c-.11-.144-.207-.282-.3-.41a5.094,5.094,0,0,0-.5-.636c-2.107-2.127-4.011-4.044-5.968-5.965a1.548,1.548,0,0,0-1.07-.484,1.2,1.2,0,0,0-.273.031,1.178,1.178,0,0,0-.837.8c-.194.553-.039,1,.549,1.58q2.131,2.12,4.25,4.245,1.633,1.633,3.267,3.265c.955.952,1.48.951,2.445-.012q2.549-2.539,5.089-5.085Z" transform="translate(1.234 0.655)" fill="#ffca0a"/>
      <path id="Path_11494" data-name="Path 11494" d="M61,40.3c-.133-.008-.268-.007-.4-.006h-.15q-10.669,0-21.337,0c-.076,0-.157,0-.238-.005s-.156-.005-.234-.005a.938.938,0,0,0-.486.088c-.535.378-.864.751-.9,1.027a1.792,1.792,0,0,0,.574,1.2c.186.186.758.189,1.065.191,2.86.015,5.72.013,8.584.012h5.544c2.658,0,5.311,0,7.966-.008A1.253,1.253,0,0,0,62.4,41.613c.032-.728-.529-1.255-1.4-1.316" transform="translate(1.746 1.888)" fill="#ffca0a"/>
      <path id="Path_11495" data-name="Path 11495" d="M24.88,34.783c-.1-.3-.322-.71-1.384-.7q-9.384.009-18.766.006c-1.024,0-1.637.47-1.645,1.255a1.113,1.113,0,0,0,.3.827A1.816,1.816,0,0,0,4.7,36.6q3.379.006,6.754,0H13.99l2.369,0c2.328,0,4.736.01,7.1-.033a2.022,2.022,0,0,0,1.342-.568,1.579,1.579,0,0,0,.075-1.223" transform="translate(0.145 1.598)" fill="#ffca0a"/>
      <path id="Path_11496" data-name="Path 11496" d="M77.246,46.523h0a2.862,2.862,0,0,0-2.043.842,2.831,2.831,0,0,0-.826,2.024,2.922,2.922,0,0,0,2.87,2.885h.008a2.926,2.926,0,0,0,2.876-2.894,2.841,2.841,0,0,0-2.883-2.857" transform="translate(3.485 2.181)"/>
      <path id="Path_11497" data-name="Path 11497" d="M26.132,46.523h-.017a2.886,2.886,0,0,0-2.895,2.838,2.933,2.933,0,0,0,2.865,2.913A2.691,2.691,0,0,0,28.1,51.46a2.915,2.915,0,0,0,.057-4.1,2.839,2.839,0,0,0-2.024-.837" transform="translate(1.088 2.181)"/>
    </g>
  </g>
</svg>
