<svg xmlns="http://www.w3.org/2000/svg" xmlns:xlink="http://www.w3.org/1999/xlink" width="96.606" height="96.619" viewBox="0 0 96.606 96.619">
  <defs>
    <clipPath id="clip-path">
      <rect id="Rectangle_3038" data-name="Rectangle 3038" width="96.606" height="96.619" fill="none"/>
    </clipPath>
  </defs>
  <g id="Group_4470" data-name="Group 4470" transform="translate(0 0)">
    <g id="Group_4470-2" data-name="Group 4470" transform="translate(0 0)" clip-path="url(#clip-path)">
      <path id="Path_11467" data-name="Path 11467" d="M34.731,84.852a2.288,2.288,0,0,0,2.551,2.6l.219.006a10.574,10.574,0,0,0,1.231-.011c.752-.054,1.09.2,1.25.978a9.967,9.967,0,0,0,9.554,7.891h.159a9.989,9.989,0,0,0,9.732-7.6c.066-.258.133-.518.2-.773l.114-.431H71.521l.033.1c1.865,5.753,4.889,8.517,9.516,8.7a9.818,9.818,0,0,0,5.855-1.567,10.3,10.3,0,0,0,4.6-7.174l.022-.122h.125c.3,0,.583,0,.865.008.606.008,1.175.016,1.744-.017a2.169,2.169,0,0,0,2.263-2.271c.025-4.139.016-8.3,0-11.832A1.953,1.953,0,0,0,95.15,71.3c-.764-.231-.9-.625-.9-1.317q.009-4.057,0-8.113c0-4.328,0-8.8.03-13.2a2.347,2.347,0,0,0-1.375-2.345C78.462,38,63.783,29.52,49.588,21.32l-13.5-7.8q-6.053-3.5-12.114-6.981c-1.51-.864-2.585-.575-3.494.942-.134.222-.27.443-.417.68l-.235.381L18.06,7.508l.261-.467c.147-.263.28-.5.412-.741a2.253,2.253,0,0,0-.9-3.44c-1.361-.807-2.824-1.667-4.31-2.485a2.175,2.175,0,0,0-3.214.89C9.327,2.908,8.452,4.431,7.631,5.919a2.171,2.171,0,0,0,.846,3.155c.319.2.648.379.974.561.49.275,1,.558,1.469.886a1.547,1.547,0,0,1,.622,1.1c.022,1.868.023,3.766.024,5.6,0,1.621,0,3.243.017,4.863a1.09,1.09,0,0,1-.78,1.137,4.386,4.386,0,0,0-2.467,2.725,4.811,4.811,0,0,0,1.116,4.881l.087.106-2.364,2.34c-2.013,1.994-4.094,4.055-6.154,6.067a2.387,2.387,0,0,0-.78,1.874C.256,46.625.254,52.123.253,57.44v5.875c0,1.494.322,1.818,1.811,1.819q11.049,0,22.1,0c1.484,0,1.8-.325,1.8-1.824q0-2.892-.008-5.783C25.945,52.6,25.934,47.495,26,42.48a4.919,4.919,0,0,0-1.685-4.063c-1.921-1.794-3.767-3.667-5.552-5.479-.717-.726-1.422-1.444-2.122-2.143l-.061-.06.023-.085c.1-.359.2-.7.3-1.034a14.925,14.925,0,0,0,.519-2.073,1.093,1.093,0,0,0-.2-.864,1.246,1.246,0,0,0-.9-.42,1.124,1.124,0,0,0-1.269,1.053c-.044.243-.1.483-.165.788l-.185.846-.2-.25a1.974,1.974,0,0,0-1.349-.918c-.62-.031-1.176.508-1.783,1.156l-.1.109-.109-.1a2.017,2.017,0,0,1-.539-2.062,2.271,2.271,0,0,1,1.7-1.62c1.605-.326,1.684-.427,1.684-2.145V12.049l.142-.007c1.383-.065,1.946-1.1,2.541-2.19l.12-.218,1.727.993-.042.118c-.022.061-.039.116-.055.165a1.756,1.756,0,0,1-.105.275c-1.286,2.483-1.113,3.069,1.32,4.474L78.261,49.511c.18.1.356.215.557.344l.478.3-.16.131c-.509.421-1.016.822-1.514,1.218A39.219,39.219,0,0,0,74.463,54.2a6.1,6.1,0,0,1-5.1,1.819,31.728,31.728,0,0,0-3.483-.051c-.537.011-1.078.023-1.626.023H64.1v-4.3q0-3.847,0-7.7c0-1.924-.785-2.71-2.706-2.712-1.718,0-3.435,0-5.151,0-2.78,0-5.56.006-8.34-.008h-.036a5.282,5.282,0,0,0-5.142,3.192Q41.868,46.212,41,47.954c-1.084,2.179-2.206,4.432-3.252,6.674a7.67,7.67,0,0,0-.694,3.029c-.059,2.969-.049,5.993-.041,8.915q.005,1.651.007,3.3V71.01l-.109.03c-1.677.48-2.167,1.1-2.18,2.766,0,.613,0,1.225,0,1.838v.8l0,2.448c0,1.986-.006,3.973.008,5.959M23.453,62.634H2.74V41.917H23.453ZM13.119,32.091a8.432,8.432,0,0,0,.91-.1.727.727,0,0,1,.555.216c1.874,1.871,3.742,3.743,5.683,5.691l1.445,1.45H4.421l5.124-5.08c.094-.093.2-.184.3-.273a2.567,2.567,0,0,0,.562-.6,2.9,2.9,0,0,1,2.714-1.3m.954-22.6L9.8,7.02,12.39,2.525,16.665,5ZM49.742,93.878h0a7.57,7.57,0,0,1-.061-15.139h.056a7.569,7.569,0,1,1,.01,15.139M72.429,82c-.068.244-.131.48-.194.71-.154.577-.3,1.124-.492,1.651a1.051,1.051,0,0,1-.769.63c-2.357.022-4.745.025-7.093.025H59.753l-.965-3.2H72.482Zm9.16,11.881h-.023a7.546,7.546,0,0,1-7.547-7.612,7.562,7.562,0,0,1,7.536-7.526h.026a7.57,7.57,0,0,1,.007,15.139m12.485-8.944H91.563l-.944-3.112h3.455Zm-65-66.643-8.417-4.86c-.073-.042-.143-.091-.244-.161-.055-.039-.122-.086-.206-.143l-.115-.078,2.558-4.465.129.075Q55.233,27.4,87.606,46.093l.1.057-.116.446h-.116c-.191,0-.385.006-.577.013a8.02,8.02,0,0,1-1.288-.026,3.834,3.834,0,0,0-3.547,1.3,1.006,1.006,0,0,1-.761.4,1.6,1.6,0,0,1-.778-.264Q54.8,33.142,29.075,18.292M39.456,61.7c.024-.581.019-1.164.016-1.727-.014-1.948-.029-3.788,1.039-5.627,1.19-2.057,2.232-4.25,3.238-6.372.4-.843.8-1.685,1.211-2.521a2.749,2.749,0,0,1,2.573-1.732q6.271-.013,12.542,0h1.045a1.047,1.047,0,0,1,.243.041c.05.012.11.026.184.042l.118.025v4.64q0,4.07,0,8.143c0,1.471.339,1.81,1.816,1.812l1.823.006c2.253.008,4.584.016,6.873-.035a2.959,2.959,0,0,0,1.66-.6c1.771-1.425,3.557-2.9,5.285-4.318,1.536-1.266,3.124-2.575,4.7-3.849a2.787,2.787,0,0,1,1.568-.562c1.494-.042,2.964-.036,4.519-.03.57,0,1.145,0,1.728,0h.149V61.853H88.562q-2.361,0-4.721,0c-1.034.006-1.624.453-1.623,1.229,0,.76.6,1.2,1.634,1.2,1.6.008,3.2,0,4.8,0h3.108v6.758H39.5V64.287h.149c.227,0,.449,0,.669,0,.482,0,.937.008,1.4-.01.832-.032,1.33-.478,1.333-1.194a1.222,1.222,0,0,0-1.32-1.226c-.455-.023-.917-.018-1.406-.011-.232,0-.472,0-.722,0h-.157ZM37.228,73.608H94.06v5.68H93.91l-1.25,0c-1.19.008-2.425.008-3.634-.024a1.692,1.692,0,0,1-.906-.5,10.007,10.007,0,0,0-13.144,0,2.356,2.356,0,0,1-1.391.507c-5.406.03-10.732.032-15.83,0a2.511,2.511,0,0,1-1.48-.539,10.09,10.09,0,0,0-13.083-.008,2.619,2.619,0,0,1-1.467.546c-.626.027-1.247.036-1.877.036-.4,0-.807,0-1.22-.006S37.8,79.3,37.377,79.3h-.149Zm-.055,9c0-.214-.01-.435-.01-.668v-.149H40.65l-.051.19c-.067.239-.129.475-.19.705-.163.612-.316,1.189-.514,1.758a1.1,1.1,0,0,1-.706.541,1.536,1.536,0,0,1-.533.03,1.609,1.609,0,0,0-.356,0,2.311,2.311,0,0,1-.288.02.867.867,0,0,1-.631-.209,1.113,1.113,0,0,1-.227-.95,10.828,10.828,0,0,0,.02-1.269" transform="translate(0.047 0)"/>
      <path id="Path_11468" data-name="Path 11468" d="M13.135,58.947q5.572,0,11.142,0c1.426,0,1.857.431,1.859,1.862q0,11.143,0,22.286c0,1.424-.44,1.861-1.867,1.862q-11.141,0-22.282,0c-1.42,0-1.86-.442-1.86-1.869q0-11.143,0-22.286c0-1.424.437-1.854,1.867-1.855q5.57-.005,11.141,0m-10.2,23.2H23.347V61.73H2.933Z" transform="translate(0.024 11.508)" fill="#ffca0a"/>
      <path id="Path_11469" data-name="Path 11469" d="M13.152,85.135l-11.141,0C.51,85.132,0,84.621,0,83.114Q0,71.972,0,60.828c0-1.5.509-2,2.016-2.006H15.946q4.179,0,8.355,0c1.5,0,2.009.509,2.009,2.013q0,11.144,0,22.286c0,1.5-.51,2.01-2.016,2.012l-11.141,0M7.607,59.12H2.019C.671,59.122.3,59.489.3,60.828Q.3,71.97.3,83.114c0,1.349.368,1.719,1.71,1.72q11.139,0,22.282,0c1.348,0,1.716-.369,1.718-1.713q0-11.143,0-22.286c0-1.345-.368-1.713-1.71-1.714H7.607Zm15.915,23.2H2.806V61.6H23.521Zm-20.415-.3H23.223V61.9H3.106Z" transform="translate(0 11.483)" fill="#ffca0a"/>
      <path id="Path_11470" data-name="Path 11470" d="M38.1,45.063q-.9,1.807-1.789,3.616a1.291,1.291,0,0,0,1.293,2.1c1.482.013,2.964.008,4.446.007l1.906,0,1.873,0c1.525,0,3.05,0,4.577-.007,1.155-.008,1.566-.418,1.572-1.572.014-2.822.014-5.682,0-8.5-.006-1.152-.431-1.582-1.568-1.588-1.157-.006-2.315,0-3.472,0-1.553,0-3.158,0-4.739-.011h-.026A1.676,1.676,0,0,0,40.5,40.19c-.791,1.629-1.611,3.279-2.4,4.873m4.147-2.839c.137-.263.47-.635.782-.642,1.6-.033,3.173-.032,4.838-.029l1.626,0v6.729H39.253l.351-.736c.172-.362.335-.705.5-1.046l.415-.84c.557-1.131,1.132-2.3,1.725-3.439" transform="translate(7.036 7.634)"/>
      <path id="Path_11471" data-name="Path 11471" d="M73.641,41.984a1.411,1.411,0,0,1,1.34,1.392,1.377,1.377,0,0,1-1.4,1.311,1.309,1.309,0,0,1-1.315-1.371,1.362,1.362,0,0,1,1.376-1.333" transform="translate(14.108 8.196)"/>
      <path id="Path_11472" data-name="Path 11472" d="M73.629,44.863H73.6a1.461,1.461,0,0,1-1.462-1.525,1.514,1.514,0,0,1,.473-1.066,1.467,1.467,0,0,1,1.017-.412h.039A1.558,1.558,0,0,1,75.154,43.4a1.533,1.533,0,0,1-1.525,1.458m0-2.7a1.176,1.176,0,0,0-.81.33,1.215,1.215,0,0,0-.381.857,1.163,1.163,0,0,0,1.168,1.219h.024A1.228,1.228,0,0,0,74.856,43.4a1.267,1.267,0,0,0-1.194-1.239Z" transform="translate(14.084 8.172)" fill="#fff"/>
      <path id="Path_11473" data-name="Path 11473" d="M15.268,50.66c.006.887.453,1.451,1.167,1.471a1.158,1.158,0,0,0,.829-.307,1.632,1.632,0,0,0,.429-1.187c.016-3.644.016-7.381,0-11.422a1.649,1.649,0,0,0-.414-1.2,1.127,1.127,0,0,0-.816-.316h-.008c-.749.006-1.184.565-1.189,1.536-.008,1.3-.006,2.6,0,3.907V46.6c0,1.353,0,2.707.006,4.061" transform="translate(2.979 7.36)"/>
      <path id="Path_11474" data-name="Path 11474" d="M4.729,50.757a1.477,1.477,0,0,0,.423,1.07,1.131,1.131,0,0,0,.85.3,1.232,1.232,0,0,0,1.144-1.395q.014-3.672.008-7.346,0-2.133,0-4.271a1.216,1.216,0,0,0-.8-1.326,1.136,1.136,0,0,0-1.059.1,1.506,1.506,0,0,0-.573,1.259c-.023,1.334-.018,2.692-.012,4.005,0,.551,0,1.1,0,1.655,0,.6,0,1.2,0,1.8,0,1.36-.008,2.766.014,4.147" transform="translate(0.92 7.361)"/>
      <path id="Path_11475" data-name="Path 11475" d="M11.2,52.131h.017a1.064,1.064,0,0,0,.776-.3,1.839,1.839,0,0,0,.436-1.322c.011-1.3.008-2.61.006-3.916l0-7.4c0-.887-.344-1.354-1.086-1.471a1.528,1.528,0,0,0-.2-.016.99.99,0,0,0-.659.233A1.714,1.714,0,0,0,10,39.263c-.011,3.312-.012,6.877,0,11.224,0,1.052.428,1.636,1.2,1.643" transform="translate(1.95 7.361)"/>
      <path id="Path_11476" data-name="Path 11476" d="M42.346,68.678H42.33a4.277,4.277,0,0,0-4.242,4.168,4.162,4.162,0,0,0,1.2,2.99,4.265,4.265,0,0,0,3.022,1.311h.049A4.166,4.166,0,0,0,45.3,75.939a4.223,4.223,0,0,0-2.957-7.261m0,6.02h-.054a1.817,1.817,0,0,1-1.752-1.792,1.751,1.751,0,0,1,.532-1.263,1.8,1.8,0,0,1,1.273-.515h.05a1.763,1.763,0,0,1,1.267.553,1.8,1.8,0,0,1,.461,1.327,1.77,1.77,0,0,1-1.777,1.69" transform="translate(7.436 13.408)"/>
      <path id="Path_11477" data-name="Path 11477" d="M65.923,75.851a4.241,4.241,0,0,0,3,1.3A4.129,4.129,0,0,0,71.94,75.93a4.225,4.225,0,0,0-2.969-7.253h0a4.257,4.257,0,0,0-4.244,4.162,4.209,4.209,0,0,0,1.2,3.012m3.042-4.727h0a1.8,1.8,0,0,1,1.3.539,1.76,1.76,0,0,1,.5,1.288A1.812,1.812,0,0,1,68.977,74.7h0a1.821,1.821,0,0,1-1.294-.551,1.777,1.777,0,0,1,1.287-3.025" transform="translate(12.636 13.408)"/>
      <path id="Path_11478" data-name="Path 11478" d="M15.268,76.7a1.654,1.654,0,0,0,.388,1.207,1.174,1.174,0,0,0,.825.286c.754-.01,1.207-.544,1.211-1.429.018-3.8.018-7.676,0-11.518,0-.9-.44-1.424-1.2-1.441h-.039a1.1,1.1,0,0,0-.8.282,1.63,1.63,0,0,0-.385,1.194c-.012,1.33-.01,2.661-.006,3.99l0,1.672,0,1.689c0,1.355,0,2.713.006,4.07" transform="translate(2.979 12.457)" fill="#ffca0a"/>
      <path id="Path_11479" data-name="Path 11479" d="M4.717,72.646c0,1.38-.01,2.809.013,4.211a1.244,1.244,0,0,0,2.055,1.039,1.354,1.354,0,0,0,.355-.988c.022-4.1.013-8.373.006-11.81a1.133,1.133,0,0,0-1.138-1.282c-.7-.065-1.2.422-1.281,1.249a4.647,4.647,0,0,0-.012.486v5.205h0V70.9c0,.58,0,1.162,0,1.741" transform="translate(0.92 12.457)" fill="#ffca0a"/>
      <path id="Path_11480" data-name="Path 11480" d="M12.422,65.282a1.64,1.64,0,0,0-.4-1.186,1.113,1.113,0,0,0-.8-.288h-.043c-.79.018-1.176.522-1.18,1.542-.012,3.38-.012,7.051,0,11.226,0,1.084.394,1.617,1.2,1.624h.018a1.094,1.094,0,0,0,.8-.292,1.8,1.8,0,0,0,.412-1.305c.012-1.326.008-2.649.006-3.974l0-1.59q0-.879,0-1.758c0-1.311.007-2.667-.008-4" transform="translate(1.95 12.457)" fill="#ffca0a"/>
    </g>
  </g>
</svg>
