<svg xmlns="http://www.w3.org/2000/svg" xmlns:xlink="http://www.w3.org/1999/xlink" width="88.588" height="88.626" viewBox="0 0 88.588 88.626">
  <defs>
    <clipPath id="clip-path">
      <rect id="Rectangle_3039" data-name="Rectangle 3039" width="88.588" height="88.626" fill="none"/>
    </clipPath>
  </defs>
  <g id="Group_4471" data-name="Group 4471" transform="translate(0 0)">
    <g id="Group_4471-2" data-name="Group 4471" transform="translate(0 0)" clip-path="url(#clip-path)">
      <path id="Path_11481" data-name="Path 11481" d="M45.342,43.567l-8.475,8.445-3.056-3.2L32.3,50.5l4.71,4.713,10.57-10.573L46.333,43.3a5.105,5.105,0,0,1-1.563.145c.032.007.059.021.092.027Z" transform="translate(1.536 2.06)"/>
      <path id="Path_11482" data-name="Path 11482" d="M57.544,39.432l-.13,2.027V85.715H2.363V13.4H57.475v.262c0,.316-.012.638-.024.962a11.269,11.269,0,0,0,.046,2.07,5.976,5.976,0,0,1-.822,4.229l3.2-3.112-.083.075V11.038H0V88.1H59.828V80.194c0-13.371,0-28.739-.015-42.112M51.68,42.677v17.18H31.113V42.114H34.65c2.512,0,5.019.005,7.528-.015h.028a1.207,1.207,0,0,1,1.289.8,8.264,8.264,0,0,1,.084-3.7,1.247,1.247,0,0,1-1.2.573h-.026c-3.213-.028-6.477-.023-9.638-.02l-3.958,0V62.219h11.46l0,1.678c0,1.426.005,2.781-.02,4.137a1.427,1.427,0,0,1-.476.85c-.6.627-1.26,1.281-2.008,2a1.378,1.378,0,0,1-.839.5q-7.841.027-15.685,0H20.07a.515.515,0,0,1-.233-.068l-.252-.111V65.684H13.863V56.517H19.5V42.676H13.881V33.508h5.646V27.8h6.291v5.636H39.625V19.681H25.86v5.631H19.57V19.668H5.767V33.446h5.616v9.167H5.752V56.455H11.4v9.167H5.77v13.83H19.538v-5.7h4.749q6.081,0,12.162-.01h.008a1.411,1.411,0,0,1,1.475.837,3.935,3.935,0,0,0,4.111,2A4.124,4.124,0,0,0,45.4,73.212,3.934,3.934,0,0,0,43.382,69.1a1.341,1.341,0,0,1-.824-1.4c.028-1.142.027-2.284.027-3.426q0-.756,0-1.513a.523.523,0,0,1,.066-.227l.108-.258H54.074V57.534c0-4.6,0-10.377-.017-14.978M28.235,22.048H37.28v9.043H28.235Zm-20.132,0h9.04v9.043H8.1ZM8.119,45.03H17.16v9.042H8.119Zm9.018,32.062H8.1V68.05h9.04Zm25.949-4.564a1.718,1.718,0,0,1-1.643,1.744h-.052A1.71,1.71,0,0,1,39.7,72.63a1.717,1.717,0,0,1,1.642-1.743,1.768,1.768,0,0,1,1.206.464,1.683,1.683,0,0,1,.537,1.177" transform="translate(0 0.525)"/>
      <path id="Path_11483" data-name="Path 11483" d="M58.681,38.233c5.631-8.2,14.078-14.053,21.109-21.088l4.249-4.25c.27-.269.549-.548.8-.837a7.276,7.276,0,0,0-10.845-9.7Q68.986,7.34,64,12.341l-4.881,4.885c-.144.142-.293.278-.486.45l-.722.659-3.2,3.111a9.069,9.069,0,0,1-1.7,1.98c-2.181,1.946-4.26,4.089-6.272,6.16q-1.032,1.064-2.07,2.121a3.239,3.239,0,0,0-.715,1.17c-.766,2.183-1.481,4.329-2.126,6.377a2.171,2.171,0,0,1-.208.477,8.267,8.267,0,0,0-.085,3.7A3.651,3.651,0,0,0,44.34,45.5a5.1,5.1,0,0,0,1.563-.145l0-.005,3.814-1.272v.036a31.744,31.744,0,0,0,8.318-5.068c0-.1.2-.16.651-.815M71.7,8.059c.419-.426.842-.865,1.273-1.308,1-1.041,2.046-2.117,3.137-3.139a4.787,4.787,0,0,1,6.5,0,4.9,4.9,0,0,1,.741,6.532,8.524,8.524,0,0,1-.862.967c-.956.966-1.916,1.928-2.829,2.843l-1.21,1.215L71.517,8.243Zm-2.212,2.174,6.859,6.907-2.379,2.215-6.776-6.836Zm-4.133,4.329,2.45,2.372-18.3,18.3-2.443-2.376ZM50.607,41.282c-.357.128-.733.262-1.115.389l-.922.309c-1.035.35-2.1.711-3.176,1.012a1.841,1.841,0,0,1-.479.061,1.472,1.472,0,0,1-.976-.308,1.643,1.643,0,0,1-.3-1.454c.428-1.428.911-2.866,1.379-4.256l.619-1.853,5.813,5.8ZM53.7,39.6,51.42,37.2,69.662,18.956l2.25,2.424Z" transform="translate(1.967 0)" fill="#ffca0a"/>
    </g>
  </g>
</svg>
