<svg xmlns="http://www.w3.org/2000/svg" xmlns:xlink="http://www.w3.org/1999/xlink" width="89.447" height="88.228" viewBox="0 0 89.447 88.228">
  <defs>
    <clipPath id="clip-path">
      <rect id="Rectangle_3041" data-name="Rectangle 3041" width="89.447" height="88.228" fill="none"/>
    </clipPath>
  </defs>
  <g id="Group_4473" data-name="Group 4473" transform="translate(0 0)">
    <g id="Group_4473-2" data-name="Group 4473" transform="translate(0 0)" clip-path="url(#clip-path)">
      <path id="Path_11487" data-name="Path 11487" d="M85.812,39.414l2.739-2.359c1.1-.95,1.17-1.552.3-2.681Q81.594,24.933,74.326,15.5c-.852-1.106-1.417-1.2-2.613-.438l-2.671,1.7c-2,1.274-4,2.55-6.013,3.8a3.244,3.244,0,0,1-1.616.466c-3.751.035-7.5.01-11.253.03a6.334,6.334,0,0,0-1.645.239c-1.313.366-2.621.742-3.929,1.119-1.531.441-3.061.881-4.6,1.307a3.041,3.041,0,0,1-1.512.012c-2.6-.675-5.371-1.4-8.137-2.216a11.8,11.8,0,0,1-2.765-1.236c-1.9-1.164-3.8-2.381-5.647-3.561q-1.3-.827-2.6-1.653c-1.218-.771-1.733-.689-2.627.416L0,36.169v1.009c.079.086.158.175.234.263a7.391,7.391,0,0,0,.668.693Q2.477,39.5,4.062,40.857q1.818,1.562,3.63,3.132l.257.222a11.715,11.715,0,0,1,1.73,1.713c1.333,1.752,2.643,3.523,3.956,5.291q1.486,2.006,2.984,4.007a1.213,1.213,0,0,1,.026,1.7,5.907,5.907,0,0,0,2.838,9.061c.288.1.587.167.9.241.151.035.3.071.459.11l.224.057v.458c0,.141,0,.275,0,.408a5.779,5.779,0,0,0,5.364,6.153c.857.1.918.646.967,1.089a5.846,5.846,0,0,0,5.152,5.269c.375.047.766.06,1.145.071.184,0,.367.011.55.02l.234.013.044.228c.547,2.826,2.057,4.5,4.614,5.108,2.4.571,4.508-.249,6.461-2.513l.2-.237.228.214c2.117,2,4.309,2.51,6.7,1.58,2.335-.912,3.623-2.8,3.828-5.617l.019-.267.27-.01a6.032,6.032,0,0,0,4.279-1.787,6.179,6.179,0,0,0,1.733-4.21l.013-.264.264-.019a6.234,6.234,0,0,0,6.122-6.071l.022-.2.195-.055a1.42,1.42,0,0,1,.3-.077A5.937,5.937,0,0,0,74.791,56.9a1.641,1.641,0,0,1,.042-1.275c1.546-3.3,3.228-6.826,5.138-10.782a3.567,3.567,0,0,1,.859-1.119q2.482-2.164,4.982-4.3M3.5,36.508l14.95-18.521,7.642,4.862L10.174,42.242ZM21.45,63.378a3.027,3.027,0,0,1-2.143-.885,2.944,2.944,0,0,1-.189-3.993,25.342,25.342,0,0,1,2.574-2.562,3.853,3.853,0,0,1,1.182-.607c.17-.063.341-.127.5-.2l.074-.035.082.011a3.179,3.179,0,0,1,2.706,1.744,2.848,2.848,0,0,1-.373,3.281A24.666,24.666,0,0,1,23.3,62.7a2.808,2.808,0,0,1-1.852.674m7.335,6.5a2.612,2.612,0,0,1-1.78.673,3.082,3.082,0,0,1-2.219-.971,2.912,2.912,0,0,1-.115-3.94c1.409-1.507,2.965-3.054,4.623-4.6a2.951,2.951,0,0,1,1.179-.586,2.462,2.462,0,0,0,.262-.087l.063-.026.068,0a3.03,3.03,0,0,1,2.922,1.639,2.725,2.725,0,0,1-.33,3.218c-1.546,1.677-3.118,3.25-4.673,4.675m6.527,6.2a2.8,2.8,0,0,1-1.964.832,3.169,3.169,0,0,1-1.3-.294c-1.168-.524-1.715-1.479-1.776-3.1l0-.08.037-.072c.042-.078.087-.184.14-.3a4.541,4.541,0,0,1,.76-1.3c1.164-1.268,2.415-2.488,3.624-3.666l.41-.4a2.992,2.992,0,1,1,4.306,4.154c-1.246,1.31-2.631,2.694-4.238,4.233m10.254.766c-.006,2.3-3.193,5.536-5,5.587h-.111A2.825,2.825,0,0,1,37.841,80.9a2.682,2.682,0,0,1,.176-3.141,23.474,23.474,0,0,1,2.947-2.932,2.641,2.641,0,0,1,3.057-.175,2.709,2.709,0,0,1,1.546,2.186Zm26.128-15a2.87,2.87,0,0,1-2.069.9h0a3.433,3.433,0,0,1-2.405-1.09q-3.556-3.572-7.093-7.162l-3.694-3.738a5.982,5.982,0,0,0-.646-.6,1.464,1.464,0,0,0-1.87.111,1.4,1.4,0,0,0-.151,1.916,8.493,8.493,0,0,0,.767.828L58.377,56.9q3.419,3.45,6.829,6.907a3.229,3.229,0,0,1,.9,3.109,2.91,2.91,0,0,1-2.129,2.06,3.054,3.054,0,0,1-3.135-1.02Q57.914,64.972,54.965,62l-1.2-1.207a4.328,4.328,0,0,0-.51-.472,1.469,1.469,0,0,0-1.929.155,1.43,1.43,0,0,0-.1,1.861,11.86,11.86,0,0,0,.953,1.026l.289.289q1.06,1.074,2.125,2.139c1.438,1.444,2.925,2.936,4.362,4.432a3.137,3.137,0,0,1,.815,3.058,2.935,2.935,0,0,1-2.153,2.031,2.986,2.986,0,0,1-3-.923l-.759-.775c-1.062-1.081-2.159-2.2-3.262-3.274a1.457,1.457,0,0,0-2.1-.03,1.473,1.473,0,0,0,.061,2.121c.112.126.233.243.354.362l.191.189c.362.367.724.729,1.088,1.094.844.848,1.719,1.723,2.552,2.612a2.924,2.924,0,0,1,.473,3.444,2.752,2.752,0,0,1-2.425,1.595,2.684,2.684,0,0,1-.493-.044,4.857,4.857,0,0,1-1.687-.793c-.131-.084-.264-.166-.394-.245-.294-.176-.29-.741-.19-.978a6.019,6.019,0,0,0-.267-5.288,5.747,5.747,0,0,0-4.109-2.943.448.448,0,0,1-.265-.165l-.122-.108.01-.179a6.4,6.4,0,0,0-1.157-4.941A6.507,6.507,0,0,0,37.4,63.7l-.255-.023-.017-.255a6.369,6.369,0,0,0-2.186-4.638A6.576,6.576,0,0,0,29.824,57.5l-.267.032-.06-.261a6.038,6.038,0,0,0-9.913-3.481l-.241.2-7.114-9.575.369-.476c.154-.2.306-.4.465-.591l1.042-1.27q7.059-8.605,14.137-17.2a1.331,1.331,0,0,1,1.115-.526c1.206.285,2.382.607,3.627.95l1.554.426-.369.691c-.127.237-.237.445-.353.649q-.97,1.712-1.946,3.419c-1.4,2.455-2.846,4.993-4.238,7.506a6.07,6.07,0,0,0-.325,5.382,5.942,5.942,0,0,0,10.61.536c1.4-2.394,2.749-4.784,4.014-7.1a1.363,1.363,0,0,1,1.535-.782c1.016.092,2.032.161,3.049.228,1.059.072,2.116.143,3.173.241a2.539,2.539,0,0,1,1.475.629q10.163,10.1,20.277,20.247c1.407,1.409,1.509,3.208.252,4.477m5.262-17.481c-1.118,2.275-2.209,4.563-3.326,6.9L72.3,54.045l-.6-.571c-.192-.183-.361-.342-.525-.507L67.4,49.191q-7.346-7.343-14.679-14.7a2.74,2.74,0,0,0-1.88-.889c-2.627-.165-5.724-.365-8.772-.607a1.839,1.839,0,0,0-1.984,1.121c-1.55,2.8-3.185,5.664-4.626,8.185a3.008,3.008,0,0,1-3.706,1.515,2.938,2.938,0,0,1-1.8-1.73,3.162,3.162,0,0,1,.244-2.672c.923-1.676,1.87-3.339,2.818-5l1.724-3.042c.563-1,1.145-2.038,1.75-3.041a1.914,1.914,0,0,1,1-.8c4.221-1.25,8.39-2.446,11.55-3.347a5.108,5.108,0,0,1,1.372-.2c1.482-.006,2.994.008,4.444-.006,2.088-.022,4.187,0,6.281-.017h.018a1.682,1.682,0,0,1,1.46.729c4.711,6.019,9.466,12.059,14.131,17.957a1.434,1.434,0,0,1,.2,1.719m2.332-3.213L77.9,39.387,64.914,22.87l7.641-4.862,13.4,17.4Z" transform="translate(0 2.845)"/>
      <path id="Path_11488" data-name="Path 11488" d="M44.954,16.262c-.06.06-.126.12-.192.179-.141.128-.318.286-.338.393l-.014.075a2.682,2.682,0,0,0-.042,1.456,2.309,2.309,0,0,0,.821.709c.127.08.255.163.38.251.148-.09.289-.172.424-.25a4.209,4.209,0,0,0,.862-.588Q52.4,12.99,57.911,7.45l.567-.568a2.6,2.6,0,0,0,.481-.617,1.45,1.45,0,0,0-1.3-2.087,1.4,1.4,0,0,0-.787.24,4.523,4.523,0,0,0-.643.568q-5.675,5.668-11.276,11.276" transform="translate(8.652 0.816)" fill="#ffca0a"/>
      <path id="Path_11489" data-name="Path 11489" d="M33.126,17.748a1.728,1.728,0,0,0-.577-1.217C28.216,12.175,24.354,8.318,20.74,4.74a2.786,2.786,0,0,0-.781-.478c-.075-.036-.147-.069-.209-.1a1.571,1.571,0,0,0-1.5.9,1.451,1.451,0,0,0,.43,1.742l2.184,2.186q4.805,4.809,9.619,9.613a1.449,1.449,0,0,0,2.164.139,1.4,1.4,0,0,0,.473-1" transform="translate(3.541 0.813)" fill="#ffca0a"/>
      <path id="Path_11490" data-name="Path 11490" d="M39.107,7.609a1.52,1.52,0,0,0-1.457-1.7h-.006a1.346,1.346,0,0,0-1.032.453A1.86,1.86,0,0,0,36.188,7.6q-.014,4.741,0,9.482a1.877,1.877,0,0,0,.488,1.363,1.368,1.368,0,0,0,1,.371c.875-.02,1.423-.68,1.428-1.724.007-1.081.006-2.158,0-3.236V12.436l0-1.486c0-1.114,0-2.227,0-3.341" transform="translate(7.069 1.154)" fill="#ffca0a"/>
      <path id="Path_11491" data-name="Path 11491" d="M37.648,0h0a1.469,1.469,0,0,0-1.456,1.419A1.438,1.438,0,0,0,36.6,2.466a1.438,1.438,0,0,0,1.04.447h0A1.467,1.467,0,0,0,39.1,1.5,1.463,1.463,0,0,0,37.648,0" transform="translate(7.071 0)" fill="#ffca0a"/>
    </g>
  </g>
</svg>
