<?xml version="1.0" encoding="utf-8"?>
<!-- Generator: Adobe Illustrator 24.1.3, SVG Export Plug-In . SVG Version: 6.00 Build 0)  -->
<svg version="1.1" id="Group_4429" xmlns="http://www.w3.org/2000/svg" xmlns:xlink="http://www.w3.org/1999/xlink" x="0px" y="0px"
	 viewBox="0 0 101.9 101.9" style="enable-background:new 0 0 101.9 101.9;" xml:space="preserve">
<style type="text/css">
	.st0{clip-path:url(#SVGID_2_);}
	.st1{fill:#FFCA0A;}
</style>
<g id="Group_4430" transform="translate(0 0)">
	<g>
		<defs>
			<rect id="SVGID_1_" x="2.1" y="19.7" width="97.6" height="62.6"/>
		</defs>
		<clipPath id="SVGID_2_">
			<use xlink:href="#SVGID_1_"  style="overflow:visible;"/>
		</clipPath>
		<g id="Group_4430-2" class="st0">
			<path id="Path_11175" d="M24.7,40.1c3.9,0,7.9,0,11.8,0c2.4,0,3.6,1.2,3.6,3.6c0,7.9,0,15.8,0,23.6c0,2.5-1.2,3.7-3.7,3.7
				c-7.9,0-15.8,0-23.7,0c-2.4,0-3.6-1.2-3.6-3.6c0-7.9,0-15.8,0-23.7c0-2.4,1.2-3.6,3.6-3.6C16.7,40.1,20.7,40.1,24.7,40.1
				 M18.7,42.1c-2,0-3.8,0-5.7,0c-1.4,0-1.7,0.3-1.7,1.7c0,4.6,0,9.2,0,13.8c0,0.3,0,0.6,0.1,1c1.5,0,3,0,4.5,0
				c1.1,0,1.4,0.3,1.4,1.4c0,1.8,0,3.7,0,5.5c0,1.2-0.3,1.5-1.5,1.5c-1.5,0-2.9,0-4.3,0C11,68.5,11.4,69,12.8,69
				c7.9,0,15.8,0,23.7,0c1.4,0,1.7-0.3,1.7-1.7c0-2.7,0-5.5,0-8.2c0-5.1,0-10.2,0-15.3c0-1.3-0.4-1.6-1.6-1.7c-0.9,0-1.8,0-2.8,0
				h-3.1v1.2c0,3,0,5.9,0,8.9c0,1.4-0.6,1.9-1.8,1.2c-2.6-1.5-5.8-1.5-8.5,0c-1.1,0.6-1.7,0.1-1.7-1.2c0-3,0-6,0-9
				C18.7,43,18.7,42.6,18.7,42.1 M28.6,51.1v-8.9h-7.8v8.9c1.3-0.4,2.6-1.2,3.8-1.2C25.9,50,27.2,50.7,28.6,51.1 M15.1,60.7h-3.8
				v4.3h3.8V60.7z"/>
			<path id="Path_11176" class="st1" d="M92.9,51.8c-0.3,4.6-2.3,7.9-6.3,10c-0.4,0.2-0.7,0.6-0.9,1c-1,2.2-1.8,4.5-2.8,6.7
				c-0.2,0.5-0.6,0.8-1.1,1c-0.7,0.2-0.9-0.5-1.2-1c-0.9-2.2-1.8-4.4-2.7-6.6c-0.2-0.4-0.5-0.8-1-1.1c-5.5-2.7-7.9-9.3-5.2-14.8
				c2.7-5.5,9.3-7.9,14.8-5.2c3.2,1.5,5.5,4.5,6.1,8C92.8,50.5,92.8,51.2,92.9,51.8 M81.8,66.8c0.8-1.9,1.5-3.6,2.2-5.4
				c0.2-0.6,0.7-1.1,1.3-1.3c3.2-1.3,5.3-4.2,5.5-7.6c0.4-5-3.3-9.4-8.3-9.8c-5-0.4-9.4,3.3-9.8,8.3c-0.3,3.9,1.9,7.5,5.4,9.1
				c0.7,0.3,1.2,0.8,1.5,1.5C80.3,63.3,81,65,81.8,66.8"/>
			<path id="Path_11177" class="st1" d="M56.2,56.6c-0.8,0-1.6,0-2.4,0c-0.7,0-1.2-0.3-1.2-1c0-0.7,0.5-1,1.1-1c1.7,0,3.3,0,5,0
				c0.7,0,1.1,0.3,1.1,1s-0.5,1-1.1,1C57.8,56.6,57,56.6,56.2,56.6"/>
			<path id="Path_11178" class="st1" d="M47.1,56.6c-0.4,0.1-0.9,0.1-1.3,0c-0.4-0.2-0.7-0.6-0.9-1c0-0.3,0.5-0.9,0.8-0.9
				c0.9-0.1,1.9-0.1,2.8,0c0.3,0,0.8,0.6,0.8,0.9c-0.1,0.4-0.4,0.8-0.9,1C48,56.7,47.6,56.7,47.1,56.6"/>
			<path id="Path_11179" class="st1" d="M65.3,56.6c-0.5,0.1-0.9,0.1-1.4,0c-0.4-0.2-0.7-0.5-0.8-0.9c0.1-0.4,0.4-0.8,0.8-0.9
				c0.9-0.1,1.9-0.1,2.8,0c0.4,0.2,0.7,0.5,0.8,0.9c-0.1,0.4-0.4,0.8-0.8,1C66.2,56.6,65.7,56.7,65.3,56.6"/>
			<path id="Path_11180" d="M84.3,27.3h-8.1c-0.2,0-0.4,0-0.7,0c-0.7,0-1.2-0.2-1.2-1c0-0.7,0.5-1,1.1-1c0.4,0,0.8,0,1.1,0h15.8
				c0.2,0,0.4,0,0.7,0c0.7,0,1.3,0.2,1.3,1c0,0.8-0.6,1-1.2,1c-1.1,0-2.2,0-3.2,0L84.3,27.3"/>
			<path id="Path_11181" d="M7.9,26.2c-0.6-0.6-1.3-1.2-0.6-2c0.8-0.8,1.4,0,2,0.5c0.7-0.4,1.2-1.5,2.2-0.6c0.9,0.9-0.1,1.4-0.6,2.1
				c0.4,0.6,1.5,1.2,0.6,2.1c-0.9,0.9-1.4-0.1-2.1-0.6c-0.7,0.4-1.2,1.6-2.2,0.7C6.3,27.5,7.4,27,7.9,26.2"/>
			<path id="Path_11182" d="M34.1,58.7c0.6-0.1,1.1-0.1,1.7,0c0.4,0.1,0.8,0.5,1,0.9c0.2,0.6-0.3,1-0.9,1c-1.2,0-2.3,0-3.5,0
				c-0.5,0-1-0.5-1-1c0-0.5,0.5-1,1-1C33,58.7,33.6,58.7,34.1,58.7"/>
			<path id="Path_11183" d="M34.1,61.9c0.6,0,1.2,0,1.8,0s1,0.4,0.9,1c-0.1,0.4-0.5,0.9-0.8,0.9c-1.2,0.1-2.5,0.1-3.7,0
				c-0.4-0.1-0.7-0.5-0.8-0.9c0.1-0.4,0.4-0.8,0.9-1C32.9,61.8,33.5,61.8,34.1,61.9"/>
			<path id="Path_11184" d="M34.2,65.1c0.6-0.1,1.1,0,1.7,0c0.4,0.2,0.7,0.5,0.9,0.9c0.1,0.4-0.1,0.9-0.5,1c-0.1,0-0.2,0-0.3,0
				c-1.2,0.1-2.5,0.1-3.7,0c-0.3,0-0.8-0.6-0.8-1c0-0.3,0.5-0.8,0.9-0.9C33,65.1,33.6,65.1,34.2,65.1"/>
			<path id="Path_11185" class="st1" d="M81.7,57.6c-3.2-0.1-5.8-2.7-5.7-5.9c0.1-3.2,2.6-5.7,5.8-5.7c3.2,0,5.8,2.7,5.8,5.9
				C87.6,55.1,85,57.6,81.7,57.6 M81.8,48c-2.1,0-3.8,1.7-3.8,3.8c0,0,0,0,0,0c0,2.1,1.8,3.8,3.9,3.8c2.1,0,3.7-1.7,3.7-3.8
				C85.6,49.7,84,48,81.8,48C81.8,48,81.8,48,81.8,48"/>
			<path id="Path_11186" d="M99.8,82.3V20.2c-0.6-0.2-1.1-0.4-1.7-0.5c-31.4,0-62.7,0-94.1,0c-1.6,0-1.8,0.2-1.8,1.8v60.8H99.8z
				 M16.6,21.8h81v9h-81V21.8z M4.2,21.8h10.2v9H4.2L4.2,21.8z M4.2,33h93.4v47.2H4.2L4.2,33z"/>
		</g>
	</g>
</g>
</svg>
