<svg xmlns="http://www.w3.org/2000/svg" xmlns:xlink="http://www.w3.org/1999/xlink" width="117.464" height="75.338" viewBox="0 0 117.464 75.338">
  <defs>
    <clipPath id="clip-path">
      <rect id="Rectangle_2983" data-name="Rectangle 2983" width="117.464" height="75.338" transform="translate(0 0)" fill="none"/>
    </clipPath>
  </defs>
  <g id="Group_4430" data-name="Group 4430" transform="translate(0 0)">
    <g id="Group_4430-2" data-name="Group 4430" clip-path="url(#clip-path)">
      <path id="Path_11175" data-name="Path 11175" d="M27.191,24.638q7.109,0,14.218,0c2.932,0,4.362,1.422,4.365,4.361q.014,14.22,0,28.44c0,3-1.44,4.434-4.42,4.434q-14.276,0-28.55,0c-2.916,0-4.343-1.437-4.344-4.373q0-14.277,0-28.554c0-2.875,1.418-4.3,4.283-4.307q7.222-.014,14.446,0m-7.322,2.409c-2.414,0-4.627,0-6.841,0-1.723,0-2.068.349-2.069,2.083q0,8.313,0,16.626c0,.364.046.729.075,1.167,1.864,0,3.616-.008,5.368,0,1.328.008,1.694.37,1.7,1.705.012,2.216.008,4.433,0,6.65-.005,1.486-.339,1.83-1.81,1.84-1.749.012-3.5,0-5.22,0-.392,1.686.08,2.291,1.728,2.292q14.274.009,28.547,0c1.63,0,1.986-.378,1.986-2.055q0-4.93-.011-9.861-.013-9.229-.033-18.46c0-1.565-.424-1.979-1.969-1.993-1.108-.009-2.216,0-3.324,0H34.295V28.48c0,3.555.01,7.109,0,10.664-.007,1.64-.723,2.245-2.143,1.487a10.173,10.173,0,0,0-10.17.026c-1.359.711-2.1.111-2.1-1.433-.016-3.593-.005-7.186-.005-10.779,0-.411,0-.822,0-1.4m11.951,10.8V27.107H22.427v10.76c1.613-.531,3.121-1.418,4.626-1.415,1.557,0,3.113.871,4.767,1.391M15.583,49.422h-4.55v5.231h4.55Z"/>
      <path id="Path_11176" data-name="Path 11176" d="M110.059,38.715c-.349,5.526-2.814,9.5-7.6,12.018a2.6,2.6,0,0,0-1.1,1.169c-1.157,2.659-2.205,5.367-3.377,8.019A2.313,2.313,0,0,1,96.7,61.139c-.824.215-1.123-.583-1.39-1.231-1.089-2.647-2.151-5.306-3.294-7.931a2.719,2.719,0,0,0-1.159-1.265A13.373,13.373,0,1,1,109.8,36.256c.163.859.185,1.745.257,2.459M96.665,56.768c.949-2.292,1.838-4.357,2.655-6.451a2.766,2.766,0,0,1,1.621-1.618,10.533,10.533,0,0,0,6.616-9.186,10.921,10.921,0,1,0-15.225,9.146,2.99,2.99,0,0,1,1.746,1.8c.792,2.057,1.667,4.082,2.587,6.31" transform="translate(-0.85)" fill="#ffca0a"/>
      <path id="Path_11177" data-name="Path 11177" d="M65,44.456c-.955,0-1.911-.013-2.865,0-.861.017-1.448-.329-1.451-1.229,0-.844.558-1.195,1.367-1.194,1.987,0,3.973,0,5.96.005.8,0,1.338.348,1.325,1.221s-.55,1.194-1.356,1.192c-.993,0-1.987,0-2.98,0" fill="#ffca0a"/>
      <path id="Path_11178" data-name="Path 11178" d="M54.08,44.44a4.041,4.041,0,0,1-1.572-.045A1.9,1.9,0,0,1,51.477,43.2c-.039-.336.582-1.03.973-1.082a12.871,12.871,0,0,1,3.4,0c.389.052,1.006.755.963,1.091A1.859,1.859,0,0,1,55.767,44.4a4.614,4.614,0,0,1-1.687.045" fill="#ffca0a"/>
      <path id="Path_11179" data-name="Path 11179" d="M75.947,44.433a4.832,4.832,0,0,1-1.7-.046,1.671,1.671,0,0,1-.969-1.142,1.5,1.5,0,0,1,.956-1.12,12.9,12.9,0,0,1,3.423,0,1.5,1.5,0,0,1,.955,1.12,1.668,1.668,0,0,1-.963,1.143,4.832,4.832,0,0,1-1.7.046" fill="#ffca0a"/>
      <path id="Path_11180" data-name="Path 11180" d="M98.874,9.178H89.137c-.267,0-.534,0-.8,0-.843.008-1.434-.294-1.418-1.241.016-.882.578-1.172,1.374-1.165.458,0,.916,0,1.374,0H108.68c.268,0,.535.009.8,0,.874-.032,1.557.224,1.54,1.236-.017.939-.671,1.182-1.5,1.175-1.3-.01-2.6,0-3.895,0H98.874"/>
      <path id="Path_11181" data-name="Path 11181" d="M6.909,7.933c-.67-.734-1.593-1.409-.664-2.369.983-1.016,1.685-.013,2.415.607.8-.526,1.479-1.861,2.587-.738,1.04,1.054-.132,1.742-.724,2.537.526.777,1.823,1.476.717,2.563-1.067,1.049-1.732-.172-2.545-.759-.792.516-1.479,1.968-2.622.789-1.086-1.12.279-1.777.836-2.63"/>
      <path id="Path_11182" data-name="Path 11182" d="M38.5,46.93a7.5,7.5,0,0,1,2.042.047,1.9,1.9,0,0,1,1.16,1.087c.192.725-.334,1.232-1.108,1.251q-2.112.051-4.224,0a1.192,1.192,0,0,1,.073-2.383c.685,0,1.371,0,2.057,0"/>
      <path id="Path_11183" data-name="Path 11183" d="M38.493,50.83c.723,0,1.448-.029,2.169.009s1.2.532,1.045,1.2c-.1.439-.621,1.072-1,1.1a25.553,25.553,0,0,1-4.443,0,1.472,1.472,0,0,1-.964-1.1,1.721,1.721,0,0,1,1.037-1.17,7.72,7.72,0,0,1,2.154-.051"/>
      <path id="Path_11184" data-name="Path 11184" d="M38.606,54.726a7.751,7.751,0,0,1,2.042.047,1.786,1.786,0,0,1,1.059,1.066.966.966,0,0,1-.992,1.238,34.515,34.515,0,0,1-4.446-.043c-.384-.037-.935-.771-.967-1.217-.025-.338.6-.939,1.032-1.044a9.765,9.765,0,0,1,2.272-.047"/>
      <path id="Path_11185" data-name="Path 11185" d="M96.624,45.657A7.029,7.029,0,0,1,96.7,31.6a7.084,7.084,0,0,1,7,7.14,7.008,7.008,0,0,1-7.071,6.918m.039-11.577a4.58,4.58,0,0,0-4.591,4.591,4.649,4.649,0,0,0,4.645,4.571,4.581,4.581,0,0,0,4.5-4.566,4.518,4.518,0,0,0-4.557-4.6" transform="translate(-0.85)" fill="#ffca0a"/>
      <path id="Path_11186" data-name="Path 11186" d="M117.464,75.338V.631a7.9,7.9,0,0,0-2.1-.6Q58.762-.019,2.161,0C.247,0,0,.251,0,2.185V75.338ZM17.431,2.529h97.511V13.4H17.431Zm-14.9.017H14.805V13.422H2.527Zm-.007,13.5h112.4V72.816H2.52Z"/>
    </g>
  </g>
</svg>
