<svg xmlns="http://www.w3.org/2000/svg" xmlns:xlink="http://www.w3.org/1999/xlink" width="122.649" height="70.39" viewBox="0 0 122.649 70.39">
  <defs>
    <clipPath id="clip-path">
      <rect id="Rectangle_2984" data-name="Rectangle 2984" width="122.649" height="70.39" fill="none"/>
    </clipPath>
  </defs>
  <g id="Group_4431" data-name="Group 4431" clip-path="url(#clip-path)">
    <path id="Path_11187" data-name="Path 11187" d="M122.648,47.555a4.224,4.224,0,0,0-4.168-2.958l-.392,0V42.751c0-.993,0-1.944,0-2.894a2.207,2.207,0,0,0-.478-1.591,1.272,1.272,0,0,0-.945-.32c-.344.005-1.391.02-1.4,1.971-.005.952,0,1.9,0,2.879v1.785H78.369V3.029h36.893V10q0,10.029,0,20.057a4.686,4.686,0,0,0,.091,1.206,1.262,1.262,0,0,0,1.391,1.017,1.283,1.283,0,0,0,1.317-1.239,5.77,5.77,0,0,0,.025-.843l0-.309V3.266l.684-.128c.228-.042.43-.077.627-.128a1.264,1.264,0,0,0,1.08-1.345A1.264,1.264,0,0,0,119.3.3a5.55,5.55,0,0,0-.962-.06Q96.754.121,75.265.006h-.037C73.4.006,73.106.67,73.057,1.32c-.057.736.237,1.233,1.9,1.6l.117.026.26.251.057.214V16.735H67.254V2.992l1.056-.187a1.3,1.3,0,0,0,1.274-1.487C69.537.543,69.071.107,68.2.023A8.068,8.068,0,0,0,67.324,0l-.292,0L3.728,0C3.466,0,3.2,0,2.934.016,1.671.1,1.485.8,1.453,1.324A1.3,1.3,0,0,0,2.724,2.806c.16.025.319.059.508.1l.606.124,0,17.454c0,.433-.008.867.018,1.3a1.284,1.284,0,0,0,1.313,1.34,1.366,1.366,0,0,0,1.457-1.21,3.725,3.725,0,0,0,.043-.839l0-.281V2.912H64.281V44.592H6.665v-5.42q0-4.072-.005-8.145c0-1.168-.523-1.838-1.424-1.839h0c-1.149,0-1.392,1-1.394,1.834q-.009,4.307,0,8.618V44.5l-.288.08C.934,45.3.006,46.493,0,49.116v1.243c0,1.795-.005,3.591,0,5.386.009,2.675,1.489,4.164,4.163,4.192,1.635.016,3.27.013,4.906.011.975,0,1.953,0,2.927,0,.3,0,.606.021.9.042l.7.043.03.339c.451,4.938,2.221,7.771,5.738,9.189,4.289,1.725,8.118.686,11.395-3.089l.3-.349.3.354c2.916,3.476,6.373,4.643,10.273,3.46,4.339-1.311,6.637-4.513,6.825-9.517l.015-.38H74.2l.011.385c.12,4.593,2.114,7.688,5.93,9.2,4.191,1.667,7.956.6,11.183-3.16l.3-.352.3.355c2.951,3.511,6.44,4.671,10.366,3.44,4.323-1.351,6.585-4.576,6.724-9.585l.012-.383h.383c.862,0,1.719-.008,2.572-.018,1.9-.02,3.87-.038,5.8.044,2.464.119,4.028-.82,4.868-2.921ZM67.279,19.721h8.1v9.672h-8.1Zm0,12.7H75.42V44.561H67.278ZM29.2,62.869A6.265,6.265,0,0,1,23.028,67.5a6.8,6.8,0,0,1-.942-.065,6.445,6.445,0,0,1-5.539-6.775,6.528,6.528,0,0,1,6.045-6.2,6.17,6.17,0,0,1,6.563,4.623l.091.471H27.9c-.756,0-1.5,0-2.249,0l-.724,0c-.626,0-1.271-.011-1.893.043A1.314,1.314,0,0,0,21.685,61a1.292,1.292,0,0,0,1.385,1.355c.98.042,1.981.036,2.952.03.417,0,.838,0,1.249,0h2.051Zm10.876,4.553a7.032,7.032,0,0,1-1.042.077,6.289,6.289,0,0,1-6.181-4.626l-.135-.5h5.448c.877,0,1.358-.308,1.564-1a1.358,1.358,0,0,0-.152-1.187,1.571,1.571,0,0,0-1.238-.61c-.85-.05-1.724-.045-2.569-.035-.38,0-.756.005-1.142.005H32.841l.081-.463a6.17,6.17,0,0,1,6.37-4.651,6.538,6.538,0,0,1,.783,12.984M84.1,62.364c.875.026,1.749.023,2.624.019q.73,0,1.46,0c.267,0,.535.017.806.033l.86.042-.1.459A6.167,6.167,0,0,1,83.64,67.5a6.719,6.719,0,0,1-.779-.046,6.529,6.529,0,0,1,.208-12.991,6.255,6.255,0,0,1,6.683,4.606l.1.478H85.033A9.757,9.757,0,0,0,84,59.577a1.435,1.435,0,0,0-1.457,1.449A1.419,1.419,0,0,0,84.1,62.364m16.567,5.056a7.011,7.011,0,0,1-1.041.078,6.161,6.161,0,0,1-6.154-4.642l-.105-.478,2.1,0c1.168,0,2.3.005,3.428-.007.652-.008,1.753-.195,1.8-1.349a1.241,1.241,0,0,0-.33-.94A2.04,2.04,0,0,0,98.9,59.56c-1.142-.021-2.283-.015-3.426-.011l-1.9,0,.016-.41c.09-2.388,2.879-4.634,5.849-4.715a6.542,6.542,0,0,1,1.234,12.991m18.787-10.691a1.748,1.748,0,0,1-1.267.408h-.1c-1.57-.033-3.141-.032-4.708-.028-1.362,0-2.724,0-4.086-.016a1.913,1.913,0,0,1-1.514-.731,9.441,9.441,0,0,0-15.719-1.02L92,55.426l-.454.2-.283-.19c-2.887-3.425-6.416-4.566-10.488-3.376a8.593,8.593,0,0,0-5.118,4.061,1.82,1.82,0,0,1-1.761,1H73.88q-5.1-.013-10.192-.013-7.44,0-14.878-.028a2.23,2.23,0,0,1-1.674-.834,9.748,9.748,0,0,0-7.428-4.659,9.758,9.758,0,0,0-8,3.521l-.169.3-.283.038-.246-.016-.093-.225c-.471-.319-.926-.65-1.374-.975a16.587,16.587,0,0,0-3.177-1.974,9.048,9.048,0,0,0-11.188,3.7,2.232,2.232,0,0,1-2.159,1.176c-2.577-.049-5.292-.05-8.545-.007a1.746,1.746,0,0,1-1.294-.39,1.628,1.628,0,0,1-.371-1.258c.059-2.11.059-4.252,0-6.363A1.655,1.655,0,0,1,3.228,47.8a1.565,1.565,0,0,1,1.29-.309,2.949,2.949,0,0,0,.361.005l.2,0H117.53c2.12,0,2.291.171,2.291,2.3,0,.546,0,1.091-.008,1.637-.011,1.278-.021,2.6.027,3.892a1.875,1.875,0,0,1-.385,1.413" transform="translate(0 0)"/>
    <path id="Path_11188" data-name="Path 11188" d="M102.259,16.019C95.442,16,89.3,16,83.465,16.021a3.325,3.325,0,0,0-3.589,3.623c-.024,1.527-.024,3.177,0,5.049.03,2.408,1.33,3.686,3.759,3.7q3.345.011,6.69,0l2.467,0,2.89,0c2.207,0,4.417.008,6.625-.008a3.29,3.29,0,0,0,3.578-3.506c.039-1.617.039-3.346,0-5.285a3.3,3.3,0,0,0-3.628-3.577m.71,9.47H82.778V18.9h20.191Z" transform="translate(4.109 0.824)" fill="#ffca0a"/>
    <path id="Path_11189" data-name="Path 11189" d="M93.195,7.781A1.235,1.235,0,0,0,91.9,6.554q-.058,0-.117,0a1.088,1.088,0,0,0-1.231.937,25.708,25.708,0,0,0,0,4.48,1.144,1.144,0,0,0,1.345.947,1.254,1.254,0,0,0,1.3-1.233,12.135,12.135,0,0,0,.018-1.288c0-.2-.008-.4-.008-.6s.005-.426.011-.639a11.555,11.555,0,0,0-.022-1.369" transform="translate(4.654 0.337)"/>
    <path id="Path_11190" data-name="Path 11190" d="M102.809,7.92a1.456,1.456,0,0,0-1.445-1.376,1.352,1.352,0,0,0-.868.308,1.278,1.278,0,0,0-.45.905,24.919,24.919,0,0,0,.019,4,1.232,1.232,0,0,0,1.428,1.154,1.284,1.284,0,0,0,1.313-1.328c.025-.393.02-.789.014-1.184,0-.2-.006-.392-.005-.588l.006-.584c.006-.437.013-.875-.012-1.31" transform="translate(5.144 0.337)"/>
    <path id="Path_11191" data-name="Path 11191" d="M80.876,10.3a13.558,13.558,0,0,0,.018,1.376,1.251,1.251,0,0,0,1.285,1.241,1.174,1.174,0,0,0,1.389-1.045,26.017,26.017,0,0,0,.005-4.255c-.055-.7-.561-1.1-1.375-1.057a1.228,1.228,0,0,0-1.3,1.215,9.856,9.856,0,0,0-.02,1.276c.005.2.011.4.011.608l-.009.394c0,.082,0,.164,0,.246" transform="translate(4.161 0.337)"/>
    <path id="Path_11192" data-name="Path 11192" d="M83.556,32.947c-.087-.995-1.111-1-1.417-.983a1.194,1.194,0,0,0-1.232,1.154,9.242,9.242,0,0,0-.023,1.261c.006.207.012.412.012.617,0,.221-.005.443-.012.665a12.658,12.658,0,0,0,.022,1.46,1.186,1.186,0,0,0,1.226,1.161c.31.026,1.33.023,1.422-.976a24.538,24.538,0,0,0,0-4.359" transform="translate(4.161 1.645)"/>
    <path id="Path_11193" data-name="Path 11193" d="M102.81,33.324a1.286,1.286,0,0,0-1.289-1.364c-.049,0-.1-.006-.147-.006a1.371,1.371,0,0,0-.894.313,1.286,1.286,0,0,0-.442.913,31.072,31.072,0,0,0-.011,3.8,1.393,1.393,0,0,0,2.784-.093c.022-.382.017-.764.011-1.146l-.006-.516.006-.6c.006-.434.013-.867-.013-1.3" transform="translate(5.144 1.644)"/>
    <path id="Path_11194" data-name="Path 11194" d="M93.2,33.189a1.209,1.209,0,0,0-1.279-1.226c-.029,0-.067,0-.109,0a1.153,1.153,0,0,0-1.289,1.026,24.8,24.8,0,0,0-.008,4.248A1.157,1.157,0,0,0,91.9,38.287a1.217,1.217,0,0,0,1.3-1.2,10.628,10.628,0,0,0,.021-1.261c-.005-.208-.011-.417-.009-.626s.005-.421.011-.631a12.673,12.673,0,0,0-.02-1.376" transform="translate(4.652 1.645)"/>
    <path id="Path_11195" data-name="Path 11195" d="M40.63,8.591v.184q0,14.281,0,28.566a5.134,5.134,0,0,0,.089,1.215,1.333,1.333,0,0,0,1.739.99c.713-.217,1-.7,1-1.685q-.011-5.435-.005-10.87V19.28q0-5.536-.006-11.07c0-.6-.176-1.617-1.327-1.663l-.074,0c-.846,0-1.361.6-1.417,1.648-.007.134-.005.266,0,.4" transform="translate(2.09 0.337)" fill="#ffca0a"/>
    <path id="Path_11196" data-name="Path 11196" d="M31.426,8.591v.184q0,14.281,0,28.566a5.134,5.134,0,0,0,.089,1.215,1.333,1.333,0,0,0,1.739.99c.713-.217,1-.7,1-1.685q-.011-5.435-.005-10.87V19.28q0-5.536-.006-11.07c0-.6-.176-1.617-1.327-1.663l-.074,0c-.846,0-1.361.6-1.417,1.648-.007.134-.005.266,0,.4" transform="translate(1.617 0.337)" fill="#ffca0a"/>
    <path id="Path_11197" data-name="Path 11197" d="M22.222,8.591v.184q0,14.281,0,28.566a5.134,5.134,0,0,0,.089,1.215,1.333,1.333,0,0,0,1.739.99c.713-.217,1-.7,1-1.685q-.011-5.435-.005-10.87V19.28q0-5.536-.006-11.07c0-.6-.176-1.617-1.327-1.663l-.074,0c-.846,0-1.361.6-1.417,1.648-.007.134-.005.266,0,.4" transform="translate(1.143 0.337)" fill="#ffca0a"/>
    <path id="Path_11198" data-name="Path 11198" d="M13.019,8.591v.184q0,14.281,0,28.566a5.135,5.135,0,0,0,.089,1.215,1.333,1.333,0,0,0,1.739.99c.713-.217,1-.7,1-1.685q-.011-5.435-.005-10.87V19.28q0-5.536-.006-11.07c0-.6-.176-1.617-1.327-1.663l-.074,0c-.846,0-1.361.6-1.417,1.648-.007.134-.005.266,0,.4" transform="translate(0.67 0.337)" fill="#ffca0a"/>
    <path id="Path_11199" data-name="Path 11199" d="M49.718,8.591v.184q0,14.281,0,28.566a5.135,5.135,0,0,0,.089,1.215,1.333,1.333,0,0,0,1.739.99c.713-.217,1-.7,1-1.685q-.011-5.435-.005-10.87V19.28q0-5.536-.006-11.07c0-.6-.176-1.617-1.327-1.663l-.074,0c-.846,0-1.361.6-1.417,1.648-.007.134-.005.266,0,.4" transform="translate(2.558 0.337)" fill="#ffca0a"/>
  </g>
</svg>
