<svg xmlns="http://www.w3.org/2000/svg" xmlns:xlink="http://www.w3.org/1999/xlink" width="101.906" height="101.93" viewBox="0 0 101.906 101.93">
  <defs>
    <clipPath id="clip-path">
      <rect id="Rectangle_2985" data-name="Rectangle 2985" width="101.906" height="101.93" fill="none"/>
    </clipPath>
  </defs>
  <g id="Group_4432" data-name="Group 4432" transform="translate(0 0)">
    <g id="Group_4432-2" data-name="Group 4432" transform="translate(0 0)" clip-path="url(#clip-path)">
      <path id="Path_11200" data-name="Path 11200" d="M11.507,5.105a4.733,4.733,0,1,1-4.75,4.733,4.774,4.774,0,0,1,4.75-4.733m1.683,4.686a1.713,1.713,0,0,0-1.777-1.64A1.664,1.664,0,0,0,9.806,9.935a1.685,1.685,0,0,0,1.7,1.6,1.738,1.738,0,0,0,1.683-1.746" transform="translate(1.483 1.121)" fill="#ffca0a"/>
      <path id="Path_11201" data-name="Path 11201" d="M26.572,9.852a4.714,4.714,0,1,1-4.719-4.747,4.733,4.733,0,0,1,4.719,4.747M21.838,11.54a1.688,1.688,0,0,0,1.7-1.678,1.659,1.659,0,0,0-1.656-1.714,1.715,1.715,0,0,0-1.73,1.666,1.745,1.745,0,0,0,1.682,1.727" transform="translate(3.761 1.121)" fill="#ffca0a"/>
      <path id="Path_11202" data-name="Path 11202" d="M36.955,9.884a4.7,4.7,0,1,1-4.687-4.779,4.744,4.744,0,0,1,4.687,4.779M32.206,8.147a1.669,1.669,0,0,0-1.644,1.732,1.7,1.7,0,0,0,1.727,1.658A1.724,1.724,0,0,0,33.949,9.8a1.7,1.7,0,0,0-1.743-1.649" transform="translate(6.044 1.121)" fill="#ffca0a"/>
      <path id="Path_11203" data-name="Path 11203" d="M89.958,87.41c0-1.856-.412-2.255-2.306-2.257-2.883,0-5.765-.015-8.648.011-.576,0-.949-.128-1.083-.728a2.041,2.041,0,0,0-.276-.741c-1.029-1.438-.569-2.45.68-3.551,1.862-1.639,3.528-3.5,5.307-5.234a1.921,1.921,0,0,0,.613-2.391H84.3l-6.735-6.531-.039-.165c-1.541-1.534-3.094-3.055-4.609-4.614a2.337,2.337,0,0,1-.6-1.45c-.057-2.818-.027-5.639-.028-8.459,0-2.185-.3-2.495-2.445-2.5H68.1c-.024-.427-.057-.749-.057-1.072,0-1.857.126-3.726-.039-5.57a4.255,4.255,0,0,1,1.9-4.4,1.642,1.642,0,0,0,.617-2.03C69.364,32,68.193,28.269,67.047,24.534a1.661,1.661,0,0,0-1.762-1.3c-1.128,0-2.256.017-3.383,0a1.787,1.787,0,0,0-1.949,1.457c-.94,3.14-1.953,6.258-2.912,9.394-.933,3.053-1.13,2.566,1.322,4.795a1.848,1.848,0,0,1,.656,1.547c-.03,2.455-.01,4.909-.015,7.364,0,.317-.034.633-.056,1.012-.755,0-1.415,0-2.073,0-1.64.006-2.069.427-2.075,2.04,0,1.112,0,2.224,0,3.291H43.03a3.151,3.151,0,0,1,1.2-3.559c1.415-1.247,2.67-2.675,4.039-3.98a2.672,2.672,0,0,0,.9-2.1q-.04-5.623,0-11.247a2.6,2.6,0,0,0-.846-2.021c-2.428-2.356-4.825-4.745-7.221-7.134C40.5,23.5,39.892,23,39,23.4c-.845.369-.906,1.121-.9,1.924.013,4.014-.006,8.029.02,12.043a1.254,1.254,0,0,1-.68,1.276c-1.091.624-2.14,1.324-3.248,2.019-.957-.6-1.895-1.219-2.87-1.777a1.872,1.872,0,0,1-1.138-1.668,1.784,1.784,0,0,0-1.033-1.239,1.776,1.776,0,0,0-1.49.412c-.89.843-.5,3.408.552,4.08,1.618,1.038,3.261,2.036,4.875,3.08a1.851,1.851,0,0,0,2.216-.012q2.38-1.54,4.8-3.02a1.984,1.984,0,0,0,1.021-1.89c-.03-3.052-.013-6.1-.01-9.157,0-.279.029-.56.044-.839l.289-.2c1.482,1.549,2.975,3.086,4.429,4.661a1.463,1.463,0,0,1,.244.911c.016,3.252.028,6.5-.012,9.754a1.966,1.966,0,0,1-.5,1.2,44.049,44.049,0,0,1-3.591,3.583c-1.582,1.339-2.5,2.847-2.125,4.99a.969.969,0,0,1-.324.815,1.842,1.842,0,0,0-.86,1.772c.017,2.588.006,5.176.006,7.764,0,2.019,0,2.018-1.83,2.786a6.16,6.16,0,0,0-.9.417c-.517.324-.861.177-1.269-.241-1.877-1.923-3.808-3.792-5.669-5.73a2.22,2.22,0,0,1-.563-1.371c-.054-2.62-.046-5.242-.015-7.863a2.677,2.677,0,0,0-.887-2.108Q25.1,47.383,22.727,44.9a1.943,1.943,0,0,1-.5-1.2c-.046-2.322.151-4.661-.07-6.962a5.909,5.909,0,0,1,2.452-5.812,28.762,28.762,0,0,0,2.622-2.55c0,.656,0,1.018,0,1.38.018,1.343.535,2.007,1.544,1.991.976-.016,1.477-.655,1.488-1.946.012-1.525,0-3.052.006-4.578,0-.771-.115-1.482-.906-1.834-.838-.372-1.441.048-2.022.626q-3.631,3.616-7.3,7.2a2.579,2.579,0,0,0-.856,2.014q.046,5.624,0,11.247a2.687,2.687,0,0,0,.9,2.1c1.619,1.572,3.218,3.164,4.775,4.795A2.1,2.1,0,0,1,25.4,52.66q.077,3.633,0,7.265a1.923,1.923,0,0,1-.5,1.2c-1.914,1.952-3.861,3.874-5.806,5.8l.006.041-5.681,5.558h.027a2.05,2.05,0,0,0,.747,2.508c2.066,2.014,4.079,4.084,6.141,6.1.445.437.6.812.26,1.368a7.58,7.58,0,0,0-.487,1.088c-.637,1.567-.635,1.567-2.283,1.567-2.621,0-5.24,0-7.86,0-1.794,0-2.213.432-2.217,2.253,0,2.389.026,4.778-.015,7.165a2.531,2.531,0,0,0,.922,2.258H39.5a2.19,2.19,0,0,0,1.034-1.888,8.325,8.325,0,0,1,16.629-.094,2.21,2.21,0,0,0,1.046,1.982h30.85a2.562,2.562,0,0,0,.91-2.262c-.041-2.385-.011-4.773-.015-7.159M60,34.6c.868-2.5,1.627-5.037,2.369-7.577.2-.667.554-.772,1.15-.766s.955.082,1.154.762c.8,2.763,1.666,5.51,2.552,8.248.173.537.117.9-.334,1.189-1.651,1.05-2.016,2.566-1.913,4.44.141,2.574.035,5.163.035,7.86H62.009v-1.1c0-2.552-.066-5.107.028-7.655a3.117,3.117,0,0,0-1.369-3.069A1.689,1.689,0,0,1,60,34.6m-2.2,17.266H69.253a45.816,45.816,0,0,0,.04,5.374,5.886,5.886,0,0,1-2.4,5.745,36.983,36.983,0,0,0-3.8,3.78A1.046,1.046,0,0,1,61.57,67a7.093,7.093,0,0,0-1-.44c-1.564-.634-1.566-.633-1.566-2.373,0-2.684-.009-5.369.006-8.054a1.812,1.812,0,0,0-.851-1.773.888.888,0,0,1-.339-.621c-.046-.59-.016-1.185-.016-1.875m29.06,41.912H71.715c-.256-1.375-.441-2.749-.771-4.087A22.828,22.828,0,0,0,39.97,74.315c-1.041.45-1.469,1.144-1.215,1.971.291.945,1.238,1.288,2.377.806a20.267,20.267,0,0,1,8.535-1.56A19.917,19.917,0,0,1,68.54,93.175c.015.163,0,.329,0,.655H66.3c-1.824,0-3.648-.015-5.473.009-.518.007-.728-.139-.847-.688a11.346,11.346,0,0,0-22.283.029c-.057.245-.359.616-.551.619-2.644.041-5.289.028-8,.028a18.73,18.73,0,0,1,1.893-7.159A19.657,19.657,0,0,1,35.179,81c.6-.573.874-1.3.351-1.941a2.516,2.516,0,0,0-1.583-.69c-.323-.034-.747.373-1.043.666A22.57,22.57,0,0,0,26.149,93.28c-.012.13-.041.259-.077.468H10.849V88.205h1.09q3.929,0,7.86,0c1.657,0,1.884-.21,2.455-1.729.512-1.361,1.094-2.7,1.706-4.018a1.826,1.826,0,0,0-.383-2.332c-2.224-2.183-4.417-4.4-6.543-6.519L27.272,63.388a16.662,16.662,0,0,0,1.1,1.336c1.744,1.775,3.528,3.509,5.263,5.291a1.831,1.831,0,0,0,2.4.387,46.036,46.036,0,0,1,4.3-1.788,1.794,1.794,0,0,0,1.375-1.907c-.028-3.113-.01-6.226-.01-9.448H56v1.065c0,2.752.029,5.507-.013,8.259a1.877,1.877,0,0,0,1.446,2.058,37.02,37.02,0,0,1,4.212,1.751,1.878,1.878,0,0,0,2.48-.427c2.151-2.208,4.341-4.376,6.432-6.477L80.641,73.569c-.083.093-.283.338-.5.561Q77.22,77.054,74.3,79.973c-1,1-1.027,1.386-.468,2.633.608,1.357,1.2,2.729,1.69,4.131a1.926,1.926,0,0,0,2.061,1.475c2.719-.024,5.44-.007,8.159-.007h1.126Z" transform="translate(1.696 5.098)"/>
      <path id="Path_11204" data-name="Path 11204" d="M81.7,71.631a5.552,5.552,0,0,0,5.8-4.3,1.163,1.163,0,0,1,.154-.249V28.258c-.512-.64-1.058-1.219-1.995-.879s-1.056,1.1-1.011,1.945c.015.265,0,.532,0,.8q0,17.667,0,35.332c0,2.221-.927,3.162-3.131,3.167-4.013.007-8.026.023-12.039-.024a2.316,2.316,0,0,1-1.451-.6c-1.033-1-2.035-2.043-3.057-3.059l.039.166,6.735,6.531h5.982c1.325,0,2.651,0,3.976,0" transform="translate(14.254 5.985)" fill="#ffca0a"/>
      <path id="Path_11205" data-name="Path 11205" d="M20.79,72.018c-.674.665-1.333,1.346-2.011,2.007a2.178,2.178,0,0,1-1.371.555c-3.714.046-7.43.029-11.144.024C3.907,74.6,3,73.706,3,71.368Q3,47.184,3,23V21.98H98.9c0,1.793.018,3.514-.007,5.234-.012.854.1,1.612,1.019,1.945.934.337,1.484-.24,1.991-.888V4.58a15.763,15.763,0,0,0-1.227-2.467,5.175,5.175,0,0,0-4.1-2.106c-.2-.01-.4-.006-.6-.006Q50.956,0,5.932,0a5.549,5.549,0,0,0-5.847,4.6A7.737,7.737,0,0,0,0,5.994Q0,38.787,0,71.579c0,3.728,2.288,6.029,6,6.037,3.006,0,6.012,0,9.113,0L20.8,72.058ZM3.006,6c0-2.021.972-3,2.986-3Q50.961,3,95.93,3.006c1.969,0,2.964.978,2.969,2.917.011,4.275,0,8.55,0,12.935H3.053c-.018-.3-.048-.558-.048-.813q0-6.02,0-12.04" transform="translate(0 0.001)" fill="#ffca0a"/>
    </g>
  </g>
</svg>
