<svg id="Layer_1" data-name="Layer 1" xmlns="http://www.w3.org/2000/svg" xmlns:xlink="http://www.w3.org/1999/xlink" viewBox="0 0 1920 491"><defs><style>.cls-1,.cls-3{fill:none;}.cls-2{clip-path:url(#clip-path);}.cls-3{stroke:#ffd729;stroke-width:3px;}.cls-4{clip-path:url(#clip-path-2);}.cls-5{fill:#ffd729;fill-rule:evenodd;}</style><clipPath id="clip-path"><rect class="cls-1" y="275" width="1920" height="253"/></clipPath><clipPath id="clip-path-2"><path class="cls-1" d="M109.88-26H472.64l-3.05,485.52s-25.76-10.17-57.11-4.48S308.32,470.54,293,473s-61.38,9.85-68.24,9.85-42.35-4.21-42.35-4.21-35.8-8-43.95-10.9S109.88-26,109.88-26Z"/></clipPath></defs><g id="Group_4526" data-name="Group 4526"><g class="cls-2"><g id="Mask_Group_1049" data-name="Mask Group 1049"><path id="Path_3489" data-name="Path 3489" class="cls-3" d="M1982.57,451c-62.11,23.7-108.28-15.52-139.5,0s-55.56-23.88-82.68-8-67.08,37.69-89.37,15.84-22.72-29.3-14.9-33.8,35.62-12.85,37.36-14.65-8.26-6.79-8-11.18,21.54-49.86,17.87-60.85-7.11.77-9.87-1.86S1681.24,304,1681.24,304s-5.66,3.18-11,12.46-21.38,4.76-23.22,0-2,28.22-8.86,28.9-20.66-45.8-21.41-47.18-5,1.31-6.22,3.63-5.28,10.87-10.48,9.18-32.54-22-33.3-21.9,2,40.33,0,41.74-19.21,1.73-19.73,3.17,32.49,42,30.39,44.17-19.12-1.53-26.66-6,1.72,11.67-6.56,15.32-24.4,5.42-24.69,6,21.1,24.51,19.73,28-6.27,8.36-5.13,9.33,27.59,11.85,45.75,12.1,21.06,17.49,21.3,18.53,19-17.51,25.85-20.25,13-7,17.74,0,12.9,24.27,11.39,28.85-10.67,32.46-76.28,16.43-63.4,2.58-115.16-31.52-67.43-49.1-147.2-14.66-188.1,49.78-294.1,10.65-40.76-17.63-227.5,22S489.6,433.49,395.72,456.88c-3.1.77-122.61,23.75-126.22,24.51-127.24,5.54-120-37.43-185.75-28.22C-80,469.84-5.71,479.78-107.72,488.58"/></g></g><g class="cls-4"><g id="Mask_Group_1050" data-name="Mask Group 1050"><path id="Path_11032" data-name="Path 11032" class="cls-5" d="M267.39,254.1a43.86,43.86,0,0,0,15.6-5.29c3.82-2.25,6.9-5.1,8.2-8.44l1.1-2.84,1.79,2.46c2.43,3.36,6.56,6,11.39,7.76a38,38,0,0,0,16.32,2l.32,3.3a41.4,41.4,0,0,1-17.76-2.2A29.23,29.23,0,0,1,293.08,244a24,24,0,0,1-8.42,7.71,47.31,47.31,0,0,1-16.84,5.72ZM363.1,605a71.19,71.19,0,0,1-1.9,15c-2.2,9.23-5.94,13-12.48,19.58,5.85-.3,12.59.74,18.2,1.61,1.91.3,3.68.58,5.38.78,8.25,1,11.76,3.44,15,5.7a22.25,22.25,0,0,0,5,2.87c-.73-5-.4-12.46.08-20.54a4.89,4.89,0,0,0-2-.58,21,21,0,0,0-5.45.93c-6.7,1.7-10.53-.67-12.65-4.79-1.93-3.75-2.27-8.94-2.12-13.62,0-.93.1-1.83.18-2.8.4-5.15,1-12.64-4.09-18.41l2.5-2.19c6,6.83,5.35,15.14,4.9,20.86h0c-.08,1-.15,2-.17,2.65-.14,4.23.13,8.86,1.75,12,1.42,2.75,4.1,4.31,8.9,3.09a22.78,22.78,0,0,1,6.41-1,7.55,7.55,0,0,1,2.1.38l0-.31c.47-7.72,1-15.7.74-22.15-.29-7.94-.91-16.32-6.35-21.43-2.42-2.26-4.81-3.13-7.86-4.1h0a11.35,11.35,0,0,0-3.34-.32h0c-4.63,0-9.87,0-14.54-11.62l3.08-1.24c3.84,9.52,7.89,9.53,11.46,9.54h0a13.79,13.79,0,0,1,4.34.48h0l1.41.44c3.71,1.18,5.84,1.85,7.39,3.09-.19-.86-.37-1.68-.54-2.42-3.32-15.28-6.61-31-8-45.66-1.31-14.27-.79-27.56,3.3-38.56L372,484.18a40.79,40.79,0,0,1-3.13,3.44c-.54.55-1.06,1-1.56,1.52h0c-3.94,3.77-6.93,6.63-1.64,13.41l-2.62,2c-7.12-9.14-3.2-12.9,2-17.84h0l1.52-1.47c5-4.93,7-9,6.92-12.87s-2.46-7.78-6.31-12.24a56.12,56.12,0,0,1-5.71-7.67,31.43,31.43,0,0,1-4.06-10c-1.12-5.38-3.7-12-7.73-16.7-2.94-3.42-6.64-5.8-11.05-5.8a16.37,16.37,0,0,0-5.6.92,8.33,8.33,0,0,0-3.44,2.18,4.86,4.86,0,0,0-1.23,3.31h0a8.5,8.5,0,0,0,.56,2.86,37.46,37.46,0,0,0,4.75,8.75c3.14,4.63,5.94,8.78,5.94,19.38,0,6.48-7.7,10.54-14.66,14.21a50.27,50.27,0,0,0-7.54,4.48c-4.87,3.92-7.73,7.51-7.9,11s2.26,7,8,11a3.51,3.51,0,0,1,.77.72l.12.1-1.86,2.74a3.27,3.27,0,0,1-.83-.74l-.11-.1c-6.78-4.75-9.66-9.28-9.41-13.9s3.54-8.9,9.13-13.4a53.36,53.36,0,0,1,8.09-4.83c6.11-3.22,12.88-6.79,12.88-11.26,0-9.61-2.53-13.35-5.37-17.53a40.52,40.52,0,0,1-5.12-9.47,11.65,11.65,0,0,1-.77-4h0a8.12,8.12,0,0,1,2.06-5.5c2.5-2.85,7.56-4,11.42-7.42,11.51-10.19,6.3-21.8.26-35.27-.91-2-1.84-4.11-2.76-6.29a48.43,48.43,0,0,1-3.46-16.06,65.7,65.7,0,0,1,1.17-16.44,35.94,35.94,0,0,1-7.2-3.87l-.95-.67c-7.1,16.3-12.47,22.92-18.3,30.09A132.75,132.75,0,0,0,293,385.48c-11.25,19.95-23.52,31.77-34.57,42.42-7.28,7-14,13.52-19.53,21.47l-.85,1.24c-6.38,9.19-12.91,18.6-17.42,37.17-3.57,14.67-6.27,30.66-6.9,44-.52,11,.37,20.16,3.39,24.93.27.43.54.85.8,1.28-1.66-17.74,3.35-28.33,8.91-40.09,5.18-11,10.86-23,11.78-43.06.58-12.57,12.49-24.31,22.69-34.38,3-2.95,5.84-5.76,8.13-8.32l.05-.06.07-.06,1.36-1.24,2.24,2.44-1.3,1.19c-2.4,2.68-5.24,5.47-8.23,8.42-9.77,9.64-21.17,20.9-21.7,32.16-1,20.78-6.78,33.1-12.09,44.32-6.22,13.14-11.71,24.76-7.3,47.26,6.09,13.25,5,22.25,3.91,31.47-.36,3.08-.74,6.17-.82,9.36a114.69,114.69,0,0,0,1.07,16.36c.34,2.93.66,5.7.8,8.32.22,3.82.23,7.39.08,11.31a42.87,42.87,0,0,1,7.76-11.11c5.16-5.3,12-9.5,21.84-14.12,12.94-6.08,15.5-15.56,18.19-25.53,1.81-6.7,3.67-13.61,8.56-20.08,1.49-2,8.92-12.33,15.8-21.92,6.56-9.14,12.61-17.58,13-17.83l1.64,2.87c-.21.13-5.64,8-12,16.9-6.85,9.56-14.26,19.89-15.85,22-3.52,4.66-5.38,9.72-6.84,14.77C280,613.65,270.41,628.51,263,640a81.48,81.48,0,0,0-6.47,11.15c-1.49,3.48-2.18,8.63-2.93,14.24a133.62,133.62,0,0,1-2.28,13.46,88.57,88.57,0,0,1-5.7,15.36c-1.28,2.89-2.55,5.74-3.6,8.69-2.67,7.51-5.15,13.32-7.29,18.34-6.24,14.67-9.5,22.32-6,46.57,1.65-1.77,3.3-3.25,4.93-4.72a53.71,53.71,0,0,0,6.48-6.58,108.89,108.89,0,0,0,6.82-9.92c6.59-10.42,12.35-19.53,33.83-25.39a60.7,60.7,0,0,0,18.07-8.32c4.45-3.09,8.2-6.84,10.15-11.14,2.25-5,1.76-12.11,1.28-19.15s-.95-14.07,1.27-19.26c2.37-5.52,6.32-7.41,12-10.13,13.34-6.39,30.83-18.82,34.43-34a67.91,67.91,0,0,0,1.8-14.27Zm-18.47,38.5c6-1.43,14.82-.07,21.78,1,2.07.32,4,.62,5.5.8,6.45.78,9.69,2.55,12.34,4.34-3,12.47.48,44.49,1.7,55.7l.26,2.36a28.84,28.84,0,0,1,0,6l0,.22a34.24,34.24,0,0,0-5.46-6,39.78,39.78,0,0,1-6.63-7.61,18.77,18.77,0,0,1-3.2-10.08h-3.32a21.91,21.91,0,0,0,3.73,11.86,41.92,41.92,0,0,0,7.17,8.27c2.5,2.32,4.74,4.49,5.84,6.95s1.11,5.08-.54,8.75a11.38,11.38,0,0,1-3.94,4.27,15.16,15.16,0,0,0-2.17,1.82l-.43.46,0,.63-.07,2.18c-.45,13.36-1.12,33.27,12,61.88H345.63c-1.15-7.36-3.95-15-6.72-22.51-5.44-14.8-10.76-29.28-2.32-39.47L334,733.29c-9.64,11.65-4,27,1.77,42.73,2.64,7.19,5.32,14.47,6.46,21.36h-62.6c12.83-11.4,14.43-23.89,15.9-35.45,1-7.54,1.88-14.66,6-20.57l-2.71-1.91c-4.64,6.56-5.6,14.1-6.61,22.07-1.51,11.78-3.15,24.6-17.83,35.86H201.07c3.32-4.12,7.44-6.29,14.55-10l1.57-.82c3.52-1.85,5.56-4.91,8-8.59,1.1-1.64,2.28-3.42,3.74-5.27a56.62,56.62,0,0,1,6.93-7.09,57.17,57.17,0,0,0,6.85-7,109.38,109.38,0,0,0,7-10.21c6.23-9.85,11.67-18.44,31.9-24a64.41,64.41,0,0,0,19.1-8.8c4.9-3.4,9.05-7.6,11.28-12.5,2.6-5.71,2.08-13.29,1.57-20.74a96.73,96.73,0,0,1-.35-10.77c1.94,4.23,5.13,7.52,8.23,10.72,6.13,6.33,11.9,12.28,4.33,25.34l2.87,1.67c8.84-15.24,2.22-22.07-4.82-29.33-9.29-9.59-12.95-17.07,1.12-23.8a76.63,76.63,0,0,0,19.66-12.72M198.8,800.71l0,.07-.11-.07H176.77v26.62H413.36V800.71ZM197,797.38c4-6.06,8.49-8.43,17.11-13l1.57-.83c2.77-1.46,4.6-4.19,6.79-7.48,1-1.55,2.14-3.2,3.44-4.91-4.2-26.5-1.19-34.84,5.08-49.59-5.56-6.5-8.17-14.48-9.16-23.57-1-9.29-.32-19.68.64-30.81l.28-3.26c1.29-14.8,2-22.69,1.48-31.74-.14-2.47-.45-5.22-.79-8.13a116.75,116.75,0,0,1-1.09-16.82c.1-3.44.47-6.56.84-9.66,1.28-10.75,2.52-21.19-8.83-39.18-3.41-5.4-4.45-15.17-3.9-26.84.64-13.53,3.38-29.74,7-44.6.13-.54.26-1.07.4-1.6a23,23,0,0,1-6.78-5.83,41.5,41.5,0,0,1-6.54-11.07c-1.1-2.94-.84-7.87.26-13a52.08,52.08,0,0,1,5.54-14.93c1-1.58,2.13-4.16,3.5-7.17h0c2.94-6.45,6.77-14.88,11.9-21.05.91-4.53-3.18-9.2-7.3-13.91-1.13-1.28-2.25-2.57-3.28-3.84-5.34-6.65-8.58-13.49.33-21.27-5.26-9.47-5.5-19.39-5.05-28.62-4.52-.81-6.94-3.84-8.24-7.59a33.32,33.32,0,0,1-1.4-10.26,20,20,0,0,1-5.73-3.66,25.67,25.67,0,0,1-5.82-7.92,31.19,31.19,0,0,1-2.8-12,74,74,0,0,1,.88-14.11,66.59,66.59,0,0,1,5-18,40.59,40.59,0,0,1,8.44-12.36l0-.69c-.44-9.36-.87-18.4-2-24.26a47,47,0,0,1-4.21-8.5c-3.76-10.05-3-18.47-3.15-27.9-.07-6.29-.57-14.25-2.71-20.08l-4.54-9.68-.12-.28,0-.28c-.9-10.23-1.67-20.75-2.45-31.25l-.37-5.11a29.84,29.84,0,0,0-5.09.13l-.35-3.3a30.85,30.85,0,0,1,8.53.18,28.33,28.33,0,0,1,8.54,2.92l-1.56,2.95a24.63,24.63,0,0,0-6.71-2.43l.33,4.44c.75,10.25,1.51,20.51,2.42,30.91l3.72,7.93,4.53-7.61c0-7-.2-14.49-.4-22.16-.3-12-.61-24.43-.27-35.72a36.23,36.23,0,0,0-10.45-1.5v-3.32a39.7,39.7,0,0,1,10.57,1.4q.12-2.7.3-5.28a26,26,0,0,1,1.28-6.65,21.44,21.44,0,0,1,1.8-3.89H179.64a28.44,28.44,0,0,1,1.27,3.85,48,48,0,0,1,1.16,7.25c.25,2.64.42,4.53.5,5.56.12,1.31.24,2.74.37,4.27.58,0,1.16.07,1.71.12a19.15,19.15,0,0,1,8,2.33l-1.88,2.73a16,16,0,0,0-6.49-1.76,29.82,29.82,0,0,0-8.49.38l-.62-3.27a34,34,0,0,1,4.38-.53c-.1-1.25-.22-2.57-.34-4-.23-2.68-.4-4.49-.49-5.54a44.17,44.17,0,0,0-1.1-6.75A20.58,20.58,0,0,0,176,89.72H158.33l1.16-2.39a20.45,20.45,0,0,0,2-9.35,30.7,30.7,0,0,0-2.1-10.15l-.83-2.24h60.45l-1,2.32a25.09,25.09,0,0,0-2.21,9.49,22.15,22.15,0,0,0,2.2,10l1.1,2.36H202.35a17.89,17.89,0,0,0-2.65,5,22.4,22.4,0,0,0-1.12,5.79c-.14,2-.24,4-.33,6.14a33.41,33.41,0,0,1,6.26,3.16,28.3,28.3,0,0,1,11.74,15.12c2.5,7.66,1.51,15.74.55,23.59-.68,5.58-1.35,11-.68,15.92.92,6.68,3.54,14.33,6.38,22.65,1.34,3.95,2.74,8.05,4.07,12.35a99.82,99.82,0,0,1,4.52,27.7L260.36,226l2.38-3-28-26.74-9.1-8.68,11,6L275,214.54,283.3,212l.38-35.59.1-10,3.14,9.52,11.42,34.75,11.11,2.18L342.82,189l10.06-7.17-7.8,9.57-23.61,28.94,3.9,4,40.86-8.17,14.9-3-13.9,6.13-34.84,15.38.53,1.39,37.75,2.49,15.16,1-15,2.3-35.3,5.41a50.12,50.12,0,0,1,.62,7.44,84.13,84.13,0,0,1-.65,11.55l-3.29-.43a85.61,85.61,0,0,0,.63-11.09,40.8,40.8,0,0,0-.9-8.46l-.43-1.76,1.79-.27,22-3.38-23.65-1.56-1.07-.07-.38-1-1.48-3.87-.57-1.47,1.46-.64L352,222.44l-26.86,5.37-.88.18-.63-.65-5.55-5.75-1-1.06.93-1.14,16.73-20.51-23.9,17.05-.59.42-.7-.14-12.75-2.5-.95-.19-.3-.93-8.6-26.16-.29,26.78v1.22l-1.16.36-10.08,3.14-.67.2-.61-.34-28-15.26,20,19.12,1.1,1.06-.95,1.18-3.8,4.77-.47.59-.77,0-30.09,1.14v1.27l28.1,1.58,1.84.1-.3,1.82-.81,5-.18,1.15-1.15.22-20.55,3.93c.45.42.89.87,1.3,1.33l21.4-1.54.24,3.31L241.86,250a29,29,0,0,1,4.1,10.6,47.59,47.59,0,0,1,.67,9.23,60,60,0,0,1,11,9.33l4.31-9.06h0l3.84-8.55,3,1.35L265,271.5l0,0L260,281.93a49.08,49.08,0,0,1,3.45,4.9,43.75,43.75,0,0,1,6.64,22c.12,5.87.12,10.71-1,15.74s-3.29,10.27-7.52,16.79l-2.81-1.79c4-6.14,6-11,7.06-15.68s1-9.35.91-15a40.36,40.36,0,0,0-6.14-20.36,51.52,51.52,0,0,0-14.26-14.86,68,68,0,0,1-3.63,16,87.43,87.43,0,0,1-17.12,28.87,31.62,31.62,0,0,1-9.57,7.47c-.64.31-1.28.58-1.92.82A88.93,88.93,0,0,1,214,340.3c-.61,9.85-1.28,20.8,4.08,30.89,11.59-9.49,17.64-16.39,20.7-24.86,3.22-8.94,3.24-19.92,3-37.68l3.32,0c.26,18.13.23,29.36-3.18,38.84s-10.21,17.07-23.39,27.67c-7.83,6.29-5.19,11.91-.78,17.39,1,1.27,2.1,2.51,3.19,3.74,3.53,4,7,8.05,8,12.41,1.57-1.74,3.13-3.4,4.74-5.12a255.12,255.12,0,0,0,18-21,80.27,80.27,0,0,1,10.88-10.93c4-3.5,8-7,11.06-11.25,10.32-14.07,22.5-20.94,32-26.27h0c4.74-2.67,8.78-4.94,11.37-7.48a22.61,22.61,0,0,1-1.45-2.16,13.56,13.56,0,0,1-2.24-6.92l3.31,0a10.47,10.47,0,0,0,1.77,5.19,35.37,35.37,0,0,0,10.09,10.12c4.09,2.8,8.47,4.7,11.89,4.72a5.78,5.78,0,0,0,3.07-.72l1.72,2.85a9.06,9.06,0,0,1-4.8,1.19,15.75,15.75,0,0,1-3.35-.42,62.88,62.88,0,0,0-1.05,15.25,45.22,45.22,0,0,0,3.2,15c.88,2.08,1.82,4.17,2.74,6.23,6.79,15.14,12.62,28.14-1.89,39.84,4.93.41,9,3.14,12.28,6.93,4.41,5.15,7.25,12.35,8.45,18.19a28.43,28.43,0,0,0,3.65,8.93,54.14,54.14,0,0,0,5.38,7.22c4.34,5,7,9.53,7.12,14.32a16,16,0,0,1-2.82,9.19l11.56,7.9L421.34,446a39.07,39.07,0,0,0-6-5.88l2.05-2.61a36.29,36.29,0,0,1,10.73,13,18.57,18.57,0,0,1,1.81,8.58c.44-.27.87-.54,1.3-.83a30.11,30.11,0,0,0,7.19-6.6c-.27-2.79-1.76-5.8-3.79-8.68a52.31,52.31,0,0,0-11.18-11.2l2-2.69a56.46,56.46,0,0,1,11.93,12,27.22,27.22,0,0,1,3.54,6.62c.07-.16.14-.3.21-.47,2.16-4.67,2.75-8.31,1.57-11.77s-4.32-7.18-9.52-11.65l2.15-2.53c1.37,1.18,2.62,2.31,3.73,3.4L454.44,406,422,377.71l-5.7,6.17c-10.93,11.8-30,32.4-36.71,40.46.34.6.68,1.2,1,1.8,2.78,5.11,7.71,8.71,12.57,12.25,4.57,3.32,9.09,6.62,12.05,11.2l-2.78,1.81c-2.64-4.08-6.91-7.19-11.22-10.33-5.17-3.76-10.4-7.58-13.53-13.34-1.24-2.27-2.66-4.64-4.11-7.07-3.56-5.93-7.32-12.2-9.42-18.8a75.3,75.3,0,0,1-2.06-8.54c-1.14-5.75-2.27-11.43-7-18l2.7-1.93c5.11,7.14,6.31,13.17,7.52,19.27a72.08,72.08,0,0,0,2,8.18c2,6.21,5.63,12.31,9.1,18.1.47.78.93,1.56,1.4,2.33,4.21-5,12-13.52,19.82-22.08a105.54,105.54,0,0,0-8.26-7.7c-5.5-4.75-10.45-9-14.22-17-1.93-4.08-3.57-8.68-5.22-13.32-2.08-5.83-4.19-11.74-6.85-16.52A46.34,46.34,0,0,0,348.81,329c-6.22-4.34-14-7.79-23.75-10.34l.85-3.22a87.12,87.12,0,0,1,17.69,6.58c-.61-4.31-3.48-9.18-6.32-14-2.29-3.87-4.57-7.72-5.77-11.43a40.3,40.3,0,0,1-1.87-10.78,37.77,37.77,0,0,1,1.1-10.75l3.21.83a34.46,34.46,0,0,0-1,9.8,36.08,36.08,0,0,0,1.72,9.88c1.08,3.34,3.26,7,5.46,10.75,3.48,5.9,7,11.89,6.9,17.59q1.92,1.13,3.68,2.36a49.44,49.44,0,0,1,15.21,16.78c2.81,5,5,11.08,7.09,17,1.62,4.57,3.24,9.1,5.09,13,3.47,7.31,8.16,11.36,13.38,15.87a107.42,107.42,0,0,1,8.35,7.75c5.08-5.52,10.05-10.89,14-15.13,3-3.22,5.34-5.78,6.78-7.35l1.1-1.2,1.23,1.06,34.92,30.38-1.1,1.25,1.4-.88,4.64,7.39.63,1-.74.92L446,434.92c1.25,4.18.55,8.43-1.87,13.69A30.4,30.4,0,0,1,433,461a46.34,46.34,0,0,1-4.13,2.46l-.09.21-.17-.07a68.31,68.31,0,0,1-7.88,3.48A46.22,46.22,0,0,1,422.9,483a50.1,50.1,0,0,1-7.29,24.28,38.37,38.37,0,0,1-19.11,16.13,36.49,36.49,0,0,1-13.08,2.25c.1,1.62.23,3.24.38,4.88,1.32,14.44,4.6,30,7.91,45.26.55,2.5,1,4.32,1.34,6.05a167.54,167.54,0,0,1,3.3,17.19c.88,7.24.23,17.53-.38,27.4-.67,11-1.32,21.4.18,26l.87,2.7-2.78-.56a19.24,19.24,0,0,1-7-2.89c-2.4,12.6.87,42.61,2,53.33l.26,2.36h0a31.36,31.36,0,0,1,0,6.78,17,17,0,0,1-1.27,4.84,14.6,14.6,0,0,1-1.44,8.52,14.06,14.06,0,0,1-5,5.56c-.48.36-.94.7-1.31,1l-.05,1.5c-.45,13.25-1.11,33.12,12.32,61.78H416.7v30H173.44V797.38Zm189.45-302.6,4.6,5.13,1.3,1.46,1.23-1.52L418,469.51a42.92,42.92,0,0,1,1.54,13.34,46.55,46.55,0,0,1-6.8,22.66,35,35,0,0,1-17.44,14.76,33.25,33.25,0,0,1-12.09,2.05c-.37-10.1.45-19.47,3.17-27.54m30.36-29-24.6,30.47L388,491.58l35.37-42.79a25.35,25.35,0,0,1,1.68,3.07,13.66,13.66,0,0,1,1.17,9.27,70.11,70.11,0,0,1-8.11,3.39l-1.59.57Zm24.52-38.69a26.68,26.68,0,0,1,3.17,4.38L459.34,413l-2.78-4.44ZM319,329.13a41.28,41.28,0,0,0,3.82,3.66c-7.09,16.46-12.41,23-18.17,30.1a134,134,0,0,0-14.54,21c-11,19.5-23.09,31.15-34,41.65-7.4,7.13-14.26,13.75-20,22l-.85,1.24c-6,8.6-12.06,17.4-16.62,33.38a21.15,21.15,0,0,1-5.11-4.65,37.77,37.77,0,0,1-6-10.1c-.86-2.32-.58-6.58.4-11.18a49.06,49.06,0,0,1,5.14-13.91,82.64,82.64,0,0,0,3.68-7.5h0c2.9-6.38,6.7-14.74,11.66-20.58,2.56-3,5-5.63,7.58-8.39a255.51,255.51,0,0,0,18.16-21.28,77,77,0,0,1,10.45-10.45c4.11-3.64,8.24-7.28,11.54-11.77,9.91-13.51,21.73-20.17,30.91-25.35h0c4.85-2.73,9-5.07,11.88-7.83M226,664.25c1.05-12,2.63-20.39,11.69-29.69,4.85-5,11.4-9,20.87-13.44S272.5,610.68,275.24,604c-2.7,15.08-9.5,25.6-15.05,34.19a84.25,84.25,0,0,0-6.74,11.64c-1.66,3.87-2.38,9.25-3.17,15.11h0a129.38,129.38,0,0,1-2.21,13.13,86,86,0,0,1-5.5,14.78c-1.34,3-2.67,6-3.71,8.94-2.33,6.54-4.51,11.78-6.44,16.32-4.35-5.69-6.47-12.62-7.32-20.45-1-9-.3-19.2.65-30.18ZM231.19,235c0,2.07,0,4.1.13,6.13a20.8,20.8,0,0,1,3.3,1.66l22.28-4.26.33-2.06Zm-1.25,20.29c-2-7.66-2-14.32-2.07-21.49-.06-9.19-.12-19.27-4.48-33.44-1.28-4.17-2.68-8.3-4-12.25-2.89-8.48-5.55-16.27-6.52-23.28-.73-5.34,0-11,.66-16.77.92-7.49,1.87-15.2-.4-22.16a25,25,0,0,0-10.39-13.36,30.62,30.62,0,0,0-4.56-2.42c-.29,10.94,0,22.87.3,34.45.07,3,.15,5.94.21,8.85l.08,0c4.84,12.33,1.8,25.4-1.22,38.36-.56,2.42-1.13,4.85-1.62,7.17a45.11,45.11,0,0,0,1.75,25.2,45.79,45.79,0,0,0,15.28,20.27l-2,2.63a51.63,51.63,0,0,1-8-7.61c.55,5.37.85,11.85,1.16,18.49.6,12.9,1.23,26.42,3.7,32.88a22.31,22.31,0,0,0,3.52-4.94,47.82,47.82,0,0,1,5.21-7.42c.55-.61,1.4-1.63,2.43-3,.75-1,1.62-2.15,2.56-3.5,3.22-4.61,6.9-10.81,8.48-16.66m-54.5-135.62.93,3.18a18.86,18.86,0,0,1,8.45-.42,18.62,18.62,0,0,1,7.86,3.13l2-2.64a23.16,23.16,0,0,0-19.26-3.25M201,263.39a39.37,39.37,0,0,0-5.63,9.08,63.59,63.59,0,0,0-4.77,17.11,70.59,70.59,0,0,0-.84,13.47,27.65,27.65,0,0,0,2.47,10.77,22.36,22.36,0,0,0,5.05,6.91,15.54,15.54,0,0,0,8,4,15.84,15.84,0,0,0,9.4-1.56,28.63,28.63,0,0,0,8.56-6.7,84.08,84.08,0,0,0,16.44-27.74c3.19-9.07,4.6-18.63,3-27.49a25.13,25.13,0,0,0-4.82-11,19.54,19.54,0,0,0-4.3-4.07,18.36,18.36,0,0,1-.1,8.87c-1.5,6.69-5.66,13.78-9.25,18.93-.92,1.31-1.83,2.55-2.67,3.63-1.08,1.37-2,2.46-2.58,3.13a43.69,43.69,0,0,0-4.84,6.93c-1.68,2.82-3.08,5.17-5.66,6.89a7.57,7.57,0,0,1-6.76,1,7.17,7.17,0,0,1-3.36-2.4,8.24,8.24,0,0,1-1.64-4.23c-.37-3.33.92-7.77,5.09-12.89-.35-4-.6-8.23-.81-12.52m9.92,64.46a17.69,17.69,0,0,1-6.2.11l-.59-.1a28.23,28.23,0,0,0,1.18,8.17c.88,2.55,2.46,4.63,5.3,5.32l.07-1.25a92.72,92.72,0,0,0,.24-12.25m64.36-71.36.06,3.31,11.27-.21a8.5,8.5,0,0,1-.19,2.36,3.94,3.94,0,0,1-.59,1.36,23.3,23.3,0,0,0-3.72-.43,14.72,14.72,0,0,0-6.77,1.22,7.88,7.88,0,0,0-4.48,5.42,9.63,9.63,0,0,0-.27,2.07c-.15,4.55,1.69,9.13,4.74,13.12a17.91,17.91,0,0,1-.42,6.19,16.17,16.17,0,0,1-2.6,5.84l-.93,1.28,1.23,1c3.77,3.07,7.54,6,11.45,8.85s8.07,5.54,12.3,8l1.17.68.9-1c1.26-1.43,3-3.25,4.8-5.22A171.75,171.75,0,0,0,316,295.53l-2.69-1.95a171.21,171.21,0,0,1-12.56,14.48c-1.42,1.51-2.74,2.93-3.94,4.26-3.81-2.26-7.4-4.65-10.86-7.15s-6.78-5.08-10.13-7.79a20.29,20.29,0,0,0,2.27-5.71,21,21,0,0,0,.53-3.25,33.15,33.15,0,0,0,13.87,7.88l.86-3.21a30,30,0,0,1-14.08-8.75c-3.41-3.8-5.56-8.28-5.42-12.65a6.54,6.54,0,0,1,.18-1.39,4.68,4.68,0,0,1,2.68-3.21,11.48,11.48,0,0,1,5.24-.89,19.56,19.56,0,0,1,3.95.54l.75.18.63-.46a6.33,6.33,0,0,0,2.31-3.73,13.41,13.41,0,0,0,.1-5.09l-.23-1.42-1.44,0Zm33.95,2.92,1.17-3.11a28.56,28.56,0,0,0-7.88-1.91,10,10,0,0,0-4.43.59,5.57,5.57,0,0,0-3.24,3.31,7.64,7.64,0,0,0-.46,2.22c0,.73,0,3.59.05,6.65,0,1.57,0,3.18.07,4.57l-3.24,0,0,3.32,4.9,0h1.66v-1.65c0-1.68-.05-4-.08-6.27-.05-2.95-.09-5.72-.05-6.39a4.21,4.21,0,0,1,.25-1.26,2.42,2.42,0,0,1,1.39-1.41,6.92,6.92,0,0,1,3-.34,25.41,25.41,0,0,1,6.92,1.7m-18,18.85.07,3.31,8.63-.17-.06-3.32Zm1.61,4.6-1.44,3a10.8,10.8,0,0,0,4.76.86,8,8,0,0,0,4.4-1.25l-2-2.67a4.63,4.63,0,0,1-2.5.6,7.31,7.31,0,0,1-3.23-.53m27.92-11-3.32,0c-.06,4.77-.89,8.58-2.94,11.51S309.1,288.43,304,290l1,3.17c5.87-1.78,9.77-4.37,12.25-7.92s3.47-8,3.55-13.38M178.88,59.51c6.16-7,.52-13.29-5.63-20.16-3.72-4.15-7.62-8.49-9.64-13.47a19,19,0,0,1-.9-12.7A15.73,15.73,0,0,1,170.52,4l1.6,2.91a12.49,12.49,0,0,0-6.23,7.26,15.66,15.66,0,0,0,.8,10.47c1.81,4.46,5.5,8.57,9,12.5,7.18,8,13.75,15.35,5.66,24.56ZM192,57.31l2.65,2c5-6.55.81-12.92-3.34-19.25-3.58-5.45-7.13-10.86-3.08-15.49l-2.5-2.18c-5.71,6.52-1.47,13,2.79,19.49,3.51,5.35,7.05,10.74,3.48,15.42m8.48-9.88c.72-2-.41-3.77-1.57-5.56-1.75-2.72-3.54-5.49-1.67-9.67l3,1.35c-1.13,2.53.17,4.55,1.44,6.53,1.6,2.48,3.18,4.93,1.9,8.47Zm62.68,203.28,3,1.48a29.7,29.7,0,0,1,17-15.24,35.37,35.37,0,0,1,14.79-1.7,40.5,40.5,0,0,1,14.32,4.06c7,3.5,12.61,8.95,14.92,15.56l3.14-1.1c-2.61-7.47-8.83-13.58-16.58-17.44a43.47,43.47,0,0,0-15.5-4.38,38.47,38.47,0,0,0-16.18,1.86,32.88,32.88,0,0,0-18.88,16.9m72.38,22.13.33-3.3a21.57,21.57,0,0,1-11.7-4.57,18.16,18.16,0,0,1-6-10.1l-3.25.75a21.42,21.42,0,0,0,7.15,11.9,24.75,24.75,0,0,0,13.48,5.32M261,242.3l3.07,1.26A31.26,31.26,0,0,1,279,227a32.65,32.65,0,0,1,14.4-3.35,38.25,38.25,0,0,1,14.78,2.9,35.34,35.34,0,0,1,18.26,16.56l3-1.48a38.63,38.63,0,0,0-20-18.14,41.26,41.26,0,0,0-16.07-3.16,36,36,0,0,0-15.86,3.7A34.49,34.49,0,0,0,261,242.29m67.77,72.64,1.73-2.84c-6.73-4.12-6.8-10.6-6.89-16.66a34.74,34.74,0,0,0-.74-8.32l-3.21.82a32.9,32.9,0,0,1,.64,7.54c.09,6.95.18,14.37,8.47,19.46M194.42,190.38c1.59-6.85,3.16-13.72,3.46-20.4l-5.38,8.41a63.87,63.87,0,0,1,1.9,11.82Zm10.39,102.07a49,49,0,0,1-2.52-11.58c-1.9,3.05-2.51,5.61-2.3,7.58a5,5,0,0,0,1,2.55,3.9,3.9,0,0,0,1.8,1.3,4.07,4.07,0,0,0,2.05.14m-41.32-206H214a25,25,0,0,1-1.52-9.06,27.1,27.1,0,0,1,1.58-8.4H163.31a32.73,32.73,0,0,1,1.54,9,23.86,23.86,0,0,1-1.36,8.46m8.38-9.83h33.78V73.23H171.87Z"/></g></g></g></svg>