<svg id="Layer_1" data-name="Layer 1" xmlns="http://www.w3.org/2000/svg" xmlns:xlink="http://www.w3.org/1999/xlink" viewBox="0 0 1920 504.89"><defs><style>.cls-1,.cls-3{fill:none;}.cls-2{clip-path:url(#clip-path);}.cls-3{stroke:#ffd729;stroke-width:3px;}.cls-4{clip-path:url(#clip-path-2);}.cls-5{fill:#ffd729;fill-rule:evenodd;}</style><clipPath id="clip-path"><rect class="cls-1" y="273.67" width="1920" height="253"/></clipPath><clipPath id="clip-path-2"><path class="cls-1" d="M109.88-27.33H472.64l-3.05,485.52s-25.76-10.17-57.11-4.48S308.32,469.21,293,471.62s-61.38,9.85-68.24,9.85-42.35-4.22-42.35-4.22-35.8-8-43.95-10.9S109.88-27.33,109.88-27.33Z"/></clipPath></defs><g id="Group_4526" data-name="Group 4526"><g class="cls-2"><g id="Mask_Group_1049" data-name="Mask Group 1049"><path id="Path_3489" data-name="Path 3489" class="cls-3" d="M1982.57,449.64c-62.11,23.7-108.28-15.53-139.5,0s-55.56-23.89-82.68-8-67.08,37.69-89.37,15.84-22.72-29.3-14.9-33.8,35.62-12.85,37.36-14.65-8.26-6.79-8-11.18S1707,348,1703.35,337s-7.11.78-9.87-1.85-12.24-32.44-12.24-32.44-5.66,3.17-11,12.46-21.38,4.75-23.22,0-2,28.22-8.86,28.9-20.66-45.8-21.41-47.18-5,1.31-6.22,3.63-5.28,10.86-10.48,9.18-32.54-22-33.3-21.9,2,40.33,0,41.74-19.21,1.73-19.73,3.17,32.49,42,30.39,44.17-19.12-1.53-26.66-6,1.72,11.66-6.56,15.32-24.4,5.42-24.69,6,21.1,24.5,19.73,28-6.27,8.35-5.13,9.32,27.59,11.85,45.75,12.1,21.06,17.49,21.3,18.54,19-17.52,25.85-20.25,13-7,17.74,0,12.9,24.26,11.39,28.84-10.67,32.46-76.28,16.44-63.4,2.58-115.16-31.53-67.43-49.1-147.2-14.65-188.1,49.78-294.1,10.64-40.76-17.62-227.5,22S489.6,432.15,395.72,455.54c-3.1.78-122.61,23.75-126.22,24.52-127.24,5.54-120-37.43-185.75-28.22-163.8,16.67-89.46,26.6-191.47,35.4"/></g></g><g class="cls-4"><g id="Mask_Group_1050" data-name="Mask Group 1050"><path id="Path_11032" data-name="Path 11032" class="cls-5" d="M267.39,252.77a43.86,43.86,0,0,0,15.6-5.29c3.82-2.25,6.9-5.1,8.2-8.44l1.1-2.85,1.79,2.47c2.43,3.36,6.56,6,11.39,7.75a38,38,0,0,0,16.32,2l.32,3.3a41.71,41.71,0,0,1-17.76-2.2,29.36,29.36,0,0,1-11.27-6.92,23.92,23.92,0,0,1-8.42,7.7,47.12,47.12,0,0,1-16.84,5.72Zm95.71,350.9a71.36,71.36,0,0,1-1.9,15c-2.2,9.23-5.94,13-12.48,19.57,5.85-.3,12.59.75,18.2,1.62,1.91.29,3.68.57,5.38.78,8.25,1,11.76,3.44,15,5.7a22.25,22.25,0,0,0,5,2.87c-.73-5-.4-12.47.08-20.55a4.88,4.88,0,0,0-2-.57,20.62,20.62,0,0,0-5.45.93c-6.7,1.7-10.53-.67-12.65-4.79-1.93-3.75-2.27-8.95-2.12-13.62,0-.93.1-1.83.18-2.8.4-5.16,1-12.64-4.09-18.42l2.5-2.19c6,6.84,5.35,15.14,4.9,20.86h0c-.08,1-.15,2-.17,2.65-.14,4.22.13,8.85,1.75,12,1.42,2.75,4.1,4.31,8.9,3.09a22.42,22.42,0,0,1,6.41-1,7.53,7.53,0,0,1,2.1.37l0-.3c.47-7.72,1-15.7.74-22.15-.29-7.94-.91-16.32-6.35-21.43-2.42-2.27-4.81-3.14-7.86-4.1h0a11.7,11.7,0,0,0-3.34-.31h0c-4.63,0-9.87,0-14.54-11.62L364.4,564c3.84,9.51,7.89,9.53,11.46,9.54h0a14.08,14.08,0,0,1,4.34.47h0l1.41.44c3.71,1.17,5.84,1.85,7.39,3.08-.19-.86-.37-1.68-.54-2.42-3.32-15.28-6.61-31-8-45.66-1.31-14.26-.79-27.55,3.3-38.56L372,482.85a42.4,42.4,0,0,1-3.13,3.44c-.54.54-1.06,1-1.56,1.52h0c-3.94,3.76-6.93,6.62-1.64,13.41l-2.62,2c-7.12-9.14-3.2-12.9,2-17.84h0c.5-.48,1-1,1.52-1.48,5-4.92,7-9,6.92-12.87s-2.46-7.78-6.31-12.23a56.12,56.12,0,0,1-5.71-7.67,31.62,31.62,0,0,1-4.06-10c-1.12-5.39-3.7-12-7.73-16.7-2.94-3.43-6.64-5.8-11.05-5.8a16.37,16.37,0,0,0-5.6.92,8.33,8.33,0,0,0-3.44,2.18,4.86,4.86,0,0,0-1.23,3.31h0a8.45,8.45,0,0,0,.56,2.85,37.53,37.53,0,0,0,4.75,8.76c3.14,4.63,5.94,8.78,5.94,19.38,0,6.47-7.7,10.54-14.66,14.2a51.18,51.18,0,0,0-7.54,4.49c-4.87,3.91-7.73,7.51-7.9,11s2.26,7,8,11a3.28,3.28,0,0,1,.77.72l.12.1-1.86,2.74a3.13,3.13,0,0,1-.83-.75l-.11-.09c-6.78-4.75-9.66-9.29-9.41-13.9s3.54-8.9,9.13-13.41a54.19,54.19,0,0,1,8.09-4.83c6.11-3.21,12.88-6.78,12.88-11.26,0-9.61-2.53-13.34-5.37-17.52a40.72,40.72,0,0,1-5.12-9.47,11.65,11.65,0,0,1-.77-4h0a8.12,8.12,0,0,1,2.06-5.5c2.5-2.85,7.56-4,11.42-7.43,11.51-10.18,6.3-21.8.26-35.26-.91-2-1.84-4.11-2.76-6.3a48.32,48.32,0,0,1-3.46-16,65.7,65.7,0,0,1,1.17-16.44,37,37,0,0,1-7.2-3.87l-.95-.67c-7.1,16.3-12.47,22.92-18.3,30.08A132.83,132.83,0,0,0,293,384.15c-11.25,20-23.52,31.76-34.57,42.41-7.28,7-14,13.53-19.53,21.47l-.85,1.24c-6.38,9.2-12.91,18.61-17.42,37.17-3.57,14.67-6.27,30.66-6.9,44-.52,11,.37,20.15,3.39,24.92l.8,1.28c-1.66-17.73,3.35-28.32,8.91-40.08,5.18-11,10.86-23,11.78-43.06.58-12.57,12.49-24.32,22.69-34.38,3-2.95,5.84-5.76,8.13-8.33l.05-.05.07-.06,1.36-1.25,2.24,2.45-1.3,1.19c-2.4,2.67-5.24,5.47-8.23,8.42-9.77,9.64-21.17,20.89-21.7,32.15-1,20.78-6.78,33.1-12.09,44.33-6.22,13.14-11.71,24.76-7.3,47.26,6.09,13.25,5,22.25,3.91,31.47-.36,3.07-.74,6.17-.82,9.36a114.78,114.78,0,0,0,1.07,16.36c.34,2.92.66,5.7.8,8.32.22,3.81.23,7.39.08,11.31a42.87,42.87,0,0,1,7.76-11.11c5.16-5.3,12-9.51,21.84-14.13,12.94-6.08,15.5-15.56,18.19-25.53,1.81-6.7,3.67-13.6,8.56-20.07,1.49-2,8.92-12.34,15.8-21.92,6.56-9.14,12.61-17.59,13-17.83l1.64,2.87c-.21.13-5.64,8.05-12,16.9-6.85,9.55-14.26,19.89-15.85,22-3.52,4.67-5.38,9.73-6.84,14.78.28,24.36-9.33,39.22-16.77,50.73a81.48,81.48,0,0,0-6.47,11.15c-1.49,3.47-2.18,8.62-2.93,14.24a133,133,0,0,1-2.28,13.45,88.67,88.67,0,0,1-5.7,15.37c-1.28,2.89-2.55,5.74-3.6,8.69-2.67,7.5-5.15,13.32-7.29,18.33-6.24,14.67-9.5,22.32-6,46.57,1.65-1.76,3.3-3.25,4.93-4.71a55.17,55.17,0,0,0,6.48-6.58,110.3,110.3,0,0,0,6.82-9.92c6.59-10.42,12.35-19.53,33.83-25.39a61.2,61.2,0,0,0,18.07-8.32c4.45-3.09,8.2-6.85,10.15-11.14,2.25-5,1.76-12.12,1.28-19.15s-.95-14.07,1.27-19.26c2.37-5.52,6.32-7.41,12-10.13,13.34-6.39,30.83-18.82,34.43-33.95a68,68,0,0,0,1.8-14.27Zm-18.47,38.5c6-1.43,14.82-.07,21.78,1,2.07.32,4,.62,5.5.8,6.45.78,9.69,2.55,12.34,4.33-3,12.48.48,44.49,1.7,55.7l.26,2.36a28.93,28.93,0,0,1,0,6l0,.22a34.24,34.24,0,0,0-5.46-6,40.09,40.09,0,0,1-6.63-7.61,18.77,18.77,0,0,1-3.2-10.08h-3.32a21.91,21.91,0,0,0,3.73,11.86,42.5,42.5,0,0,0,7.17,8.27c2.5,2.31,4.74,4.49,5.84,6.94s1.11,5.08-.54,8.75a11.24,11.24,0,0,1-3.94,4.27,15.92,15.92,0,0,0-2.17,1.83l-.43.45,0,.63-.07,2.18c-.45,13.36-1.12,33.28,12,61.88H345.63c-1.15-7.35-3.95-15-6.72-22.5-5.44-14.8-10.76-29.28-2.32-39.47L334,732c-9.64,11.65-4,27,1.77,42.72,2.64,7.2,5.32,14.48,6.46,21.36h-62.6c12.83-11.4,14.43-23.88,15.9-35.44,1-7.54,1.88-14.67,6-20.58l-2.71-1.9c-4.64,6.56-5.6,14.1-6.61,22.07-1.51,11.78-3.15,24.6-17.83,35.85H201.07c3.32-4.11,7.44-6.28,14.55-10l1.57-.82c3.52-1.86,5.56-4.92,8-8.59,1.1-1.64,2.28-3.42,3.74-5.27a56,56,0,0,1,6.93-7.09,57.17,57.17,0,0,0,6.85-7,109.38,109.38,0,0,0,7-10.21c6.23-9.85,11.67-18.45,31.9-24a64.14,64.14,0,0,0,19.1-8.79c4.9-3.4,9.05-7.6,11.28-12.5,2.6-5.71,2.08-13.29,1.57-20.74a96.81,96.81,0,0,1-.35-10.77c1.94,4.22,5.13,7.51,8.23,10.71,6.13,6.33,11.9,12.29,4.33,25.35l2.87,1.67c8.84-15.24,2.22-22.07-4.82-29.34-9.29-9.58-12.95-17.06,1.12-23.8a76.1,76.1,0,0,0,19.66-12.72M198.8,799.37l0,.07-.11-.07H176.77V826H413.36V799.37ZM197,796c4-6.06,8.49-8.42,17.11-13l1.57-.82c2.77-1.47,4.6-4.19,6.79-7.48,1-1.55,2.14-3.2,3.44-4.92-4.2-26.5-1.19-34.84,5.08-49.58-5.56-6.5-8.17-14.49-9.16-23.57-1-9.29-.32-19.68.64-30.81l.28-3.27c1.29-14.8,2-22.69,1.48-31.73-.14-2.47-.45-5.22-.79-8.13A116.84,116.84,0,0,1,222.31,606c.1-3.44.47-6.57.84-9.66,1.28-10.76,2.52-21.2-8.83-39.19-3.41-5.39-4.45-15.16-3.9-26.84.64-13.52,3.38-29.74,7-44.59.13-.54.26-1.07.4-1.6a23.29,23.29,0,0,1-6.78-5.83,41.5,41.5,0,0,1-6.54-11.07c-1.1-2.94-.84-7.87.26-13a52,52,0,0,1,5.54-14.92c1-1.58,2.13-4.16,3.5-7.18h0c2.94-6.46,6.77-14.88,11.9-21.05.91-4.54-3.18-9.21-7.3-13.91-1.13-1.29-2.25-2.57-3.28-3.85-5.34-6.64-8.58-13.48.33-21.26-5.26-9.47-5.5-19.39-5.05-28.63-4.52-.8-6.94-3.83-8.24-7.59a33.22,33.22,0,0,1-1.4-10.25,20,20,0,0,1-5.73-3.66,25.71,25.71,0,0,1-5.82-7.93,31.1,31.1,0,0,1-2.8-12,74,74,0,0,1,.88-14.11,66.59,66.59,0,0,1,5-18,40.63,40.63,0,0,1,8.44-12.37l0-.68c-.44-9.36-.87-18.4-2-24.26a47.35,47.35,0,0,1-4.21-8.5c-3.76-10.06-3-18.48-3.15-27.9-.07-6.29-.57-14.25-2.71-20.08l-4.54-9.69L184,166l0-.28c-.9-10.24-1.67-20.75-2.45-31.25l-.37-5.11a29.84,29.84,0,0,0-5.09.13l-.35-3.3a30.47,30.47,0,0,1,8.53.18,28.06,28.06,0,0,1,8.54,2.92l-1.56,3a24.63,24.63,0,0,0-6.71-2.43l.33,4.43c.75,10.26,1.51,20.52,2.42,30.92l3.72,7.93,4.53-7.61c0-7-.2-14.49-.4-22.17-.3-12-.61-24.43-.27-35.71a36.24,36.24,0,0,0-10.45-1.51v-3.31a39.7,39.7,0,0,1,10.57,1.4c.08-1.8.18-3.56.3-5.29a25.93,25.93,0,0,1,1.28-6.64,21.13,21.13,0,0,1,1.8-3.89H179.64a28.77,28.77,0,0,1,1.27,3.84,48.14,48.14,0,0,1,1.16,7.26c.25,2.64.42,4.53.5,5.56.12,1.31.24,2.74.37,4.26.58,0,1.16.08,1.71.13a19.15,19.15,0,0,1,8,2.33l-1.88,2.73a16,16,0,0,0-6.49-1.76,29.46,29.46,0,0,0-8.49.38l-.62-3.27a32.33,32.33,0,0,1,4.38-.53c-.1-1.25-.22-2.57-.34-4-.23-2.68-.4-4.49-.49-5.54a43.78,43.78,0,0,0-1.1-6.75A20.84,20.84,0,0,0,176,88.38H158.33L159.49,86a20.42,20.42,0,0,0,2-9.35,30.7,30.7,0,0,0-2.1-10.14l-.83-2.24h60.45l-1,2.32a25.09,25.09,0,0,0-2.21,9.49A22.18,22.18,0,0,0,218,86l1.1,2.36H202.35a17.62,17.62,0,0,0-2.65,5,22.4,22.4,0,0,0-1.12,5.79c-.14,2-.24,4-.33,6.14a33.41,33.41,0,0,1,6.26,3.16,28.3,28.3,0,0,1,11.74,15.12c2.5,7.66,1.51,15.73.55,23.59-.68,5.57-1.35,11-.68,15.92.92,6.67,3.54,14.32,6.38,22.65,1.34,4,2.74,8,4.07,12.35a99.82,99.82,0,0,1,4.52,27.7l29.27-1.11,2.38-3-28-26.74-9.1-8.68,11,6L275,213.21l8.27-2.57.38-35.59.1-10,3.14,9.52,11.42,34.75,11.11,2.17,33.37-23.8,10.06-7.18-7.8,9.58L321.47,219l3.9,4,40.86-8.17,14.9-3L367.23,218,332.39,233.4l.53,1.39,37.75,2.5,15.16,1-15,2.3L335.51,246a50,50,0,0,1,.62,7.43,84.13,84.13,0,0,1-.65,11.55l-3.29-.42a85.71,85.71,0,0,0,.63-11.09,40.72,40.72,0,0,0-.9-8.46l-.43-1.76,1.79-.28,22-3.37L331.65,238l-1.07-.07-.38-1-1.48-3.87-.57-1.47,1.46-.64L352,221.11l-26.86,5.37-.88.17-.63-.65-5.55-5.74-1-1.06.93-1.14,16.73-20.52-23.9,17.06-.59.41-.7-.14-12.75-2.5-.95-.18-.3-.93-8.6-26.16-.29,26.78v1.22l-1.16.35-10.08,3.14-.67.21-.61-.34-28-15.26,20,19.12,1.1,1.05-.95,1.19-3.8,4.77-.47.59-.77,0-30.09,1.14v1.26l28.1,1.59,1.84.1-.3,1.81-.81,5-.18,1.15-1.15.21-20.55,3.93c.45.43.89.88,1.3,1.34l21.4-1.55.24,3.32-19.22,1.39a28.91,28.91,0,0,1,4.1,10.6,47.43,47.43,0,0,1,.67,9.22,60.39,60.39,0,0,1,11,9.33l4.31-9.06h0l3.84-8.55,3,1.36L265,270.17l0,0L260,280.6a49.08,49.08,0,0,1,3.45,4.9,43.74,43.74,0,0,1,6.64,22c.12,5.87.12,10.72-1,15.75s-3.29,10.26-7.52,16.78l-2.81-1.78c4-6.14,6-11,7.06-15.68s1-9.35.91-15a40.32,40.32,0,0,0-6.14-20.35,51.39,51.39,0,0,0-14.26-14.86,67.93,67.93,0,0,1-3.63,16,87.47,87.47,0,0,1-17.12,28.88,31.78,31.78,0,0,1-9.57,7.47c-.64.31-1.28.58-1.92.82A89,89,0,0,1,214,339c-.61,9.84-1.28,20.8,4.08,30.88,11.59-9.49,17.64-16.38,20.7-24.86,3.22-8.94,3.24-19.92,3-37.68l3.32,0c.26,18.14.23,29.37-3.18,38.84s-10.21,17.07-23.39,27.68c-7.83,6.28-5.19,11.91-.78,17.38,1,1.27,2.1,2.51,3.19,3.75,3.53,4,7,8.05,8,12.41,1.57-1.74,3.13-3.41,4.74-5.13a255,255,0,0,0,18-21,79.15,79.15,0,0,1,10.88-10.93c4-3.51,8-7,11.06-11.25,10.32-14.07,22.5-20.94,32-26.27h0c4.74-2.67,8.78-4.94,11.37-7.48a25.45,25.45,0,0,1-1.45-2.16,13.56,13.56,0,0,1-2.24-6.92h3.31a10.54,10.54,0,0,0,1.77,5.2,35.5,35.5,0,0,0,10.09,10.12c4.09,2.79,8.47,4.7,11.89,4.72a5.78,5.78,0,0,0,3.07-.72l1.72,2.85a9.16,9.16,0,0,1-4.8,1.19,15.15,15.15,0,0,1-3.35-.43,63,63,0,0,0-1.05,15.26,45.22,45.22,0,0,0,3.2,15c.88,2.07,1.82,4.17,2.74,6.23,6.79,15.13,12.62,28.14-1.89,39.84,4.93.41,9,3.13,12.28,6.92,4.41,5.16,7.25,12.35,8.45,18.19a28.38,28.38,0,0,0,3.65,8.94,54.14,54.14,0,0,0,5.38,7.22c4.34,5,7,9.53,7.12,14.31a16,16,0,0,1-2.82,9.19l11.56,7.9,35.84-43.38a39.07,39.07,0,0,0-6-5.88l2.05-2.62a36.4,36.4,0,0,1,10.73,13,18.57,18.57,0,0,1,1.81,8.58c.44-.27.87-.55,1.3-.84a29.91,29.91,0,0,0,7.19-6.6c-.27-2.78-1.76-5.8-3.79-8.68a52.77,52.77,0,0,0-11.18-11.2l2-2.68a56.46,56.46,0,0,1,11.93,12,27.34,27.34,0,0,1,3.54,6.61l.21-.46c2.16-4.68,2.75-8.32,1.57-11.77-1.21-3.6-4.32-7.18-9.52-11.65l2.15-2.53c1.37,1.18,2.62,2.3,3.73,3.4l15.45-18.7L422,376.38l-5.7,6.17c-10.93,11.8-30,32.4-36.71,40.46.34.6.68,1.2,1,1.8,2.78,5.11,7.71,8.7,12.57,12.24,4.57,3.33,9.09,6.62,12.05,11.2l-2.78,1.81c-2.64-4.08-6.91-7.18-11.22-10.33-5.17-3.76-10.4-7.57-13.53-13.34-1.24-2.26-2.66-4.63-4.11-7.06-3.56-5.93-7.32-12.2-9.42-18.8A76.35,76.35,0,0,1,362,392c-1.14-5.76-2.27-11.43-7-18l2.7-1.92c5.11,7.14,6.31,13.17,7.52,19.27a71.4,71.4,0,0,0,2,8.17c2,6.21,5.63,12.32,9.1,18.1.47.79.93,1.57,1.4,2.34,4.21-5,12-13.53,19.82-22.08a105.54,105.54,0,0,0-8.26-7.7c-5.5-4.75-10.45-9-14.22-17-1.93-4.07-3.57-8.67-5.22-13.31-2.08-5.83-4.19-11.74-6.85-16.53a46.31,46.31,0,0,0-14.22-15.66c-6.22-4.35-14-7.79-23.75-10.35l.85-3.21a87.12,87.12,0,0,1,17.69,6.58c-.61-4.32-3.48-9.19-6.32-14-2.29-3.88-4.57-7.72-5.77-11.44a40.16,40.16,0,0,1-1.87-10.77,37.88,37.88,0,0,1,1.1-10.76l3.21.84a34.39,34.39,0,0,0-1,9.8,35.94,35.94,0,0,0,1.72,9.87c1.08,3.35,3.26,7,5.46,10.76,3.48,5.9,7,11.89,6.9,17.58q1.92,1.14,3.68,2.37a49.35,49.35,0,0,1,15.21,16.78c2.81,5.05,5,11.07,7.09,17,1.62,4.57,3.24,9.1,5.09,13,3.47,7.31,8.16,11.37,13.38,15.87a109.4,109.4,0,0,1,8.35,7.75c5.08-5.51,10.05-10.88,14-15.13,3-3.21,5.34-5.77,6.78-7.34l1.1-1.2,1.23,1.06,34.92,30.38-1.1,1.25,1.4-.88,4.64,7.39.63,1-.74.92L446,433.59c1.25,4.18.55,8.43-1.87,13.68a30.34,30.34,0,0,1-11,12.4,44.07,44.07,0,0,1-4.13,2.46l-.09.22-.17-.08a68.37,68.37,0,0,1-7.88,3.49,46.19,46.19,0,0,1,2.13,15.88,50.13,50.13,0,0,1-7.29,24.28,38.37,38.37,0,0,1-19.11,16.13,36.71,36.71,0,0,1-13.08,2.25c.1,1.61.23,3.24.38,4.88,1.32,14.43,4.6,30,7.91,45.26.55,2.5,1,4.32,1.34,6a167,167,0,0,1,3.3,17.19c.88,7.24.23,17.53-.38,27.4-.67,11-1.32,21.4.18,26l.87,2.7-2.78-.57a19,19,0,0,1-7-2.88c-2.4,12.59.87,42.61,2,53.32l.26,2.36h0a31.27,31.27,0,0,1,0,6.77,16.88,16.88,0,0,1-1.27,4.84,14.6,14.6,0,0,1-1.44,8.52,14,14,0,0,1-5,5.57c-.48.36-.94.7-1.31,1l-.05,1.51c-.45,13.25-1.11,33.12,12.32,61.77H416.7v30H173.44V796Zm189.45-302.6,4.6,5.14,1.3,1.46,1.23-1.52L418,468.18a42.92,42.92,0,0,1,1.54,13.34,46.58,46.58,0,0,1-6.8,22.66,35.07,35.07,0,0,1-17.44,14.76,33.24,33.24,0,0,1-12.09,2c-.37-10.1.45-19.46,3.17-27.54m30.36-29-24.6,30.47L388,490.25l35.37-42.79a25.35,25.35,0,0,1,1.68,3.07,13.66,13.66,0,0,1,1.17,9.27,71.91,71.91,0,0,1-8.11,3.39l-1.59.56Zm24.52-38.69a26.26,26.26,0,0,1,3.17,4.38l14.88-18.43-2.78-4.44ZM319,327.79a41.28,41.28,0,0,0,3.82,3.66c-7.09,16.47-12.41,23-18.17,30.1a134.6,134.6,0,0,0-14.54,21c-11,19.5-23.09,31.15-34,41.64-7.4,7.14-14.26,13.75-20,22l-.85,1.24c-6,8.6-12.06,17.39-16.62,33.38a21.15,21.15,0,0,1-5.11-4.65,38,38,0,0,1-6-10.11c-.86-2.32-.58-6.57.4-11.17a49.06,49.06,0,0,1,5.14-13.91q2-3.66,3.68-7.5h0c2.9-6.38,6.7-14.73,11.66-20.57,2.56-3,5-5.63,7.58-8.39a255.51,255.51,0,0,0,18.16-21.28,77.66,77.66,0,0,1,10.45-10.46c4.11-3.63,8.24-7.28,11.54-11.76,9.91-13.51,21.73-20.17,30.91-25.35h0c4.85-2.73,9-5.06,11.88-7.82M226,662.92c1.05-12,2.63-20.39,11.69-29.69,4.85-5,11.4-9,20.87-13.44s13.91-10.44,16.65-17.1c-2.7,15.08-9.5,25.6-15.05,34.2a83.67,83.67,0,0,0-6.74,11.64c-1.66,3.87-2.38,9.25-3.17,15.11h0a129.85,129.85,0,0,1-2.21,13.13,86.66,86.66,0,0,1-5.5,14.78c-1.34,3-2.67,6-3.71,8.94-2.33,6.54-4.51,11.78-6.44,16.32-4.35-5.7-6.47-12.62-7.32-20.46-1-9-.3-19.2.65-30.17Zm5.16-429.23c0,2.07,0,4.09.13,6.12a20.85,20.85,0,0,1,3.3,1.67l22.28-4.26.33-2.06ZM229.94,254c-2-7.66-2-14.32-2.07-21.49-.06-9.2-.12-19.28-4.48-33.44-1.28-4.17-2.68-8.3-4-12.26-2.89-8.47-5.55-16.26-6.52-23.27-.73-5.34,0-11,.66-16.77.92-7.5,1.87-15.2-.4-22.16a25,25,0,0,0-10.39-13.37,30.57,30.57,0,0,0-4.56-2.41c-.29,10.93,0,22.86.3,34.45.07,3,.15,5.94.21,8.85l.08,0c4.84,12.33,1.8,25.4-1.22,38.36-.56,2.42-1.13,4.84-1.62,7.16a45.14,45.14,0,0,0,1.75,25.21,45.76,45.76,0,0,0,15.28,20.26l-2,2.64a52.59,52.59,0,0,1-8-7.61c.55,5.37.85,11.85,1.16,18.49.6,12.9,1.23,26.41,3.7,32.88a22.31,22.31,0,0,0,3.52-4.94,47.35,47.35,0,0,1,5.21-7.42c.55-.61,1.4-1.64,2.43-3,.75-1,1.62-2.15,2.56-3.5,3.22-4.61,6.9-10.82,8.48-16.66m-54.5-135.63.93,3.19a19,19,0,0,1,8.45-.43,18.64,18.64,0,0,1,7.86,3.14l2-2.65a23.16,23.16,0,0,0-19.26-3.25M201,262.05a39.64,39.64,0,0,0-5.63,9.09,63.62,63.62,0,0,0-4.77,17.1,70.75,70.75,0,0,0-.84,13.48,27.65,27.65,0,0,0,2.47,10.77,22.48,22.48,0,0,0,5.05,6.91,15.53,15.53,0,0,0,8,4,15.76,15.76,0,0,0,9.4-1.56,28.31,28.31,0,0,0,8.56-6.7,84.08,84.08,0,0,0,16.44-27.74c3.19-9.07,4.6-18.62,3-27.49a25.09,25.09,0,0,0-4.82-11,19.59,19.59,0,0,0-4.3-4.08,18.4,18.4,0,0,1-.1,8.88c-1.5,6.68-5.66,13.77-9.25,18.92-.92,1.32-1.83,2.55-2.67,3.63-1.08,1.38-2,2.46-2.58,3.14a43.69,43.69,0,0,0-4.84,6.93c-1.68,2.81-3.08,5.16-5.66,6.89a7.6,7.6,0,0,1-6.76,1,7.19,7.19,0,0,1-3.36-2.41,8.24,8.24,0,0,1-1.64-4.22c-.37-3.33.92-7.77,5.09-12.89-.35-4-.6-8.23-.81-12.53m9.92,64.47a17.69,17.69,0,0,1-6.2.11l-.59-.1a28.23,28.23,0,0,0,1.18,8.17c.88,2.55,2.46,4.63,5.3,5.32l.07-1.25a92.79,92.79,0,0,0,.24-12.25m64.36-71.37.06,3.32,11.27-.21a8.53,8.53,0,0,1-.19,2.36,3.94,3.94,0,0,1-.59,1.36,22.2,22.2,0,0,0-3.72-.43,14.71,14.71,0,0,0-6.77,1.21,7.91,7.91,0,0,0-4.48,5.43,9.54,9.54,0,0,0-.27,2.06c-.15,4.56,1.69,9.14,4.74,13.13a17.93,17.93,0,0,1-.42,6.19,16.17,16.17,0,0,1-2.6,5.84l-.93,1.27,1.23,1c3.77,3.07,7.54,6,11.45,8.85a145.52,145.52,0,0,0,12.3,8l1.17.68.9-1c1.26-1.43,3-3.25,4.8-5.22A173.28,173.28,0,0,0,316,294.2l-2.69-1.95a171.08,171.08,0,0,1-12.56,14.47c-1.42,1.52-2.74,2.94-3.94,4.27-3.81-2.27-7.4-4.65-10.86-7.15s-6.78-5.08-10.13-7.79a20.35,20.35,0,0,0,2.27-5.72,20.85,20.85,0,0,0,.53-3.24A33.15,33.15,0,0,0,292.51,295l.86-3.21A30.06,30.06,0,0,1,279.29,283c-3.41-3.8-5.56-8.29-5.42-12.65a6.46,6.46,0,0,1,.18-1.39,4.72,4.72,0,0,1,2.68-3.22,11.75,11.75,0,0,1,5.24-.89,19.57,19.57,0,0,1,3.95.55l.75.18.63-.46a6.36,6.36,0,0,0,2.31-3.73,13.42,13.42,0,0,0,.1-5.09l-.23-1.43-1.44,0Zm33.95,2.92,1.17-3.11a28.9,28.9,0,0,0-7.88-1.9,10.13,10.13,0,0,0-4.43.58,5.6,5.6,0,0,0-3.24,3.31,7.77,7.77,0,0,0-.46,2.23c0,.72,0,3.59.05,6.65,0,1.56,0,3.18.07,4.57l-3.24,0,0,3.32,4.9,0h1.66v-1.65c0-1.68-.05-4-.08-6.28-.05-2.94-.09-5.71-.05-6.38a4.27,4.27,0,0,1,.25-1.27,2.4,2.4,0,0,1,1.39-1.4,6.77,6.77,0,0,1,3-.34,25.05,25.05,0,0,1,6.92,1.7m-18,18.84.07,3.32,8.63-.17-.06-3.32Zm1.61,4.61-1.44,3a10.79,10.79,0,0,0,4.76.85,8,8,0,0,0,4.4-1.24l-2-2.67a4.82,4.82,0,0,1-2.5.6,7.61,7.61,0,0,1-3.23-.53m27.92-11-3.32,0c-.06,4.78-.89,8.58-2.94,11.52s-5.39,5.11-10.5,6.65l1,3.17c5.87-1.77,9.77-4.36,12.25-7.92s3.47-7.95,3.55-13.37M178.88,58.17c6.16-7,.52-13.29-5.63-20.15-3.72-4.15-7.62-8.49-9.64-13.47a19,19,0,0,1-.9-12.71,15.71,15.71,0,0,1,7.81-9.17l1.6,2.91a12.49,12.49,0,0,0-6.23,7.26,15.66,15.66,0,0,0,.8,10.47c1.81,4.46,5.5,8.57,9,12.5,7.18,8,13.75,15.35,5.66,24.56ZM192,56l2.65,2c5-6.56.81-12.93-3.34-19.25-3.58-5.46-7.13-10.87-3.08-15.49l-2.5-2.18c-5.71,6.52-1.47,13,2.79,19.48C192.05,45.91,195.59,51.3,192,56m8.48-9.88c.72-2-.41-3.76-1.57-5.55-1.75-2.72-3.54-5.5-1.67-9.67l3,1.35c-1.13,2.53.17,4.54,1.44,6.52,1.6,2.49,3.18,4.94,1.9,8.47Zm62.68,203.29,3,1.48a29.69,29.69,0,0,1,17-15.25,35.37,35.37,0,0,1,14.79-1.7A40.71,40.71,0,0,1,312.26,238c7,3.5,12.61,8.95,14.92,15.56l3.14-1.1c-2.61-7.47-8.83-13.57-16.58-17.44a43.88,43.88,0,0,0-15.5-4.38,38.48,38.48,0,0,0-16.18,1.87,32.85,32.85,0,0,0-18.88,16.9m72.38,22.12.33-3.3a21.42,21.42,0,0,1-11.7-4.57,18.1,18.1,0,0,1-6-10.1l-3.25.76a21.46,21.46,0,0,0,7.15,11.9,24.75,24.75,0,0,0,13.48,5.32M261,241l3.07,1.27A31.23,31.23,0,0,1,279,225.67a32.8,32.8,0,0,1,14.4-3.36,38.26,38.26,0,0,1,14.78,2.91,35.25,35.25,0,0,1,18.26,16.56l3-1.48a38.65,38.65,0,0,0-20-18.15A41.43,41.43,0,0,0,293.39,219a35.89,35.89,0,0,0-15.86,3.7A34.5,34.5,0,0,0,261,241M328.8,313.6l1.73-2.84c-6.73-4.13-6.8-10.6-6.89-16.66a34.7,34.7,0,0,0-.74-8.32l-3.21.82a32.86,32.86,0,0,1,.64,7.53c.09,7,.18,14.38,8.47,19.47M194.42,189.05c1.59-6.85,3.16-13.72,3.46-20.4l-5.38,8.41a63.9,63.9,0,0,1,1.9,11.81Zm10.39,102.06a48.79,48.79,0,0,1-2.52-11.58c-1.9,3.05-2.51,5.62-2.3,7.59a5.06,5.06,0,0,0,1,2.55,3.9,3.9,0,0,0,1.8,1.3,4.07,4.07,0,0,0,2.05.14m-41.32-206H214A25,25,0,0,1,212.52,76a27,27,0,0,1,1.58-8.4H163.31a32.73,32.73,0,0,1,1.54,9,23.86,23.86,0,0,1-1.36,8.46m8.38-9.83h33.78V71.9H171.87Z"/></g></g></g></svg>