<svg xmlns="http://www.w3.org/2000/svg" xmlns:xlink="http://www.w3.org/1999/xlink" width="1920" height="554" viewBox="0 0 1920 554">
  <defs>
    <clipPath id="clip-path">
      <rect id="Rectangle_2901" data-name="Rectangle 2901" width="1920" height="253" transform="translate(0 1166)" fill="#fff" stroke="#707070" stroke-width="1"/>
    </clipPath>
    <clipPath id="clip-path-2">
      <path id="Path_11033" data-name="Path 11033" d="M-15115.122,1721h362.767l-3.059,485.525s-25.754-10.173-57.107-4.481-104.154,15.5-119.434,17.909-61.388,9.851-68.245,9.851-42.354-4.218-42.354-4.218-35.8-8.041-43.945-10.9S-15115.122,1721-15115.122,1721Z" transform="translate(16477 -948)" fill="none" stroke="#707070" stroke-width="1"/>
    </clipPath>
  </defs>
  <g id="Group_4526" data-name="Group 4526" transform="translate(0 -788)">
    <g id="Mask_Group_1049" data-name="Mask Group 1049" transform="translate(0 -77)" clip-path="url(#clip-path)">
      <path id="Path_3489" data-name="Path 3489" d="M-302.979,2519.552c-62.108,23.7-108.28-15.524-139.5,0s-55.559-23.884-82.685-8.028-67.073,37.691-89.367,15.838-22.718-29.3-14.9-33.8,35.621-12.85,37.363-14.652-8.267-6.785-8-11.181,21.541-49.859,17.872-60.853-7.115.775-9.877-1.853-12.237-32.443-12.237-32.443-5.664,3.177-11.025,12.462-21.378,4.754-23.22,0-2.049,28.222-8.859,28.9-20.652-45.8-21.407-47.18-5.03,1.309-6.215,3.632-5.283,10.862-10.48,9.175-32.549-22.036-33.307-21.894,1.962,40.328,0,41.735-19.208,1.733-19.729,3.175,32.49,41.973,30.391,44.17-19.122-1.535-26.658-6.01,1.722,11.663-6.566,15.317-24.4,5.423-24.683,6.039,21.093,24.507,19.729,28-6.269,8.357-5.131,9.327,27.594,11.85,45.75,12.1,21.062,17.489,21.3,18.532,19.052-17.514,25.845-20.25,13.028-7.015,17.746,0,12.9,24.266,11.392,28.846-10.677,32.461-76.284,16.433-63.4,2.58-115.161-31.523-67.432-49.1-147.2-14.652-188.1,49.776-294.1,10.643-40.763-17.628-227.5,21.972-306.268-39.463-400.147-16.071c-3.1.772-122.61,23.749-126.224,24.516-127.238,5.538-120.037-37.434-185.75-28.224-163.793,16.669-89.455,26.606-191.468,35.407" transform="translate(2285.551 -1177.58)" fill="none" stroke="#ffd729" stroke-width="3"/>
    </g>
    <g id="Mask_Group_1050" data-name="Mask Group 1050" transform="translate(-1252 15)" clip-path="url(#clip-path-2)">
      <path id="Path_11032" data-name="Path 11032" d="M134.934,250.1a43.742,43.742,0,0,0,15.6-5.291c3.827-2.249,6.906-5.1,8.2-8.44l1.107-2.843,1.783,2.469c2.43,3.358,6.559,6.021,11.388,7.753a38.063,38.063,0,0,0,16.32,2.031l.329,3.3a41.482,41.482,0,0,1-17.769-2.2,29.283,29.283,0,0,1-11.266-6.918,24.018,24.018,0,0,1-8.417,7.707,47.2,47.2,0,0,1-16.844,5.719ZM230.649,601a71.665,71.665,0,0,1-1.9,15.04c-2.2,9.235-5.94,13-12.483,19.577,5.851-.3,12.587.745,18.2,1.616,1.909.294,3.679.572,5.381.779,8.25.992,11.763,3.438,15.011,5.7a22.15,22.15,0,0,0,5.043,2.867c-.733-4.972-.405-12.461.075-20.543a4.874,4.874,0,0,0-2.043-.572,20.538,20.538,0,0,0-5.445.93c-6.7,1.7-10.528-.675-12.651-4.795-1.933-3.745-2.267-8.942-2.118-13.614.03-.934.1-1.834.173-2.8.405-5.157.987-12.646-4.082-18.419l2.5-2.188c6,6.832,5.348,15.139,4.9,20.86v.006c-.08,1.028-.155,1.968-.178,2.648-.134,4.223.139,8.856,1.752,11.989,1.425,2.751,4.1,4.308,8.9,3.091a22.8,22.8,0,0,1,6.411-1.021,7.686,7.686,0,0,1,2.1.376l.018-.308c.478-7.717.975-15.7.739-22.146-.289-7.943-.905-16.32-6.345-21.43-2.418-2.267-4.807-3.138-7.857-4.1v-.006a11.667,11.667,0,0,0-3.34-.317h-.006c-4.628-.017-9.871-.039-14.539-11.618l3.081-1.24c3.836,9.513,7.892,9.531,11.464,9.54h0a13.946,13.946,0,0,1,4.339.475v-.006l1.409.443c3.707,1.172,5.843,1.845,7.389,3.081-.192-.859-.375-1.679-.538-2.418-3.327-15.281-6.61-30.96-7.965-45.659-1.31-14.266-.786-27.557,3.3-38.563l-11.8-8.071a42.257,42.257,0,0,1-3.126,3.437c-.544.544-1.063,1.033-1.563,1.518h-.006c-3.94,3.767-6.929,6.629-1.638,13.411l-2.62,2.043c-7.124-9.143-3.207-12.9,1.962-17.844v-.006c.5-.484,1.025-.984,1.522-1.475,4.962-4.927,7.037-9.011,6.924-12.87-.122-3.889-2.459-7.782-6.313-12.237a56.779,56.779,0,0,1-5.71-7.672,31.647,31.647,0,0,1-4.06-9.99c-1.115-5.384-3.7-12-7.732-16.7-2.936-3.421-6.635-5.8-11.052-5.8a16.533,16.533,0,0,0-5.6.923A8.279,8.279,0,0,0,197.1,419.1a4.864,4.864,0,0,0-1.235,3.311h.012a8.355,8.355,0,0,0,.559,2.855,37.7,37.7,0,0,0,4.748,8.757c3.138,4.632,5.946,8.779,5.946,19.382,0,6.473-7.706,10.534-14.665,14.2a51.471,51.471,0,0,0-7.543,4.484c-4.864,3.918-7.726,7.512-7.9,10.983-.179,3.409,2.266,6.987,8,11.012a3.014,3.014,0,0,1,.773.717,1.084,1.084,0,0,0,.12.1l-1.856,2.739a3.22,3.22,0,0,1-.836-.743c-.012-.018-.024-.029-.11-.093-6.779-4.752-9.653-9.286-9.411-13.9.238-4.546,3.543-8.9,9.138-13.407a53.639,53.639,0,0,1,8.083-4.829c6.109-3.218,12.883-6.789,12.883-11.26,0-9.61-2.534-13.349-5.366-17.525a40.571,40.571,0,0,1-5.123-9.473,11.576,11.576,0,0,1-.773-4h.006a8.117,8.117,0,0,1,2.054-5.5c2.5-2.85,7.564-4.016,11.422-7.424,11.509-10.182,6.3-21.8.265-35.264-.911-2.031-1.846-4.113-2.768-6.295a48.257,48.257,0,0,1-3.455-16.058,65.435,65.435,0,0,1,1.171-16.436,36.5,36.5,0,0,1-7.2-3.871c-.324-.22-.635-.439-.953-.669-7.1,16.3-12.473,22.919-18.3,30.085a131.945,131.945,0,0,0-14.225,20.507c-11.254,19.949-23.52,31.762-34.573,42.411-7.279,7.022-14.03,13.527-19.527,21.472l-.858,1.24c-6.376,9.194-12.907,18.605-17.417,37.169-3.565,14.669-6.271,30.661-6.9,43.968-.521,11.042.374,20.151,3.39,24.922.273.433.538.858.8,1.28-1.661-17.738,3.348-28.325,8.914-40.088,5.175-10.954,10.858-22.96,11.78-43.056.578-12.571,12.485-24.315,22.683-34.383,2.994-2.947,5.839-5.757,8.135-8.324l.052-.052.064-.064,1.361-1.245,2.239,2.446-1.3,1.189c-2.4,2.676-5.239,5.474-8.222,8.421-9.773,9.641-21.177,20.894-21.7,32.154-.957,20.781-6.783,33.1-12.091,44.329-6.219,13.14-11.71,24.759-7.3,47.257C96.173,575.782,95.1,584.785,94,594c-.364,3.075-.739,6.172-.824,9.363a114.759,114.759,0,0,0,1.073,16.361c.34,2.924.658,5.7.8,8.317.213,3.814.224,7.392.075,11.313a42.911,42.911,0,0,1,7.764-11.11c5.163-5.3,12.005-9.508,21.841-14.128,12.933-6.081,15.5-15.558,18.189-25.528,1.811-6.7,3.674-13.609,8.559-20.075,1.485-1.961,8.92-12.335,15.8-21.922,6.555-9.137,12.611-17.583,13.045-17.831l1.648,2.873c-.213.126-5.641,8.047-11.993,16.9-6.854,9.553-14.26,19.889-15.847,21.983-3.524,4.669-5.381,9.729-6.846,14.775.281,24.362-9.323,39.223-16.766,50.731a81.325,81.325,0,0,0-6.467,11.15c-1.493,3.474-2.185,8.625-2.934,14.237a134.543,134.543,0,0,1-2.279,13.458,88.455,88.455,0,0,1-5.7,15.362c-1.285,2.89-2.549,5.745-3.6,8.694-2.672,7.505-5.147,13.32-7.287,18.332-6.246,14.671-9.506,22.321-5.982,46.571,1.651-1.764,3.3-3.248,4.927-4.717a53.865,53.865,0,0,0,6.478-6.578,107.485,107.485,0,0,0,6.819-9.917c6.594-10.424,12.351-19.533,33.834-25.394a61.027,61.027,0,0,0,18.074-8.317c4.447-3.094,8.192-6.848,10.141-11.14,2.251-4.956,1.765-12.115,1.287-19.153-.484-7.089-.957-14.07,1.269-19.256,2.371-5.521,6.323-7.414,11.993-10.13,13.338-6.391,30.824-18.823,34.422-33.954A67.818,67.818,0,0,0,227.319,601Zm-18.473,38.5c6.04-1.431,14.822-.07,21.777,1.009,2.078.324,4.005.623,5.5.8,6.453.785,9.692,2.555,12.345,4.339-3.012,12.477.478,44.489,1.7,55.7l.254,2.36a28.061,28.061,0,0,1-.03,6.022l-.029.22A34.636,34.636,0,0,0,248.238,704a39.68,39.68,0,0,1-6.628-7.609,18.716,18.716,0,0,1-3.2-10.078h-3.327a21.914,21.914,0,0,0,3.733,11.861,42.486,42.486,0,0,0,7.17,8.267c2.5,2.314,4.741,4.493,5.838,6.946,1.044,2.331,1.114,5.078-.538,8.751a11.361,11.361,0,0,1-3.939,4.27,15.815,15.815,0,0,0-2.174,1.823l-.422.457-.024.628-.069,2.18c-.45,13.361-1.12,33.274,11.97,61.881H213.176c-1.148-7.354-3.946-14.974-6.716-22.507-5.44-14.8-10.758-29.277-2.325-39.465l-2.566-2.116c-9.647,11.651-4.005,27.014,1.77,42.729,2.642,7.194,5.317,14.473,6.461,21.36H147.2c12.823-11.4,14.423-23.888,15.9-35.443.965-7.543,1.876-14.669,6.04-20.577l-2.717-1.909c-4.632,6.565-5.6,14.1-6.61,22.071-1.506,11.785-3.15,24.6-17.821,35.858H68.621c3.317-4.119,7.436-6.286,14.543-10.025l1.568-.82c3.525-1.856,5.562-4.915,8.015-8.59,1.1-1.642,2.277-3.42,3.739-5.271a55.9,55.9,0,0,1,6.934-7.09,57.156,57.156,0,0,0,6.852-6.981,109.526,109.526,0,0,0,7.028-10.209c6.225-9.848,11.665-18.445,31.9-23.966a64.471,64.471,0,0,0,19.1-8.791c4.892-3.4,9.046-7.6,11.272-12.5,2.6-5.71,2.084-13.291,1.575-20.74a96.321,96.321,0,0,1-.346-10.77c1.938,4.223,5.128,7.512,8.226,10.713,6.132,6.329,11.9,12.281,4.327,25.347l2.873,1.668c8.839-15.243,2.221-22.073-4.816-29.336-9.295-9.587-12.952-17.062,1.113-23.8a76.207,76.207,0,0,0,19.659-12.72M66.347,796.708l-.038.069-.117-.069H44.317v26.623H280.911V796.708Zm-1.84-3.33c3.993-6.062,8.487-8.427,17.112-12.961l1.563-.824c2.779-1.466,4.6-4.194,6.795-7.483,1.027-1.547,2.135-3.2,3.443-4.915-4.2-26.5-1.193-34.837,5.072-49.583-5.556-6.5-8.169-14.486-9.16-23.57-1.009-9.289-.317-19.678.646-30.811l.283-3.265c1.286-14.8,1.974-22.69,1.477-31.735-.139-2.468-.456-5.22-.791-8.128a116.885,116.885,0,0,1-1.089-16.822c.1-3.437.472-6.563.843-9.662,1.28-10.751,2.52-21.194-8.838-39.182-3.409-5.393-4.449-15.166-3.9-26.841.64-13.523,3.381-29.739,6.991-44.593.132-.541.267-1.073.4-1.6a23.178,23.178,0,0,1-6.779-5.832A41.35,41.35,0,0,1,72.041,464.5c-1.1-2.941-.843-7.867.254-13.014a52.222,52.222,0,0,1,5.544-14.923c.952-1.581,2.123-4.16,3.5-7.176v.006c2.937-6.456,6.767-14.879,11.9-21.051.911-4.534-3.185-9.207-7.3-13.908-1.13-1.286-2.255-2.574-3.283-3.848-5.342-6.646-8.578-13.486.335-21.264-5.262-9.471-5.5-19.388-5.055-28.624-4.516-.809-6.943-3.836-8.242-7.591A33.224,33.224,0,0,1,68.3,322.854a19.835,19.835,0,0,1-5.733-3.664,25.589,25.589,0,0,1-5.817-7.925,31.027,31.027,0,0,1-2.8-12.045,73.884,73.884,0,0,1,.877-14.111,66.694,66.694,0,0,1,5.024-18,40.478,40.478,0,0,1,8.44-12.362l-.029-.687c-.433-9.357-.861-18.4-1.98-24.257a47.185,47.185,0,0,1-4.2-8.5c-3.761-10.055-3.047-18.477-3.15-27.9-.075-6.289-.572-14.25-2.711-20.08l-4.54-9.688-.126-.276-.03-.277c-.9-10.235-1.673-20.75-2.445-31.249l-.376-5.113a29.688,29.688,0,0,0-5.087.132l-.352-3.3a30.784,30.784,0,0,1,8.537.179,28.285,28.285,0,0,1,8.533,2.918L58.779,129.6a24.806,24.806,0,0,0-6.708-2.428l.321,4.435c.757,10.252,1.513,20.514,2.424,30.915l3.717,7.927,4.534-7.61c-.012-6.952-.2-14.486-.4-22.164-.3-12.034-.613-24.429-.271-35.714a36.411,36.411,0,0,0-10.448-1.506v-3.312a39.514,39.514,0,0,1,10.568,1.4q.122-2.7.3-5.285A25.81,25.81,0,0,1,64.1,89.611,20.813,20.813,0,0,1,65.9,85.719H47.185a27.6,27.6,0,0,1,1.268,3.847,48.761,48.761,0,0,1,1.167,7.257c.242,2.637.415,4.528.5,5.556.113,1.31.236,2.745.362,4.269.588.029,1.161.076,1.714.126A19.118,19.118,0,0,1,60.25,109.1l-1.886,2.735a15.857,15.857,0,0,0-6.49-1.761,29.593,29.593,0,0,0-8.49.377l-.613-3.266a32.09,32.09,0,0,1,4.373-.531c-.1-1.252-.22-2.572-.34-3.991-.232-2.682-.393-4.489-.484-5.543a44.959,44.959,0,0,0-1.1-6.751,20.814,20.814,0,0,0-1.714-4.654H25.875l1.158-2.389a20.312,20.312,0,0,0,2.043-9.351,30.653,30.653,0,0,0-2.1-10.141l-.83-2.245H86.6l-1,2.325A25.051,25.051,0,0,0,83.383,73.4a22.337,22.337,0,0,0,2.2,9.961l1.1,2.361H69.9a17.737,17.737,0,0,0-2.654,4.971,22.355,22.355,0,0,0-1.12,5.786c-.139,2-.242,4.05-.329,6.144a33.266,33.266,0,0,1,6.259,3.157A28.266,28.266,0,0,1,83.792,120.9c2.506,7.662,1.513,15.738.556,23.589-.681,5.579-1.351,11.036-.681,15.923.924,6.673,3.536,14.323,6.379,22.652,1.345,3.946,2.745,8.043,4.068,12.351a99.653,99.653,0,0,1,4.523,27.7L127.907,222l2.384-2.988-28.026-26.743-9.1-8.678,11.035,6.018,38.38,20.935,8.267-2.568.376-35.588.108-10.019,3.134,9.525,11.421,34.745,11.106,2.179,33.377-23.806,10.055-7.177-7.8,9.577-23.607,28.942,3.9,4.021,40.861-8.169,14.9-2.977-13.9,6.134-34.843,15.374.53,1.39,37.747,2.493,15.165,1-15.023,2.3-35.3,5.411a49.047,49.047,0,0,1,.625,7.436,85.29,85.29,0,0,1-.653,11.549l-3.293-.427a82.715,82.715,0,0,0,.629-11.088,40.031,40.031,0,0,0-.9-8.457l-.425-1.761,1.793-.277,22.019-3.374-23.652-1.563-1.073-.07-.38-1-1.478-3.867-.565-1.47,1.455-.64,22.388-9.883-26.853,5.37-.883.179-.629-.652-5.555-5.741-1.026-1.06.929-1.144,16.728-20.513-23.9,17.054-.584.415-.7-.139-12.754-2.5-.953-.183-.3-.935-8.6-26.156-.289,26.779-.012,1.217-1.154.358-10.078,3.138-.669.207-.617-.342-27.973-15.258,20.034,19.118,1.1,1.056-.946,1.182-3.8,4.77-.472.594-.768.029-30.091,1.141.012,1.264,28.093,1.587,1.841.1-.294,1.811-.815,5.035-.183,1.154-1.144.213-20.548,3.93c.451.425.883.875,1.3,1.337l21.4-1.547.236,3.317-19.222,1.386a28.921,28.921,0,0,1,4.107,10.6,47.659,47.659,0,0,1,.663,9.228,60.246,60.246,0,0,1,11.036,9.329l4.31-9.059h0l3.836-8.553,3.03,1.355-3.854,8.591-.012.038-4.944,10.392a49.469,49.469,0,0,1,3.455,4.9,43.732,43.732,0,0,1,6.635,22.026c.12,5.871.116,10.712-.981,15.744-1.1,5.063-3.288,10.267-7.517,16.785L126.36,335.6c3.981-6.137,6.034-10.989,7.056-15.678,1.028-4.725,1.032-9.351.912-14.976a40.362,40.362,0,0,0-6.144-20.353,51.391,51.391,0,0,0-14.26-14.86,68.064,68.064,0,0,1-3.623,16.043,87.488,87.488,0,0,1-17.127,28.874,31.626,31.626,0,0,1-9.571,7.471c-.641.311-1.28.582-1.915.818a88.616,88.616,0,0,1-.172,13.36c-.606,9.848-1.276,20.8,4.084,30.887,11.588-9.49,17.634-16.385,20.693-24.859,3.224-8.94,3.242-19.92,2.988-37.681l3.317-.039c.259,18.137.23,29.362-3.184,38.84-3.444,9.553-10.21,17.07-23.392,27.673-7.823,6.288-5.188,11.914-.78,17.388,1.016,1.268,2.107,2.509,3.19,3.742,3.53,4.034,7.049,8.049,8.008,12.415,1.569-1.743,3.122-3.409,4.735-5.129a254.328,254.328,0,0,0,17.958-21.026,79.9,79.9,0,0,1,10.882-10.927c3.975-3.506,7.959-7.025,11.059-11.248,10.325-14.07,22.507-20.941,31.975-26.276v-.006c4.741-2.67,8.775-4.944,11.37-7.482a24.1,24.1,0,0,1-1.453-2.159,13.61,13.61,0,0,1-2.244-6.921l3.317.017a10.515,10.515,0,0,0,1.77,5.194,35.473,35.473,0,0,0,10.09,10.122c4.091,2.792,8.468,4.7,11.889,4.719a5.774,5.774,0,0,0,3.069-.72l1.72,2.849a9.083,9.083,0,0,1-4.8,1.188,15.515,15.515,0,0,1-3.352-.422,62.414,62.414,0,0,0-1.044,15.253,45.056,45.056,0,0,0,3.195,14.958c.877,2.078,1.817,4.172,2.739,6.231,6.791,15.137,12.618,28.145-1.891,39.843,4.937.411,9.033,3.135,12.281,6.924,4.412,5.157,7.252,12.351,8.45,18.189a28.48,28.48,0,0,0,3.647,8.937,53.827,53.827,0,0,0,5.389,7.216c4.337,5.012,6.975,9.531,7.117,14.318a16.02,16.02,0,0,1-2.82,9.19l11.555,7.9,35.848-43.382a39.137,39.137,0,0,0-6.047-5.884l2.054-2.613A36.3,36.3,0,0,1,295.624,446.5a18.533,18.533,0,0,1,1.817,8.584c.437-.271.87-.547,1.3-.836a30.01,30.01,0,0,0,7.183-6.6c-.271-2.786-1.753-5.8-3.784-8.681a52.471,52.471,0,0,0-11.184-11.2l1.966-2.683a56.16,56.16,0,0,1,11.935,11.976,27.465,27.465,0,0,1,3.537,6.616c.075-.154.145-.3.218-.462,2.153-4.677,2.741-8.317,1.569-11.773-1.211-3.594-4.327-7.182-9.528-11.652l2.157-2.528c1.371,1.178,2.613,2.307,3.726,3.4l15.448-18.7L289.5,373.713c-1.368,1.482-3.352,3.623-5.7,6.167-10.934,11.8-30,32.4-36.713,40.462.34.6.68,1.2,1,1.8,2.78,5.112,7.707,8.706,12.571,12.243,4.568,3.327,9.084,6.622,12.05,11.2l-2.78,1.813c-2.642-4.08-6.911-7.188-11.225-10.332-5.163-3.761-10.4-7.575-13.527-13.338-1.235-2.267-2.66-4.639-4.113-7.066-3.556-5.931-7.316-12.2-9.417-18.8a76.211,76.211,0,0,1-2.059-8.538c-1.142-5.757-2.271-11.434-6.956-17.986l2.7-1.927c5.106,7.141,6.307,13.169,7.517,19.272a72.28,72.28,0,0,0,1.956,8.175c1.979,6.207,5.635,12.316,9.1,18.1.472.785.935,1.565,1.4,2.336,4.21-4.959,11.976-13.527,19.827-22.082a105.623,105.623,0,0,0-8.268-7.7c-5.5-4.748-10.446-9.018-14.213-16.966-1.933-4.072-3.572-8.676-5.227-13.314-2.078-5.833-4.181-11.74-6.847-16.524a46.3,46.3,0,0,0-14.216-15.666c-6.223-4.344-14.028-7.788-23.75-10.344l.849-3.214a86.993,86.993,0,0,1,17.688,6.578c-.607-4.316-3.484-9.185-6.324-13.99-2.29-3.876-4.563-7.719-5.763-11.434a39.986,39.986,0,0,1-1.874-10.776,37.664,37.664,0,0,1,1.1-10.754l3.213.836a34.206,34.206,0,0,0-.993,9.8,36.4,36.4,0,0,0,1.72,9.874c1.079,3.347,3.258,7.034,5.462,10.753,3.484,5.9,7.028,11.889,6.9,17.584q1.92,1.136,3.679,2.365A49.569,49.569,0,0,1,233.481,339.1c2.809,5.053,4.962,11.076,7.084,17.03,1.626,4.569,3.242,9.1,5.094,13.008,3.465,7.308,8.162,11.365,13.383,15.87a110.735,110.735,0,0,1,8.348,7.747c5.076-5.515,10.049-10.886,13.977-15.127,2.984-3.218,5.343-5.773,6.785-7.348l1.1-1.2,1.222,1.062,34.919,30.378-1.1,1.252,1.407-.882,4.639,7.39.629,1-.745.924L313.5,430.922c1.246,4.182.544,8.427-1.874,13.684a30.353,30.353,0,0,1-11.042,12.4,46.117,46.117,0,0,1-4.123,2.462l-.094.214-.166-.076a68.019,68.019,0,0,1-7.886,3.486,45.9,45.9,0,0,1,2.129,15.881,50.08,50.08,0,0,1-7.292,24.28,38.379,38.379,0,0,1-19.106,16.13,36.558,36.558,0,0,1-13.078,2.251c.1,1.614.224,3.236.375,4.88,1.327,14.432,4.6,30.038,7.915,45.26.548,2.5.958,4.321,1.343,6.047a169.323,169.323,0,0,1,3.3,17.19c.871,7.241.23,17.532-.38,27.4-.676,10.96-1.321,21.4.173,26l.871,2.7-2.78-.565a19.18,19.18,0,0,1-7.021-2.884c-2.4,12.593.877,42.608,2.047,53.325l.254,2.361v.006a31.251,31.251,0,0,1-.034,6.771,16.682,16.682,0,0,1-1.276,4.842,14.6,14.6,0,0,1-1.435,8.521,14.038,14.038,0,0,1-4.985,5.566c-.478.358-.934.7-1.309,1.032l-.047,1.505c-.45,13.25-1.113,33.119,12.322,61.777h23.942v29.953H40.984V793.378H64.507Zm189.453-302.6,4.6,5.134,1.3,1.459,1.228-1.522,24.49-30.339a43.037,43.037,0,0,1,1.544,13.344,46.664,46.664,0,0,1-6.8,22.658,35.118,35.118,0,0,1-17.444,14.763,33.3,33.3,0,0,1-12.087,2.043c-.374-10.1.446-19.463,3.163-27.541m30.362-28.994-24.594,30.466-4.182-4.666,35.364-42.794a24.189,24.189,0,0,1,1.683,3.075,13.653,13.653,0,0,1,1.166,9.266,70.965,70.965,0,0,1-8.105,3.39l-1.592.566Zm24.517-38.691a26.4,26.4,0,0,1,3.179,4.38l14.876-18.433-2.779-4.436ZM186.552,325.128a42.348,42.348,0,0,0,3.82,3.657c-7.09,16.464-12.41,23.013-18.167,30.1a134.48,134.48,0,0,0-14.537,20.974c-11.008,19.5-23.092,31.151-33.99,41.646-7.4,7.136-14.266,13.751-19.961,21.979l-.853,1.239c-5.965,8.6-12.062,17.394-16.62,33.378a21.242,21.242,0,0,1-5.11-4.648,37.823,37.823,0,0,1-5.983-10.108c-.865-2.318-.582-6.575.4-11.172a48.668,48.668,0,0,1,5.139-13.911,82.373,82.373,0,0,0,3.676-7.5v-.006c2.9-6.38,6.7-14.732,11.658-20.577,2.561-3.016,5-5.625,7.581-8.387a256.983,256.983,0,0,0,18.166-21.277,77.5,77.5,0,0,1,10.442-10.458c4.118-3.635,8.247-7.28,11.543-11.763,9.911-13.509,21.731-20.172,30.915-25.354l0,.006c4.842-2.729,8.977-5.065,11.879-7.822M93.577,660.253c1.05-12.034,2.631-20.392,11.687-29.693,4.852-4.984,11.4-8.986,20.872-13.439,9.5-4.461,13.908-10.442,16.653-17.093-2.7,15.078-9.5,25.6-15.055,34.192A84.348,84.348,0,0,0,121,645.86c-1.667,3.871-2.387,9.254-3.173,15.115v0a131.653,131.653,0,0,1-2.21,13.125,85.791,85.791,0,0,1-5.5,14.785c-1.343,3.023-2.666,6-3.71,8.936-2.331,6.543-4.51,11.781-6.437,16.321-4.349-5.694-6.474-12.618-7.326-20.456-.975-8.971-.3-19.2.657-30.176ZM98.74,231.022c.018,2.07.04,4.095.122,6.126a20.745,20.745,0,0,1,3.3,1.661l22.284-4.257.334-2.06ZM97.482,251.31c-1.978-7.66-2.019-14.317-2.066-21.489-.057-9.194-.119-19.274-4.475-33.437-1.283-4.17-2.689-8.3-4.046-12.257-2.889-8.475-5.553-16.263-6.518-23.278-.733-5.337-.041-10.99.664-16.769.917-7.494,1.864-15.2-.409-22.158a24.99,24.99,0,0,0-10.383-13.367,30.3,30.3,0,0,0-4.565-2.412c-.287,10.933.013,22.863.3,34.446.076,2.981.151,5.94.213,8.855l.076-.029c4.845,12.327,1.805,25.394-1.213,38.356-.564,2.424-1.13,4.846-1.621,7.165a45.054,45.054,0,0,0,1.749,25.209,45.758,45.758,0,0,0,15.275,20.261l-2.013,2.636a52.171,52.171,0,0,1-8.03-7.61c.548,5.37.847,11.851,1.158,18.489.6,12.9,1.229,26.416,3.694,32.883a22.577,22.577,0,0,0,3.529-4.939,46.576,46.576,0,0,1,5.21-7.424c.547-.611,1.4-1.633,2.43-2.966.748-.974,1.62-2.15,2.56-3.5,3.219-4.614,6.9-10.817,8.48-16.666m-54.5-135.623.924,3.183a18.98,18.98,0,0,1,8.452-.422,18.56,18.56,0,0,1,7.855,3.135l2.021-2.644a23.139,23.139,0,0,0-19.252-3.252m25.539,143.7a39.175,39.175,0,0,0-5.629,9.084,63.489,63.489,0,0,0-4.772,17.106,71.009,71.009,0,0,0-.847,13.476,27.876,27.876,0,0,0,2.474,10.77,22.532,22.532,0,0,0,5.047,6.912,15.593,15.593,0,0,0,7.974,3.952,15.774,15.774,0,0,0,9.4-1.559,28.432,28.432,0,0,0,8.556-6.7,84.13,84.13,0,0,0,16.448-27.741c3.183-9.07,4.591-18.622,3.044-27.49a25.061,25.061,0,0,0-4.822-11.046,19.475,19.475,0,0,0-4.3-4.072,18.455,18.455,0,0,1-.091,8.877c-1.5,6.681-5.66,13.771-9.254,18.922-.917,1.315-1.83,2.55-2.666,3.629C88,274.881,87.1,275.966,86.5,276.641a43.327,43.327,0,0,0-4.846,6.934c-1.673,2.811-3.081,5.163-5.659,6.889a7.6,7.6,0,0,1-6.761.969,7.212,7.212,0,0,1-3.358-2.406,8.352,8.352,0,0,1-1.644-4.223c-.362-3.333.924-7.77,5.093-12.892-.346-3.97-.594-8.228-.808-12.524m9.917,64.465a17.693,17.693,0,0,1-6.195.111c-.2-.031-.393-.065-.588-.1a28.046,28.046,0,0,0,1.176,8.167c.877,2.55,2.456,4.634,5.3,5.32L78.2,336.1a93.34,93.34,0,0,0,.236-12.247M142.8,252.487l.053,3.317,11.276-.213a8.615,8.615,0,0,1-.189,2.36,3.866,3.866,0,0,1-.594,1.362,22.964,22.964,0,0,0-3.722-.433,14.777,14.777,0,0,0-6.771,1.216,7.894,7.894,0,0,0-4.477,5.424,9.841,9.841,0,0,0-.271,2.066c-.144,4.557,1.689,9.138,4.742,13.128a18.217,18.217,0,0,1-.416,6.185,16.39,16.39,0,0,1-2.6,5.844l-.934,1.274,1.228,1c3.772,3.069,7.539,6.024,11.456,8.85a146.549,146.549,0,0,0,12.3,8.006l1.17.682.9-1.016c1.257-1.424,2.959-3.248,4.8-5.215a174.54,174.54,0,0,0,12.817-14.792l-2.689-1.95a172.07,172.07,0,0,1-12.563,14.474c-1.414,1.518-2.741,2.936-3.935,4.263-3.812-2.261-7.4-4.65-10.861-7.147-3.434-2.475-6.779-5.078-10.131-7.788a20.512,20.512,0,0,0,2.273-5.717,22.149,22.149,0,0,0,.525-3.242,33.124,33.124,0,0,0,13.873,7.874l.859-3.208a29.974,29.974,0,0,1-14.081-8.75c-3.408-3.8-5.56-8.285-5.421-12.651a6.693,6.693,0,0,1,.177-1.39,4.711,4.711,0,0,1,2.684-3.213,11.583,11.583,0,0,1,5.236-.89,19.772,19.772,0,0,1,3.952.544l.755.183.626-.462a6.386,6.386,0,0,0,2.311-3.733,13.351,13.351,0,0,0,.1-5.088l-.23-1.425-1.437.029Zm33.95,2.92,1.17-3.11a28.766,28.766,0,0,0-7.886-1.905,10.087,10.087,0,0,0-4.424.585,5.619,5.619,0,0,0-3.248,3.311,8.018,8.018,0,0,0-.457,2.226c-.038.721.006,3.588.053,6.645.029,1.569.051,3.184.07,4.571l-3.242.023.016,3.317,4.905-.029,1.655-.012-.006-1.65c0-1.679-.045-4.025-.08-6.271-.046-2.948-.093-5.716-.052-6.386a4.618,4.618,0,0,1,.248-1.264,2.391,2.391,0,0,1,1.4-1.406,6.81,6.81,0,0,1,2.953-.342,25.248,25.248,0,0,1,6.924,1.7m-17.988,18.845.064,3.317,8.635-.173-.063-3.317Zm1.609,4.606-1.441,2.988a10.783,10.783,0,0,0,4.759.859,8.013,8.013,0,0,0,4.4-1.246l-1.978-2.67a4.755,4.755,0,0,1-2.5.6,7.494,7.494,0,0,1-3.232-.529m27.921-11.014-3.317-.041c-.069,4.776-.893,8.578-2.947,11.515s-5.383,5.106-10.5,6.653l.963,3.172c5.873-1.777,9.773-4.368,12.253-7.921s3.466-7.949,3.547-13.378M46.428,55.507c6.156-7,.515-13.291-5.635-20.158-3.719-4.147-7.615-8.49-9.634-13.464a18.945,18.945,0,0,1-.9-12.707A15.755,15.755,0,0,1,38.064,0l1.6,2.913a12.517,12.517,0,0,0-6.23,7.257A15.682,15.682,0,0,0,34.24,20.64c1.811,4.459,5.5,8.572,9.022,12.5,7.182,8.006,13.759,15.351,5.666,24.564Zm13.143-2.2,2.642,2.014c4.99-6.554.814-12.923-3.34-19.251-3.578-5.452-7.125-10.863-3.076-15.485L53.3,18.4c-5.718,6.524-1.478,12.985,2.791,19.488,3.508,5.352,7.045,10.741,3.48,15.42m8.48-9.882c.721-1.991-.416-3.761-1.575-5.556-1.748-2.717-3.537-5.492-1.673-9.668l3.035,1.349c-1.132,2.534.166,4.547,1.437,6.525,1.6,2.487,3.179,4.933,1.9,8.47Zm62.671,203.285,2.977,1.482a29.663,29.663,0,0,1,17-15.247,35.328,35.328,0,0,1,14.791-1.7,40.58,40.58,0,0,1,14.317,4.062c7.015,3.5,12.612,8.947,14.92,15.559l3.138-1.1c-2.609-7.471-8.827-13.574-16.574-17.439a43.77,43.77,0,0,0-15.5-4.383,38.482,38.482,0,0,0-16.181,1.868,32.89,32.89,0,0,0-18.887,16.9m72.386,22.124.323-3.3a21.53,21.53,0,0,1-11.694-4.569,18.151,18.151,0,0,1-6.015-10.1l-3.242.755a21.46,21.46,0,0,0,7.141,11.9,24.774,24.774,0,0,0,13.487,5.32m-74.525-30.547,3.069,1.264A31.284,31.284,0,0,1,146.563,223a32.784,32.784,0,0,1,14.4-3.352,38.164,38.164,0,0,1,14.781,2.907,35.274,35.274,0,0,1,18.263,16.558l2.965-1.478a38.607,38.607,0,0,0-19.967-18.149,41.394,41.394,0,0,0-16.07-3.154,35.969,35.969,0,0,0-15.858,3.7,34.526,34.526,0,0,0-16.5,18.256m67.771,72.641,1.729-2.837c-6.725-4.125-6.8-10.6-6.887-16.661a35.412,35.412,0,0,0-.739-8.317l-3.213.818a33.187,33.187,0,0,1,.641,7.534c.085,6.958.179,14.376,8.468,19.463M61.97,186.383c1.591-6.852,3.157-13.723,3.455-20.4l-5.377,8.411a64.3,64.3,0,0,1,1.9,11.813ZM72.353,288.445a49.113,49.113,0,0,1-2.515-11.577c-1.9,3.05-2.514,5.613-2.3,7.584A5.028,5.028,0,0,0,68.506,287a3.863,3.863,0,0,0,1.805,1.3,4.056,4.056,0,0,0,2.041.145M31.032,82.389H81.59a25.042,25.042,0,0,1-1.525-9.057,27.092,27.092,0,0,1,1.581-8.4H30.853a32.234,32.234,0,0,1,1.541,9,23.89,23.89,0,0,1-1.362,8.463m8.382-9.83H73.2V69.231H39.415Z" transform="translate(1384.453 803)" fill="#ffd729" fill-rule="evenodd"/>
    </g>
  </g>
</svg>
