<svg xmlns="http://www.w3.org/2000/svg" xmlns:xlink="http://www.w3.org/1999/xlink" width="94.213" height="94.036" viewBox="0 0 94.213 94.036">
  <defs>
    <clipPath id="clip-path">
      <rect id="Rectangle_3013" data-name="Rectangle 3013" width="94.213" height="94.036" fill="none"/>
    </clipPath>
  </defs>
  <g id="Group_4448" data-name="Group 4448" transform="translate(0 0)">
    <g id="Group_4445" data-name="Group 4445" transform="translate(0 0)" clip-path="url(#clip-path)">
      <path id="Path_11271" data-name="Path 11271" d="M31.762,91.357v-.041c0-.32.009-.651-.009-.98a4.123,4.123,0,0,0-.095-.588l0-.016A24.3,24.3,0,0,1,11.273,76.943l-1.75.852C13.758,86.217,24.9,93.016,31.762,91.357" transform="translate(-0.487 -3.932)" fill="#ffca0a"/>
      <path id="Path_11272" data-name="Path 11272" d="M37.273,92.3h1.973l-.1-1.977-1.958.1Z" transform="translate(-1.9 -4.616)" fill="#ffca0a"/>
      <path id="Path_11273" data-name="Path 11273" d="M61.647,53.192h7.824V45.264H61.647Zm5.7-2.155h-3.73V47.4h3.73Z" transform="translate(-3.151 -2.313)" fill="#ffca0a"/>
      <path id="Path_11274" data-name="Path 11274" d="M74.569,53.192h7.824V45.264H74.569ZM80.3,51.1l-3.723.178-.188-3.853,3.911-.2Z" transform="translate(-3.811 -2.313)" fill="#ffca0a"/>
      <path id="Path_11275" data-name="Path 11275" d="M93.859,55.045h-8.64l-.088-.362c-.7-2.86-.022-4.8,2.195-6.282a24.894,24.894,0,0,0,2.55-2.062,26.274,26.274,0,0,1,2.585-2.1c1.6-1.088,2.014-2.364,1.447-4.628H85.09l-.346-2.859-2.955-.369V0H55.328l-.441,2.918-11.3,0q-10.51,0-21.02.012c-.977.009-2-.072-2.986-.146-2.408-.177-4.9-.362-6.643.583-2,1.086-3.349,3.656-4.651,6.141-.3.581-.6,1.154-.909,1.7a6.7,6.7,0,0,0-.663,4.378c.3,1.236,1.45,1.789,3.725,1.789H10.5q4.538-.019,9.074,0c.653,0,1.3.04,1.951.076l.94.047H39.527v.047H55.062V36.482l-2.888.286-.306,3.015H43.109c-.494,2.159.015,3.533,1.71,4.687a47.191,47.191,0,0,1,4.571,3.706c.381.335.76.671,1.142,1,.655.567,1.416,1.227,1.445,1.986.095,2.348.082,4.725.069,7.025q-.007,1.194-.009,2.381v.474h-10.1V46.075H2.972v14.9l-2.92.357-.008.12C.023,61.746,0,62,0,62.259A31.7,31.7,0,0,0,31.377,93.977c5.079.07,10.247.049,15.246.03,2.355-.009,4.748-.019,7.153-.019,2.583,0,5.179.011,7.752.045a32.017,32.017,0,0,0,24.51-10.647c4.544-5.111,9.564-14.164,7.821-28.341M84.988,42.039h6.683L84.988,47.67ZM7.273,15.017,13.294,6l5.661,9.016ZM21,14.266,15.413,5.339H26.567ZM23.057,15l5.6-8.99,5.6,8.99Zm7.606-9.776H41.958L36.34,14.259Zm7.7,9.8,5.625-9.01,5.61,9.01Zm16.608.893-.665-.292c-2.8-1.233-4.091-3.452-5.336-5.6A17.1,17.1,0,0,0,46.211,6.16l-.841-.816h9.6ZM51.912,47.475,45.3,42.056h6.615ZM67.563,30.594v5.938H63.632l-.354-2.748h-1.9l-.2,2.752H57.719l-.1-.337c-.835-2.764-.074-4.428,2.466-5.4a22.869,22.869,0,0,0,3.074-1.563c1.766-1.012,3.593-2.056,5.476-2.068,2.013.006,4.015,1.192,5.938,2.356.788.476,1.6.969,2.391,1.359,3.006,1.484,3.121,1.73,2.445,5.254l-.074.386-.394.009h-3.1l-.269-2.692h-1.94l-.192,2.687-3.8.177V30.691Zm-5.9-9.729-3.014-1.513.845-.424c.77-.387,1.513-.766,2.235-1.135,1.977-1.006,3.843-1.957,5.734-2.818a3.177,3.177,0,0,1,2.406.151c1.762.816,3.516,1.705,5.373,2.646.726.369,1.476.749,2.259,1.141l.843.422-3.039,1.542c-1.957,1-3.805,1.938-5.642,2.819a2.986,2.986,0,0,1-1.23.273,1.844,1.844,0,0,1-.772-.151c-1.975-.925-3.928-1.91-6-2.952m4.479,4.616-8.668,4.27V21.174Zm4.77-12.254,8.623-4.353v8.653Zm3.356-4.2c-2.367,1.586-4.406,2.554-5.775,2.554s-2.737-.793-5.087-2.38L61.5,8.364,75.926,8.2ZM66.109,13.2l-8.649,4.333V8.9ZM79.577,29.766l-8.728-4.279,8.728-4.338ZM79.536,2.249V5.877H57.495l-.211-3.629ZM54.484,38.907H82.676V55.1H82.2c-1.25,0-2.492.025-3.726.05a77.835,77.835,0,0,1-8.346-.127c-4.056-.353-6.784.8-8.827,3.73a5.245,5.245,0,0,1-4.5,2.479,7.946,7.946,0,0,1-1.96-.267l-.358-.09ZM29.927,48.142h3.667v3.726H29.927Zm-6.291-.012,3.852-.2v6.05h8.333V48.087h3.8V61.032H23.636Zm-12.187.042h3.729v3.647H11.449ZM5.379,48.1H9.135v5.891h8.251V48.164h3.939V61.077H5.379ZM90.753,70.273a28.1,28.1,0,0,1-7.173,12.543A29.556,29.556,0,0,1,61.673,91.88l-5.439.013c-3.822.01-7.708.021-11.611.021-4.043,0-8.1-.011-12.132-.046C19.413,91.756,8.853,84.75,4.242,73.126c-.241-.609-.435-1.235-.64-1.9-.1-.326-.206-.665-.322-1.021l-.2-.622H70.43l.116.308c1.472,3.929,3.846,5.712,7.486,5.618a6.726,6.726,0,0,0,5.59-3.11c2.134-3.093,2.32-3.173,6.721-2.72l.552.056ZM72.631,68.435a5.094,5.094,0,0,1,1.536-3.64,4.964,4.964,0,0,1,3.623-1.487,5.064,5.064,0,0,1,.083,10.126l-.171,0a5.079,5.079,0,0,1-5.072-5m19.12-1.086h-.474c-.522,0-1.027.009-1.518.018-.47.009-.93.016-1.383.016a19.931,19.931,0,0,1-2.165-.1,2.84,2.84,0,0,1-1.8-1.565c-1.455-2.975-3.7-4.485-6.683-4.491h-.018c-3.006,0-5.2,1.454-6.7,4.444a3.134,3.134,0,0,1-2.3,1.628c-19.018.062-38.439.065-57.219.059H2.644L2.1,63.281l15.292,0c13.062-.006,26.564-.01,39.847.045,1.863.02,3.265-.291,4.263-1.761,2.873-4.235,6.935-4.614,10.535-4.423,4.427.232,8.779.183,13.388.131,1.938-.022,3.886-.045,5.849-.045h.474Z" transform="translate(0 0)"/>
      <path id="Path_11276" data-name="Path 11276" d="M23.211,18.44l.389.019v6.947H14.627V42.652H34.866V25.2h-8.86V18.486H40.275V18.44Zm5.675,9.15h3.957V40.548H16.838V27.589h3.824v5.863h8.224Zm-2.195.046v3.678H22.97l-.192-3.678Z" transform="translate(-0.748 -0.942)" fill="#ffca0a"/>
    </g>
  </g>
</svg>
