<svg xmlns="http://www.w3.org/2000/svg" xmlns:xlink="http://www.w3.org/1999/xlink" width="106.763" height="95.652" viewBox="0 0 106.763 95.652">
  <defs>
    <clipPath id="clip-path">
      <rect id="Rectangle_3015" data-name="Rectangle 3015" width="106.763" height="95.652" fill="none"/>
    </clipPath>
  </defs>
  <g id="Group_4447" data-name="Group 4447" transform="translate(0 0)">
    <g id="Group_4447-2" data-name="Group 4447" transform="translate(0 0)" clip-path="url(#clip-path)">
      <path id="Path_11287" data-name="Path 11287" d="M49.827,93.015H2.217C.258,93.015,0,92.755,0,90.769V2.255C0,.188.193,0,2.305,0h69.9c2.059,0,2.207.146,2.207,2.208q0,9.3,0,18.6V22.2a3.392,3.392,0,0,0,2.036-2.594c.145-.762.418-1.409,1.291-1.409s1.148.66,1.285,1.417a3.977,3.977,0,0,0,2.7,3.006,12.888,12.888,0,0,0,6.232.8c.813-.08,1.412.1,1.7.885.992,2.736,3.11,4.394,5.578,5.607a2.351,2.351,0,0,1,1.5,2.676,22.334,22.334,0,0,1-2.454,7.786A25.048,25.048,0,0,0,92.287,46.2,44.255,44.255,0,0,1,87.58,59.665c-.624,1.1-.361,2.7-.473,3.768,2.879.807,5.457,1.554,8.053,2.229a1.4,1.4,0,0,0,1.071-.373c2.224-2.052,4.368-2.053,6.5.054.893.882,1.785,1.765,2.657,2.669a4.026,4.026,0,0,1,.006,6.051,1.876,1.876,0,0,0-.56,2.125,16.241,16.241,0,0,1,.522,3.945c.06,4.511.025,9.023.022,13.535,0,1.674-.307,1.982-1.986,1.982q-25.418,0-50.835,0c-2.5,0-2.5,0-2.732-2.638M2.553,2.479V90.443H49.939V77.551c-2.549,0-5.131,0-7.712,0-.825,0-1.547-.184-1.56-1.172-.015-1.046.711-1.26,1.6-1.255,2.511.013,5.022.008,7.532,0,.278,0,.555-.058,1.124-.124-1.77-1.317-2.615-2.825-2.3-4.887H44.371c-3.3,0-6.591.011-9.886-.007-1.226-.008-1.992-.773-1.516-1.585a2.155,2.155,0,0,1,1.588-.839c4.236-.073,8.479-.178,12.708,0a6,6,0,0,0,5.192-2.164c2.152-2.4,4.249-2.353,6.631-.214a1.324,1.324,0,0,0,.984.369c2.635-.687,5.253-1.438,8-2.2a10.254,10.254,0,0,0-.992-5.6,57.114,57.114,0,0,1-3.114-8.329c-.478-1.441-.687-2.971-1.031-4.458-.2-.848-.7-1.111-1.605-1.106-8.748.039-17.5.024-26.245.022-.392,0-.878.122-1.154-.062-.429-.287-.993-.793-.986-1.2s.592-.883,1.031-1.157c.285-.178.764-.055,1.156-.055H61.916c-.323-.558-.519-.891-.708-1.228a18.31,18.31,0,0,1-2.474-8.011A2.114,2.114,0,0,1,60.1,30a10.979,10.979,0,0,0,5.795-5.737c.166-.42,1.02-.754,1.58-.8,1.464-.11,2.942-.037,4.411-.037V2.479ZM88.949,66.6c.351.414.614.732.885,1.044,1.131,1.3,1.125,1.664-.1,2.823q-3.25,3.067-6.515,6.119c-1.393,1.3-1.619,1.3-3.184-.076a7.325,7.325,0,0,0-.2,1.509c.059.7.252,1.385.381,2.077.81,4.344,1.619,8.687,2.433,13.057H93.794V91.786c0-2.824.007-5.646,0-8.469,0-.869.324-1.518,1.258-1.486.845.029,1.184.639,1.175,1.464-.012,1.254,0,2.509,0,3.764V93.17h6.583a4.335,4.335,0,0,0,.1-.623c0-4.43,0-8.86-.027-13.291a8.964,8.964,0,0,0-.208-1.746c-1.383-6.737-8.556-10.578-13.721-10.914m-16.318,26.6c.961-5.13,1.917-10.167,2.829-15.213a5.734,5.734,0,0,0-.245-1.593c-.867,1.029-1.6,1.625-2.564.73-2.5-2.323-4.974-4.665-7.462-7a1.314,1.314,0,0,1-.1-2.057c.394-.451.786-.9,1.362-1.566A17.9,17.9,0,0,0,59.1,68.986c-4.348,2.675-6.86,6.4-6.728,11.691.078,3.173.014,6.35.014,9.526v2.97H59c.021-.432.054-.814.055-1.2q.006-4,0-8c0-.948-.127-2,1.2-2.159.885-.1,1.262.606,1.263,2.215,0,2.626,0,5.253,0,7.88,0,.413.047.826.075,1.277ZM69.106,25.977c1.059,2.824,1.316,5.553-.01,8.208a3.3,3.3,0,0,1-1.542,1.4c-1.625.716-3.323,1.272-5.048,1.913.356.673.661,1.177.9,1.712a1.376,1.376,0,0,0,1.488.836c8.588-.023,17.177-.011,25.765-.032a1.553,1.553,0,0,0,1.11-.389,17.286,17.286,0,0,0,1.215-2.153c-1.858-.67-3.565-1.239-5.228-1.917a2.471,2.471,0,0,1-1.238-1.095,7.573,7.573,0,0,1-.882-2.887c-.033-1.847.228-3.7.372-5.606-2.874-.246-5.978-.652-8.271-3.249-2.295,2.593-5.35,3.029-8.629,3.262M66.375,49.242c1.116,4.3,2.571,8.326,5.649,11.538,3.491,3.642,7.688,3.712,11.263.177,3.262-3.226,4.735-7.36,5.851-11.733-7.616,4.471-15.13,4.471-22.763.018m-1.75-6.749a7.746,7.746,0,0,0,2.833,4.328A16.036,16.036,0,0,0,78.005,50.1a15.7,15.7,0,0,0,10.153-3.391,7.74,7.74,0,0,0,2.7-4.215ZM77.782,80.386l-.283.023L75.141,93.184h5.013c-.8-4.318-1.586-8.558-2.372-12.8M70.657,62.945a1.793,1.793,0,0,0,.826,2.224c1.846,1.246,3.633,2.581,5.4,3.935a1.061,1.061,0,0,0,1.53-.012Q81.172,67,84.009,65.018a1.435,1.435,0,0,0,.59-1.853c-4.692,3.875-9.324,3.762-13.943-.219m-3.121,6.026,5.93,5.557c.843-1.094,1.613-2.095,2.425-3.15l-6.37-4.635-1.985,2.228m18.233-2.233L79.38,71.4l2.47,3.123,5.9-5.554-1.978-2.23m-18.669-39c-1.492,1.231-2.9,2.517-4.438,3.622-1.613,1.16-1.669,1.084-1.17,3.058.057.223.146.439.241.724,1.574-.573,3.117-1.112,4.638-1.709a1.382,1.382,0,0,0,.7-.7,6.788,6.788,0,0,0,.031-5m26.634,7.4c.844-2.589.844-2.588-1.279-3.989a5.8,5.8,0,0,1-.673-.466c-1.114-.99-2.217-1.993-3.376-3.038a6.968,6.968,0,0,0-.057,4.937,1.655,1.655,0,0,0,.831.863c1.476.6,2.985,1.12,4.553,1.693m-36.542,31.8c-1.046-1-1.729-1.015-2.8.039-.92.9-1.828,1.815-2.713,2.75-1.016,1.074-.928,1.862.1,2.633,1.8-1.8,3.574-3.578,5.417-5.422m46.361,5.475c1-1.008,1.021-1.729-.013-2.791-.925-.95-1.85-1.9-2.815-2.81A1.5,1.5,0,0,0,98.166,67l5.388,5.423m-25.919.865c-1.08,1.158-1.08,1.158.065,2.545.627-.86,1.268-1.664-.065-2.545" transform="translate(0 0)"/>
      <path id="Path_11288" data-name="Path 11288" d="M17.69,84.311c-2.627,0-5.254.007-7.881,0-1.307,0-1.713-.379-1.715-1.655q-.02-7.237,0-14.471c0-1.278.4-1.662,1.719-1.665q7.939-.019,15.879,0c1.351,0,1.686.344,1.689,1.668q.013,7.235,0,14.47c0,1.318-.35,1.648-1.692,1.652-2.666.01-5.332,0-8,0m7.2-15.25H10.659V81.845H24.888Z" transform="translate(-0.341 -2.807)"/>
      <path id="Path_11289" data-name="Path 11289" d="M17.733,11.995c2.626,0,5.253-.008,7.88,0,1.5.007,1.768.281,1.77,1.809q.007,7.116,0,14.233c0,1.418-.311,1.729-1.733,1.732q-7.879.011-15.758,0c-1.446,0-1.8-.356-1.8-1.811q-.011-7.058,0-14.116c0-1.531.323-1.843,1.88-1.848,2.588-.008,5.175,0,7.762,0m7.2,2.494H10.659V27.27H24.932Z" transform="translate(-0.341 -0.506)"/>
      <path id="Path_11290" data-name="Path 11290" d="M17.673,57.047c-2.626,0-5.253.009-7.88,0-1.3-.006-1.7-.391-1.7-1.674q-.017-7.234,0-14.468c0-1.236.392-1.633,1.619-1.637,5.37-.014,10.742,0,16.113-.01,1.068,0,1.571.463,1.567,1.564-.02,4.863,0,9.724-.012,14.587,0,1.306-.351,1.633-1.709,1.639-2.666.011-5.332,0-8,0m-7.041-2.483H24.89V41.775H10.633Z" transform="translate(-0.341 -1.657)"/>
      <path id="Path_11291" data-name="Path 11291" d="M50.49,18.559q-7.054,0-14.108,0c-.352,0-.806.112-1.033-.062-.413-.317-.919-.793-.953-1.236-.027-.35.545-.825.95-1.1.249-.167.685-.07,1.036-.07q14.167,0,28.333,0c.352,0,.786-.1,1.037.071.411.273,1,.75.972,1.1-.036.444-.556.917-.975,1.235-.23.173-.682.063-1.034.063q-7.112,0-14.225,0" transform="translate(-1.452 -0.678)"/>
      <path id="Path_11292" data-name="Path 11292" d="M51.056,23.885c2.2,0,4.39.013,6.585-.007.88-.008,1.652.2,1.685,1.2.034,1.013-.729,1.26-1.613,1.259q-6.82-.009-13.64,0c-.858,0-1.64-.177-1.613-1.242.027-1.042.794-1.212,1.658-1.209,2.313.011,4.625,0,6.938,0" transform="translate(-1.792 -1.008)"/>
      <path id="Path_11293" data-name="Path 11293" d="M50.934,53.595q-3.409,0-6.819,0c-.847,0-1.649-.124-1.655-1.2-.006-1.041.736-1.244,1.616-1.242q6.82.013,13.639,0c.906,0,1.626.271,1.614,1.262-.012.932-.732,1.184-1.575,1.18-2.273-.012-4.547,0-6.819,0" transform="translate(-1.792 -2.159)"/>
      <path id="Path_11294" data-name="Path 11294" d="M76.681,37.516a1.573,1.573,0,0,1,.038-.233,3.638,3.638,0,0,0-1.336-4.2c-1.1-.953-.7-1.976.757-2.318a1.832,1.832,0,0,1,.457-.1,2.878,2.878,0,0,0,2.89-2.066,2.232,2.232,0,0,1,1.455-1.225c.422-.039,1.138.663,1.343,1.185a3.172,3.172,0,0,0,2.982,2.154c.571.056,1.454.5,1.553.914a2.217,2.217,0,0,1-.708,1.767,2.934,2.934,0,0,0-1.1,3.391,2.725,2.725,0,0,1,.09.816,1.2,1.2,0,0,1-1.688,1.278.37.37,0,0,1-.111-.036,3.858,3.858,0,0,0-4.813-.045c-.964.619-1.861-.118-1.811-1.278m2.979-2.2h2.466l.765-2.338c-.64-.476-1.377-1.024-2.006-1.489l-1.985,1.5.759,2.328" transform="translate(-3.156 -1.155)" fill="#ffca0a"/>
      <path id="Path_11295" data-name="Path 11295" d="M16.387,76.665c1.293-1.355,2.553-2.681,3.82-4,.243-.253.491-.639.778-.679a2.082,2.082,0,0,1,1.461.2,1.356,1.356,0,0,1,.192,1.315c-1.9,2.012-3.887,3.945-5.854,5.894a.636.636,0,0,1-.324.126c-.992.183-3.535-2.488-3.293-3.456a1.157,1.157,0,0,1,1.851-.654,17.017,17.017,0,0,1,1.37,1.25" transform="translate(-0.555 -3.037)" fill="#ffca0a"/>
      <path id="Path_11296" data-name="Path 11296" d="M16.306,22.045c1.437-1.447,2.836-2.853,4.23-4.264.6-.609,1.259-.847,1.937-.181a1.136,1.136,0,0,1-.075,1.763q-2.6,2.628-5.227,5.22a1.5,1.5,0,0,1-.706.383c-1,.207-3.54-2.457-3.3-3.432a1.179,1.179,0,0,1,1.947-.6c.4.3.735.678,1.2,1.112" transform="translate(-0.555 -0.726)" fill="#ffca0a"/>
      <path id="Path_11297" data-name="Path 11297" d="M16.339,49.34c1.422-1.453,2.812-2.87,4.2-4.29.6-.614,1.262-.835,1.94-.179a1.09,1.09,0,0,1-.009,1.673c-1.781,1.813-3.584,3.6-5.392,5.387a1.265,1.265,0,0,1-.617.31c-1,.2-3.537-2.475-3.294-3.447a1.163,1.163,0,0,1,1.854-.657,15.738,15.738,0,0,1,1.32,1.2" transform="translate(-0.555 -1.877)" fill="#ffca0a"/>
    </g>
  </g>
</svg>
