<svg xmlns="http://www.w3.org/2000/svg" xmlns:xlink="http://www.w3.org/1999/xlink" width="97.897" height="81.795" viewBox="0 0 97.897 81.795">
  <defs>
    <clipPath id="clip-path">
      <rect id="Rectangle_3018" data-name="Rectangle 3018" width="97.897" height="81.795" transform="translate(0 0.001)" fill="none"/>
    </clipPath>
  </defs>
  <g id="Group_4452" data-name="Group 4452" transform="translate(0 0)">
    <g id="Group_4452-2" data-name="Group 4452" clip-path="url(#clip-path)">
      <path id="Path_11321" data-name="Path 11321" d="M83.555,81.672c.493.259.887.089,1.446-.311L89.428,78.2q3.83-2.729,7.654-5.463c.372-.267.816-.682.815-1.148s-.463-.91-.852-1.188l-1.506-1.076c-3.436-2.456-6.989-5-10.517-7.444a2.178,2.178,0,0,0-1.513-.287c-.353.079-.586.338-.575,1.344.008.716.007,1.431.005,2.133l0,1.246H66.946l.647-.642A38.4,38.4,0,0,0,67.5,11.12,38.165,38.165,0,0,0,15.9,9.051,37.067,37.067,0,0,0,2.384,34.731C1.3,46.481,5.089,56.922,13.64,65.766l.614.636H6.847c-1.775,0-3.527,0-5.278,0-1.232,0-1.552.314-1.561,1.523C0,69.6,0,71.264,0,72.933L0,74.7c0,1.928.178,2.1,2.1,2.1h80.8v3.523c0,.713.184,1.1.643,1.34M2.3,74.479V68.643H6.332q4.867,0,9.735.008a2.412,2.412,0,0,1,1.231.257c2.056,1.257,4.1,2.537,6.071,3.771l2.88,1.8Zm70.521.081q-12.383,0-24.762-.008c-.843-.006-1.683.007-2.526.016a73.337,73.337,0,0,1-7.663-.191C23.924,73.058,13.85,66.136,7.92,53.8A35.428,35.428,0,0,1,6.646,25.766,36.156,36.156,0,0,1,57.629,6.574,35.378,35.378,0,0,1,75.94,31.327c2.542,13.648-1.555,25.325-12.177,34.706a3.336,3.336,0,0,1-.274.209,1.01,1.01,0,0,0-.286.247l-.112.261c-.165.38-.392.9-.3,1.132a1.554,1.554,0,0,0,1.081.709c6.48.06,12.9.052,20.023.032.811,0,1.192-.4,1.235-1.275.019-.382.014-.766.009-1.213l0-1.471,9.69,6.916L85.167,78.5v-2.18c-.011-1.493-.271-1.756-1.739-1.756Z"/>
      <path id="Path_11322" data-name="Path 11322" d="M40.474,68.635h.094A30.253,30.253,0,0,0,70.729,38.419,30.237,30.237,0,0,0,40.6,8.193H40.54a30.221,30.221,0,0,0-.066,60.442M20.787,18.619a27.844,27.844,0,0,1,19.779-8.187H40.6A27.982,27.982,0,0,1,40.533,66.4h-.057A27.958,27.958,0,0,1,20.787,18.619"/>
      <path id="Path_11323" data-name="Path 11323" d="M23.643,28.465q-.013,11.607,0,23.217c0,3.735,2.345,6.06,6.112,6.066q4.044.007,8.089,0h3.467l3.532,0q4.061,0,8.122,0c3.69-.011,5.984-2.3,5.988-5.966q.012-11.707,0-23.415A5.567,5.567,0,0,0,53.02,22.44q-11.7-.024-23.409,0a5.631,5.631,0,0,0-5.968,6.025M38.2,24.71h6.3v7.363l-2.066-1.425c-1-.7-1.162-.7-2.155-.007L38.2,32.065Zm-9.61.094c1.58-.114,3.131-.09,4.773-.065.688.01,1.382.021,2.084.021h.375l0,8.4a9.123,9.123,0,0,0,.024,1.1,1.255,1.255,0,0,0,.632,1.053,1.2,1.2,0,0,0,1.179-.154c.8-.509,1.564-1.049,2.373-1.621.356-.252.713-.5,1.077-.757l.214-.148.213.149c.319.222.631.448.942.672a26.669,26.669,0,0,0,2.259,1.52,1.85,1.85,0,0,0,1.338.26,1.835,1.835,0,0,0,.669-1.283c.065-1.9.056-3.83.046-5.7q-.006-1.027-.007-2.056V24.718h.375c.693,0,1.377-.01,2.057-.019,1.615-.025,3.142-.044,4.7.058a3.09,3.09,0,0,1,2.787,3.2c.022,8.813.023,16.765,0,24.31a3.244,3.244,0,0,1-3.462,3.2q-3.237.01-6.475.009l-3.885,0H36.235q-3.353,0-6.7,0A3.358,3.358,0,0,1,25.9,51.9q-.022-11.807,0-23.613c0-1.936,1.112-3.37,2.7-3.485" fill="#ffca0a"/>
      <path id="Path_11324" data-name="Path 11324" d="M29.712,45.465a1.019,1.019,0,0,0,.256.761,1.626,1.626,0,0,0,1.167.375c1.27.011,2.541.01,3.812.006l1.655,0,1.63,0c1.279,0,2.557.005,3.836-.007.906-.01,1.373-.375,1.389-1.087a1.034,1.034,0,0,0-.261-.773,1.6,1.6,0,0,0-1.157-.369q-5.471-.021-10.938,0c-.623,0-1.369.195-1.389,1.093" fill="#ffca0a"/>
      <path id="Path_11325" data-name="Path 11325" d="M32.741,49.924c-.744,0-1.485.025-2.219.076a.771.771,0,0,0-.551.258,1.165,1.165,0,0,0-.23.853.987.987,0,0,0,1.06,1.023c.449.023.9.019,1.35.011l.622-.013c.215,0,.429,0,.644.008.491.009.954.016,1.418-.019a.97.97,0,0,0,.982-1.007,1.159,1.159,0,0,0-.23-.85.778.778,0,0,0-.554-.26c-.763-.054-1.529-.08-2.292-.08" fill="#ffca0a"/>
    </g>
  </g>
</svg>
