<svg id="Group_4440" data-name="Group 4440" xmlns="http://www.w3.org/2000/svg" xmlns:xlink="http://www.w3.org/1999/xlink" width="100.881" height="100.882" viewBox="0 0 100.881 100.882">
  <defs>
    <clipPath id="clip-path">
      <rect id="Rectangle_3006" data-name="Rectangle 3006" width="100.881" height="100.882" fill="none"/>
    </clipPath>
  </defs>
  <g id="Group_4440-2" data-name="Group 4440" clip-path="url(#clip-path)">
    <path id="Path_11238" data-name="Path 11238" d="M94.3,24.165a4.437,4.437,0,0,0-3.1-4.244,4.562,4.562,0,0,0-1.347-.206,4.321,4.321,0,0,0-2.571.844,4.54,4.54,0,0,0-1.825,3.7q-.025,8.124-.01,16.248l0,6.542,0,10.33q0,6.33.008,12.663a4.579,4.579,0,0,0,1.438,3.383A4.342,4.342,0,0,0,90.2,74.578a4.456,4.456,0,0,0,4.107-4.735q.006-14.46,0-28.922V32.886l0-2.534c0-2.062.007-4.125-.011-6.187M92.022,47.152V69.334l0,.258a4.033,4.033,0,0,1-.039.857A2.056,2.056,0,0,1,89.88,72.28h0a2.039,2.039,0,0,1-2.107-1.827,3.678,3.678,0,0,1-.038-.784l0-.23,0-44.8a3.675,3.675,0,0,1,.038-.783,2.04,2.04,0,0,1,2.106-1.83h0a2.057,2.057,0,0,1,2.107,1.828,4.036,4.036,0,0,1,.039.857l0,.259Z"/>
    <path id="Path_11239" data-name="Path 11239" d="M92.443,0H15.018C9.73,0,6.573,3.161,6.573,8.455V72.219H8.933V8.886H64.159l-2.381.9-.554.208-.666.2c-.5.154-1.01.307-1.516.454l-1.855.54c-1.717.5-3.491,1.02-5.256,1.475a13.585,13.585,0,0,1-3.342.459q-13.6.036-27.192.021H13.158V72.219h2.279l0-2.816c-.005-1.984-.01-3.915.016-5.846a2,2,0,0,1,2.026-2.089c1.154-.042,2.285-.035,3.483-.024.5,0,1,.008,1.509.008h.5v6.482h8.865V61.466h.5c.534,0,1.059-.006,1.577-.011,1.258-.015,2.444-.028,3.65.04a1.974,1.974,0,0,1,1.867,2.124q.024,6.517,0,13.034A2.1,2.1,0,0,1,37.3,78.866c-.2.011-.4.015-.6.015-.158,0-.32,0-.488,0l-.934,0v2.4l.515-.069a2.506,2.506,0,0,1,.406-.042l3.489-.009c3.3-.011,6.7-.022,10.056.042a9.368,9.368,0,0,1,2.586.548c.269.084.537.167.8.242q2.96.824,5.911,1.677l6.511,1.791-4.135-.035H35.278v2.313H92.5c5.171,0,8.383-3.227,8.383-8.418V8.463c0-5.3-3.154-8.464-8.438-8.464m-68.3,40.925a5.527,5.527,0,0,0-1.156,4.083c.031,2.355.025,4.708.018,7.063L23,59.2H15.5V15.505H49.263v4.213h-6.5q-7.479,0-14.929,0a4.434,4.434,0,0,0-4.83,4.807q0,2.029,0,4.059c0,2.584.01,5.169-.02,7.753a5.61,5.61,0,0,0,1.167,3.925l.286.334Zm15.2-14.655H35.229V22.074h4.123ZM29.531,65.676h-4.16V61.514h4.16ZM49.253,78.82H41.628V61.411h7.625ZM49.282,57a2.078,2.078,0,0,1-2.218,2.143q-4.95.013-9.9.013-4.8,0-9.605-.012A2.111,2.111,0,0,1,25.3,56.833q-.024-6.417,0-12.834A2.1,2.1,0,0,1,27.5,41.735c1.1-.024,2.2-.018,3.339-.014l1.994.005V48.21h8.9V41.756h.5c.515,0,1.027-.006,1.537-.011,1.218-.015,2.476-.031,3.713.043a1.943,1.943,0,0,1,1.8,2.073q.027,6.572,0,13.142M35.2,41.8h4.162v4.159H35.2Zm14.075-4.5c-.009,1.33-.921,2.126-2.439,2.13s-3.042.006-4.562.006H33.886q-3.017,0-6.036,0a2.23,2.23,0,0,1-2.556-2.546q-.01-6.159,0-12.318c0-1.763.785-2.553,2.535-2.564C28.86,22,29.891,22,30.974,22h1.9v6.518h8.8V22.04h.5c.539,0,1.07-.006,1.593-.013,1.286-.015,2.5-.029,3.735.046a1.946,1.946,0,0,1,1.784,2.087c.013,3.988.025,8.622-.007,13.143M9.137,6.513l.194-.644A5.145,5.145,0,0,1,13.9,2.3c.23-.016.462-.016.7-.015H31.7q30.5.006,61-.008h.009a5.5,5.5,0,0,1,5.246,2.959,1.855,1.855,0,0,1,.165.387.827.827,0,0,1,.014.334l-.027.47-.479.085Zm89.373,6.56H74.635V8.913H98.51ZM72.246,85.01l-1.4-.375c-.561-.148-1.114-.3-1.664-.452l-4.9-1.4q-5.776-1.656-11.559-3.292a1.379,1.379,0,0,1-1.154-1.53q.021-25.866.015-51.729V16.138c0-.119.006-.237.014-.387l.029-.606L72.246,9.254Zm2.34-15.344,0-.229,0-44.8a3.691,3.691,0,0,1,.038-.785,2.129,2.129,0,0,1,4.216,0,4.023,4.023,0,0,1,.039.856l0,.258V69.335l0,.258a4.029,4.029,0,0,1-.039.857,2.129,2.129,0,0,1-4.216,0,3.7,3.7,0,0,1-.038-.786m23.53,12.21a5.047,5.047,0,0,1-4.793,3.557q-3.975.022-7.957.019-2.529,0-5.067,0l-5.625,0V81.234H98.308Zm.407-3.064H74.642V74.3l1,.16c.264.046.517.091.773.114a4.313,4.313,0,0,0,3.2-1.063,4.411,4.411,0,0,0,1.542-3.082c.011-.17.01-.341.01-.512V59.37q0-17.455,0-34.911A4.854,4.854,0,0,0,79.7,20.867a4.273,4.273,0,0,0-3.2-1.137,8.136,8.136,0,0,0-.836.111c-.15.026-.3.051-.461.075L74.629,20V15.515H98.523Z"/>
    <rect id="Rectangle_3004" data-name="Rectangle 3004" width="0.053" height="4.142" transform="translate(35.225 81.28)" fill="#ffca0a"/>
    <rect id="Rectangle_3005" data-name="Rectangle 3005" width="4.225" height="0.032" transform="translate(8.934 72.22)" fill="#ffca0a"/>
    <path id="Path_11240" data-name="Path 11240" d="M35.226,85.422V81.284l.053-.007v-2.4h-.127V77.3C35.139,74.031,33.391,72.3,30.1,72.3H15.438v-.083H13.159v.032H8.934v-.032H6.573V72.3H5.207C1.607,72.327,0,73.948,0,77.559V95.837c0,3.3,1.733,5.042,5.009,5.043q12.528,0,25.055,0c3.373,0,5.084-1.706,5.087-5.07V87.735h.127V85.422Zm-23-10.763h10.74v7.446H18.774V78.948H16.446v3.163H12.223ZM32.866,86.478l0,9.41c0,1.946-.761,2.705-2.71,2.705q-6.288,0-12.576,0T5,98.593c-1.953,0-2.714-.757-2.715-2.7q0-9.342,0-18.684c0-1.827.774-2.611,2.585-2.62,1,0,1.993,0,3.013,0H9.835v9.785H25.312V74.6h.5c.516,0,1.026,0,1.531-.008,1.224-.012,2.381-.017,3.562.027,1.2.046,1.946.957,1.956,2.375.01,1.439.008,2.878.006,4.317v5.165Z" fill="#ffca0a"/>
  </g>
</svg>
