<svg xmlns="http://www.w3.org/2000/svg" xmlns:xlink="http://www.w3.org/1999/xlink" width="83.094" height="99.932" viewBox="0 0 83.094 99.932">
  <defs>
    <clipPath id="clip-path">
      <rect id="Rectangle_3007" data-name="Rectangle 3007" width="83.094" height="99.932" transform="translate(0 0)" fill="none"/>
    </clipPath>
  </defs>
  <g id="Group_4441" data-name="Group 4441" transform="translate(0 0)">
    <g id="Group_4441-2" data-name="Group 4441" clip-path="url(#clip-path)">
      <path id="Path_11241" data-name="Path 11241" d="M83.094,98.073q-.022-11.514-.011-23.029V10.587c0-1.93-.216-2.152-2.1-2.152H48.827c-1.852,0-2.085.231-2.085,2.066V24.3q0,36.8-.02,73.594a2.349,2.349,0,0,0,.726,2.038H82.32c.484-.291.777-.752.774-1.859M49.154,10.814H80.71V38.176H49.154ZM80.716,67.819H49.167V40.611H80.716Zm.018,29.747H49.149V70.323H80.734Z"/>
      <path id="Path_11242" data-name="Path 11242" d="M36.351,76.87l0-7.122c0-1.521-.336-1.849-1.89-1.849H1.835c-1.5,0-1.819.324-1.82,1.828V80.176q0,9-.011,18c0,1.022.3,1.471.776,1.758H35.644a2.36,2.36,0,0,0,.732-2.032q-.046-10.515-.025-21.03M33.968,97.544H2.386V70.313H33.968Z"/>
      <path id="Path_11243" data-name="Path 11243" d="M35.278,25.176c-.327-.272-.726-.606-1.212-1.037-1.889-1.677-3.6-3.186-5.386-4.686a1.258,1.258,0,0,0-1.1-.314,1.032,1.032,0,0,0-.7.662,1.088,1.088,0,0,0,.4,1.382l4.862,4.267H4.244l2.869-2.517c.649-.563,1.235-1.071,1.8-1.605a2.546,2.546,0,0,0,.622-.827,1.018,1.018,0,0,0-.419-1.176,1.069,1.069,0,0,0-.618-.221,1.394,1.394,0,0,0-.9.406L6.245,20.671C4.341,22.3,2.372,23.986.5,25.7a1.944,1.944,0,0,0-.477,1.191C-.014,36.006,0,45.274.014,54.236l0,1.518c0,1.428.339,1.756,1.8,1.757H34.471c1.548,0,1.882-.331,1.882-1.863v-5.3q0-10.592,0-21.182c0-.465,0-.865.007-1.214.019-1.86.019-1.86-1.081-2.779M33.952,55.1H2.368V27.862H33.952Z" fill="#ffca0a"/>
      <path id="Path_11244" data-name="Path 11244" d="M15.588,7.076a5.208,5.208,0,0,0-2.563,6.115,5.354,5.354,0,0,0,10.424-.476,2.407,2.407,0,0,0-.167-1.706.966.966,0,0,0-.713-.374c-.369-.061-.992-.159-1.334,1.643a3.1,3.1,0,0,1-6.032.352,2.924,2.924,0,0,1,.287-2.454A3.6,3.6,0,0,1,18.075,8.6c.954-.147,1.191-.411,1.21-1.345.013-.694.01-1.387.006-2.08l0-.882,0-1.021c0-.678.008-1.357-.01-2.036C19.26.474,18.856.011,18.2,0h-.022a1.147,1.147,0,0,0-1.112,1.263l-.008.332c-.022.99-.044,1.925.018,2.86a2.481,2.481,0,0,1-1.487,2.621" fill="#ffca0a"/>
      <path id="Path_11245" data-name="Path 11245" d="M59.641,18.284a1.8,1.8,0,0,0-.3-.957.859.859,0,0,0-.705-.393,1.207,1.207,0,0,0-.4.075,1.13,1.13,0,0,0-.851,1.181c-.033,1.153-.028,2.307-.024,3.461l0,1.186,0,2.09c-.007,1.917-.013,3.834.024,5.75a1.462,1.462,0,0,0,.417,1.052,1.063,1.063,0,0,0,.76.291c.811-.027,1.1-.756,1.1-1.428q0-2.124,0-4.246V24.524l0-1.695c.007-1.493.013-3.036-.028-4.545"/>
      <path id="Path_11246" data-name="Path 11246" d="M70.182,30.533c0,.525.149,1.411,1.082,1.436a.936.936,0,0,0,.743-.265,1.613,1.613,0,0,0,.4-1.169q.014-6.058,0-12.12c0-.421-.111-1.405-1.1-1.433H71.27a.947.947,0,0,0-.683.256,1.648,1.648,0,0,0-.4,1.185c-.011,1.412-.009,2.823-.006,4.234l0,1.821,0,1.8c0,1.417-.005,2.834.006,4.252"/>
      <path id="Path_11247" data-name="Path 11247" d="M59.658,48.083a2.27,2.27,0,0,0-.089-.707.989.989,0,0,0-.977-.664,1.693,1.693,0,0,0-.25.02c-.394.065-.919.261-.955,1.216-.042,1.162-.035,2.357-.028,3.511l0,1.325-.006,2.054c-.007,1.831-.013,3.725.028,5.58.018.871.436,1.322,1.2,1.286.715-.016,1.078-.486,1.08-1.4q0-2.157,0-4.314V52.625c0-1.514,0-3.027-.008-4.542"/>
      <path id="Path_11248" data-name="Path 11248" d="M70.475,61.293a.879.879,0,0,0,1.146.338c.386-.128.782-.38.784-1.281q.014-6.109,0-12.217c0-.514-.147-1.378-1.1-1.39a.957.957,0,0,0-.769.258,1.5,1.5,0,0,0-.351,1.077c-.014,1.4-.011,2.81-.008,4.216l0,1.935-.005,1.652c-.006,1.462-.011,2.923.026,4.383a2.045,2.045,0,0,0,.276,1.029"/>
      <path id="Path_11249" data-name="Path 11249" d="M59.658,77.554a1.1,1.1,0,0,0-.32-.817,1.169,1.169,0,0,0-.816-.291l-.072,0c-.294.012-1.072.046-1.081,1.566-.015,2.819-.011,5.639-.007,8.459l0,1.976,0,.425a11.991,11.991,0,0,0,.043,1.45,1.12,1.12,0,0,0,1.2,1.124c.866-.055,1.051-.726,1.053-1.28q.009-2.235,0-4.47v-1.79l0-1.978c0-1.459.006-2.918-.01-4.376"/>
      <path id="Path_11250" data-name="Path 11250" d="M72.4,77.815a1.511,1.511,0,0,0-.385-1.081,1,1,0,0,0-.732-.281h-.013c-.679.007-1.085.493-1.089,1.3q-.025,6.159,0,12.314a1.5,1.5,0,0,0,.347,1.08,1,1,0,0,0,.767.261c.956-.008,1.1-.872,1.108-1.386.009-1.405.007-2.811.005-4.217l0-1.838,0-1.85c0-1.434,0-2.868-.006-4.3"/>
      <path id="Path_11251" data-name="Path 11251" d="M12.978,89.978c.022-1.387.018-2.775.013-4.163l0-.787H12.9v-1c0-.672.006-1.345.013-2.017.015-1.576.031-3.205-.044-4.789a.693.693,0,0,0-.232-.517,1.237,1.237,0,0,0-.822-.263c-.045,0-.091,0-.137,0a1.046,1.046,0,0,0-.979,1.046q-.024,6.459,0,12.92a.988.988,0,0,0,.324.752,1.146,1.146,0,0,0,.9.271c.284-.028,1.036-.1,1.058-1.458"/>
      <path id="Path_11252" data-name="Path 11252" d="M25.658,77.891a1.661,1.661,0,0,0-.391-1.183.967.967,0,0,0-.7-.255h-.033c-1.015.022-1.1,1.093-1.1,1.42q-.012,6.06,0,12.12c0,.633.191,1.393,1.086,1.413a.952.952,0,0,0,.775-.247A1.644,1.644,0,0,0,25.658,90c.011-1.411.009-2.823.006-4.234l0-1.82,0-1.821c0-1.411.005-2.822-.006-4.233"/>
      <path id="Path_11253" data-name="Path 11253" d="M12.967,35.261a1.424,1.424,0,0,0-.387-1.028,1.075,1.075,0,0,0-.76-.282h-.043c-.9.027-1.088.784-1.09,1.414q0,2.122,0,4.245v1.82l0,1.68c-.005,1.52-.011,3.042.024,4.561a1.814,1.814,0,0,0,.276.917.928.928,0,0,0,1.181.335c.394-.122.8-.368.812-1.27.02-1.246.017-2.491.014-3.735V42.7l0-2.1c.007-1.752.014-3.565-.025-5.339" fill="#ffca0a"/>
      <path id="Path_11254" data-name="Path 11254" d="M25.656,35.345C25.644,34.052,24.885,34,24.58,34h-.039c-.96.008-1.1.868-1.106,1.38q-.015,6.06,0,12.119a1.653,1.653,0,0,0,.4,1.184,1.035,1.035,0,0,0,.733.271c.977-.009,1.09-.986,1.094-1.406.012-1.4.009-2.811.006-4.219l0-1.834,0-1.934c0-1.406.006-2.812-.008-4.217" fill="#ffca0a"/>
    </g>
  </g>
</svg>
