<svg xmlns="http://www.w3.org/2000/svg" xmlns:xlink="http://www.w3.org/1999/xlink" width="76.034" height="95.144" viewBox="0 0 76.034 95.144">
  <defs>
    <clipPath id="clip-path">
      <rect id="Rectangle_2935" data-name="Rectangle 2935" width="76.034" height="95.144" fill="none"/>
    </clipPath>
  </defs>
  <g id="Group_4442" data-name="Group 4442" transform="translate(0 0)">
    <g id="Group_4380" data-name="Group 4380" transform="translate(0 0)" clip-path="url(#clip-path)">
      <path id="Path_11004" data-name="Path 11004" d="M0,7.383l0,81.2c0,4.047,2.518,6.562,6.575,6.563q31.436,0,62.871,0c4.055,0,6.575-2.517,6.575-6.562l0-23.212q0-25.53.01-51.063a5.3,5.3,0,0,0-1.659-4.034c-2.933-2.887-5.572-5.53-8.069-8.079A7.586,7.586,0,0,0,63.044,0H5.134C1.106,1.453,0,3.051,0,7.383M64.836,5.61,64.9,4.92l6.186,6.16-.686.07a14.107,14.107,0,0,1-1.414.077,4.181,4.181,0,0,1-3.144-1c-.89-.885-1.22-2.394-1.009-4.613M2.539,6.7c0-2.8,1.357-4.164,4.148-4.164H62.293l0,1.87c0,1.055,0,2.067,0,3.078a6.051,6.051,0,0,0,6.24,6.245c1.021.011,2.04.011,3.106.007l1.845,0,0,74.788c0,2.714-1.39,4.089-4.13,4.089H6.683c-2.788,0-4.143-1.364-4.143-4.168q0-40.872,0-81.741" transform="translate(0 0)"/>
      <path id="Path_11005" data-name="Path 11005" d="M28.53,12.208c.709-.717.808-1.45.276-2.012a1.144,1.144,0,0,0-.831-.4H27.96a1.8,1.8,0,0,0-1.22.624c-.614.614-1.213,1.243-1.832,1.889L23.77,13.491l-.232-.281a4.9,4.9,0,0,0-4.1-1.854c-.052,0-.1,0-.16,0-1.876.034-3.782.029-5.624.023q-1.134,0-2.265-.007c-.238,0-.478,0-.717,0A4.455,4.455,0,0,0,5.878,16.12c-.023,2.873-.023,5.89,0,8.969a4.457,4.457,0,0,0,4.772,4.762q4.444.015,8.881,0C22.574,29.843,24.4,28.03,24.406,25l0-.89c.008-2.19.016-4.453-.015-6.676a2.3,2.3,0,0,1,.763-1.88c.929-.869,1.839-1.791,2.717-2.686ZM12.836,20.1q1.4,1.433,2.835,2.835a1.29,1.29,0,0,0,2.144-.011c.771-.758,1.53-1.525,2.342-2.345L21.8,18.92v.792c0,.635,0,1.253.011,1.857.013,1.452.026,2.822-.041,4.2a1.684,1.684,0,0,1-1.849,1.543q-2.567.007-5.133.01-2.2,0-4.4-.013a1.8,1.8,0,0,1-1.94-1.889c-.039-3.323-.038-6.565,0-9.633a1.8,1.8,0,0,1,1.969-1.862c2.925-.018,6.24-.041,9.447.021a2.806,2.806,0,0,1,1.241.447c.171.091.343.186.521.263l.441.191L16.6,20.317l-.728-.745c-.407-.418-.831-.856-1.269-1.279a1.277,1.277,0,0,0-1.938-.139,1.315,1.315,0,0,0,.168,1.942" transform="translate(3.71 6.2)" fill="#ffc810"/>
      <path id="Path_11006" data-name="Path 11006" d="M50.943,12.722c-.108-.01-.22-.007-.323-.008l-.114,0-26.513,0a1.726,1.726,0,0,0-.443.026,1.164,1.164,0,0,0-1.029,1.117,1.152,1.152,0,0,0,.862,1.311,2.753,2.753,0,0,0,.823.077H24.3q5.2.007,10.4,0H48.335l.74,0c.612,0,1.244.011,1.863-.021a1.248,1.248,0,0,0,1.23-1.249,1.28,1.28,0,0,0-1.225-1.261" transform="translate(14.254 8.047)"/>
      <path id="Path_11007" data-name="Path 11007" d="M51.128,40.119a2.971,2.971,0,0,0-.627-.029l-.238,0-12.908,0-12.908,0-.23,0c-.073,0-.147,0-.222,0a2.676,2.676,0,0,0-.345.02,1.176,1.176,0,0,0-1.127,1.106,1.2,1.2,0,0,0,.9,1.347,2.567,2.567,0,0,0,.652.065q13.238,0,26.469,0a2.365,2.365,0,0,0,.875-.144,1.1,1.1,0,0,0,.727-1.236,1.165,1.165,0,0,0-1.021-1.122" transform="translate(14.252 25.377)"/>
      <path id="Path_11008" data-name="Path 11008" d="M51.353,26.512a3.815,3.815,0,0,0-1.1-.118q-12.895-.01-25.807,0a4.73,4.73,0,0,0-.954.067,1.174,1.174,0,0,0-.972,1.282,1.146,1.146,0,0,0,1.061,1.153,5.874,5.874,0,0,0,.854.038h.122q6.359,0,12.717,0h2.582q5.171,0,10.323,0h.109a4.319,4.319,0,0,0,.936-.067,1.235,1.235,0,0,0,.131-2.353" transform="translate(14.252 16.706)"/>
      <path id="Path_11009" data-name="Path 11009" d="M39.385,31.287q-7.623-.012-15.246,0a1.813,1.813,0,0,0-1.321.433,1.153,1.153,0,0,0-.307.864c.021,1.07,1.011,1.233,1.6,1.235q2.65.007,5.3,0l2.273,0,2.3,0c1.791,0,3.578,0,5.366,0a1.863,1.863,0,0,0,1.346-.452,1.1,1.1,0,0,0,.3-.831c-.018-.769-.637-1.246-1.617-1.246" transform="translate(14.25 19.802)"/>
      <path id="Path_11010" data-name="Path 11010" d="M29.481,17.606l-2.327,0q-1.6,0-3.2.01c-.877.007-1.417.454-1.444,1.2-.026.779.508,1.275,1.431,1.333.129.008.263,0,.39,0l.152,0,14.5,0,.193,0a4,4,0,0,0,.523-.013,1.306,1.306,0,0,0,1.3-1.3,1.24,1.24,0,0,0-1.339-1.22c-1.886-.02-3.777-.02-5.667-.013l-2.51,0v0Z" transform="translate(14.251 11.144)"/>
      <path id="Path_11011" data-name="Path 11011" d="M39.35,45.007c-1.863-.044-3.759-.036-5.6-.033l-6.549,0-.95,0c-.817,0-1.669,0-2.5.026a1.2,1.2,0,0,0-1.243,1.213,1.254,1.254,0,0,0,1.2,1.288,3.6,3.6,0,0,0,.527.021h.083q7.442.007,14.869,0a3.319,3.319,0,0,0,.921-.1,1.274,1.274,0,0,0,.866-.9A1.04,1.04,0,0,0,40.7,45.5a2.17,2.17,0,0,0-1.351-.5" transform="translate(14.251 28.469)"/>
      <path id="Path_11012" data-name="Path 11012" d="M28.53,25.865c.709-.719.808-1.452.276-2.012a1.144,1.144,0,0,0-.831-.4H27.96a1.8,1.8,0,0,0-1.22.622c-.6.6-1.182,1.21-1.783,1.839L23.77,27.147l-.232-.281a4.934,4.934,0,0,0-4.261-1.85c-1.87.036-3.766.029-5.6.021q-1.159,0-2.314-.007c-.232,0-.464,0-.694,0a4.456,4.456,0,0,0-4.793,4.744c-.023,2.873-.023,5.892,0,8.97a4.455,4.455,0,0,0,4.772,4.76q4.446.017,8.881,0c3.044-.008,4.867-1.821,4.876-4.847l0-.89c.008-2.19.016-4.453-.015-6.676a2.3,2.3,0,0,1,.763-1.88c.929-.869,1.839-1.791,2.717-2.686ZM12.838,33.754q1.4,1.433,2.833,2.835a1.289,1.289,0,0,0,2.144-.011c.745-.732,1.48-1.475,2.26-2.262L21.8,32.577v.792c0,.635,0,1.253.011,1.855.013,1.452.026,2.824-.041,4.2a1.681,1.681,0,0,1-1.85,1.542q-2.548.01-5.1.011-2.219,0-4.439-.015a1.8,1.8,0,0,1-1.94-1.888c-.039-3.323-.038-6.565,0-9.633a1.8,1.8,0,0,1,1.969-1.862c2.925-.018,6.24-.041,9.447.021a2.828,2.828,0,0,1,1.246.449c.17.091.34.185.518.261l.438.191L16.6,33.974l-.741-.759c-.4-.413-.823-.848-1.256-1.266a1.279,1.279,0,0,0-1.938-.139,1.319,1.319,0,0,0,.17,1.943" transform="translate(3.71 14.846)" fill="#ffc810"/>
      <path id="Path_11013" data-name="Path 11013" d="M27.941,39.557c.709-.717.808-1.45.276-2.012a1.141,1.141,0,0,0-.83-.4h-.015a1.8,1.8,0,0,0-1.22.624c-.634.634-1.253,1.282-1.893,1.952L23.184,40.84l-.234-.281a4.853,4.853,0,0,0-4.262-1.852c-1.893.036-3.82.029-5.683.021-.782,0-1.563-.007-2.347-.007l-.578,0a4.455,4.455,0,0,0-4.79,4.744c-.024,2.881-.024,5.9,0,8.97A4.457,4.457,0,0,0,10.062,57.2q4.441.015,8.881,0c3.044-.008,4.867-1.821,4.875-4.847l0-.488c.01-2.321.02-4.721-.013-7.078a2.3,2.3,0,0,1,.764-1.88c.939-.877,1.858-1.813,2.747-2.716ZM12.249,47.446q1.4,1.433,2.833,2.837a1.292,1.292,0,0,0,2.146-.013c.772-.761,1.537-1.532,2.353-2.357l1.633-1.645v.792c0,.629,0,1.239.011,1.837.013,1.458.024,2.835-.042,4.215a1.681,1.681,0,0,1-1.849,1.543q-2.567.007-5.133.01-2.2,0-4.4-.013a1.8,1.8,0,0,1-1.94-1.891c-.039-3.238-.038-6.478,0-9.632a1.8,1.8,0,0,1,1.971-1.862c2.925-.018,6.238-.041,9.446.021a2.824,2.824,0,0,1,1.241.446c.17.093.343.188.523.265l.441.191-5.468,5.476-.733-.748c-.4-.416-.826-.854-1.264-1.275a1.27,1.27,0,0,0-1.938-.14,1.317,1.317,0,0,0,.17,1.943" transform="translate(3.337 23.514)" fill="#ffc810"/>
    </g>
  </g>
</svg>
