<svg xmlns="http://www.w3.org/2000/svg" xmlns:xlink="http://www.w3.org/1999/xlink" width="94.999" height="95.144" viewBox="0 0 94.999 95.144">
  <defs>
    <clipPath id="clip-path">
      <rect id="Rectangle_3017" data-name="Rectangle 3017" width="94.999" height="95.144" transform="translate(0 0)" fill="none"/>
    </clipPath>
  </defs>
  <g id="Group_4451" data-name="Group 4451" transform="translate(0 0)">
    <g id="Group_4451-2" data-name="Group 4451" clip-path="url(#clip-path)">
      <path id="Path_11312" data-name="Path 11312" d="M94.9,64.369a3.28,3.28,0,0,0-.062-1.786c-.3-.855-.663-1.711-1.01-2.54-.438-1.044-.89-2.124-1.244-3.224-.572-1.774-1.312-2.828-3.206-2.564l-.121.015-.517-.251V6.812c0-.382,0-.764-.025-1.145A5.678,5.678,0,0,0,85.328.631a5.831,5.831,0,0,0-6.073.494,11.339,11.339,0,0,1-1.789,1Q47.3,14.884,17.131,27.622c-.612.258-1.22.527-1.829.8a45.824,45.824,0,0,1-4.941,1.959C7.478,31.265,6.4,32.639,6.4,35.445q0,4.459,0,8.916v5.167H5.545c-.279,0-.516,0-.753,0A4.5,4.5,0,0,0,.007,54.384C0,56.466,0,58.549,0,60.632Q0,62.7,0,64.768a4.657,4.657,0,0,0,1.169,3.321,4.412,4.412,0,0,0,3.415,1.463H4.63c.81-.005,1.62-.007,2.438-.007l1.833,0h2.3v.375c0,.277-.005.542-.01.8a14.917,14.917,0,0,0,.023,1.55c.1,1.1-.542,1.4-1.245,1.564a10.6,10.6,0,0,0-7.5,6.326,10.539,10.539,0,0,0,.732,9.73c2.184,3.534,5.423,5.253,9.9,5.253h.023q16.469-.024,32.938-.012h15.2c.425,0,.851-.021,1.276-.043A10.782,10.782,0,0,0,65.465,74.11c-.186-.064-.394-.114-.6-.165a1.722,1.722,0,0,1-1.713-2.293,4.774,4.774,0,0,0,.022-.775,1.281,1.281,0,0,1,.249-1.013,1.413,1.413,0,0,1,1.115-.329c2.256.048,3.975.046,5.572-.007a4.266,4.266,0,0,0,4.249-4.306c.016-.553,0-1.107-.008-1.662a23.457,23.457,0,0,1,.041-2.553A25.14,25.14,0,0,0,71.715,46.94a2.69,2.69,0,0,1-.058-1.963q2.174-6.027,4.369-12.048c2.306-6.337,4.689-12.89,6.987-19.351a3.142,3.142,0,0,1,2.752-2.187l.449-.09V54.266l-.674.033c-.172.01-.322.018-.473.021-1.47.023-1.568.09-2.106,1.424-.13.323-.249.654-.368.985a13.42,13.42,0,0,1-.943,2.194,9.082,9.082,0,0,0-.225,9.348l.054.146a1.388,1.388,0,0,0,1.546,1.137c.638-.018,1.276-.015,1.949-.01l1.324,0-.006,1.213c0,.6-.011,1.169.016,1.734a1.329,1.329,0,0,1-.946,1.465,5.9,5.9,0,0,0-3.634,7.087,6,6,0,0,0,11.81-1.456c-.024-.782-.374-1.195-1.072-1.263a1.163,1.163,0,0,0-1.334,1.088c-.022.117-.033.235-.045.354s-.022.22-.039.328a3.546,3.546,0,0,1-5.592,2.323,3.451,3.451,0,0,1-1.372-3.728,3.5,3.5,0,0,1,2.937-2.683c1.656-.285,1.72-.361,1.723-2.032l.006-.882c.006-.766.013-1.532-.016-2.3a1.274,1.274,0,0,1,.291-1,1.154,1.154,0,0,1,.946-.262c.446.027.895.02,1.343.014.278,0,.557-.007.834,0a1.3,1.3,0,0,0,1.414-1.032c.156-.486.324-.97.491-1.453.305-.88.62-1.789.852-2.695M10.883,32.819h0A1.988,1.988,0,0,1,12.2,36.205a1.947,1.947,0,0,1-1.362.522h-.056a1.962,1.962,0,0,1-1.392-.6,1.927,1.927,0,0,1-.518-1.394,2,2,0,0,1,2.012-1.913M64.888,76.513A8.33,8.33,0,0,1,62.6,92.639c-.407.028-.815.048-1.222.048H47.382q-17.17,0-34.346.011h-.017a8.519,8.519,0,0,1-6.582-2.542,8.082,8.082,0,0,1-1.837-8.7,7.946,7.946,0,0,1,6.91-5.425,14.743,14.743,0,0,1,1.84-.089q12.27,0,24.54,0H48.407c1.858,0,2.022-.534,2.037-1.18a1.073,1.073,0,0,0-.254-.816,2.575,2.575,0,0,0-1.808-.448H13.775l-.04-.331c-.212-1.785-.308-2.6.15-3.116.442-.5,1.221-.5,2.774-.5H60.65v3.877l-.644.035c-.238.014-.489.03-.74.032-.413,0-.826,0-1.238,0-.8-.006-1.631-.01-2.439.032a1.108,1.108,0,0,0-1.164,1.24,1.087,1.087,0,0,0,1.233,1.161c.789.015,1.579.008,2.369,0,1.122-.008,2.287-.015,3.432.035a12.044,12.044,0,0,1,3.429.549m7.058-18.232c-.1,1.408-.072,2.855-.049,4.255.011.67.022,1.339.021,2.008,0,1.983-.574,2.557-2.54,2.558H5.279c-2.3,0-2.828-.524-2.829-2.807q0-4.792,0-9.583c0-2.123.612-2.738,2.724-2.739H37.124c1.79,0,1.832-.033,2.275-1.8l2.955-11.793c.508-2.028.96-2.384,3.024-2.384L49.93,36c4.169.007,8.478.014,12.716-.035a2.543,2.543,0,0,1,2.681,1.781l1.039,2.621c1.293,3.268,2.631,6.649,4.047,9.928a16.708,16.708,0,0,1,1.533,7.986m-.317-20.566c-.26.876-.583,1.738-.924,2.651-.136.361-.275.734-.417,1.123l-.3.813-.574-1.125c-.111-.212-.2-.379-.271-.552-.2-.491-.4-.984-.6-1.477-.386-.969-.786-1.971-1.234-2.924a4.259,4.259,0,0,0-4.346-2.684c-1.177.032-2.355.023-3.617.017-.583,0-1.184-.008-1.812-.008h-.831l6.217-7.038.477.45a4.6,4.6,0,0,1,.4.4l1.1,1.278c2.116,2.458,4.3,5,6.425,7.529a1.869,1.869,0,0,1,.3,1.549m1.3-3.482-6.673-7.789h9.488ZM65.217,23.919l5.929-6.733,4.478,6.733Zm12.127-1.841-3.451-5.173h5.334ZM80.911,12.2c-.052.152-.1.3-.146.452a8.05,8.05,0,0,1-.411,1.108,1.173,1.173,0,0,1-.926.593c-1.176.023-2.349.023-3.591.019l-1.936,0,.593-.889c.118-.175.209-.31.295-.447a1.238,1.238,0,0,0-.212-1.666,1.208,1.208,0,0,0-1.667.145c-.212.2-.405.427-.6.65l-3.3,3.744q-7.428,8.412-14.84,16.838a2.219,2.219,0,0,1-1.824.815c-1.9-.025-3.792-.02-5.689-.015l-1.595,0c-2.7,0-4.051.982-4.809,3.488-.532,1.762-.979,3.586-1.412,5.349-.184.752-.368,1.5-.56,2.254q-.15.594-.294,1.189c-.224.915-.455,1.861-.733,2.783a1.418,1.418,0,0,1-1.139.888c-2.912.02-5.825.023-8.738.025q-3.37,0-6.741.015h-.01a1.159,1.159,0,0,1-1.2-1.013q-.906-3.057-1.83-6.107c-.461-1.52-1.343-1.268-1.633-1.188a1.066,1.066,0,0,0-.679.5,1.842,1.842,0,0,0-.024,1.386q.422,1.442.853,2.881l.648,2.181c.051.173.089.35.13.549l.166.748H8.91V38.892l.457.1c2.327.52,4.013-.077,5.154-1.83,1.065-1.637.977-3.336-.271-5.2L14,31.592,76.676,5.127l.018.546a6.358,6.358,0,0,0,4.016,6.066l.31.141Zm1.841-2.628h0a3.56,3.56,0,0,1-2.5-6.094A3.615,3.615,0,0,1,82.8,2.448a3.535,3.535,0,0,1,3.487,3.6,3.509,3.509,0,0,1-3.538,3.529m9.309,55.662-.046.14c-.09.275-.153.5-.205.679-.273.952-.431,1.065-1.442,1.046-.187,0-.418,0-.7,0-.48.009-.962.007-1.443,0l-.656,0c-.275,0-.551,0-.827.008s-.554.009-.835.009c-.45,0-.9-.011-1.356-.049a1.711,1.711,0,0,1-1.189-.844,4.968,4.968,0,0,1,.02-5.047,15,15,0,0,0,.858-1.99c.194-.515.394-1.048.634-1.558A1.667,1.667,0,0,1,86.1,56.8a18.2,18.2,0,0,1,2.945,0,1.556,1.556,0,0,1,1.159.807l.187.431a51.327,51.327,0,0,1,1.957,4.961,3.855,3.855,0,0,1-.288,2.241"/>
      <path id="Path_11313" data-name="Path 11313" d="M52.739,53.654c-.013.976-.026,1.9.038,2.805a4.44,4.44,0,0,0,.55,1.873c.484.823,1.034,1.633,1.567,2.415.355.521.71,1.044,1.051,1.575a1.7,1.7,0,0,0,1.491.839q2.131-.01,4.264,0c1.6,0,3.213,0,4.82-.008,1.043-.007,1.435-.406,1.446-1.476.022-2.1.019-4.023-.007-5.88a3.084,3.084,0,0,0-.239-1.112q-1.2-2.853-2.4-5.7Q63.652,45.036,62,41.088a1.62,1.62,0,0,0-1.688-1.155H60.3c-2.329.011-4.656.009-6.988.008q-2.646,0-5.291,0c-1.142,0-1.434.235-1.74,1.381q-1.116,4.188-2.225,8.377c-.248.935-.252,1.516-.015,1.824s.776.445,1.71.446h7v.375c0,.449-.006.883-.012,1.307m2.417-.557c.13-2.34.1-4.657.072-7.11-.013-1.059-.026-2.128-.026-3.213V42.4l1.319,0c.972,0,1.92-.007,2.866.028.508.02.823.75.827.757q.665,1.564,1.346,3.123c1.287,2.968,2.619,6.037,3.736,9.13a7.919,7.919,0,0,1,.184,3.309c-.041.521-.084,1.061-.084,1.589v.375H62.107c-1.233,0-2.462,0-3.691-.019a1.241,1.241,0,0,1-.714-.33l-.135-.1a.68.68,0,0,1-.218-.274A8.961,8.961,0,0,1,55.156,53.1m-2.448-3.65H46.65l.456-1.716c.42-1.582.835-3.147,1.273-4.707a1.017,1.017,0,0,1,.858-.617c.736-.023,1.472-.023,2.253-.018l1.218,0Z" fill="#ffca0a"/>
      <path id="Path_11314" data-name="Path 11314" d="M21.623,58.825c.009-.583.018-1.186-.019-1.769a1.137,1.137,0,0,0-1.1-1.137H20.44a1.1,1.1,0,0,0-1.194,1.035c-.068,1.766-.064,3.531.012,5.246a1.006,1.006,0,0,0,1.2.94A1.015,1.015,0,0,0,21.6,62.1c.032-.567.024-1.135.016-1.7,0-.255-.007-.511-.007-.766l.008-.375c0-.142,0-.283,0-.425" fill="#ffca0a"/>
      <path id="Path_11315" data-name="Path 11315" d="M15.215,57.111a1.183,1.183,0,0,0-1.152-1.2H14.02a1.149,1.149,0,0,0-1.179,1.094c-.066,1.708-.066,3.409,0,5.055a1.084,1.084,0,0,0,1.224,1.052,1.074,1.074,0,0,0,1.15-1.154c.03-.54.022-1.083.015-1.625,0-.25-.006-.5-.006-.749s0-.514.007-.771c.007-.569.015-1.138-.016-1.7" fill="#ffca0a"/>
      <path id="Path_11316" data-name="Path 11316" d="M8.225,57.111a1.183,1.183,0,0,0-1.152-1.2H7.03a1.149,1.149,0,0,0-1.179,1.094c-.066,1.708-.066,3.409,0,5.055a1.084,1.084,0,0,0,1.224,1.052,1.074,1.074,0,0,0,1.15-1.154c.03-.54.022-1.083.015-1.625,0-.25-.006-.5-.006-.749s0-.514.007-.771c.007-.569.015-1.138-.016-1.7" fill="#ffca0a"/>
      <path id="Path_11317" data-name="Path 11317" d="M30.014,79.908h-.025a4.433,4.433,0,0,0-4.4,4.386,4.428,4.428,0,0,0,4.414,4.424h.024a4.405,4.405,0,0,0-.017-8.81m.016,6.36h-.021a1.915,1.915,0,0,1-1.961-1.927,1.936,1.936,0,0,1,1.941-1.978h.021A1.913,1.913,0,0,1,31.959,84.3a1.907,1.907,0,0,1-1.929,1.97" fill="#ffca0a"/>
      <path id="Path_11318" data-name="Path 11318" d="M44.435,79.908h-.066a4.453,4.453,0,0,0-4.4,4.411,4.42,4.42,0,0,0,4.373,4.4h.039a4.389,4.389,0,0,0,4.411-4.4,4.438,4.438,0,0,0-4.359-4.412m-.045,6.358h-.021a1.957,1.957,0,0,1-1.358-3.351,1.984,1.984,0,0,1,1.4-.555,1.953,1.953,0,0,1-.023,3.906" fill="#ffca0a"/>
      <path id="Path_11319" data-name="Path 11319" d="M58.738,88.717h.037a4.353,4.353,0,0,0,4.4-4.313,4.4,4.4,0,0,0-4.359-4.5h-.043a4.46,4.46,0,0,0-4.415,4.418,4.429,4.429,0,0,0,4.384,4.391m.092-6.354a1.908,1.908,0,0,1,1.889,2.01,1.885,1.885,0,0,1-1.938,1.892h-.06a1.951,1.951,0,1,1,.109-3.9" fill="#ffca0a"/>
      <path id="Path_11320" data-name="Path 11320" d="M15.632,79.907H15.6a4.421,4.421,0,0,0-4.39,4.409,4.365,4.365,0,0,0,1.315,3.128,4.471,4.471,0,0,0,3.163,1.272,4.354,4.354,0,0,0,4.325-4.442,4.4,4.4,0,0,0-4.386-4.367m1.379,5.805a1.936,1.936,0,0,1-1.384.555h-.005a1.943,1.943,0,0,1-1.971-1.938,1.967,1.967,0,0,1,1.959-1.968h.014A1.932,1.932,0,0,1,17,82.907a2.039,2.039,0,0,1,.014,2.805" fill="#ffca0a"/>
    </g>
  </g>
</svg>
