<svg xmlns="http://www.w3.org/2000/svg" xmlns:xlink="http://www.w3.org/1999/xlink" width="99.741" height="99.79" viewBox="0 0 99.741 99.79">
  <defs>
    <clipPath id="clip-path">
      <rect id="Rectangle_3008" data-name="Rectangle 3008" width="99.741" height="99.79" transform="translate(0 0)" fill="none"/>
    </clipPath>
  </defs>
  <g id="Group_4443" data-name="Group 4443" transform="translate(0 0)">
    <g id="Group_4443-2" data-name="Group 4443" clip-path="url(#clip-path)">
      <path id="Path_11255" data-name="Path 11255" d="M54.957,62.166c0,.447.125,1.489,1.178,1.5a1.211,1.211,0,0,0,.8-.3,1.613,1.613,0,0,0,.4-1.172q.02-4.413,0-8.828c0-.945-.436-1.491-1.187-1.5H56.14a1.049,1.049,0,0,0-.84.356,1.709,1.709,0,0,0-.343,1.116c-.008,1.029-.007,2.057-.005,3.087l0,1.325v1.309c0,1.036,0,2.07,0,3.1" fill="#ffca0a"/>
      <path id="Path_11256" data-name="Path 11256" d="M64,51.868h-.036A1.186,1.186,0,0,0,62.813,53.2q-.03,2.986,0,5.978a1.453,1.453,0,0,0,.389,1.05,1.157,1.157,0,0,0,.822.3,1.209,1.209,0,0,0,1.165-1.336c.018-.669.013-1.337.009-2.006l0-3.871c-.04-.911-.506-1.444-1.193-1.444" fill="#ffca0a"/>
      <path id="Path_11257" data-name="Path 11257" d="M86.365,62.287c.01.852.463,1.379,1.183,1.379h.01c.727-.006,1.181-.542,1.186-1.4q.024-4.51,0-9.023a1.465,1.465,0,0,0-.385-1.063,1.115,1.115,0,0,0-.806-.311H87.54c-.726.006-1.166.529-1.176,1.4-.012,1.049-.009,2.1-.006,3.145l0,1.365,0,1.346c0,1.055-.006,2.109.007,3.163" fill="#ffca0a"/>
      <path id="Path_11258" data-name="Path 11258" d="M80.892,53.21a1.468,1.468,0,0,0-.414-1.049,1.1,1.1,0,0,0-.771-.293h-.048a1.2,1.2,0,0,0-1.144,1.343q-.028,2.988,0,5.977a1.191,1.191,0,0,0,1.149,1.336,1.032,1.032,0,0,0,.815-.294,1.476,1.476,0,0,0,.412-1.055c.018-.68.014-1.36.01-2.04l0-.894,0-.928c0-.7.009-1.4-.01-2.1" fill="#ffca0a"/>
      <path id="Path_11259" data-name="Path 11259" d="M98.716,91.145a4.73,4.73,0,0,0-.744-.028l-.278,0H90.656l.422-1.006c.119-.288.224-.541.335-.791l2.84-6.383q2.6-5.85,5.2-11.7a1.844,1.844,0,0,0,.222-1.393c-.133-.314-.5-.574-1.168-.818l-.577-.217a15.71,15.71,0,0,0-1.7-.576,1.45,1.45,0,0,1-1.223-1.656c.029-4.581.025-9.162.022-13.743l0-3.819c0-1.568-.3-1.864-1.9-1.865H50.539c-1.586,0-1.865.283-1.865,1.893l0,3.785c0,4.625-.005,9.25.018,13.875a1.437,1.437,0,0,1-1.161,1.616,15.768,15.768,0,0,0-1.505.51c-.227.086-.455.172-.684.253-.763.271-1.165.527-1.305.832s-.069.793.234,1.569l7.06,18.064c.087.224.163.449.239.679l.28.809H41.642l0-1.287c0-.652.006-1.279-.006-1.906-.021-1.01-.443-1.425-1.457-1.432-1.462-.011-2.926-.008-4.39-.006l-4.85,0-.228-.4-.034-.178-.011-1.055c0-.53-.01-1.058-.02-1.586-.021-1.072-.428-1.476-1.5-1.489-.64-.009-1.282-.007-1.916,0l-1.236,0V21.342h38.8v-.021h8.29v-.045l2.7,0c1.751,0,3.472,0,5.195,0,1.067-.006,1.485-.424,1.49-1.491q.021-4.513.005-9.026a1.155,1.155,0,0,0-1.115-1.3Q71.4,7.79,61.443,6.13L53.336,4.778Q42.308,2.939,31.282,1.106C30.642,1,30,.878,29.362.756a32.235,32.235,0,0,0-4.8-.666C20.646-.048,16.658,0,12.8.048L10.84.072A2.124,2.124,0,0,0,9.558.61C8.235,1.865,6.931,3.19,5.669,4.47l-1.1,1.118Q2.969,7.2,1.378,8.824L0,10.224V20.551a1.913,1.913,0,0,0,1.793.741c1.695-.035,3.391-.029,5.106-.02l2.463.005V81.7l-1.27,0c-.652,0-1.3,0-1.939,0-1.022.017-1.428.419-1.444,1.435-.011.619-.008,1.238-.006,1.907l0,1.366H4.331c-.265,0-.527,0-.788.008-.58.009-1.18.019-1.768-.021A1.836,1.836,0,0,0,0,87.131v.943a2.061,2.061,0,0,0,1.884.741H1.9q14.187-.03,28.375-.018h8.98l.006,3.571c.007,1.815.014,3.692-.024,5.539a2.028,2.028,0,0,0,.749,1.882h.933a2.057,2.057,0,0,0,.743-1.889c-.046-.936-.035-1.888-.025-2.809,0-.4.009-.8.009-1.208v-.375l56.352,0a3.289,3.289,0,0,0,.726-.032,1.14,1.14,0,0,0,1.007-1.154,1.16,1.16,0,0,0-1.011-1.181M26,2.656,61.772,8.615,61.7,9.3l-.351.115H26ZM11.87,2.485H22.007l-1.794,2c-1.407,1.566-2.761,3.072-4.127,4.565a1.41,1.41,0,0,1-.939.4c-.434.015-.87.019-1.311.019l-.778,0-1.188,0ZM23.5,4.405V9.411H19ZM9.377,4.481V9.406H4.4ZM2.426,11.91h77.6v6.9H2.426Zm9.451,58.6L23.033,81.641H11.877Zm-.039-6.474v-23.3l11,11.069Zm.534,2.984,11.1-12.343V78.118Zm.1-29.948L23.5,24.794V48.123Zm-.6-2.912V21.317H23.4ZM28.214,86.34H7.138v-2.2H28.214ZM73.048,49.618H92.57V66.926l-15.946-5.6c-.9-.311-1.827-.632-2.725-1a1.48,1.48,0,0,1-.825-1.136c-.033-2.388-.03-4.778-.027-7.2ZM51.107,49.6h19.55l0,5.035c0,1.485.007,2.97-.025,4.453A1.448,1.448,0,0,1,69.9,60.3q-8.211,2.974-16.449,5.883l-1.514.538a.71.71,0,0,1-.227.035c-.044,0-.084,0-.122-.006l-.481,0ZM86.871,91.138h-.005c-9.425-.025-19.631-.027-31.2-.006h-.014a1.442,1.442,0,0,1-1.567-1.021q-2.615-6.789-5.271-13.559l-1.689-4.329c-.054-.138-.1-.277-.158-.443l-.234-.667,15.788-5.6q4.233-1.509,8.47-3a2.57,2.57,0,0,1,1.553-.069q10.143,3.537,20.272,7.125L96.1,70.724c.086.03.171.067.283.117l.526.228L94.264,77.03q-2.9,6.5-5.77,13.011a1.565,1.565,0,0,1-1.623,1.1"/>
      <path id="Path_11260" data-name="Path 11260" d="M64.792,21.342h5.865v.375c0,.52.011,1.033.023,1.543a28.852,28.852,0,0,1-.051,3.348c-.333,3.64.791,6.1,3.537,7.744a2.461,2.461,0,0,1,1.173,1.637,2.778,2.778,0,0,1-.518,2.188,2.708,2.708,0,0,1-3.912.5c-.534-.378-1.056-.774-1.579-1.169-.442-.336-.885-.672-1.336-1a1.172,1.172,0,0,0-1.747.117,1.142,1.142,0,0,0-.263.9,1.469,1.469,0,0,0,.592.893c.969.762,2.019,1.571,3.124,2.334a5.117,5.117,0,0,0,6.164-8.162c-.216-.181-.447-.345-.677-.509a7.81,7.81,0,0,1-1.048-.842,2.9,2.9,0,0,1-1.014-1.691c-.066-1.94-.058-3.839-.049-5.851l.006-2.378h-8.29Z" fill="#ffca0a"/>
    </g>
  </g>
</svg>
