<svg xmlns="http://www.w3.org/2000/svg" xmlns:xlink="http://www.w3.org/1999/xlink" width="124.769" height="94.439" viewBox="0 0 124.769 94.439">
  <defs>
    <clipPath id="clip-path">
      <rect id="Rectangle_3016" data-name="Rectangle 3016" width="124.769" height="94.439" transform="translate(0 0)" fill="none"/>
    </clipPath>
  </defs>
  <g id="Group_4450" data-name="Group 4450" transform="translate(0 0)">
    <g id="Group_4449" data-name="Group 4449" clip-path="url(#clip-path)">
      <path id="Path_11298" data-name="Path 11298" d="M2,76.111H122.319l.322,0a3.94,3.94,0,0,0,.732-.025,1.475,1.475,0,0,0,1.386-1.5,1.456,1.456,0,0,0-1.393-1.514,15.977,15.977,0,0,0-1.675-.03c-.229,0-.431.01-.69.006H109.576l.558-1.216c.149-.33.277-.612.416-.889l4.812-9.634q4.5-9.008,8.992-18.016a2.139,2.139,0,0,0,.212-2,2.115,2.115,0,0,0-1.86-.708q-2.519-.014-5.034-.005l-5.068,0V23.648c0-3.355,0-3.355-3.382-3.355h-8.79V13.881q0-5.856,0-11.714C100.428.449,99.983,0,98.27,0Q84.7,0,71.136,0c-1.717,0-2.161.444-2.163,2.159q-.006,5.9,0,11.805v6.326H64.327c-3.156,0-6.247,0-9.339,0-1.824,0-2.244.414-2.246,2.2l0,18.027H43.626V23.848c0-3.555,0-3.555-3.563-3.555H33.481v-2.28c0-1.281,0-2.5,0-3.722-.007-1.631-.476-2.105-2.089-2.113-1.222-.006-2.446-.005-3.7,0H25.366l0-4.33c0-1.969,0-3.938-.006-5.905,0-.575-.154-1.912-1.506-1.931-.93.006-1.524.69-1.544,1.882-.009.5-.007,1-.005,1.534l0,1.56-1.745-.709a1.528,1.528,0,1,0-1.293,2.757c.286.156.58.3.874.44.425.2.865.418,1.284.672a1.788,1.788,0,0,1,.844,1.184,11.684,11.684,0,0,1,.042,1.658c0,.215-.009.43-.009.646v.475l-.821.044c-.186.011-.326.019-.466.021-2.614.041-2.769.2-2.769,2.833v5.285H16.624c-.794,0-1.521,0-2.248,0-1.8.007-2.208.426-2.21,2.241q0,5.639,0,11.275v6.775l-3.377,0c-2.287,0-4.521,0-6.756.006a2.112,2.112,0,0,0-1.718.573A2.139,2.139,0,0,0,.18,42.988q1.641,6.616,3.3,13.231L7.661,73.053l-2.278,0c-1.18,0-2.309,0-3.441,0-.713.006-1.915.209-1.939,1.5a1.357,1.357,0,0,0,.357,1.01A2.288,2.288,0,0,0,2,76.111M109.49,40.5H84.28V23.419h25.21ZM72.119,3.115H97.306V20.192H72.119ZM55.825,23.448H81.057V40.51H55.825Zm-34.41-8.187h8.911v4.947H21.415Zm-6.09,8.178H40.5v2.942h-5.31q-4.392,0-8.783,0c-1.573,0-2.055.471-2.063,2.006q-.02,3.547,0,7.1c.007,1.6.484,2.064,2.132,2.067,3.147,0,6.3,0,9.495,0H40.52v2.958h-25.2ZM40.51,34.433H27.5V29.527H40.51ZM3.5,43.718H120.639l-.476,1.087c-.112.264-.214.5-.329.729l-3.239,6.48q-4.95,9.9-9.875,19.8a2.036,2.036,0,0,1-2.1,1.255h-.007q-39.99-.028-79.978-.018H10.833Z"/>
      <path id="Path_11299" data-name="Path 11299" d="M122.918,83.2a10.9,10.9,0,0,1-5.151-1.51l-.117-.065a20.35,20.35,0,0,0-4.227-1.969,13.953,13.953,0,0,0-11.7,1.954c-3.519,2.2-7.244,2.214-11.073.043a19.9,19.9,0,0,0-4.224-1.984,13.724,13.724,0,0,0-11.476,1.8,10.409,10.409,0,0,1-11.641.021,16.822,16.822,0,0,0-3.293-1.625A13.714,13.714,0,0,0,47.841,81.5a10.206,10.206,0,0,1-11.413.051c-5.294-3.265-10.431-3.27-15.7-.016a11.227,11.227,0,0,1-3.273,1.378A9.923,9.923,0,0,1,9.64,81.708C6.918,80,4.694,79.172,2.844,79.171H2.831C.488,79.1.081,79.787.008,80.527a1.526,1.526,0,0,0,.379,1.182,1.409,1.409,0,0,0,1.06.456H1.5A12.733,12.733,0,0,1,8,84.275a12.95,12.95,0,0,0,14.138-.038,12.318,12.318,0,0,1,6.457-2,12.005,12.005,0,0,1,6.31,1.94,12.973,12.973,0,0,0,14.457-.034,11.025,11.025,0,0,1,12.43-.05,13.275,13.275,0,0,0,14.8-.04,10.718,10.718,0,0,1,12.088-.038c5.021,3.081,9.979,3.075,15.155-.03a12.186,12.186,0,0,1,3.355-1.486,10.036,10.036,0,0,1,8.056,1.244,13.8,13.8,0,0,0,7.558,2.5h0c.578,0,1.92-.145,1.964-1.473a1.378,1.378,0,0,0-.358-1.032,2.058,2.058,0,0,0-1.49-.543" fill="#ffca0a"/>
      <path id="Path_11300" data-name="Path 11300" d="M49.568,92.174a10.689,10.689,0,0,1,12.089-.026,13.458,13.458,0,0,0,15.024-.019,10.736,10.736,0,0,1,11.974,0c5.026,3.084,9.984,3.082,15.159,0a12.711,12.711,0,0,1,3.474-1.514,10,10,0,0,1,8.046,1.309,13.56,13.56,0,0,0,7.445,2.45c.689-.01,1.931-.182,1.988-1.454a1.393,1.393,0,0,0-.354-1.043,2.042,2.042,0,0,0-1.47-.548,10.9,10.9,0,0,1-5.155-1.5l-.242-.136a19.439,19.439,0,0,0-4.1-1.9A12.967,12.967,0,0,0,102.54,89.3a10.981,10.981,0,0,1-12.66.029,13.154,13.154,0,0,0-3.543-1.577,13.964,13.964,0,0,0-11.589,1.936c-3.554,2.23-7.32,2.253-11.187.059a19.739,19.739,0,0,0-4.227-1.973,13.761,13.761,0,0,0-11.584,1.89c-3.6,2.267-7.406,2.283-11.3.051a18.689,18.689,0,0,0-4.107-1.931,13.01,13.01,0,0,0-10.6,1.312,12.64,12.64,0,0,1-6.376,2.23,11.233,11.233,0,0,1-6.375-1.868,13,13,0,0,0-7.145-2.2H1.741A1.549,1.549,0,0,0,0,88.72a1.485,1.485,0,0,0,.4,1.111,1.572,1.572,0,0,0,1.157.461H1.57a11.742,11.742,0,0,1,6.193,1.967c4.886,2.921,9.7,2.907,14.716-.045a13.81,13.81,0,0,1,3.574-1.595,9.973,9.973,0,0,1,8.056,1.254,13.526,13.526,0,0,0,7.761,2.486H41.9a13.3,13.3,0,0,0,7.666-2.185" fill="#ffca0a"/>
      <path id="Path_11301" data-name="Path 11301" d="M10.147,50.252c.02,1.3,1.219,1.5,1.932,1.505,1.757.009,3.518.007,5.278.005l2.325,0,2.018,0c1.9,0,3.809,0,5.714,0a2.258,2.258,0,0,0,1.632-.535,1.365,1.365,0,0,0,.368-1.015c-.022-1.352-1.359-1.5-1.932-1.5Q23.617,48.7,19.75,48.7t-7.733.009a2.046,2.046,0,0,0-1.491.51,1.383,1.383,0,0,0-.379,1.035" fill="#ffca0a"/>
      <path id="Path_11302" data-name="Path 11302" d="M35.883,48.708c-.457-.022-.916-.015-1.375-.006l-.111,0c-.715.011-1.915.222-1.934,1.506-.018,1.358,1.311,1.536,1.883,1.55.144,0,.291,0,.436,0l.184,0,.3,0c.186,0,.373,0,.561,0,1.034-.05,1.685-.627,1.7-1.507a1.539,1.539,0,0,0-1.646-1.542" fill="#ffca0a"/>
      <path id="Path_11303" data-name="Path 11303" d="M77.1,15.6a1.518,1.518,0,0,0,1.516,1.657h.005A1.521,1.521,0,0,0,80.131,15.6c.033-2.6.033-5.245,0-7.85A1.513,1.513,0,0,0,78.617,6.1h-.006A1.526,1.526,0,0,0,77.1,7.764c-.024.876-.019,1.752-.013,2.628l0,1.162,0,1.229c-.006.938-.012,1.877.014,2.814"/>
      <path id="Path_11304" data-name="Path 11304" d="M86.226,7.976A2.09,2.09,0,0,0,85.7,6.469a1.366,1.366,0,0,0-.989-.37h-.031c-.93.015-1.491.69-1.5,1.806-.022,2.757-.021,5.242,0,7.6a1.91,1.91,0,0,0,.5,1.365,1.486,1.486,0,0,0,1.041.386c.921-.014,1.483-.692,1.5-1.813.016-.849.012-1.7.008-2.544l0-1.124,0-1.16c0-.879.006-1.758-.007-2.637"/>
      <path id="Path_11305" data-name="Path 11305" d="M92.306,7.759A1.523,1.523,0,0,0,90.787,6.1,1.5,1.5,0,0,0,89.272,7.75c-.032,2.6-.032,5.245,0,7.849a1.523,1.523,0,1,0,3.034-.008c.025-.874.02-1.749.013-2.624l0-1.164,0-1.242c.007-.935.012-1.868-.013-2.8"/>
      <path id="Path_11306" data-name="Path 11306" d="M63.9,28.116a1.9,1.9,0,0,0-.522-1.352,1.4,1.4,0,0,0-.989-.375h-.053A1.527,1.527,0,0,0,60.865,28.1c-.026,2.611-.026,5.209,0,7.725a1.852,1.852,0,0,0,.507,1.339,1.417,1.417,0,0,0,1.054.383A1.549,1.549,0,0,0,63.9,35.827c.021-.89.016-1.779.011-2.67l0-1.249,0-1.158c.005-.878.01-1.756-.011-2.634" fill="#ffca0a"/>
      <path id="Path_11307" data-name="Path 11307" d="M69.99,28.053a1.526,1.526,0,0,0-1.519-1.662h0a1.5,1.5,0,0,0-1.514,1.649c-.031,2.552-.031,5.193,0,7.85a1.521,1.521,0,0,0,1.514,1.656h0a1.522,1.522,0,0,0,1.519-1.66c.026-.908.02-1.816.014-2.726l0-1.191,0-1.2c.007-.9.012-1.81-.012-2.713" fill="#ffca0a"/>
      <path id="Path_11308" data-name="Path 11308" d="M73.035,35.787c.021,1.1.6,1.741,1.54,1.759a1.523,1.523,0,0,0,1.5-1.681c.032-2.822.032-5.39,0-7.848a1.715,1.715,0,0,0-.453-1.206,1.352,1.352,0,0,0-1.083-.42,1.522,1.522,0,0,0-1.5,1.684c-.023.864-.018,1.728-.013,2.592l0,1.2,0,1.159c0,.921-.01,1.841.009,2.762" fill="#ffca0a"/>
      <path id="Path_11309" data-name="Path 11309" d="M90.8,26.391h-.038a1.528,1.528,0,0,0-1.488,1.69c-.029,2.475-.029,5,0,7.723a1.885,1.885,0,0,0,.5,1.356,1.49,1.49,0,0,0,1.045.386,1.55,1.55,0,0,0,1.492-1.7c.022-.9.017-1.8.012-2.695l0-4.9.5-.127-.5.021c-.044-1.086-.626-1.755-1.52-1.755"/>
      <path id="Path_11310" data-name="Path 11310" d="M98.392,28.049a1.522,1.522,0,0,0-1.518-1.658h0a1.5,1.5,0,0,0-1.513,1.654c-.032,2.6-.032,5.245,0,7.85a1.517,1.517,0,0,0,1.515,1.651h0a1.527,1.527,0,0,0,1.517-1.665c.025-.9.02-1.809.013-2.713l0-1.2.006-1.207c.006-.9.011-1.808-.014-2.709"/>
      <path id="Path_11311" data-name="Path 11311" d="M101.434,35.8c.045,1.1.676,1.794,1.562,1.747a1.538,1.538,0,0,0,1.483-1.7c.028-2.5.029-5.1,0-7.724a1.864,1.864,0,0,0-.5-1.344,1.4,1.4,0,0,0-1.054-.385,1.538,1.538,0,0,0-1.483,1.706c-.021.867-.017,1.734-.012,2.6l0,5-.5.127Z"/>
    </g>
  </g>
</svg>
