<svg xmlns="http://www.w3.org/2000/svg" xmlns:xlink="http://www.w3.org/1999/xlink" width="123.225" height="76.221" viewBox="0 0 123.225 76.221">
  <defs>
    <clipPath id="clip-path">
      <rect id="Rectangle_3014" data-name="Rectangle 3014" width="123.225" height="76.221" fill="none"/>
    </clipPath>
  </defs>
  <g id="Group_4446" data-name="Group 4446" transform="translate(0 0)">
    <g id="Group_4446-2" data-name="Group 4446" transform="translate(0 0)" clip-path="url(#clip-path)">
      <path id="Path_11277" data-name="Path 11277" d="M112.96,65.732h2.354c1.265,0,2.55,0,3.834,0a3.723,3.723,0,0,0,3.095-1.488A8.449,8.449,0,0,0,122.99,63q.117-.221.235-.441V49.3a5.534,5.534,0,0,0-3.416-3.416,13.39,13.39,0,0,1-1.426-.712,8.942,8.942,0,0,0-1.468-.7c-3.164-1.043-5.141-3.219-6.222-6.849-.893-3-2.086-5.99-3.24-8.882-.36-.9-.721-1.806-1.074-2.712-.7-1.8-1.44-3.163-2.77-3.972a3.535,3.535,0,0,1-1.677-2.355,11.125,11.125,0,0,0-6.942-8.216,19.023,19.023,0,0,0-5.4-.975c-1.577-.115-3.162-.091-4.844-.063-.743.012-1.5.024-2.259.024H81.416V7.108c0-1.647,0-3.238,0-4.83C81.41.363,81.04,0,79.085,0Q40.7,0,2.327,0C.4,0,.007.388.006,2.3V42.458c0,2.07.345,2.408,2.461,2.408H12.614l-.328,1.329c-.113.463-.228.912-.341,1.352-.256,1-.5,1.939-.684,2.882a2.07,2.07,0,0,1-2.333,1.8c-2.35-.038-4.758-.026-6.829-.009-1.578.012-2.086.513-2.092,2.066q-.014,3.485,0,6.969a4.138,4.138,0,0,0,4.427,4.481c1.169.013,2.339.01,3.5.007l2.438,0,.195.826a12.123,12.123,0,0,0,9.151,9.3A12.254,12.254,0,0,0,32.128,71.4l.878-1.076.977,1.346a2.7,2.7,0,0,0,.214.288c3.28,3.625,7.24,4.944,11.767,3.924a11.442,11.442,0,0,0,8.894-8.475,2.17,2.17,0,0,1,2.432-1.679q9.557.012,19.113.009l10.513,0c.275,0,.55.023.81.046l1,.074.226.684c2.057,6.209,6.022,9.549,11.467,9.658,5.907.127,9.686-2.9,12.275-9.778ZM3.133,3.139h75.15V41.71H3.133Zm75.178,41.8V52.13H70.648l-1.83-7.189Zm-68.18,17.7H3.122v-7.2H13.3Zm12.311,10.5h-.029a8.789,8.789,0,0,1-6.245-2.609,8.881,8.881,0,0,1,6.2-15.2h.045a8.908,8.908,0,0,1,6.326,2.594,8.773,8.773,0,0,1,2.605,6.254,8.95,8.95,0,0,1-8.9,8.957M14,52.153l1.789-7.239H65.65l1.794,7.239Zm35.581,18.4a8.807,8.807,0,0,1-6.26,2.587h-.047a8.988,8.988,0,0,1-8.865-9.013,8.947,8.947,0,0,1,8.9-8.793h0a8.9,8.9,0,0,1,6.265,15.219m28.776-8.043-1.329.115a7.267,7.267,0,0,1-.747.051h-5.7c-4.457,0-8.917,0-13.376.018h-.021a2.172,2.172,0,0,1-2.35-1.728A24.2,24.2,0,0,0,53.7,58.178c-.191-.419-.384-.841-.571-1.273l-.646-1.5h25.88ZM107.1,36.6a25.035,25.035,0,0,0,.874,2.45c.157.4.316.8.472,1.22l.54,1.448h-14.4V34.4h7.335c.227,0,.456.008.683.015a7.414,7.414,0,0,0,1.246-.022A2.692,2.692,0,0,1,107.1,36.6M81.5,13.757h1.073c.968,0,1.935-.021,2.9-.041a57.343,57.343,0,0,1,6.817.119,7.685,7.685,0,0,1,6.293,5.632l.339,1.335H81.5Zm25.466,56.861a8.768,8.768,0,0,1-6.14,2.524l-.169,0a8.974,8.974,0,0,1-8.774-9.075,8.906,8.906,0,1,1,15.083,6.553m.146-16.581a11.606,11.606,0,0,0-6.719-1.806A12.135,12.135,0,0,0,89,61.81l-.2.814H81.489V24.1l1.431-.071c.31-.018.6-.034.89-.035q7.653,0,15.3,0c2.5,0,3.446.64,4.392,2.969.254.623.477,1.259.717,1.949.112.318.227.647.351.993l.518,1.437h-8.84c-3.253,0-4.84,1.578-4.851,4.814l-.009,1.161c-.009,1.093-.02,2.224.021,3.324a4.139,4.139,0,0,0,4.368,4.221q2.86.012,5.72.005c2.665,0,5.328,0,7.992.021a6.221,6.221,0,0,1,2.533.583c2.039.957,4.234,2.053,6.71,3.35a2.551,2.551,0,0,1,1.395,1.937c.047,2.773.044,5.5.039,8.38l0,3.492h-7.4l-.2-.82a12.209,12.209,0,0,0-5.453-7.772" transform="translate(0 0)"/>
      <path id="Path_11278" data-name="Path 11278" d="M18.311,14.112c0-.593-.156-1.625-1.135-1.867a1.833,1.833,0,0,0-.442-.055,1.516,1.516,0,0,0-.938.308,1.532,1.532,0,0,0-.562,1.237c-.045,5.577-.033,11.252-.021,16.738l.008,4.169a1.288,1.288,0,0,0,.1.442,1.39,1.39,0,0,0,1.432,1.021h0a1.319,1.319,0,0,0,1.4-.975,4.482,4.482,0,0,0,.147-1.337c.014-2.393.012-4.785.009-7.177V24.259l0-3.012c0-2.378.006-4.756-.009-7.134" transform="translate(-2.156 -1.729)" fill="#ffca0a"/>
      <path id="Path_11279" data-name="Path 11279" d="M53.535,36.094c.321-.043,1.3-.172,1.3-2.09q.012-9.845-.005-19.691a3.745,3.745,0,0,0-.139-1.12,1.415,1.415,0,0,0-.816-.881,1.5,1.5,0,0,0-1.265.043c-.463.233-.891.61-.891,1.778V24.165l0,2.971c0,2.35-.008,4.7.011,7.051a2.114,2.114,0,0,0,.582,1.611,1.48,1.48,0,0,0,1.226.3" transform="translate(-7.334 -1.729)" fill="#ffca0a"/>
      <path id="Path_11280" data-name="Path 11280" d="M30.433,13.772A1.617,1.617,0,0,0,30,12.6a1.492,1.492,0,0,0-1.069-.385h-.027a1.434,1.434,0,0,0-1.493,1.5c-.032,7.64-.031,14.478,0,20.906a1.455,1.455,0,0,0,.493,1.141,1.616,1.616,0,0,0,1.324.327,1.49,1.49,0,0,0,1.209-1.672c.017-2.436.014-4.873.01-7.309l-.008-2.957.005-3.02c.005-2.455.011-4.911-.017-7.365" transform="translate(-3.884 -1.732)" fill="#ffca0a"/>
      <path id="Path_11281" data-name="Path 11281" d="M39.6,34.424a1.806,1.806,0,0,0,.457,1.305,1.446,1.446,0,0,0,1.074.377,1.482,1.482,0,0,0,1.5-1.624l0-.97c.021-6.452.044-13.124-.051-19.682a2.34,2.34,0,0,0-.835-1.445,1.173,1.173,0,0,0-1.262-.106,1.666,1.666,0,0,0-.88,1.5c-.037,2.387-.029,4.82-.022,7.173q.005,1.6.006,3.208l0,2.831c-.005,2.478-.01,4.955.011,7.433" transform="translate(-5.614 -1.722)" fill="#ffca0a"/>
      <path id="Path_11282" data-name="Path 11282" d="M66.953,13.772a1.617,1.617,0,0,0-.43-1.171,1.492,1.492,0,0,0-1.069-.385h-.027a1.434,1.434,0,0,0-1.493,1.5c-.032,7.64-.031,14.478,0,20.907a1.455,1.455,0,0,0,.493,1.141,1.617,1.617,0,0,0,1.324.327,1.49,1.49,0,0,0,1.209-1.672c.017-2.436.014-4.873.01-7.309l-.008-2.957.005-3.02c.005-2.455.011-4.911-.017-7.365" transform="translate(-9.064 -1.732)" fill="#ffca0a"/>
      <path id="Path_11283" data-name="Path 11283" d="M76.113,27.162c0,2.419-.009,4.839.013,7.259a1.814,1.814,0,0,0,.457,1.309,1.584,1.584,0,0,0,1.071.377,1.48,1.48,0,0,0,1.506-1.62l0-.913c.022-6.471.044-13.163-.05-19.738a2.343,2.343,0,0,0-.833-1.448,1.183,1.183,0,0,0-1.263-.107,1.664,1.664,0,0,0-.88,1.5c-.038,2.429-.029,4.9-.021,7.3q.005,1.542.007,3.083l-.005,1.073Z" transform="translate(-10.793 -1.722)" fill="#ffca0a"/>
      <path id="Path_11284" data-name="Path 11284" d="M28.188,74.422a2.523,2.523,0,0,1-2.53,2.564,2.572,2.572,0,0,1-2.644-2.592,2.626,2.626,0,0,1,2.671-2.587,2.591,2.591,0,0,1,2.5,2.615" transform="translate(-3.264 -10.183)" fill="#ffca0a"/>
      <path id="Path_11285" data-name="Path 11285" d="M119.49,74.392a2.525,2.525,0,0,1-2.5,2.593,2.569,2.569,0,0,1-2.673-2.561,2.622,2.622,0,0,1,2.64-2.617,2.59,2.59,0,0,1,2.534,2.585" transform="translate(-16.212 -10.183)" fill="#ffca0a"/>
      <path id="Path_11286" data-name="Path 11286" d="M49.989,76.981a2.609,2.609,0,0,1-2.653-2.6,2.613,2.613,0,0,1,5.225.05,2.579,2.579,0,0,1-2.572,2.555" transform="translate(-6.713 -10.183)" fill="#ffca0a"/>
    </g>
  </g>
</svg>
