<svg xmlns="http://www.w3.org/2000/svg" xmlns:xlink="http://www.w3.org/1999/xlink" width="79.992" height="100.115" viewBox="0 0 79.992 100.115">
  <defs>
    <clipPath id="clip-path">
      <rect id="Rectangle_2923" data-name="Rectangle 2923" width="79.992" height="100.115" fill="none"/>
    </clipPath>
  </defs>
  <g id="Group_4368" data-name="Group 4368" transform="translate(0 0)">
    <g id="Group_4368-2" data-name="Group 4368" transform="translate(0 0)" clip-path="url(#clip-path)">
      <path id="Path_10934" data-name="Path 10934" d="M40.948,45.876a11.392,11.392,0,1,0-6.4-21.688,11.107,11.107,0,0,0-5.932,5.995,1.219,1.219,0,0,0,.5,1.7,1.244,1.244,0,0,0,1.7-.681c.041-.078.077-.16.114-.241.028-.065.058-.13.089-.194a8.952,8.952,0,0,1,17.018,3.693,8.94,8.94,0,0,1-17.273,3.439,3.821,3.821,0,0,1-.135-.458,1.376,1.376,0,0,0-.253-.618,2.423,2.423,0,0,0-1.353-.735h-.032a.983.983,0,0,0-.915,1.056,2.882,2.882,0,0,0,.184.961,11.4,11.4,0,0,0,12.694,7.777" transform="translate(0.897 0.743)" fill="#ffc810"/>
      <path id="Path_10935" data-name="Path 10935" d="M42.245,72.174a1.125,1.125,0,0,1-.287-.839c.022-.966.821-1.172,1.487-1.175h.216c-2.638,0-8.972,0-9.639,0-1.456,0-2.912,0-4.365-.022a1.468,1.468,0,0,1-1.156-.587c-1.11-2.137-2.169-4.259-3.289-6.5l-1.063-2.128H55.218l-.116.341c-.021.061-.04.126-.06.191a3.155,3.155,0,0,1-.181.5q-.632,1.271-1.268,2.537c-.807,1.612-1.615,3.224-2.4,4.844a1.31,1.31,0,0,1-1.358.842c-1.938-.033-3.909-.023-5.814-.013l-.356,0h1.1c.919,0,1.474.45,1.483,1.192.009.686-.478,1.125-1.26,1.2h6.645a2.072,2.072,0,0,0,1.31-1.281c1.046-2.18,2.155-4.373,3.225-6.494q.6-1.192,1.2-2.383c.105-.211.22-.419.338-.639l.293-.545,4.976,2.126q3.568,1.529,7.135,3.052c.757.323,1.32.366,1.674.133s.541-.781.542-1.617q0-2.065,0-4.129c0-2.753-.005-5.506.017-8.26a2.821,2.821,0,0,0-.76-2.045Q69.3,47.9,67.039,45.3c-2.313-2.645-4.7-5.378-7.085-8.039a4.408,4.408,0,0,1-1.382-3.683,9.89,9.89,0,0,0-.018-2.485c-.3-2.366-.6-4.332-.947-6.185a1.145,1.145,0,0,0-.243-.509,2.811,2.811,0,0,1,.2.539,1.191,1.191,0,0,1-2.2.9c.018.091.036.182.045.273.078.693.174,1.386.27,2.079a37.269,37.269,0,0,1,.447,4.664c.063,5.868.053,11.833.043,17.6q-.006,3.292-.008,6.584v1.267H23.366v-.924q0-3.443-.006-6.885c-.01-6.056-.022-12.32.054-18.479a22.674,22.674,0,0,1,.939-6.655c.936-2.915,2.13-5.8,3.285-8.582q.478-1.152.95-2.306a1.5,1.5,0,0,1,1.245-.622q5.675-.023,11.35-.02,4.255,0,8.51-.011a1.315,1.315,0,0,1,1.4.918c.64,1.676,3.684,9.836,4.235,11.053.008.017.022.026.03.042-.006-.029-.009-.058-.014-.087-.022-.105-.042-.212-.056-.317a1.213,1.213,0,0,1,.93-1.423,1.181,1.181,0,0,1,.908.15,1.062,1.062,0,0,1,.237.238c-.022-.046-.04-.093-.063-.14-.515-1.1-3.356-8.752-3.867-9.855-1.242-2.677-2.526-5.447-3.845-8.14A10.293,10.293,0,0,0,39.81,0h-.051a10.262,10.262,0,0,0-9.822,6.266c-1.12,2.3-2.206,4.67-3.258,6.959-.813,1.772-1.626,3.543-2.462,5.3A34.213,34.213,0,0,0,20.9,34.7a2.721,2.721,0,0,1-.661,1.72c-4.339,5.021-8.3,9.548-12.1,13.839a3.5,3.5,0,0,0-.955,2.563c.034,2.7.029,5.443.025,8.1,0,1.364-.005,2.729,0,4.093a1.825,1.825,0,0,0,.544,1.515,1.791,1.791,0,0,0,1.585-.092q2.639-1.118,5.273-2.252l6.913-2.957.249.429c.071.122.126.215.173.311l1.182,2.351c1.208,2.4,2.417,4.806,3.6,7.219a1.653,1.653,0,0,0,1.153,1.021h15.2a1.445,1.445,0,0,1-.836-.382M58.626,39.4l3.133,3.575q3.794,4.333,7.57,8.677a2.144,2.144,0,0,1,.535,1.278c.029,2.652.025,5.349.022,7.956l0,1.871a1.953,1.953,0,0,1-.033.3l-.075.544L58.626,58.825ZM30.218,10.989c.4-.684.746-1.4,1.083-2.1a12.984,12.984,0,0,1,2.994-4.465A8.409,8.409,0,0,1,40.8,2.448,8.041,8.041,0,0,1,46.457,5.8a27.47,27.47,0,0,1,1.992,3.468c.291.568.587,1.145.908,1.73l.211.382H29.991ZM20.933,44.134q0,6.832-.015,13.667c0,.254-.1,1.022-.513,1.206-2.744,1.218-5.464,2.382-8.344,3.613L9.638,63.657v-2.65c0-2.77,0-5.453.014-8.135a1.727,1.727,0,0,1,.383-1.041q4.6-5.289,9.222-10.548l.8-.916a1.412,1.412,0,0,1,.244-.206c.056-.04.125-.09.211-.158l.417-.325Z" transform="translate(0.229 0)"/>
      <path id="Path_10936" data-name="Path 10936" d="M45.165,69.18c-.01-.742-.564-1.188-1.483-1.192H42.369c-.667,0-1.466.209-1.487,1.175a1.121,1.121,0,0,0,.287.839,1.441,1.441,0,0,0,.835.382h1.9c.782-.079,1.268-.518,1.26-1.2" transform="translate(1.306 2.172)"/>
      <path id="Path_10937" data-name="Path 10937" d="M54.73,23.273A1.212,1.212,0,0,0,53.8,24.7c.012.105.034.212.055.318.006.028.009.057.014.086a1.191,1.191,0,0,0,2.2-.9,2.8,2.8,0,0,0-.2-.54,1.012,1.012,0,0,0-.236-.237,1.177,1.177,0,0,0-.908-.151" transform="translate(1.718 0.743)"/>
      <path id="Path_10938" data-name="Path 10938" d="M42.357,70.341c.157,0,.316,0,.475,0,.439,0,.754,0,.851-.005.069,0,.122-.023.188-.029h-1.9a2.826,2.826,0,0,0,.387.031" transform="translate(1.341 2.246)" fill="#ffc810"/>
      <path id="Path_10939" data-name="Path 10939" d="M30.2,70.338c.236,0,.476.005.719.005h.256l.012,1.15a18.277,18.277,0,0,1-.6,6.126,3.487,3.487,0,0,1-1.816,2.338,3.42,3.42,0,0,1-2.875-.414,17.327,17.327,0,0,1-2.6-1.82l-.159-.127a7.449,7.449,0,0,0-4.1-1.841c-2.947-.249-5.358,1.02-7.375,3.876a12.86,12.86,0,0,0-2.157,6.11l-.019.166-.352.115a3.726,3.726,0,0,1-.415.123,10.655,10.655,0,0,0-8.7,9.7,1.937,1.937,0,0,0,.718,2.022H79.224a1.77,1.77,0,0,0,.764-1.543,10.705,10.705,0,0,0-3.777-7.813,10.987,10.987,0,0,0-5.486-2.5l-.175-.03-.034-.175c-.69-3.626-1.368-5.287-2.9-7.106-3.037-3.6-7.356-3.965-11-.924a13.8,13.8,0,0,1-3.089,2,2.912,2.912,0,0,1-2.3.2,3.051,3.051,0,0,1-1.61-1.8,16.071,16.071,0,0,1-.816-6.66c.005-.306.011-.615.014-.924l0-.255h.255c.232,0,.453-.005.667-.01a10.419,10.419,0,0,1,1.324.023,2.187,2.187,0,0,0,.8-.045H45.21c-.065.006-.118.028-.188.029-.1,0-.413,0-.851.005.353,0,.711,0,1.094,0l1.085,0V70.6c0,.27-.006.537-.014.8a11.921,11.921,0,0,0,.028,1.625c.05.44.091.882.131,1.326a20.719,20.719,0,0,0,.641,4.039,5.653,5.653,0,0,0,3,3.789,5.754,5.754,0,0,0,4.9-.41A17.769,17.769,0,0,0,58.226,79.6c2.624-2.122,5.362-1.882,7.508.657a10,10,0,0,1,2.3,6.31c.047,1.482.319,1.758,1.814,1.843a8.2,8.2,0,0,1,7.493,6.654l.056.305H2.624l.037-.29a8.078,8.078,0,0,1,7.3-6.662c1.744-.114,1.911-.281,1.982-1.984a9.917,9.917,0,0,1,2.384-6.278,4.854,4.854,0,0,1,7.362-.579,11.959,11.959,0,0,0,4.773,2.779,4.884,4.884,0,0,0,5.785-2.512A12.8,12.8,0,0,0,33.614,73.9c.027-.725.021-1.449.013-2.214q-.006-.531-.006-1.084v-.258l1.18,0c.555,0,7,.005,9.37,0-.158,0-.318,0-.475,0a2.826,2.826,0,0,1-.387-.031H28.11a2.123,2.123,0,0,0,.531.04c.518-.024,1.025-.019,1.561-.012" transform="translate(0 2.246)"/>
    </g>
  </g>
</svg>
