<svg id="Group_4369" data-name="Group 4369" xmlns="http://www.w3.org/2000/svg" xmlns:xlink="http://www.w3.org/1999/xlink" width="96.813" height="96.823" viewBox="0 0 96.813 96.823">
  <defs>
    <clipPath id="clip-path">
      <rect id="Rectangle_2924" data-name="Rectangle 2924" width="96.813" height="96.823" transform="translate(0 0)" fill="none"/>
    </clipPath>
  </defs>
  <g id="Group_4369-2" data-name="Group 4369" clip-path="url(#clip-path)">
    <path id="Path_10940" data-name="Path 10940" d="M92.921,86.452a9.955,9.955,0,0,0,3.814-7.85c.079-4.626.132-8.8-.013-13.078a11.72,11.72,0,0,0-7.18-10.818A13.766,13.766,0,0,0,88,54.112c-.255-.087-.51-.174-.763-.268l-.494-.181.207-.485c1.477-3.448,1.778-3.655,5.363-3.688h.126c.143,0,.287,0,.43-.012a4.226,4.226,0,0,0-.066-8.43c-1.181-.055-2.39-.055-3.6,0A4.469,4.469,0,0,0,85.737,43.1a19.865,19.865,0,0,1-1.945,2.12c-.309.308-.626.621-.94.951l-.475.5-.326-.6A27.249,27.249,0,0,0,69.447,34L69,33.791l.207-.448A23.166,23.166,0,0,0,36.218,3.448,22.274,22.274,0,0,0,27.2,13.835a23.16,23.16,0,0,0,.388,19.518l.206.448-.445.211A27.291,27.291,0,0,0,14.716,46.074l-.329.606-.474-.5c-.319-.339-.64-.662-.955-.98a23.192,23.192,0,0,1-1.981-2.173,4.45,4.45,0,0,0-3.5-1.982c-.972-.038-2.025-.04-3.318-.007a4.224,4.224,0,0,0,.013,8.447c.409.012.818.01,1.227.007.482,0,.96-.005,1.437.012a1.5,1.5,0,0,1,1.161.491c.5.75.957,1.523,1.429,2.319l.813,1.358L9.1,54.034A12.075,12.075,0,0,0,.01,66.091v.352C0,70.43-.008,74.418.015,78.4c.017,2.976.851,5.2,2.482,6.615,2.195,1.906,2.331,4.085,2.284,6.153A5.446,5.446,0,0,0,9.289,96.6a22.121,22.121,0,0,0,4,.184l.522-.008a5.67,5.67,0,0,0,5.535-4.59,13.023,13.023,0,0,0,.186-1.845c.016-.3.033-.605.058-.907l.038-.458H77.263v.989c0,.328,0,.634,0,.941a5.692,5.692,0,0,0,4.968,5.8,20.458,20.458,0,0,0,3.261.094l.791-.016a5.652,5.652,0,0,0,5.58-4.641,17.563,17.563,0,0,0,.152-3.373l-.007-.354a2.264,2.264,0,0,1,.912-1.966M89.266,43.206c1.15-.053,2.293-.054,3.394,0A2.017,2.017,0,0,1,94.6,45.274a2.051,2.051,0,0,1-1.943,2.043c-.226.019-.454.024-.681.024-.175,0-.351,0-.525-.006s-.338-.007-.507-.007h0c-.159,0-.351,0-.527.007a11.764,11.764,0,0,1-1.188-.02,2.058,2.058,0,0,1,.042-4.109M7.522,47.317c-.224.019-.448.024-.673.024-.176,0-.354,0-.53-.007s-.341-.007-.512-.007h0c-.168.006-.344,0-.517.007a11.4,11.4,0,0,1-1.2-.019,2.058,2.058,0,0,1,.034-4.109c1.139-.053,2.28-.054,3.394,0a2.018,2.018,0,0,1,1.941,2.06,2.052,2.052,0,0,1-1.937,2.05M27.39,22.963A20.952,20.952,0,0,1,48.318,2.187H48.4a20.981,20.981,0,0,1,14.858,6.2,20.989,20.989,0,0,1-15.02,35.792h-.081A20.588,20.588,0,0,1,33.52,38a21.044,21.044,0,0,1-6.13-15.036m37.463,17.7a14.234,14.234,0,0,1,8.786,7.1,2.96,2.96,0,0,1,.11,2.962,3,3,0,0,1-2.688,1.336q-5.145.008-10.287.006H54.585l-28.632,0a3.218,3.218,0,0,1-2.961-1.354,3.233,3.233,0,0,1,.306-3.255,14.219,14.219,0,0,1,8.662-6.8,2.016,2.016,0,0,1,1.656.34,22.982,22.982,0,0,0,29.493.035,2.1,2.1,0,0,1,1.744-.362M15.811,93.952a7.436,7.436,0,0,1-3.754.771,6.2,6.2,0,0,1-3.663-.854A5.134,5.134,0,0,1,6.98,91.526a4.929,4.929,0,0,1-.093-1.759c.013-.183.026-.356.026-.51v-.5h10.3l.049.447c.188,1.731.23,3.524-1.454,4.748m-1.356-7.266,1.187-.9a14.891,14.891,0,0,1,9.265-3.183q6.086-.008,12.17,0l13.367,0q10.62,0,21.244,0H71.7a15.029,15.029,0,0,1,8.356,2.423c.2.13.388.27.628.447l1.676,1.216ZM89.8,91.615a3.588,3.588,0,0,1-3.509,3.017c-.525.016-1.046.022-1.539.022-.6,0-1.158-.009-1.633-.018a3.663,3.663,0,0,1-3.705-3.741c-.007-.309,0-.62,0-.969l0-1.015,2.025.006c1.1.008,2.159.012,3.216-.016s2.111-.1,3.189-.161l1.983-.116v.528c0,.212.009.435.018.665a10.049,10.049,0,0,1-.043,1.8m-3.625-4.88H86.1a2.277,2.277,0,0,1-1.523-.655,16.874,16.874,0,0,0-12.749-5.623q-23.445-.027-46.889,0a16.886,16.886,0,0,0-12.752,5.615,2.268,2.268,0,0,1-1.519.664h-.085a8.327,8.327,0,0,1-8.418-8.36c-.038-4.953-.036-9,0-12.72a9.9,9.9,0,0,1,9.54-9.846c.7-.036,1.191-.239,1.37-.573a1.587,1.587,0,0,0-.275-1.464c-.419-.715-.848-1.425-1.275-2.135l-.644-1.069c-.982-1.639-.954-1.891.382-3.369l.316-.35,2.117,1.69c.665.528,1.153.751,1.48.669s.662-.482,1.02-1.24A24.558,24.558,0,0,1,27.283,36.454c.25-.13.5-.251.773-.378l.794-.382,2.08,2.759-.52.274c-.375.2-.748.388-1.117.575-.8.407-1.553.789-2.275,1.234a15.994,15.994,0,0,0-5.838,6.3,5.037,5.037,0,0,0,.024,5.039,4.981,4.981,0,0,0,4.4,2.341q22.8.025,45.609,0a4.937,4.937,0,0,0,4.35-2.348,5.043,5.043,0,0,0,.042-4.986,16.61,16.61,0,0,0-8.36-7.666l-1.478-.633,2.122-2.858.365.16A22.078,22.078,0,0,1,76.757,42.2a46.779,46.779,0,0,1,3.826,5.9c.391.676.741,1.035,1.07,1.1a1.708,1.708,0,0,0,1.228-.518c.423-.33.842-.665,1.271-1.008l1.057-.841.314.366c.093.108.189.212.283.312a4.084,4.084,0,0,1,.67.862,1.513,1.513,0,0,1-.085,1.324c-.456.8-.93,1.579-1.4,2.362-.359.6-.717,1.189-1.068,1.787a1.476,1.476,0,0,0-.232,1.389,1.446,1.446,0,0,0,1.258.564A9.988,9.988,0,0,1,94.6,65.943c.017,3.416.033,7.914,0,12.421a8.342,8.342,0,0,1-8.418,8.371"/>
    <path id="Path_10941" data-name="Path 10941" d="M7.893,68.915a5.779,5.779,0,0,0,5.941,5.8c1.459.011,2.918.007,4.38,0l1.817,0,1.953,0c1.415,0,2.829.007,4.242-.006a5.826,5.826,0,0,0,5.887-5.761,5.74,5.74,0,0,0-1.682-4.135,5.958,5.958,0,0,0-4.209-1.709q-6.2-.033-12.4,0a5.825,5.825,0,0,0-5.933,5.806m16.284-3.731c.368.03.723.047,1.067.063a11.3,11.3,0,0,1,2.212.247,3.554,3.554,0,0,1-.135,6.827l-.4.123-2.851-5.708c-.066-.134-.127-.269-.215-.466l-.521-1.156Zm-6.859.071c.972,0,1.867,0,2.763.02a1.421,1.421,0,0,1,1.129.625c.776,1.49,1.524,2.995,2.312,4.577l1.041,2.085-1.841,0h-.957c-.691,0-1.361,0-2.032-.019a1.216,1.216,0,0,1-.944-.622c-.806-1.574-1.595-3.157-2.431-4.834l-.914-1.832Zm-4.67.229.42-.156,3.6,7.214h-.808c-.3,0-.591.006-.868.013s-.523.013-.777.013a9.37,9.37,0,0,1-.979-.045,3.642,3.642,0,0,1-3.172-3.259,3.6,3.6,0,0,1,2.589-3.78"/>
    <path id="Path_10942" data-name="Path 10942" d="M82.907,63.108c-1.395-.01-2.788-.007-4.18,0l-1.919,0-1.959,0-1.956,0q-1.14,0-2.282.007a5.8,5.8,0,1,0-.045,11.606c4.112.021,8.284.021,12.4,0a5.8,5.8,0,1,0-.055-11.606M69.848,72.446l-.4-.123A3.546,3.546,0,0,1,66.822,68.5a3.665,3.665,0,0,1,3.322-3.225c.526-.038,1.056-.027,1.617-.019.272,0,.558.01.864.01h.808Zm6.424.179a3.621,3.621,0,0,1-.511-.039,9.7,9.7,0,0,0-1.76-.04c-.317.01-.646.02-.991.02H72.2l1.091-2.183c.758-1.523,1.478-2.969,2.226-4.4a1.511,1.511,0,0,1,1.171-.7c.891-.033,1.783-.027,2.739-.024l1.88,0-.357.722c-.258.519-.517,1.026-.772,1.527-.586,1.148-1.141,2.233-1.623,3.357a2.4,2.4,0,0,1-2.283,1.76M86.7,69.337a3.681,3.681,0,0,1-3.34,3.208c-.3.021-.6.027-.9.027-.236,0-.474,0-.718-.007-.266,0-.543-.009-.838-.009H80.1l3.586-7.192.411.133a3.585,3.585,0,0,1,2.608,3.84"/>
    <path id="Path_10943" data-name="Path 10943" d="M62.592,18.963a1.473,1.473,0,0,1-1.577-.975,1.531,1.531,0,0,1,.417-1.894c.424-.417.813-.883,1.226-1.375l.323-.386c-.058-.1-.111-.188-.164-.277a4.414,4.414,0,0,0-.535-.789c-.7-.741-1.424-1.459-2.149-2.177l-.963-.959C58.336,9.294,57.714,8.7,57.319,8.7s-1.009.584-1.83,1.41a1.639,1.639,0,0,1-2.881-1.246,8.221,8.221,0,0,0,.009-.9l-.006-.228c-.019-1.031-.362-1.381-1.363-1.39-1.059-.01-2.118-.008-3.177-.006l-1.349,0c-1.2,0-2.008.021-2.278.292s-.285,1.1-.277,2.24a1.632,1.632,0,0,1-1.049,1.716,1.379,1.379,0,0,1-1.77-.425l-.8-.8c-.889-.868-1.29-.871-2.15-.022q-1.164,1.154-2.32,2.317l-.813.813c-.839.838-1.387,1.415-1.387,1.787s.56.963,1.415,1.814a1.516,1.516,0,0,1,.47,1.882,1.478,1.478,0,0,1-1.708,1.006,2.772,2.772,0,0,0-.465-.006l-.26,0c-1.553,0-1.786.23-1.789,1.743v4.135c0,1.17.021,2.019.295,2.291s1.1.289,2.226.281h.028a1.616,1.616,0,0,1,1.7,1.042,1.4,1.4,0,0,1-.443,1.8l-.285.281c-.211.207-.422.415-.626.629-.708.747-.7,1.2.03,1.945s1.474,1.484,2.215,2.223l.983.979c1.8,1.792,1.793,1.792,3.623-.025l.09-.091a1.321,1.321,0,0,1,1.713-.408,1.55,1.55,0,0,1,1.072,1.759,4.562,4.562,0,0,0-.014.79l.01.313c.018,1.028.362,1.379,1.363,1.39,1.022.01,2.043.006,3.062.005l1.365,0c2.65,0,2.65,0,2.659-2.64a1.635,1.635,0,0,1,2.9-1.1,5.635,5.635,0,0,0,.571.586l.217.206c.805.782,1.237.783,2.013.021.707-.692,1.4-1.4,2.1-2.1l1.027-1.032c.9-.9,1.446-1.475,1.446-1.851s-.564-.963-1.423-1.819A1.51,1.51,0,0,1,61,28.413a1.5,1.5,0,0,1,1.7-1,5.31,5.31,0,0,0,.725.01l.306-.006c1.147-.011,1.482-.339,1.49-1.458.007-1,0-2,0-3l0-1.334c0-2.656,0-2.656-2.633-2.665m.434,6.3-1.053,0c-.4,0-.792,0-1.187,0a1.193,1.193,0,0,0-1.28.945,25.092,25.092,0,0,1-1.018,2.5c-.48,1-.446,1.2.323,1.946a5.537,5.537,0,0,0,.741.561c.142.1.287.195.433.3l.484.353-3.444,3.268-.309-.58a2.538,2.538,0,0,0-1.48-1.42,3.555,3.555,0,0,0-2.65.767,2.814,2.814,0,0,1-.739.293l-.205.06c-1.053.339-1.175.5-1.182,1.576v1.994H46.306l0-1c0-.379-.006-.76.006-1.14a1.253,1.253,0,0,0-1.024-1.4,19.056,19.056,0,0,1-2.421-.994c-1-.483-1.2-.454-1.944.317a5.74,5.74,0,0,0-.57.739c-.095.14-.194.282-.3.425l-.361.487L36.681,31.98l.481-.495c.3-.308.659-.68,1.024-1.049a1.143,1.143,0,0,0,.216-1.494,24.2,24.2,0,0,1-1.077-2.482c-.381-1.066-.545-1.189-1.589-1.2l-1.019,0h-.975V21.108l.991,0c.384,0,.769-.006,1.151.007a1.239,1.239,0,0,0,1.4-1.027,18.968,18.968,0,0,1,.993-2.423c.482-1,.45-1.2-.319-1.944a5.335,5.335,0,0,0-.743-.56c-.142-.1-.287-.192-.431-.3l-.489-.354,3.51-3.329.336.453c.1.131.2.272.3.416a9.856,9.856,0,0,0,.73.953,1.085,1.085,0,0,0,1.467.2,20.21,20.21,0,0,1,2.592-1.1,1.283,1.283,0,0,0,1.084-1.445c-.013-.359-.011-.717-.007-1.09l0-1.025H50.46l0,1.032c0,.4,0,.806,0,1.209a1.191,1.191,0,0,0,.947,1.278,25.61,25.61,0,0,1,2.5,1.016c1,.483,1.2.451,1.948-.315a5.759,5.759,0,0,0,.573-.745c.1-.14.2-.283.3-.428l.357-.482,3.048,3.245-1.548,1.585a1.139,1.139,0,0,0-.216,1.493,24.239,24.239,0,0,1,1.074,2.482c.381,1.066.544,1.189,1.591,1.2.316,0,.634,0,.964,0h1.026Z" fill="#ffc810"/>
    <path id="Path_10944" data-name="Path 10944" d="M48.348,28.99h.039a5.8,5.8,0,0,0,4.133-9.873,5.719,5.719,0,0,0-4.055-1.739h-.059a5.81,5.81,0,0,0-4.1,1.679,5.72,5.72,0,0,0-1.726,4.066,5.825,5.825,0,0,0,5.77,5.867m.021-9.455h.005a3.665,3.665,0,0,1,3.656,3.612,3.66,3.66,0,0,1-3.648,3.684h-.05a3.648,3.648,0,0,1,.037-7.3" fill="#ffc810"/>
  </g>
</svg>
