<svg xmlns="http://www.w3.org/2000/svg" xmlns:xlink="http://www.w3.org/1999/xlink" width="100.839" height="101.613" viewBox="0 0 100.839 101.613">
  <defs>
    <clipPath id="clip-path">
      <rect id="Rectangle_2907" data-name="Rectangle 2907" width="100.838" height="101.613" fill="none"/>
    </clipPath>
  </defs>
  <g id="Group_4363" data-name="Group 4363" transform="translate(0 0)">
    <g id="Group_4363-2" data-name="Group 4363" transform="translate(0 0)" clip-path="url(#clip-path)">
      <path id="Path_10916" data-name="Path 10916" d="M99.545,96.878a4.736,4.736,0,0,0-4.748-4.7c-.346-.011-.691-.008-1.067-.005l-1.12,0V88.029q0-2.911,0-5.82c-.008-2.395-1.232-3.612-3.635-3.617H83.728V17.4H86c2.341,0,2.493-.1,3.251-2.26l.125-.354,3.35,0c1.532,0,3.064.006,4.595-.011a2.078,2.078,0,0,0,2.276-2.289q.016-3.807,0-7.614a2.083,2.083,0,0,0-2.141-2.257c-.345-.02-.69-.015-1.035-.012l-.437,0H89.124l-.029-.5A2.231,2.231,0,0,0,87.576,0H67.38a2.346,2.346,0,0,0-1.362,2.083v.531H23.728c-.23,0-.466-.006-.7.011a2.057,2.057,0,0,0-2.1,2.123c-.042,2.685-.042,5.345,0,7.9a2.053,2.053,0,0,0,2.248,2.132c1.314.018,2.631.016,3.946.013h2.163c.228,0,.455.015.7.031l.853.047.005,1.761c.008,1.084.017,2.108-.032,3.15a2.784,2.784,0,0,1-.661,1.631c-.738.824-1.5,1.629-2.257,2.433-.685.728-1.373,1.454-2.041,2.2a2.745,2.745,0,0,1-2.126.937,2.35,2.35,0,0,0-1.7.52,2.408,2.408,0,0,0-.535,1.731q-.029,3.1,0,6.206c.015,1.6.664,2.25,2.241,2.253q8.068.019,16.136,0c1.581,0,2.2-.637,2.215-2.255.014-2,.008-4.006,0-6.009-.005-1.868-.531-2.4-2.445-2.49a2.63,2.63,0,0,1-1.641-.7c-1.34-1.355-2.657-2.77-3.931-4.138l-.7-.75a1.605,1.605,0,0,1-.556-1c-.028-1.27-.024-2.541-.022-3.814l0-1.7H65.783l.114.374c.607,1.964.91,2.188,2.95,2.189h2.522V78.592l-1.966,0c-1.05,0-2.078-.006-3.109.005a3.224,3.224,0,0,0-3.343,3.333c-.007.351-.006.7,0,1.053v9.2l-1.083,0-.477,0c-.175,0-.347,0-.519.005a4.665,4.665,0,0,0-4.817,4.8c-.022.759-.017,1.521,0,2.28.028,1.643.746,2.346,2.4,2.35q3.541.006,7.076,0l31.619,0c1.641,0,2.384-.728,2.41-2.355.013-.792.024-1.585-.006-2.377M97.571,4.635V10.2l-.763.668-5.7-6.235Zm-8.436,1.25,6.271,6.88H89.136ZM22.912,12.749V4.2l.723.282c.135.053.268.092.394.128a1.894,1.894,0,0,1,.9.454c1.714,1.82,3.4,3.659,4.984,5.376l2.128,2.312ZM40.106,28.907v6.765H23.451l0-1.71c0-1.331-.008-2.707.041-4.056.028-.628.99-.974,1.379-.979,2.608-.026,5.215-.025,7.827-.022Zm-4.219-2.021H27.73l4.085-4.359ZM27.937,4.6h14.9l-7.459,8.093Zm10.523,8.161,7.4-8.087,7.335,8.087ZM49,4.619H64.034L56.483,12.8ZM65.959,12.8H59.593l6.366-6.882Zm2.071-10.8H87.057V15.418H68.03ZM81.454,26.971l-8,7.4V19.552Zm-6.761-9.5H81.65v6.449Zm6.956,12.484V44.91l-8.006-7.458ZM73.475,40.471l7.981,7.443L73.475,55.3ZM81.628,51.21V66.038L73.659,58.6ZM73.486,61.459l8.06,7.551-8.06,7.5Zm8.165,10.909v6.177H74.969ZM97.605,99.6H58.049v-.53c0-.267-.007-.533-.014-.8a13.329,13.329,0,0,1,.036-1.847c.161-1.433,1.282-2.291,3-2.3,2.783-.01,5.567-.006,8.35-.007l3.838,0c.2,0,.408.005.61-.007.762-.042,1.238-.442,1.216-1.017s-.468-.913-1.195-.919q-2.531-.017-5.066-.008H65.062l-.1-.705a3.365,3.365,0,0,1-.059-.54V88.013c0-1.9.005-3.8-.015-5.7a1.549,1.549,0,0,1,1.764-1.786q11.122.032,22.245,0h.012a1.846,1.846,0,0,1,1.342.439,1.806,1.806,0,0,1,.424,1.326c-.022,2.214-.019,4.429-.016,6.7l0,3.185H82.178c-1.747,0-1.755.614-1.76.944a.766.766,0,0,0,.2.6,2.373,2.373,0,0,0,1.614.4H94.058c2.581,0,3.542.952,3.547,3.507Z" transform="translate(1.238 0)"/>
      <path id="Path_10917" data-name="Path 10917" d="M0,33.386Q0,65.365,0,97.342c0,1.886.541,2.433,2.414,2.433H32.687c1.864,0,2.4-.549,2.405-2.446q.008-5.588,0-11.179V82.8a4.949,4.949,0,0,0-.019-.632.943.943,0,0,0-1.846-.145,3.717,3.717,0,0,0-.078.951q-.008,5.294,0,10.586v4.2H2.017V33.033H16.5v4.753l-2.026,0c-1.114,0-2.2-.008-3.286.01-1.025.018-1.158.537-1.167.927-.005.237-.025.956,1.191,1.005.451.019.907.016,1.36.011l3.935,0v6.53l-1.914-.005c-1.014-.005-2-.011-2.987.012a1.146,1.146,0,0,0-.919.4.877.877,0,0,0-.118.773c.1.376.314.762,1.147.765.978,0,1.956,0,2.962,0h1.915V60.6c0,2.394,0,2.394,2.421,2.394H33.146v6.626c0,1.808-.005,3.617.011,5.425A1.323,1.323,0,0,0,33.5,76a.859.859,0,0,0,.658.238c.8-.026.925-.749.926-1.178q.021-6.211,0-12.425a1.387,1.387,0,0,0-1.53-1.574c-.9-.035-1.812-.028-2.723-.022l-3.95,0V52.267h3.343c1.282,0,2.556.007,3.833-.014a.921.921,0,0,0,1.022-.954.935.935,0,0,0-1.022-.97c-.852-.028-1.7-.022-2.552-.016l-4.686,0,0-1.888c0-.959,0-1.871,0-2.784,0-.5-.137-1.337-.976-1.339h0c-.831,0-.962.837-.965,1.337-.006.947,0,1.9,0,2.848v1.763H18.539V44.394q0-5.725,0-11.448c0-1.542-.4-1.942-1.954-1.943q-3.362,0-6.725,0Q6.1,31,2.347,31C.53,31,0,31.538,0,33.386m18.591,18.94h6.221V60.96H18.592Z" transform="translate(0 1.836)" fill="#ffc810"/>
      <path id="Path_10918" data-name="Path 10918" d="M6.244,68.531q-.014,2.653,0,5.308c.006,1.579.588,2.169,2.148,2.172q3.114.006,6.228,0h5.4q3.057,0,6.11-.005a1.725,1.725,0,0,0,1.975-1.942c.025-1.944.024-3.862,0-5.7-.017-1.325-.631-1.917-1.99-1.919q-8.921-.016-17.84,0c-1.435,0-2.023.6-2.031,2.082m12.012-.093H26.1v5.576H18.256Zm-10.019.021h7.916v5.557H8.237Z" transform="translate(0.369 3.935)" fill="#ffc810"/>
      <path id="Path_10919" data-name="Path 10919" d="M6.247,82.709c-.015,1.8-.01,3.6,0,5.405.006,1.61.549,2.156,2.151,2.163,1.96.011,3.922.005,5.888.006l11.346,0c2.065,0,2.483-.427,2.484-2.529l0-1.3c0-1.266.008-2.533-.01-3.8a1.7,1.7,0,0,0-1.892-1.922q-4.562-.017-9.123-.018-4.458,0-8.913.017c-1.308,0-1.922.636-1.932,1.986m12.006.013h7.854v5.555H18.253Zm-10.03-.06,1.6,0c.812,0,1.612-.008,2.415.008.769.017,1.536.055,2.3.093l1.551.071.125,3.863c.006.222,0,.445,0,.686l0,.892h-8Z" transform="translate(0.369 4.78)" fill="#ffc810"/>
    </g>
  </g>
</svg>
