<svg id="Group_4361" data-name="Group 4361" xmlns="http://www.w3.org/2000/svg" xmlns:xlink="http://www.w3.org/1999/xlink" width="98.685" height="99.646" viewBox="0 0 98.685 99.646">
  <defs>
    <clipPath id="clip-path">
      <rect id="Rectangle_2905" data-name="Rectangle 2905" width="98.685" height="99.646" fill="none"/>
    </clipPath>
  </defs>
  <g id="Group_4361-2" data-name="Group 4361" transform="translate(0 0)" clip-path="url(#clip-path)">
    <path id="Path_10901" data-name="Path 10901" d="M88.085,99.539a5.358,5.358,0,0,0,5.782-3.914c.042-.141.1-.277.152-.414l.029-.073V1H92.209C82.421,7.715,77.262,16.964,76.876,28.492c-.213,6.392-.156,12.907-.1,19.207.02,2.407.041,4.814.049,7.221a9.084,9.084,0,0,0,2.594,6.405c1.155,1.221,2.2,2.27,3.206,3.211a2.487,2.487,0,0,1,.818,2q-.03,13.807-.007,27.612a5.313,5.313,0,0,0,4.651,5.389M82.817,60.766l-1.081-1.088a6.956,6.956,0,0,1-2.1-5.092q0-4.3-.008-8.607c-.011-5.437-.02-11.059.028-16.59A30.9,30.9,0,0,1,88.928,7.283c.261-.264.539-.512.87-.809l1.417-1.286V93.65a5.734,5.734,0,0,1-.041.983,2.49,2.49,0,0,1-2.4,2.1h-.038a2.476,2.476,0,0,1-2.442-2.15,5.846,5.846,0,0,1-.034-.9l0-.246v-5.6q0-11.206.017-22.413a2.628,2.628,0,0,0-.873-2.1c-.882-.834-1.734-1.7-2.586-2.559" transform="translate(4.638 0.061)"/>
    <path id="Path_10902" data-name="Path 10902" d="M8.2.5A2.638,2.638,0,0,0,6.813,3.145c.046,6.388.021,12.775.021,19.163v1.1h-3.5v-1c0-6.42-.022-12.84.022-19.26A2.644,2.644,0,0,0,1.969.5Z" transform="translate(0.119 0.03)" fill="#fff"/>
    <path id="Path_10903" data-name="Path 10903" d="M8.2.5A2.638,2.638,0,0,0,6.813,3.145c.046,6.388.021,12.775.021,19.163v1.1h-3.5v-1c0-6.42-.022-12.84.022-19.26A2.644,2.644,0,0,0,1.969.5Z" transform="translate(0.119 0.03)" fill="none" stroke="#fff" stroke-miterlimit="10" stroke-width="1"/>
    <path id="Path_10904" data-name="Path 10904" d="M15.172.5a2.637,2.637,0,0,0-1.384,2.645c.045,6.388.021,12.775.021,19.163v1.1h-3.5v-1c0-6.42-.023-12.84.021-19.26A2.645,2.645,0,0,0,8.944.5Z" transform="translate(0.541 0.03)" fill="#fff"/>
    <path id="Path_10905" data-name="Path 10905" d="M15.172.5a2.637,2.637,0,0,0-1.384,2.645c.045,6.388.021,12.775.021,19.163v1.1h-3.5v-1c0-6.42-.023-12.84.021-19.26A2.645,2.645,0,0,0,8.944.5Z" transform="translate(0.541 0.03)" fill="none" stroke="#fff" stroke-miterlimit="10" stroke-width="1"/>
    <path id="Path_10906" data-name="Path 10906" d="M25.1,25.678q0-3.721,0-7.442c0-5.041-.005-10.083.022-15.123A2.142,2.142,0,0,0,24.133,1h-.865a2.327,2.327,0,0,0-.241.173,2.181,2.181,0,0,0-.2.159,1.755,1.755,0,0,0-.2.274,1.781,1.781,0,0,0-.127.189,2.142,2.142,0,0,0-.128.391c-.017.067-.046.122-.058.193a4.058,4.058,0,0,0-.057.734c.034,4.755.03,9.512.025,14.269l0,6.527H17.71l0-6.509c0-4.764-.01-9.525.024-14.287a4.054,4.054,0,0,0-.057-.733c-.013-.071-.041-.127-.059-.194a2.157,2.157,0,0,0-.127-.39,1.8,1.8,0,0,0-.128-.19,1.731,1.731,0,0,0-.2-.271,2.108,2.108,0,0,0-.206-.163A2.433,2.433,0,0,0,16.714,1h-.865a2.134,2.134,0,0,0-.993,2.112c.033,4.773.029,9.546.024,14.32l0,6.476H10.312l0-6.4c0-4.8-.008-9.6.024-14.395A2.137,2.137,0,0,0,9.34,1H8.453a2.135,2.135,0,0,0-.994,2.112c.033,4.737.028,9.476.023,14.214l0,6.582H2.916l0-6.459c0-4.779-.008-9.559.023-14.337A2.136,2.136,0,0,0,1.944,1H1.065a1.948,1.948,0,0,0-1,1.821C.081,5.98.076,9.14.072,12.3.066,16.842.061,21.54.105,26.158a10.965,10.965,0,0,0,6.01,10A2.035,2.035,0,0,1,7.3,38.174q-.029,24.551-.016,49.1v6.416c0,.288,0,.576.011.864a5.369,5.369,0,0,0,4.853,5,5.261,5.261,0,0,0,5.577-4.038,8.531,8.531,0,0,0,.171-1.906q.011-20.362.008-40.725V38.081l0-.142a1.528,1.528,0,0,1,.841-1.6A11.323,11.323,0,0,0,25.1,25.678m-8.408,8.5c-1.548.6-1.624.713-1.624,2.365V93.45a3.634,3.634,0,0,1-.847,2.671,2.218,2.218,0,0,1-1.615.614h-.058c-.909-.016-2.432-.461-2.432-3.257V36.569c0-1.69-.048-1.759-1.692-2.427a8.565,8.565,0,0,1-5.415-6.674l-.134-.638H22.341l-.185.671c-.054.2-.1.391-.147.58a8.906,8.906,0,0,1-.367,1.238A8.443,8.443,0,0,1,16.7,34.176" transform="translate(0.004 0.061)"/>
    <path id="Path_10907" data-name="Path 10907" d="M48.116,21.921a27.146,27.146,0,1,0,19.177,7.971,27.144,27.144,0,0,0-19.177-7.971M65.284,66.157a24.115,24.115,0,0,1-17.162,7.136h-.005a24.27,24.27,0,0,1,0-48.54h.038a24.252,24.252,0,0,1,17.126,41.4" transform="translate(1.27 1.325)" fill="#ffc810"/>
    <path id="Path_10908" data-name="Path 10908" d="M73.606,68.086A33.6,33.6,0,0,1,36.637,78.231a40.568,40.568,0,0,1-5.161-2.409c-.626-.329-1.252-.659-1.883-.973a2.383,2.383,0,0,0-1.03-.309.791.791,0,0,0-.607.255,2.048,2.048,0,0,0-.6,1.38,2.279,2.279,0,0,0,1,1.217,36.573,36.573,0,0,0,19.753,5.584,35.53,35.53,0,0,0,23.127-8.567A47.507,47.507,0,0,0,75.685,69.9l.784-.864a1.291,1.291,0,0,0,.357-.986,1.452,1.452,0,0,0-.562-1,1.38,1.38,0,0,0-1.983.249c-.181.192-.35.4-.52.6Z" transform="translate(1.653 4.034)" fill="#ffc810"/>
    <path id="Path_10909" data-name="Path 10909" d="M47.659,15.765a32.858,32.858,0,0,1,19.449,6.221,37.939,37.939,0,0,1,3.5,2.948c.462.424.927.847,1.4,1.26a1.537,1.537,0,0,0,1.861.313,1.332,1.332,0,0,0,.6-1.555,3.283,3.283,0,0,0-.766-1.064A35.97,35.97,0,0,0,48.492,12.9a37.628,37.628,0,0,0-17.2,3.814c-.476.239-1.524.912-.965,2.039a1.533,1.533,0,0,0,2.217.494A33.7,33.7,0,0,1,44.542,15.9q1.576-.13,3.117-.13" transform="translate(1.824 0.78)" fill="#ffc810"/>
    <path id="Path_10910" data-name="Path 10910" d="M23.168,69.639h-.014A1.417,1.417,0,0,0,21.748,71a1.462,1.462,0,0,0,.416,1.047,1.5,1.5,0,0,0,1.051.47,1.326,1.326,0,0,0,1.4-1.343,1.518,1.518,0,0,0-.427-1.088,1.428,1.428,0,0,0-1.017-.448" transform="translate(1.315 4.21)" fill="#ffc810"/>
    <path id="Path_10911" data-name="Path 10911" d="M30.183,47.773c-.007.9.228,1.981,1.376,2.029a1.44,1.44,0,0,0,1.464-1.519A14.489,14.489,0,0,1,41.7,35.095a1.774,1.774,0,0,0,.963-.967,1.32,1.32,0,0,0-.093-1.025,1.408,1.408,0,0,0-2.043-.565c-6.263,2.972-9.743,8.1-10.34,15.236" transform="translate(1.825 1.954)" fill="#ffc810"/>
    <path id="Path_10912" data-name="Path 10912" d="M46.631,31.107a1.469,1.469,0,0,0-1.038.405,1.45,1.45,0,0,0,0,2.017,1.442,1.442,0,0,0,1.021.4h.023a1.46,1.46,0,0,0,1.045-.443,1.379,1.379,0,0,0,.386-1,1.448,1.448,0,0,0-1.433-1.379" transform="translate(2.731 1.881)" fill="#ffc810"/>
  </g>
</svg>
