<svg xmlns="http://www.w3.org/2000/svg" xmlns:xlink="http://www.w3.org/1999/xlink" width="98.12" height="97.562" viewBox="0 0 98.12 97.562">
  <defs>
    <clipPath id="clip-path">
      <rect id="Rectangle_2906" data-name="Rectangle 2906" width="98.12" height="97.562" fill="none"/>
    </clipPath>
  </defs>
  <g id="Group_4362" data-name="Group 4362" transform="translate(0 0)">
    <g id="Group_4362-2" data-name="Group 4362" transform="translate(0 0.001)" clip-path="url(#clip-path)">
      <path id="Path_10913" data-name="Path 10913" d="M93.908,70.144c1.3-4.072,2.688-8.307,4.137-12.59.128-.378.127-.411-.3-.626-.933-.475-1.856-.966-2.781-1.457-.891-.474-1.78-.946-2.679-1.4a1.56,1.56,0,0,1-.955-1.574c.039-2.713.038-5.129,0-7.387a1.646,1.646,0,0,1,1.035-1.635c.758-.389,1.512-.79,2.265-1.19,1.031-.549,2.063-1.1,3.109-1.617.4-.2.438-.238.276-.719-1.5-4.432-2.825-8.487-4.063-12.4-.152-.484-.228-.532-.746-.448-.923.147-1.851.272-2.779.4-.972.131-1.944.263-2.912.418a2.027,2.027,0,0,1-2.223-.948l-.244-.36a41.945,41.945,0,0,0-3.072-4.135,3.339,3.339,0,0,1-.418-4.484,33.541,33.541,0,0,0,1.75-3.423c.179-.387.359-.775.544-1.16L72.369,5.155l-1,.955c-1.32,1.26-2.566,2.45-3.866,3.624a2.014,2.014,0,0,1-1.724.406c-2.42-.724-4.858-1.513-7.248-2.348a1.99,1.99,0,0,1-1.137-1.339c-.363-1.73-.685-3.5-1-5.215L56.169,0H41.974L41.7,1.495c-.308,1.637-.6,3.183-.847,4.769A1.857,1.857,0,0,1,39.4,7.934L39.164,8c-1.947.587-3.961,1.194-5.89,1.909a2.689,2.689,0,0,1-3.321-.754C28.978,8.1,27.891,7.1,26.84,6.128c-.35-.323-.7-.648-1.05-.975L14.3,13.417l.672,1.378c.742,1.521,1.465,3.006,2.214,4.477a1.7,1.7,0,0,1-.178,2.025l-.124.164c-1.287,1.679-2.617,3.416-3.8,5.2a2.52,2.52,0,0,1-2.906,1.2c-1.426-.25-2.839-.431-4.337-.623-.484-.063-.972-.125-1.463-.191L0,40.413l1.361.722c1.519.807,2.984,1.587,4.462,2.342a1.656,1.656,0,0,1,.993,1.66c-.034,2.378-.059,4.709.01,7.072a1.964,1.964,0,0,1-1.262,2.033c-1.426.714-2.833,1.468-4.24,2.223L0,57.17a.854.854,0,0,0,.026.123l1.217,3.694q1.53,4.637,3.039,9.281c.09.272.093.28.406.233.8-.114,1.592-.22,2.388-.326,1.2-.16,2.408-.321,3.607-.509a1.965,1.965,0,0,1,2.134.9c1.28,1.825,2.628,3.663,4.122,5.617a1.841,1.841,0,0,1,.207,2.2C16.4,79.832,15.7,81.3,14.98,82.78l-.673,1.39L25.79,92.424l1.063-1.005c1.262-1.191,2.5-2.362,3.72-3.555a1.677,1.677,0,0,1,1.88-.443c2.136.712,4.434,1.451,7.025,2.258A1.721,1.721,0,0,1,40.822,91.2c.268,1.67.587,3.358.9,4.991l.26,1.377H56.174l.229-1.257c.323-1.779.64-3.524,1-5.262a1.885,1.885,0,0,1,1.109-1.256c1.208-.415,2.423-.806,3.638-1.2,1.131-.364,2.261-.727,3.383-1.11a1.868,1.868,0,0,1,2.154.475c1.164,1.155,2.357,2.278,3.564,3.415l1.118,1.055,11.479-8.254L83.2,82.834c-.753-1.545-1.494-3.063-2.257-4.571a1.635,1.635,0,0,1,.171-1.934c.686-.9,1.357-1.821,2.029-2.738.787-1.074,1.574-2.148,2.385-3.205a2.006,2.006,0,0,1,1.631-.707c2.034.21,4.06.5,6.132.806.454.068.5.045.622-.341M92.22,68.037l-2.2-.283c-1.463-.185-2.976-.375-4.452-.609-.369-.064-.493,0-.755.36-2.553,3.509-4.684,6.4-6.707,9.112a.62.62,0,0,0-.065.822c.679,1.327,1.329,2.666,1.993,4.038l.963,1.976L72.573,89.51,70.969,88c-1.067-1-2.17-2.031-3.216-3.079a.775.775,0,0,0-.993-.207c-3.37,1.112-6.887,2.244-10.752,3.462-.366.116-.466.236-.532.645-.238,1.47-.515,2.933-.795,4.409l-.4,2.111H43.865l-.4-2.108c-.275-1.441-.559-2.932-.792-4.4-.065-.418-.176-.538-.624-.68-3.737-1.173-7.387-2.349-10.85-3.493-.316-.105-.44-.075-.718.2C29.4,85.911,28.3,86.947,27.187,88l-1.6,1.511-8.425-6.059.96-1.972c.662-1.364,1.311-2.7,1.985-4.027a.619.619,0,0,0-.046-.824c-2.115-2.825-4.327-5.832-6.766-9.2a.567.567,0,0,0-.695-.284c-1.477.227-2.96.42-4.491.62l-2.169.286L2.727,58.282l1.91-1.022c1.31-.7,2.611-1.4,3.929-2.07a.709.709,0,0,0,.5-.782c-.031-3.574-.031-7.349,0-11.217a.707.707,0,0,0-.482-.793c-1.3-.653-2.583-1.341-3.906-2.05L2.73,39.307l3.2-9.774,2.143.278c1.481.188,3.013.384,4.509.623.371.063.5,0,.757-.357,2.412-3.32,4.6-6.3,6.705-9.112a.615.615,0,0,0,.068-.821c-.672-1.314-1.316-2.643-1.975-4l-.98-2.014,8.424-6.06,1.6,1.508c1.112,1.045,2.212,2.078,3.286,3.138a.639.639,0,0,0,.818.178c3.151-1.037,6.891-2.258,10.755-3.459.45-.14.572-.285.65-.775.23-1.434.5-2.862.77-4.3l.4-2.119H54.286l.4,2.123c.278,1.464.556,2.92.788,4.385.065.419.175.539.618.677C59.33,10.436,63,11.58,66.558,12.8a1.1,1.1,0,0,0,1.409-.344c.978-.991,1.971-1.917,3.022-2.9.42-.393.844-.788,1.268-1.19l.313-.3,8.418,6.047-.928,1.914c-.666,1.378-1.329,2.745-2.015,4.1a.616.616,0,0,0,.049.823c2.174,2.908,4.387,5.916,6.766,9.2a.565.565,0,0,0,.695.278c1.459-.221,2.92-.408,4.427-.6l2.229-.289L95.428,39.3l-1.911,1.024c-1.28.689-2.551,1.373-3.84,2.022-.486.246-.6.428-.6.926.045,3.556.045,7.263,0,11.016a.842.842,0,0,0,.586.931c1.269.638,2.521,1.31,3.808,2l1.947,1.041Z" transform="translate(0 -0.001)"/>
      <path id="Path_10914" data-name="Path 10914" d="M48.5,14.146h-.05a34.036,34.036,0,0,0-.083,68.072h.117A34.036,34.036,0,0,0,48.5,14.146M70.935,70.622a31.572,31.572,0,0,1-22.452,9.347h-.034a31.788,31.788,0,0,1-.02-63.576h.029A31.766,31.766,0,0,1,70.935,70.622" transform="translate(0.62 0.607)"/>
      <path id="Path_10915" data-name="Path 10915" d="M66.185,32.477q-7.868-4.549-15.708-9.152a5.023,5.023,0,0,0-2.563-.771,4.972,4.972,0,0,0-2.54.762q-7.882,4.631-15.79,9.21a4.668,4.668,0,0,0-2.548,4.43c.021,2.535.016,5.07.013,7.606l-.005,3.191c0,1.064.005,2.127.008,3.191.009,2.46.019,5.005-.023,7.509a4.941,4.941,0,0,0,2.7,4.755c4.635,2.663,9.569,5.54,15.528,9.057a4.784,4.784,0,0,0,5.288.017q7.792-4.581,15.615-9.106a4.853,4.853,0,0,0,2.632-4.6c-.033-7.38-.033-14.61,0-21.492a4.854,4.854,0,0,0-2.611-4.611m-19.4,38.064L33.536,62.808q-1.482-.87-2.967-1.729a2.4,2.4,0,0,1-1.281-2.216q.009-6.561.006-13.119V38.09a2.378,2.378,0,0,1,.034-.351l.128-1.028.684.4c.267.155.529.3.786.451.712.4,1.382.784,2.026,1.234a1.822,1.822,0,0,1,.534,1.413c.011.992.011,1.984.011,2.976,0,1.338,0,2.675.026,4.013a1.026,1.026,0,0,0,.268.631c2.434,1.479,4.936,2.942,7.355,4.359l1.187.7V44.289l1.585.881c.871.481,1.664.92,2.442,1.38a1.134,1.134,0,0,1,.418.99c.007,6.076.006,12.154.006,18.346ZM37.4,41.348c.758.436,1.448.832,2.12,1.251a1.328,1.328,0,0,1,.551,1.021c.019,1.049.017,2.1.014,3.244v2.1l-1.631-.972c-.784-.466-1.5-.892-2.2-1.329a1.086,1.086,0,0,1-.475-.861c-.014-1.1-.013-2.2-.011-3.393V40.4Zm-.186-2.733,1.81-1.093c1.136-.687,2.226-1.348,3.33-1.98a1.44,1.44,0,0,1,1.24.1c.54.291,1.07.606,1.666.962l1.5.884-1.83,1.1c-1.131.682-2.2,1.326-3.278,1.943a1,1,0,0,1-.5.118,1.669,1.669,0,0,1-.738-.18c-.567-.3-1.12-.63-1.724-.989Zm10.655,5.842a2.806,2.806,0,0,1-1.6-.538c-.448-.307-.923-.577-1.426-.864-.243-.139-.493-.282-.75-.433l-.751-.445,7.816-4.71L50,36.789c-2.4-1.412-4.724-2.784-7.07-4.123a1.975,1.975,0,0,0-.46.178C40.429,34.038,38.24,35.33,36.06,36.7a1.838,1.838,0,0,1-2.219-.019c-.534-.358-1.108-.686-1.717-1.033-.277-.157-.562-.321-.859-.494l-.7-.409.938-.67a6.076,6.076,0,0,1,.531-.364l4.75-2.771q4.811-2.8,9.612-5.616a2.627,2.627,0,0,1,2.84-.12l14.979,8.755a1.371,1.371,0,0,1,.26.207l.627.555-.8.552c-.183.129-.355.249-.536.356l-4.271,2.494q-4.958,2.891-9.9,5.8a3.4,3.4,0,0,1-1.724.537M65.351,61.028,49.127,70.5V46.765l17.26-10.056.1,1.18c.023.234.043.433.044.634v6.262q0,6.885.01,13.771a2.583,2.583,0,0,1-1.193,2.472" transform="translate(1.161 0.968)" fill="#ffc810"/>
    </g>
  </g>
</svg>
