<svg id="Group_4366" data-name="Group 4366" xmlns="http://www.w3.org/2000/svg" xmlns:xlink="http://www.w3.org/1999/xlink" width="105.796" height="105.797" viewBox="0 0 105.796 105.797">
  <defs>
    <clipPath id="clip-path">
      <rect id="Rectangle_2921" data-name="Rectangle 2921" width="105.796" height="105.797" fill="none"/>
    </clipPath>
  </defs>
  <g id="Group_4366-2" data-name="Group 4366" clip-path="url(#clip-path)">
    <path id="Path_10928" data-name="Path 10928" d="M25.457,85.691c-.5-.137-1-.248-1.485-.414a8.763,8.763,0,0,1-6.048-6.67c-.1-.417-.185-.723-.681-.893a5.026,5.026,0,0,1-.075-9.441.842.842,0,0,0,.648-.875A21.169,21.169,0,0,1,24.27,53.723a20.258,20.258,0,0,1,12.6-5.965,38.75,38.75,0,0,1,13.055.554,2.976,2.976,0,0,0,.423.029c-.267-5.738-.533-11.447-.8-17.282-.761,0-1.478.01-2.194,0-1.241-.02-1.676-.461-1.684-1.717q-.015-2.109,0-4.22c.01-1.247.448-1.67,1.712-1.673,2.264-.005,4.527,0,6.885,0-.354-1.679-.687-3.276-1.029-4.871q-1.185-5.534-2.378-11.064c-.211-.982.158-1.68.952-1.834.734-.142,1.309.327,1.522,1.309C54.461,12.2,55.6,17.408,56.682,22.63c.147.708.439.829,1.079.828q15.831-.027,31.661-.012c1.683,0,2.01.326,2.011,2q0,1.877,0,3.752c0,1.459-.378,1.833-1.854,1.863-.229,0-.458.026-.736.042-.061,1.079-.129,2.114-.177,3.149Q88.007,48.579,87.354,62.9,86.885,73.13,86.4,83.357c-.041.873.024,1.8-.9,2.334ZM56.829,51.413a12.74,12.74,0,0,1,24.4,5.834,12.476,12.476,0,0,1-3.344,7.811A12.683,12.683,0,0,1,68.2,69.175c.15.208.231.33.322.444a5.05,5.05,0,0,1-2.159,8.172,1.025,1.025,0,0,0-.507.658,9.031,9.031,0,0,1-2.081,4.221,3.616,3.616,0,0,0-.284.446H83.857l2.416-51.943H52.1c.087,1.915.168,3.762.255,5.608.188,3.981.369,7.962.588,11.941a1.188,1.188,0,0,0,.486.829c1.092.651,2.228,1.229,3.4,1.862m6.63,16.418c-.17-1.017-.257-1.983-.5-2.909-1.875-7.215-6.37-11.981-13.528-14.09-4.015-1.182-8.182-.924-12.266-.544a18.1,18.1,0,0,0-13,7.374,18.548,18.548,0,0,0-3.843,10.169Zm15.256-11.57c-.042-.4-.066-1-.173-1.586a10.165,10.165,0,0,0-19.305-2.267.987.987,0,0,0,.225,1.342A20.717,20.717,0,0,1,65.64,65.488c.117.724.512.867,1.073.969a10.218,10.218,0,0,0,12-10.2M41.924,70.5H19.1a2.448,2.448,0,0,0-2.572,1.929,2.541,2.541,0,0,0,2.683,3.1q9.574.013,19.15,0,12.977,0,25.951,0c1.789,0,2.916-.982,2.95-2.516a2.627,2.627,0,0,0-2.9-2.547c-7.477.075-14.956.03-22.434.03M20.408,78.137a11.047,11.047,0,0,0,.415,1.221,6.369,6.369,0,0,0,6.2,3.8q13.832.012,27.663,0c1.119,0,2.241-.03,3.356-.117a6.056,6.056,0,0,0,5.168-4.9Zm27.863-49.7H88.832V26.011H48.271Z"/>
    <rect id="Rectangle_2916" data-name="Rectangle 2916" width="2.415" height="2.469" transform="translate(50.837 60.324)"/>
    <rect id="Rectangle_2917" data-name="Rectangle 2917" width="2.451" height="2.457" transform="translate(27.943 60.327)"/>
    <rect id="Rectangle_2918" data-name="Rectangle 2918" width="2.452" height="2.421" transform="translate(43.184 53.99)"/>
    <rect id="Rectangle_2919" data-name="Rectangle 2919" width="2.435" height="2.447" transform="translate(29.22 55.246)"/>
    <rect id="Rectangle_2920" data-name="Rectangle 2920" width="2.425" height="2.43" transform="translate(39.403 61.632)"/>
    <path id="Path_10929" data-name="Path 10929" d="M90.321,15.476a52.9,52.9,0,1,0,0,74.845,52.983,52.983,0,0,0,0-74.845M17.243,17.243a50.455,50.455,0,0,1,70.4-.861L16.382,87.647a50.475,50.475,0,0,1,.861-70.4m71.31,71.31a50.475,50.475,0,0,1-70.4.861L89.414,18.15a50.473,50.473,0,0,1-.861,70.4" fill="#ffc810"/>
  </g>
</svg>
