<svg xmlns="http://www.w3.org/2000/svg" xmlns:xlink="http://www.w3.org/1999/xlink" width="117.173" height="90.745" viewBox="0 0 117.173 90.745">
  <defs>
    <clipPath id="clip-path">
      <rect id="Rectangle_2926" data-name="Rectangle 2926" width="117.174" height="90.745" fill="none"/>
    </clipPath>
  </defs>
  <g id="Group_4372" data-name="Group 4372" transform="translate(0 0)">
    <g id="Group_4372-2" data-name="Group 4372" transform="translate(0 0)" clip-path="url(#clip-path)">
      <path id="Path_10948" data-name="Path 10948" d="M.269,64.268C.181,63.582.094,62.9,0,62.209l.018-7.295a7.453,7.453,0,0,0,.166-.8c.107-.771.2-1.546.3-2.322.187-1.543.366-3,.644-4.455A58.592,58.592,0,0,1,58.259,0a56.733,56.733,0,0,1,9.314.772C87.807,4.137,102.661,15.351,111.721,34.1a56.092,56.092,0,0,1,4.784,33.075,58.117,58.117,0,0,1-7.021,20.4c-.4.7-1.268,1.771-2.6,1.037-2.946-1.625-6.134-3.465-10.03-5.785a1.723,1.723,0,0,1-.785-1.931,1.828,1.828,0,0,1,1.031-1.28,1.949,1.949,0,0,1,1.747.126c1.521.833,3,1.689,4.559,2.6q1.023.593,2.062,1.19l1.554.892.781-1.612a54.093,54.093,0,0,0,5.471-20.571l.111-1.775-5.1,0c-1.426,0-2.852.008-4.279-.021a1.788,1.788,0,0,1-1.891-1.819,1.828,1.828,0,0,1,1.875-1.869c1.134-.038,2.3-.03,3.436-.021.523,0,1.051,0,1.568.008h4.414l-.121-1.784a53.772,53.772,0,0,0-5.514-20.548l-.79-1.6-3.55,2.051c-1.527.884-3.015,1.745-4.508,2.6a1.777,1.777,0,0,1-2.052,0,1.668,1.668,0,0,1-.837-1.676,1.914,1.914,0,0,1,1.177-1.641c1.464-.834,2.92-1.68,4.4-2.539l3.516-2.037-1.011-1.487a54.8,54.8,0,0,0-15.022-15l-1.454-.976-1.2,1.982c-.2.329-.383.627-.56.932-.332.572-.661,1.149-.989,1.724-.667,1.166-1.354,2.372-2.061,3.524a1.791,1.791,0,0,1-2.047.84,1.682,1.682,0,0,1-1.313-1.5,3.717,3.717,0,0,1,.452-1.648c.784-1.477,1.622-2.908,2.509-4.421q.523-.891,1.05-1.8l.9-1.553L82.774,9.4A54.19,54.19,0,0,0,62.217,3.9l-1.781-.117,0,5c.006,1.457.011,2.913-.013,4.369a1.964,1.964,0,0,1-.671,1.513,1.884,1.884,0,0,1-1.546.372,1.858,1.858,0,0,1-1.487-2c-.013-1.7-.011-3.405-.008-5.145l0-4.121-1.784.12A54.018,54.018,0,0,0,34.411,9.386l-1.552.762,1.029,1.934c.153.292.3.562.447.828q.533.927,1.073,1.847c.7,1.2,1.4,2.4,2.072,3.625A1.842,1.842,0,1,1,34.3,20.248c-.569-.9-1.115-1.861-1.644-2.79-.27-.475-.541-.949-.816-1.421-.315-.54-.634-1.078-.962-1.63L29.5,12.074l-1.473,1A54.7,54.7,0,0,0,13.047,28.09l-.968,1.448,1.949,1.192c.291.18.545.337.8.486q.887.513,1.781,1.017c1.215.69,2.471,1.4,3.662,2.142a1.8,1.8,0,0,1,.606,2.481,1.818,1.818,0,0,1-2.409.707c-.8-.4-1.572-.852-2.39-1.334-.369-.217-.736-.433-1.107-.645l-4.838-2.767-.78,1.611a53.73,53.73,0,0,0-5.47,20.53L3.779,56.73l4.116,0c1.728-.007,3.4-.012,5.071.012a1.9,1.9,0,0,1,2.069,1.742,1.834,1.834,0,0,1-.472,1.388,1.906,1.906,0,0,1-1.407.569c-1.739.022-3.48.017-5.212.012l-3.751,0-.159,1.494C3.541,66.542,6.873,79.13,9.6,82.983l.88,1.24,3.3-1.9c1.467-.851,2.936-1.7,4.418-2.53a1.887,1.887,0,0,1,2.677.562,1.765,1.765,0,0,1,.218,1.359A2.176,2.176,0,0,1,20.029,83c-3.327,1.947-6.417,3.73-9.448,5.452a1.854,1.854,0,0,1-2.847-.769,57.387,57.387,0,0,1-6.8-18.8c-.264-1.519-.465-3.1-.661-4.619" transform="translate(0 0)"/>
      <path id="Path_10949" data-name="Path 10949" d="M48.066,72.8a1.923,1.923,0,0,0,2.8-.172c.377-.366.747-.741,1.116-1.115.676-.687,1.376-1.4,2.127-2.067a3.183,3.183,0,0,1,2.058-.735,2.692,2.692,0,0,1,.892.144c4.084,1.448,7.455.757,10.3-2.1,2.812-2.826,3.5-6.247,2.041-10.17a2.836,2.836,0,0,1,.762-3.265q4.044-4.031,8.078-8.069Q82.073,41.426,85.9,37.6a1.906,1.906,0,0,0,.644-2.029,1.647,1.647,0,0,0-1.353-1.281c-.527-.128-1.135-.119-2.025.774q-2.812,2.822-5.63,5.636-4.879,4.876-9.739,9.768a3.269,3.269,0,0,1-3.858.867,9.228,9.228,0,0,0-8.5,1,9.778,9.778,0,0,0-4.318,7.76c.075.3.152.592.23.888.257.984.521,2,.73,3.039a3.313,3.313,0,0,1-.649,2.726c-.654.733-1.347,1.417-2.018,2.079-.39.384-.78.768-1.16,1.16a1.916,1.916,0,0,0-.191,2.806m6.97-12.687a5.66,5.66,0,0,1,1.718-4.04A5.783,5.783,0,0,1,60.8,54.447a5.635,5.635,0,0,1,3.985,1.727A5.7,5.7,0,0,1,66.4,60.261a5.627,5.627,0,0,1-5.677,5.562h0a5.642,5.642,0,0,1-5.682-5.71Z" transform="translate(-2.141 -1.541)" fill="#ffc810"/>
      <path id="Path_10950" data-name="Path 10950" d="M47.667,92.312A1.663,1.663,0,0,1,49.4,91.133q4.009-.02,8.02-.009l4.93,0v-.009h1.6l3.262,0q2.315,0,4.629.013a1.825,1.825,0,0,1,2.062,1.847,1.863,1.863,0,0,1-2.088,1.856l-1.961,0c-6.635.015-13.5.032-20.237-.048a3.087,3.087,0,0,1-1.662-.714c-.182-.154-.737-.619-.281-1.761" transform="translate(-2.139 -4.103)" fill="#ffc810"/>
    </g>
  </g>
</svg>
