<svg id="Group_4364" data-name="Group 4364" xmlns="http://www.w3.org/2000/svg" xmlns:xlink="http://www.w3.org/1999/xlink" width="100.012" height="99.646" viewBox="0 0 100.012 99.646">
  <defs>
    <clipPath id="clip-path">
      <rect id="Rectangle_2908" data-name="Rectangle 2908" width="100.013" height="99.647" fill="none"/>
    </clipPath>
  </defs>
  <g id="Group_4364-2" data-name="Group 4364" transform="translate(0 0)" clip-path="url(#clip-path)">
    <path id="Path_10920" data-name="Path 10920" d="M57.931.01c-8.289-.22-14.7,3.2-19.089,10.183C25.154,31.984,13.921,49.951,3.491,66.736A32.359,32.359,0,0,0,.953,72.322L.7,72.995a11.031,11.031,0,0,0-.516,2.3c-.056.364-.113.729-.182,1.087V79.8c.18.69.336,1.39.494,2.089a28.559,28.559,0,0,0,1.269,4.486,20.988,20.988,0,0,0,22.01,12.58,20.514,20.514,0,0,0,15.186-9.975q14.222-22.7,28.428-45.409l7.01-11.2A20.727,20.727,0,0,0,76.891,14.8C74.582,6.738,66.253.24,57.931.01M52.8,61.111c-.1.19-.2.367-.31.538l-5.821,9.3q-5.139,8.2-10.268,16.408a17.541,17.541,0,0,1-11.338,8.276,18.745,18.745,0,0,1-4.02.44A18,18,0,0,1,3.1,76.908a17.239,17.239,0,0,1,2.691-8.193q7.176-11.484,14.368-22.959l2.088-3.336a4.559,4.559,0,0,1,.275-.379l.491-.648L53.242,60.316ZM72.039,30.389q-5.93,9.557-11.921,19.074l-4.528,7.222a4.529,4.529,0,0,1-.278.378l-.492.651-30.2-18.9.4-.765a5.68,5.68,0,0,1,.278-.507Q33.36,24.649,41.432,11.755A17.917,17.917,0,0,1,53.959,3.244c8.419-1.47,17.58,4.208,20.006,12.4a17.485,17.485,0,0,1-1.926,14.744" transform="translate(0 0)"/>
    <path id="Path_10921" data-name="Path 10921" d="M75.2,53.244h-.137a21.507,21.507,0,0,0,.006,43.015h.068A21.463,21.463,0,0,0,90.165,59.47,21.164,21.164,0,0,0,75.2,53.244M88.178,87.775a18.354,18.354,0,0,1-13.071,5.442h-.03a18.464,18.464,0,0,1,0-36.929H75.1A18.47,18.47,0,0,1,88.178,87.775" transform="translate(3.41 3.389)" fill="#ffc810"/>
    <path id="Path_10922" data-name="Path 10922" d="M15.413,80.939c-.156-.114-.314-.228-.467-.347a8.359,8.359,0,0,1-2.952-8.8,13.359,13.359,0,0,1,.636-1.677c.157-.366.317-.733.449-1.109a1.326,1.326,0,0,0-.153-1.225,1.753,1.753,0,0,0-1.445-.688h-.043c-.548,0-.983.566-1.253,1.046a11.409,11.409,0,0,0-.914,9.5,11.241,11.241,0,0,0,5.084,6.26A1.5,1.5,0,0,0,16.1,81.465c-.219-.187-.453-.356-.688-.527" transform="translate(0.55 4.27)"/>
    <path id="Path_10923" data-name="Path 10923" d="M64.911,18.97a23.623,23.623,0,0,0-.845-3.178,10.662,10.662,0,0,0-4.569-5.37,2.085,2.085,0,0,0-1.091-.337,1.523,1.523,0,0,0-.607.123,1.427,1.427,0,0,0-.819,1.082c-.132.681.152,1.2.949,1.735a8.562,8.562,0,0,1,3.489,4.3,8.681,8.681,0,0,1-.552,7.174c-.341.656-.741,1.849.421,2.478,1.123.611,1.909-.4,2.273-1.067a11.084,11.084,0,0,0,1.432-5.537l-.005-.5.116-.03c-.066-.287-.128-.578-.19-.866" transform="translate(3.625 0.642)"/>
    <path id="Path_10924" data-name="Path 10924" d="M73.5,72.408q-2.956,4.8-5.907,9.6a3.223,3.223,0,0,0-.445,1.043,1.494,1.494,0,0,0,2.809.862q5.538-8.93,11.029-17.892a3.422,3.422,0,0,0,.3-.764c.023-.077.046-.152.07-.227-.016-.06-.032-.119-.046-.175a3.327,3.327,0,0,0-.149-.489,1.329,1.329,0,0,0-1.235-.829c-.041,0-.081,0-.12,0-.6,0-1.039.32-1.5,1.077Z" transform="translate(4.273 4.043)" fill="#ffc810"/>
  </g>
</svg>
