<svg id="Group_4360" data-name="Group 4360" xmlns="http://www.w3.org/2000/svg" xmlns:xlink="http://www.w3.org/1999/xlink" width="96.263" height="96.223" viewBox="0 0 96.263 96.223">
  <defs>
    <clipPath id="clip-path">
      <rect id="Rectangle_2904" data-name="Rectangle 2904" width="96.263" height="96.223" transform="translate(0 0)" fill="none"/>
    </clipPath>
  </defs>
  <g id="Group_4360-2" data-name="Group 4360" clip-path="url(#clip-path)">
    <path id="Path_10898" data-name="Path 10898" d="M95.8,26.19q-.408-1.524-.812-3.052c-.773-2.923-1.573-5.945-2.451-8.887A34.564,34.564,0,0,1,90.749,1.742a1.916,1.916,0,0,0-.226-1.4C90.3.106,89.833,0,89,0H7.314C6.438,0,5.99.092,5.77.316s-.308.7-.289,1.57A31.759,31.759,0,0,1,4.375,11.913c-1.134,3.718-2.142,7.547-3.119,11.25C.841,24.739.426,26.315,0,27.888l.043,2.84a3.254,3.254,0,0,1,.147.478,10.421,10.421,0,0,0,5.287,7.131,10.3,10.3,0,0,0,8.757.47,10.432,10.432,0,0,0,4.841-4.029l.364-.541.318.57a10.621,10.621,0,0,0,9.061,5.547,10.843,10.843,0,0,0,9.458-5.167l.328-.527.343.517a10.583,10.583,0,0,0,9.133,5.174h.027A10.559,10.559,0,0,0,57.3,35.157l.332-.505.335.5c2.384,3.578,5.449,5.26,9.392,5.173,3.851-.095,6.91-1.972,9.092-5.578l.308-.51L77.32,35c.11.148.2.275.3.4a10.351,10.351,0,0,0,16.329.318A10.705,10.705,0,0,0,95.8,26.19M18.39,30.385a8.255,8.255,0,0,1-3.456,5.528,8.02,8.02,0,0,1-4.555,1.4,8.692,8.692,0,0,1-1.761-.183,7.888,7.888,0,0,1-5.141-3.611,8.151,8.151,0,0,1-.946-6.429C3.995,21.522,5.5,16.071,7.169,10.033a1.486,1.486,0,0,1,1.118-1.01c3.7-.037,7.387-.032,11.082-.025L20.98,9a1.258,1.258,0,0,1,.361.068l.494.125L21.369,12.1q-.561,3.507-1.125,6.989-.918,5.646-1.854,11.291m20.1-18.74c-.087,1.737-.172,3.45-.264,5.162l-.259,4.723c-.154,2.773-.308,5.545-.444,8.319A8.356,8.356,0,0,1,30.8,37.982a7.9,7.9,0,0,1-1.651.175,8.34,8.34,0,0,1-5.69-2.286,7.886,7.886,0,0,1-2.51-6.968c.67-4.519,1.419-9.116,2.144-13.562q.483-2.962.964-5.946l.053-.336H38.618ZM49.971,37.934a8.284,8.284,0,0,1-7.153-1.648,8.015,8.015,0,0,1-3.033-6.4c.053-2.987.234-6.017.408-8.947.079-1.308.157-2.616.224-3.923q.15-2.885.306-5.767c.021-.392.05-.784.08-1.189l.072-1.014H55.349l.175,3.085c.11,1.936.219,3.849.324,5.762l.174,3.093c.156,2.751.312,5.5.427,8.255a8.312,8.312,0,0,1-6.478,8.695M7.781,2.293H88.5v4.4H7.781ZM68.357,38.052a8.3,8.3,0,0,1-1.258.1,8.473,8.473,0,0,1-5.048-1.672,7.844,7.844,0,0,1-3.134-5.244c-.237-1.742-.316-3.525-.393-5.25-.029-.62-.056-1.24-.091-1.859-.194-3.444-.378-6.889-.565-10.375l-.252-4.709H72.1l.363,2.21q.3,1.8.589,3.607.326,2.013.656,4.025c.537,3.271,1.092,6.652,1.578,9.989a8.19,8.19,0,0,1-6.931,9.182m24.4-4.51a7.915,7.915,0,0,1-5.2,3.6,8.676,8.676,0,0,1-1.709.172,7.966,7.966,0,0,1-4.554-1.408,8.323,8.323,0,0,1-3.446-5.588L74.5,9.882a1.412,1.412,0,0,1-.011-.286l0-.6h7.31c1.975,0,3.951.005,5.927-.011A1.206,1.206,0,0,1,89.107,10q1.009,3.8,2.049,7.591c.859,3.156,1.717,6.313,2.548,9.476a8.181,8.181,0,0,1-.949,6.472" fill="#ffc810"/>
    <path id="Path_10899" data-name="Path 10899" d="M96.236,90.684q.006-.783.007-1.565c0-1.725-.214-1.942-1.9-1.943H90.77V44.037c0-.216,0-.432,0-.647-.033-.73-.411-1.168-1.037-1.2a1.105,1.105,0,0,0-1.184,1.142c-.018.212-.014.427-.011.642l0,.271V87.1H82.653V50.534c0-1.534-.249-1.784-1.779-1.785H62.678c-1.669,0-1.88.211-1.88,1.871V87.1H7.7l0-43.165a4.53,4.53,0,0,0-.028-.738,1.08,1.08,0,0,0-1.161-.985,1.059,1.059,0,0,0-1.038,1.1c-.014.217-.011.436-.008.655l0,.266V87.176h-.4c-.369,0-.723,0-1.069.009-.771.012-1.5.021-2.225-.025A1.912,1.912,0,0,0,0,87.85v8.373H95.563a1.952,1.952,0,0,0,.7-1.784c-.043-1.254-.033-2.525-.025-3.755M63.085,51.036H80.352V87.124H63.085ZM93.97,93.94H2.282V89.478H93.97Z"/>
    <path id="Path_10900" data-name="Path 10900" d="M51.721,48.751q-8.849,0-17.7,0l-16.681,0c-1.315,0-1.616.312-1.616,1.664V70.96c0,1.448.29,1.741,1.727,1.741H51.641c1.343,0,1.672-.318,1.673-1.616q.01-10.366,0-20.734c0-1.271-.329-1.6-1.593-1.6m-.7,21.679H18V51.042H51.021Z"/>
  </g>
</svg>
