<svg id="Group_4365" data-name="Group 4365" xmlns="http://www.w3.org/2000/svg" xmlns:xlink="http://www.w3.org/1999/xlink" width="99.644" height="99.647" viewBox="0 0 99.644 99.647">
  <defs>
    <clipPath id="clip-path">
      <rect id="Rectangle_2915" data-name="Rectangle 2915" width="99.644" height="99.647" fill="none"/>
    </clipPath>
  </defs>
  <g id="Group_4365-2" data-name="Group 4365" transform="translate(0 0)" clip-path="url(#clip-path)">
    <path id="Path_10925" data-name="Path 10925" d="M4.39,95.621a3.284,3.284,0,0,1,4.684.03,9.9,9.9,0,0,0,4.044,2.391h1.824a9.184,9.184,0,0,0,4-2.426,3.309,3.309,0,0,1,2.369-.973h0a3.314,3.314,0,0,1,2.37.975,9.036,9.036,0,0,0,3.992,2.424H29.5a9.788,9.788,0,0,0,4.039-2.395,3.266,3.266,0,0,1,4.686-.012,9.045,9.045,0,0,0,4,2.407h.4v-2.3c-.12-.046-.237-.087-.351-.127a3.615,3.615,0,0,1-1.315-.676,8.528,8.528,0,0,0-4.412-2.56l-.608-.1,2.383-6.712q2.013-5.634,4.019-11.271a1.931,1.931,0,0,0,.137-1.411c-.145-.3-.525-.541-1.2-.769l-.727-.253c-.636-.223-1.29-.453-1.94-.623a1.789,1.789,0,0,1-1.43-1.6q-.775-4.4-1.58-8.787-.615-3.384-1.223-6.769c-.34-1.906-.451-2-2.392-2H25.815l.006-2.027c.005-1.1.011-2.155-.014-3.211-.027-1.081-.408-1.448-1.514-1.457-1.372-.009-2.744-.008-4.116-.006l-1.483,0c-1.636,0-1.924.292-1.929,1.936v4.763H14.281c-1.417,0-2.789,0-4.16,0-1.286,0-1.593.258-1.821,1.514q-.725,3.97-1.441,7.94L5.9,66.836c-.062.341-.092.71-.125,1.078a4.574,4.574,0,0,1-.762,2.651,4.976,4.976,0,0,1-2.584,1.225c-.346.091-.692.181-1.011.293-.754.263-1.154.514-1.3.813a2.118,2.118,0,0,0,.174,1.492L6.5,91.811,4.978,92.7c-.822.473-1.6.924-2.367,1.4C2,94.486,1.4,94.909.753,95.37c-.241.171-.491.348-.752.531v2.141H.393a9.316,9.316,0,0,0,4-2.421m35.543-21.5-4.56,12.829c-.6,1.684-1.192,3.367-1.828,5.035a4.614,4.614,0,0,1-1.025,1.431,9.532,9.532,0,0,1-.853.784c-.173.147-.348.292-.514.448a3.705,3.705,0,0,1-2.543,1.061,3.973,3.973,0,0,1-2.574-1.018,15.54,15.54,0,0,0-1.562-1.125c-.46-.3-.918-.609-1.35-.945a1.966,1.966,0,0,1-.652-1.433c-.023-4.6-.022-9.2-.021-13.8v-9.1Zm-20.8-26.351h4.293V52H19.134Zm-8.622,6.688H32.084l2.809,15.517-6.219-2.054c-.625-.207-1.249-.42-1.872-.633-1.482-.505-3.014-1.028-4.536-1.467a3.646,3.646,0,0,0-1.959,0c-2.536.792-5.1,1.653-7.578,2.488L9.8,69.293c-.25.082-.5.154-.8.238L7.707,69.9ZM4.683,79.789,3.158,75.547c-.068-.189-.126-.385-.192-.613L2.714,74.1l17.41-5.808v6.6c0,5.394,0,10.789.019,16.184a1.823,1.823,0,0,1-1.17,1.85,10.04,10.04,0,0,0-2.244,1.63,3.8,3.8,0,0,1-2.6,1.1,4.62,4.62,0,0,1-2.719-1.009A9.574,9.574,0,0,1,8.166,89.58c-1.136-3.273-2.31-6.532-3.483-9.79" transform="translate(0 1.605)"/>
    <path id="Path_10926" data-name="Path 10926" d="M89.686,95.472a2.93,2.93,0,0,0,.778-1.08c.5-2.124,2.233-1.991,3.168-1.924.479.037.959.027,1.47.018.419-.006.84-.012,1.259,0a1.554,1.554,0,0,0,1.676-.854V77.519q-.655-1.3-1.319-2.588c-1.155-2.258-2.35-4.594-3.468-6.922a2.011,2.011,0,0,0-2.2-1.34c-1.933.055-3.893.045-5.79.032-.793,0-1.585-.009-2.377-.009H81.272l0-2.032c0-1.047.006-2.046-.006-3.046-.017-1.262-.382-1.627-1.632-1.628q-16.307-.009-32.614,0c-1.283,0-1.635.345-1.636,1.6q-.006,14.638,0,29.274c0,1.261.35,1.609,1.622,1.62,1.92.016,3.8.027,5.683-.009a1.577,1.577,0,0,1,1.523.968,12.583,12.583,0,0,0,2.2,2.856,5.84,5.84,0,0,0,1.721.9c.275.109.55.216.814.338h1.8c2.422-.544,3.96-1.687,4.706-3.5a2.253,2.253,0,0,1,2.511-1.576c1.863.038,3.724.033,5.594.035,1.442,0,2.881,0,4.323.014a1.713,1.713,0,0,1,1.431.86,6.156,6.156,0,0,0,4.587,4.01.758.758,0,0,1,.3.151h1.714a6.8,6.8,0,0,0,3.539-1.8ZM62.616,94.124a3.841,3.841,0,0,1-2.66,1.079h-.107a3.839,3.839,0,0,1-3.734-3.927h0a3.81,3.81,0,0,1,3.846-3.8h0a3.916,3.916,0,0,1,2.78,1.18,3.765,3.765,0,0,1,1.094,2.732,3.867,3.867,0,0,1-1.223,2.733m16.269-3.974-7.554,0q-.682,0-1.38,0c-.945,0-1.9-.006-2.849-.036a1.7,1.7,0,0,1-1.341-.932,6.241,6.241,0,0,0-5.8-4.029h-.028a6.148,6.148,0,0,0-5.743,4,1.529,1.529,0,0,1-1.139.954c-1.187.041-2.348.038-3.579.033l-1.709,0V62.374H78.884ZM88.07,69.015l1.007,0c.487,0,.991-.008,1.494.019a1.138,1.138,0,0,1,.856.6c.833,1.642,1.656,3.288,2.516,5.011l1.036,2.074H88.07Zm-.213,25.039a3.918,3.918,0,0,1-2.742,1.15h-.024a3.771,3.771,0,0,1-2.7-1.151,3.9,3.9,0,0,1-1.107-2.818,3.808,3.808,0,0,1,3.85-3.755h.037a3.834,3.834,0,0,1,2.683,6.575m-5.592-8.195a.79.79,0,0,1-.355.039l-.4-.031-.16-.4a2.13,2.13,0,0,1-.068-.457l0-15.92h4.386v4q0,2.114,0,4.227c.005,1.464.289,1.74,1.788,1.744h8.221v11.09l-1.338,0-.8,0c-.527,0-1.048-.005-1.567-.026A1.287,1.287,0,0,1,91,89.407c-1.933-3.974-4.708-5.1-8.732-3.548" transform="translate(1.605 2.121)"/>
    <path id="Path_10927" data-name="Path 10927" d="M40.844,47.693c.933.323,1.87.631,2.809.938l1.189.391c1.379.457,1.558.4,2.39-.786l1.783-2.542c1.986-2.829,4.041-5.754,6.022-8.657a2.43,2.43,0,0,1,2.272-1.159q12.224.034,24.448.019H87.19a4.689,4.689,0,0,0,4.777-2.911,4.636,4.636,0,0,0-1.3-5.425c-.873-.859-1.736-1.726-2.6-2.594Q87.034,23.934,86,22.905a19.538,19.538,0,0,0-13.373-6.029c-3.461-.117-6.99-.11-10.4-.1l-2.749.005a1.953,1.953,0,0,1-1.85-1.019C56.42,13.8,55.2,11.847,53.978,9.893q-1.735-2.774-3.456-5.556a1.809,1.809,0,0,0-1.794-1c-.809.03-1.618.024-2.433.019-.569,0-1.138-.009-1.705,0a1.658,1.658,0,0,0-1.279.457,1.648,1.648,0,0,0-.122,1.345c.263,1.086.534,2.17.806,3.255l2.077,8.354-4.709,0c-2.781,0-5.561-.009-8.341.022a1.61,1.61,0,0,1-1.779-1.322C29.9,10.874,28.512,6.3,27.127,1.719l-.134-.442C26.667.2,26.413.007,25.3,0q-1.843,0-3.685,0T17.926,0c-1.372,0-1.727.361-1.73,1.741q-.006,3.538,0,7.075,0,4.229-.006,8.458a2.48,2.48,0,0,0,.769,1.91q3.241,3.209,6.46,6.443l3.421,3.42a22.272,22.272,0,0,0,11.155,6.232c1.194.257,2.4.4,3.679.544.587.068,1.178.137,1.775.217l.664.09-.36.883c-.085.208-.17.418-.261.625l-1.168,2.63q-1.19,2.676-2.368,5.355a1.681,1.681,0,0,0-.157,1.3,1.653,1.653,0,0,0,1.05.761M45.776,5.939l.522-.113c1.88-.407,2.24-.271,3.164,1.212q2.493,3.991,4.98,7.985c.117.187.225.382.35.606l.616,1.091H48.464ZM18.584,2.318l1.743,0c1.258,0,2.475-.006,3.69.022a1.322,1.322,0,0,1,1.106.8c1.208,3.977,2.387,7.962,3.566,11.947l.217.734a.689.689,0,0,1-.034.452l-.1.384-.418.062H18.584ZM43.607,33.585c-.178,0-.372,0-.586-.008l-.144,0A20.687,20.687,0,0,1,28.167,27.1c-1.365-1.4-2.754-2.782-4.144-4.16q-1.055-1.047-2.1-2.095c-.151-.151-.3-.31-.472-.506L20.4,19.2l1.547-.081c.265-.017.479-.029.694-.029l48.369,0h.005a16.427,16.427,0,0,1,10.625,3.48l1.165.923H69.953v2.328l3.8,0c3.608,0,7.218-.006,10.824.029a2.935,2.935,0,0,1,1.776.718c.643.562,1.243,1.178,1.825,1.774.284.291.568.582.858.868a2.5,2.5,0,0,1,.821,2.834,2.578,2.578,0,0,1-2.631,1.536H58.3l-.07-.436a.712.712,0,0,1,.072-.668,1.45,1.45,0,0,0,.347-1.558,1.784,1.784,0,0,0-1.764-.731c-2.9.135-5.839.074-8.684.016a1.783,1.783,0,0,0-2,1.281c-.734,1.8-1,2.1-2.6,2.1m-.85,11.489c.055-.156.108-.305.172-.449l1.484-3.342q1.7-3.833,3.392-7.67a1.572,1.572,0,0,1,1.65-1.086c1.1.031,2.2.026,3.382.02l2.527,0-2.936,4.213q-.851,1.218-1.712,2.432c-1.419,2.011-2.887,4.09-4.267,6.17A2.087,2.087,0,0,1,44.773,46.5a2.353,2.353,0,0,1-1.115-.326,2.1,2.1,0,0,0-.353-.136c-.1-.032-.2-.066-.31-.108l-.485-.179Z" transform="translate(0.573 0)" fill="#ffc810"/>
    <rect id="Rectangle_2909" data-name="Rectangle 2909" width="12.265" height="2.187" transform="translate(15.167 60.451)"/>
    <rect id="Rectangle_2910" data-name="Rectangle 2910" width="2.227" height="2.198" transform="translate(43.685 23.548)" fill="#ffc810"/>
    <rect id="Rectangle_2911" data-name="Rectangle 2911" width="2.227" height="2.193" transform="translate(50.386 23.568)" fill="#ffc810"/>
    <rect id="Rectangle_2912" data-name="Rectangle 2912" width="2.166" height="2.178" transform="translate(37.008 23.545)" fill="#ffc810"/>
    <rect id="Rectangle_2913" data-name="Rectangle 2913" width="2.174" height="2.22" transform="translate(57.111 23.546)" fill="#ffc810"/>
    <rect id="Rectangle_2914" data-name="Rectangle 2914" width="2.222" height="2.159" transform="translate(63.779 23.574)" fill="#ffc810"/>
  </g>
</svg>
