<svg id="Group_4371" data-name="Group 4371" xmlns="http://www.w3.org/2000/svg" xmlns:xlink="http://www.w3.org/1999/xlink" width="95.94" height="95.962" viewBox="0 0 95.94 95.962">
  <defs>
    <clipPath id="clip-path">
      <rect id="Rectangle_2925" data-name="Rectangle 2925" width="95.94" height="95.962" transform="translate(0 0)" fill="none"/>
    </clipPath>
  </defs>
  <g id="Group_4370" data-name="Group 4370" clip-path="url(#clip-path)">
    <path id="Path_10945" data-name="Path 10945" d="M47.956,11.4h-.021a7.33,7.33,0,0,0-7.294,7.351,7.349,7.349,0,0,0,7.327,7.3h.023A7.324,7.324,0,0,0,47.956,11.4m0,12.15H47.9a4.838,4.838,0,0,1-4.76-4.864h0A4.832,4.832,0,0,1,47.963,13.9h.01a4.842,4.842,0,0,1,4.815,4.916,4.837,4.837,0,0,1-4.831,4.736"/>
    <path id="Path_10946" data-name="Path 10946" d="M94.834,25.721c-2.4-1.3-4.783-2.624-7.167-3.949L83.924,19.7Q81,18.078,78.061,16.467l-.118-.059-13.3-7.377C57.9,5.289,51.114,1.526,48.366,0h-.8L42.334,2.907Q36.958,5.9,31.577,8.882l-9.224,5.105Q11.716,19.869,1.092,25.768a3.79,3.79,0,0,0-.832.74c-.087.092-.173.184-.26.274V95.09a1.9,1.9,0,0,0,1.832.871h0q37.753-.024,75.5-.016H94.118c1.47,0,1.808-.337,1.808-1.8V80.02q0-26.221.015-52.446a1.831,1.831,0,0,0-1.107-1.853M81.215,93.364h-9.2V93.32H69.438v.061H49.253V93.32H46.644v.061H26.465V93.32H23.927v.08H14.651l0-35.8c0-5.654,0-14.624,0-19.071V34.456H81.215Zm12.214.034H83.773V33.947c0-1.791-.248-2.038-2.047-2.038h-67.5l-.216,0c-.143,0-.286,0-.428,0a1.279,1.279,0,0,0-1.421,1.447c-.012,2.277-.013,16.719-.007,24.24,0,.1,0,.179,0,.262l0,2.929V93.379H2.5V83.532q0-27.24-.018-54.48a1.922,1.922,0,0,1,1.148-1.866C20.08,18.11,33.79,10.525,46.774,3.316a2.234,2.234,0,0,1,2.44.027c4.078,2.287,21.9,12.149,28.6,15.861l1.651.914c.174.095.343.177.5.247,3.982,2.221,8.093,4.49,12.277,6.772a2.052,2.052,0,0,1,1.2,2.039q-.028,27.115-.019,54.233Z"/>
    <path id="Path_10947" data-name="Path 10947" d="M72.012,74.214c0-2.325-1.246-3.556-3.6-3.559l-6.171,0c-.215,0-.427-.014-.659-.029l-.961-.053V51.561c0-2.488-1.194-3.7-3.65-3.7H39.024c-2.481,0-3.688,1.2-3.688,3.677l0,12.412v6.389l-.547.2a.939.939,0,0,1-.385.093q-3.414.012-6.834.016c-2.415,0-3.64,1.222-3.641,3.62l0,13.1v5.941h2.538V73.205h5.072v2.257c0,1.187,0,2.359,0,3.532,0,1.376.385,1.753,1.77,1.755q3.271,0,6.544,0c1.443,0,1.775-.342,1.778-1.821V73.211h5.014v20.11h2.609v-20.1h5.071v5.652c0,1.521.347,1.87,1.846,1.872l1.172,0q2.738,0,5.47,0c1.208-.005,1.6-.4,1.6-1.621.006-1.178,0-2.355,0-3.553l0-2.36h5.021V93.321h2.576v-6.47q0-6.319,0-12.637M45.468,50.407h4.974v5.015H45.468Zm-6.4,27.8H34.087V73.231h4.977ZM37.9,70.585V50.417h5.021v2.259c0,1.228,0,2.436,0,3.645s.407,1.63,1.6,1.635q3.456.015,6.918,0c1.141,0,1.568-.427,1.575-1.559.009-1.231.007-2.46.005-3.7l0-2.28h5.034V70.585ZM61.9,78.177H56.89V73.231H61.9Z" fill="#ffc810"/>
  </g>
</svg>
