<svg id="Group_4425" data-name="Group 4425" xmlns="http://www.w3.org/2000/svg" xmlns:xlink="http://www.w3.org/1999/xlink" width="101.552" height="102.401" viewBox="0 0 101.552 102.401">
  <defs>
    <clipPath id="clip-path">
      <rect id="Rectangle_2978" data-name="Rectangle 2978" width="101.552" height="102.401" fill="none"/>
    </clipPath>
  </defs>
  <g id="Group_4425-2" data-name="Group 4425" transform="translate(0 0)" clip-path="url(#clip-path)">
    <path id="Path_11122" data-name="Path 11122" d="M81.6,102.276A11.568,11.568,0,0,0,90.75,101a12.043,12.043,0,0,0,5.52-8.223l.059-.29h4.837c1.619,0,1.992-.372,1.992-1.974q0-13,0-26a4.247,4.247,0,0,0-.108-1.159l-.888-3c-1.43-4.833-2.908-9.83-4.419-14.727-.761-2.466-2.3-3.566-4.984-3.567q-6.564-.006-13.125,0H72.47l0-3.009c0-1.9,0-3.749,0-5.6a4.756,4.756,0,0,0-5.074-5.03q-2.352-.007-4.7,0H60.683l-2.765,0q-3.521,0-7.036.007a1.712,1.712,0,0,0-1.385.548,1.309,1.309,0,0,0-.181,1.155c.174.7.636.985,1.592.985h.01q5.913-.016,11.827-.008h3.941c2.548,0,3.1.541,3.1,3.045l0,42.706a6.39,6.39,0,0,0,.022.827,1.248,1.248,0,0,0,1.384,1.166c.633-.023,1.282-.254,1.282-1.8l0-32.307h19.7c2.215,0,2.575.262,3.2,2.343q2.459,8.147,4.878,16.3a5.537,5.537,0,0,1,.209,1.563q.016,6.477.009,12.953v5.066h-.361c-.6,0-1.181,0-1.756.008-1.481.01-2.881.017-4.292-.037a3.387,3.387,0,0,1-1.9-.713,11.6,11.6,0,0,0-14.842.053,3.077,3.077,0,0,1-1.828.664Q64,83,52.515,82.987l-6.507,0a3.522,3.522,0,0,0-.807.04,1.34,1.34,0,0,0,.015,2.617,3.245,3.245,0,0,0,.723.035l.265,0H74.425l-.2.494A12.026,12.026,0,0,0,74.4,96.215a11.771,11.771,0,0,0,7.2,6.061m18.806-16.56v4H96.353l-1.191-4Zm-21.89-.887a8.881,8.881,0,0,1,6.344-2.562A8.775,8.775,0,0,1,91.1,84.912a8.884,8.884,0,0,1-6.338,15.113h-.033a8.884,8.884,0,0,1-6.208-15.2" transform="translate(-1.605 -1.033)"/>
    <path id="Path_11123" data-name="Path 11123" d="M10.1,83.445c3.432,0,6.758.01,10.086-.018A1.508,1.508,0,0,0,21,83.013a11.885,11.885,0,0,1,19.548,6.675c.038.166.072.331.127.578H65.608a5.644,5.644,0,0,1,1.062.038,1.587,1.587,0,0,1,1.375,1.644,1.609,1.609,0,0,1-1.433,1.7,7.656,7.656,0,0,1-1.063.026q-11.823,0-23.643,0H40.668a12.1,12.1,0,0,1-5.324,8.265,11.608,11.608,0,0,1-7.275,1.93c-5.481-.336-9.759-4.25-11.042-10.2H15.936c-2.378,0-4.758.007-7.136,0-1.481-.006-2.108-.6-2.109-2.035q-.009-19.277,0-38.554c0-1.28.626-2.017,1.671-2.035,1.084-.019,1.733.738,1.733,2.08q.007,14.485,0,28.968v1.347M20.33,91.917a8.518,8.518,0,1,0,8.595-8.467,8.511,8.511,0,0,0-8.595,8.467M10.186,86.9v3.318h6.792L17.96,86.9Z" transform="translate(-0.243 -1.856)"/>
    <path id="Path_11124" data-name="Path 11124" d="M28.842,104.243c-.268,0-.537-.008-.809-.025-5.607-.343-9.918-4.239-11.31-10.194H13.749q-2.482,0-4.965,0c-1.684-.007-2.469-.768-2.47-2.4q-.009-19.277,0-38.554c0-1.457.777-2.374,2.026-2.4a2.029,2.029,0,0,1,1.436.528,2.614,2.614,0,0,1,.665,1.913q.006,10.863,0,21.726v8.229h1.7c2.71,0,5.368,0,8.025-.02.07,0,.242-.044.587-.331A12.511,12.511,0,0,1,32.8,80.307a12.544,12.544,0,0,1,8.085,9.288l.066.3h24.89a4.092,4.092,0,0,1,.888.047,1.939,1.939,0,0,1,1.666,1.983,1.966,1.966,0,0,1-1.743,2.073,5.516,5.516,0,0,1-.85.033l-.263,0H40.951a12.44,12.44,0,0,1-5.423,8.2,11.924,11.924,0,0,1-6.686,2.015M15.921,93.3H17.3l.062.285c1.249,5.785,5.353,9.583,10.712,9.911a11.307,11.307,0,0,0,7.052-1.871A11.8,11.8,0,0,0,40.3,93.6l.054-.295,25.457,0a4.97,4.97,0,0,0,.738-.026,1.249,1.249,0,0,0,1.123-1.328,1.23,1.23,0,0,0-1.085-1.3,3.608,3.608,0,0,0-.733-.035l-.258,0-25.228,0-.189-.86a11.825,11.825,0,0,0-7.613-8.763,11.8,11.8,0,0,0-11.352,2.287,1.818,1.818,0,0,1-1.041.5c-2.661.022-5.32.021-8.032.02H9.72V74.842q0-10.863,0-21.726a1.921,1.921,0,0,0-.449-1.4,1.276,1.276,0,0,0-.916-.322c-1.145.02-1.315,1.057-1.315,1.674q-.007,19.277,0,38.554c0,1.231.459,1.669,1.749,1.674,1.655.007,3.309,0,4.963,0Zm12.91,7.533h-.022a8.894,8.894,0,1,1,.022,0m.02-17.035a8.156,8.156,0,1,0-.04,16.313h.02a8.161,8.161,0,0,0,5.811-13.89A8.071,8.071,0,0,0,28.908,83.8ZM17.233,90.564H9.81V86.524h8.619Zm-6.7-.723h6.161l.768-2.6H10.533Z" transform="translate(-0.229 -1.842)" fill="#fff"/>
    <path id="Path_11125" data-name="Path 11125" d="M21.834,0c-.47.058-.941.108-1.413.159-1.014.107-2.061.218-3.066.413A22.007,22.007,0,0,0,.152,19.242,24.975,24.975,0,0,0,2.638,32.888c4.706,10.182,12.182,18.2,18.17,24.043.68.666,1.338.62,2.13-.148A92.4,92.4,0,0,0,38.68,37.289c3.023-5.156,4.567-9.633,4.859-14.092A21.442,21.442,0,0,0,37.766,7.092,22.181,22.181,0,0,0,21.834,0m19.02,22.676a24.993,24.993,0,0,1-3.032,10.387c-3.526,7.074-8.574,13.7-15.885,20.845l-.27.264-.252-.28c-.782-.871-1.562-1.724-2.339-2.57-1.74-1.9-3.385-3.7-4.972-5.611A57.022,57.022,0,0,1,4.067,29.119C-.021,18.183,5.454,9.135,12.27,5.356c6.537-3.623,13.03-3.562,19.3.185,6.34,3.788,9.463,9.555,9.282,17.136" transform="translate(0 0)" fill="#ffca0a"/>
    <path id="Path_11126" data-name="Path 11126" d="M86.479,65.253a2.488,2.488,0,0,0,1.658.695c1.946.078,3.932.063,5.853.046l1.478-.011A1.92,1.92,0,0,0,97,65.43a1.786,1.786,0,0,0,.093-1.524q-1.051-3.544-2.125-7.083-.9-2.972-1.788-5.948A1.523,1.523,0,0,0,91.5,49.648c-1.432.017-2.864.013-4.295.009l-3.4,0c-1.343,0-2.684,0-4.025,0-1.564,0-1.947.378-1.949,1.908q-.006,4.524,0,9.052a2.225,2.225,0,0,0,.448,1.678,1.945,1.945,0,0,0,1.515.247,9.987,9.987,0,0,1,1.164-.071,6.552,6.552,0,0,1,5.524,2.786M80.6,52.34l4.779,0c1.482,0,2.964-.008,4.444.026a1.423,1.423,0,0,1,1.183.753c.8,2.536,1.563,5.083,2.353,7.721L94.1,63.3l-1.776,0-1.2,0c-.762,0-1.5,0-2.247-.021a1.624,1.624,0,0,1-.742-.26c-.076-.042-.151-.084-.227-.118a.573.573,0,0,1-.213-.177c-1.6-1.975-3.507-3.666-6.623-2.664l-.472.151Z" transform="translate(-2.829 -1.805)"/>
    <path id="Path_11127" data-name="Path 11127" d="M77.862,72.217a1.281,1.281,0,0,0,1.225,1.339,11.347,11.347,0,0,0,1.206.016c.188,0,.377-.009.565-.009l1.592.011a1.427,1.427,0,0,0,.17-.007,1.31,1.31,0,0,0,1.269-1.324,1.26,1.26,0,0,0-1.209-1.329c-.582-.028-1.18-.041-1.788-.041-.587,0-1.184.013-1.789.04a1.251,1.251,0,0,0-1.241,1.3" transform="translate(-2.83 -2.576)"/>
    <path id="Path_11128" data-name="Path 11128" d="M86.088,88.587a4.732,4.732,0,0,0-3.308,8.1,4.709,4.709,0,0,0,3.342,1.4h.024a4.821,4.821,0,0,0,4.717-4.732,4.786,4.786,0,0,0-4.775-4.769m.032,6.81h-.061a2.066,2.066,0,0,1-1.343-3.572,2.059,2.059,0,0,1,3.455,1.6A2.045,2.045,0,0,1,86.12,95.4" transform="translate(-2.958 -3.22)"/>
    <path id="Path_11129" data-name="Path 11129" d="M29.545,88.587h-.034a4.732,4.732,0,0,0-3.383,8.063,4.691,4.691,0,0,0,3.334,1.438H29.5a4.792,4.792,0,0,0,4.754-4.76,4.815,4.815,0,0,0-4.706-4.74M29.508,95.4h-.035a2.059,2.059,0,0,1,.01-4.118,2.015,2.015,0,0,1,1.5.619,2.063,2.063,0,0,1-1.479,3.5" transform="translate(-0.9 -3.22)"/>
    <path id="Path_11130" data-name="Path 11130" d="M22.155,10.741H22.12A11.6,11.6,0,0,0,10.6,22.355a11.592,11.592,0,0,0,11.579,11.53h.034A11.633,11.633,0,0,0,33.736,22.26,11.584,11.584,0,0,0,22.155,10.741m.04,20.455h-.02a8.883,8.883,0,1,1-.023-17.767h.014A8.883,8.883,0,0,1,22.195,31.2" transform="translate(-0.385 -0.39)" fill="#ffca0a"/>
  </g>
</svg>
