<svg id="Group_4420" data-name="Group 4420" xmlns="http://www.w3.org/2000/svg" xmlns:xlink="http://www.w3.org/1999/xlink" width="88.983" height="109.777" viewBox="0 0 88.983 109.777">
  <defs>
    <clipPath id="clip-path">
      <rect id="Rectangle_2960" data-name="Rectangle 2960" width="88.983" height="109.777" transform="translate(0 0)" fill="none"/>
    </clipPath>
  </defs>
  <g id="Group_4420-2" data-name="Group 4420" clip-path="url(#clip-path)">
    <path id="Path_11083" data-name="Path 11083" d="M2.071,109.777H76.5c1.868,0,2.083-.217,2.083-2.106V78.579H86.9c1.851,0,2.084-.239,2.084-2.122V48.006c0-2.93,0-2.93-2.9-2.93H78.58v-4.93q0-5.838-.007-11.675a5.115,5.115,0,0,0-.122-1.262.949.949,0,0,0-1.1-.764.981.981,0,0,0-.989.931,8.038,8.038,0,0,0-.039,1l0,16.628h-74V16.2h74l0,1.4c0,.64-.006,1.252.007,1.864.029,1.411.792,1.425,1.079,1.43.945.017,1.139-.732,1.157-1.363.039-1.361.04-2.771,0-4.191-.028-1.086-.42-1.455-1.551-1.464-1.361-.011-2.722-.009-4.082-.008-1.09,0-2.182,0-3.272,0a6.286,6.286,0,0,1-1.4-.138Q56.386,10.945,44.506,8.146c-.236-.056-.467-.134-.72-.22l-.931-.3.285-.53A4.705,4.705,0,0,0,43.3,2.414,5.652,5.652,0,0,0,40.284,0H38.343l-.132.063c-.184.089-.368.177-.558.254a4.467,4.467,0,0,0-2.941,4.295A7.835,7.835,0,0,0,35.086,6.4c.087.305.175.611.249.923l.116.488-.488.114c-1.734.407-3.471.8-5.208,1.2-3.915.89-7.962,1.811-11.9,2.851a49.871,49.871,0,0,1-15.944,1.9,2.138,2.138,0,0,0-1.538.266C.115,14.385,0,14.891,0,15.785V43.11q0,1.21,0,2.422c.005,1.524.278,1.793,1.826,1.8q2.378.01,4.752,0h3.756V76.326H5.063q-1.581,0-3.154,0C.233,76.329,0,76.563,0,78.251v29.424c0,1.9.193,2.1,2.07,2.1M39.258,2.266h.025a2.333,2.333,0,0,1,1.649,3.945,2.272,2.272,0,0,1-1.631.7h-.019A2.356,2.356,0,0,1,36.96,4.546a2.379,2.379,0,0,1,2.3-2.28M24.249,12.751l2.968-.694Q33.007,10.7,38.8,9.362a2.7,2.7,0,0,1,1.174.035q6.891,1.6,13.773,3.236a1.988,1.988,0,0,1,.394.108l5.079,1.078h-39.6ZM12.734,47.423h73.95V76.274H12.734ZM2.319,78.65H76.251v28.839H2.319Z"/>
    <path id="Path_11084" data-name="Path 11084" d="M29.979,30.547l0-2.817c0-2.447.006-4.894-.01-7.34-.005-.791-.435-1.3-1.1-1.3h0c-.606,0-1.05.495-1.129,1.254a4.477,4.477,0,0,0-.012.506l0,.2v2.99q0,8.071.008,16.142a4.3,4.3,0,0,0,.143,1.234.912.912,0,0,0,1.076.673.965.965,0,0,0,.976-.845,3.55,3.55,0,0,0,.049-.784v-.182l0-7.3Z" fill="#ffca0a"/>
    <path id="Path_11085" data-name="Path 11085" d="M16.1,20.3A1.126,1.126,0,0,0,15,19.089h0a1.176,1.176,0,0,0-1.119,1.147,5.03,5.03,0,0,0-.019.673l0,.238,0,15.507c0,1.351,0,2.7.007,4.054.008,1.038.464,1.27.908,1.36a1.055,1.055,0,0,0,.892-.165,1.507,1.507,0,0,0,.438-1.19c.012-2.325.01-4.65.008-6.975l0-9.994,0-1c0-.815.01-1.631-.017-2.445" fill="#ffca0a"/>
    <path id="Path_11086" data-name="Path 11086" d="M20.8,40.128a4.224,4.224,0,0,0,.125,1.236,1.112,1.112,0,0,0,.754.747.807.807,0,0,0,.765-.172,2.041,2.041,0,0,0,.567-1.3c.051-2.474.044-4.993.038-7.43l-.009-2.5,0-2.883c0-2.5.006-4.994-.011-7.49a1.1,1.1,0,0,0-1.067-1.24h-.038c-.6,0-1.035.469-1.118,1.2a4.61,4.61,0,0,0-.015.588l0,.22V23.3q0,8.415.006,16.829" fill="#ffca0a"/>
    <path id="Path_11087" data-name="Path 11087" d="M34.608,40.128a4.224,4.224,0,0,0,.125,1.236,1.112,1.112,0,0,0,.754.747.807.807,0,0,0,.765-.172,2.041,2.041,0,0,0,.567-1.3c.051-2.474.044-4.993.038-7.43l-.009-2.5,0-2.883c0-2.5.006-4.994-.011-7.49a1.1,1.1,0,0,0-1.067-1.24h-.038c-.6,0-1.035.469-1.118,1.2a4.609,4.609,0,0,0-.015.588l0,.22V23.3q0,8.415.006,16.829" fill="#ffca0a"/>
    <path id="Path_11088" data-name="Path 11088" d="M41.511,40.128a4.224,4.224,0,0,0,.125,1.236,1.112,1.112,0,0,0,.754.747.807.807,0,0,0,.765-.172,2.041,2.041,0,0,0,.567-1.3c.051-2.474.044-4.993.038-7.43l-.009-2.5,0-2.883c0-2.5.006-4.994-.011-7.49a1.1,1.1,0,0,0-1.067-1.24h-.038c-.6,0-1.035.469-1.118,1.2a4.609,4.609,0,0,0-.015.588l0,.22V23.3q0,8.415.006,16.829" fill="#ffca0a"/>
    <path id="Path_11089" data-name="Path 11089" d="M48.414,40.128a4.224,4.224,0,0,0,.125,1.236,1.112,1.112,0,0,0,.754.747.807.807,0,0,0,.765-.172,2.041,2.041,0,0,0,.567-1.3c.051-2.474.044-4.993.038-7.43l-.009-2.5,0-2.883c0-2.5.006-4.994-.011-7.49a1.1,1.1,0,0,0-1.067-1.24H49.54c-.6,0-1.035.469-1.118,1.2a4.609,4.609,0,0,0-.015.588l0,.22V23.3q0,8.415.006,16.829" fill="#ffca0a"/>
    <path id="Path_11090" data-name="Path 11090" d="M55.317,40.128a4.224,4.224,0,0,0,.125,1.236,1.112,1.112,0,0,0,.754.747.807.807,0,0,0,.765-.172,2.041,2.041,0,0,0,.567-1.3c.051-2.474.044-4.993.038-7.43l-.009-2.5,0-2.883c0-2.5.006-4.994-.011-7.49a1.1,1.1,0,0,0-1.067-1.24h-.038c-.6,0-1.035.469-1.118,1.2a4.609,4.609,0,0,0-.015.588l0,.22V23.3q0,8.415.006,16.829" fill="#ffca0a"/>
    <path id="Path_11091" data-name="Path 11091" d="M62.22,40.128a4.224,4.224,0,0,0,.125,1.236,1.112,1.112,0,0,0,.754.747.807.807,0,0,0,.765-.172,2.041,2.041,0,0,0,.567-1.3c.051-2.474.044-4.993.038-7.43l-.009-2.5,0-2.883c0-2.5.006-4.994-.011-7.49a1.1,1.1,0,0,0-1.067-1.24h-.038c-.6,0-1.035.469-1.118,1.2a4.609,4.609,0,0,0-.015.588l0,.22V23.3q0,8.415.006,16.829" fill="#ffca0a"/>
    <path id="Path_11092" data-name="Path 11092" d="M40.29,61.741l0-2.817c0-2.447.006-4.894-.01-7.34-.005-.791-.435-1.3-1.1-1.3h-.005c-.606,0-1.05.495-1.129,1.254a4.477,4.477,0,0,0-.012.506l0,.2v2.99q0,8.072.008,16.142a4.3,4.3,0,0,0,.143,1.234.912.912,0,0,0,1.076.673.965.965,0,0,0,.976-.845,3.549,3.549,0,0,0,.049-.784v-.182l0-7.3Z" fill="#ffca0a"/>
    <path id="Path_11093" data-name="Path 11093" d="M26.411,51.5a1.126,1.126,0,0,0-1.1-1.213h0a1.176,1.176,0,0,0-1.119,1.147,5.03,5.03,0,0,0-.019.673l0,.238,0,15.507c0,1.351,0,2.7.007,4.054.008,1.038.464,1.27.908,1.36a1.055,1.055,0,0,0,.892-.165,1.507,1.507,0,0,0,.438-1.19c.012-2.325.01-4.65.008-6.975l0-9.994,0-1c.005-.815.01-1.631-.017-2.445" fill="#ffca0a"/>
    <path id="Path_11094" data-name="Path 11094" d="M31.113,71.322a4.224,4.224,0,0,0,.125,1.236,1.112,1.112,0,0,0,.754.747.807.807,0,0,0,.765-.172,2.041,2.041,0,0,0,.567-1.3c.051-2.474.044-4.993.038-7.43l-.009-2.5,0-2.883c0-2.5.006-4.994-.011-7.49a1.1,1.1,0,0,0-1.067-1.24h-.038c-.6,0-1.035.469-1.118,1.2a4.61,4.61,0,0,0-.015.588l0,.22v2.195q0,8.415.006,16.829" fill="#ffca0a"/>
    <path id="Path_11095" data-name="Path 11095" d="M44.919,71.322a4.224,4.224,0,0,0,.125,1.236,1.112,1.112,0,0,0,.754.747.807.807,0,0,0,.765-.172,2.041,2.041,0,0,0,.567-1.3c.051-2.474.044-4.993.038-7.43l-.009-2.5,0-2.883c0-2.5.006-4.994-.011-7.49a1.1,1.1,0,0,0-1.067-1.24h-.038c-.6,0-1.035.469-1.118,1.2a4.61,4.61,0,0,0-.015.588l0,.22v2.195q0,8.415.006,16.829" fill="#ffca0a"/>
    <path id="Path_11096" data-name="Path 11096" d="M51.822,71.322a4.224,4.224,0,0,0,.125,1.236,1.112,1.112,0,0,0,.754.747.807.807,0,0,0,.765-.172,2.041,2.041,0,0,0,.567-1.3c.051-2.474.044-4.993.038-7.43l-.009-2.5,0-2.883c0-2.5.006-4.994-.011-7.49a1.1,1.1,0,0,0-1.067-1.24h-.038c-.6,0-1.035.469-1.118,1.2a4.609,4.609,0,0,0-.015.588l0,.22v2.195q0,8.415.006,16.829" fill="#ffca0a"/>
    <path id="Path_11097" data-name="Path 11097" d="M58.725,71.322a4.224,4.224,0,0,0,.125,1.236,1.112,1.112,0,0,0,.754.747.807.807,0,0,0,.765-.172,2.041,2.041,0,0,0,.567-1.3c.051-2.474.044-4.993.038-7.43l-.009-2.5,0-2.883c0-2.5.006-4.994-.011-7.49a1.1,1.1,0,0,0-1.067-1.24h-.038c-.6,0-1.035.469-1.118,1.2a4.609,4.609,0,0,0-.015.588l0,.22v2.195q0,8.415.006,16.829" fill="#ffca0a"/>
    <path id="Path_11098" data-name="Path 11098" d="M65.628,71.322a4.19,4.19,0,0,0,.125,1.236,1.11,1.11,0,0,0,.754.747.8.8,0,0,0,.764-.172,2.042,2.042,0,0,0,.568-1.3c.05-2.474.043-4.993.037-7.43l-.008-2.5V59.017c0-2.5.006-4.994-.011-7.49a1.1,1.1,0,0,0-1.067-1.24h-.037c-.6,0-1.036.469-1.119,1.2a4.8,4.8,0,0,0-.015.588l0,.22v2.195q0,8.415.007,16.829" fill="#ffca0a"/>
    <path id="Path_11099" data-name="Path 11099" d="M72.53,71.322a4.224,4.224,0,0,0,.125,1.236,1.112,1.112,0,0,0,.754.747.807.807,0,0,0,.765-.172,2.041,2.041,0,0,0,.567-1.3c.051-2.474.044-4.993.038-7.43l-.009-2.5,0-2.883c0-2.5.006-4.994-.011-7.49a1.1,1.1,0,0,0-1.067-1.24h-.038c-.6,0-1.035.469-1.118,1.2a4.608,4.608,0,0,0-.015.588l0,.22v2.195q0,8.415.006,16.829" fill="#ffca0a"/>
    <path id="Path_11100" data-name="Path 11100" d="M30.037,93.08l0-2.817c0-2.447.006-4.894-.01-7.34,0-.791-.435-1.3-1.1-1.3h-.005c-.606,0-1.05.495-1.129,1.254a4.477,4.477,0,0,0-.012.506l0,.2v2.99q0,8.071.008,16.142a4.3,4.3,0,0,0,.143,1.234.912.912,0,0,0,1.076.673.965.965,0,0,0,.976-.845,3.55,3.55,0,0,0,.049-.784v-.182l0-7.3Z" fill="#ffca0a"/>
    <path id="Path_11101" data-name="Path 11101" d="M16.158,82.836a1.126,1.126,0,0,0-1.1-1.213h0a1.176,1.176,0,0,0-1.119,1.147,5.03,5.03,0,0,0-.019.673l0,.238,0,15.507c0,1.351,0,2.7.007,4.054.008,1.038.464,1.27.908,1.36a1.055,1.055,0,0,0,.892-.165,1.507,1.507,0,0,0,.438-1.19c.012-2.325.01-4.65.008-6.975l0-9.994,0-1c.005-.815.01-1.631-.017-2.445" fill="#ffca0a"/>
    <path id="Path_11102" data-name="Path 11102" d="M20.861,102.661a4.224,4.224,0,0,0,.125,1.236,1.112,1.112,0,0,0,.754.747.807.807,0,0,0,.765-.172,2.041,2.041,0,0,0,.567-1.3c.051-2.474.044-4.993.038-7.43L23.1,93.239l0-2.883c0-2.5.006-4.994-.011-7.49a1.1,1.1,0,0,0-1.067-1.24h-.038c-.6,0-1.035.469-1.118,1.2a4.61,4.61,0,0,0-.015.588l0,.22v2.195q0,8.415.006,16.829" fill="#ffca0a"/>
    <path id="Path_11103" data-name="Path 11103" d="M34.666,102.661a4.224,4.224,0,0,0,.125,1.236,1.112,1.112,0,0,0,.754.747.807.807,0,0,0,.765-.172,2.041,2.041,0,0,0,.567-1.3c.051-2.474.044-4.993.038-7.43l-.009-2.505,0-2.883c0-2.5.006-4.994-.011-7.49a1.1,1.1,0,0,0-1.067-1.24h-.038c-.6,0-1.035.469-1.118,1.2a4.609,4.609,0,0,0-.015.588l0,.22v2.195q0,8.415.006,16.829" fill="#ffca0a"/>
    <path id="Path_11104" data-name="Path 11104" d="M41.569,102.661a4.224,4.224,0,0,0,.125,1.236,1.112,1.112,0,0,0,.754.747.807.807,0,0,0,.765-.172,2.041,2.041,0,0,0,.567-1.3c.051-2.474.044-4.993.038-7.43l-.009-2.505,0-2.883c0-2.5.006-4.994-.011-7.49a1.1,1.1,0,0,0-1.067-1.24h-.038c-.6,0-1.035.469-1.118,1.2a4.609,4.609,0,0,0-.015.588l0,.22v2.195q0,8.415.006,16.829" fill="#ffca0a"/>
    <path id="Path_11105" data-name="Path 11105" d="M48.472,102.661A4.224,4.224,0,0,0,48.6,103.9a1.112,1.112,0,0,0,.754.747.807.807,0,0,0,.765-.172,2.041,2.041,0,0,0,.567-1.3c.051-2.474.044-4.993.038-7.43l-.009-2.505,0-2.883c0-2.5.006-4.994-.011-7.49a1.1,1.1,0,0,0-1.067-1.24H49.6c-.6,0-1.035.469-1.118,1.2a4.61,4.61,0,0,0-.015.588l0,.22v2.195q0,8.415.006,16.829" fill="#ffca0a"/>
    <path id="Path_11106" data-name="Path 11106" d="M55.375,102.661A4.224,4.224,0,0,0,55.5,103.9a1.112,1.112,0,0,0,.754.747.807.807,0,0,0,.765-.172,2.041,2.041,0,0,0,.567-1.3c.051-2.474.044-4.993.038-7.43l-.009-2.505,0-2.883c0-2.5.006-4.994-.011-7.49a1.1,1.1,0,0,0-1.067-1.24H56.5c-.6,0-1.035.469-1.118,1.2a4.61,4.61,0,0,0-.015.588l0,.22v2.195q0,8.415.006,16.829" fill="#ffca0a"/>
    <path id="Path_11107" data-name="Path 11107" d="M62.278,102.661A4.224,4.224,0,0,0,62.4,103.9a1.112,1.112,0,0,0,.754.747.807.807,0,0,0,.765-.172,2.041,2.041,0,0,0,.567-1.3c.051-2.474.044-4.993.038-7.43l-.009-2.505,0-2.883c0-2.5.006-4.994-.011-7.49a1.1,1.1,0,0,0-1.067-1.24H63.4c-.6,0-1.035.469-1.118,1.2a4.61,4.61,0,0,0-.015.588l0,.22v2.195q0,8.415.006,16.829" fill="#ffca0a"/>
  </g>
</svg>
