<svg xmlns="http://www.w3.org/2000/svg" xmlns:xlink="http://www.w3.org/1999/xlink" width="149.451" height="70.072" viewBox="0 0 149.451 70.072">
  <defs>
    <clipPath id="clip-path">
      <rect id="Rectangle_2955" data-name="Rectangle 2955" width="149.451" height="70.072" fill="none"/>
    </clipPath>
  </defs>
  <g id="Group_4415" data-name="Group 4415" transform="translate(-290 -975.664)">
    <rect id="Rectangle_2952" data-name="Rectangle 2952" width="5.589" height="3.13" transform="translate(338.995 983.051)" fill="#ffca0a"/>
    <rect id="Rectangle_2953" data-name="Rectangle 2953" width="5.54" height="3.182" transform="translate(421.796 983.049)" fill="#ffca0a"/>
    <rect id="Rectangle_2954" data-name="Rectangle 2954" width="5.614" height="3.075" transform="translate(309.71 1013.912)" fill="#ffca0a"/>
    <g id="Group_4414" data-name="Group 4414" transform="translate(290 975.664)">
      <g id="Group_4413" data-name="Group 4413" transform="translate(0 0)" clip-path="url(#clip-path)">
        <path id="Path_11034" data-name="Path 11034" d="M23.217,60.193a10.072,10.072,0,0,1,0-20.127,10.072,10.072,0,0,1,0,20.127m0-17.011a6.953,6.953,0,0,0,0,13.894,6.953,6.953,0,0,0,0-13.894" transform="translate(2.668 9.878)" fill="#ffca0a"/>
        <path id="Path_11035" data-name="Path 11035" d="M49.781,60.193a10.072,10.072,0,1,1,9.662-10.063,9.88,9.88,0,0,1-9.662,10.063m0-17.011a6.953,6.953,0,1,0,6.67,6.947,6.82,6.82,0,0,0-6.67-6.947" transform="translate(7.896 9.878)" fill="#ffca0a"/>
        <path id="Path_11036" data-name="Path 11036" d="M106.577,60.193a10.072,10.072,0,1,1,9.662-10.063,9.88,9.88,0,0,1-9.662,10.063m0-17.011a6.953,6.953,0,1,0,6.67,6.947,6.82,6.82,0,0,0-6.67-6.947" transform="translate(19.074 9.878)" fill="#ffca0a"/>
        <path id="Path_11037" data-name="Path 11037" d="M147.449,56.724c1.386-.019,1.96-.607,1.984-2.032.025-1.556.019-3.111.013-4.668l0-1.659c0-2-.1-2.14-1.956-2.946l-.48-.208V2.856C147,.374,146.652,0,144.3,0H41.721c-2.39,0-2.75.368-2.75,2.806v42.74H34.979V35.928q0-9.129,0-18.255c0-1.942-.48-2.446-2.331-2.448q-8.98-.011-17.957,0c-4.607.006-7.638,2.19-9.265,6.677l-.361,1C3.5,27.2,1.94,31.506.426,35.827a7.382,7.382,0,0,0-.4,2.341C-.006,43.183,0,48.2,0,53.211l0,3.345c0,2.279.4,2.71,2.537,2.713q1.612,0,3.229,0c2.175,0,4.349-.011,6.521.021,1.3.014,2.188-.021,2.908-.716V55.735a6.826,6.826,0,0,1,6.676-6.953h8.117a6.826,6.826,0,0,1,6.676,6.953v3.474h3.221V56.826h3.847l.141,2.472H47V55.735a6.826,6.826,0,0,1,6.676-6.953h8.117a6.826,6.826,0,0,1,6.676,6.953v3.513h3.022l.141-2.387h40.312l.118,2.441h3.111l0-3.566a6.826,6.826,0,0,1,6.675-6.953h8.118a6.826,6.826,0,0,1,6.675,6.953v3.457H139.7V56.732l2.963,0c1.631,0,3.209.01,4.785-.012M4.7,33.577q.682-1.827,1.325-3.6C7.095,27.075,8.1,24.33,9.235,21.6a4.82,4.82,0,0,1,4.55-2.895c2.24-.042,4.482-.034,6.8-.026l3.774.009v3.039c0,2.579.006,5.076-.026,7.572a1.9,1.9,0,0,1-1.181,1.683c-4.844,1.043-9.693,2.051-14.756,3.1l-4.206.874ZM31.58,45.668H30.8c-1,0-2,.014-2.988.027-2.281.031-4.638.064-6.951-.08a5.035,5.035,0,0,0-4.877,2.148,5.79,5.79,0,0,1-.732.8l-.709.694c-1.872,1.825-2.982,3.064-2.272,5.421l.318,1.053H3.382V51.7H8.159V48.286H3.327l0-2.613c-.006-1.988-.012-3.868.051-5.769.029-.843,1.106-1.434,1.649-1.548q9.89-2.113,19.8-4.145c2.744-.565,2.851-.7,2.851-3.605V18.782H31.58ZM43.3,53.221H40.4l-2.175-4.029h7.247Zm68.186,0H72.055l-2.14-3.962h43.711ZM42.4,3.522H143.608V45.541H42.4Zm95.7,45.669h7.927v4h-5.818Z" transform="translate(0 0)"/>
      </g>
    </g>
  </g>
</svg>
