<svg id="Group_4417" data-name="Group 4417" xmlns="http://www.w3.org/2000/svg" xmlns:xlink="http://www.w3.org/1999/xlink" width="115.754" height="115.844" viewBox="0 0 115.754 115.844">
  <defs>
    <clipPath id="clip-path">
      <rect id="Rectangle_2957" data-name="Rectangle 2957" width="115.754" height="115.844" fill="none"/>
    </clipPath>
  </defs>
  <g id="Group_4417-2" data-name="Group 4417" transform="translate(0 0)" clip-path="url(#clip-path)">
    <path id="Path_11053" data-name="Path 11053" d="M90.624,17.368h.019A5.124,5.124,0,0,0,90.667,7.12h-.018a5.124,5.124,0,0,0-.025,10.248M88.99,10.511A2.425,2.425,0,0,1,90.7,9.839,2.427,2.427,0,0,1,93.051,12.3a2.44,2.44,0,0,1-2.4,2.354h-.053a2.44,2.44,0,0,1-2.352-2.458,2.39,2.39,0,0,1,.748-1.68" transform="translate(4.988 0.415)"/>
    <path id="Path_11054" data-name="Path 11054" d="M13.445,93.754a5.777,5.777,0,0,0-.05,11.555h.022a5.777,5.777,0,0,0,.028-11.555m-.024,8.879h-.075a3.145,3.145,0,0,1-3.025-3.171,3.079,3.079,0,0,1,.963-2.164,3.252,3.252,0,0,1,2.2-.867A3.128,3.128,0,0,1,16.521,99.6a3.161,3.161,0,0,1-3.1,3.034" transform="translate(0.446 5.468)"/>
    <path id="Path_11055" data-name="Path 11055" d="M31.852,93.754a5.777,5.777,0,0,0-.05,11.555h.022a5.777,5.777,0,0,0,.028-11.555m-.024,8.879h-.075a3.145,3.145,0,0,1-3.025-3.171,3.1,3.1,0,0,1,6.2.138,3.161,3.161,0,0,1-3.1,3.034" transform="translate(1.519 5.468)"/>
    <path id="Path_11056" data-name="Path 11056" d="M50.259,93.754a5.777,5.777,0,0,0-.05,11.555h.022a5.777,5.777,0,0,0,.028-11.555m-.023,8.879h-.076a3.145,3.145,0,0,1-3.025-3.171A3.079,3.079,0,0,1,48.1,97.3a3.24,3.24,0,0,1,2.2-.867A3.128,3.128,0,0,1,53.335,99.6a3.161,3.161,0,0,1-3.1,3.034" transform="translate(2.593 5.468)"/>
    <path id="Path_11057" data-name="Path 11057" d="M90.857,24.289c.659.22,1.314.453,1.952.69.355.132.709.264,1.068.393l.074.028a11.576,11.576,0,0,0,3.594-.2l.436-.1c.249-.057.47-.112.7-.168.512-.142,1.045-.307,1.611-.519a12.687,12.687,0,0,0,7.992-10.964A12.672,12.672,0,0,0,84.5,6.607,3.379,3.379,0,0,1,82.775,8.04q-32.309,11.09-64.644,22.1c-.718.246-1,.4-1.138,1.006Q14.334,43.116,11.6,55.066L10.6,59.5c-.6,2.648-1.208,5.295-1.817,7.962l-.956,4.178H5.8C2.079,71.642.024,73.674.02,77.36q-.006,3.18,0,6.361c0,3.627,2.074,5.709,5.675,5.712q6.007,0,12.016,0H24.44v4.655l-.547.119a1.172,1.172,0,0,1-.289.046H18c-2.216,0-4.432,0-6.647.028a13.719,13.719,0,0,0-3.143.331,10.758,10.758,0,0,0,2.44,21.207c2.365.037,4.73.029,7.09.02l3.035-.007,10.174.005q12.581.006,25.167-.02a10.767,10.767,0,0,0,3.766-20.827c-.452-.171-.919-.306-1.387-.441-.23-.066-.459-.132-.688-.2l-.374-.115V89.518l.752-.057c.155-.013.283-.022.411-.029a8.564,8.564,0,0,0,6.445-3.1,8.416,8.416,0,0,0,1.583-6.847c-1.561-8.724-3-16.362-4.381-23.351a14.105,14.105,0,0,0-1.688-3.9,6.98,6.98,0,0,0-1.188-1.413c-.229-.23-.46-.462-.681-.708l-.361-.4.722-.621c.246-.213.511-.442.781-.67L75.614,35.1Q81.9,29.791,88.2,24.5a2.062,2.062,0,0,1,1.665-.533c.327.094.65.206.974.314l0-.014.023.019M82.7,10.973l.144.55c.448,1.717-.049,2.778-1.716,3.665C67.914,22.22,54.506,29.419,41.539,36.381L29.124,43.025l.029-.909a11.346,11.346,0,0,0-4.986-10.268l-.837-.6ZM38.427,43.893,36.83,42l10.221-5.5v12.51l-1.386.005q-.418,0-.825.005c-.446,0-.884-.006-1.321-.03a1.9,1.9,0,0,1-1.262-.591c-1.28-1.476-2.538-2.973-3.83-4.508m.637,4.954-1.056.063c-.478.029-.944.042-1.4.055a16.031,16.031,0,0,0-2.761.232,16.941,16.941,0,0,0-2.685.883c-.431.169-.872.341-1.329.5l-.706.251-.006-1.56c-.007-.775-.015-1.576.032-2.385a1.649,1.649,0,0,1,.806-1.193c.948-.541,1.913-1.052,2.925-1.587l1.492-.793ZM19.392,33.012l.5.091A7.962,7.962,0,0,1,26.406,41.1q.016,9.958.007,19.919l0,10.563H10.629ZM62.849,100.76a7.623,7.623,0,0,1,0,8.571c-1.87,2.98-4.748,4.16-9.052,3.715l-.547-.028.264.1H31.4l.228-.074H12.763l.074-.024h-.266a8.469,8.469,0,0,1-1.561.145,8.226,8.226,0,0,1-6.685-3.345,7.649,7.649,0,0,1-.511-8.752C5.547,98.037,8.339,96.711,12.358,97l41.722,0c.1,0,.205,0,.308.007,3.9-.3,6.688.931,8.46,3.758M27.333,89.515h27.3V94.2h-27.3ZM60.4,60.73c.412,2.46.872,4.855,1.36,7.391l.658,3.459H36.736V59.267h5.977q7.931.006,15.865-.018h.02a1.543,1.543,0,0,1,1.8,1.48M59.33,55.9l.157.652H37.755c-2.557,0-3.8,1.254-3.8,3.831l0,9.311v4.653h6.634q10.393,0,20.783-.02a1.56,1.56,0,0,1,1.871,1.593c.1.921.3,1.857.485,2.764.086.415.173.829.25,1.245a5.712,5.712,0,0,1-1.138,4.8,5.615,5.615,0,0,1-4.423,1.982q-12.609.013-25.222.011-13.229,0-26.456-.005h-1.2c-1.874,0-2.791-.93-2.8-2.844q-.016-3.3,0-6.6c.008-2.046.893-2.919,2.962-2.92q8.288-.006,16.575,0h6.854l0-6.744q0-4.724.005-9.449a6.141,6.141,0,0,1,6.351-6.427q9.246-.032,18.493,0A5.281,5.281,0,0,1,59.33,55.9M62.5,42.619c-2.429,2.048-4.823,4.065-7.229,6.065a1.913,1.913,0,0,1-1.2.322c-.538.011-1.075.013-1.621.013h-.965l-1.493,0-.077-.814a6.78,6.78,0,0,1-.051-.676V43.96c0-2.576,0-5.152-.019-7.728a1.8,1.8,0,0,1,1.117-1.849,9.294,9.294,0,0,0,1.047-.6,4.267,4.267,0,0,1,2.441-.94,4.131,4.131,0,0,1,2.32,1.457c.251.243.5.487.751.691,1.564,1.272,3.123,2.552,4.712,3.854l2.409,1.976Zm5.389-11.543a52.927,52.927,0,0,1-.216,7.237l-.054.448-1.125.047-.177-.126-9.232-7.554L67.949,25.3l-.038.927c-.067,1.64-.042,3.273-.018,4.853M70.6,35.783,70.593,30.6c-.006-1.817-.014-3.7.038-5.548a2.471,2.471,0,0,1,.9-1.646,4,4,0,0,1,5.07-.3,28.547,28.547,0,0,0,3.343,1.6c.556.238,1.127.483,1.712.75l.76.347ZM86.443,22.259c-.805.931-1.23,1.337-1.826,1.337a4.606,4.606,0,0,1-1.708-.559l.218-.483-.22.482L77.1,20.382l6.335-3.4,3.271,4.974ZM88.615,19.7A9.941,9.941,0,0,1,95.54,2.707a10,10,0,0,1,7.088,2.884,9.955,9.955,0,0,1-6.961,17.021h-.026A9.886,9.886,0,0,1,88.615,19.7" transform="translate(0 0)"/>
    <path id="Path_11058" data-name="Path 11058" d="M93.544,23.506a12.152,12.152,0,0,0,1.306-.444c-.567.212-1.1.377-1.612.519.1-.024.208-.048.306-.074" transform="translate(5.438 1.345)"/>
    <path id="Path_11059" data-name="Path 11059" d="M89.791,24.01l.22.079.049.309a1.91,1.91,0,0,1,.053.384v2.893q0,16.111-.023,32.223a2.278,2.278,0,0,1-.8,1.4c-.285.3-.593.582-.9.864a9.456,9.456,0,0,0-1.394,1.469,1.916,1.916,0,0,1-1.828.969c-2.57-.016-5.139-.014-7.71-.011H71.345V89.931l3.059,0c3.6,0,7.163,0,10.727-.019a1.888,1.888,0,0,1,1.916,1.113,5.019,5.019,0,0,0,8.855,0,1.925,1.925,0,0,1,1.912-1.117c3.259.025,6.517.023,9.778.019l4,0V64.593H108.6c-3.592,0-7.144,0-10.694.014H97.88a2.04,2.04,0,0,1-2-1.109,5.855,5.855,0,0,0-1.844-1.89,2.26,2.26,0,0,1-1.231-2.175q.04-13.557.023-27.115V23.938l.553-.13a11.545,11.545,0,0,1-3.594.2M74.032,67.367H86.255v8.456H74.032ZM86.293,87.132H74.055V78.683H86.293ZM96.675,67.368h12.243v8.455H96.675Zm-.006,11.347h12.256v8.426H96.669ZM91.474,63.544c1.484,0,2.409,1.1,2.412,2.878q.008,3.867,0,7.735v6.41q0,3.767,0,7.535c0,1.775-.928,2.878-2.412,2.878h0c-1.486,0-2.41-1.1-2.411-2.88q-.008-10.839,0-21.68c0-1.774.925-2.877,2.411-2.877Z" transform="translate(4.161 1.389)" fill="#ffca0a"/>
    <path id="Path_11060" data-name="Path 11060" d="M85.828,22.932l0,.014.019.005-.023-.019" transform="translate(5.006 1.338)"/>
  </g>
</svg>
