<svg id="Group_4422" data-name="Group 4422" xmlns="http://www.w3.org/2000/svg" xmlns:xlink="http://www.w3.org/1999/xlink" width="108.528" height="108.527" viewBox="0 0 108.528 108.527">
  <defs>
    <clipPath id="clip-path">
      <rect id="Rectangle_2971" data-name="Rectangle 2971" width="108.528" height="108.527" transform="translate(0 0)" fill="none"/>
    </clipPath>
  </defs>
  <g id="Group_4422-2" data-name="Group 4422" clip-path="url(#clip-path)">
    <path id="Path_11111" data-name="Path 11111" d="M108.518,53.856a7,7,0,0,0-13.6-1.89,1.4,1.4,0,0,1-1.6,1.171c-1.821-.041-3.673-.034-5.464-.029-.832,0-1.662.007-2.5,0-.271,0-.539-.019-.824-.039-.133-.009-.272-.019-.417-.027l-.131-.007-.009-.133a30.02,30.02,0,0,0-7.894-18.774l-.1-.106.1-.1q.909-.907,1.813-1.8c1.578-1.561,3.068-3.036,4.549-4.582a1.593,1.593,0,0,1,2.223-.393,6.9,6.9,0,0,0,8.273-1.693A7.008,7.008,0,0,0,85.529,14.18a6.858,6.858,0,0,0-4.251,3.809,7.244,7.244,0,0,0,.08,5.95c.141.308.305,1.03.041,1.3-1.811,1.886-3.621,3.7-5.536,5.617L74.332,32.4l-.106-.094a29.974,29.974,0,0,0-18.865-7.722l-.141-.008v-.142q0-1.312,0-2.593c0-2.28.008-4.433-.018-6.619a1.317,1.317,0,0,1,1.1-1.527,6.893,6.893,0,0,0,4.779-8.329A7.023,7.023,0,0,0,54.207,0l-.223,0A7.047,7.047,0,0,0,47.371,5.7a6.881,6.881,0,0,0,4.271,7.783,1.648,1.648,0,0,1,1.248,1.9c-.052,1.651-.042,3.333-.032,4.959,0,.668.008,1.336.008,2v2.269l-.14.009A30.236,30.236,0,0,0,34.171,32.4l-.083.074-.1-.058c-.065-.04-.116-.069-.156-.092a.761.761,0,0,1-.174-.118q-.894-.892-1.786-1.791c-1.383-1.391-2.813-2.829-4.255-4.206a1.7,1.7,0,0,1-.461-2.4A6.826,6.826,0,0,0,25.5,15.633a6.992,6.992,0,1,0-7.631,11.553,7.147,7.147,0,0,0,5.956.036c.341-.151,1.1-.321,1.4-.039,1.879,1.782,3.739,3.623,5.538,5.4l1.51,1.494-.043.1c-.04.087-.066.152-.086.2a.645.645,0,0,1-.106.2,29.93,29.93,0,0,0-7.434,17.849c-.066.932-.668.923-1.166.929l-1.484-.007c-2.193-.013-4.464-.025-6.695.025a1.39,1.39,0,0,1-1.582-1.189A7,7,0,0,0,0,54.591a7.092,7.092,0,0,0,5.633,6.556,6.955,6.955,0,0,0,7.821-4.2,1.667,1.667,0,0,1,1.78-1.269c.04,0,.081,0,.124,0,1.773.05,3.58.041,5.326.032.729,0,1.46,0,2.189-.007,1.608,0,1.677.062,1.844,1.661a29.481,29.481,0,0,0,7.092,16.393,5.037,5.037,0,0,1,.348.484c.059.087.119.178.188.275l.072.1-.089.089q-.885.882-1.76,1.751c-1.565,1.556-3.043,3.024-4.529,4.55a1.511,1.511,0,0,1-2.126.4,6.791,6.791,0,0,0-8.283,1.61,7,7,0,0,0,7.3,11.346,6.829,6.829,0,0,0,4.88-6.874,12.556,12.556,0,0,0-.52-2.591c-.1-.375-.209-.762-.3-1.137l-.018-.081,7.336-7.348.1.094a30.041,30.041,0,0,0,18.469,7.6l.14.009V94.528l-.46.152c-.253.083-.493.16-.727.248a7.017,7.017,0,0,0,2.449,13.6c.114,0,.228,0,.342-.008a7.049,7.049,0,0,0,6.54-5.781,6.944,6.944,0,0,0-4.57-7.8,1.471,1.471,0,0,1-1.177-1.7c.034-1.785.028-3.6.023-5.358q0-1.245,0-2.49c0-.272.019-.54.037-.824.008-.13.016-.264.024-.4l.007-.134.133-.007a30.211,30.211,0,0,0,18.676-7.767l.084-.076.1.061c.064.041.118.073.166.1a1.064,1.064,0,0,1,.224.156q.923.918,1.842,1.843c1.391,1.4,2.831,2.843,4.278,4.23a1.524,1.524,0,0,1,.352,2.13,6.9,6.9,0,0,0,1.719,8.268,7.007,7.007,0,1,0,7.4-11.709,7.122,7.122,0,0,0-5.889.124c-.062.03-.122.062-.182.093a.959.959,0,0,1-1.339-.119c-1.629-1.663-3.316-3.329-4.947-4.94q-.9-.887-1.794-1.775l-.07-.07.036-.091c.036-.091.06-.159.078-.21a.579.579,0,0,1,.1-.2A29.917,29.917,0,0,0,83.9,56.436c.065-.82.488-.965,1.131-.976,2.694.021,5.56.037,8.4-.009h.053a1.3,1.3,0,0,1,1.4,1.066,7,7,0,0,0,13.623-2.661M87.651,16.228h.02a4.629,4.629,0,1,1,.015,9.257h-.012a4.629,4.629,0,1,1-.023-9.257M20.874,25.5h-.015a4.636,4.636,0,1,1-.021-9.272h.018a4.636,4.636,0,0,1,.018,9.272M10.319,57.546A4.639,4.639,0,0,1,7.031,58.9H6.995a4.631,4.631,0,1,1,.028-9.261h.022A4.662,4.662,0,0,1,11.69,54.29a4.571,4.571,0,0,1-1.371,3.256M20.9,92.3h-.044a4.629,4.629,0,1,1-.038-9.258h.031A4.629,4.629,0,0,1,20.9,92.3m63.59-8.031a4.715,4.715,0,0,1,3.345-1.242,4.6,4.6,0,0,1,4.466,4.8,4.546,4.546,0,0,1-1.413,3.213A4.65,4.65,0,0,1,87.657,92.3l-.145,0a4.66,4.66,0,0,1-3.027-8.027M51,10.342a4.637,4.637,0,0,1-1.37-3.317A4.613,4.613,0,0,1,54.26,2.362h.011a4.6,4.6,0,0,1,4.622,4.654,4.663,4.663,0,0,1-4.625,4.673h-.022A4.562,4.562,0,0,1,51,10.342m7.892,91.1a4.62,4.62,0,0,1-4.559,4.73h-.071a4.614,4.614,0,0,1-4.63-4.584,4.666,4.666,0,0,1,1.348-3.374,4.611,4.611,0,0,1,3.3-1.354h.027a4.635,4.635,0,0,1,4.588,4.582M76.906,69.613A27.1,27.1,0,0,1,58.421,81.36a6.52,6.52,0,0,1-.692.051c-.1,0-.208.007-.312.013a23.932,23.932,0,0,1-3.461.251,26.391,26.391,0,0,1-8.664-1.511A27.322,27.322,0,0,1,49.87,27.355a29.337,29.337,0,0,1,4.82-.21c.731.007,1.486.015,2.223,0h.015c11.3.849,21.139,9.355,23.926,20.686a27.394,27.394,0,0,1-3.948,21.783M104.8,57.56a4.627,4.627,0,0,1-3.272,1.337h-.048a4.63,4.63,0,1,1,.03-9.26h.035A4.633,4.633,0,0,1,104.8,57.56"/>
    <path id="Path_11112" data-name="Path 11112" d="M60.251,74.482a21.086,21.086,0,0,0,.106-40.4,20.65,20.65,0,0,0-6.075-.911A21.061,21.061,0,0,0,36.876,66.144v0a21,21,0,0,0,23.374,8.336M56.26,71.917a1.18,1.18,0,0,1-.325.133c-.078.025-.173.054-.292.1l-.2.072V69.85q0-.94,0-1.882c.005-1.592.01-3.238-.016-4.856a1.279,1.279,0,0,1,.362-1.086,1.126,1.126,0,0,1,1.017-.1c1.441.375,2.994.807,4.887,1.36a1.036,1.036,0,0,1,.716.5.9.9,0,0,1-.057.761,17.333,17.333,0,0,1-6.1,7.373M67.02,67.9a16.567,16.567,0,0,1-6.084,3.848l-.433.162,4.483-6.776.129.1c.166.132.337.263.509.4a15.07,15.07,0,0,1,1.389,1.157.846.846,0,0,1,.165.554.862.862,0,0,1-.158.557m5.851-12.264a17.539,17.539,0,0,1-3.544,9.7l-.092.124-.122-.1c-.295-.231-.583-.453-.865-.67-.767-.593-1.493-1.152-2.178-1.755a1.414,1.414,0,0,1-.226-1.115c.292-1.967.589-3.743.906-5.43.058-.3.387-.872.705-.884,1.315-.047,2.62-.042,4-.038q.625,0,1.268,0h.16ZM69.1,43.173l.12-.094.093.122A17.6,17.6,0,0,1,72.878,52.9l.012.161h-.161l-1.277,0-1.216,0c-.946,0-1.865-.007-2.789-.041-.314-.011-.64-.585-.7-.891-.317-1.689-.614-3.465-.906-5.429a1.4,1.4,0,0,1,.235-1.113c.683-.6,1.4-1.159,2.169-1.749.28-.216.566-.436.857-.665m-8.166-6.388a16.56,16.56,0,0,1,6.084,3.85,1.024,1.024,0,0,1-.008,1.109,13.982,13.982,0,0,1-1.349,1.143c-.178.14-.359.281-.539.426l-.129.1-4.492-6.794Zm-5.473-.7.233.151a16.983,16.983,0,0,1,6.648,7.826.9.9,0,0,1-.1.618c-.056.121-.211.409-.419.473-1.762.543-3.552,1.028-5.32,1.442a.344.344,0,0,1-.08.009,1.205,1.205,0,0,1-.631-.278c-.135-.1-.295-.261-.3-.42-.043-2.487-.04-4.977-.038-7.614Zm2.278,12.721.183-.036a36.963,36.963,0,0,0,4.434-1.262,1.269,1.269,0,0,1,1.039-.029,1.014,1.014,0,0,1,.4.785c.075.52.156,1.04.236,1.559.11.717.22,1.435.318,2.154a.985.985,0,0,1-.183.818,1.049,1.049,0,0,1-.82.29h-.037c-.8-.014-1.607-.011-2.413-.008l-1.01,0-.919,0c-.835,0-1.671,0-2.506,0h-.024a1.008,1.008,0,0,1-.761-.259.991.991,0,0,1-.229-.763,1.565,1.565,0,0,0,0-.168v-.041c-.1-2.5-.031-2.589,2.3-3.045m-2.321,8.73a2.548,2.548,0,0,0,.051-.98.86.86,0,0,1,.122-.783,1.069,1.069,0,0,1,.912-.334c.8.013,1.617.012,2.406.008l1.018,0c.349,0,.692,0,1.039,0,.747,0,1.518.007,2.273-.011a1.139,1.139,0,0,1,.927.3,1.021,1.021,0,0,1,.181.855l-.02.134c-.182,1.248-.371,2.538-.642,3.791a.649.649,0,0,1-.307.35,1.281,1.281,0,0,1-.619.211.437.437,0,0,1-.1-.011l-.854-.192c-1.84-.414-3.742-.842-5.562-1.43-1.092-.353-.948-1.179-.821-1.909M47.611,71.752a16.612,16.612,0,0,1-6.2-3.961.6.6,0,0,1-.115-.417.81.81,0,0,1,.175-.534c.447-.421.936-.81,1.408-1.186.176-.14.352-.28.526-.422l.128-.1,4.51,6.785Zm5.46.7-.233-.152a17.085,17.085,0,0,1-6.655-7.832.832.832,0,0,1,.084-.576c.052-.113.194-.382.39-.443,1.858-.582,3.674-1.091,5.4-1.513.231-.054.54.17.631.24.129.1.345.294.349.485.042,2.471.04,4.946.037,7.566Zm.021-14.994a3.492,3.492,0,0,0-.048.81,1.385,1.385,0,0,1-.74,1.182c-1.749.456-3.528.859-5.412,1.286q-.909.205-1.866.424l-.158.037-.024-.161q-.077-.528-.159-1.074c-.175-1.16-.355-2.361-.47-3.575a.708.708,0,0,1,.219-.465,1.207,1.207,0,0,1,.715-.436c1.819-.048,3.669-.042,5.458-.035l1.51,0h.055a.567.567,0,0,1,.359.071,1.778,1.778,0,0,1,.561,1.933m0-6.25c0,.971,0,1.414-.255,1.666-.24.236-.627.229-1.406.216-.3-.005-.653-.011-1.079-.005-.762.012-1.525.008-2.289,0-.879-.006-1.79-.01-2.685.01h-.066a1.187,1.187,0,0,1-.942-.323,1.148,1.148,0,0,1-.187-.973c.16-1.04.33-2.079.508-3.17l.256-1.576.171.063c.194.072.36.137.508.195a6.288,6.288,0,0,0,.7.247c.434.113.869.229,1.3.345,1.423.379,2.894.771,4.356,1.072.715.148,1.126.4,1.112,1.278-.006.363-.006.678-.006.95m-.247-14.97.233-.151v2.3c0,2.568.005,4.994-.039,7.413,0,.223-.276.457-.392.547a1.089,1.089,0,0,1-.553.251.364.364,0,0,1-.074-.008c-1.632-.389-3.364-.871-5.3-1.473a1.068,1.068,0,0,1-.494-.542.57.57,0,0,1-.064-.442,16.9,16.9,0,0,1,6.68-7.9M41.565,40.562a17.039,17.039,0,0,1,6.047-3.789l.433-.162-4.515,6.8L43.4,43.3c-.162-.135-.329-.27-.5-.407-.5-.41-1.027-.834-1.508-1.3a.375.375,0,0,1-.091-.282,1.206,1.206,0,0,1,.26-.746m-2.339,2.633.092-.12.119.093c.275.215.546.424.813.63.795.613,1.547,1.194,2.277,1.81a1.156,1.156,0,0,1,.2.935c-.282,1.824-.589,3.763-.957,5.65a1.215,1.215,0,0,1-.859.847c-.721.036-1.465.054-2.245.054-.695,0-1.418-.015-2.179-.043a.927.927,0,0,1-.555-.345.667.667,0,0,1-.205-.441,16.875,16.875,0,0,1,3.5-9.07M35.642,55.619l-.013-.161h.162c.463,0,.913,0,1.354,0,1.318,0,2.563-.012,3.8.04.329.013.759.522.828.879.321,1.654.617,3.416.931,5.543a1.38,1.38,0,0,1-.287,1.1c-.667.579-1.374,1.118-2.122,1.688q-.418.319-.859.659l-.119.092-.092-.119a17.681,17.681,0,0,1-3.583-9.716" fill="#ffca0a"/>
  </g>
</svg>
