<svg id="Group_4419" data-name="Group 4419" xmlns="http://www.w3.org/2000/svg" xmlns:xlink="http://www.w3.org/1999/xlink" width="104.024" height="104.054" viewBox="0 0 104.024 104.054">
  <defs>
    <clipPath id="clip-path">
      <rect id="Rectangle_2959" data-name="Rectangle 2959" width="104.024" height="104.054" fill="none"/>
    </clipPath>
  </defs>
  <g id="Group_4419-2" data-name="Group 4419" clip-path="url(#clip-path)">
    <path id="Path_11072" data-name="Path 11072" d="M103.964,44.158a1.12,1.12,0,0,0-2.2.034,2.927,2.927,0,0,0-.033.669l.005.264,0,23.987H51.275V9.756h50.457l0,26.816c0,.206-.006.413.009.618a1.125,1.125,0,0,0,1.105,1.135A1.16,1.16,0,0,0,104,37.151a4.738,4.738,0,0,0,.007-.477l0-.21,0-8.537q0-12.418.024-24.837A2.928,2.928,0,0,0,102.271,0H48.627a2.6,2.6,0,0,0-1.64,2.348l0,1.491c0,1.173-.005,2.346.006,3.518a2,2,0,0,0,.98,1.882,1.742,1.742,0,0,1,.967,1.829q-.02,11.073-.012,22.146v9.468q0,12.585-.008,25.17c0,.515,0,1.054-.328,1.342a32.933,32.933,0,0,1-3.209,2.526c-1.409.948-2.871,1.863-4.285,2.747l-1.585.995c-.192.121-.39.231-.6.346l-.613.347-3.626-5.7q-3.106-4.911-6.222-9.816a2.484,2.484,0,0,0-3.891-.881Q16.225,65.022,7.9,70.314c-1.76,1.12-2.015,2.312-.878,4.114q2.495,3.946,4.993,7.887l4.752,7.516-.647.433c-.23.154-.442.3-.658.434L11.812,93.01c-3.3,2.088-6.605,4.176-9.883,6.3a8.037,8.037,0,0,0-1.393,1.257c-.178.185-.354.371-.536.549V102.3a2.738,2.738,0,0,0,3.056,1.744c.824-.04,1.66-.026,2.47-.013.967.015,1.97.031,2.938-.044a6.671,6.671,0,0,0,2.887-.818c3.358-2.048,6.735-4.2,10-6.277l4.1-2.6c.776-.486,1.551-.973,2.3-1.494a1.075,1.075,0,0,0,.371-1.529,1.111,1.111,0,0,0-1.607-.346c-.184.1-.357.212-.531.325l-3.607,2.291q-6.041,3.828-12.082,7.651l-.133.086a2.152,2.152,0,0,1-1.067.445c-1.248.036-2.5.03-3.745.026l-1.63,0-.19-.788.24-.152L47,73.4v.727c0,.339-.013.65-.024.942a6.323,6.323,0,0,0,.045,1.482,1.743,1.743,0,0,1-1.005,2.022c-2.365,1.467-4.715,2.959-7.066,4.451l-3.44,2.178c-.936.588-1.871,1.176-2.794,1.785a1.11,1.11,0,0,0-.461,1.584,1.155,1.155,0,0,0,1.691.315c.173-.1.339-.206.5-.315L37.715,86.5q5.622-3.564,11.246-7.12a5.626,5.626,0,0,1,.812-.4c.149-.063.309-.132.486-.214l.568-.262v8.641c0,3.253,1.031,4.3,4.244,4.3l1.481.006c1.209.007,2.417.013,3.626-.021.912-.026,1.32.315,1.5,1.255A13.655,13.655,0,0,0,75.2,104.026h.1A13.736,13.736,0,0,0,88.649,92.6a1.257,1.257,0,0,1,1.5-1.157c3.057.017,6.115.013,9.177.009h.85c2.684,0,3.83-1.163,3.83-3.878V45.189l0-.264a3.256,3.256,0,0,0-.041-.767m-84.939,21.8L22.851,72l-3.244,2.079-3.844-6.064Zm-.308,22.686L8.547,72.6l5.29-3.358,3.689,5.805c1.029,1.613,1.921,1.814,3.543.795l.785-.491c.775-.485,1.55-.969,2.311-1.476a1.958,1.958,0,0,0,.664-2.981c-.809-1.313-1.638-2.615-2.49-3.955l-1.394-2.2,5.3-3.354L36.4,77.431ZM49.3,2.325h52.357V7.341H49.3Zm0,69.211H101.7v4.986H49.308ZM61.661,87.994c-.125.718-.394,1.2-1.291,1.2h-.049c-1.54-.029-3.083-.023-4.621-.015l-1.2,0a1.736,1.736,0,0,1-.877-.154,1.006,1.006,0,0,1-.518-.968c0-2.164,0-4.328,0-6.532V78.888h14l-.818.909a5.211,5.211,0,0,1-.373.4,13.655,13.655,0,0,0-4.248,7.8M83.226,98.411a11.347,11.347,0,0,1-8.066,3.342h-.032A11.473,11.473,0,0,1,63.712,90.331,11.52,11.52,0,0,1,75.149,78.863H75.2a11.443,11.443,0,0,1,8.029,19.548m18.191-9.578a1.475,1.475,0,0,1-1.076.352h-.022q-5.163-.028-10.325,0a1.124,1.124,0,0,1-1.315-1,13.6,13.6,0,0,0-4.491-8.189,1.545,1.545,0,0,1-.219-.262l-.628-.813h18.391l0,5.373c-.006,1.158-.012,2.316.016,3.473a1.394,1.394,0,0,1-.327,1.072"/>
    <path id="Path_11073" data-name="Path 11073" d="M9.583,87.118q-4.4,2.772-8.77,5.576a3.209,3.209,0,0,0-.559.515L.1,93.373v.644c.751.925,1.1.823,1.535.551,2.921-1.805,5.961-3.729,9.293-5.881a1.049,1.049,0,0,0,.484-.7,1.012,1.012,0,0,0-.21-.8c-.514-.662-1.3-.271-1.619-.071"/>
    <path id="Path_11074" data-name="Path 11074" d="M.9,86.1l-.8.567v.776c.69.731,1.087.726,1.528.461C3.75,86.619,5.895,85.262,8,83.87a.932.932,0,0,0,.238-1.347.915.915,0,0,0-.562-.454,1.01,1.01,0,0,0-.784.114c-1.1.642-2.236,1.36-3.7,2.328-.776.514-1.536,1.053-2.3,1.591"/>
    <path id="Path_11075" data-name="Path 11075" d="M79.679,65.517a.708.708,0,0,0,.565.018,2.912,2.912,0,0,0,1.079-1.078,1.351,1.351,0,0,0,.007-.505c-.01-.129-.022-.258-.022-.378l0-47.792c0-.435.008-.869-.012-1.3A1.087,1.087,0,0,0,80.261,13.3l-.081,0a1.126,1.126,0,0,0-1.131,1.123,4.553,4.553,0,0,0-.013.549l0,.224v6.063q0,21.218,0,42.436a3.908,3.908,0,0,0,.125,1.181,1.082,1.082,0,0,0,.51.649" fill="#ffca0a"/>
    <path id="Path_11076" data-name="Path 11076" d="M58.974,14.391A1.053,1.053,0,0,0,57.912,13.3c-.034,0-.068,0-.1,0a1.09,1.09,0,0,0-1.079,1.032,4.335,4.335,0,0,0-.021.635l0,.232v48.5l0,.25a2.757,2.757,0,0,0,.036.676,1.04,1.04,0,0,0,1.194.941,1.016,1.016,0,0,0,1.027-1.02,4.818,4.818,0,0,0,.019-.691l0-.28v-48.3l0-.268a5.48,5.48,0,0,0-.012-.615" fill="#ffca0a"/>
    <path id="Path_11077" data-name="Path 11077" d="M71.64,64.551a1.01,1.01,0,0,0,1.031,1.01,1.021,1.021,0,0,0,1.164-.864,3.007,3.007,0,0,0,.058-.808l0-.205q0-24.25,0-48.5A3.921,3.921,0,0,0,73.766,14a1.09,1.09,0,0,0-.508-.654.671.671,0,0,0-.3-.07.794.794,0,0,0-.264.048,2.942,2.942,0,0,0-1.1,1.084,1.49,1.49,0,0,0,.006.42c.011.12.021.24.021.35v48.4l0,.272a5.276,5.276,0,0,0,.02.7" fill="#ffca0a"/>
    <path id="Path_11078" data-name="Path 11078" d="M96.2,14.3c-.172-.88-.689-1-1.088-1h-.057a1.035,1.035,0,0,0-1.093,1.05,3.855,3.855,0,0,0-.016.6l0,.268v48.4l-.006.29a3.508,3.508,0,0,0,.023.665,1.029,1.029,0,0,0,1.063.992,1.041,1.041,0,0,0,1.149-.9,2.688,2.688,0,0,0,.041-.688l0-.228,0-48.849a2.933,2.933,0,0,0-.024-.6" fill="#ffca0a"/>
    <path id="Path_11079" data-name="Path 11079" d="M86.549,64.638a.975.975,0,0,0,1,.923,1,1,0,0,0,1.149-.85,4.954,4.954,0,0,0,.072-1.06q0-24.255,0-48.363v-.166a5.28,5.28,0,0,0-.035-.8,1.058,1.058,0,0,0-1.056-1.034c-.038,0-.078,0-.118.005a1.039,1.039,0,0,0-1.044,1.1c-.02.261-.019.523-.017.785V39.431l0,24.145v.177a5.643,5.643,0,0,0,.04.885" fill="#ffca0a"/>
    <path id="Path_11080" data-name="Path 11080" d="M66.425,14.574c-.05-.85-.427-1.281-1.119-1.281h-.022c-.694.009-1.07.453-1.118,1.321-.012.211-.009.423-.007.635l0,.263v27.88q0,10.1,0,20.205a5.209,5.209,0,0,0,.073,1.133.965.965,0,0,0,1.053.833h.026a.961.961,0,0,0,1.051-.858,5.831,5.831,0,0,0,.063-1.091v-.16l0-48.239c0-.214.005-.428-.008-.641" fill="#ffca0a"/>
    <path id="Path_11081" data-name="Path 11081" d="M31.036,49.094q1.667-4.02,3.368-8.027l1.853-4.4a2.832,2.832,0,0,0,.087-2.589,2.918,2.918,0,0,0-2.42-1.1q-6.833-.46-13.666-.967c-.109-.008-.215-.013-.318-.013A2.187,2.187,0,0,0,17.9,33.049a2.253,2.253,0,0,0,.1,2.563c.352.564.7,1.131,1.054,1.71l.727,1.182-.668.44c-.223.148-.431.287-.645.418L4.891,47.7c-1.815,1.115-2.073,2.213-.95,4.054q1.036,1.7,2.086,3.393c1.045,1.68,2.154,1.947,3.838.924Q12.1,54.7,14.328,53.33L24.89,46.837l.654,1.042c.332.521.648,1.018.936,1.531.679,1.206,1.4,1.678,2.442,1.6,1.138-.1,1.667-.835,2.114-1.911m-2.3-.4L27.8,47.2c-.331-.539-.629-1.021-.931-1.5-.9-1.417-1.806-1.627-3.248-.741Q19.16,47.689,14.7,50.433L9.77,53.463c-.253.156-.511.306-.79.468l-.754.442L5.563,50.061l.553-.4c.179-.132.348-.255.525-.364q7.01-4.315,14.025-8.624C22.4,39.608,22.6,38.749,21.534,37l-1.657-2.717L34.367,35.3Z" fill="#ffca0a"/>
    <path id="Path_11082" data-name="Path 11082" d="M68.611,90.31a6.6,6.6,0,0,0,6.557,6.545h.017a6.463,6.463,0,0,0,4.6-1.927,6.551,6.551,0,0,0-4.621-11.167h-.072a6.573,6.573,0,0,0-6.48,6.548m3.522-2.994a4.3,4.3,0,0,1,3.028-1.283h.016a4.273,4.273,0,0,1,3,7.3,4.225,4.225,0,0,1-3.012,1.256h-.014a4.3,4.3,0,0,1-4.267-4.23,4.222,4.222,0,0,1,1.253-3.038" fill="#ffca0a"/>
  </g>
</svg>
