<svg id="Group_4418" data-name="Group 4418" xmlns="http://www.w3.org/2000/svg" xmlns:xlink="http://www.w3.org/1999/xlink" width="97.235" height="104.287" viewBox="0 0 97.235 104.287">
  <defs>
    <clipPath id="clip-path">
      <rect id="Rectangle_2958" data-name="Rectangle 2958" width="97.235" height="104.287" fill="none"/>
    </clipPath>
  </defs>
  <g id="Group_4418-2" data-name="Group 4418" clip-path="url(#clip-path)">
    <path id="Path_11061" data-name="Path 11061" d="M63.747,0H33.539c-1.667,0-1.9.238-1.9,1.954V31.646H17.687c-1.6,0-1.867.264-1.867,1.876V66.808H1.944C.236,66.809,0,67.041,0,68.717v33.619c0,1.714.231,1.951,1.9,1.951H95.383c1.593,0,1.852-.266,1.852-1.894V68.664c0-1.594-.265-1.855-1.889-1.855H81.416l0-33.451c0-1.388-.318-1.708-1.7-1.71q-4.4,0-8.787,0H65.6V1.9c0-1.63-.261-1.9-1.849-1.9M46.326,2.371H50.89V6.99H46.326Zm-12.317,0h9.935V4.428q0,1.6,0,3.211c.005,1.385.325,1.7,1.71,1.708h.255c1.963,0,3.926.011,5.889,0,1.1-.009,1.477-.385,1.489-1.493s.008-2.2.005-3.323l0-2.147h9.9V31.567H34.009ZM30.518,34.011H35.1v8.095h-4.58Zm-12.3,0h9.909v8.531c0,1.742.227,1.963,2,1.964h1.391c1.439,0,2.879,0,4.318,0,1.3-.006,1.631-.35,1.635-1.674,0-1.9,0-3.81,0-5.742V34.04H47.4V66.756H18.215ZM50.9,77.294H46.312V69.207H50.9ZM14.678,69.213h4.581v8.1H14.678Zm16.909,32.679H2.383V69.18h9.922l0,3.842c0,1.756-.006,3.512.008,5.267.008.969.408,1.368,1.377,1.378,2.158.022,4.314.017,6.47,0,1.108-.007,1.483-.383,1.489-1.488.009-1.954.007-3.907.005-5.888V69.18h9.936Zm31.6.053H34.037V69.194h9.907V77.7c0,1.748.225,1.969,2,1.969l1.573,0c1.413,0,2.828,0,4.245-.005,1.168-.008,1.525-.372,1.53-1.558.007-1.924.006-3.849,0-5.8V69.205h9.9Zm21.739-23.76c.01-1.944.008-3.889.006-5.862l0-3.145h9.935v32.713h-29.2V69.181h9.92l0,3.773c0,1.777-.006,3.554.009,5.331.009.971.406,1.371,1.372,1.381,2.157.024,4.314.019,6.471,0,1.11-.007,1.486-.382,1.493-1.484m-2.369-.916H77.977V69.174h4.581ZM69.107,43.009c.009-1.951.007-3.9,0-5.89V33.986h9.9V66.733H49.84V34.053h9.924V38.83c0,1.4-.005,2.8.006,4.2.008,1.1.385,1.473,1.5,1.481q3.183.021,6.361,0c1.1-.008,1.475-.386,1.481-1.5m-2.391-.862H62.141v-8.1h4.575Z"/>
    <path id="Path_11062" data-name="Path 11062" d="M24.642,56.264c-.2.005-.4.009-.593.009l-.6-.012c-.185,0-.37-.007-.554-.007-.224,0-.447.006-.67.022A1.134,1.134,0,0,0,21.1,57.39a1.107,1.107,0,0,0,1.028,1.158,30.918,30.918,0,0,0,3.769-.007,1.031,1.031,0,0,0,1.01-1.12,1.1,1.1,0,0,0-1.049-1.139,10.22,10.22,0,0,0-1.219-.018" fill="#ffca0a"/>
    <path id="Path_11063" data-name="Path 11063" d="M24.642,61.538c-.2.005-.4.009-.594.009l-.6-.011c-.188,0-.374-.008-.561-.008-.222,0-.442.005-.662.022A1.132,1.132,0,0,0,21.1,62.665a1.107,1.107,0,0,0,1.029,1.157,30.885,30.885,0,0,0,3.769-.008,1.03,1.03,0,0,0,1.009-1.119,1.1,1.1,0,0,0-1.051-1.14,10.62,10.62,0,0,0-1.217-.017" fill="#ffca0a"/>
    <path id="Path_11064" data-name="Path 11064" d="M55.616,56.242c-.593,0-1.165.012-1.726.035a1.121,1.121,0,0,0-1.148,1.156,1.16,1.16,0,0,0,1.21,1.135c.358.021.717.016,1.075.01l.537,0,.545,0c.394,0,.789.01,1.183-.008A1.169,1.169,0,0,0,58.555,57.4a1.141,1.141,0,0,0-1.2-1.128c-.6-.021-1.182-.031-1.742-.031" fill="#ffca0a"/>
    <path id="Path_11065" data-name="Path 11065" d="M52.742,62.673c-.017,1.033,1.018,1.166,1.463,1.175.322.007.645.005.971,0h.444l.5,0c.342,0,.681,0,1.019,0,.419-.011,1.4-.144,1.413-1.14.011-.7-.508-1.15-1.356-1.169-1.016-.022-2.033-.019-3.051,0-.417.008-1.389.133-1.406,1.135" fill="#ffca0a"/>
    <path id="Path_11066" data-name="Path 11066" d="M38.056,91.44a1.114,1.114,0,0,0-1.134,1.165,1.14,1.14,0,0,0,1.126,1.118c.379.029.761.02,1.146.014.189,0,.389-.01.566-.006l.577.007c.416.007.831.016,1.247-.013a1.148,1.148,0,0,0,1.152-1.171,1.114,1.114,0,0,0-1.107-1.112c-1.165-.051-2.366-.051-3.573,0" fill="#ffca0a"/>
    <path id="Path_11067" data-name="Path 11067" d="M38.062,96.714a1.118,1.118,0,0,0-1.141,1.162A1.137,1.137,0,0,0,38.042,99c.377.03.758.022,1.139.015.19,0,.381,0,.572-.007l.58.007c.417.008.833.016,1.245-.012a1.152,1.152,0,0,0,1.158-1.168,1.11,1.11,0,0,0-1.1-1.115c-1.147-.05-2.348-.052-3.571,0" fill="#ffca0a"/>
    <path id="Path_11068" data-name="Path 11068" d="M74.375,92.607a1.112,1.112,0,0,0-1.133-1.167c-.588-.023-1.178-.036-1.764-.036q-.91,0-1.809.039a1.111,1.111,0,0,0-1.107,1.11,1.137,1.137,0,0,0,1.15,1.173c.386.027.773.019,1.161.012l.552-.007c.2,0,.4,0,.6.007.408.008.817.016,1.222-.015a1.137,1.137,0,0,0,1.127-1.116" fill="#ffca0a"/>
    <path id="Path_11069" data-name="Path 11069" d="M68.562,97.859A1.136,1.136,0,0,0,69.658,99c.407.032.819.023,1.23.015.2,0,.361,0,.6-.008.195,0,.389,0,.585.008a11.959,11.959,0,0,0,1.219-.016,1.128,1.128,0,0,0,1.084-1.145A1.1,1.1,0,0,0,73.3,96.72q-.921-.042-1.84-.042t-1.837.043a1.1,1.1,0,0,0-1.06,1.138" fill="#ffca0a"/>
    <path id="Path_11070" data-name="Path 11070" d="M36.922,22.238A1.144,1.144,0,0,0,38.087,23.4c.369.026.742.02,1.116.013V23.4h.6c.2,0,.392,0,.589.007.411.008.823.016,1.23-.015a1.131,1.131,0,0,0,1.113-1.126,1.1,1.1,0,0,0-1.045-1.147q-.889-.045-1.836-.045c-.6,0-1.215.014-1.84.041a1.1,1.1,0,0,0-1.092,1.119" fill="#ffca0a"/>
    <path id="Path_11071" data-name="Path 11071" d="M36.922,27.514a1.145,1.145,0,0,0,1.166,1.162c.37.025.744.02,1.117.013v-.01h.6c.2,0,.392,0,.589.007a12.293,12.293,0,0,0,1.23-.015,1.129,1.129,0,0,0,1.111-1.127A1.1,1.1,0,0,0,41.687,26.4q-.889-.045-1.836-.045-.9,0-1.84.041a1.1,1.1,0,0,0-1.089,1.12" fill="#ffca0a"/>
  </g>
</svg>
