<svg xmlns="http://www.w3.org/2000/svg" xmlns:xlink="http://www.w3.org/1999/xlink" width="93.077" height="95.657" viewBox="0 0 93.077 95.657">
  <defs>
    <clipPath id="clip-path">
      <rect id="Rectangle_2972" data-name="Rectangle 2972" width="93.077" height="95.657" transform="translate(0 0)" fill="none"/>
    </clipPath>
  </defs>
  <g id="Group_4423" data-name="Group 4423" transform="translate(0 0)">
    <g id="Group_4423-2" data-name="Group 4423" clip-path="url(#clip-path)">
      <path id="Path_11113" data-name="Path 11113" d="M67.6,82.543C75,77.99,82.658,73.281,90.16,68.61a6.261,6.261,0,0,0,2.14-2.292,6.777,6.777,0,0,0-.134-6.551,6.146,6.146,0,0,0-5.512-2.853H86.6A16.186,16.186,0,0,0,78.665,59.5q-4.634,2.67-9.246,5.371-3.767,2.194-7.538,4.382c-.6.349-1.238.645-1.853.931-.28.131-.559.261-.837.4l-.9.439.39-.922c1.919-4.539-.706-7.669-2.939-8.665a8.359,8.359,0,0,0-1.512-.45c-.352-.082-.706-.165-1.048-.272-1.347-.423-2.7-.835-4.047-1.247-3.357-1.025-6.827-2.084-10.184-3.3a12.705,12.705,0,0,0-10.919.751c-2.144,1.161-4.3,2.4-6.376,3.6q-1.194.688-2.39,1.376c-1.3.745-2.6,1.495-3.915,2.257L13.2,65.392l-.59-1.043c-.289-.513-.56-.994-.84-1.472A3.748,3.748,0,0,0,8.531,60.8a4.292,4.292,0,0,0-2.069.577c-1.471.811-2.93,1.644-4.384,2.485A3.684,3.684,0,0,0,.617,69.247q6.87,12.172,13.771,24.324a3.652,3.652,0,0,0,5.3,1.507c1.389-.761,2.824-1.572,4.384-2.481a3.691,3.691,0,0,0,1.472-5.392L24.3,84.946l.318-.184c.174-.1.34-.19.5-.275A5.552,5.552,0,0,0,25.919,84a3.487,3.487,0,0,1,3.394-.51c4.363,1.208,8.81,2.4,13.111,3.543q3.511.938,7.02,1.881A12.42,12.42,0,0,0,59.68,87.419Zm-44.834,8.08c-.622.358-1.246.709-1.87,1.061-.755.425-1.51.85-2.259,1.286a1.885,1.885,0,0,1-.94.3,1.251,1.251,0,0,1-.323-.043,1.7,1.7,0,0,1-1-.9Q12.184,84.9,7.982,77.48L2.726,68.189a4.932,4.932,0,0,1-.272-.6l-.239-.576.156-.178c.067-.076.13-.16.193-.245a2.248,2.248,0,0,1,.618-.624c1.3-.774,2.629-1.515,3.954-2.256l.519-.291a1.506,1.506,0,0,1,2.2.848q3.732,6.617,7.475,13.222L20.6,83.269q1.406,2.481,2.805,4.965c.65,1.155.494,1.736-.638,2.389m30.023-3.647a12.347,12.347,0,0,1-3.306-.47c-4.266-1.18-8.617-2.34-12.824-3.46q-4.215-1.122-8.429-2.257a2.2,2.2,0,0,0-1.914.242c-.631.4-1.281.764-1.968,1.152l-1.248.711-8.7-15.366.512-.35c.16-.113.306-.215.459-.3l2.771-1.61q4.572-2.656,9.158-5.29a30.63,30.63,0,0,1,3.344-1.643,8.993,8.993,0,0,1,6.7-.184c3.74,1.305,7.711,2.627,12.5,4.162a27.516,27.516,0,0,0,2.762.674c.422.087.844.175,1.264.271a3.939,3.939,0,0,1,2.645,1.978,3.588,3.588,0,0,1,.122,3.051c-.718,1.768-2.438,2.5-4.589,1.954-2.321-.585-4.633-1.205-6.945-1.825Q43.56,68,42.016,67.586l-.184-.049a3.423,3.423,0,0,0-.6-.133,1.064,1.064,0,0,0-1.273.864,1.031,1.031,0,0,0,.709,1.345c1.122.4,2.262.69,3.131.9q1.245.306,2.49.618c2.571.642,5.229,1.305,7.862,1.846a11.894,11.894,0,0,0,8.616-1.5c4.779-2.8,11.082-6.477,17.452-10.142A13.476,13.476,0,0,1,86.4,59.28c2.205-.068,3.618.841,4.145,2.639a4.112,4.112,0,0,1-1.932,4.911L80.2,72.009c-6.968,4.284-14.172,8.715-21.234,13.108a11.491,11.491,0,0,1-6.171,1.859"/>
      <path id="Path_11114" data-name="Path 11114" d="M91.078,35.174a1.454,1.454,0,0,0,1.1-1.546q-.02-3.6,0-7.195a1.447,1.447,0,0,0-1.1-1.543c-1-.357-2.065-.745-3.1-1.214A2.14,2.14,0,0,1,87,22.656c-.7-1.58-1.408-3.269-2.1-5.018a1.971,1.971,0,0,1-.03-1.338c.34-.88.733-1.75,1.114-2.591l.285-.631a1.3,1.3,0,0,0-.259-1.629l-5.291-5.29a1.285,1.285,0,0,0-1.616-.29l-.521.242c-.874.4-1.778.822-2.7,1.173a2.1,2.1,0,0,1-1.412-.054c-1.807-.7-3.421-1.373-4.934-2.049a2.317,2.317,0,0,1-1.083-1.045c-.3-.636-.543-1.3-.779-1.945-.108-.293-.215-.585-.328-.876C66.9.144,66.706.009,65.478.008h-.266q-2.392,0-4.785,0l-.988,0c-2.08-.021-2.078-.021-2.9,2.332l-.153.436c-.474,1.342-1.093,2.669-2.97,2.864a2.392,2.392,0,0,0-.706.245c-.094.042-.187.085-.28.123-.345.144-.69.325-1.035.5a5.715,5.715,0,0,1-2.545.859,6.039,6.039,0,0,1-2.682-.975c-.312-.171-.622-.342-.931-.487a1.374,1.374,0,0,0-1.766.323q-2.559,2.6-5.158,5.157a1.366,1.366,0,0,0-.3,1.77c.435.915.939,2,1.376,3.133a1.99,1.99,0,0,1-.031,1.336c-.684,1.756-1.384,3.445-2.08,5.024a2.131,2.131,0,0,1-.98,1.029c-.971.439-1.986.805-2.967,1.159l-.132.047a1.418,1.418,0,0,0-1.089,1.532c.036,2.611.023,5.153,0,7.3a1.319,1.319,0,0,0,.974,1.412l.481.176c.865.315,1.761.643,2.614,1.042a2.454,2.454,0,0,1,1.113,1.137c.71,1.577,1.384,3.21,2,4.852a2.467,2.467,0,0,1,.018,1.581,30.025,30.025,0,0,1-1.3,2.97,1.4,1.4,0,0,0,.331,1.846q2.568,2.521,5.091,5.088a1.383,1.383,0,0,0,1.77.343l.39-.181c.861-.4,1.751-.817,2.664-1.146a2.43,2.43,0,0,1,1.58.038c1.564.594,3.15,1.251,4.849,2.008a2.256,2.256,0,0,1,1.1,1.03c.359.784.661,1.6.953,2.394l.293.789a1.352,1.352,0,0,0,1.411.982h.017c.89,0,1.779,0,2.67,0h2.225q.374,0,.746,0l.315,0c2.5.027,2.5.026,3.246-2.211l.124-.369c.468-1.384,1.14-2.88,3.223-3.119a2.279,2.279,0,0,0,.645-.228l.25-.112c.335-.142.671-.321,1.006-.5a5.233,5.233,0,0,1,2.485-.854,5.928,5.928,0,0,1,2.658.972c.291.161.58.321.869.46a1.515,1.515,0,0,0,2-.406c.747-.786,1.518-1.55,2.29-2.314.427-.423.855-.846,1.278-1.273.276-.278.522-.52.741-.734,1.513-1.481,1.513-1.481.407-3.783l-.221-.463c-.55-1.15-1.042-2.5.082-3.946a3.128,3.128,0,0,0,.389-.8l.1-.248c.138-.343.247-.714.357-1.084A5.289,5.289,0,0,1,87.494,36.7a6.1,6.1,0,0,1,2.588-1.211c.339-.1.677-.2,1-.314m-2.252-1.666-.269.089a13.987,13.987,0,0,0-2.454.989,2.864,2.864,0,0,0-1.112,1.252c-.475,1.048-.911,2.113-1.348,3.178-.419,1.022-.838,2.043-1.29,3.05a1.878,1.878,0,0,0-.088,1.72c.17.368.332.74.5,1.112.223.515.447,1.03.695,1.533a1.275,1.275,0,0,1-.272,1.7c-.91.844-1.865,1.8-3,3a1.17,1.17,0,0,1-1.523.282l-.582-.284a13.911,13.911,0,0,0-2.2-.93,2.877,2.877,0,0,0-1.669.089c-2.078.778-4.205,1.653-6.321,2.6a2.681,2.681,0,0,0-1.175,1.065,15.712,15.712,0,0,0-.969,2.38l-.154.443a1.214,1.214,0,0,1-1.259.949h-.071c-1.389-.047-2.82-.047-4.249,0a1.263,1.263,0,0,1-1.339-.954l-.2-.592a13.148,13.148,0,0,0-.865-2.146,2.892,2.892,0,0,0-1.233-1.145c-2.038-.922-4.163-1.8-6.316-2.607a2.855,2.855,0,0,0-1.671-.078,10.972,10.972,0,0,0-1.593.658c-.406.193-.814.386-1.232.543a1.488,1.488,0,0,1-1.358-.23C43.022,50.09,41.982,49.05,41.018,48a1.6,1.6,0,0,1-.232-1.44c.16-.442.361-.87.556-1.284a11.349,11.349,0,0,0,.637-1.551,2.655,2.655,0,0,0-.082-1.579c-.417-1.094-.871-2.175-1.325-3.256-.432-1.027-.863-2.055-1.264-3.094a1.832,1.832,0,0,0-1.166-1.253c-.457-.157-.907-.337-1.356-.516s-.9-.36-1.361-.517a1.239,1.239,0,0,1-.959-1.334c.018-.671.016-1.343.014-2.014,0-.787-.005-1.575.026-2.361a1.5,1.5,0,0,1,.785-1.141c.41-.19.838-.346,1.265-.5a11.056,11.056,0,0,0,1.577-.664,2.877,2.877,0,0,0,1.129-1.234c.5-1.114.98-2.268,1.439-3.383.4-.981.807-1.961,1.236-2.93a1.759,1.759,0,0,0,.074-1.624c-.206-.431-.4-.869-.587-1.308-.208-.48-.417-.96-.647-1.43a1.219,1.219,0,0,1,.277-1.618c.5-.469.981-.955,1.464-1.441.545-.548,1.09-1.1,1.657-1.621a1.491,1.491,0,0,1,1.354-.252c1,.371,1.968.827,2.871,1.261A1.863,1.863,0,0,0,50.11,9.8c.994-.443,2-.854,3.012-1.265,1.061-.432,2.159-.88,3.218-1.358a2.88,2.88,0,0,0,1.248-1.127,10.91,10.91,0,0,0,.661-1.591c.151-.423.3-.847.487-1.254a1.5,1.5,0,0,1,1.122-.814c1.265-.041,2.5-.037,3.8-.031l1.553,0,.5,1.276c.309.784.616,1.559.891,2.344a2,2,0,0,0,1.406,1.268c2.015.757,4.065,1.606,6.09,2.523a1.885,1.885,0,0,0,1.788.119c.278-.14.57-.256.861-.37a6.161,6.161,0,0,0,1.129-.532,1.966,1.966,0,0,1,2.927.553,24.253,24.253,0,0,0,2.152,2.186l.278.259a1.163,1.163,0,0,1,.271,1.53l-.192.388A14.593,14.593,0,0,0,82.3,16.305a2.9,2.9,0,0,0,.1,1.674c.4,1.068.847,2.12,1.289,3.174.432,1.025.864,2.052,1.26,3.092A1.858,1.858,0,0,0,86.1,25.52c.418.15.832.313,1.246.476.516.2,1.032.407,1.557.584a1.236,1.236,0,0,1,.925,1.364c-.039,1.591-.038,2.912,0,4.155a1.27,1.27,0,0,1-1,1.409" fill="#ffca0a"/>
      <path id="Path_11115" data-name="Path 11115" d="M62.119,14.772H62.1a15.268,15.268,0,0,0,.006,30.536h.014a15.321,15.321,0,0,0,15.29-15.232,15.3,15.3,0,0,0-15.294-15.3m9.128,24.379a12.85,12.85,0,0,1-9.13,3.8H62.11a12.909,12.909,0,1,1,.05-25.818h.04a12.879,12.879,0,0,1,9.047,22.02"/>
      <path id="Path_11116" data-name="Path 11116" d="M59.86,37.722a1.376,1.376,0,0,1,1.123,1.352A1.045,1.045,0,0,0,62.176,40.1a1.147,1.147,0,0,0,1.116-1.167c.01-.1.016-.2.023-.308l.029-.438.223-.086c.207-.079.409-.151.6-.222a11.628,11.628,0,0,0,1.143-.456A3.9,3.9,0,0,0,67.8,33.907a4,4,0,0,0-2.137-3.936,11.939,11.939,0,0,0-2.231-.867l-.5-.158a8.419,8.419,0,0,0-.882-.22,5.952,5.952,0,0,1-1.494-.462A2.278,2.278,0,0,1,59.33,26.6a2.542,2.542,0,0,1,1.119-1.824,3.141,3.141,0,0,1,2.442-.433,3.578,3.578,0,0,1,2.232,1.728c.275.469.868,1.184,1.737.687a1.261,1.261,0,0,0,.335-1.8,5.08,5.08,0,0,0-2.873-2.617,1.3,1.3,0,0,1-1.063-1.326,1,1,0,0,0-1.07-1.041.986.986,0,0,0-1.179.909,1.671,1.671,0,0,1-1.259,1.566,4.365,4.365,0,0,0-2.858,4.158,4.121,4.121,0,0,0,2.973,3.958,9.874,9.874,0,0,0,1.258.356c.321.077.643.154.958.251l.492.146a9.291,9.291,0,0,1,1.933.726,1.86,1.86,0,0,1,.958,1.428,1.61,1.61,0,0,1-.54,1.409,4.491,4.491,0,0,1-4.1.686,2.915,2.915,0,0,1-2.095-2.027,1.167,1.167,0,0,0-.557-.766,1.075,1.075,0,0,0-.527-.133,1.253,1.253,0,0,0-.4.065,1.212,1.212,0,0,0-.705,1.662,5.082,5.082,0,0,0,3.311,3.354"/>
    </g>
  </g>
</svg>
