<svg id="Group_4426" data-name="Group 4426" xmlns="http://www.w3.org/2000/svg" xmlns:xlink="http://www.w3.org/1999/xlink" width="106.369" height="106.344" viewBox="0 0 106.369 106.344">
  <defs>
    <clipPath id="clip-path">
      <rect id="Rectangle_2979" data-name="Rectangle 2979" width="106.369" height="106.344" transform="translate(0 0)" fill="none"/>
    </clipPath>
  </defs>
  <g id="Group_4426-2" data-name="Group 4426" clip-path="url(#clip-path)">
    <path id="Path_11131" data-name="Path 11131" d="M92.982,46.832l0-.2V8.677c0-1.65-.332-1.984-1.972-1.984H71.48l-.153-.371a.676.676,0,0,1-.082-.3c0-.366-.009-.734-.016-1.1-.016-.946-.034-1.923.015-2.888A2.146,2.146,0,0,0,70.434,0H62.728a2.129,2.129,0,0,0-.811,2.029c.05.976.039,1.931.028,2.941-.005.426-.009.856-.009,1.291v.375H51.145V6.261c0-.415-.005-.831-.01-1.248-.011-.975-.023-1.984.027-2.982A2.146,2.146,0,0,0,50.353,0H42.646a2.132,2.132,0,0,0-.81,2.03c.049.975.038,1.93.027,2.94,0,.426-.009.856-.009,1.291v.375H31.062V6.261c0-.415,0-.831-.009-1.248-.011-.975-.023-1.984.027-2.982A2.141,2.141,0,0,0,30.271,0H22.563a2.138,2.138,0,0,0-.809,2.032c.049.995.038,2.01.027,2.991-.005.43-.01.861-.01,1.294v.375H1.991C.35,6.693.018,7.026.018,8.674V20.121Q.018,43.833,0,67.544a2.731,2.731,0,0,0,.9,2.125C5.979,74.71,11.278,80.009,16.654,85.42a2.639,2.639,0,0,0,2.034.847H18.7q13.491-.022,26.984-.015l9.212,0a2.523,2.523,0,0,0,.541-.025,1.286,1.286,0,0,0-.028-2.555,3.348,3.348,0,0,0-.686-.024l-.3,0H19.349V68.793c0-1.5-.371-1.865-1.88-1.866H2.687V27.693l4.007,0c2.087,0,4.17,0,6.256-.009a1.537,1.537,0,0,0,1.124-.408,1.231,1.231,0,0,0,.328-.913A1.28,1.28,0,0,0,12.978,25.1c-1.13-.017-2.259-.014-3.385-.009l-6.91,0V9.371H21.772v2.293c0,1.46,0,2.892,0,4.326.007,1.234.427,1.653,1.666,1.661,1.917.011,3.831.008,5.748,0,1.5,0,1.87-.371,1.873-1.878q0-2.107,0-4.221V9.362H41.854v2.221c0,1.407,0,2.79,0,4.174,0,1.52.367,1.892,1.852,1.9q2.716,0,5.437,0c1.663,0,2-.331,2-1.958V9.352H61.936l0,2.288c0,1.483,0,2.943.005,4.4.009,1.162.447,1.6,1.617,1.608,1.083.011,2.17.007,3.254.005l1.449,0c2.968,0,2.968,0,2.968-2.978V9.344H90.316V25.1H25.569a2.628,2.628,0,0,0-1.832.477,1.1,1.1,0,0,0-.283.828c0,.639.262,1.291,2.138,1.291H90.385l0,19.095a3.3,3.3,0,0,0,.03.7A1.237,1.237,0,0,0,91.65,48.6a1.289,1.289,0,0,0,1.3-1.086,3.8,3.8,0,0,0,.031-.677m-76.3,22.739V81.453L4.824,69.571Zm11.726-54.6H24.442V2.643h3.969Zm20.083,0H44.522V2.645h3.972Zm20.081,0H64.6V2.644h3.971Z"/>
    <path id="Path_11132" data-name="Path 11132" d="M32.795,36.813c-1.5-.01-3-.009-4.5-.006l-1.877,0-1.876,0H22.665q-1.312,0-2.625.007c-1.171.008-1.607.444-1.61,1.608q-.016,6.376,0,12.754c0,1.156.453,1.608,1.607,1.611q6.376.018,12.757,0c1.156,0,1.608-.454,1.611-1.609q.017-6.376,0-12.754c0-1.166-.439-1.6-1.61-1.61m-1.039,13.3H21.1V39.451H31.756Z"/>
    <path id="Path_11133" data-name="Path 11133" d="M52.878,36.813c-1.493-.009-2.985-.008-4.481-.006l-1.9,0-1.877,0H42.748q-1.312,0-2.625.007c-1.172.008-1.609.443-1.612,1.606q-.017,6.376,0,12.754c0,1.157.453,1.61,1.6,1.613q6.378.015,12.758,0c1.157,0,1.61-.453,1.613-1.607q.017-6.376,0-12.754c0-1.153-.455-1.6-1.609-1.612m-1.039,13.3H41.178V39.452H51.839Z"/>
    <path id="Path_11134" data-name="Path 11134" d="M38.511,72.927c.008,1.155.459,1.607,1.609,1.61q6.376.02,12.757,0c1.155,0,1.607-.455,1.61-1.611q.017-6.376,0-12.754c0-1.155-.455-1.6-1.611-1.608q-3.189-.009-6.379-.008t-6.379.008c-1.164,0-1.6.439-1.607,1.61-.01,1.475-.008,2.951-.006,4.426l0,1.846,0,1.906c0,1.525,0,3.049.006,4.575M41.15,61.211H51.811v10.66H41.15Z"/>
    <path id="Path_11135" data-name="Path 11135" d="M23.115,74.528c3.212.025,6.551.026,9.929,0A1.206,1.206,0,0,0,34.386,73.3c.033-4.5.034-9.031,0-13.48a1.138,1.138,0,0,0-1.216-1.237c-4.252-.036-8.662-.036-13.484,0a1.158,1.158,0,0,0-1.242,1.231c-.053,1.033-.055,2.15,0,3.414a1.283,1.283,0,0,0,2.565.013c.028-.361.02-.726.013-1.1,0-.178-.007-.358-.007-.542v-.375H31.771V71.948l-2.815,0-2.359,0c-1.16,0-2.31,0-3.461.015a1.417,1.417,0,0,0-1.018.4,1.3,1.3,0,0,0,1,2.17"/>
    <path id="Path_11136" data-name="Path 11136" d="M71.454,61.147a1.3,1.3,0,0,0,1.437-1.262,1.262,1.262,0,0,0-.342-.917,1.4,1.4,0,0,0-1.016-.4c-1.924-.012-3.86-.018-5.8-.018s-3.874.006-5.8.018a1.205,1.205,0,0,0-1.329,1.237c-.031,3.915-.031,7.886,0,11.8a1.229,1.229,0,0,0,.372.9,1.3,1.3,0,0,0,2.192-.985c.022-1.774.019-3.549.015-5.323l0-5.042,4.15,0c2.039,0,4.081,0,6.119-.011"/>
    <path id="Path_11137" data-name="Path 11137" d="M16.675,26.41A1.274,1.274,0,0,0,17.9,27.682a5.805,5.805,0,0,0,.633.011v-.012h.375c.123,0,.246,0,.37.007a5.673,5.673,0,0,0,.738-.011,1.28,1.28,0,0,0,1.2-1.3,1.263,1.263,0,0,0-1.23-1.264c-.362-.024-.719-.037-1.07-.037s-.721.014-1.067.04a1.236,1.236,0,0,0-1.18,1.292"/>
    <path id="Path_11138" data-name="Path 11138" d="M83.4,66.927h-.006a16.353,16.353,0,1,0-.054,32.705h.018a16.164,16.164,0,0,0,11.5-4.774A16.343,16.343,0,0,0,83.4,66.927M97.01,83.657h-.741c-.28,0-.557,0-.836,0a2.082,2.082,0,0,0-1.295.373,1.132,1.132,0,0,0-.4.938c.012,1.022.9,1.263,1.632,1.285.2.006.393.016.59.026l.681.034-.082.425c-.984,5.086-6.692,10.069-11.53,10.069h-.362l-.026-.345c-.017-.226-.02-.466-.022-.71-.01-1.276-.077-2-1.305-2h0c-1.228,0-1.293.721-1.3,2,0,.245-.005.486-.021.713l-.028.363L81.6,96.81c-4.575-.208-10.3-4.286-11.522-10.025l-.085-.4.408-.049c2.243-.271,2.482-.624,2.492-1.366s-.113-1.125-2.858-1.378l-.312-.029-.027-.311A12.3,12.3,0,0,1,72.843,74.4a12.932,12.932,0,0,1,8.744-4.655l.374-.028.028.374c.016.226.018.467.02.711.011,1.28.077,2,1.305,2h0c1.229,0,1.3-.725,1.306-2.008,0-.242,0-.479.021-.7l.026-.369.37.023C90.8,70.1,97.133,75.74,97.016,83.288Z" fill="#ffca0a"/>
    <path id="Path_11139" data-name="Path 11139" d="M88.935,80.463a1.206,1.206,0,0,0-1.246.044A37.023,37.023,0,0,0,84.5,82.621a1.244,1.244,0,0,1-1.883-.179c-1.465-1.516-3.082-3.135-4.945-4.95a1.554,1.554,0,0,0-1.06-.507h-.024a1.319,1.319,0,0,0-.736,2.332c1.633,1.66,3.282,3.3,4.932,4.947l1.494,1.489a1.33,1.33,0,0,0,1.886.19l1.306-.862c1.143-.752,2.325-1.529,3.454-2.336A2.7,2.7,0,0,0,89.546,82c.033-.051.063-.1.091-.14a1.589,1.589,0,0,0-.7-1.4" fill="#ffca0a"/>
    <path id="Path_11140" data-name="Path 11140" d="M71.882,52.789c.114,0,.283,0,.426.007a3.19,3.19,0,0,0,1.607-.231,1.367,1.367,0,0,0,.669-1.227v-.469l-.01,0v-4.4q0-3.957,0-7.915c0-1.734-.714-1.918-3.176-1.634a42.734,42.734,0,0,1-10.059-.029c-2.26-.276-2.859.1-2.728,2.09a79.228,79.228,0,0,1,.023,11.153c-.157,2.092.093,2.65,1.749,2.654q5.746.009,11.5,0M61.264,39.447H71.916v10.7H61.264Z"/>
    <path id="Path_11141" data-name="Path 11141" d="M106.313,81c-.052-.215-.1-.43-.136-.647A23.171,23.171,0,0,0,88.3,60.757l-.287-.07V57.809h1.549c1.308-.014,1.731-.427,1.741-1.7.009-1.357,0-2.716,0-4.074,0-1.441-.393-1.837-1.8-1.839l-2.585,0c-3.125-.007-6.36-.015-9.541.029a5.831,5.831,0,0,0-1.531.316c-.17.05-.524.522-.524.522l0,2.479c0,1-.008,1.909.011,2.815A1.318,1.318,0,0,0,76.8,57.806c.319.012.638.007.969.005l.48,0h.375v2.853l-.563.163c-.254.073-.495.143-.736.209a23.044,23.044,0,1,0,27.806,29.585A32.784,32.784,0,0,0,106.016,87c.113-.557.227-1.114.353-1.667V81.19ZM77.965,52.86h10.7v2.3h-10.7ZM85.311,60.2h-4V57.864h4ZM97.748,97.747a20.251,20.251,0,0,1-14.372,5.986h-.048a20.436,20.436,0,0,1-14.484-6.016A20.438,20.438,0,0,1,83.485,62.833h.025A20.427,20.427,0,0,1,103.77,83.37a20.209,20.209,0,0,1-6.022,14.377" fill="#ffca0a"/>
  </g>
</svg>
