<svg id="Group_4416" data-name="Group 4416" xmlns="http://www.w3.org/2000/svg" xmlns:xlink="http://www.w3.org/1999/xlink" width="107.592" height="111.088" viewBox="0 0 107.592 111.088">
  <defs>
    <clipPath id="clip-path">
      <rect id="Rectangle_2956" data-name="Rectangle 2956" width="107.592" height="111.088" fill="none"/>
    </clipPath>
  </defs>
  <g id="Group_4416-2" data-name="Group 4416" transform="translate(0 0)" clip-path="url(#clip-path)">
    <path id="Path_11038" data-name="Path 11038" d="M50.466,24.867a1.623,1.623,0,0,1-1.622-1.617L48.771,1.628a1.622,1.622,0,1,1,3.245-.011l.072,21.622a1.623,1.623,0,0,1-1.617,1.628Z" transform="translate(3.981 0)" fill="#ffca0a"/>
    <path id="Path_11039" data-name="Path 11039" d="M36.614,29.387a1.624,1.624,0,0,1-1.436-.864L24.832,8.953A1.623,1.623,0,0,1,27.7,7.436L38.048,27.005a1.623,1.623,0,0,1-1.433,2.382" transform="translate(2.012 0.536)" fill="#ffca0a"/>
    <path id="Path_11040" data-name="Path 11040" d="M26.835,40.036a1.615,1.615,0,0,1-.9-.271L7.34,27.4a1.622,1.622,0,0,1,1.8-2.7l18.6,12.362a1.623,1.623,0,0,1-.9,2.973" transform="translate(0.54 1.994)" fill="#ffca0a"/>
    <path id="Path_11041" data-name="Path 11041" d="M23.381,53.264q-.05,0-.1,0L1.523,51.927a1.622,1.622,0,0,1,.2-3.238l21.756,1.334a1.622,1.622,0,0,1-.1,3.242" transform="translate(0 3.974)" fill="#ffca0a"/>
    <path id="Path_11042" data-name="Path 11042" d="M8.585,77.9a1.623,1.623,0,0,1-.77-3.051l18.9-10.164a1.623,1.623,0,0,1,1.537,2.859L9.351,77.71a1.621,1.621,0,0,1-.767.194" transform="translate(0.568 5.265)" fill="#ffca0a"/>
    <path id="Path_11043" data-name="Path 11043" d="M65.574,29.123a1.623,1.623,0,0,1-1.443-2.362L74.18,7.11a1.622,1.622,0,1,1,2.888,1.479L67.019,28.239a1.623,1.623,0,0,1-1.445.884" transform="translate(5.221 0.508)" fill="#ffca0a"/>
    <path id="Path_11044" data-name="Path 11044" d="M37.181,69.325a1.617,1.617,0,0,1-1.148-.475A23.223,23.223,0,1,1,68.876,36.007,1.622,1.622,0,0,1,66.582,38.3,19.978,19.978,0,1,0,38.329,66.555a1.622,1.622,0,0,1-1.148,2.77" transform="translate(2.386 2.384)"/>
    <path id="Path_11045" data-name="Path 11045" d="M37.181,69.325a1.617,1.617,0,0,1-1.148-.475A23.223,23.223,0,1,1,68.876,36.007,1.622,1.622,0,0,1,66.582,38.3,19.978,19.978,0,1,0,38.329,66.555a1.622,1.622,0,0,1-1.148,2.77" transform="translate(2.386 2.384)" fill="#ffca0a"/>
    <path id="Path_11046" data-name="Path 11046" d="M37.242,106.792a1.623,1.623,0,0,1-1.524-2.178L54.293,53.7a1.622,1.622,0,1,1,3.048,1.112L38.766,105.725a1.622,1.622,0,0,1-1.524,1.066" transform="translate(2.908 4.297)"/>
    <path id="Path_11047" data-name="Path 11047" d="M54.5,56.8a1.623,1.623,0,0,1-.445-3.183l47.152-13.474a1.623,1.623,0,0,1,.891,3.121L54.946,56.733a1.637,1.637,0,0,1-.447.063" transform="translate(4.317 3.272)"/>
    <path id="Path_11048" data-name="Path 11048" d="M56.1,102.665a1.625,1.625,0,0,1-1.432-.856L44.34,82.532,25.667,92.539a1.623,1.623,0,0,1-1.533-2.861L45.667,78.139l11.866,22.137a1.623,1.623,0,0,1-1.429,2.389" transform="translate(1.9 6.379)"/>
    <path id="Path_11049" data-name="Path 11049" d="M68.753,93.972h-.064a1.623,1.623,0,0,1-1.559-1.685l.946-24.409,25.1.972a1.624,1.624,0,0,1,1.559,1.685,1.607,1.607,0,0,1-1.684,1.558l-21.857-.848-.821,21.17a1.623,1.623,0,0,1-1.62,1.559" transform="translate(5.48 5.541)"/>
    <path id="Path_11050" data-name="Path 11050" d="M97.557,63.033a1.614,1.614,0,0,1-.887-.265L76.227,49.395l13.75-21.019a1.623,1.623,0,1,1,2.716,1.776l-11.974,18.3,17.728,11.6a1.622,1.622,0,0,1-.89,2.98" transform="translate(6.223 2.256)"/>
    <path id="Path_11051" data-name="Path 11051" d="M92.4,93.705a1.621,1.621,0,0,1-1.141-.469l-38-37.564a1.622,1.622,0,1,1,2.281-2.307L93.546,90.93A1.622,1.622,0,0,1,92.4,93.705" transform="translate(4.308 4.318)"/>
    <line id="Line_242" data-name="Line 242" x1="81.827" y2="81.827" transform="translate(12.751 15.076)" fill="#ffca0a"/>
    <path id="Path_11052" data-name="Path 11052" d="M11.911,97.51a1.622,1.622,0,0,1-1.148-2.77L92.591,12.914a1.622,1.622,0,0,1,2.294,2.294L13.059,97.035a1.617,1.617,0,0,1-1.148.475" transform="translate(0.84 1.015)"/>
  </g>
</svg>
