<svg id="Group_4421" data-name="Group 4421" xmlns="http://www.w3.org/2000/svg" xmlns:xlink="http://www.w3.org/1999/xlink" width="107.998" height="108.012" viewBox="0 0 107.998 108.012">
  <defs>
    <clipPath id="clip-path">
      <rect id="Rectangle_2970" data-name="Rectangle 2970" width="107.998" height="108.012" transform="translate(0 0)" fill="none"/>
    </clipPath>
  </defs>
  <g id="Group_4421-2" data-name="Group 4421" clip-path="url(#clip-path)">
    <path id="Path_11108" data-name="Path 11108" d="M67.688,108h38.244c1.871,0,2.064-.192,2.064-2.059V49.224c0-.138,0-.275,0-.413-.037-.99-.41-1.366-1.372-1.387-.787-.017-1.573-.014-2.358-.01l-5.281,0-.084-.946a4.273,4.273,0,0,1-.031-.445V42.092q-.006-12.616.03-25.232a2.937,2.937,0,0,1,.952-1.9,8.209,8.209,0,0,0,2.573-5.08A8.375,8.375,0,0,0,96.912.946a8.165,8.165,0,0,0-9.785,3.429A13.236,13.236,0,0,0,85.958,7.01c-.173.475-.35.96-.55,1.446l-.2.483L35.061,3.755l.022-1.144C35.122,1.321,35.1.534,34.349,0H22.594a2.12,2.12,0,0,0-.74,1.927c.022,1.509.019,3.019.015,4.528,0,1.055,0,2.11,0,3.165.008,1.414.337,1.742,1.759,1.756.645.006,1.29,0,1.983,0l1.737,0v4.876c0,2.3,0,2.3,2.292,2.429a5.234,5.234,0,0,1,2.512,9.674,5.04,5.04,0,0,1-6.2-.547,8.058,8.058,0,0,1-1.646-2.87,3.386,3.386,0,0,0-.148-.363c-.015,0-.053,0-.112.005-.626.034-1.255.027-1.921.02l-.163,0a8.115,8.115,0,0,0,2.761,5.241l.669.663-1.141.621c-.207.115-.394.219-.586.314l-3.154,1.579q-8.435,4.219-16.877,8.423a4.226,4.226,0,0,1-1.823.456A2.011,2.011,0,0,0,0,42.669V68.956a1.8,1.8,0,0,0,1.589.776h0q14.394-.008,28.786-.007l24.948,0c1.261,0,1.607-.358,1.61-1.664q.007-3.753,0-7.505V53.486q0-5-.005-10c0-1.162-.357-1.527-1.517-1.565-.271-.01-.542-.005-.811,0-.42.007-.838.012-1.252-.021a4.32,4.32,0,0,1-1.69-.412Q43.4,37.076,35.156,32.613L34,31.987a4.575,4.575,0,0,1-.527-.35l-1.063-.746.833-.574c2.83-1.949,4.015-4.486,3.522-7.538-.568-3.512-2.771-5.658-6.548-6.379l-.569-.108V11.378l1.674,0c.689,0,1.361,0,2.033,0,1.351-.016,1.706-.364,1.728-1.694.009-.642.007-1.285,0-1.949l0-1.724,5.169.545c3.188.335,6.322.666,9.457.991Q67.28,9.369,84.855,11.167a1.968,1.968,0,0,1,1.641,1.1,16.051,16.051,0,0,0,1.957,2.714,2.887,2.887,0,0,1,.886,2.134q-.022,11.321-.013,22.642v7.665H72.994c-1.659,0-1.868.214-1.868,1.905V74.767H67.649c-1.8,0-2.029.225-2.029,1.993v29.163c0,1.86.212,2.072,2.068,2.072M54.633,67.39H2.269V44.252H54.633Zm-12.5-28.462,2.37,1.278a1.8,1.8,0,0,1,.318.233l1.768,1.434H8.514l2.494-1.536a6.058,6.058,0,0,1,.543-.321l2.114-1.059q6.855-3.437,13.727-6.841a2.391,2.391,0,0,1,1.981-.029c4.267,2.257,8.515,4.549,12.764,6.841m-9.369-29.9H24.2V2.3h8.563ZM96.55,47.388h-4.9V17.244h4.9Zm9.147,58.3H96.71l.316-.926a3.176,3.176,0,0,0,.086-.323,1.449,1.449,0,0,1,.517-.958c1.8-1.234,3.608-2.442,5.486-3.694l2.582-1.722Zm-8.581-4.6V89.263l7.876,6.568Zm8.581-7.606-7.889-6.571,7.889-5.248Zm-8.573-8.81v-11.8L105,79.423Zm8.561-7.6-7.874-6.561,7.874-5.246Zm-8.524-8.83V56.49L105,63.01Zm8.522-18.507V60.658L102.854,58.3c-1.79-1.487-3.48-2.892-5.158-4.35a2.4,2.4,0,0,1-.6-1.61,9.806,9.806,0,0,1-.034-1.354c0-.18.008-.365.008-.556v-.7ZM87.937,8.854A6.273,6.273,0,0,1,94.1,2.7h.018a6.165,6.165,0,0,1,6.135,6.132,6.087,6.087,0,0,1-6.067,6.181h-.078a6.138,6.138,0,0,1-4.352-1.8,6.062,6.062,0,0,1-1.816-4.356M73.457,49.718H94.769v24.97H73.457ZM67.935,77.1H94.743v28.606H67.935Z"/>
    <path id="Path_11109" data-name="Path 11109" d="M38.273,80.218q-18.162,0-36.326-.011A2.249,2.249,0,0,0,0,80.927v26.289a1.967,1.967,0,0,0,1.873.8h.01q21.144-.029,42.287-.018H55.083c1.593,0,1.853-.256,1.853-1.835q0-12.016,0-24.035c0-1.655-.249-1.9-1.9-1.9Zm16.36,25.46H2.276V82.568H54.633Z" fill="#ffca0a"/>
    <rect id="Rectangle_2961" data-name="Rectangle 2961" width="2.098" height="13.075" transform="translate(27.419 49.303)"/>
    <rect id="Rectangle_2962" data-name="Rectangle 2962" width="1.981" height="13.085" transform="translate(9.109 49.28)"/>
    <rect id="Rectangle_2963" data-name="Rectangle 2963" width="2.137" height="13.065" transform="translate(18.265 49.301)"/>
    <rect id="Rectangle_2964" data-name="Rectangle 2964" width="2.112" height="13.041" transform="translate(36.558 49.287)"/>
    <path id="Path_11110" data-name="Path 11110" d="M47.682,49.22c-.634-.008-1.268-.006-1.938-.005h-.1V62.367h2.1V49.222l-.068,0"/>
    <rect id="Rectangle_2965" data-name="Rectangle 2965" width="2.076" height="13.054" transform="translate(9.228 87.588)" fill="#ffca0a"/>
    <rect id="Rectangle_2966" data-name="Rectangle 2966" width="2.102" height="13.033" transform="translate(18.3 87.621)" fill="#ffca0a"/>
    <rect id="Rectangle_2967" data-name="Rectangle 2967" width="2.073" height="13.068" transform="translate(27.433 87.59)" fill="#ffca0a"/>
    <rect id="Rectangle_2968" data-name="Rectangle 2968" width="2.09" height="13.061" transform="translate(36.568 87.619)" fill="#ffca0a"/>
    <rect id="Rectangle_2969" data-name="Rectangle 2969" width="2.079" height="13.089" transform="translate(45.662 87.588)" fill="#ffca0a"/>
  </g>
</svg>
