<svg id="Group_4424" data-name="Group 4424" xmlns="http://www.w3.org/2000/svg" xmlns:xlink="http://www.w3.org/1999/xlink" width="102.918" height="102.95" viewBox="0 0 102.918 102.95">
  <defs>
    <clipPath id="clip-path">
      <rect id="Rectangle_2977" data-name="Rectangle 2977" width="102.918" height="102.95" fill="none"/>
    </clipPath>
  </defs>
  <g id="Group_4424-2" data-name="Group 4424" clip-path="url(#clip-path)">
    <path id="Path_11117" data-name="Path 11117" d="M71.613,102.9c.393,0,.778.008,1.16.039.5.043.727-.109,1.023-.658q3.263-6.048,6.537-12.089,4.623-8.54,9.23-17.084a2.281,2.281,0,0,1,2.161-1.357A11,11,0,0,0,101.261,66a14.713,14.713,0,0,0,1.194-3.05c.148-.476.3-.955.463-1.422V59.682a1.835,1.835,0,0,0-1.577-.943c-.353.027-.662,0-.993,0-1.371,0-2.741-.007-4.112-.014-3.537-.018-7.194-.036-10.784.073a11.256,11.256,0,0,0-10.746,8.966,20.3,20.3,0,0,1-2.345,5.853q-.77,1.365-1.527,2.738-.612,1.1-1.228,2.207a4.441,4.441,0,0,1-.326.472c-.075.1-.166.222-.274.373l-.68.947V79.19c0-.859.007-1.688.013-2.5.014-1.717.026-3.338-.026-4.955a11.4,11.4,0,0,0-9.528-11,24.209,24.209,0,0,0-3.973-.226c-.371,0-.742,0-1.111-.009-1.222-.018-2.442-.014-3.661-.01-1.141.005-2.284.007-3.424-.006a3.883,3.883,0,0,1-4.179-4.153c-.006-.282,0-.564.009-.848a8.974,8.974,0,0,0-.026-1.339,2.663,2.663,0,0,1,1.392-2.717,15.359,15.359,0,0,0,7.062-11.9c.275-4.657.211-9.42.148-14.025Q51,23.982,50.984,22.46A14.061,14.061,0,0,0,49.3,16.328c-.619-1.256-1.212-1.475-2.442-.9l-10.3,4.842Q27.532,24.519,18.5,28.753A1.9,1.9,0,0,0,17.258,30.7c.015,1.087.011,2.177.007,3.265,0,1.106-.009,2.209.008,3.315.083,5.793,2.185,10.263,6.245,13.283a5.645,5.645,0,0,1,2.437,5.522c-.171,2.956-1.625,4.4-4.445,4.407-1.414,0-2.829,0-4.242,0-1.656,0-3.312,0-4.969.006a14.379,14.379,0,0,0-2.357.14A11.715,11.715,0,0,0,.009,72.47Q-.011,83.366,0,94.261l0,8.172c0,.141.007.281.015.426H2.7l0-9.44q0-10.4.009-20.807A9.056,9.056,0,0,1,12.037,63.2q.8-.006,1.608,0c.831.007,1.691.014,2.529-.025a2.1,2.1,0,0,1,1.979,1.005q6.01,8.46,12.066,16.892l2.4,3.357c.573.8,1.079,1.193,1.547,1.2.434.029.98-.373,1.571-1.156q1.916-2.541,3.839-5.074c3.447-4.549,7.011-9.253,10.427-13.942,1.035-1.422,2.313-2.681,4.65-2.269a3.985,3.985,0,0,0,.873.02c.16-.007.318-.013.479-.014,5.837.02,9.618,3.787,9.632,9.6q.008,3.081,0,6.16,0,3.146.005,6.291a4.163,4.163,0,0,0,.13,1.188,1.284,1.284,0,0,0,.954.882,1.305,1.305,0,0,0,1.256-.4,3.736,3.736,0,0,0,.469-.726l1.307-2.35q3.072-5.52,6.122-11.052a1.726,1.726,0,0,1,1.671-.993c1.8.027,3.6.024,5.4.022.862,0,1.724,0,2.589,0a6.212,6.212,0,0,1,.632.042l.95.08-16.772,30.98.376-.006c.3-.005.589-.009.875-.009M20.072,38.667c-.124-1.98-.1-4-.078-5.945l.009-.76a1.578,1.578,0,0,1,.77-1.241q11.775-5.574,23.573-11.1l2.307-1.083a.652.652,0,0,1,.228-.05l.656-.083.062.353c.081.465.18.925.279,1.382a15.955,15.955,0,0,1,.454,3.048c.081,4.576.156,9.892.007,15.1A14.191,14.191,0,0,1,34.322,51.838l-.144,0A14.092,14.092,0,0,1,20.072,38.667M34.213,82,28.2,73.615H40.542ZM47.9,63.853c-.363.482-.731.946-1.093,1.4A25.149,25.149,0,0,0,44.681,68.2a5.007,5.007,0,0,1-4.792,2.736c-.179,0-.364-.007-.554-.018-3.141-.176-6.354-.123-9.463-.074q-1.219.02-2.439.035a2.139,2.139,0,0,1-1.95-1.028c-.981-1.434-2-2.844-3.046-4.3l-1.652-2.305.7-.019a7.008,7.008,0,0,0,5.848-2.7c1.374-1.807,1.327-3.963,1.276-6.245L28.6,53.64l.487.138a18.236,18.236,0,0,0,10.217,0l.475-.132v.493c0,.335-.009.661-.018.98a13.616,13.616,0,0,0,.031,1.862A6.526,6.526,0,0,0,46.547,63.2l1.777.084Zm38.274,5.241c-1.419,0-2.831-.008-4.222-.015-1.412-.007-2.824-.015-4.236-.015h-.4l.031-.4c.22-2.882,2.944-5.925,6.073-6.785a9.533,9.533,0,0,1,2.378-.4c3.434-.028,6.867-.025,10.325-.021l3.94,0-.1.453a8.731,8.731,0,0,1-8.2,7.124c-1.856.045-3.729.057-5.59.057"/>
    <path id="Path_11118" data-name="Path 11118" d="M46.681,56.256c.006.006.068.061.328.036.372-.03.746-.046,1.12-.061a13.956,13.956,0,0,0,2.061-.188,11.76,11.76,0,0,0,9.542-11.87l.006-1.081c.031-5.615.064-11.421-.035-17.127a27.722,27.722,0,0,0-.782-6.514A24.715,24.715,0,0,0,42.8,1.585,29.936,29.936,0,0,0,38.319.45c-.7-.139-1.4-.279-2.086-.439L32.149.046a2.757,2.757,0,0,1-.469.1A25.114,25.114,0,0,0,16.5,7.16,23.673,23.673,0,0,0,8.8,23.521c-.31,7.16-.214,14.221-.079,21.427.087,4.689,2.418,8.158,6.928,10.309a11.813,11.813,0,0,0,6.013,1V53.647c-.273-.022-.545-.037-.814-.054a13.867,13.867,0,0,1-2.471-.3,8.856,8.856,0,0,1-7-9.064c-.02-3.923-.015-7.847-.011-11.771q0-3.377,0-6.752a22.213,22.213,0,0,1,1.909-9.3A23.1,23.1,0,0,1,26.706,3.939,22.621,22.621,0,0,1,44.613,5.31C52.2,9.2,56.442,15.7,56.869,24.113c.285,5.629.226,11.364.168,16.911l-.031,3.245c-.037,4.617-2.567,7.9-6.943,9a14.262,14.262,0,0,1-2.534.325c-.291.02-.586.041-.886.067l0,.436c.005.614.011,1.23-.014,1.844-.01.246.043.3.049.31"/>
    <path id="Path_11119" data-name="Path 11119" d="M76.078,41.01a2.131,2.131,0,0,0,.848,1.306c.592.409,1.272-.149,1.466-.331.164-.152.322-.31.481-.469l1.838-1.845c1.674-1.682,3.4-3.421,5.138-5.1a2.79,2.79,0,0,1,1.727-.713c1.556-.048,3.135-.039,4.663-.033q.912,0,1.824.005a8.724,8.724,0,0,0,6.3-2.328,9.276,9.276,0,0,0,2.559-4.98V7.33a9.026,9.026,0,0,0-3.236-5.582A10.6,10.6,0,0,0,95.513,0L71.242.011A.514.514,0,0,1,71,.123a8.363,8.363,0,0,0-7.067,8.8c.048,1.207.035,2.432.023,3.617-.006.62-.012,1.24-.01,1.86,0,1.17,0,2.341-.007,3.513-.012,2.726-.024,5.546.083,8.309a8.009,8.009,0,0,0,7.3,7.476c.966.084,1.922.119,2.934.156.465.018.934.035,1.408.057l.358.018v2.156c0,.465,0,.929-.01,1.394-.014,1.163-.028,2.366.069,3.53m-.805-9.893c-1.194.006-2.426.007-3.64-.1a5.339,5.339,0,0,1-4.957-5.366c-.045-5.776-.047-11.634-.005-17.41a5.5,5.5,0,0,1,5.722-5.525c2.72-.024,5.443-.019,8.163-.014l3.477.005,3.114,0c2.335,0,4.671,0,7.006,0,3.733.01,6.057,2.325,6.064,6.042q.015,8.147,0,16.293c-.007,3.763-2.263,6.033-6.036,6.069-2.732.027-5.217.025-7.6-.006a2.509,2.509,0,0,0-1.968.818c-1.182,1.224-2.384,2.429-3.584,3.635l-1.556,1.566-.74.626V33.282c-.006-1.843-.3-2.146-2.122-2.163-.447,0-.894,0-1.341,0" fill="#ffca0a"/>
    <path id="Path_11120" data-name="Path 11120" d="M12.658,77.951l-.319-.2-.228.334c-.275.414-.549.829-.8,1.259a16.973,16.973,0,0,0,.266,18.615,3.428,3.428,0,0,1,.431,1.592c.037.884.03,1.785.023,2.656l0,.692h2.712q0-.32-.012-.631a19.278,19.278,0,0,1,.032-2.129,6.637,6.637,0,0,0-1.276-4.375A12.993,12.993,0,0,1,12.019,84.4a27.646,27.646,0,0,1,1.707-3.841c.244-.481.489-.966.725-1.459-.079-.058-.168-.122-.26-.18-.512-.329-1.028-.655-1.533-.972"/>
    <path id="Path_11121" data-name="Path 11121" d="M58.479,94.633c2.228-5.811,1.427-11.336-2.45-16.883l-2.265,1.435.682,1.1c3.489,5.616,3.421,11.169-.2,16.506l-.137.195a1.814,1.814,0,0,0-.394.754c-.047,1.347-.04,2.714-.033,4.037l0,1.057h2.654l0-.731c-.005-.932-.009-1.832.017-2.731a3.2,3.2,0,0,1,.335-1.288c.223-.446.469-.883.715-1.318a16.314,16.314,0,0,0,1.075-2.137"/>
    <rect id="Rectangle_2973" data-name="Rectangle 2973" width="21.563" height="2.56" transform="translate(72.65 15.649)" fill="#ffca0a"/>
    <rect id="Rectangle_2974" data-name="Rectangle 2974" width="11.228" height="2.571" transform="translate(72.635 22.543)" fill="#ffca0a"/>
    <rect id="Rectangle_2975" data-name="Rectangle 2975" width="11.211" height="2.608" transform="translate(72.637 8.72)" fill="#ffca0a"/>
    <rect id="Rectangle_2976" data-name="Rectangle 2976" width="6.035" height="2.57" transform="translate(88.174 8.724)" fill="#ffca0a"/>
  </g>
</svg>
