<svg xmlns="http://www.w3.org/2000/svg" width="1919.016" height="360.166" viewBox="0 0 1919.016 360.166">
  <path id="Path_11031" data-name="Path 11031" d="M-10257.025,1431.5c7.6-.114,15.352-.124,23.13-.018,66.411.9,134.842,10.3,199.437,33.484,157.6,56.563,129.514,92.945,78.5,96.889-35.521,2.746-57.372.02-78.5-16.625-51.291-40.4,53.548-98.795,335.9-35.28s520.755,106.62,589.405,111.12,376.514,38.81,474.5-90.656c40.96-54.117-33.569-48.639-77.22-38.576-60.6,13.97-94.278,56.182,34.026,130.74,71.614,41.615,193.316,38.847,328.254,17.261" transform="matrix(0.998, -0.07, 0.07, 0.998, 10132.359, -2008.343)" fill="none" stroke="#ffd729" stroke-width="4"/>
</svg>
