<?xml version="1.0" encoding="utf-8"?>
<!-- Generator: Adobe Illustrator 24.1.3, SVG Export Plug-In . SVG Version: 6.00 Build 0)  -->
<svg version="1.1" id="Layer_1" xmlns="http://www.w3.org/2000/svg" xmlns:xlink="http://www.w3.org/1999/xlink" x="0px" y="0px"
	 viewBox="0 0 1919 184" style="enable-background:new 0 0 1919 184;" xml:space="preserve">
<style type="text/css">
	.st0{fill:none;stroke:#FFD729;stroke-width:4.0018;stroke-miterlimit:4.0018;}
</style>
<path id="Path_11031" class="st0" d="M-3.9,62.3c7.6-0.6,15.3-1.2,23.1-1.6c66.3-3.8,135.3,0.8,201.4,19.5
	c161.2,45.4,135.8,83.7,85.1,91.2c-35.3,5.2-57.3,4-79.5-11.1c-54-36.7,46.5-102.3,332.8-58.7s527.2,70,596,69.6
	s378.5,12.4,467.2-123.7c37.1-56.9-36.9-46.2-79.8-33.1c-59.5,18.2-90.2,62.7,43.1,128.1c74.4,36.5,195.6,25.2,328.8-5.8"/>
</svg>
