<svg id="Group_4453" data-name="Group 4453" xmlns="http://www.w3.org/2000/svg" xmlns:xlink="http://www.w3.org/1999/xlink" width="102.905" height="102.987" viewBox="0 0 102.905 102.987">
  <defs>
    <clipPath id="clip-path">
      <rect id="Rectangle_2922" data-name="Rectangle 2922" width="102.905" height="102.987" fill="none"/>
    </clipPath>
  </defs>
  <g id="Group_4367" data-name="Group 4367" clip-path="url(#clip-path)">
    <path id="Path_10930" data-name="Path 10930" d="M101.282,102.985c1.265,0,1.612-.362,1.616-1.68q.01-2.826,0-5.652c0-1.376-.334-1.713-1.682-1.719-1.03,0-2.06,0-3.083,0H96.281V89.581l1.952,0c1.1,0,2.162.006,3.228-.007,1.034-.013,1.422-.405,1.434-1.448.013-1.1.01-2.194.007-3.292l0-1.415c0-1.385,0-2.221-.278-2.508s-1.158-.347-2.605-.44l-.468-.03,0-38.427c0-1.369-.332-1.7-1.693-1.7q-5.058,0-10.116,0h-6.2l.153-.619c2.421-9.839.815-18.778-4.774-26.571A30.151,30.151,0,0,0,53.319.072,29.619,29.619,0,0,0,30.307,8.245C21.428,16.6,18.349,27.179,21.158,39.7l.137.609H5.4c-1.85,0-2.041.195-2.041,2.09V80.528H1.807c-1.511.011-1.8.3-1.8,1.811q0,2.723,0,5.444c0,1.493.308,1.8,1.812,1.8H6.654v4.352l-1.935,0-1.393,0q-.9,0-1.8.007c-1.108.01-1.5.394-1.511,1.469q-.024,3.035,0,6.067c.007,1.146.389,1.513,1.571,1.513q49.853,0,99.7,0M97.121,42.691V80.462H52.685V62.777l4.295-.487V67q0,3.8,0,7.591c0,1.23.362,1.585,1.6,1.586q16.335.007,32.668,0c1.219,0,1.59-.373,1.591-1.595q.009-12.984,0-25.967c0-1.234-.358-1.592-1.591-1.6q-3.7-.009-7.4,0H78.74l1.987-4.323ZM61.03,69.194c1.875-1.281,3.713-2.716,5.49-4.105.76-.593,1.522-1.189,2.3-1.779l.3-.231L72.948,66l-.882.7c-.264.213-.5.4-.741.587l-6.647,5.093c-1.52,1.165-1.948,1.456-3.283,1.456-.4,0-.877-.026-1.488-.062l-.379-.023-.081-.371a3.6,3.6,0,0,1,1.583-4.193m-1.611-1.659V61.792l.333-.118c.357-.126.715-.239,1.07-.351a12.8,12.8,0,0,0,2.146-.819,2.552,2.552,0,0,1,3.683.874l.287.394ZM88.937,53.892c-1.915,1.309-3.787,2.772-5.6,4.187-.771.6-1.544,1.205-2.324,1.8l-.305.233-3.84-2.954,4.158-3.195c.437-.336.883-.662,1.328-.989a35.676,35.676,0,0,0,2.856-2.252,5.12,5.12,0,0,1,4.8-1.253l.337.068.058.338a3.524,3.524,0,0,1-1.468,4.016M90.4,55.667V67.516L82.655,61.6Zm-9.885-4.273c-.433.331-.872.656-1.31.981-1,.739-2.024,1.5-2.962,2.322a2.073,2.073,0,0,1-1.348.626c-.043,0-.086,0-.13-.006a1.976,1.976,0,0,1-1.3-.854l-.248-.316L74.325,52.8c.81-.986,1.6-1.946,2.408-2.888a1.692,1.692,0,0,1,1.145-.531c.832-.028,1.666-.023,2.623-.02l2.641,0Zm9.3,18.658a2.019,2.019,0,0,1,.656,1.279,8.42,8.42,0,0,1,.035,1.331c0,.182-.01.37-.01.561v.424l-.418.069a7.5,7.5,0,0,1-1.242.109,5.387,5.387,0,0,1-3.485-1.244c-4.058-3.2-8.24-6.378-12.284-9.457q-2.312-1.757-4.62-3.52c-.15-.114-.294-.236-.46-.377l-.771-.642,1.273-.9c.712-.51,1.383-.992,2.1-1.444a1.357,1.357,0,0,1,1.375.171c6.454,4.9,12.294,9.368,17.853,13.645m-6.725,3.715H66.778l3.827-2.96c1.118-.86,2.237-1.722,3.375-2.556.292-.214,1.089-.567,1.555-.227,1.653,1.213,3.272,2.457,4.986,3.774ZM31.014,10.9a28.9,28.9,0,0,1,20.52-8.456H51.6a28.977,28.977,0,0,1,20.327,49.5,28.7,28.7,0,0,1-20.4,8.477h-.046A28.97,28.97,0,0,1,31.014,10.9M13.981,69.295c1.913-1.31,3.784-2.772,5.594-4.185.772-.6,1.545-1.207,2.326-1.8l.305-.233,3.835,2.962L20.383,70.38c-.293.226-.594.442-.895.659A15.5,15.5,0,0,0,17.7,72.458a4.707,4.707,0,0,1-3.44,1.407,7.247,7.247,0,0,1-1.348-.136l-.334-.064-.063-.333a3.488,3.488,0,0,1,1.465-4.037m-1.486-1.761V55.664l7.766,5.929Zm9.986,4.2c1.617-1.241,3.151-2.42,4.708-3.57a1.5,1.5,0,0,1,1.557-.043c1.582,1.165,3.141,2.361,4.775,3.616l2.624,2.01H19.855Zm-8.255-17.65C13.052,53.2,11.933,52,12.548,49.813l.086-.307.314-.051a5.5,5.5,0,0,1,4.618,1.157c8.055,6.268,16.2,12.491,24.2,18.494a3.667,3.667,0,0,1,1.67,4.293l-.1.346-.51.028c-.332.018-.667.037-1.005.037a4.67,4.67,0,0,1-3.068-.979c-8.234-6.4-16.486-12.711-24.528-18.75m5.525-4.708h2.53c1.091,0,2.055,0,3.018.012a1.144,1.144,0,0,1,.8.419q1.379,1.651,2.742,3.32l.814.991-.209.308a1.808,1.808,0,0,1-1.2.9,1.313,1.313,0,0,1-.186.013,2.224,2.224,0,0,1-1.346-.6c-1.252-1.035-2.563-2.022-3.95-3.067-.595-.448-1.206-.908-1.837-1.39ZM30.2,57.363l.246-.388a1.75,1.75,0,0,1,1.129-.9,1.64,1.64,0,0,1,1.286.489,15.573,15.573,0,0,0,1.537,1.1c.259.171.524.346.792.532l.559.387-1.951,1.523Zm5.728,4.379.374-.4c1.407-1.516,1.626-1.575,3.346-.917.824.317,1.606.585,2.412.863l1.472.51v5.759ZM5.791,42.753l.721-.051c.211-.018.432-.037.653-.038h3.984c3.278,0,6.557,0,9.836-.016A1.589,1.589,0,0,1,22.7,43.769a17.7,17.7,0,0,0,.732,1.687c.13.274.264.555.4.852l.32.706H19.136q-3.781,0-7.563,0c-1.112,0-1.506.388-1.507,1.465q-.013,13.088,0,26.177c0,1.145.381,1.513,1.564,1.514q16.385.006,32.772,0c1.135,0,1.519-.393,1.522-1.559q.01-3.76,0-7.52v-4.8l4.3.473v17.7H5.791ZM2.4,82.935H100.5v4.221H2.4ZM93.771,93.868H89.55V89.629h4.221Zm-6.677-.008H56.028V89.637H87.094Zm-33.544,0H49.328V89.634H53.55Zm-6.669.013H15.814v-4.22H46.881Zm-33.534,0h-4.2V89.619h4.2Zm-10.9,2.479H100.5v4.228H2.443Z"/>
    <path id="Path_10931" data-name="Path 10931" d="M55.258,8.447A5.4,5.4,0,0,0,51.448,6.8a5.325,5.325,0,0,0-3.76,1.618C41.344,14.711,34.844,21.21,28.369,27.736a5.072,5.072,0,0,0-.013,7.376q7.63,7.7,15.312,15.335l4.074,4.067a5.257,5.257,0,0,0,3.76,1.559,5.119,5.119,0,0,0,3.628-1.525l3.176-3.168q8.121-8.1,16.21-16.229a5.129,5.129,0,0,0-.016-7.458c-6.473-6.521-12.947-13-19.242-19.246M73.869,31.673c-.113.2-.209.406-.3.6a4.4,4.4,0,0,1-.782,1.258c-5.775,5.817-11.866,11.915-19.17,19.192a2.841,2.841,0,0,1-4.318,0q-9.608-9.574-19.178-19.182a2.78,2.78,0,0,1-.006-4.226q9.573-9.607,19.18-19.18a2.84,2.84,0,0,1,4.318-.007c7.374,7.347,13.466,13.445,19.17,19.19a4.443,4.443,0,0,1,.784,1.258c.095.2.191.4.305.6l.136.243Z" fill="#ffc810"/>
    <path id="Path_10932" data-name="Path 10932" d="M52.934,16.85l-1.46,0-1.456,0-1.453,0q-.951,0-1.9.011a1.5,1.5,0,0,0-1.137.387,1.436,1.436,0,0,0-.254,1.125q.795,8.228,1.656,16.447a1.132,1.132,0,0,0,1.257,1.133c2.067.026,4.188.026,6.48,0a1.164,1.164,0,0,0,1.316-1.189q.84-8.172,1.647-16.344a1.5,1.5,0,0,0-.256-1.169,1.576,1.576,0,0,0-1.192-.394c-1.082-.012-2.164-.01-3.246,0m.818,16.718H49.178L47.737,19.259H55.18Z" fill="#ffc810"/>
    <path id="Path_10933" data-name="Path 10933" d="M51.455,38.643h-.01a4.53,4.53,0,0,0-4.512,4.482,4.548,4.548,0,0,0,4.535,4.56h.011a4.514,4.514,0,0,0,3.163-7.718,4.477,4.477,0,0,0-3.187-1.324m0,6.686h-.017a2.172,2.172,0,1,1,.017,0" fill="#ffc810"/>
  </g>
</svg>
