<svg xmlns="http://www.w3.org/2000/svg" xmlns:xlink="http://www.w3.org/1999/xlink" width="96.178" height="96.046" viewBox="0 0 96.178 96.046">
  <defs>
    <clipPath id="clip-path">
      <rect id="Rectangle_3021" data-name="Rectangle 3021" width="96.178" height="96.046" transform="translate(0 0)" fill="none"/>
    </clipPath>
  </defs>
  <g id="Group_4456" data-name="Group 4456" transform="translate(0 0)">
    <g id="Group_4456-2" data-name="Group 4456" clip-path="url(#clip-path)">
      <path id="Path_11340" data-name="Path 11340" d="M88.5,62.17c2.63-6.088,5.225-12.2,7.416-17.372a3.4,3.4,0,0,0,.265-1.266q.009-3.807-.006-7.613-.007-3.631-.006-7.263a2.775,2.775,0,0,0-1.1-2.327,5.583,5.583,0,0,0-4.625-1.194,5.834,5.834,0,0,0-4.756,4.52,54.2,54.2,0,0,0-1.2,6.842l-.193,1.438a1,1,0,0,0,.228.79,1.2,1.2,0,0,0,.851.424c.879.016,1.083-.739,1.134-1.2s.093-.92.137-1.38a35.413,35.413,0,0,1,.476-3.681,14.4,14.4,0,0,1,1.331-3.821,3.2,3.2,0,0,1,2.9-1.794,3.985,3.985,0,0,1,1.137.172,1.828,1.828,0,0,1,1.491,1.983c-.027,2.633-.025,5.267-.024,7.9,0,1.853,0,3.705-.007,5.556a4.357,4.357,0,0,1-.344,1.649q-1.391,3.283-2.8,6.562-2.016,4.707-4,9.425A12.754,12.754,0,0,1,82.8,65.7q-1.245.982-2.487,1.972c-2.328,1.85-4.736,3.764-7.156,5.58-1.365,1.026-2.1,1.916-1.832,3.432a.627.627,0,0,1-.154.5l-.147.232-.332.079-17.038.039c-1.2,0-1.71.495-1.71,1.642q0,7.689.032,15.38a1.577,1.577,0,0,0,.382,1.128.993.993,0,0,0,.744.272c.994-.013,1.1-1.01,1.1-1.437,0-1.59,0-3.179-.006-4.768l-.009-3.482,26.905-.06.006,3.553c0,1.634,0,3.268.022,4.9a1.112,1.112,0,0,0,1.1,1.229h.008a1.075,1.075,0,0,0,1.1-1.112c.027-3.551.019-6.66-.023-9.5-.014-.885-.491-1.322-1.461-1.333-.261,0-.521,0-.805,0l-.957,0V82.022c0-1.021,0-2.007-.015-2.992-.022-1.112-.458-1.546-1.56-1.548-1.047,0-2.088,0-3.266,0l-2.322.006.467-.762c.124-.2.224-.4.313-.568a2.815,2.815,0,0,1,.682-.965c1.915-1.534,3.843-3.051,5.77-4.569q2.157-1.7,4.306-3.4A13.013,13.013,0,0,0,88.5,62.17M77.8,79.8l.009,4.1-23.57.051-.008-4.093Z"/>
      <path id="Path_11341" data-name="Path 11341" d="M44.493,94.443q-.01-7.541-.035-15.078c0-1.346-.469-1.8-1.838-1.8H42.6l-17.51.038-.026-.488c-.127-2.37-.127-2.37-1.9-3.757l-3.307-2.576q-3.255-2.535-6.5-5.081a11.626,11.626,0,0,1-3.639-4.579q-1.419-3.3-2.846-6.6-2.1-4.865-4.191-9.734A4.938,4.938,0,0,1,2.3,42.95c-.034-3.328-.047-6.656-.058-9.985l-.012-3.071c-.006-1.6.584-2.256,2.176-2.412A3.055,3.055,0,0,1,7.359,28.74a7.739,7.739,0,0,1,1.32,2.68c.39,1.868.647,3.786.9,5.641l.117.876c.2,1.456.919,1.4,1.182,1.378a1.036,1.036,0,0,0,.737-.362,1.66,1.66,0,0,0,.311-1.225l-.042-.49c-.087-1.021-.176-2.079-.329-3.1-.383-2.558-.824-4.829-2.352-6.726a5.692,5.692,0,0,0-7.606-1.248A3.114,3.114,0,0,0,0,29.009c.027,2.437.031,4.876.036,7.314,0,2.352.007,4.7.032,7.055a5.211,5.211,0,0,0,.4,1.947q1.485,3.489,3,6.963c1.3,3,2.6,5.991,3.863,9a15.792,15.792,0,0,0,5.119,6.564c2.926,2.24,6.03,4.668,9.489,7.42a3,3,0,0,1,.713.993c.094.177.2.37.325.575l.476.763-5.214.011c-1.6,0-1.926.339-1.925,1.989l.009,4.492-1.029,0h-.22c-.189,0-.368,0-.545,0-.518.01-1.39.175-1.406,1.173-.044,2.948-.039,6.062.016,9.8a.95.95,0,0,0,.313.687,1.134,1.134,0,0,0,1.875-.74,6.431,6.431,0,0,0,.025-1c0-.151-.008-.3-.008-.451L15.334,86.4l26.9-.061.005,2.786c0,1.8.005,3.575.015,5.352a1.724,1.724,0,0,0,.4,1.236,1.115,1.115,0,0,0,.735.264c.912-.012,1.1-.843,1.1-1.538M18.644,84.008l-.009-4.116,23.53-.052.008,4.116Z"/>
      <path id="Path_11342" data-name="Path 11342" d="M42.853,53.781c.2.1.821.382,1.511-.637.055-.083.108-.169.161-.255L60.042,27.923a4.97,4.97,0,0,0,.365-.639,1,1,0,0,0-.426-1.4.984.984,0,0,0-1.433.261,3.862,3.862,0,0,0-.382.565l-.127.21-10.2,16.4c-.128.2-.27.4-.413.6l-2.27,3.417,1.175-3.506c.29-2.178.706-4.317,1.107-6.385.161-.827.13-1.336-.088-1.6s-.724-.4-1.539-.4h-.008l-7.015.016L51.013,15.093,49.8,19.556c-.241,2.163-.624,4.185-1.1,6.6a2.057,2.057,0,0,0,.073,1.282.957.957,0,0,0,.729.5c.88.163,1.224-.611,1.361-1.3q1.1-5.541,2.2-11.084l.846-4.274c.235-1.189-.2-1.52-.647-1.687-.417-.151-.922-.172-1.547.833L36.074,35.583c-.4.643-.552,1.06-.261,1.552s.744.583,1.5.578c1.663-.015,3.326-.017,5.033-.019l2.773,0-1.455,7.39q-.717,3.616-1.441,7.233a1.139,1.139,0,0,0,.633,1.468" fill="#ffca0a"/>
      <path id="Path_11343" data-name="Path 11343" d="M26.812,52.587c.868.87,1.736,1.741,2.617,2.6a2.616,2.616,0,0,0,1.106.706,15.042,15.042,0,0,1,9.256,6.66,15.81,15.81,0,0,1,2.427,9.442A1.368,1.368,0,0,0,42.543,73a1.059,1.059,0,0,0,.77.309h.016a1.149,1.149,0,0,0,1.114-1.227A17.82,17.82,0,0,0,32.024,53.9a4.861,4.861,0,0,1-1.793-1.076C29.366,52,28.518,51.147,27.67,50.3c-1.108-1.112-2.254-2.264-3.421-3.347a22.539,22.539,0,0,0-3.805-2.962A8.223,8.223,0,0,0,10.231,45.2c-.607.558-.881.949-.888,1.267s.246.708.818,1.276L23.57,61.069a3.292,3.292,0,0,0,.534.473A.994.994,0,0,0,25.5,61.4a1.021,1.021,0,0,0,.1-1.412,2.961,2.961,0,0,0-.437-.479l-.185-.179L12.157,46.5l.487-.342a6.018,6.018,0,0,1,3.469-1.191,5.5,5.5,0,0,1,2.521.633A17.311,17.311,0,0,1,22.5,48.368c1.474,1.371,2.919,2.819,4.315,4.219"/>
      <path id="Path_11344" data-name="Path 11344" d="M72.456,61.231q2.414-2.382,4.8-4.791l3.684-3.7q2.694-2.7,5.378-5.4c.882-.891.6-1.42.173-1.858a9.078,9.078,0,0,0-4.477-2.652,8.792,8.792,0,0,0-1.984-.232,9.088,9.088,0,0,0-6.091,2.519c-1.834,1.621-3.6,3.388-5.316,5.1-.881.88-1.761,1.759-2.654,2.624a3.475,3.475,0,0,1-1.354.9,17.783,17.783,0,0,0-12.7,17.955c.046,1.081.461,1.635,1.154,1.6.279-.008,1.02-.029,1.1-1.586.015-.3.027-.6.04-.9a18.141,18.141,0,0,1,.386-3.6A14.87,14.87,0,0,1,64.966,56.043a6.1,6.1,0,0,0,2.557-1.579l1.271-1.3c1.748-1.783,3.555-3.627,5.426-5.348a14.755,14.755,0,0,1,3.8-2.515,5.435,5.435,0,0,1,5.6.711l.475.333-.661.7c-.175.187-.331.353-.492.514L71.289,59.256c-.134.132-.268.264-.393.4a1.137,1.137,0,0,0-.081,1.661,1.078,1.078,0,0,0,1.641-.089"/>
      <path id="Path_11345" data-name="Path 11345" d="M78.848,30.4a1.146,1.146,0,0,0-1.107,1.093,1.213,1.213,0,0,0,.288.895,1.092,1.092,0,0,0,.758.366,1.144,1.144,0,0,0,.8-.276,1.183,1.183,0,0,0,.38-.845,1.2,1.2,0,0,0-.318-.88,1.09,1.09,0,0,0-.768-.352h-.033" fill="#ffca0a"/>
      <path id="Path_11346" data-name="Path 11346" d="M68.531,7.636a1.119,1.119,0,0,0-.8.33,1.061,1.061,0,0,0-.313.76,1.138,1.138,0,0,0,.357.784,1.1,1.1,0,0,0,.76.341h0a1.139,1.139,0,0,0,1.1-1.134,1.068,1.068,0,0,0-.3-.768,1.115,1.115,0,0,0-.8-.313Z" fill="#ffca0a"/>
      <path id="Path_11347" data-name="Path 11347" d="M78.122,26.25a1.2,1.2,0,0,0,1.14-1.114,1.035,1.035,0,0,0-.282-.756,1.113,1.113,0,0,0-.8-.353,1.145,1.145,0,0,0-.8.3,1.069,1.069,0,0,0-.318.762,1.113,1.113,0,0,0,1.06,1.162" fill="#ffca0a"/>
      <path id="Path_11348" data-name="Path 11348" d="M26.58,9.691a1.093,1.093,0,0,0,.777.346,1.106,1.106,0,1,0,.077-2.21,1,1,0,0,0-.778.309,1.129,1.129,0,0,0-.372.772,1.073,1.073,0,0,0,.3.783" fill="#ffca0a"/>
      <path id="Path_11349" data-name="Path 11349" d="M71.784,13.515a1.082,1.082,0,0,0,.332.764,1.011,1.011,0,0,0,.8.294,1.077,1.077,0,0,0,.754-.345,1.1,1.1,0,0,0-.058-1.576,1,1,0,0,0-.783-.305,1.1,1.1,0,0,0-1.046,1.168" fill="#ffca0a"/>
      <path id="Path_11350" data-name="Path 11350" d="M23.094,14.842h.018a1.177,1.177,0,0,0,1.128-1.094,1.059,1.059,0,0,0-.307-.75,1.146,1.146,0,0,0-.791-.366h-.024a1.111,1.111,0,0,0-.79,1.876,1.085,1.085,0,0,0,.766.334" fill="#ffca0a"/>
      <path id="Path_11351" data-name="Path 11351" d="M18.017,39.341a.942.942,0,0,0,.761-.317,1.124,1.124,0,0,0,.337-.79h0a1.092,1.092,0,0,0-1.1-1.11H18a1.072,1.072,0,0,0-.747.313,1.132,1.132,0,0,0-.345.786,1.093,1.093,0,0,0,.326.765,1.14,1.14,0,0,0,.786.354" fill="#ffca0a"/>
      <path id="Path_11352" data-name="Path 11352" d="M38.551,1.38a1.039,1.039,0,0,0-1.1,1.062,1.045,1.045,0,0,0,1.064,1.119,1.113,1.113,0,0,0,.8-.3,1.083,1.083,0,0,0,.332-.768,1.1,1.1,0,0,0-.292-.794,1.094,1.094,0,0,0-.779-.321Z" fill="#ffca0a"/>
      <path id="Path_11353" data-name="Path 11353" d="M17.941,26.543a1.107,1.107,0,0,0,.781-.309,1.088,1.088,0,0,0,.338-.771,1.061,1.061,0,0,0-1.08-1.1,1.192,1.192,0,0,0-.814.312,1.031,1.031,0,0,0-.321.737,1.166,1.166,0,0,0,1.1,1.135" fill="#ffca0a"/>
      <path id="Path_11354" data-name="Path 11354" d="M16.219,31.87a1.1,1.1,0,0,0,1.115,1.058h.035a1.1,1.1,0,0,0,.778-.346,1.084,1.084,0,0,0,.3-.782,1.12,1.12,0,0,0-.361-.773,1.029,1.029,0,0,0-.786-.3,1.129,1.129,0,0,0-1.076,1.147" fill="#ffca0a"/>
      <path id="Path_11355" data-name="Path 11355" d="M44.8,2.225a1.129,1.129,0,0,0,.771-.3A1.1,1.1,0,0,0,44.853.019h-.036a1.084,1.084,0,0,0-.753.291,1.083,1.083,0,0,0-.331.77A1.1,1.1,0,0,0,44.8,2.225" fill="#ffca0a"/>
      <path id="Path_11356" data-name="Path 11356" d="M51.227,0a1.039,1.039,0,0,0-.759.306,1.121,1.121,0,0,0-.3.809,1.123,1.123,0,0,0,1.116,1.1h.005a1.017,1.017,0,0,0,.725-.311,1.153,1.153,0,0,0,.324-.833A1.05,1.05,0,0,0,51.237,0Z" fill="#ffca0a"/>
      <path id="Path_11357" data-name="Path 11357" d="M63.31,3.846a1.145,1.145,0,0,0-1.082,1.147,1.068,1.068,0,0,0,.318.769,1.052,1.052,0,0,0,.787.3A1.089,1.089,0,0,0,64.42,4.95a1.138,1.138,0,0,0-.357-.795,1.051,1.051,0,0,0-.732-.309Z" fill="#ffca0a"/>
      <path id="Path_11358" data-name="Path 11358" d="M32.58,4.028a1.087,1.087,0,0,0-1.09,1.113,1.038,1.038,0,0,0,.282.763,1.109,1.109,0,0,0,.809.305h0a1.135,1.135,0,0,0,.814-.325,1.048,1.048,0,0,0,.3-.753,1.117,1.117,0,0,0-1.117-1.1Z" fill="#ffca0a"/>
      <path id="Path_11359" data-name="Path 11359" d="M76.113,17.928a1.067,1.067,0,0,0-1.072,1.119,1.067,1.067,0,0,0,1.089,1.077h.018a1.12,1.12,0,0,0,.78-.358A1.078,1.078,0,0,0,77.244,19a1.107,1.107,0,0,0-1.106-1.075Z" fill="#ffca0a"/>
      <path id="Path_11360" data-name="Path 11360" d="M19.907,18.233a1.114,1.114,0,0,0-.8.339,1.036,1.036,0,0,0-.292.752,1.17,1.17,0,0,0,1.128,1.106h.006a1.1,1.1,0,0,0,.768-.346,1.093,1.093,0,0,0,.325-.772,1.117,1.117,0,0,0-1.123-1.079Z" fill="#ffca0a"/>
      <path id="Path_11361" data-name="Path 11361" d="M78.165,39.116a1.093,1.093,0,1,0,.079-2.185H78.22A1.067,1.067,0,0,0,77.122,38a1.1,1.1,0,0,0,.282.8,1.069,1.069,0,0,0,.761.319" fill="#ffca0a"/>
      <path id="Path_11362" data-name="Path 11362" d="M57.533,3.491h.009a1.057,1.057,0,0,0,1.091-1.082,1.117,1.117,0,0,0-1.088-1.126h-.017a1.036,1.036,0,0,0-.731.307,1.129,1.129,0,0,0-.34.8,1.054,1.054,0,0,0,1.076,1.1" fill="#ffca0a"/>
    </g>
  </g>
</svg>
