<svg xmlns="http://www.w3.org/2000/svg" xmlns:xlink="http://www.w3.org/1999/xlink" width="85.367" height="98.401" viewBox="0 0 85.367 98.401">
  <defs>
    <clipPath id="clip-path">
      <rect id="Rectangle_3019" data-name="Rectangle 3019" width="85.367" height="98.401" transform="translate(0 0)" fill="none"/>
    </clipPath>
  </defs>
  <g id="Group_4454" data-name="Group 4454" transform="translate(0 0)">
    <g id="Group_4454-2" data-name="Group 4454" clip-path="url(#clip-path)">
      <path id="Path_11326" data-name="Path 11326" d="M77.81,13.106c-2-.035-4-.035-6.007-.031-1.331,0-2.664,0-4-.007a5.875,5.875,0,0,1-1.664-.241Q45.359,6.506,24.586.139A2.274,2.274,0,0,0,22.4.476q-3.876,2.651-7.77,5.279-4.471,3.03-8.93,6.076a6.014,6.014,0,0,1-3.971,1.281A1.58,1.58,0,0,0,.5,13.448a2.039,2.039,0,0,0-.49,1.46q-.021,2.424,0,4.848c.012,1.255.585,1.826,1.86,1.853.564.012,1.131.008,1.7.005l1.273,0V27.8l-1.262,0c-.528,0-1.027-.005-1.528.006-1.4.032-2.025.659-2.04,2.031C0,31.322,0,32.809.008,34.3c.009,1.561.619,2.175,2.178,2.188,2.694.025,5.14.023,7.472,0,1.484-.016,2.126-.661,2.146-2.155q.031-2.179,0-4.357c-.019-1.523-.663-2.151-2.222-2.17-.508-.006-1.013-.005-1.521,0H6.888v-6.13h6.89l.1.364c.1.347.165.7.232,1.053a3.351,3.351,0,0,0,.535,1.573,3.713,3.713,0,0,0,1.614.711c.336.095.678.193,1.005.316l.324.121V89.489H15.372c-1.288,0-1.581.224-1.962,1.47l-.286.928q-.61,1.994-1.217,3.987c-.43,1.414-.388,1.676.632,2.526H34.552c1.022-.738,1.1-1.074.854-1.916-.617-2.16-1.279-4.3-1.785-5.932a1.377,1.377,0,0,0-1.474-1.064h-.014c-.468,0-.938,0-1.419,0H29.578V25.816l.328-.122c.349-.127.711-.227,1.062-.323a3.59,3.59,0,0,0,1.609-.693,3.491,3.491,0,0,0,.545-1.638c.063-.351.128-.712.223-1.058l.1-.37H38q4.417,0,8.833,0c1.389,0,1.4-.7,1.4-.959a.833.833,0,0,0-.205-.629,1.646,1.646,0,0,0-1.16-.323q-4.665,0-9.329,0H32.517l-.8-4.7h45.4a5.913,5.913,0,0,1,.718.026,2.3,2.3,0,0,1,2.09,2.083,2.254,2.254,0,0,1-1.653,2.445,5.091,5.091,0,0,1-1.38.144q-8.985.008-17.969.005l-4.239,0a5.324,5.324,0,0,0-.669.018.855.855,0,0,0-.844.881.822.822,0,0,0,.674.933,3.961,3.961,0,0,0,.988.082c4.385,0,8.74,0,13.092,0h4.962l0,2.984c0,2.2-.007,4.34.016,6.481a1.739,1.739,0,0,1-1.067,1.773,4.281,4.281,0,0,0-.729,7.2,4.045,4.045,0,0,0,4.649.509,4.092,4.092,0,0,0,2.4-3.848.839.839,0,0,0-.826-.955c-.328-.04-.806-.009-1.041.77a1.311,1.311,0,0,0-.033.237,2.425,2.425,0,0,1-.032.283,2.429,2.429,0,1,1-2.735-2.765c1.179-.209,1.313-.371,1.315-1.574q0-3.331,0-6.663V21.718l.469-.029c.389-.025.762-.038,1.125-.049a14.474,14.474,0,0,0,2.057-.166,4.226,4.226,0,0,0-.641-8.368M9.839,34.489H1.967V29.8H9.839Zm4.876-14.826H2V15.054H15.536Zm1.131-6.638H7.312L22.55,2.713V9.337H20.979c-.807,0-1.608,0-2.409,0-1.654.013-2.15.445-2.414,2.1-.043.267-.1.534-.155.809ZM31.875,91.4,33.4,96.44H13.762l.471-1.587c.275-.934.542-1.838.839-2.733a1.213,1.213,0,0,1,1.043-.7c4.377-.017,8.755-.015,13.172-.016Zm-4.344-43.88v7.41l-6.723-7.41Zm-.008-3.574-6.681-7.38h6.681Zm-1.2,12.515H19.645V49.094Zm-6.677,3.609,6.691,7.4H19.646Zm7.89,9.409V76.9l-6.731-7.418Zm-7.878,1.592,6.675,7.366H19.658Zm7.879,9.4v7.423l-6.722-7.423Zm-6.7-21.943h6.72v7.425Zm6.7-25.547-6.9-7.62h6.9Zm-1.188,1.552H19.659V27.141Zm-.02,10.956h-6.7V38.1ZM26.32,89.41h-6.7V82.02ZM16.045,23.37l.435-2.542c.493-2.883.98-5.738,1.5-8.587a1.385,1.385,0,0,1,1.183-.963c2.977-.036,5.984-.037,8.937,0a1.375,1.375,0,0,1,1.157.98c.519,2.834,1.007,5.675,1.5,8.54L31.2,23.37ZM56.727,13.046H31.383l-.168-.944c-.059-.338-.113-.651-.177-.963-.268-1.319-.8-1.772-2.123-1.8-.856-.016-1.713-.012-2.588-.008l-1.74,0V2.161l32.388,9.878Z"/>
      <path id="Path_11327" data-name="Path 11327" d="M85.3,97.142c-.147-.435-.445-.706-1.393-.662-.313.017-.626.015-.959.01l-.956,0V83.139q0-8.692,0-17.384c0-.907-.115-1.541-.689-1.894A1.907,1.907,0,0,1,80.387,62q.027-6.507.006-13.015a1.793,1.793,0,0,0-.352-1.259.9.9,0,0,0-.628-.209c-.3.005-.917.016-.93,1.425-.006.535,0,1.069,0,1.608v1.2H64.259l0-8.549c0-1.47,0-2.94-.006-4.409a1.661,1.661,0,0,0-.34-1.168.952.952,0,0,0-.631-.214c-.289,0-.892.01-.941,1.331-.008.223-.028.444-.046.664l-.059.732H48.106v-.5c0-.164,0-.319.008-.47a6.29,6.29,0,0,0-.012-.805.935.935,0,0,0-.945-.952h0c-.532,0-.871.354-.928.964a6.979,6.979,0,0,0-.017.709v4.09q0,7.194-.015,14.391c0,.345-.057,1.184-.554,1.512a2.326,2.326,0,0,0-.994,2.261c.015,2.42.013,4.839.012,7.259v3.72c0,.091-.005.189-.011.288a1.619,1.619,0,0,0,0,.379c.229.277.645.794,1.01.891.447.117.726-.274.827-.647a4.135,4.135,0,0,0,.081-1c0-2.512,0-5,0-7.494V60.9H66.427v1.108c0,.422,0,.833,0,1.244.019,1.576.534,2.084,2.119,2.087q3.5.006,7,0h4.467V96.423h-11v-4.11q0-3.122,0-6.244c0-1.33-.435-1.781-1.715-1.788q-4.026-.02-8.059,0c-1.175.006-1.655.486-1.66,1.655-.009,2.128-.007,4.255-.005,6.382V96.4h-11V91.391q0-5.454,0-10.909c0-.091,0-.188.008-.288a1.786,1.786,0,0,0-.025-.537,2.221,2.221,0,0,0-1.063-.812c-.569-.115-.751.565-.778.7a4.055,4.055,0,0,0-.051.821l0,15.9-.369.1a4.765,4.765,0,0,1-1.365.1c-.935-.021-1.351,0-1.622.747-.163.454.035.738.584,1.182H84.713c.724-.492.714-.9.59-1.259M48.2,42.187H62.271v9.565H48.2ZM62.278,58.874H48.192V53.768H62.278Zm16.134,4.474h-9.7l-.088-.388c-.091-.4-.158-.8-.224-1.194a7.5,7.5,0,0,0-.6-2.232c-.328-.624-.95-.641-1.92-.625a7.725,7.725,0,0,1-1.117-.032l-.437-.056V53.768H78.412ZM67.024,96.409h-7.47V86.244h7.47Z" fill="#ffca0a"/>
      <path id="Path_11328" data-name="Path 11328" d="M51.18,77.406A1.387,1.387,0,0,0,52.7,78.931c1.855.031,3.787.032,5.907,0,1.037-.013,1.53-.483,1.552-1.477.043-1.9.044-3.861,0-6a1.342,1.342,0,0,0-1.511-1.518c-2.126-.045-4.088-.045-6,0-.983.025-1.452.522-1.478,1.564-.015.663-.011,1.327-.007,1.991l0,.91,0,.955c0,.68-.01,1.359.01,2.039m1.958-5.484h5.048v5.027H53.138Z" fill="#ffca0a"/>
      <path id="Path_11329" data-name="Path 11329" d="M66.44,71.43c-.032,2-.032,4.02,0,6a1.354,1.354,0,0,0,1.522,1.5c.686.021,1.376.016,2.064.011l.931,0,.937,0c.653,0,1.307.009,1.96-.01a1.4,1.4,0,0,0,1.55-1.588q.029-2.907,0-5.814c-.011-1.053-.47-1.556-1.445-1.582-1-.028-2.015-.041-3.044-.041-1.006,0-2.023.012-3.045.039-.973.024-1.414.481-1.431,1.481m1.958.493h5.034v5.026H68.4Z" fill="#ffca0a"/>
    </g>
  </g>
</svg>
