<svg xmlns="http://www.w3.org/2000/svg" xmlns:xlink="http://www.w3.org/1999/xlink" width="85.213" height="85.183" viewBox="0 0 85.213 85.183">
  <defs>
    <clipPath id="clip-path">
      <rect id="Rectangle_3037" data-name="Rectangle 3037" width="85.213" height="85.183" fill="none"/>
    </clipPath>
  </defs>
  <g id="Group_4469" data-name="Group 4469" transform="translate(0 0)">
    <g id="Group_4469-2" data-name="Group 4469" transform="translate(0 0)" clip-path="url(#clip-path)">
      <path id="Path_11464" data-name="Path 11464" d="M79.017,84.761a8.808,8.808,0,0,0,6.172-8.319c.03-3.289.023-6.58.018-9.868L85.2,62.508V51.627q0-15.717,0-31.435a8.838,8.838,0,1,0-17.671-.43c-.005.2,0,.4,0,.615l0,.731H27.756l0-2.548c0-1.589.005-3.166,0-4.744A13.893,13.893,0,0,0,10.762.347,13.887,13.887,0,0,0,.15,11.861a2.816,2.816,0,0,1-.115.445L0,12.422v60.4l.11.486c.084.405.167.811.263,1.213a13.827,13.827,0,0,0,11.581,10.52,1.967,1.967,0,0,1,.4.114l.08.03H42.146c.584-.393.9-.73.891-1.292-.011-.792-.611-1.265-1.6-1.266q-6.484,0-12.971,0H22.019l.785-.7c3.49-3.1,5.029-6.928,4.99-12.418-.076-10.627-.062-21.43-.048-31.879q.008-6.221.011-12.443V23.765H67.524l0,52.051a4.934,4.934,0,0,0,.015.628,1.337,1.337,0,0,0,.557.95,1.212,1.212,0,0,0,.985.2c.437-.106.948-.376,1.014-1.533a6.418,6.418,0,0,1,2.437-4.678,6.085,6.085,0,0,1,4.833-1.227,6.272,6.272,0,0,1-1.1,12.464c-2.227.012-4.455.01-6.681.006l-5.552,0q-3.454,0-6.912,0c-.926,0-1.508.488-1.519,1.266-.007.563.306.9.892,1.291H77.487l.457-.12c.361-.095.72-.188,1.074-.3m-54.779-9.14c-1.211,3.947-5.861,7.008-10.431,7.008-.285,0-.568-.011-.851-.035A11.37,11.37,0,0,1,2.606,72.426c-.558-4.792,2.6-10.048,6.9-11.475L10,60.788l.051.746c.014.175.027.344.027.514V64.48c0,1.4,0,2.8.006,4.2A6.274,6.274,0,0,0,16.486,75.1c1.673.016,3.345.012,5.04.009l2.869,0Zm.852-3.43-.04.354-3.691,0H19.242q-1.325,0-2.651-.005a3.742,3.742,0,0,1-3.949-3.908c-.009-1.893-.006-3.787,0-5.7V60.1L13,60.066a11.13,11.13,0,0,1,8.955,3.377,10.807,10.807,0,0,1,3.132,8.749M25.2,63.1l-.693-.754a13.85,13.85,0,0,0-10.614-4.906h-.015a13.78,13.78,0,0,0-10.618,4.92l-.695.765,0-15.188q0-17.051.01-34.1a11.309,11.309,0,0,1,22.618-.087c.026,4.044.02,8.089.014,12.134Zm56.82,6.375c-3.8-2.613-7.484-2.621-11.259-.027l-.581.4-.063-.972c-.014-.186-.026-.354-.026-.521V65.348q0-22.584,0-45.169a6.268,6.268,0,0,1,6.268-6.534h.006a6.142,6.142,0,0,1,4.474,1.872,6.645,6.645,0,0,1,1.8,4.647q.006,17.635,0,35.271V69.909Z" transform="translate(0 0)"/>
      <path id="Path_11465" data-name="Path 11465" d="M47.631,78.55a1.171,1.171,0,0,0-1.176-.9,1.2,1.2,0,0,0-1.242.9,1.182,1.182,0,0,0,.541,1.442l.289.205.779-.015.269-.19a1.192,1.192,0,0,0,.54-1.444" transform="translate(2.897 4.983)"/>
      <path id="Path_11466" data-name="Path 11466" d="M55.191,29.353q-4.869,0-9.738,0t-9.74,0c-1.163,0-1.616.446-1.618,1.586q0,19.853,0,39.705c0,1.114.449,1.568,1.551,1.569q8.037.008,16.074,0h3.572a3.022,3.022,0,0,0,.365-.012,1.272,1.272,0,0,0,.018-2.53,3.788,3.788,0,0,0-.571-.019H36.689V62.14h2.766c1.943,0,3.853,0,5.765,0,.913,0,1.5-.5,1.507-1.277s-.587-1.273-1.5-1.278q-2.406-.011-4.815,0H36.716V52.105H54.25V55.4q0,2.548,0,5.1a1.828,1.828,0,0,0,.445,1.329,1.151,1.151,0,0,0,.857.312c.8-.016,1.256-.607,1.257-1.619q0-7.218,0-14.438c0-1.01-.463-1.6-1.265-1.607a1.1,1.1,0,0,0-.849.312,1.856,1.856,0,0,0-.445,1.341c0,.674,0,1.346,0,2.025v1.3H36.718V31.955h7.453v3.3q0,2.549,0,5.1a1.831,1.831,0,0,0,.448,1.322,1.213,1.213,0,0,0,.861.31c1.125-.029,1.248-1.148,1.249-1.628q.006-2.568,0-5.136v-3.26H54.25v1.347c0,.71,0,1.4,0,2.1.009.933.488,1.524,1.253,1.54a1.127,1.127,0,0,0,.865-.318,1.722,1.722,0,0,0,.44-1.238q.013-2.224,0-4.445c-.006-1.158-.444-1.589-1.618-1.59" transform="translate(2.188 1.883)" fill="#ffca0a"/>
    </g>
  </g>
</svg>
