<svg xmlns="http://www.w3.org/2000/svg" xmlns:xlink="http://www.w3.org/1999/xlink" width="89.306" height="89.322" viewBox="0 0 89.306 89.322">
  <defs>
    <clipPath id="clip-path">
      <rect id="Rectangle_3032" data-name="Rectangle 3032" width="89.306" height="89.322" transform="translate(0 0)" fill="none"/>
    </clipPath>
  </defs>
  <g id="Group_4462" data-name="Group 4462" transform="translate(0 0)">
    <g id="Group_4461" data-name="Group 4461" clip-path="url(#clip-path)">
      <path id="Path_11416" data-name="Path 11416" d="M7.354,70.985l-.1.008c-2.016.142-2.1.221-2.2,2.113Q4.881,76.3,4.725,79.5l-.139,2.76-.084.022c-.072.019-.124.035-.165.048a.625.625,0,0,1-.17.036q-1.182.009-2.362.012c-1.482,0-1.8.332-1.8,1.846q0,1.259,0,2.519v.5c0,1.839.23,2.07,2.052,2.07H87.447c.151,0,.3,0,.454,0a1.25,1.25,0,0,0,1.391-1.411c.018-1.23.019-2.557,0-4.058-.011-1.043-.438-1.455-1.52-1.467-.654-.008-1.306,0-1.966,0l-.979,0V35.245l.1-.014c.351-.048.7-.092,1.041-.136.817-.1,1.589-.2,2.363-.343a1.051,1.051,0,0,0,.909-1.251A1.119,1.119,0,0,0,88,32.442a6.91,6.91,0,0,0-.811.067l-19.6,2.358c-1.568.189-3.137.374-4.735.563l-1.907.226-.013-.12c-.015-.132-.03-.253-.045-.368-.03-.233-.055-.435-.065-.644q-.3-6.273-.6-12.547c0-.11-.013-.221-.021-.332a2.126,2.126,0,0,1,.588-2.028c.052-.043.139-.182.143-.618.016-1.357.028-2.81,0-4.247a1.2,1.2,0,0,0-1.34-1.346c-4.921-.011-9.907-.011-14.828,0-.909,0-1.32.414-1.333,1.335-.019,1.272-.032,2.772.011,4.244a1.793,1.793,0,0,0,.207.652c.052.115.1.23.145.345s.087.215.135.323a1.849,1.849,0,0,1,.226.8c-.079,2.3-.194,4.629-.305,6.884l-.06,1.231c-.1,2.03-.2,4.06-.307,6.123l-.123,2.445-.1.012-16.45,1.969-.029-.1c-.028-.091-.052-.161-.072-.217a.862.862,0,0,1-.06-.235c-.282-6.03-.574-12.265-.845-18.4a1.2,1.2,0,0,1,.146-.526c.03-.066.058-.13.082-.194.056-.157.124-.314.194-.47a2.887,2.887,0,0,0,.3-.95c.06-1.051.044-2.126.028-3.166l-.009-.6c-.013-1.1-.412-1.508-1.471-1.51-2.378,0-4.75-.005-7.1-.005-2.545,0-5.063,0-7.539.006-.979,0-1.383.4-1.4,1.366-.022,1.536-.019,2.9.007,4.151a1.265,1.265,0,0,0,.234.864,1.559,1.559,0,0,1,.5,1.531c0,.064-.009.129-.011.193Q8.652,45.093,7.525,68.677c-.025.512-.067,1.026-.109,1.525-.019.228-.038.455-.055.681ZM86.816,86.85H2.449V84.832H86.816ZM51.957,69.733h6.572V82.3H51.957Zm13.759-.011H72.26V82.327H65.716ZM45.9,15.875H58.524v1.987H45.9Zm-.084,21.47L46.625,20.4h11.1l.007.112c.021.355.044.71.066,1.067.051.783.1,1.571.139,2.36q.106,2.24.207,4.48.156,3.367.318,6.733c.022.436-.011.836-.637.908-2.914.339-5.826.687-8.814,1.044l-3.2.383ZM37.532,40.9q4.233-.515,8.466-1.026,7.333-.88,14.669-1.749,4.892-.579,9.781-1.162,3.288-.393,6.576-.791l4.571-.551c.12-.015.242-.022.377-.03l.341-.022V82.33h-7.6v-4.2q0-4.531,0-9.065c0-1.444-.348-1.8-1.77-1.8q-4.062-.006-8.12,0c-1.193,0-1.576.387-1.578,1.582q-.008,4.5,0,9v4.47H60.956v-4.6q0-4.35,0-8.7c0-1.39-.353-1.75-1.713-1.752q-4.062-.006-8.12,0c-1.253,0-1.635.382-1.637,1.625,0,3.079,0,6.158,0,9.262V82.3H19V74.011c0-9.741,0-19.813-.017-29.718,0-.814.164-1.2,1.155-1.31,5.8-.672,11.69-1.388,17.388-2.081M11.519,15.886H24.1v2H11.519Zm-1.7,54.958,2.411-50.451H23.36l0,.114.924,19.562-2.7.33c-1.659.2-3.285.4-4.912.6-.5.061-.994.118-1.491.174-.627.072-1.254.144-1.88.223a1.212,1.212,0,0,0-1.223,1.291,1.12,1.12,0,0,0,.364.807,1.429,1.429,0,0,0,1.094.288c.641-.05,1.273-.13,1.943-.214.3-.038.609-.076.924-.113l.134-.016V70.969H9.812Zm-2.4,2.671h9.138v8.806H7.009Z"/>
      <path id="Path_11417" data-name="Path 11417" d="M66.211.016C65.309,0,64.388.006,63.5.009l-1.032,0V.026h-.12q-.609,0-1.217-.008c-.4,0-.8-.008-1.21-.008-.479,0-.959.006-1.434.024a10.316,10.316,0,0,0-9.751,9.9c-.011.952.4,1.515,1.136,1.544.749.029,1.207-.509,1.265-1.446a7.832,7.832,0,0,1,8-7.611c1.195-.008,2.389-.006,3.582,0,1.165,0,2.328,0,3.492,0,.878-.006,1.382-.442,1.383-1.2s-.5-1.187-1.382-1.2" fill="#ffca0a"/>
      <path id="Path_11418" data-name="Path 11418" d="M27.882.016l-.3,0C26.412,0,25.2-.016,24.019.035a10.413,10.413,0,0,0-9.759,9.7c.029.129.047.269.065.406a1.341,1.341,0,0,0,.225.739,1.769,1.769,0,0,0,1.262.514c.6-.076.892-.524.943-1.452a7.7,7.7,0,0,1,6.563-7.379A18.822,18.822,0,0,1,26.4,2.422c.476,0,.969.006,1.451-.008.9-.026,1.394-.448,1.4-1.188.008-.758-.491-1.2-1.369-1.21" fill="#ffca0a"/>
      <path id="Path_11419" data-name="Path 11419" d="M32.9,4.547c-.989-.008-1.979,0-2.968-.005l-1.272.01c-.452,0-.9,0-1.355-.009s-.894-.007-1.348-.007c-.542,0-1.088.005-1.629.024A5.672,5.672,0,0,0,18.88,9.93c-.028.935.392,1.514,1.124,1.546.692.028,1.171-.474,1.274-1.354a3.294,3.294,0,0,1,3.5-3.169q2.211-.01,4.422,0,1.842,0,3.685,0c.671,0,1.473-.212,1.478-1.2s-.8-1.2-1.466-1.2" fill="#ffca0a"/>
      <path id="Path_11420" data-name="Path 11420" d="M62.815,4.551,62.4,4.545c-.61-.008-1.229-.016-1.851-.016s-1.255.008-1.877.034a5.718,5.718,0,0,0-5.4,5.235l-.006.092c-.016.271-.041.682.09.806a2.163,2.163,0,0,0,1.275.721h.007c.739,0,.966-.68,1.027-1.251a3.294,3.294,0,0,1,3.559-3.215c.372,0,.742,0,1.111,0h.493c.212,0,.426,0,.638,0,.439,0,.894,0,1.338-.008a1.5,1.5,0,0,0,1.063-.424,1.1,1.1,0,0,0,.292-.816,1.223,1.223,0,0,0-1.351-1.154" fill="#ffca0a"/>
      <path id="Path_11421" data-name="Path 11421" d="M42.756.017C40.461,0,38.041,0,35.561.016c-.908.006-1.447.477-1.443,1.258s.537,1.229,1.46,1.244c.824.012,1.659.009,2.467.007.36,0,.721,0,1.081,0h.1c.351,0,.7,0,1.054,0,.819,0,1.661.006,2.491-.009.861-.017,1.367-.459,1.387-1.212a1.2,1.2,0,0,0-.31-.9A1.494,1.494,0,0,0,42.756.017" fill="#ffca0a"/>
      <path id="Path_11422" data-name="Path 11422" d="M75.339,4.551c-2.108-.017-4.329-.019-6.6,0a1.473,1.473,0,0,0-1.068.374,1.142,1.142,0,0,0-.3.834c.005.742.515,1.174,1.4,1.187.74.011,1.5.008,2.228.007.326,0,.651,0,.977,0l1.019,0c.78,0,1.583.007,2.372-.009.823-.016,1.3-.44,1.322-1.165a1.158,1.158,0,0,0-.3-.854,1.437,1.437,0,0,0-1.046-.373" fill="#ffca0a"/>
      <path id="Path_11423" data-name="Path 11423" d="M41.2,4.569a15.638,15.638,0,0,0-2.524,0,1.08,1.08,0,0,0-1.079,1.2,1.125,1.125,0,0,0,1.136,1.164,6.346,6.346,0,0,0,.828.013c.129,0,.257-.007.385-.007s.255,0,.383.008a6.733,6.733,0,0,0,.829-.015,1.12,1.12,0,0,0,1.123-1.171,1.08,1.08,0,0,0-1.081-1.2" fill="#ffca0a"/>
      <path id="Path_11424" data-name="Path 11424" d="M80.072,1.219A1.159,1.159,0,0,0,78.964.031a3.724,3.724,0,0,0-.719-.017c-.115,0-.23.009-.344.009L77.776.012c-.142,0-.284,0-.428,0-.109,0-.217,0-.325.009a1.188,1.188,0,0,0-1.292,1.21,1.15,1.15,0,0,0,.279.864,1.408,1.408,0,0,0,1.015.424,11.963,11.963,0,0,0,1.945-.019,1.139,1.139,0,0,0,1.1-1.276" fill="#ffca0a"/>
      <path id="Path_11425" data-name="Path 11425" d="M58.68,57.414a1.2,1.2,0,0,0-1.352-1.334c-.7-.011-1.4-.018-2.1-.018-.716,0-1.431.007-2.138.019a1.177,1.177,0,0,0-1.339,1.33c-.02,1.374-.02,2.8,0,4.234.013.881.42,1.323,1.247,1.347,1.466.045,2.951.045,4.418,0,.816-.025,1.229-.467,1.261-1.349.017-.474.012-.958.009-1.426,0-.214,0-.427,0-.641,0-.231,0-.462,0-.693,0-.483.007-.981-.01-1.469m-2.472,3.133H54.23V58.505h1.978Z" fill="#ffca0a"/>
      <path id="Path_11426" data-name="Path 11426" d="M65.516,61.639c.026.9.418,1.328,1.238,1.353,1.339.042,2.784.041,4.416,0a1.184,1.184,0,0,0,1.262-1.252c.038-1.484.038-2.971,0-4.419a1.126,1.126,0,0,0-1.159-1.232c-1.582-.03-3.134-.03-4.606,0a1.1,1.1,0,0,0-1.149,1.223c-.011.474-.008.957-.006,1.425q0,.369,0,.737c0,.214,0,.428,0,.642,0,.5-.008,1.014.006,1.52m2.457-3.112h2.012v2H67.973Z" fill="#ffca0a"/>
      <path id="Path_11427" data-name="Path 11427" d="M41.625,53.808q-2.538-.009-5.073,0H30.231q-1.512,0-3.025,0c-1.017,0-1.5.365-1.53,1.136a1.118,1.118,0,0,0,.291.849,1.676,1.676,0,0,0,1.229.412c4.785.009,9.635.009,14.42,0a1.709,1.709,0,0,0,1.258-.433,1.091,1.091,0,0,0,.295-.817c-.025-.725-.588-1.143-1.544-1.147"/>
      <path id="Path_11428" data-name="Path 11428" d="M41.638,58.342q-2.537-.01-5.073,0h-6.32q-1.514,0-3.026,0a1.748,1.748,0,0,0-1.268.388,1.1,1.1,0,0,0-.274.823c.015.763.55,1.184,1.506,1.186,4.559.011,9.276.011,14.419,0a1.738,1.738,0,0,0,1.269-.43,1.1,1.1,0,0,0,.3-.808c-.016-.722-.589-1.155-1.532-1.16"/>
      <path id="Path_11429" data-name="Path 11429" d="M41.636,62.877q-2.538-.009-5.073,0h-3.9l-2.433,0q-1.5,0-3.009.005a1.751,1.751,0,0,0-1.268.386,1.106,1.106,0,0,0-.273.827c.018.762.554,1.182,1.509,1.184,4.558.011,9.274.01,14.419,0a1.731,1.731,0,0,0,1.267-.431,1.093,1.093,0,0,0,.3-.808c-.017-.722-.591-1.154-1.534-1.158"/>
      <path id="Path_11430" data-name="Path 11430" d="M80.228,45.165a1.226,1.226,0,0,0-1.179-1.322h-.025a1.192,1.192,0,0,0-1.189,1.271c-.025,1.354-.026,2.769,0,4.324a1.217,1.217,0,0,0,1.173,1.326h.024a1.247,1.247,0,0,0,1.195-1.376c.013-.488.01-.985.008-1.465q0-.348,0-.7V45.251c0-.028,0-.058,0-.086"/>
    </g>
  </g>
</svg>
