<svg xmlns="http://www.w3.org/2000/svg" xmlns:xlink="http://www.w3.org/1999/xlink" width="93.356" height="93.354" viewBox="0 0 93.356 93.354">
  <defs>
    <clipPath id="clip-path">
      <rect id="Rectangle_3031" data-name="Rectangle 3031" width="93.356" height="93.354" transform="translate(0 0.001)" fill="none"/>
    </clipPath>
  </defs>
  <g id="Group_4460" data-name="Group 4460" transform="translate(0 0)">
    <g id="Group_4459" data-name="Group 4459" clip-path="url(#clip-path)">
      <path id="Path_11400" data-name="Path 11400" d="M93.322,84.292l.034-.084V77.162l-.034-.076a1.8,1.8,0,0,1-.129-.328,6.518,6.518,0,0,0-5.887-5.167,15.473,15.473,0,0,0-2.029-.033c-.333.009-.671.018-1.016.018h-.25V67.964q0-2.787,0-5.574a2.126,2.126,0,0,0-2.4-2.409c-2.406-.016-4.871-.015-7.329,0a2.131,2.131,0,0,0-2.412,2.407q-.009,2.682,0,5.365v3.7H63.446v-2.9c0-2.061,0-4.1,0-6.13a2.138,2.138,0,0,0-2.392-2.438c-2.645-.018-5.073-.019-7.42,0A2.087,2.087,0,0,0,51.3,62.363q-.01,2.772,0,5.546v3.616h-.25c-.316,0-.619-.005-.912-.009-.616-.009-1.2-.018-1.767.019a3.564,3.564,0,0,1-3.237-1.11,3.365,3.365,0,0,0-.961-.658,6.027,6.027,0,0,1-.75-.447,1.529,1.529,0,0,1-.645-.974c-.066-.942-.1-1.9-.137-2.827-.026-.676-.052-1.351-.088-2.027a1.106,1.106,0,0,1,.706-1.221,4.52,4.52,0,0,0,2.722-4.223c.055-3.422.055-6.9,0-10.347a4.541,4.541,0,0,0-2.846-4.328,7.466,7.466,0,0,0-.832-.306c-.141-.046-.281-.092-.421-.142l-.158-.055-.008-.168c-.021-.457-.044-.91-.068-1.362-.06-1.16-.122-2.359-.127-3.534a2.465,2.465,0,0,1,.56-1.528c1.435-1.628,2.925-3.252,4.367-4.823l3.7-4.033.407.515c.145.182.271.341.393.5l1.535,2.042q2.4,3.189,4.789,6.386a4.8,4.8,0,0,0,2.7,1.956,1.505,1.505,0,0,1,1.2,1.245,6.608,6.608,0,0,0,7.981,4.661A11.647,11.647,0,0,0,71.8,43.508c.447-.251.908-.509,1.4-.756l.111-.055,2.687,1.335-.023.177c-.366,2.791-.108,4.3,1.02,5.98a7.211,7.211,0,0,0,8.021,2.831c.75-.251,1.1-.8.907-1.427a1.16,1.16,0,0,0-1.526-.738l-.217.05c-.263.06-.526.121-.792.155a4.709,4.709,0,0,1-3.938-1.436,4.8,4.8,0,0,1-1.408-3.97A4.953,4.953,0,0,1,82.2,41.321a4.882,4.882,0,0,1,5.259,3.042c.4.879.934,1.181,1.6.908.879-.367.675-1.275.475-1.784a7.18,7.18,0,0,0-12.36-1.615l-.125.15-.578-.281c-.307-.149-.61-.3-.912-.448-.318-.16-.635-.324-.942-.484l-.555-.286.045-.191c.816-3.406-.041-5.837-2.779-7.884a1.237,1.237,0,0,1-.5-.927,6.176,6.176,0,0,0-1.211-3.879q-2.18-3.416-4.331-6.85-1.671-2.653-3.349-5.3a1.619,1.619,0,0,1-.207-1.551,6.517,6.517,0,0,0-1.561-7.017c-.55-.578-1.133-1.146-1.7-1.7S57.3,4.082,56.737,3.485A10.91,10.91,0,0,0,51.6,0H49.428A10.413,10.413,0,0,0,44.6,2.982c-6.535,6.139-12.928,12.06-18.318,17.043a2.39,2.39,0,0,1-1.445.563c-.943.031-1.9.029-2.83.029h-.441c-1.216,0-2.461.008-3.68.092A11.564,11.564,0,0,0,7.319,31.445c-.136,2.371-.235,4.785-.33,7.12-.047,1.135-.093,2.269-.144,3.4-.008.192-.027.382-.045.566l-.036.389-.14.059c-3.012,1.266-3.792,2.446-3.793,5.742,0,.877,0,1.755.007,2.632.008,1.962.015,3.991-.018,5.987A5,5,0,0,0,5.5,62.282a1.158,1.158,0,0,1,.495.931c-.042,2.03-.109,3.586-.215,5.048a1.5,1.5,0,0,1-.709,1.081A8.755,8.755,0,0,0,0,77.706q0,6.553,0,13.106c0,1.806.737,2.542,2.537,2.542H45.8c2.056,0,2.617-.543,2.729-2.642a2.915,2.915,0,0,1,.059-.4l.075-.425,31.181,0a4.748,4.748,0,0,0,.635-.015,1.108,1.108,0,0,0,.164-2.18,3.053,3.053,0,0,0-.81-.057l-.217,0q-11.841,0-23.683,0h-7.3l-.019-.229a52.411,52.411,0,0,1-.084-5.309,34.6,34.6,0,0,0-.48-8.021l-.066-.3H86.016c3.376,0,5.088,1.712,5.089,5.085l0,1.283c0,1.009.007,2.019-.006,3.027a4.357,4.357,0,0,1-4.479,4.466h-.23c-.131,0-.264,0-.4.007a1.143,1.143,0,0,0-1.205,1.189c.033.637.486,1.022,1.245,1.054A6.638,6.638,0,0,0,93.2,84.617a2.34,2.34,0,0,1,.119-.325M69.839,34.423l.137-.093.14.088A4.387,4.387,0,0,1,72.031,39.3a4.537,4.537,0,0,1-3.93,3.385,4.259,4.259,0,0,1-.451.024,4.616,4.616,0,0,1-4.122-2.644,1.113,1.113,0,0,1,.494-1.692c1.392-.863,2.717-1.789,4.119-2.77.56-.391,1.124-.785,1.7-1.18M64.273,23.391q1.816,2.877,3.628,5.758c1.163,1.852.858,3.3-.959,4.562l-.771.538c-.981.682-1.994,1.389-3.012,2.054a3.162,3.162,0,0,1-1.728.555,2.748,2.748,0,0,1-2.2-1.157c-1.826-2.388-3.655-4.836-5.424-7.2L52.02,26.1a.833.833,0,0,1-.116-.238L51.8,25.6l8.208-8.977ZM9.2,40.118c.036-.857.066-1.714.1-2.571.064-1.83.13-3.722.254-5.581A9.286,9.286,0,0,1,18.7,22.915c3.261-.134,6.818-.131,11.193.007a11.356,11.356,0,0,1,3.169.738c.2.066.4.132.592.195.61.2,1.409.285,1.746-.426a1.108,1.108,0,0,0,.04-.905,1.231,1.231,0,0,0-.76-.673c-.987-.356-2.028-.632-3.036-.9-.322-.085-.644-.17-.965-.258a3.082,3.082,0,0,0-.557-.083c-.1-.009-.192-.018-.288-.03l-.115-.015-.361-.559.206-.136c.084-.056.17-.108.257-.161a2.724,2.724,0,0,0,.462-.32q4.928-4.574,9.85-9.154l6.995-6.5c2.195-2.039,4.588-2.007,6.739.091,1.883,1.839,3.31,3.252,4.624,4.582a4.362,4.362,0,0,1,.224,6.272c-4.158,4.586-8.408,9.229-12.518,13.719l-4.1,4.482a.933.933,0,0,1-.194.153l-.431.3-.059-.408c-.049-.342-.086-.684-.123-1.024a12.176,12.176,0,0,0-.364-2.163,22.006,22.006,0,0,0-1.471-3.576,1.213,1.213,0,0,0-.707-.667,1.082,1.082,0,0,0-.864.128,1.068,1.068,0,0,0-.533.655,1.386,1.386,0,0,0,.223,1.059,10.91,10.91,0,0,1,1.491,5.534c.05,1.937.138,3.908.223,5.813.042.929.084,1.858.121,2.788.01.245.007.492.005.761l0,.651H9.075ZM5.083,57.52q-.017-4.674,0-9.347c.008-2.049.936-2.964,3.009-2.965q16.306-.006,32.615,0c2.1,0,3.036.936,3.041,3.032q.013,4.581,0,9.162c0,2.194-.891,3.09-3.063,3.091H15.06l-6.988,0c-2.06,0-2.982-.917-2.989-2.972M46.271,89.878c0,.206-.012.411-.026.629l-.031.553H2.268v-.25c0-1.415-.008-2.822-.016-4.225-.018-3.21-.038-6.531.048-9.782a6.379,6.379,0,0,1,6.281-6c.747-.017,1.5-.013,2.246-.013.5,0,1.009,0,1.514,0,.54,0,1.447-.158,1.455-1.124.005-.707-.52-1.115-1.441-1.122s-1.829,0-2.741,0H8.192V62.815H40.254l.255,5.729-21.751,0a5.645,5.645,0,0,0-.642.015,1.048,1.048,0,0,0-1.043,1.075,1.067,1.067,0,0,0,.987,1.138,3.085,3.085,0,0,0,.631.027l.235,0H39.177c4.433,0,7.085,2.649,7.094,7.08q.012,5,0,10Zm14.86-18.435H53.608V62.275h7.523Zm20.574.011H74.137V62.3h7.568Z"/>
      <path id="Path_11401" data-name="Path 11401" d="M80.068,85.1h.014a4.072,4.072,0,0,0,2.9-1.2A4.167,4.167,0,0,0,84.2,80.916a3.931,3.931,0,0,0-4.109-4.059h-.026a4.15,4.15,0,0,0-2.981,1.189,4.052,4.052,0,0,0-1.151,2.93A4.172,4.172,0,0,0,80.068,85.1m.014-6.023h.011a1.9,1.9,0,0,1,1.857,1.9,1.879,1.879,0,0,1-.565,1.334,1.848,1.848,0,0,1-1.3.537h-.016a1.913,1.913,0,0,1-1.873-1.9,1.939,1.939,0,0,1,1.888-1.874"/>
      <path id="Path_11402" data-name="Path 11402" d="M60.869,76.823h-.061a4.186,4.186,0,0,0-4.136,4.153A4.2,4.2,0,0,0,60.806,85.1h.007a4.139,4.139,0,0,0,.056-8.278m1.242,5.5a1.849,1.849,0,0,1-1.292.529h-.037a1.9,1.9,0,0,1-1.316-.585,1.876,1.876,0,0,1-.538-1.331,1.939,1.939,0,0,1,1.889-1.853h.033A1.911,1.911,0,0,1,62.693,81a1.867,1.867,0,0,1-.582,1.32"/>
      <path id="Path_11403" data-name="Path 11403" d="M11.053,86.6h.007a4.125,4.125,0,0,0,.019-8.249h-.045a4.052,4.052,0,0,0-2.88,1.191,4.129,4.129,0,0,0-1.221,2.976,4.073,4.073,0,0,0,4.12,4.082m-.026-5.992a1.869,1.869,0,1,1,.04,3.738h-.019a1.869,1.869,0,0,1-.021-3.738" fill="#ffca0a"/>
      <path id="Path_11404" data-name="Path 11404" d="M28.388,81.724c-1.07.163-1.453.476-1.461,1.194-.01.833.535,1.077,1.417,1.2l.19.027.023.189a6.937,6.937,0,0,1,.036.808c0,1.075.059,1.684,1.109,1.7a1.159,1.159,0,0,0,.849-.248,2.116,2.116,0,0,0,.3-1.427,6.25,6.25,0,0,1,.043-.851l.028-.193.194-.02c.992-.1,1.386-.42,1.4-1.134.021-.847-.5-1.093-1.463-1.251l-.21-.035v-.212c0-.463,0-.925.005-1.386.007-1.195.013-2.431-.026-3.641a1.659,1.659,0,0,0-.384-1.1,1.517,1.517,0,0,0-.826-.246.561.561,0,0,0-.276.055,1.685,1.685,0,0,0-.7,1.148c-.07,1.244-.058,2.519-.046,3.751,0,.476.008.951.008,1.427v.215Z" fill="#ffca0a"/>
      <path id="Path_11405" data-name="Path 11405" d="M39.963,78.023c.064-.515-.16-.938-1.462-1.333l-.146-.044-.028-.15C38.09,75.189,37.62,75,37.149,75h-.017c-.481,0-.955.2-1.185,1.564l-.032.187-.19.02c-1.246.124-1.4.728-1.4,1.171-.005.492.157,1.075,1.46,1.206l.225.022v2.193c0,.422,0,.843,0,1.264,0,1.022-.007,2.079.026,3.115a1.213,1.213,0,0,0,.366.86,1.028,1.028,0,0,0,.771.286,1.14,1.14,0,0,0,1.072-1.147c.024-.309.021-.62.018-.931l0-.329V79.128l.238-.011c.938-.046,1.376-.373,1.466-1.094" fill="#ffca0a"/>
      <path id="Path_11406" data-name="Path 11406" d="M25.126,79.5c.024-.783-.481-1.042-1.487-1.27l-.195-.043,0-.734c0-.38.008-.749-.009-1.118C23.405,75.517,22.966,75,22.315,75h-.036c-.647.02-1.05.513-1.076,1.316-.013.387-.01.775-.007,1.166l0,.763-.218.028c-1.054.135-1.484.483-1.484,1.2s.441,1.085,1.473,1.179l.227.022v2.418c0,.88,0,1.759.012,2.638a1.069,1.069,0,0,0,1.063,1.152.921.921,0,0,0,.686-.2,1.377,1.377,0,0,0,.471-.929,5.5,5.5,0,0,0,.018-.667V80.645l.237-.011c1.263-.063,1.428-.68,1.442-1.138" fill="#ffca0a"/>
      <path id="Path_11407" data-name="Path 11407" d="M24.325,27.1h-.053a5.18,5.18,0,0,0-5.244,5.136,5.279,5.279,0,0,0,1.494,3.786A5.21,5.21,0,0,0,24.209,37.6a5.327,5.327,0,0,0,3.729-1.521A5.225,5.225,0,0,0,24.325,27.1m-.057,8.257h-.006a3.009,3.009,0,0,1-2.985-3,2.961,2.961,0,0,1,2.946-3.012,3.018,3.018,0,0,1,2.19.9,2.937,2.937,0,0,1,.871,2.126,3.068,3.068,0,0,1-3.016,2.988" fill="#ffca0a"/>
      <path id="Path_11408" data-name="Path 11408" d="M50.079,8.035h-.018a3.906,3.906,0,1,0,.011,7.812h0a3.848,3.848,0,0,0,3.894-3.854A3.936,3.936,0,0,0,52.853,9.17a3.888,3.888,0,0,0-2.774-1.135m0,5.558H50.04a1.662,1.662,0,0,1-1.115-2.854,1.689,1.689,0,0,1,1.237-.443,1.65,1.65,0,0,1-.083,3.3"/>
      <path id="Path_11409" data-name="Path 11409" d="M19.871,48.321c-3.311-.013-6.668-.013-9.98,0-1.012,0-1.375.363-1.385,1.371-.022,2.118-.022,4.3,0,6.681.009,1.043.384,1.416,1.433,1.423,1.152.008,2.306,0,3.46,0l1.484,0,1.484,0c1.154,0,2.307,0,3.459,0,1.053-.007,1.429-.38,1.438-1.423.021-2.373.02-4.559,0-6.681-.01-1-.387-1.367-1.391-1.371m-.905,7.2H10.814v-4.9h8.152Z"/>
      <path id="Path_11410" data-name="Path 11410" d="M26.845,51.342a1.467,1.467,0,0,0,1.125-.386,1.045,1.045,0,0,0,.3-.768c-.007-.68-.519-1.088-1.372-1.093h-.019a1.555,1.555,0,0,0-1.126.367,1.008,1.008,0,0,0-.274.753c.01.687.533,1.118,1.366,1.127"/>
      <path id="Path_11411" data-name="Path 11411" d="M32.5,49.1c-.614,0-1.348.194-1.357,1.087a1.057,1.057,0,0,0,.294.792,1.514,1.514,0,0,0,1.107.368c.814-.008,1.371-.459,1.384-1.124a.975.975,0,0,0-.274-.735A1.493,1.493,0,0,0,32.5,49.1"/>
      <path id="Path_11412" data-name="Path 11412" d="M26.9,54.4h-.027a1.547,1.547,0,0,0-1.117.365,1.014,1.014,0,0,0-.279.758c.006.692.514,1.113,1.36,1.124a1.642,1.642,0,0,0,1.132-.382,1.035,1.035,0,0,0,.3-.762c0-.672-.528-1.095-1.367-1.1"/>
      <path id="Path_11413" data-name="Path 11413" d="M32.528,54.4h-.009c-.615,0-1.348.187-1.376,1.069a1.058,1.058,0,0,0,.277.8,1.493,1.493,0,0,0,1.1.376h0a1.531,1.531,0,0,0,1.12-.4,1.014,1.014,0,0,0,.284-.761c-.021-.664-.557-1.078-1.4-1.08"/>
      <path id="Path_11414" data-name="Path 11414" d="M38.21,49.1h-.026a1.554,1.554,0,0,0-1.116.351,1.02,1.02,0,0,0-.273.761c0,.7.507,1.123,1.345,1.135a1.486,1.486,0,0,0,1.127-.386,1.044,1.044,0,0,0,.305-.763c0-.681-.513-1.091-1.362-1.1"/>
      <path id="Path_11415" data-name="Path 11415" d="M38.174,54.4c-.893,0-1.356.362-1.376,1.076a1.047,1.047,0,0,0,.278.8,1.493,1.493,0,0,0,1.1.376h0c.825,0,1.373-.432,1.4-1.1a.989.989,0,0,0-.269-.757,1.547,1.547,0,0,0-1.13-.391"/>
    </g>
  </g>
</svg>
