<svg xmlns="http://www.w3.org/2000/svg" xmlns:xlink="http://www.w3.org/1999/xlink" width="93.625" height="93.636" viewBox="0 0 93.625 93.636">
  <defs>
    <clipPath id="clip-path">
      <rect id="Rectangle_3035" data-name="Rectangle 3035" width="93.625" height="93.636" transform="translate(0 0)" fill="none"/>
    </clipPath>
  </defs>
  <g id="Group_4463" data-name="Group 4463" transform="translate(0 0)">
    <g id="Group_4467" data-name="Group 4467" clip-path="url(#clip-path)">
      <path id="Path_11446" data-name="Path 11446" d="M92.268,58.033c-.408.014-.851.344-1.436,1.072L87.36,63.429V17.3c0-.506,0-1.012,0-1.518.007-1.158.012-2.355-.015-3.529a6.007,6.007,0,0,0-5.8-5.955c-1.5-.059-3.033-.036-4.514-.016l-.248,0a1.545,1.545,0,0,0-1.129.42,1.272,1.272,0,0,0-.329.945c.025.8.548,1.245,1.473,1.257.876.012,1.751.009,2.627.007l1.228,0c2.775,0,4.067,1.29,4.067,4.055V63.31l-.734-.8c-.159-.171-.275-.3-.382-.429q-.466-.579-.927-1.161c-.6-.762-1.211-1.524-1.835-2.27a1.478,1.478,0,0,0-1.122-.58,1.243,1.243,0,0,0-.8.3,1.323,1.323,0,0,0-.1,1.945c2.367,2.993,4.3,5.408,6.079,7.6a1.485,1.485,0,0,0,1.128.636h0a1.491,1.491,0,0,0,1.131-.644q2.351-2.919,4.67-5.861l1.786-2.251v-.918c-.555-.591-.977-.843-1.356-.838"/>
      <path id="Path_11447" data-name="Path 11447" d="M87.351,76.845a1.592,1.592,0,0,0-.4-1.16,1.262,1.262,0,0,0-.918-.347h0c-.816,0-1.288.557-1.3,1.519-.007.734-.006,1.468,0,2.2,0,.643,0,1.288,0,1.932a3.453,3.453,0,0,1-3.735,3.743q-24.582.007-49.169,0a3.719,3.719,0,0,1-.491-.045c-.1-.014-.216-.029-.352-.044l-.6-.066,1.771-1.418c.983-.785,1.917-1.53,2.836-2.294a1.315,1.315,0,1,0-1.641-2.04c-2.855,2.258-5.343,4.247-7.6,6.082a1.322,1.322,0,0,0,0,2.264q2.9,2.334,5.823,4.642l2.292,1.82h.919c.59-.553.849-.973.836-1.354-.013-.412-.344-.855-1.071-1.44l-4.32-3.471H80.657c.254,0,.507,0,.761-.006a5.86,5.86,0,0,0,5.795-5.052,28.543,28.543,0,0,0,.147-4.1c0-.459-.011-.917-.009-1.374"/>
      <path id="Path_11448" data-name="Path 11448" d="M29.393,62.524c-.145-1.252-.138-2.2.366-2.767a3.194,3.194,0,0,1,2.451-.649h13.2v3.616h2.81V59.117l3.959,0c3.461,0,6.891-.008,10.325.015a1.773,1.773,0,0,1,1.814,1.829c.022.311.017.625.012.986,0,.171,0,.353,0,.553v.226h2.636V61.578c-.02-3.387-1.757-5.1-5.164-5.106H48.146l0-.99c0-.694-.005-1.349.017-2a.832.832,0,0,1,.488-.714c1.3-.305,1.739-1.34,2.137-2.559a1.865,1.865,0,0,1,1.475-1.421,2.571,2.571,0,0,0,.844-.346,2.2,2.2,0,0,1,2.292-.048c2.133.98,2.662.881,4.35-.8,1.889-1.883,2.386-2.378,1.029-5.171a1.612,1.612,0,0,1-.111-1.129c.551-1.618,1.21-3.105,3.2-3.537A2.072,2.072,0,0,0,65.323,35.6c.023-.883.015-1.776.009-2.564A2.241,2.241,0,0,0,63.694,30.7a3.791,3.791,0,0,1-2.736-2.668,2.951,2.951,0,0,1,0-2.41c.942-2.059.857-2.531-.754-4.2-2.344-2.433-2.783-2.23-5.223-1.107a1.31,1.31,0,0,1-1.05.152c-.236-.106-.479-.2-.721-.3-1.251-.5-2.545-1.014-2.857-2.837a1.976,1.976,0,0,0-2.074-1.547c-.876-.029-1.8-.034-2.827-.01a2.19,2.19,0,0,0-2.23,1.662,3.737,3.737,0,0,1-2.6,2.683,3.1,3.1,0,0,1-2.57-.041c-1.913-.884-2.43-.79-3.972.706-2.217,2.152-2.546,2.591-1.193,5.445a1.645,1.645,0,0,1,.039,1.113c-.493,1.551-1.226,3.047-3.246,3.492a1.93,1.93,0,0,0-1.366,2.027c-.022.571-.021,1.144-.02,1.715q0,.425,0,.849a2.308,2.308,0,0,0,1.725,2.467,3.573,3.573,0,0,1,2.618,2.544,3.091,3.091,0,0,1,0,2.582c-.9,1.906-.8,2.473.727,4.05.1.107.214.212.322.316.16.153.318.3.465.467a2.842,2.842,0,0,0,3.822.684l.158-.086c.478-.265,1.023-.563,1.406-.38a7.52,7.52,0,0,0,.987.368c1.044.337,2.226.719,2.545,2.289a2.435,2.435,0,0,0,1.822,2,.837.837,0,0,1,.572.649c.027.7.024,1.4.02,2.13l0,.974-5.143,0q-4.471,0-8.941.006a4.5,4.5,0,0,0-4.726,4.712c0,.287,0,.574,0,.882v.654h2.743ZM45.415,49.483c-.454-1.859-1.646-2.68-3.421-3.4-1.941-.788-3.379-1.044-4.985-.032-.666.425-1.082-.081-1.33-.38a2.289,2.289,0,0,0-.225-.248l-.061-.051c-.3-.253-.791-.676-.342-1.345a3.86,3.86,0,0,0-.1-4.8.425.425,0,0,1-.084-.195A3.729,3.729,0,0,0,31.644,35.7c-.8-.184-.765-.828-.741-1.213,0-.071.009-.142.009-.21s-.005-.151-.011-.23c-.026-.388-.07-1.038.726-1.2,1.952-.394,2.674-1.761,3.414-3.506.762-1.792,1.032-3.223.031-4.82a1.111,1.111,0,0,1,.161-1.124c.316-.537.876-1.068,1.349-1.068h.033l.084.019c.177.075.357.148.537.22.411.165.836.336,1.241.546a2.05,2.05,0,0,0,2.109-.075,16.52,16.52,0,0,1,2.742-1.133,1.905,1.905,0,0,0,1.445-1.3,6.889,6.889,0,0,1,.279-.725c.046-.106.092-.212.134-.319A1.673,1.673,0,0,1,47.5,18.375a1.275,1.275,0,0,1,.6.421,1.186,1.186,0,0,1,.237.53,3.346,3.346,0,0,0,2.951,2.9,2.71,2.71,0,0,1,1.2.516,2.679,2.679,0,0,0,3.368.057,1.838,1.838,0,0,1,1.4-.35,1.893,1.893,0,0,1,1.148.934,1.25,1.25,0,0,1,.153,1.117c-.994,1.6-.729,3.038.019,4.83.81,1.936,1.641,3.142,3.5,3.579.427.1.63.93.622,1.261-.006.26-.131,1.334-.61,1.444a4.281,4.281,0,0,0-3.458,3.742.671.671,0,0,1-.128.274,3.3,3.3,0,0,0-.035,4.125c.5.8.114,1.305-.365,1.79a1.3,1.3,0,0,1-1.806.379,1.221,1.221,0,0,0-.248-.11,1.781,1.781,0,0,1-.33-.147,2.691,2.691,0,0,0-3.155.08,7.366,7.366,0,0,1-2.194.879,1.929,1.929,0,0,0-1.548,1.405,5.147,5.147,0,0,1-.233.611c-.038.087-.075.175-.11.264-.391.976-.778,1.364-1.534,1.364a3.919,3.919,0,0,1-.809-.1,1.075,1.075,0,0,1-.72-.686"/>
      <path id="Path_11449" data-name="Path 11449" d="M7.6,18.307h0c.818,0,1.294-.55,1.3-1.51.008-.812.007-1.627.005-2.439,0-.534,0-1.069,0-1.6.009-2.479,1.363-3.844,3.814-3.844q24.489-.008,48.979,0c.169,0,.339.014.561.035.117.01.25.023.406.035l.631.047-1.806,1.449c-1.006.806-1.959,1.568-2.9,2.35a1.306,1.306,0,0,0,.6,2.351,1.366,1.366,0,0,0,1-.3c2.906-2.288,5.461-4.334,7.811-6.257a1.337,1.337,0,0,0,.529-1.036,1.26,1.26,0,0,0-.492-.98C65.492,4.52,62.837,2.4,60.158.3A1.271,1.271,0,0,0,59.146.016a1.3,1.3,0,0,0-.872.594,1.34,1.34,0,0,0,.411,1.859c.92.747,1.848,1.485,2.851,2.285l1.908,1.521-49.219,0c-.279,0-.559,0-.837,0-.389,0-.777,0-1.166.015A6.028,6.028,0,0,0,6.287,12.2c-.042,1.526-.024,3.082-.006,4.585.01.951.5,1.518,1.317,1.52"/>
      <path id="Path_11450" data-name="Path 11450" d="M16.821,84.742c-.838-.01-1.679-.008-2.518-.006-.476,0-.951,0-1.43,0-2.628,0-3.962-1.341-3.963-3.974V30.309l.736.826c.161.178.278.306.386.442q.467.579.93,1.163c.614.772,1.248,1.569,1.893,2.333a1.3,1.3,0,1,0,2.052-1.6c-2.26-2.879-4.3-5.435-6.25-7.815a1.31,1.31,0,0,0-2.091-.016c-1.958,2.4-3.914,4.862-5.805,7.245l-.45.568a1.2,1.2,0,0,0-.037,1.571,1.168,1.168,0,0,0,1.414.477,2.248,2.248,0,0,0,.879-.69c.755-.906,1.49-1.828,2.293-2.834l1.416-1.769v44.3q0,1.021-.006,2.043c-.006,1.588-.012,3.231.018,4.843A5.791,5.791,0,0,0,11.3,87.219a29.719,29.719,0,0,0,4.243.152c.438-.005.879-.013,1.313-.01h.005a1.493,1.493,0,0,0,1.1-.4,1.286,1.286,0,0,0,.336-.968c-.027-.793-.553-1.236-1.482-1.247"/>
      <path id="Path_11451" data-name="Path 11451" d="M55.956,33.989a9.127,9.127,0,0,0-9.236-8.867,9.142,9.142,0,0,0-9.044,9.432,8.943,8.943,0,0,0,2.8,6.318,9.135,9.135,0,0,0,15.477-6.883M46.8,40.805a6.551,6.551,0,0,1-6.5-6.522,6.446,6.446,0,0,1,6.475-6.52h.047a6.48,6.48,0,0,1,6.5,6.452A6.539,6.539,0,0,1,51.4,38.9a6.427,6.427,0,0,1-4.573,1.9Z"/>
      <path id="Path_11452" data-name="Path 11452" d="M26.421,62.748c-.353,0-.694,0-1.026-.006-.7-.005-1.362-.011-2.02.012a2.863,2.863,0,0,0-2.962,3.041c-.015,1.96-.012,3.92,0,5.88a2.871,2.871,0,0,0,3.041,3.137c2.976.037,6.035.037,9.092,0a2.833,2.833,0,0,0,3.024-3.055c.017-1.772.011-3.544,0-5.315v-.38c-.007-2.219-1.095-3.3-3.325-3.316-.606,0-1.213,0-1.814,0H29.418l0-.021H26.671v.024Zm6.457,9.373h-9.8v-6.67h9.8Z" fill="#ffca0a"/>
      <path id="Path_11453" data-name="Path 11453" d="M45.413,62.746h-1.12c-.607,0-1.187,0-1.768,0-2.153.016-3.3,1.144-3.312,3.264-.014,2.009-.014,3.842,0,5.6a2.938,2.938,0,0,0,3.182,3.2c2.812.024,5.7.023,8.818,0a2.941,2.941,0,0,0,3.208-3.18c.02-1.843.02-3.758,0-5.693a2.954,2.954,0,0,0-3.2-3.2c-.618-.009-1.242-.006-1.87,0l-1.131,0v-.022h-2.81Zm5.6,2.663a.9.9,0,0,1,.745.7c.027,1.495.026,2.968.024,4.528V72.13H41.857V70.665c0-1.575,0-3.065.024-4.586.006-.308.472-.668.771-.671,2.79-.027,5.6-.028,8.362,0" fill="#ffca0a"/>
      <path id="Path_11454" data-name="Path 11454" d="M64.329,62.747h-.25c-.348,0-.685,0-1.013-.005s-.619,0-.921,0c-.368,0-.73,0-1.093.014a2.858,2.858,0,0,0-2.983,3.013c-.019,1.8-.019,3.694,0,5.969a2.831,2.831,0,0,0,3,3.077c2.872.039,5.844.037,9.092,0A2.872,2.872,0,0,0,73.225,71.7c.011-1.9.007-3.8,0-5.7a2.943,2.943,0,0,0-3.211-3.255c-.621-.007-1.241-.006-1.887,0l-1.164,0v-.021H64.329Zm6.225,9.375H60.739V65.455h9.815Z" fill="#ffca0a"/>
    </g>
  </g>
</svg>
