<svg xmlns="http://www.w3.org/2000/svg" xmlns:xlink="http://www.w3.org/1999/xlink" width="94.484" height="94.475" viewBox="0 0 94.484 94.475">
  <defs>
    <clipPath id="clip-path">
      <rect id="Rectangle_3020" data-name="Rectangle 3020" width="94.484" height="94.475" fill="none"/>
    </clipPath>
  </defs>
  <g id="Group_4455" data-name="Group 4455" transform="translate(0 0)">
    <g id="Group_4455-2" data-name="Group 4455" transform="translate(0 0)" clip-path="url(#clip-path)">
      <path id="Path_11330" data-name="Path 11330" d="M1.219,59.846a6.507,6.507,0,0,0,4.919,2.875,7.42,7.42,0,0,0,5.894-2.479L41.939,28.31l.184.141a3.455,3.455,0,0,0,4.74-.14l.181-.145.163.167c.247.255.486.509.723.759.488.517.95,1.006,1.441,1.473a31.829,31.829,0,0,1,8.7,14.264c.691,2.35,1.484,4.806,2.358,7.3a1.724,1.724,0,0,0,.957.894,1.35,1.35,0,0,0,.893-.446,1.589,1.589,0,0,0,.232-.959l.045-1.284c.085-2.4.173-4.886.192-7.328a31.183,31.183,0,0,0-4.631-16.781c-.754-1.231-1.635-2.423-2.487-3.574-.4-.539-.8-1.08-1.188-1.627l-.109-.156.115-.149c1.456-1.9,1.553-3.459.3-4.763-2.382-2.476-4.975-5.071-7.925-7.932A3.173,3.173,0,0,0,42.566,7.9q-.2.153-.391.312l-.4.317L41.493,8.3c-.081-.064-.148-.117-.212-.174A31.683,31.683,0,0,0,27.143.828c-1.085-.249-2.211-.423-3.3-.591-.5-.077-.99-.152-1.486-.236H16.444c-.141.014-.307.034-.473.052-.357.043-.716.084-1.075.1-.633.025-1.266.04-1.9.056-.757.018-1.514.038-2.271.071a.981.981,0,0,0-1.03.9.981.981,0,0,0,.769,1.132c.231.08.464.155.7.228.3.1.594.191.889.3,1.166.413,2.34.808,3.515,1.2,2.674.9,5.438,1.832,8.069,2.965,4.164,1.794,7.2,4.844,10.747,8.644l.153.164-.142.173a3.408,3.408,0,0,0-.1,4.656l.134.18-.386.375c-.139.135-.271.263-.405.389L11.051,42.716q-4.39,4.1-8.766,8.211a6.752,6.752,0,0,0-1.066,8.918M60.561,43.9l-.05,1.607-.451-1.543c-1.83-6.274-5.551-11.815-11.376-16.94l-.2-.18L52.8,22.524l.18.206A29.611,29.611,0,0,1,60.561,43.9M43.6,9.8a2.82,2.82,0,0,1,.6-.417c.1-.055.194-.112.292-.175l.137-.089.138.087c.1.063.2.12.295.172a2.523,2.523,0,0,1,.562.384q2.226,2.206,4.44,4.424,1.455,1.453,2.91,2.906a1.465,1.465,0,0,1,.512,1.032,1.442,1.442,0,0,1-.5,1.008q-3.806,3.8-7.6,7.6a1.415,1.415,0,0,1-.993.485,1.492,1.492,0,0,1-1.048-.522q-3.631-3.644-7.279-7.269a1.513,1.513,0,0,1-.54-1.063,1.48,1.48,0,0,1,.525-1.042q1.866-1.851,3.725-3.713Q41.688,11.7,43.6,9.8m-24.936-7-.877-.233.87-.258C23.642.829,35.425,5,40.021,9.868l.171.181L35.951,14.3l-.181-.2C30.4,8.071,24.965,4.48,18.667,2.8M3.531,52.642c1.7-1.635,3.446-3.266,5.139-4.844l1.683-1.572Q22.666,34.7,34.984,23.176c.168-.157.341-.308.521-.465l.435-.382,4.444,4.441-.232.315a3.2,3.2,0,0,1-.275.357L27.756,40.39q-8.7,9.29-17.394,18.583a4.75,4.75,0,0,1-3.524,1.68,4.794,4.794,0,0,1-.953-.1A4.472,4.472,0,0,1,2.3,57.314a4.383,4.383,0,0,1,1.23-4.672" transform="translate(0 0)" fill="#ffca0a"/>
      <path id="Path_11331" data-name="Path 11331" d="M43.807,64.832q-1.756,2.671-3.5,5.347a1.642,1.642,0,0,1-1.536.837h-.019q-3.235-.017-6.47-.009c-2.924,0-5.949,0-8.924-.028h-.041a1.873,1.873,0,0,0-1.9,1.193q-3.588,6.937-7.22,13.852L11.383,91.41a8.041,8.041,0,0,0-.381.781,1.021,1.021,0,0,0,.876,1.473,4.629,4.629,0,0,0,.577.015l.226,0H27.45q32.491,0,64.98.015h.008a2.271,2.271,0,0,0,1.792-.6V34.473c-.65-.882-.863-.927-1.9-.48L87.7,36c-3.519,1.53-7.159,3.111-10.75,4.639a4.206,4.206,0,0,0-1.91,1.574q-2.144,3.1-4.309,6.2-2.664,3.82-5.311,7.654a2.206,2.206,0,0,1-2.031,1.109h-.046c-2.5-.029-5.044-.029-7.5-.027q-2.881.006-5.763-.01a1.987,1.987,0,0,0-1.921,1.019c-1.44,2.234-2.9,4.454-4.358,6.675M49.39,60.1a1.724,1.724,0,0,1,1.618-.876h.02c4.543.03,9.086,0,13.63.03h.019a1.827,1.827,0,0,0,1.686-.9c3.314-4.8,6.777-9.757,10.292-14.743A3.4,3.4,0,0,1,78,42.5c3.347-1.477,6.759-2.95,10.062-4.376l4.028-1.731V91.566h-78.4l.341-.69c.092-.189.176-.362.265-.532l2.117-4.052q3.209-6.138,6.4-12.287a1.514,1.514,0,0,1,1.554-.935h.021c5.1.032,10.2,0,15.3.034h.025a1.915,1.915,0,0,0,1.816-.985q2.011-3.1,4.047-6.193,1.912-2.91,3.812-5.828" transform="translate(0.253 0.783)"/>
      <path id="Path_11332" data-name="Path 11332" d="M49,52.3c1.689.069,3.38.139,5.069.184a1.215,1.215,0,0,0,.85-.3.943.943,0,0,0,.266-.719.971.971,0,0,0-1.046-1.042l-.371-.016c-4.575-.193-9.305-.395-13.958-.521a1.6,1.6,0,0,0-1.072.655.746.746,0,0,0-.03.786,1.369,1.369,0,0,0,1.207.6c1.669.019,3.336.015,5,.012l2.28,0v.293Z" transform="translate(0.897 1.159)"/>
      <path id="Path_11333" data-name="Path 11333" d="M76.942,29.364a.787.787,0,0,0-.378-.105,1.272,1.272,0,0,0-.92.569q-2.055,2.436-4.12,4.864-2.4,2.836-4.8,5.675a1.463,1.463,0,0,0-.419,1.039.93.93,0,0,0,.357.643c.5.418,1.1.292,1.65-.352q4.45-5.222,8.87-10.462a3.748,3.748,0,0,0,.4-.649c.055-.1.113-.211.178-.325-.069-.085-.134-.172-.2-.259a2.223,2.223,0,0,0-.618-.637" transform="translate(1.54 0.68)"/>
      <path id="Path_11334" data-name="Path 11334" d="M66.367,24.459c-.4,2.025-.769,4.055-1.131,6.022l-.383,2.08c-.016,1.013.41,1.221.831,1.291a.939.939,0,0,0,1.176-.768c.082-.3.138-.617.191-.924l.359-1.987c.318-1.754.637-3.507.933-5.262a.925.925,0,0,0-.814-1.2.906.906,0,0,0-1.162.748" transform="translate(1.507 0.55)"/>
      <path id="Path_11335" data-name="Path 11335" d="M43.578,42.519c2.636,1.32,4.975,2.449,7.15,3.447a.9.9,0,0,0,.873-.026,1.351,1.351,0,0,0,.555-1.095c-.029-.043-.058-.091-.09-.145a1.517,1.517,0,0,0-.49-.58c-2.391-1.206-4.81-2.351-7.067-3.408a1.116,1.116,0,0,0-.477-.117.918.918,0,0,0-.823.589.9.9,0,0,0,.369,1.334" transform="translate(1 0.943)"/>
      <path id="Path_11336" data-name="Path 11336" d="M59.3,68.613a34.38,34.38,0,0,0-2.629-2.595,4.906,4.906,0,0,0-1.187-.659c-.188-.084-.381-.17-.576-.266-.186.1-.375.185-.559.271a5.508,5.508,0,0,0-1.23.707,31.363,31.363,0,0,0-2.4,2.356l-.213.225a2.486,2.486,0,0,0,.019,3.628c.792.831,1.647,1.686,2.543,2.543a2.5,2.5,0,0,0,3.7.006c.881-.841,1.736-1.7,2.544-2.544a2.487,2.487,0,0,0,.033-3.623Zm-4.46,4.843-2.981-2.978,3.118-3.148,3.076,3.059Z" transform="translate(1.155 1.512)"/>
      <path id="Path_11337" data-name="Path 11337" d="M78.835,74.937a28.938,28.938,0,0,0-2.278-2.232A5.471,5.471,0,0,0,75.317,72c-.193-.089-.394-.183-.6-.287-.2.105-.4.2-.593.3a6.257,6.257,0,0,0-1.285.748,25.866,25.866,0,0,0-2.029,1.976l-.457.477a2.512,2.512,0,0,0-.009,3.7c.891.926,1.724,1.759,2.548,2.549a2.469,2.469,0,0,0,3.567.073c.871-.8,1.746-1.67,2.676-2.668a2.482,2.482,0,0,0-.031-3.637Zm-4.158,5.181L71.65,77.091l3.1-3.022,3.031,3.039Z" transform="translate(1.615 1.666)"/>
      <path id="Path_11338" data-name="Path 11338" d="M78.657,54.1h-.029a4.55,4.55,0,0,0-2.7,1.509,4.728,4.728,0,0,0-1.605,2.815c.009,1.537,2.643,4.217,4.2,4.28a4.4,4.4,0,0,0,2.786-1.508,4.644,4.644,0,0,0,1.6-2.856c-.037-1.513-2.745-4.209-4.261-4.24m-.044,6.636-2.253-2.4L78.6,56.1l2.345,2.293Z" transform="translate(1.727 1.257)"/>
      <path id="Path_11339" data-name="Path 11339" d="M34.81,77.215H34.8c-1.6,0-4.3,2.639-4.322,4.227A4.657,4.657,0,0,0,32.032,84.2,4.714,4.714,0,0,0,34.8,85.79h.01c1.55-.013,4.265-2.747,4.269-4.3.007-1.626-2.624-4.262-4.265-4.273M34.7,83.643l-2.117-2.234,2.309-2.169,2.172,2.331Z" transform="translate(0.708 1.794)"/>
    </g>
  </g>
</svg>
