<svg xmlns="http://www.w3.org/2000/svg" xmlns:xlink="http://www.w3.org/1999/xlink" width="91.569" height="91.585" viewBox="0 0 91.569 91.585">
  <defs>
    <clipPath id="clip-path">
      <rect id="Rectangle_3036" data-name="Rectangle 3036" width="91.569" height="91.585" transform="translate(0 0)" fill="none"/>
    </clipPath>
  </defs>
  <g id="Group_4468" data-name="Group 4468" transform="translate(0 0)">
    <g id="Group_4468-2" data-name="Group 4468" clip-path="url(#clip-path)">
      <path id="Path_11455" data-name="Path 11455" d="M38.56,62.43h-.023a1.43,1.43,0,0,0-1.4,1.406,1.439,1.439,0,0,0,1.42,1.434h.022a1.449,1.449,0,0,0,1.4-1.407A1.438,1.438,0,0,0,38.56,62.43" fill="#ffca0a"/>
      <path id="Path_11456" data-name="Path 11456" d="M45.7,65.268a1.366,1.366,0,0,0,1.026-.382,1.425,1.425,0,0,0,.463-1,1.445,1.445,0,0,0-1.351-1.452c-.024,0-.048,0-.072,0a1.438,1.438,0,0,0-1.418,1.386A1.452,1.452,0,0,0,45.7,65.268" fill="#ffca0a"/>
      <path id="Path_11457" data-name="Path 11457" d="M52.945,62.43a1.43,1.43,0,0,0-1.39,1.415,1.439,1.439,0,0,0,1.42,1.425h.032a1.428,1.428,0,0,0,1-.459,1.4,1.4,0,0,0,.385-1.027,1.443,1.443,0,0,0-1.45-1.354" fill="#ffca0a"/>
      <path id="Path_11458" data-name="Path 11458" d="M66.134,64.771h0a1.448,1.448,0,0,0-1.421,1.383,1.441,1.441,0,0,0,1.419,1.458h0a1.448,1.448,0,0,0,1.419-1.384,1.437,1.437,0,0,0-1.419-1.457"/>
      <path id="Path_11459" data-name="Path 11459" d="M43.972,45.759a1.8,1.8,0,1,1,1.769,1.866,1.815,1.815,0,0,1-1.769-1.866"/>
      <path id="Path_11460" data-name="Path 11460" d="M15.5,46.063a35.656,35.656,0,0,0,.368,4.169c1.88,11.2,8.054,19.107,18.35,23.5,8.333,3.557,16.894,3.211,25.451-1.023a2.536,2.536,0,0,0,1.4-1.286,1.25,1.25,0,0,0-.147-1c-.286-.526-.863-1.126-2.544-.259A27.487,27.487,0,0,1,18.409,43.726H15.357l.025.333c.05.67.083,1.338.116,2"/>
      <path id="Path_11461" data-name="Path 11461" d="M70.057,58.556a3.247,3.247,0,0,0-.412,1.342,1.232,1.232,0,0,0,1.08,1.213,1.29,1.29,0,0,0,1.583-.773l.555-1.343c.8-1.918,1.621-3.9,2.243-5.9a24.5,24.5,0,0,0,.92-7.987c0-.221,0-.442,0-.678v-.7H73.117a28.973,28.973,0,0,1-3.06,14.829"/>
      <path id="Path_11462" data-name="Path 11462" d="M91.475,43.727A42.17,42.17,0,0,0,87.435,27.4C80.227,12.573,68.629,3.6,52.963.716,42.374-1.231,32.121.8,22.5,6.749A46.216,46.216,0,0,0,1.185,35.874a40.346,40.346,0,0,0-.731,4.305c-.092.685-.183,1.37-.29,2.05-.034.221-.073.443-.111.664l-.053.3v.536H2.928v-.015H15.355v.015h3.053A27.452,27.452,0,0,1,62.421,24.066c.234.178.462.363.716.571l.808.654L59.026,28.9q-5.385,3.953-10.787,7.88a2.521,2.521,0,0,1-1.629.427,8.7,8.7,0,0,0-9.193,6.52,9.353,9.353,0,0,0-.241,1.174,8.717,8.717,0,0,0,7.569,9.5,8.586,8.586,0,0,0,9.5-7.107,7.111,7.111,0,0,0,.106-2.12,2.323,2.323,0,0,1,.232-1.451,4.1,4.1,0,0,1,.378-.622q3.909-5.295,7.8-10.609l2.651-3.617c.116-.158.236-.312.379-.495l.537-.7.607.745c.219.264.426.515.615.778a28.56,28.56,0,0,1,5.569,14.515h2.908V43.7H88.6v.024ZM57.793,34.339l-.315.479c-.108.167-.216.335-.334.5L55.84,37.1c-1.318,1.806-2.635,3.612-3.979,5.4a2.444,2.444,0,0,0-.508,1.229,2.754,2.754,0,0,0,.042.9,5.759,5.759,0,0,1-4.961,6.95,5.445,5.445,0,0,1-.674.042,5.827,5.827,0,0,1-5.769-5.582,6,6,0,0,1,.4-2.31,5.891,5.891,0,0,1,1.555-2.294,5.1,5.1,0,0,1,4.179-1.292,5.161,5.161,0,0,0,4.27-1.347c1.4-1.088,2.855-2.141,4.264-3.159.564-.407,1.129-.815,1.69-1.225.148-.108.3-.2.455-.3l5.242-4.36Zm17.865,6.4-.057-.308a30.234,30.234,0,0,0-29.83-24.86l-.306,0A30.483,30.483,0,0,0,15.932,40.464l-.056.305H3.195l.057-.425A41.4,41.4,0,0,1,7.923,26.107l.18-.337,1.067.6c.5.278.989.551,1.473.829.439.251.875.507,1.312.762.521.305,1.043.61,1.568.908.969.553,1.788.43,2.242-.333a1.3,1.3,0,0,0,.18-1.01,1.906,1.906,0,0,0-.955-1.1c-.906-.536-1.818-1.06-2.73-1.583l-1.474-.85c-.167-.1-.331-.2-.52-.315l-.672-.413.212-.324A44.9,44.9,0,0,1,22.887,9.873l.333-.22L24.3,11.507c.709,1.22,1.4,2.412,2.088,3.607a1.449,1.449,0,0,0,1.6.9,1.353,1.353,0,0,0,1.032-.743,1.537,1.537,0,0,0-.078-1.416c-.547-1.005-1.124-1.994-1.7-2.983-.267-.46-.536-.92-.8-1.382-.111-.192-.218-.389-.325-.583l-.3-.539.228-.2C28.646,5.888,38.36,3.09,43.959,3L44.34,3l0,2.912c0,1.239,0,2.479.008,3.719a1.439,1.439,0,0,0,1.419,1.583h0a1.449,1.449,0,0,0,1.42-1.578c.013-1.462.011-2.925.008-4.418l0-2.253.394.018A41.569,41.569,0,0,1,65.507,8.009l.341.184-2.759,4.781c-.2.332-.4.664-.559,1.011a1.39,1.39,0,0,0,.552,1.857A1.364,1.364,0,0,0,65,15.337c.616-1.005,1.2-2.031,1.789-3.055.276-.483.554-.967.833-1.448.1-.169.2-.335.324-.522l.4-.632.321.21A45.022,45.022,0,0,1,81.739,22.946l.219.331-3.773,2.192c-.546.313-1.091.625-1.633.945a1.914,1.914,0,0,0-.962,1.1,1.294,1.294,0,0,0,.174,1.007c.456.77,1.272.9,2.238.347,1.163-.663,2.322-1.334,3.514-2.025l1.9-1.1.184.339a41.575,41.575,0,0,1,4.691,14.219l.06.428Z"/>
      <path id="Path_11463" data-name="Path 11463" d="M2.07,50.88c1.448-.046,2.906-.036,4.317-.026.583,0,1.162.007,1.734.007h.287l2.509,9.269-4.7,2.732c-1.275.742-1.432,1.325-.7,2.6,1.06,1.846,2.12,3.691,3.2,5.529a1.513,1.513,0,0,0,2.43.634c1.139-.646,2.273-1.3,3.245-1.864l1.255-.726,6.924,6.907-2.417,4.2a2.476,2.476,0,0,0-.51,1.71c.1.389.5.762,1.275,1.211l2.236,1.291q1.53.885,3.064,1.766c1.176.672,1.8.5,2.483-.664.622-1.064,1.238-2.134,1.845-3.185l.927-1.6,9.271,2.521v.287c0,.551,0,1.115.008,1.688.01,1.419.02,2.886-.028,4.359a2.032,2.032,0,0,0,1,2.062h8.094a2.032,2.032,0,0,0,1-2.062c-.048-1.453-.037-2.913-.027-4.325,0-.582.008-1.159.008-1.729v-.287l9.272-2.508.854,1.476c.606,1.045,1.238,2.137,1.873,3.227.74,1.274,1.324,1.432,2.6.7,1.847-1.058,3.693-2.117,5.529-3.193a1.514,1.514,0,0,0,.639-2.43c-.644-1.135-1.3-2.264-1.862-3.24l-.738-1.275,6.919-6.911L80,71.4c1.639.944,2.125.819,3.052-.792l.7-1.211c.771-1.336,1.544-2.671,2.308-4.01.673-1.182.509-1.81-.654-2.488-1.125-.657-2.254-1.306-3.34-1.931l-1.455-.838,2.5-9.225.405-.021c.162-.01.385-.024.608-.024h2.013c1.279,0,2.559,0,3.837-.01a1.419,1.419,0,0,0,1.542-1.476c.077-1.951.055-3.829-.048-5.651H88.594v4.281h-6.37c-1.54,0-1.868.293-2.066,1.841a35.9,35.9,0,0,1-2.675,9.787c-.554,1.269-.383,1.758.871,2.485l4.717,2.738L80.9,68.614l-1.416-.808c-.794-.45-1.577-.895-2.347-1.359-2.21-1.332-2.547-1.535-4.215.745a30.8,30.8,0,0,1-6.566,6.414c-1.13.841-1.242,1.374-.548,2.585.669,1.167,1.342,2.332,2.041,3.543l.7,1.221L64.8,83.134,62.063,78.41c-.728-1.253-1.218-1.426-2.488-.868a35.227,35.227,0,0,1-10.153,2.712,1.452,1.452,0,0,0-1.474,1.67c-.008,1.466-.007,2.931-.005,4.418l0,2.322H43.59V82.572c0-.268.006-.538-.006-.805a1.423,1.423,0,0,0-1.374-1.5A36.248,36.248,0,0,1,31.8,77.481c-1.068-.46-1.63-.27-2.238.765-.616,1.054-1.224,2.112-1.844,3.186l-.977,1.7-3.73-2.145.324-.614c.106-.205.207-.4.315-.587l.8-1.381c.486-.834.972-1.669,1.441-2.514a1.391,1.391,0,0,0-.29-1.94A38.062,38.062,0,0,1,17.653,66c-.481-.651-1.159-.739-2.012-.259-1.066.6-2.126,1.214-3.217,1.846L10.636,68.62,8.46,64.86l1.581-.914c1.056-.611,2.1-1.212,3.137-1.817,1.276-.741,1.433-1.222.841-2.573a35.115,35.115,0,0,1-2.671-9.977c-.135-1.154-.6-1.565-1.767-1.569-1.445-.006-2.89,0-4.357,0h-2.3V43.727H0l.006,6.15a2.03,2.03,0,0,0,2.064,1" fill="#ffca0a"/>
    </g>
  </g>
</svg>
