<svg xmlns="http://www.w3.org/2000/svg" xmlns:xlink="http://www.w3.org/1999/xlink" width="90.411" height="90.462" viewBox="0 0 90.411 90.462">
  <defs>
    <clipPath id="clip-path">
      <rect id="Rectangle_3030" data-name="Rectangle 3030" width="90.411" height="90.462" transform="translate(0 0)" fill="none"/>
    </clipPath>
  </defs>
  <g id="Group_4457" data-name="Group 4457" transform="translate(0 0)">
    <path id="Path_11363" data-name="Path 11363" d="M58.774,76.408H52.251v-12.4h6.523ZM53,75.658h5.023v-10.9H53Z" fill="#fff"/>
    <path id="Path_11364" data-name="Path 11364" d="M49.962,76.427H43.444V64.015h6.518Zm-5.768-.75h5.018V64.765H44.194Z" fill="#fff"/>
    <path id="Path_11365" data-name="Path 11365" d="M79.4,76.433H67V64.026H79.4Zm-11.646-.75h10.9V64.776h-10.9Z" fill="#fff"/>
    <path id="Path_11366" data-name="Path 11366" d="M41.124,76.41H34.6V64.01h6.524Zm-5.775-.75h5.024V64.76H35.349Z" fill="#fff"/>
    <path id="Path_11367" data-name="Path 11367" d="M76.429,55.867H64.03V40.488h12.4Zm-11.649-.75h10.9V41.238H64.78Z" fill="#fff"/>
    <path id="Path_11368" data-name="Path 11368" d="M73.5,38.223H66.989V31.7H73.5Zm-5.766-.75h5.016v-5.02H67.739Z" fill="#fff"/>
    <path id="Path_11369" data-name="Path 11369" d="M82.311,55.857h-3.6V38.281H75.767V29.438H72.876V2.252h9.435Zm-2.852-.75h2.1V3H73.626V28.688h2.891v8.843h2.942Z" fill="#fff"/>
    <path id="Path_11370" data-name="Path 11370" d="M35.216,35.242H8.136V31.679h27.08Zm-26.33-.75h25.58V32.429H8.886Z" fill="#fff"/>
    <g id="Group_4458" data-name="Group 4458">
      <g id="Group_4457-2" data-name="Group 4457" clip-path="url(#clip-path)">
        <path id="Path_11371" data-name="Path 11371" d="M35.293,29.37H8.094l-.005-1.826c-.009-1.391-.018-2.828.05-4.239.026-.545.712-1.107,1.193-1.269.35-.118.7-.239,1.05-.361a26.535,26.535,0,0,1,4.432-1.263,39.233,39.233,0,0,1,16.561.6,17.348,17.348,0,0,1,3.1,1.257,1.573,1.573,0,0,1,.8,1.2c.041,1.351.035,2.682.03,4.091Zm-26.45-.75h25.7l0-1.064c0-1.4.01-2.728-.03-4.066a.88.88,0,0,0-.371-.55,16.955,16.955,0,0,0-2.961-1.208,38.558,38.558,0,0,0-16.25-.58,25.955,25.955,0,0,0-4.305,1.231q-.529.185-1.057.364a1.291,1.291,0,0,0-.684.6c-.067,1.387-.058,2.815-.049,4.195Z" fill="#fff"/>
        <path id="Path_11372" data-name="Path 11372" d="M32.4,55.86H28.734V46.38h27.11v9.471H52.217V50.1H44.143v5.758H40.471V50.093H32.4Zm-2.914-.75h2.164V49.343h9.573v5.763h2.172V49.348h9.574V55.1h2.127V47.13H29.484Z" fill="#fff"/>
        <path id="Path_11373" data-name="Path 11373" d="M38.187,55.846H34.6V52.219h3.584Zm-2.834-.75h2.084V52.969H35.353Z" fill="#fff"/>
        <path id="Path_11374" data-name="Path 11374" d="M52.891,44.1H43.452V16.951h9.439Zm-8.689-.75h7.939V17.7H44.2Z" fill="#fff"/>
        <path id="Path_11375" data-name="Path 11375" d="M49.95,55.841H46.356V52.25H49.95Zm-2.844-.75H49.2V53H47.106Z" fill="#fff"/>
        <path id="Path_11376" data-name="Path 11376" d="M55.854,14.668H40.475V11.076H55.854Zm-14.629-.75H55.1V11.826H41.225Z" fill="#fff"/>
        <path id="Path_11377" data-name="Path 11377" d="M13.651,82.313a6.157,6.157,0,0,1-5.537-5.534.621.621,0,0,0-.187-.283c-.516-.025-1.122-.021-1.708-.013l-.28,0A8.1,8.1,0,0,0,8.62,82.274a7.517,7.517,0,0,0,5.349,2.234l0-.3c0-.519-.009-1.043.012-1.566.01-.252.011-.285-.328-.33" fill="#ffca0a"/>
        <rect id="Rectangle_3022" data-name="Rectangle 3022" width="2.086" height="2.086" transform="translate(76.537 5.928)"/>
        <path id="Path_11378" data-name="Path 11378" d="M76.507,13.781a.526.526,0,0,0,.136.184c.509.013,1.1.008,1.724,0h.272v-2.14H76.486l0,.291c-.005.571-.01,1.117.023,1.662"/>
        <path id="Path_11379" data-name="Path 11379" d="M78.621,19.852V17.669H76.488l0,.311c0,.6-.008,1.173.02,1.743a.672.672,0,0,0,.082.109c.6.029,1.2.024,1.8.021Z"/>
        <rect id="Rectangle_3023" data-name="Rectangle 3023" width="2.08" height="2.103" transform="translate(76.564 23.591)"/>
        <rect id="Rectangle_3024" data-name="Rectangle 3024" width="2.1" height="2.063" transform="translate(47.122 20.647)"/>
        <rect id="Rectangle_3025" data-name="Rectangle 3025" width="2.099" height="2.061" transform="translate(47.126 26.537)"/>
        <rect id="Rectangle_3026" data-name="Rectangle 3026" width="2.116" height="2.011" transform="translate(47.127 32.458)"/>
        <rect id="Rectangle_3027" data-name="Rectangle 3027" width="2.1" height="2.057" transform="translate(47.122 38.302)"/>
        <rect id="Rectangle_3028" data-name="Rectangle 3028" width="2.101" height="2.057" transform="translate(69.188 44.187)"/>
        <rect id="Rectangle_3029" data-name="Rectangle 3029" width="2.121" height="2.055" transform="translate(69.177 50.085)"/>
        <path id="Path_11380" data-name="Path 11380" d="M49.95,55.841H46.356V52.25H49.95Zm-2.844-.75H49.2V53H47.106Z" fill="#fff"/>
        <path id="Path_11381" data-name="Path 11381" d="M52.891,44.1H43.452V16.951h9.439Zm-8.689-.75h7.939V17.7H44.2Z" fill="#fff"/>
        <path id="Path_11382" data-name="Path 11382" d="M55.854,14.668H40.475V11.076H55.854Zm-14.629-.75H55.1V11.826H41.225Z" fill="#fff"/>
        <path id="Path_11383" data-name="Path 11383" d="M32.4,55.86H28.734V46.38h27.11v9.471H52.217V50.1H44.143v5.758H40.471V50.093H32.4Zm-2.914-.75h2.164V49.343h9.573v5.763h2.172V49.348h9.574V55.1h2.127V47.13H29.484Z" fill="#fff"/>
        <path id="Path_11384" data-name="Path 11384" d="M35.216,35.242H8.136V31.679h27.08Zm-26.33-.75h25.58V32.429H8.886Z" fill="#fff"/>
        <path id="Path_11385" data-name="Path 11385" d="M35.293,29.37H8.094l-.005-1.826c-.009-1.391-.018-2.828.05-4.239.026-.545.712-1.107,1.193-1.269.35-.118.7-.239,1.05-.361a26.535,26.535,0,0,1,4.432-1.263,39.233,39.233,0,0,1,16.561.6,17.348,17.348,0,0,1,3.1,1.257,1.573,1.573,0,0,1,.8,1.2c.041,1.351.035,2.682.03,4.091Zm-26.45-.75h25.7l0-1.064c0-1.4.01-2.728-.03-4.066a.88.88,0,0,0-.371-.55,16.955,16.955,0,0,0-2.961-1.208,38.558,38.558,0,0,0-16.25-.58,25.955,25.955,0,0,0-4.305,1.231q-.529.185-1.057.364a1.291,1.291,0,0,0-.684.6c-.067,1.387-.058,2.815-.049,4.195Z" fill="#fff"/>
        <path id="Path_11386" data-name="Path 11386" d="M38.187,55.846H34.6V52.219h3.584Zm-2.834-.75h2.084V52.969H35.353Z" fill="#fff"/>
        <path id="Path_11387" data-name="Path 11387" d="M49.962,76.427H43.444V64.015h6.518Zm-5.768-.75h5.018V64.765H44.194Z" fill="#fff"/>
        <path id="Path_11388" data-name="Path 11388" d="M58.774,76.408H52.251v-12.4h6.523ZM53,75.658h5.023v-10.9H53Z" fill="#fff"/>
        <path id="Path_11389" data-name="Path 11389" d="M79.4,76.433H67V64.026H79.4Zm-11.646-.75h10.9V64.776h-10.9Z" fill="#fff"/>
        <path id="Path_11390" data-name="Path 11390" d="M82.311,55.857h-3.6V38.281H75.767V29.438H72.876V2.252h9.435Zm-2.852-.75h2.1V3H73.626V28.688h2.891v8.843h2.942Z" fill="#fff"/>
        <path id="Path_11391" data-name="Path 11391" d="M41.124,76.41H34.6V64.01h6.524Zm-5.775-.75h5.024V64.76H35.349Z" fill="#fff"/>
        <path id="Path_11392" data-name="Path 11392" d="M76.429,55.867H64.03V40.488h12.4Zm-11.649-.75h10.9V41.238H64.78Z" fill="#fff"/>
        <path id="Path_11393" data-name="Path 11393" d="M73.5,38.223H66.989V31.7H73.5Zm-5.766-.75h5.016v-5.02H67.739Z" fill="#fff"/>
        <path id="Path_11394" data-name="Path 11394" d="M90.411,90.459V76.489H87.545V55.959H84.58V0h-14c.009.111.016.222.016.333q0,13.936,0,27.873c0,.162-.009.325-.021.522l-.035.669H64.734v8.814h-2.9v17.64H58.1V44.185H55.239V17.224l.208-.1c.2-.1.406-.187.614-.278a4.671,4.671,0,0,0,1.153-.619,4.85,4.85,0,0,0,.991-3.389,4.615,4.615,0,0,0-.941-3.271A3.075,3.075,0,0,0,55.5,8.872c-4.4-.059-9.2-.065-14.685-.02a2.461,2.461,0,0,0-2.545,2.662c-.01.507-.008,1.015-.006,1.522l0,.608c0,2.153.508,2.812,2.581,3.357l.28.074V44.1H37.514l-.006-6.661c-.007-4.429-.015-9.008.029-13.514A3.819,3.819,0,0,0,35.4,20.271a17.97,17.97,0,0,0-6.527-2.063,42.486,42.486,0,0,0-16.737.516,20.23,20.23,0,0,0-4.214,1.621,3.617,3.617,0,0,0-2.062,3.562c.05,12.57.032,25.3.008,37.276l2.315-3.476-.045-.1V37.57h27.1v6.578H26.507V55.915H24.039c-.422,0-.844,0-1.267-.009-.982-.008-2-.019-2.99.027a3.433,3.433,0,0,1-.491-.01c.59.867,1.176,1.753,1.486,2.225h64.5V76.437H81.663V61.867H64.734V76.416H61.092V61.878H32.4V76.432H29.451a20.1,20.1,0,0,1-.244,2.315H88.2v9.43H23.334a14.946,14.946,0,0,1-4.225,2.271q25.591.027,51.18.013ZM40.475,11.077H55.854v3.592H40.475ZM52.891,44.1H43.452V16.951h9.439ZM35.216,35.242H8.136V31.679h27.08ZM8.094,29.371l-.006-1.827c-.008-1.39-.018-2.829.051-4.239.026-.546.712-1.106,1.193-1.269.35-.118.7-.239,1.05-.362a26.627,26.627,0,0,1,4.432-1.262,39.283,39.283,0,0,1,16.561.595,17.427,17.427,0,0,1,3.1,1.258,1.575,1.575,0,0,1,.8,1.2c.041,1.353.035,2.684.03,4.093l0,1.812ZM38.187,55.846H34.6V52.219h3.584Zm11.763-.005H46.356V52.25H49.95Zm5.894.011H52.217V50.1H44.143v5.758H40.471V50.094H32.4v5.767H28.734V46.38h27.11ZM66.989,31.7H73.5v6.52H66.989Zm9.44,24.163H64.03V40.488h12.4Zm5.882-.009h-3.6V38.282H75.767V29.439H72.875V2.252h9.436ZM41.124,76.41H34.6V64.01h6.524Zm8.838.017H43.444V64.015h6.518Zm8.812-.019H52.251v-12.4h6.523Zm20.623.025H67V64.026H79.4Z"/>
        <path id="Path_11395" data-name="Path 11395" d="M17.747,54.386c.026.034.055.074.081.11-.034-.052-.071-.1-.107-.147l.026.037"/>
        <path id="Path_11396" data-name="Path 11396" d="M17.528,54.72l.029-.044-.041.027-.093-.126h0l-.007-.008.607-.441-.017.017.019-.014.116.158Z" fill="#fff"/>
        <path id="Path_11397" data-name="Path 11397" d="M17.9,54.594c.005.008.011.013.016.021-.03-.042-.059-.08-.088-.119.023.034.05.063.072.1"/>
        <path id="Path_11398" data-name="Path 11398" d="M17.613,54.835l-.056-.076.272-.263.3-.223.09.123Z" fill="#fff"/>
        <path id="Path_11399" data-name="Path 11399" d="M11.068,54.776,8.844,58.108,8.817,58.1l-3.469,5.21c-.491.813-1,1.6-1.512,2.382-.863,1.328-1.756,2.7-2.5,4.112a13.078,13.078,0,0,0-.978,2.963c-.114.462-.228.925-.361,1.377v3.509l.15.656c.112.525.224,1.052.362,1.57A14.166,14.166,0,0,0,14.088,90.444H15.4a14,14,0,0,0,8.589-3.8c.552-.539,1.013-1.025,1.4-1.479.2-.23.389-.468.579-.72a15.6,15.6,0,0,0,2.389-5.218l.006-.03a19.008,19.008,0,0,0,.348-3.517l-.046-.495c-.064-.713-.123-1.386-.24-2.06a14.392,14.392,0,0,0-2.344-5.641q-2-2.982-3.987-5.978L20.8,59.563c-.108-.162-.216-.34-.339-.539l-.086-.121c-.018-.028-1.763-2.7-2.762-4.066l-.1-.131.269-.267h0l-.339.171a3.656,3.656,0,0,0-3.989-1.535,3.8,3.8,0,0,0-2.39,1.7m4.894,1.492,2.153,3.215c2.088,3.115,4.176,6.231,6.232,9.367a12.855,12.855,0,0,1,1.606,10.788,12.035,12.035,0,0,1-6.795,7.627,12.32,12.32,0,0,1-4.846,1.011,11.808,11.808,0,0,1-6.6-2.028A12.71,12.71,0,0,1,2.2,75.442a11.836,11.836,0,0,1,2.113-6.586l2.441-3.662Q9.729,60.735,12.7,56.28c.985-1.474,2.278-1.48,3.258-.012" fill="#ffca0a"/>
      </g>
    </g>
  </g>
</svg>
