<svg xmlns="http://www.w3.org/2000/svg" xmlns:xlink="http://www.w3.org/1999/xlink" width="127.137" height="94.899" viewBox="0 0 127.137 94.899">
  <defs>
    <clipPath id="clip-path">
      <rect id="Rectangle_2986" data-name="Rectangle 2986" width="127.137" height="94.899" fill="none"/>
    </clipPath>
  </defs>
  <g id="Group_4433" data-name="Group 4433" transform="translate(0 0)">
    <g id="Group_4433-2" data-name="Group 4433" transform="translate(0 0)" clip-path="url(#clip-path)">
      <path id="Path_11206" data-name="Path 11206" d="M36.267,28.3c-.13-.007-.248-.022-.387-.023h-.205c-2.02-.019-4.108-.035-6.157.013a2.231,2.231,0,0,1-2.133-1.111c-.717-1.127-1.473-2.23-2.229-3.334q-.593-.866-1.183-1.737a4.884,4.884,0,0,1-.329-.62l-.5-1h.738c.681,0,1.345.006,2,.013,1.692.015,3.293.032,4.891-.064a2.246,2.246,0,0,0,1.5-.876,1.045,1.045,0,0,0,.034-1.1,1.852,1.852,0,0,0-1.626-.807c-1.147-.012-2.288-.01-3.433-.008-1.694,0-3.385.006-5.076-.036a2.565,2.565,0,0,1-1.854-.951c-2.667-3.822-5.282-7.707-7.952-11.681a2.615,2.615,0,0,1-.328-.9c-.024-.113-.05-.224-.083-.332L11.828,3.3l.453-.124c.112-.03.223-.069.335-.109a2.935,2.935,0,0,1,.931-.207c1.514-.008,3.027-.006,4.54-.007,1.9,0,3.808,0,5.712-.019a5.63,5.63,0,0,1,3.622,1.228c3.174,2.422,6.343,4.779,9.416,7.009a3.134,3.134,0,0,0,1.651.637c4.527.07,8.529.061,12.236-.024a2.124,2.124,0,0,0,1.436-.813,1.062,1.062,0,0,0,.079-1.125A1.872,1.872,0,0,0,50.575,8.9c-1.37-.01-2.741-.007-4.108,0-2.137,0-4.268.01-6.4-.038a4.734,4.734,0,0,1-2.509-.813c-3.025-2.155-6.065-4.455-8.747-6.485A7.469,7.469,0,0,0,24.217,0C20.59.019,16.961.025,13.332,0h-.056A3.9,3.9,0,0,0,9.462,2.042a3.94,3.94,0,0,0,.476,4.447c1.563,2.266,3.1,4.55,4.646,6.832l1.6,2.374c.163.238.315.483.5.77l.746,1.18-3.05,0c-.363,0-.733-.01-1.1.018a1.46,1.46,0,0,0-1.5,1.441A1.4,1.4,0,0,0,13.3,20.478l.745.025a15.937,15.937,0,0,0,2.682-.041,3.817,3.817,0,0,1,4.248,2.226,34.124,34.124,0,0,0,2.133,3.266c.366.517.743,1.048,1.121,1.609l.48.71-7.937.006c-4.317,0-8.63,0-12.943-.025l.07.047Z" transform="translate(0.817 0)"/>
      <path id="Path_11207" data-name="Path 11207" d="M118.536,22.921c-2.342-3.345-5.069-7.229-7.8-11A10.54,10.54,0,0,0,101.816,7.3q-19.369-.016-38.73.012l-9.039.008c-.746,0-2,.184-2.022,1.413a1.224,1.224,0,0,0,.33.917,2.273,2.273,0,0,0,1.64.508q4.32.005,8.641,0l39-.025h.01a6.477,6.477,0,0,1,4.2,1.281l.858.671-1.08.14a15.865,15.865,0,0,1-1.756.1c-.289,0-.575.011-.861.025a2.738,2.738,0,0,0-2.744,2.132,8.743,8.743,0,0,0,1.79,7.367A7.937,7.937,0,0,0,108,24.525h.064c1.443-.013,2.888-.01,4.332,0l1.923,0c2.086,0,2.565.409,2.852,2.433a5.684,5.684,0,0,1-.086,2.02c-.653,2.858-3.322,4.791-6.641,4.808-6.382.033-12.762.019-19.144,0l-1.992,0a2.579,2.579,0,0,1-1.273-.329c-.784-.462-1.549-.954-2.325-1.45l-1.523-.969,2.243-1.2c1.3-.7,2.634-1.4,3.95-2.138a2.031,2.031,0,0,0,1.128-2.151,2.081,2.081,0,0,0-1.547-1.893,3.829,3.829,0,0,0-1.04-.09H77.74q-11.451,0-22.9-.018h-.015a3.79,3.79,0,0,0-3.275,1.592c-1.9,2.468-3.922,5.054-6.013,7.686a2.126,2.126,0,0,1-1.387.932c-2.749.045-5.5.041-8.331.036l-2.783,0,.1,2.971h9.33L40.649,39.1c-.952,1.224-1.866,2.4-2.789,3.566a2.511,2.511,0,0,0-.411,2.889,2.469,2.469,0,0,0,2.443,1.364h.023q1.62-.005,3.239,0h2.514c1.041,0,1.948,0,2.75,0,5.961.033,5.963.024,11.778-3.082l1.52-.81a5.174,5.174,0,0,1,2.333-.563c6.418-.039,12.837-.019,19.258-.032a7.821,7.821,0,0,0,1.989-.17c2.468-.654,3.833-2.362,4.172-5.224l.047-.4h6.371q6.892,0,13.785-.011a17.559,17.559,0,0,0,2.788-.212,9.021,9.021,0,0,0,6.948-5.361,8.3,8.3,0,0,0-.872-8.137m-5.478-1.234c-.82-.041-1.621-.013-2.4.019-.494.018-.98.038-1.462.038a8.75,8.75,0,0,1-3.136-.479c-2.212-.824-3.322-3.008-2.9-5.7l.059-.383h1.611c1.356,0,2.724,0,4.09.016a1.327,1.327,0,0,1,.971.544c.867,1.252,1.722,2.515,2.672,3.92l1.4,2.073ZM56.263,42.705a11.17,11.17,0,0,1-5.392,1.389l-.211,0c-2.1-.038-4.211-.03-6.4-.022l-3.771.007.872-1.221c.216-.306.387-.55.571-.784l1.649-2.113q4.908-6.286,9.845-12.547a2.532,2.532,0,0,1,1.726-.969q12.417-.058,24.831-.033h4.053a3.1,3.1,0,0,1,.393.034l1.736.182-1.7,1c-.261.157-.462.277-.668.387l-8.371,4.462q-9.589,5.108-19.173,10.232M84.09,39.578Q81,39.6,77.916,39.6l-3.7,0-4.055,0-.246-.95.315-.169c.628-.335,1.253-.673,1.879-1.012,1.646-.892,3.349-1.813,5.062-2.652a3.96,3.96,0,0,1,1.815-.245l.461,0h.12c1.483-.021,3.012-.039,4.522.024a2.493,2.493,0,0,1,0,4.985" transform="translate(7.046 1.557)"/>
      <path id="Path_11208" data-name="Path 11208" d="M32.939,29.8h.126l-.13-3.765c.007.744,0,1.485,0,2.261Z" transform="translate(7.023 5.552)" fill="#ffca0a"/>
      <path id="Path_11209" data-name="Path 11209" d="M39.962,30.386v-1.5c0-.776,0-1.518,0-2.26-.022-2.252-.821-3.168-2.875-3.285H4.718l-.072-.047c-.383,0-.767,0-1.15,0A3.28,3.28,0,0,0,0,25.307v62.6c.628,1.417,1.717,2.024,3.614,2.024h.013Q29,89.888,54.369,89.908l15.383.007c1.463.006,2.928.012,4.392-.018a2.7,2.7,0,0,0,2.963-3c.022-1.956.012-3.913,0-5.87a2.209,2.209,0,0,0-.51-1.6,1.294,1.294,0,0,0-.957-.329c-.337.007-1.364.033-1.371,1.9-.007,1.274,0,2.547,0,3.831v2.124H40.048V58.03H49.8l0,3.094c-.006,1.968-.012,3.876.015,5.782A2.1,2.1,0,0,0,53.2,68.818c.389-.227.772-.471,1.151-.713.6-.381,1.216-.776,1.865-1.105a2.23,2.23,0,0,1,1.819,0c.611.317,1.2.689,1.76,1.051.48.307.961.614,1.46.887a2.13,2.13,0,0,0,2.1.069,2.18,2.18,0,0,0,1.04-1.878c.023-.578.018-1.157.015-1.737l0-7.282h9.871v5.134c0,2.75-.007,5.5.01,8.251a1.7,1.7,0,0,0,.681,1.46,1.3,1.3,0,0,0,1.247.079c.642-.269.914-.784.912-1.718q-.013-4-.008-8V58.68c0-2.577-.908-3.491-3.464-3.492h-33.6V33.356h.143l-.1-2.97Zm-24.31-4.178h8.716v8.08l-.772-.751a5.356,5.356,0,0,0-3.7-1.843,5.03,5.03,0,0,0-3.46,1.9l-.786.837Zm21.364,60.78H2.919V58.124h9.786l0,2.784c0,1.867.01,3.717-.013,5.568-.016,1.165.157,1.991,1.053,2.505a2.4,2.4,0,0,0,2.682-.371c.285-.182.574-.4.864-.614A4.92,4.92,0,0,1,19.988,66.7a4.936,4.936,0,0,1,2.7,1.3c.289.216.576.431.863.614.941.6,1.758.892,2.674.359a2.5,2.5,0,0,0,1.094-2.508c-.015-1.848-.012-3.694-.008-5.564l0-2.805h9.707ZM15.646,65.364V58.1H24.4v7.35l-.644-.3c-.408-.186-.813-.414-1.218-.643a5.629,5.629,0,0,0-2.457-.955h-.017a5.892,5.892,0,0,0-2.5.905c-.423.223-.849.446-1.282.631ZM37.028,55.126H2.9V26.241h9.8l0,6.453c0,.784-.007,1.568.01,2.351a2.31,2.31,0,0,0,1.045,2.067,2.358,2.358,0,0,0,2.35-.206c.383-.224.759-.466,1.134-.7.6-.383,1.224-.779,1.877-1.117a2.08,2.08,0,0,1,1.724-.007c.667.341,1.3.746,1.913,1.138.331.212.661.423,1,.625a2.489,2.489,0,0,0,2.477.275,2.528,2.528,0,0,0,1.071-2.3c.017-1.856.013-3.711.01-5.606l0-2.947h9.721ZM52.7,58.1h8.756v7.3l-.642-.286c-.4-.177-.795-.4-1.194-.618a5.677,5.677,0,0,0-2.468-.935,5.865,5.865,0,0,0-2.519.934c-.425.229-.858.461-1.3.655l-.636.278Z" transform="translate(0 4.966)" fill="#ffca0a"/>
    </g>
  </g>
</svg>
