<svg xmlns="http://www.w3.org/2000/svg" xmlns:xlink="http://www.w3.org/1999/xlink" width="101.908" height="101.93" viewBox="0 0 101.908 101.93">
  <defs>
    <clipPath id="clip-path">
      <rect id="Rectangle_2982" data-name="Rectangle 2982" width="101.908" height="101.93" transform="translate(0 0)" fill="none"/>
    </clipPath>
  </defs>
  <g id="Group_4437" data-name="Group 4437" transform="translate(0 0)">
    <g id="Group_4429" data-name="Group 4429" clip-path="url(#clip-path)">
      <path id="Path_11165" data-name="Path 11165" d="M100.336,29.917c-7.06-2.187-13.962-4.329-20.782-6.5a3.928,3.928,0,0,0-2.981-.01,4.417,4.417,0,0,1-.8.249c-.119.029-.246.06-.384.1l-.951.265V10.767c0-3.763-2.144-5.922-5.876-5.925H53.658V3.269c0-.559,0-1.094,0-1.629C53.644.418,53.247,0,52.083,0Q37.188-.005,22.3,0c-1.068,0-1.492.421-1.511,1.5-.009.541-.007,1.083,0,1.666l0,1.591L19.7,4.811c-.26.014-.509.028-.758.028l-12.925,0C2.081,4.843,0,6.912,0,10.825V95.26c0,4.011.833,5.285,4.437,6.67H60.78l.305-.251c.368-.3.717-.585,1.03-.9q2.359-2.347,4.71-4.7,3.392-3.393,6.794-6.772a2.581,2.581,0,0,0,.838-2.049c-.036-1.926-.029-3.852-.022-5.772l.005-2.8.473-.188a.917.917,0,0,1,.765-.088c2.5.97,4.788.172,7.524-.971,10.711-4.473,16.945-12.581,18.528-24.1.032-.223.082-.443.135-.662l.043-.186V30.96a2.561,2.561,0,0,0-1.572-1.043M23.329,5.146c0-.6-.007-1.211-.007-1.828v-.75h27.8v5.77c0,2.641-.331,2.974-2.956,2.974H42.906c-5.91,0-11.823-.005-17.734.023h-.031a1.907,1.907,0,0,1-1.417-.462A1.912,1.912,0,0,1,23.3,9.425c.043-1.409.035-2.8.026-4.279m38.392,91.9-.006-2.668c-.007-.756-.014-1.6.015-2.44a2.723,2.723,0,0,1,2.7-2.72c.845-.03,1.69-.023,2.453-.016l2.673.006ZM71.907,80.807,71.9,86.664l-2.878,0c-1.515,0-2.987-.005-4.458.008a5.293,5.293,0,0,0-5.385,5.416c-.011,1.168-.008,2.336-.006,3.5l0,3.8H49.769q-4.121,0-8.238,0c-4.132-.007-26.139,0-29.232,0H5.789c-2.154,0-3.247-1.068-3.248-3.17q0-42.824,0-85.647c0-2.142,1.055-3.185,3.223-3.187q6.666-.007,13.331,0c.214,0,.429.018.667.04l1.023.079,0,1.392c0,.468,0,.916.005,1.362a3.552,3.552,0,0,0,3.548,3.582c8.321.025,16.984.026,25.745,0a3.518,3.518,0,0,0,3.572-3.561c.012-.468.008-.936.006-1.416l0-1.4,1.058-.058c.229-.014.419-.026.609-.026h1.032q6.2,0,12.4,0c2.084,0,3.142,1.066,3.145,3.162l0,4.569c0,2.784,0,5.57.016,8.355a1.693,1.693,0,0,1-1.355,1.843c-1.572.472-3.138.965-4.7,1.457-1.318.416-2.635.83-3.956,1.232a6.232,6.232,0,0,1-1.8.233q-8.5.015-17.012.01H37.841a7.58,7.58,0,0,0-.8.02A1.2,1.2,0,0,0,35.9,29.6c.018.292.072,1.179,1.66,1.182q5.288.01,10.573,0h5.915v19.48H46.224c-3.012,0-6.024,0-9.036.014a1.182,1.182,0,0,0-1.29,1.2,1.254,1.254,0,0,0,1.233,1.318,4.674,4.674,0,0,0,.581.013l.245,0H54.112l.167.782c.028.126.049.223.065.32,1.62,10.4,7.193,18.056,16.565,22.754a1.974,1.974,0,0,1,.965,1.528c.048.879.04,1.763.033,2.618M99.346,51A26.7,26.7,0,0,1,78.958,76.11a4.292,4.292,0,0,1-.94.1,4.689,4.689,0,0,1-1.068-.122A26.6,26.6,0,0,1,56.682,50.779c-.041-4-.031-8.07-.022-12q.006-2.633.008-5.266c0-.147.008-.294.018-.462l.037-.759,12.886-4.03c2.474-.775,4.948-1.549,7.432-2.288a3.559,3.559,0,0,1,1.981,0q5.542,1.7,11.074,3.429,3.99,1.24,7.98,2.476a1.651,1.651,0,0,1,1.308,1.759c-.012,2.306-.007,4.613,0,6.92.007,3.424.013,6.965-.035,10.449"/>
      <path id="Path_11166" data-name="Path 11166" d="M35.943,73.921a1.277,1.277,0,0,0,1.406.907q8.831.02,17.658,0c.461,0,1.535-.126,1.547-1.266a1.132,1.132,0,0,0-.3-.838A1.844,1.844,0,0,0,54.94,72.3c-2.011-.008-4.022,0-6.035,0H46.263l-2.084,0q-1.188,0-2.377,0-2.155,0-4.311.019a2.276,2.276,0,0,0-1.067.232,1.1,1.1,0,0,0-.481,1.379"/>
      <path id="Path_11167" data-name="Path 11167" d="M26.649,76.038c.4-.4.785-.769,1.132-1.17a1.2,1.2,0,0,0-.005-1.726,1.215,1.215,0,0,0-1.788-.023c-.212.177-.405.377-.6.575l-7,7.009-1.207-1.274c-.449-.48-.863-.922-1.3-1.344a1.657,1.657,0,0,0-1.114-.529h-.022a1.159,1.159,0,0,0-.832.4A1.277,1.277,0,0,0,14.1,79.87c.846.872,1.709,1.728,2.572,2.583l.481.479c1.062,1.053,1.554,1.049,2.631-.026Q22.3,80.4,24.8,77.888Z"/>
      <path id="Path_11168" data-name="Path 11168" d="M27.191,31.444c1.446-1.448.929-1.989.587-2.347a1.094,1.094,0,0,0-.769-.4H27a2.656,2.656,0,0,0-1.613.955l-7,7.009-1.2-1.274c-.447-.477-.86-.92-1.293-1.342a1.664,1.664,0,0,0-1.124-.533h-.019a1.172,1.172,0,0,0-.828.387,1.271,1.271,0,0,0,.174,1.917c.814.839,1.644,1.663,2.474,2.487l.579.576c1.064,1.057,1.555,1.054,2.629-.015q3.012-3,6.015-6.013Z"/>
      <path id="Path_11169" data-name="Path 11169" d="M25.386,51.669l-7,7.006-1.2-1.269c-.449-.479-.865-.924-1.3-1.347a1.659,1.659,0,0,0-1.122-.531h-.02a1.169,1.169,0,0,0-.828.388,1.273,1.273,0,0,0,.175,1.917c.813.837,1.642,1.659,2.47,2.482l.584.581c1.061,1.054,1.552,1.053,2.629-.018q2.939-2.927,5.866-5.863l1.551-1.554c1.445-1.447.927-1.987.585-2.346a1.1,1.1,0,0,0-.769-.4,2.736,2.736,0,0,0-1.623.956"/>
      <path id="Path_11170" data-name="Path 11170" d="M35.956,82.834c.191.742,1,.855,1.469.857q6.6.024,13.191,0a1.83,1.83,0,0,0,1.3-.43,1.159,1.159,0,0,0,.315-.857c0-.819-.555-1.238-1.638-1.244-1.526-.009-3.052-.005-4.578-.005l-1.965,0-1.821,0-1.682,0c-1.01,0-2.021,0-3.031.024a2.444,2.444,0,0,0-1.145.273c-.164.1-.668.4-.415,1.385"/>
      <path id="Path_11171" data-name="Path 11171" d="M35.9,60.37c-.005,1.045.875,1.277,1.613,1.287.977.014,1.954.01,2.931.008l1.393,0,1.351,0c1.025,0,2.049.006,3.073-.007.618-.008,1.656-.183,1.667-1.269a1.107,1.107,0,0,0-.3-.82,1.867,1.867,0,0,0-1.33-.442q-4.38-.021-8.76,0c-1.631.006-1.636.937-1.637,1.243"/>
      <path id="Path_11172" data-name="Path 11172" d="M47.158,39.221a1.21,1.21,0,0,0,.318-.9c-.025-.748-.542-1.188-1.417-1.205-1-.021-2-.015-3-.011l-1.317,0-1.4,0q-.653,0-1.3,0c-.572,0-1.144,0-1.716.015a1.287,1.287,0,0,0-1.1,2.127,1.413,1.413,0,0,0,1.032.384c2.892.041,5.872.042,8.857,0a1.442,1.442,0,0,0,1.055-.4"/>
      <path id="Path_11173" data-name="Path 11173" d="M93.828,37.784c0-1.192-.205-1.48-1.276-1.816-4.274-1.34-9.12-2.86-13.858-4.29a2.419,2.419,0,0,0-.683-.095,2.249,2.249,0,0,0-.639.087c-4.321,1.3-8.7,2.677-12.94,4l-1.014.317c-.971.3-1.208.63-1.209,1.658L62.2,40.969c-.009,3.233-.018,6.466.016,9.7a21.147,21.147,0,0,0,15.06,19.754,2.619,2.619,0,0,0,1.418.012C86.82,67.8,91.76,62.327,93.378,54.158A38.8,38.8,0,0,0,93.9,47.61c.018-.782.037-1.565.071-2.344l-.054,0-.087-.713V42.616q0-2.417,0-4.832M91.264,50.83A18.551,18.551,0,0,1,79.045,67.642a3.072,3.072,0,0,1-1.007.162,3.191,3.191,0,0,1-1.009-.159A18.574,18.574,0,0,1,64.778,51.173c-.045-1.329-.033-2.675-.021-3.976,0-.375.007-.749.008-1.124l-.019-.68,0-1.613c0-1.409.008-2.819-.016-4.228A1.577,1.577,0,0,1,66,37.848c1.86-.567,3.717-1.148,5.573-1.728s3.721-1.165,5.586-1.732a3.227,3.227,0,0,1,1.8.01c1.871.567,3.736,1.148,5.6,1.728,1.756.547,3.514,1.1,5.274,1.629a1.828,1.828,0,0,1,1.485,1.967c-.025,1.7-.021,3.4-.016,5.1.005,1.969.01,4.005-.032,6.012" fill="#ffca0a"/>
      <path id="Path_11174" data-name="Path 11174" d="M77.437,55.661q3.57-3.555,7.125-7.125l.21-.208a6.643,6.643,0,0,0,.74-.807,1.187,1.187,0,0,0-.152-1.593,1.285,1.285,0,0,0-1.622-.111,4.386,4.386,0,0,0-.5.464l-.148.151-6.9,6.915-1.474-1.5c-.7-.715-1.366-1.4-2.044-2.066a1.818,1.818,0,0,0-1.179-.6,1.308,1.308,0,0,0-1.205,1.179,1.781,1.781,0,0,0,.609,1.213q1.9,1.925,3.825,3.83l.231.23c.984.979,1.519.986,2.483.025" fill="#ffca0a"/>
    </g>
  </g>
</svg>
