<svg id="Group_4434" data-name="Group 4434" xmlns="http://www.w3.org/2000/svg" xmlns:xlink="http://www.w3.org/1999/xlink" width="112.773" height="112.484" viewBox="0 0 112.773 112.484">
  <defs>
    <clipPath id="clip-path">
      <rect id="Rectangle_2987" data-name="Rectangle 2987" width="112.773" height="112.484" fill="none"/>
    </clipPath>
  </defs>
  <g id="Group_4434-2" data-name="Group 4434" clip-path="url(#clip-path)">
    <path id="Path_11210" data-name="Path 11210" d="M100.963,28.052h.338a5.4,5.4,0,0,0,4.525-2.074,9.037,9.037,0,0,0,.99-1.835c.124-.279.25-.559.384-.832V21.274c-1.623-3.842-2.931-4.674-7.27-4.674L98.177,16.6c-1.423-.008-2.892-.016-4.336.024a2.337,2.337,0,0,1-2.252-1.162C89.857,12.864,88.1,10.284,86.353,7.7q-2.261-3.329-4.507-6.664A2.013,2.013,0,0,0,79.915,0c-.932.031-1.865.026-2.8.019-.659,0-1.317-.011-1.977,0a1.759,1.759,0,0,0-1.387.5,1.81,1.81,0,0,0-.041,1.514q.621,2,1.295,3.993c.151.446.61,1.448,1.63,1.131.99-.309.946-1.214.735-1.919-.139-.469-.283-.935-.426-1.4l-.331-1.08.439-.1A3.267,3.267,0,0,1,81.035,4.19c1.68,2.618,3.466,5.234,5.192,7.763,1.306,1.912,2.611,3.825,3.887,5.759a2.674,2.674,0,0,0,2.637,1.409c1.84-.058,3.706-.047,5.512-.036.9.006,1.806.013,2.707.008a3.447,3.447,0,0,1,3.155,1.425,3.05,3.05,0,0,1,.213,3.26,3.28,3.28,0,0,1-3.1,1.788l-1.464.008c-2.43.01-4.946.026-7.419-.022a2.1,2.1,0,0,0-2.019,1.086q-3.6,5.369-7.243,10.7l-2.395,3.522c-.954,1.406-1.947,1.685-3.662,1.03l-.343-.132.131-.546c.036-.157.072-.315.122-.47l1.52-4.658q1.389-4.246,2.768-8.5a1.755,1.755,0,0,0,.008-1.473,1.728,1.728,0,0,0-1.334-.571l-.151-.014c-5.121-.486-10.417-.99-15.63-1.381a2.176,2.176,0,0,0-1.475.771,38.724,38.724,0,0,0-2.959,4.216A2.293,2.293,0,0,1,56.7,30.295l-.381-.13.117-.384c.181-.6.368-1.194.555-1.79.454-1.448.924-2.948,1.295-4.439a5.371,5.371,0,0,0-.009-2.468C57.911,19.6,57.447,18.11,57,16.668c-.184-.593-.37-1.186-.549-1.781L56.33,14.5l.386-.127a2.283,2.283,0,0,1,2.964,1.13c.526.855,1.121,1.695,1.7,2.506.4.56.794,1.12,1.174,1.69a1.68,1.68,0,0,0,1.766.843c1.228-.132,2.46-.239,3.692-.348l4.406-.386c2.492-.215,4.983-.432,7.473-.674a1.746,1.746,0,0,0,1.342-.576,1.761,1.761,0,0,0,0-1.474c-.431-1.369-.87-2.737-1.336-4.093-.3-.872-.873-1.253-1.586-1.034a1.282,1.282,0,0,0-.774,1.789c.159.539.331,1.072.505,1.617l.383,1.2-.592.192a1.545,1.545,0,0,1-.392.1l-1.659.151c-3.534.321-7.068.642-10.6.922a1.8,1.8,0,0,1-1.3-.735c-.948-1.3-2.06-2.853-3.11-4.482a2.026,2.026,0,0,0-1.954-1c-.735.022-1.472.019-2.206.013-.489,0-.976-.008-1.463,0a1.965,1.965,0,0,0-1.6.514,1.909,1.909,0,0,0-.022,1.636c.254.855.514,1.707.774,2.559.5,1.622.99,3.242,1.446,4.875a3.933,3.933,0,0,1,.006,2.03c-.429,1.528-.893,3.045-1.356,4.564-.314,1.024-.626,2.049-.928,3.076a1.71,1.71,0,0,0,.088,1.447,1.7,1.7,0,0,0,1.351.516c.564.011,1.131.006,1.7,0,.73-.007,1.462-.011,2.192.016a1.984,1.984,0,0,0,1.954-1.006c.516-.794,1.062-1.569,1.607-2.346.475-.676.951-1.353,1.407-2.041a1.685,1.685,0,0,1,1.757-.836c1.221.127,2.446.227,3.67.327.763.061,1.526.123,2.289.192,1.54.138,3.081.285,4.658.438l2.332.222-.294.956c-.086.281-.161.532-.242.781l-1.393,4.267q-1.416,4.34-2.823,8.68a1.842,1.842,0,0,0,.03,1.55,1.841,1.841,0,0,0,1.455.53c.721.013,1.44.009,2.16,0,.833-.006,1.667-.009,2.5.011a2,2,0,0,0,1.945-1.016c.42-.687.89-1.358,1.385-2.07.233-.334.476-.684.732-1.057l.442-.649.289.729c5.519,13.908,4.215,26.224-3.984,37.651-5.81,8.1-19.048,15.719-25.294,14.581l-.673-.124.864-1.11c.314-.4.621-.787.911-1.188a1.25,1.25,0,0,0-.119-1.878,1.18,1.18,0,0,0-.719-.253,1.382,1.382,0,0,0-1.06.565c-1.335,1.649-2.62,3.291-3.817,4.877a1.166,1.166,0,0,0,.179,1.868c1.485,1.214,3.109,2.483,4.963,3.885a1.219,1.219,0,0,0,1.788-.163,1.233,1.233,0,0,0-.283-1.786c-.3-.267-.623-.516-.977-.794l-1.2-.955,1.211-.308a4.725,4.725,0,0,1,.574-.133,35.089,35.089,0,0,0,11.319-3.593c13.586-7.185,21-18.515,22.025-33.679a37.547,37.547,0,0,0-3.995-19.31,1.842,1.842,0,0,1,.152-2.108c1.658-2.368,3.366-4.885,5.223-7.693a1.913,1.913,0,0,1,1.8-.935c2.473.034,4.946.023,7.419.012" transform="translate(5.574 0)"/>
    <path id="Path_11211" data-name="Path 11211" d="M56.559,15.672c-1.624-1.327-3.352-2.679-5.137-4.018a1.194,1.194,0,0,0-1.695.23,1.213,1.213,0,0,0,.222,1.72c.315.284.653.543.974.791l1.052.829-.786.219c-.928.259-1.858.5-2.783.731a55.885,55.885,0,0,0-5.747,1.683A39.245,39.245,0,0,0,19.6,40.274a39.869,39.869,0,0,0,1.263,32.214,1.749,1.749,0,0,1-.113,2.007c-.82,1.175-1.624,2.359-2.428,3.544-.958,1.415-1.918,2.829-2.9,4.225a2.3,2.3,0,0,1-1.643.873c-1.535.038-3.072.033-4.6.031-1.092,0-2.185,0-3.275.008A5.57,5.57,0,0,0,.669,86.3a5.479,5.479,0,0,0,.069,5.371,6.005,6.005,0,0,0,5.019,2.921c2.534.107,5.1.067,7.735.01h.079a2.254,2.254,0,0,1,2.062,1.155q2.539,3.8,5.11,7.568,2.322,3.422,4.632,6.853a2.025,2.025,0,0,0,1.926,1.048c.918-.03,1.84-.024,2.761-.019.709,0,1.416.009,2.126,0a1.283,1.283,0,0,0,1.369-1.893c-.384-1.264-.82-2.6-1.372-4.195-.3-.869-.892-1.261-1.583-1.053-.754.23-1.05.905-.79,1.81.144.5.308,1,.471,1.5l.35,1.091-.436.1a3.22,3.22,0,0,1-3.969-1.5c-1.748-2.714-3.6-5.43-5.393-8.055-1.281-1.875-2.561-3.752-3.816-5.644a2.463,2.463,0,0,0-2.38-1.263c-1.918.046-3.869.039-5.755.028-.894,0-1.79-.008-2.682-.007H6.194a3.45,3.45,0,0,1-3.126-1.474,3.044,3.044,0,0,1-.212-3.15A3.228,3.228,0,0,1,5.927,85.66l1.086-.008c2.554-.018,5.2-.033,7.8.019a2.225,2.225,0,0,0,2.111-1.125q3.462-5.181,6.977-10.322l2.468-3.634c1.156-1.7,1.616-1.869,3.777-1.364l.411.1-.161.666c-.046.2-.092.4-.155.6L28.608,75.6q-1.313,4.02-2.617,8.043a1.74,1.74,0,0,0-.009,1.464,1.732,1.732,0,0,0,1.339.569q4.668.441,9.338.861l6.336.58a1.594,1.594,0,0,0,1.6-.753c.367-.54.744-1.072,1.124-1.6.615-.865,1.252-1.761,1.816-2.672a2.285,2.285,0,0,1,2.98-1.157l.38.129-.116.384c-.179.6-.354,1.2-.531,1.8-.419,1.43-.853,2.91-1.332,4.35a3.949,3.949,0,0,0,.012,2.641c.475,1.434.9,2.905,1.318,4.328.174.6.348,1.192.525,1.785l.117.39-.389.127a2.27,2.27,0,0,1-2.958-1.142c-.529-.859-1.127-1.7-1.706-2.517-.394-.555-.787-1.11-1.166-1.676a1.686,1.686,0,0,0-1.767-.841c-1.248.135-2.5.245-3.753.354l-4.44.388c-2.46.213-4.92.426-7.378.665A1.734,1.734,0,0,0,26,92.663a1.774,1.774,0,0,0-.007,1.484c.429,1.371.869,2.737,1.334,4.094.3.857.889,1.241,1.592,1.024.757-.234,1.038-.891.77-1.8-.162-.549-.335-1.093-.51-1.639l-.351-1.112.5-.219a1,1,0,0,1,.363-.122l1.646-.149c3.573-.325,7.147-.651,10.723-.934a1.746,1.746,0,0,1,1.3.742c1.227,1.68,2.217,3.1,3.115,4.474a1.909,1.909,0,0,0,1.844,1c.721-.018,1.44-.016,2.16-.01.576,0,1.152.007,1.726,0a1.8,1.8,0,0,0,1.482-.516,1.76,1.76,0,0,0,.053-1.534c-.279-.938-.565-1.875-.852-2.81-.481-1.57-.962-3.142-1.406-4.723a3.925,3.925,0,0,1,0-2.031c.416-1.482.865-2.955,1.315-4.428.328-1.071.653-2.139.967-3.213a1.336,1.336,0,0,0-1.446-1.96c-.626-.013-1.254-.01-1.88,0-.705,0-1.409.008-2.114-.01a1.86,1.86,0,0,0-1.778.922c-.46.7-.942,1.385-1.423,2.069-.538.765-1.076,1.532-1.584,2.317a1.839,1.839,0,0,1-1.944.913c-1.226-.134-2.456-.234-3.686-.334-.72-.059-1.439-.116-2.158-.182-1.482-.133-2.961-.277-4.471-.422l-2.517-.242.3-.962c.087-.278.163-.526.244-.774l1.334-4.089q1.444-4.426,2.88-8.857a1.831,1.831,0,0,0-.034-1.544,1.844,1.844,0,0,0-1.464-.529c-.793-.012-1.585-.009-2.377-.007s-1.595.006-2.392-.006a1.887,1.887,0,0,0-1.765.932c-.442.71-.921,1.4-1.417,2.114l-1.072,1.562-.305-.676a36.914,36.914,0,0,1,1.65-34.115,36.269,36.269,0,0,1,27.7-18.131l.956-.091L51.875,19.57c-.355.449-.685.866-.992,1.3a1.221,1.221,0,0,0,.189,1.791,1.2,1.2,0,0,0,1.7-.239c1.228-1.509,2.521-3.163,3.953-5.053a1.111,1.111,0,0,0-.171-1.7" transform="translate(0 1.261)"/>
    <path id="Path_11212" data-name="Path 11212" d="M52.778,32.808h-.023a19.8,19.8,0,1,0-.022,39.609h.02a19.8,19.8,0,0,0,.026-39.609M51.4,37.444v6.025H47.3l-.585-.66,3.8-5.729ZM38.43,42.867a17.572,17.572,0,0,1,8.314-6.5l1.017-.386-1.267,2.457c-.772,1.5-1.507,2.925-2.26,4.344a1.327,1.327,0,0,1-.96.726c-.724.022-1.448.028-2.2.028q-.533,0-1.091,0l-2.017,0Zm-2,15.543a17.139,17.139,0,0,1-.017-11.539,1.353,1.353,0,0,1,1.062-.819c1.244-.036,2.491-.032,3.822-.028l1.856,0-.1.494A30.975,30.975,0,0,0,43.074,58.7l.1.5H40.181c-.936,0-1.845,0-2.754-.024a1.257,1.257,0,0,1-.993-.764M46.741,68.849a17.38,17.38,0,0,1-8.325-6.492l-.478-.661,2.051,0c1.113,0,2.118-.007,3.123.026a1.463,1.463,0,0,1,1.1.68c.78,1.457,1.533,2.924,2.311,4.441l1.225,2.381Zm4.708-1.121-.864.409-.268-.269L46.3,61.75h5.15Zm0-8.606H45.8l-.082-.31a25.653,25.653,0,0,1-.053-12.359l.072-.325h5.713Zm2.633-21.591.906-.47,4.226,6.4H54.085Zm-.091,9.857a1.438,1.438,0,0,1,.335-1.078,1.411,1.411,0,0,1,1.037-.3c.926.039,1.854.031,2.8.023l1.538-.008.079.317a25.513,25.513,0,0,1,.024,12.472l-.078.32H54.005l0-4.614c0-2.378.007-4.755-.014-7.131m.111,20.361V61.76h5.113L55,68.144Zm12.983-5.4a17.634,17.634,0,0,1-8.343,6.524l-1.011.378,1.188-2.312c.793-1.546,1.59-3.1,2.412-4.64a1.34,1.34,0,0,1,1.058-.59c1.006-.024,2.012-.023,3.13-.019l2.036,0Zm2.034-15.4a17.061,17.061,0,0,1-.014,11.325,1.442,1.442,0,0,1-1.113.89c-.84.027-1.679.034-2.54.034-.414,0-.833,0-1.258,0l-1.863,0,.1-.5a30.823,30.823,0,0,0,.008-12.168l-.1-.5,1.74,0c1.418,0,2.782,0,4.144.03.484.013.815.664.893.893m-1.538-3.43-2.067,0-1.1,0c-.723,0-1.414-.007-2.1-.026a1.326,1.326,0,0,1-1.011-.657c-.785-1.48-1.549-2.974-2.338-4.517l-1.181-2.3,1,.361A17.359,17.359,0,0,1,67.1,42.865Z" transform="translate(3.645 3.629)" fill="#ffca0a"/>
  </g>
</svg>
