<svg id="Group_4435" data-name="Group 4435" xmlns="http://www.w3.org/2000/svg" xmlns:xlink="http://www.w3.org/1999/xlink" width="137.375" height="136.172" viewBox="0 0 137.375 136.172">
  <defs>
    <clipPath id="clip-path">
      <rect id="Rectangle_3000" data-name="Rectangle 3000" width="137.375" height="136.172" fill="none"/>
    </clipPath>
  </defs>
  <g id="Group_4435-2" data-name="Group 4435" transform="translate(0 0)" clip-path="url(#clip-path)">
    <path id="Path_11213" data-name="Path 11213" d="M0,124.178V85.192A13.615,13.615,0,0,0,1.8,84.18q12.221-9.606,24.427-19.235a1.937,1.937,0,0,0,.933-2.127,3.381,3.381,0,0,1,1.722-3.482,1.377,1.377,0,0,0,.64-1.983l-2.088-.147c-.326-3.348-.646-6.644-.975-10.029h9.323c-.331,3.386-.652,6.686-.98,10.04l-2.179.127V61.3a7.844,7.844,0,0,0-1.835.311,1.446,1.446,0,0,0-.731.971,1.15,1.15,0,0,0,.527.966c.349.152,1.1.134,1.223-.078.837-1.4,2.057-.685,2.639-.736a13.519,13.519,0,0,0,1.79,2.319q12,9.552,24.075,19.017a18.1,18.1,0,0,0,1.9,1.145v38.963Zm54.678-36.37V92.3H7.524V87.843H2.953V121.3H59.316V87.809Zm1.975-2.9c-.592-.5-.864-.743-1.149-.968Q44.971,75.625,34.443,67.3c-.852-.676-1.6-1.264-2.788-.763a2.088,2.088,0,0,1-1.475-.054,1.607,1.607,0,0,0-1.834.405q-8.318,6.6-16.66,13.158L5.844,84.654c.035.09.071.181.107.271h4.466v4.53h4.463c0-.913-.016-1.728,0-2.544.068-2.866,1.963-4.9,4.6-4.946a4.762,4.762,0,0,1,4.762,4.954c.021.848,0,1.7,0,2.537H38.009c0-1-.023-1.914.005-2.821a4.665,4.665,0,1,1,9.329.01c.025.939,0,1.88,0,2.815h4.512V84.913ZM44.485,89.483a26.227,26.227,0,0,0-.026-3.038,1.645,1.645,0,0,0-1.77-1.559,1.617,1.617,0,0,0-1.757,1.559c-.1.982-.023,1.983-.023,3.038Zm-26.753-.023h3.595c0-1,.031-1.911-.008-2.817a1.638,1.638,0,0,0-1.711-1.75,1.679,1.679,0,0,0-1.863,1.748c-.065.9-.014,1.814-.014,2.818M32.189,54.418c.139-1.48.268-2.861.4-4.293H29.618c.158,1.513.3,2.894.448,4.293Z" transform="translate(0 11.995)"/>
    <path id="Path_11214" data-name="Path 11214" d="M47.448,37.114c2.881,7.188,5.692,14.2,8.6,21.439-3.443,0-6.708.034-9.969-.044-.405-.01-.892-.548-1.179-.956q-6.822-9.685-13.581-19.416A2.1,2.1,0,0,0,29.3,37.11,23.63,23.63,0,0,1,13.976,32.17c-2.416-1.844-2.435-3.529-.066-5.392A23.547,23.547,0,0,1,29.176,21.66a2.23,2.23,0,0,0,2.106-1.136c4.306-6.345,8.682-12.645,12.967-19.007A2.835,2.835,0,0,1,46.982,0c2.823.1,5.653.029,8.732.029-2.783,7.154-5.529,14.212-8.366,21.507.684,0,1.159,0,1.634,0,6.4-.019,12.8-.207,19.181.04a4.376,4.376,0,0,0,4.35-2.2c1.021-1.505,1.991-3.407,3.473-4.135s3.573-.219,5.4-.248c.544-.009,1.089,0,1.917,0-1.748,3.622-3.418,7.083-5.158,10.685.931.479,1.821.907,2.683,1.386a2.219,2.219,0,0,1,.046,4.1c-.825.48-1.684.9-2.68,1.432l5.247,10.6c-2.511,0-4.813.026-7.112-.033-.315-.009-.676-.4-.918-.7-1.3-1.589-2.615-3.172-3.841-4.821a1.959,1.959,0,0,0-2.121-.852c-2.493.232-5.018.123-7.529.142q-6.51.051-13.018.092c-.406,0-.813.048-1.452.088M15.266,29.4a4.489,4.489,0,0,0,.435.453c.436.331.873.665,1.33.965a21.625,21.625,0,0,0,12.331,3.435c11.692-.08,23.383-.193,35.074-.109a15.439,15.439,0,0,0,8.826-2.191c1.633-1.041,3.425-1.834,5.372-2.857-3.241-1.6-6.212-3.1-9.215-4.523a4.1,4.1,0,0,0-1.73-.258c-9.545.044-19.09.084-28.633.177-4.562.044-9.139,0-13.679.362A17.963,17.963,0,0,0,15.266,29.4M51.778,55.729c-.256-.691-.4-1.113-.568-1.526q-2.8-6.98-5.6-13.957c-1.277-3.182-1.274-3.176-4.665-3.157-2.2.013-4.409,0-6.9,0,4.381,6.256,8.558,12.229,12.761,18.184a1.3,1.3,0,0,0,.907.434c1.269.049,2.541.02,4.061.02m-.3-52.852c-1.238,0-2.323.061-3.4-.019a1.973,1.973,0,0,0-1.984,1.047c-3.7,5.477-7.458,10.918-11.192,16.373-.247.361-.467.743-.8,1.272,3.088,0,5.989-.046,8.889.026a1.574,1.574,0,0,0,1.766-1.233C46.8,14.982,48.912,9.644,50.995,4.3c.161-.413.285-.839.48-1.42m21.76,32.286c1.314,1.651,2.461,3.183,3.721,4.616.349.4,1.037.494,1.57.729l.2-.366c-1.011-2.028-2.021-4.058-3.087-6.2l-2.406,1.218M78.6,18.115l-.2-.291c-.5.173-1.178.2-1.474.546-1.283,1.505-2.456,3.106-3.751,4.779l2.4,1.224L78.6,18.115" transform="translate(3.089 0)"/>
    <path id="Path_11215" data-name="Path 11215" d="M72.9,63.787V55.232h50.189V89.688c-1.444,0-2.927.036-4.409-.014a1.415,1.415,0,0,0-1.634,1,6.184,6.184,0,0,1-11.433-.079,1.254,1.254,0,0,0-1.393-.921c-2.649.043-5.3.035-7.948,0a1.251,1.251,0,0,0-1.421.889,5.865,5.865,0,0,1-5.744,3.893,6.082,6.082,0,0,1-5.8-3.858c-.177-.37-.622-.865-.951-.87-3.741-.061-7.484-.04-11.283-.04-.9,2.955-2.715,4.819-5.9,4.757-3-.056-4.732-1.846-5.612-4.736H56.25c-.028-.572-.065-1.017-.065-1.462-.005-4.157-.024-8.314.018-12.471a4.311,4.311,0,0,1,.477-1.942c1.657-3.045,3.413-6.038,5.066-9.087a1.664,1.664,0,0,1,1.728-.977c3.1.041,6.195.016,9.429.016m3.014-5.746V86.81c2.166,0,4.221.046,6.269-.04a1.65,1.65,0,0,0,1.1-.869,6.146,6.146,0,0,1,5.788-3.876,5.859,5.859,0,0,1,5.76,3.854,1.367,1.367,0,0,0,1.54.943c2.511-.026,5.023-.045,7.533.008a1.621,1.621,0,0,0,1.815-1.159,5.756,5.756,0,0,1,5.206-3.64,5.944,5.944,0,0,1,5.82,3.117c1.12,1.883,1.094,1.9,3.448,1.5V58.042Zm-16.8,28.612.391.241a12.784,12.784,0,0,0,.869-1.119,5.643,5.643,0,0,1,9.739-.1c.743,1.254,1.562,1.252,2.719,1V76.6H59.118Zm13.74-13.122V66.677c-2.843,0-5.61-.011-8.377.02a1.031,1.031,0,0,0-.744.444c-1.2,2.068-2.366,4.16-3.621,6.39Zm16.269,18.09a3.387,3.387,0,1,0-3.419-3.389,3.436,3.436,0,0,0,3.419,3.389m25.6-3.392a3.421,3.421,0,0,0-3.418-3.383,3.388,3.388,0,0,0,.019,6.775,3.414,3.414,0,0,0,3.4-3.393m-49.47-2.393a2.91,2.91,0,0,0-2.86,2.9,2.956,2.956,0,0,0,2.895,2.886,2.877,2.877,0,0,0,2.891-2.991,2.817,2.817,0,0,0-2.926-2.793" transform="translate(14.283 14.043)"/>
    <path id="Path_11216" data-name="Path 11216" d="M86.87,32.774c-1.938-2.077-3.8-4.069-5.718-6.128l1.944-2.1,5.98,6.424L86.87,32.774" transform="translate(20.633 6.24)" fill="#ffca0a"/>
    <path id="Path_11217" data-name="Path 11217" d="M77.385,23.411l-7.247-4.177c.359-.763.734-1.562,1.212-2.576L79,21.032c-.592.873-1.084,1.6-1.61,2.379" transform="translate(17.833 4.235)" fill="#ffca0a"/>
    <path id="Path_11218" data-name="Path 11218" d="M7.81,71.057l-2.764.675c-.457-2.922-.894-5.721-1.358-8.687L6.532,62.8c.429,2.778.844,5.459,1.278,8.258" transform="translate(0.937 15.967)" fill="#ffca0a"/>
    <path id="Path_11219" data-name="Path 11219" d="M9.324,44.876,6.659,43.861c1.268-2.682,2.492-5.268,3.757-7.942l2.491,1.4c-1.2,2.54-2.376,5.016-3.582,7.561" transform="translate(1.693 9.133)" fill="#ffca0a"/>
    <path id="Path_11220" data-name="Path 11220" d="M65.772,102l.854,2.718-8.513,2.006c-.183-1.034-.336-1.9-.5-2.828l8.159-1.9" transform="translate(14.649 25.933)" fill="#ffca0a"/>
    <path id="Path_11221" data-name="Path 11221" d="M77.571,96.148c.517.75,1,1.455,1.623,2.352L71.6,102.926c-.49-.995-.867-1.761-1.259-2.557l7.227-4.221" transform="translate(17.885 24.446)" fill="#ffca0a"/>
    <path id="Path_11222" data-name="Path 11222" d="M4.854,48.987l2.82.633c-.4,2.758-.784,5.437-1.174,8.138H3.659c.4-2.95.784-5.757,1.2-8.771" transform="translate(0.93 12.455)" fill="#ffca0a"/>
    <path id="Path_11223" data-name="Path 11223" d="M95.8,43.367,93.163,44.44c-1.233-2.525-2.422-4.961-3.661-7.5l2.458-1.471c1.289,2.655,2.535,5.219,3.836,7.9" transform="translate(22.757 9.018)" fill="#ffca0a"/>
    <path id="Path_11224" data-name="Path 11224" d="M83.288,95.29,81.335,93.2,87,87.034l2.225,1.776L83.288,95.29" transform="translate(20.68 22.129)" fill="#ffca0a"/>
    <path id="Path_11225" data-name="Path 11225" d="M95.5,55.658c-.376-2.162-.737-4.247-1.128-6.49l2.783-.665c.4,2.343.774,4.542,1.171,6.878l-2.827.276" transform="translate(23.994 12.332)" fill="#ffca0a"/>
    <path id="Path_11226" data-name="Path 11226" d="M13.644,30.454l1.333-1.62,2.172,1.809L15.9,32.192l-2.258-1.737" transform="translate(3.469 7.331)" fill="#ffca0a"/>
    <rect id="Rectangle_2988" data-name="Rectangle 2988" width="2.759" height="19.196" transform="translate(42.748 109.27)" fill="#ffca0a"/>
    <rect id="Rectangle_2989" data-name="Rectangle 2989" width="2.678" height="19.186" transform="translate(34.128 109.288)" fill="#ffca0a"/>
    <rect id="Rectangle_2990" data-name="Rectangle 2990" width="2.738" height="19.169" transform="translate(16.714 109.276)" fill="#ffca0a"/>
    <rect id="Rectangle_2991" data-name="Rectangle 2991" width="2.66" height="19.163" transform="translate(8.079 109.302)" fill="#ffca0a"/>
    <rect id="Rectangle_2992" data-name="Rectangle 2992" width="2.614" height="19.194" transform="translate(51.517 109.26)" fill="#ffca0a"/>
    <rect id="Rectangle_2993" data-name="Rectangle 2993" width="2.614" height="19.195" transform="translate(25.466 109.261)" fill="#ffca0a"/>
    <rect id="Rectangle_2994" data-name="Rectangle 2994" width="11.293" height="2.689" transform="translate(41.753 27.946)" fill="#ffca0a"/>
    <rect id="Rectangle_2995" data-name="Rectangle 2995" width="3.365" height="2.764" transform="translate(33.985 27.991)" fill="#ffca0a"/>
    <rect id="Rectangle_2996" data-name="Rectangle 2996" width="2.719" height="13.902" transform="translate(96.481 76.501)" fill="#ffca0a"/>
    <rect id="Rectangle_2997" data-name="Rectangle 2997" width="2.677" height="13.991" transform="translate(106.167 76.481)" fill="#ffca0a"/>
    <rect id="Rectangle_2998" data-name="Rectangle 2998" width="2.682" height="13.976" transform="translate(115.834 76.468)" fill="#ffca0a"/>
    <rect id="Rectangle_2999" data-name="Rectangle 2999" width="2.628" height="13.984" transform="translate(125.517 76.475)" fill="#ffca0a"/>
  </g>
</svg>
