<svg id="Group_4439" data-name="Group 4439" xmlns="http://www.w3.org/2000/svg" xmlns:xlink="http://www.w3.org/1999/xlink" width="78.716" height="101.306" viewBox="0 0 78.716 101.306">
  <defs>
    <clipPath id="clip-path">
      <rect id="Rectangle_3003" data-name="Rectangle 3003" width="78.716" height="101.306" fill="none"/>
    </clipPath>
  </defs>
  <g id="Group_4439-2" data-name="Group 4439" clip-path="url(#clip-path)">
    <path id="Path_11236" data-name="Path 11236" d="M78.717,2.136C78.717.319,78.4,0,76.588,0H2.18C.307,0,0,.307,0,2.191v48.08Q0,59.24,0,68.209c0,1.468.4,1.87,1.844,1.873q3.237.006,6.475,0h4.512l-.051.42c-1.015,8.406,1.165,15.708,6.479,21.705a26.005,26.005,0,0,0,20.7,9.093A26.833,26.833,0,0,0,60.149,91.52a26.072,26.072,0,0,0,5.815-21l-.076-.44H76.607c1.794,0,2.11-.321,2.11-2.141Zm-47.309.606h15.9V22.059L41.753,18c-.474-.343-.949-.684-1.416-1.036a1.469,1.469,0,0,0-1.98.018c-1.45,1.078-2.911,2.14-4.372,3.2l-1.029.748c-.185.135-.377.259-.6.4l-.947.624Zm7.943,95.933H39.3A24.193,24.193,0,0,1,39.36,50.29h.007a24.193,24.193,0,0,1-.016,48.385M76.01,67.348H65.4l-.091-.243C60.465,54.143,51.6,47.648,39.054,47.757,26.743,47.879,18.113,54.4,13.4,67.143l-.091.245H2.732V2.681H28.7l0,21.2c0,.172,0,.344,0,.516-.015.566.1,1.272.723,1.42a2.339,2.339,0,0,0,1.635-.259c2-1.383,3.926-2.8,5.962-4.292l2.332-1.709,5.008,3.637c.4.289.793.582,1.189.874.516.381,1.031.761,1.551,1.137l.268.2c.694.522,1.155.827,1.832.5.781-.378.819-1.02.816-2.036-.007-3.67-.006-7.248-.005-10.827V2.72h26Z"/>
    <path id="Path_11237" data-name="Path 11237" d="M47.457,81.715c.068-4.255-2.092-7.1-6.42-8.466l-.263-.082V62.328l.533.247a5.585,5.585,0,0,1,3.533,4.982c.064.9.556,1.439,1.318,1.439h.015a1.253,1.253,0,0,0,.92-.379,1.552,1.552,0,0,0,.375-1.151,8.234,8.234,0,0,0-6.507-7.8l-.277-.075,0-1.112c0-.611.008-1.219-.008-1.825a1.362,1.362,0,0,0-1.284-1.49,1.162,1.162,0,0,0-.9.325,1.642,1.642,0,0,0-.461,1.171c-.016.607-.012,1.217-.008,1.815l0,1.059-.248.089c-4.276,1.542-6.472,4.106-6.527,7.624-.067,4.256,2.124,7.114,6.512,8.5l.262.082V86.663L37.5,86.42a5.633,5.633,0,0,1-3.625-5.011c-.063-.9-.555-1.439-1.318-1.439h-.015a1.25,1.25,0,0,0-.925.381,1.537,1.537,0,0,0-.369,1.146,8.552,8.552,0,0,0,.343,2.1A8.153,8.153,0,0,0,37.76,89.3l.276.076-.005,1.143c-.006.633-.012,1.263.011,1.892A1.328,1.328,0,0,0,39.321,93.8a1.344,1.344,0,0,0,1.354-1.4c.023-.6.017-1.2.011-1.828l-.005-1.146.248-.088c4.276-1.544,6.473-4.11,6.528-7.627m-9.475-9-.441-.079a5.023,5.023,0,0,1-3.655-4.7,5.177,5.177,0,0,1,3.626-5.241l.47-.125Zm2.766,3.442.48.14a5.213,5.213,0,0,1,3.611,4.927c.049,2.307-1.692,4.723-3.651,5.069l-.44.078Z" fill="#ffca0a"/>
  </g>
</svg>
