<svg xmlns="http://www.w3.org/2000/svg" xmlns:xlink="http://www.w3.org/1999/xlink" width="109.32" height="95.043" viewBox="0 0 109.32 95.043">
  <defs>
    <clipPath id="clip-path">
      <rect id="Rectangle_3001" data-name="Rectangle 3001" width="109.32" height="95.043" transform="translate(0 0)" fill="none"/>
    </clipPath>
  </defs>
  <g id="Group_4436" data-name="Group 4436" transform="translate(0 0)" clip-path="url(#clip-path)">
    <path id="Path_11227" data-name="Path 11227" d="M2.429,92.54c-.336,0-.673.008-1.01.02C.53,92.589,0,93.041,0,93.769c0,.7.5,1.166,1.33,1.249a4.837,4.837,0,0,0,.538.013H18.66q44.307,0,88.613.012a2.308,2.308,0,0,0,2.047-.779V93.4a1.653,1.653,0,0,0-1.721-.86c-.953.038-1.92.03-2.857.021-.4,0-.812-.007-1.218-.007h-.375V30.65l.32-.049c1.706-.257,1.85-.75,1.856-1.32.008-.607-.117-1-1.9-1.386l-.3-.064v-6.2l.345-.027c.114-.009.222-.014.326-.018a2.925,2.925,0,0,0,.519-.052,1.134,1.134,0,0,0,1-1.153,1.154,1.154,0,0,0-.985-1.254,2.913,2.913,0,0,0-.728-.044l-.249,0-18.81,0c-1.9,0-2.1.608-2.143,1.177-.035.534.079,1.127,1.9,1.4l.32.048v6.147l-.307.056c-1.8.331-1.933.837-1.921,1.37s.164.99,1.94,1.354l.3.061v7.923l-.96-.874c-.207-.184-.379-.34-.544-.5l-2.6-2.592c-2.32-2.306-4.719-4.691-7.039-7.076A6.1,6.1,0,0,0,68.7,25.574c-1.28.04-2.581.027-3.84.017l-1.438-.009c-.248,0-.5-.014-.734-.028l-.631-.032V12.1l.327-.043c1.892-.247,2.043-.614,2.065-1.189a1.345,1.345,0,0,0-.1-.678,10.878,10.878,0,0,0-1.422-.755c-.212-.1-.426-.2-.642-.308l-.207-.1V2.536l.75-.041a5.567,5.567,0,0,0,.636-.048,1.073,1.073,0,0,0,.994-1.026,1.075,1.075,0,0,0-.767-1.28A3.71,3.71,0,0,0,62.539.006Q48.028-.006,33.518,0a4.333,4.333,0,0,0-.978.075,1.1,1.1,0,0,0-.952,1.248,1.1,1.1,0,0,0,1.09,1.131c.226.031.454.048.686.067l.688.058V9.445l-.371,0c-1.381.02-2.009.195-2.079,1.179-.078,1.128.568,1.253,1.812,1.392l.7.086,0,2.31c0,1.626,0,3.229.007,4.832,0,.694.213,1.526,1.18,1.552a1.039,1.039,0,0,0,.834-.292,1.78,1.78,0,0,0,.45-1.283c.015-.8.012-1.6.009-2.4l0-4.786H59.406V56.348H36.594V50.667q0-11.885,0-23.769a4.87,4.87,0,0,0-.094-1.183,1.079,1.079,0,0,0-1.291-.875,1.066,1.066,0,0,0-1.059,1.05,7.343,7.343,0,0,0-.027.891V56.349H27.23v-7.8l.31-.055c1.863-.331,2.008-.776,2.01-1.369s-.132-1-1.983-1.35l-.255-.049-.044-.256c-.243-1.414-.623-1.686-1.283-1.71s-1.014.138-1.452,1.783l-.064.244-.25.032c-1.709.221-1.851.625-1.864,1.171a1.372,1.372,0,0,0,.156.764,6.966,6.966,0,0,0,1.3.652c.2.085.4.171.6.264l.218.1v7.644l-1.336,0c-.681,0-1.337,0-1.993,0-2.067.025-3,.946-3.01,2.991-.007.917-.005,1.833,0,2.75l0,7.7-1.444,0c-.734-.005-1.429-.008-2.123.008a10.8,10.8,0,0,0-8.073,3.684A1.22,1.22,0,0,0,6.493,75.3a1.086,1.086,0,0,0,.816.459,1.637,1.637,0,0,0,1.276-.671c2.708-2.972,6.218-2.933,9.3-2.668l.342.03v4.934H15.232c-2.475.008-3.737,1.268-3.749,3.743-.012,2.223-.009,4.444-.007,6.667l0,4.7H6.429V88.567q0-3.507,0-7.014v-.146a5.138,5.138,0,0,0-.057-.961,1.07,1.07,0,0,0-1.142-.962,1.038,1.038,0,0,0-1.19.9,4.76,4.76,0,0,0-.08,1.061c0,1.745,0,3.464,0,5.184l0,4.3c0,.273-.017.548-.032.8l-.028.533-.337.162a.657.657,0,0,1-.316.1c-.267.006-.537.009-.809.013M59.4,9.437H36.686V2.549H59.4Zm7.634,83.057H45.9V82.245H67.031ZM87.243,21.62h13.3v6.327h-13.3Zm-.017,8.952h13.3V92.551l-1.468,0-1.086,0c-.812,0-1.622-.006-2.431-.031-.439-.014-.8-.549-.89-.832a2.106,2.106,0,0,1-.058-.813c.005-.089.01-.178.01-.265l0-30.7c0-.356,0-.713-.028-1.066a2.43,2.43,0,0,0-2.5-2.411c-1-.035-1.993-.027-3.041-.019-.469,0-.943.008-1.427.008h-.375ZM62.038,28.1h.375c.651,0,1.3,0,1.94-.007,1.822-.011,3.545-.02,5.307.047a3.106,3.106,0,0,1,1.793.959c3.891,3.846,8.018,7.97,12.614,12.606a2.163,2.163,0,0,1,.6,1.346c.038,1.254.032,2.519.026,3.857l0,2.417L83.688,48.4c-.221-.2-.4-.363-.572-.534l-3.137-3.132q-5.313-5.3-10.6-10.63a2.947,2.947,0,0,0-2.468-1.011c-1.025.048-2.035.038-3.1.026-.46-.005-.925-.009-1.4-.009h-.375Zm-41.22,30.8H69.25a5.917,5.917,0,0,0,.9-.038,1.159,1.159,0,0,0,1.116-1.286,1.1,1.1,0,0,0-1.18-1.126c-1.5-.026-3-.031-4.5-.024H62.043V35.6l1.532,0c1.126-.006,2.243-.009,3.358.026a1.7,1.7,0,0,1,1.034.614q8.067,8.046,16.1,16.125a2.563,2.563,0,0,1,.6,1.426,10.447,10.447,0,0,1,.035,1.51c-.005.237-.011.485-.011.75v.375l-4.521,0c-1.124,0-2.249-.006-3.373.009-.943.012-1.528.478-1.527,1.216s.6,1.239,1.521,1.243q5.034.021,10.069.01h5.19V92.509H69.637l-.039-.736c-.016-.265-.031-.525-.032-.784V86.778q0-2.679,0-5.357c0-1.318-.383-1.7-1.691-1.7q-11.448-.009-22.9,0c-1.236,0-1.634.4-1.641,1.649-.013,2.2-.011,4.4-.008,6.6v4.495H20.818ZM14.325,80.135a1.564,1.564,0,0,1,1.2-.3c.488.04,1,.029,1.532.021.259-.005.529-.01.81-.01h.375V92.478H14.077l-.067-.614a4.772,4.772,0,0,1-.052-.621q0-1.612,0-3.227c0-2.215.007-4.43-.021-6.645a1.637,1.637,0,0,1,.387-1.236"/>
    <path id="Path_11228" data-name="Path 11228" d="M83.248,63.64H29.512c-1.653,0-1.965.317-1.967,1.994v.984c0,1.857-.006,3.714,0,5.571.006,1.371.4,1.767,1.774,1.768q27.136.012,54.274,0c1.35,0,1.722-.387,1.73-1.793.01-1.842.007-3.683,0-5.524v-.921c0-1.826-.255-2.079-2.08-2.079M36.814,71.419H30.078V66.186h6.736Zm9.124,0H39.455V66.164h6.483Zm9.224-.017H48.569V66.178h6.593Zm9.137,0H57.758V66.191H64.3Zm9.151.021H66.932V66.175H73.45Zm9.342-.01H76.075V66.183h6.717Z" fill="#ffca0a"/>
  </g>
</svg>
