<svg xmlns="http://www.w3.org/2000/svg" xmlns:xlink="http://www.w3.org/1999/xlink" width="114.061" height="92.89" viewBox="0 0 114.061 92.89">
  <defs>
    <clipPath id="clip-path">
      <rect id="Rectangle_3002" data-name="Rectangle 3002" width="114.061" height="92.89" fill="none"/>
    </clipPath>
  </defs>
  <g id="Group_4438" data-name="Group 4438" transform="translate(0 0)">
    <g id="Group_4438-2" data-name="Group 4438" transform="translate(0 0)" clip-path="url(#clip-path)">
      <path id="Path_11229" data-name="Path 11229" d="M33.147,12.626h0a20.508,20.508,0,0,0-14.4,35.083,20.218,20.218,0,0,0,14.316,5.906H33.2a20.495,20.495,0,0,0-.051-40.989m.019,38.413h-.007a17.923,17.923,0,1,1,.007-35.847h.092a17.923,17.923,0,0,1-.092,35.846" transform="translate(0.813 0.81)"/>
      <path id="Path_11230" data-name="Path 11230" d="M58.641,56.749l-2.243-1.2,3.262-5.77.783.587L61.7,51.557Zm-.49-1.71.012.006,1.92-3.26-.06-.056Z" transform="translate(3.621 3.196)" fill="#fff"/>
      <path id="Path_11231" data-name="Path 11231" d="M32.706,85.673l-.059,0a20.236,20.236,0,0,1-8.436-1.976,10.867,10.867,0,0,1-1.419-.879c-1.9-1.387-2.294-2.758-2.3-3.664s.392-2.271,2.27-3.652c.16-.118.325-.234.493-.342,1.98-1.289,2.291-1.282,4.162.056.868.622,1.691,1.178,2.514,1.735.573.388,1.144.775,1.711,1.17a1.527,1.527,0,0,0,1.976.011q.838-.587,1.681-1.169c1.1-.761,2.2-1.521,3.279-2.313a1.806,1.806,0,0,1,2.253-.156c.241.161.49.315.736.468a11.269,11.269,0,0,1,1.739,1.234,4.046,4.046,0,0,1,1.509,2.895,4.136,4.136,0,0,1-1.454,3,11.717,11.717,0,0,1-6.113,2.965c-1.041.214-2.1.335-3.133.452-.453.051-.907.1-1.358.163ZM25.342,75.548c-.343,0-.695.23-1.388.68q-.219.144-.43.3a3.662,3.662,0,0,0-1.751,2.622,3.691,3.691,0,0,0,1.773,2.636,9.731,9.731,0,0,0,1.254.777,18.985,18.985,0,0,0,7.853,1.83c.441-.059.881-.109,1.323-.159,1-.114,2.035-.232,3.02-.435a10.511,10.511,0,0,0,5.479-2.626,2.941,2.941,0,0,0,1.068-2.062,2.842,2.842,0,0,0-1.1-1.974A10.269,10.269,0,0,0,40.9,76.045c-.262-.162-.523-.324-.776-.494-.206-.136-.342-.2-.785.126-1.088.8-2.2,1.568-3.31,2.334-.558.387-1.117.773-1.673,1.163a2.808,2.808,0,0,1-3.441-.007c-.562-.392-1.129-.776-1.7-1.159-.833-.564-1.665-1.128-2.482-1.713-.7-.5-1.042-.746-1.4-.746" transform="translate(1.316 4.761)" fill="#fff"/>
      <path id="Path_11232" data-name="Path 11232" d="M56.813,48.5c-.873,1.686-1.79,3.348-2.754,5.127l3.366,1.8,2.585-4.573.142.107c-1.121-1.066-2.947-2.811-3.318-3.205a.746.746,0,0,1-.051-.07,1.24,1.24,0,0,1,.031.812" transform="translate(3.471 3.061)"/>
      <path id="Path_11233" data-name="Path 11233" d="M57.724,56.481l-4.479-2.4.967-1.784c.718-1.319,1.408-2.588,2.072-3.871a1.155,1.155,0,0,0-.064-.366l-1-3.434L57.348,47.5c.408.441,2.626,2.555,3.3,3.193l-.393.462.366.206Zm-2.746-2.919,2.25,1.2,2.043-3.614c-.592-.563-1.372-1.31-1.978-1.9-.629,1.208-1.282,2.408-1.959,3.653Z" transform="translate(3.419 2.865)" fill="#fff"/>
      <path id="Path_11234" data-name="Path 11234" d="M66.947,42.468A38.589,38.589,0,0,0,67.591,29.1a34.161,34.161,0,0,0-13.9-22.844A33.72,33.72,0,0,0,34.014,0a35.873,35.873,0,0,0-6.4.579A34.1,34.1,0,0,0,.005,33.114,42.521,42.521,0,0,0,4.374,52.282c3.5,7.311,8.823,14.2,16.264,21.065.726.67,1.469,1.324,2.227,1.991l1.712,1.51-1.14.687c-.228.135-.432.255-.63.383-2.554,1.639-4.026,4.776-3.426,7.3A8.033,8.033,0,0,0,23.6,90.3c4.166,2.4,8.907,3.119,14.509,2.216a14.836,14.836,0,0,0,8.468-3.952c2.592-2.6,2.824-5.736.634-8.61A13.814,13.814,0,0,0,45.2,77.97c-.353-.3-.706-.609-1.044-.926l-.5-.474,5.522-5.019-1.306-2.285c-.523.464-1.041.929-1.56,1.394-1.654,1.481-3.363,3.013-5.108,4.453C39.4,76.6,37.475,77.972,35.61,79.3l-.667.476a1.859,1.859,0,0,1-1.873.059C21.36,71.7,13.34,63.251,7.829,53.258A39.824,39.824,0,0,1,2.573,33.032a31.4,31.4,0,0,1,62.44-3.681,33.417,33.417,0,0,1-1.064,14.426c.557-.379,1.07-.727,1.322-.9a2.653,2.653,0,0,1,1.676-.414M28.738,79.975c.867.621,1.691,1.178,2.514,1.736.571.387,1.144.774,1.711,1.168a1.527,1.527,0,0,0,1.976.011c.559-.392,1.121-.779,1.681-1.167,1.1-.761,2.2-1.521,3.279-2.313a1.8,1.8,0,0,1,2.252-.158c.242.162.49.315.737.469a11.2,11.2,0,0,1,1.739,1.234,4.048,4.048,0,0,1,1.509,2.895,4.132,4.132,0,0,1-1.455,3,11.7,11.7,0,0,1-6.112,2.965c-1.041.214-2.1.336-3.133.453-.453.051-.907.1-1.358.162l-.057.007-.059,0a20.242,20.242,0,0,1-8.437-1.975,10.971,10.971,0,0,1-1.418-.879c-1.9-1.387-2.294-2.758-2.3-3.665s.392-2.271,2.27-3.651c.16-.119.325-.234.493-.343,1.98-1.289,2.291-1.282,4.162.056" transform="translate(0 0)"/>
      <path id="Path_11235" data-name="Path 11235" d="M49.331,83.672a3.12,3.12,0,0,0,1.594,2.665,2.571,2.571,0,0,0,2.63-.055c.271-.165.547-.329.823-.493,2.278-1.35,4.43-2.625,4.784-5.482a.818.818,0,0,1,.266-.491l.212-.259L60,79.55a13.167,13.167,0,0,0,8.109-2.3c1.559-.961,3.176-1.877,4.739-2.764q.95-.54,1.9-1.082c.216-.123.44-.233.7-.361l1.258-.632L76.963,75c.122,1.221.242,2.4.344,3.577a3.422,3.422,0,0,0,1.655,2.849,3.349,3.349,0,0,0,3.219-.225c.369-.206.733-.421,1.1-.637.444-.263.889-.526,1.341-.775a3.389,3.389,0,0,0,1.8-2.662c.252-1.625.521-3.247.792-4.869.3-1.819.6-3.636.882-5.458a2.439,2.439,0,0,1,1.336-1.912q6.353-3.616,12.668-7.3l1.328-.762c1.352-.773,2.749-1.571,4.063-2.43,1.976-1.293,3.218-3.27,3.907-6.218V45.645l-.142-.476c-.118-.407-.237-.813-.377-1.213a8.954,8.954,0,0,0-5.321-5.446A9.626,9.626,0,0,0,97.4,39.2q-4.2,2.38-8.368,4.809-3.37,1.949-6.745,3.885a2.314,2.314,0,0,1-1.867.274c-4.365-1.822-8.715-3.681-13.07-5.542L64.288,41.32a1.475,1.475,0,0,0-.976.189c-.709.473-3.464,2.363-3.465,2.363l-.635.451A3.092,3.092,0,0,0,58.159,48c.529.551,2.595,2.518,3.236,3.13l6.642,5.052-1.794,1.027c-1.029.592-2.009,1.155-3,1.7a1.369,1.369,0,0,1-1.222-.1c-1.049-.544-2.093-1.1-3.151-1.667L57.3,56.3l.006-.011-2.17-1.161-.019.04-.563-.331-1.481-.779c-1.076-.565-2.086-1.1-3.088-1.64a3.283,3.283,0,0,0-3.531.062c-.475.283-.952.559-1.432.832-.624.36-1.247.718-1.862,1.1a2.994,2.994,0,0,0-1.128,4.3l4.177,7.275-.017.014,1.76,3.08a6.233,6.233,0,0,1,1.311,3.816c-.076,3.96,0,7.843.068,10.785M67.54,52.643c-.328-.3-.654-.6-.982-.852-1.329-1.011-2.652-2.029-4.032-3.09l-2.5-1.92,1.685-.994c.7-.417,1.357-.812,2.039-1.162a1.989,1.989,0,0,1,1.562-.072c3.1,1.3,6.183,2.629,9.395,4.008l3.7,1.59-2,1.171c-.6.353-1.153.679-1.712.991-.369.205-.743.462-1.117.718a5.772,5.772,0,0,1-3.019,1.339c-.043,0-.085,0-.128,0a5.133,5.133,0,0,1-2.893-1.723m-21.479,7.91-2.1-3.63.53-.326c.282-.172.56-.347.834-.52.711-.45,1.447-.915,2.216-1.3a2.228,2.228,0,0,1,1.794.2l.881.463c3.664,1.924,7.451,3.913,11.134,5.95a2.584,2.584,0,0,0,2.919-.064Q74.55,55.344,84.856,49.408q6.7-3.868,13.4-7.743a6.963,6.963,0,0,1,6-.879,6.185,6.185,0,0,1,4.521,5.547,6.283,6.283,0,0,1-3.331,6.346Q99.764,56,94.061,59.27l-3.226,1.86a4.461,4.461,0,0,1-.557.259l-1.392.6.459-2.783c.271-1.639.534-3.223.78-4.809a3.069,3.069,0,0,0,.039-1.085,1.175,1.175,0,0,0-1.278-.963h-.01c-.621,0-1.087.48-1.214,1.254q-.916,5.547-1.8,11.1L85.214,68.8q-.592,3.732-1.2,7.462a1.963,1.963,0,0,1-.7,1.281c-.541.37-1.112.692-1.718,1.031-.242.136-.49.276-.749.425l-.858.5L78.2,61.006a4.743,4.743,0,0,0-.081-.49,1.273,1.273,0,1,0-2.518.344c.205,2.3.431,4.754.713,7.149a1.906,1.906,0,0,1-1.037,2.161c-2.351,1.313-4.683,2.659-7.014,4.006l-2.546,1.469a8.627,8.627,0,0,1-4.827,1.274l-.8-.036,1.73-6.138c.559-1.983-.265-2.216-.709-2.34a.987.987,0,0,0-.978.119,2.845,2.845,0,0,0-.774,1.458l-.612,2.159c-.667,2.336-1.357,4.752-1.947,7.143A4.675,4.675,0,0,1,54.471,82.6a7.846,7.846,0,0,0-.942.635c-.181.134-.374.276-.583.424l-.936.654-.1-1.6c-.021-.3-.037-.551-.038-.8-.009-1.011-.012-2.022-.016-3.034-.007-2.361-.015-4.8-.085-7.2a5.089,5.089,0,0,0-.62-2.238c-1.658-2.967-3.327-5.845-5.092-8.89" transform="translate(2.668 2.434)" fill="#ffca0a"/>
    </g>
  </g>
</svg>
