<svg xmlns="http://www.w3.org/2000/svg" width="613.678" height="641.609" viewBox="0 0 613.678 641.609">
  <g id="Group_4476" data-name="Group 4476" transform="translate(-1085.322 -6322.47)">
    <path id="Path_10829" data-name="Path 10829" d="M.561,876.635A68.994,68.994,0,0,1,96.4,857.908l16.79,11.3,171.94-33.6a190.38,190.38,0,0,1,142.662,28.9l39.2,26.384,10.821-16.077a3.294,3.294,0,0,1,4.573-.893l129.835,87.39a3.295,3.295,0,0,1-3.68,5.467l-127.1-85.549-93.369,138.717,127.1,85.55a3.3,3.3,0,1,1-3.68,5.467l-129.834-87.389a3.3,3.3,0,0,1-.894-4.573l13.3-19.759-24.118-16.233a72.1,72.1,0,0,0-54.432-11.048l-89.089,17.45a122.36,122.36,0,0,1-91.779-18.561L1.455,881.208a3.3,3.3,0,0,1-.894-4.573m137.766,88.756a116.554,116.554,0,0,0,86.834,17.56l89.089-17.45a78.64,78.64,0,0,1,59.376,12.049l24.118,16.233,65.568-97.415-39.2-26.385a182.608,182.608,0,0,0-137.721-27.9L120.924,874.413l23.32,15.7a116.561,116.561,0,0,0,86.84,17.559l32.738-6.354a3.295,3.295,0,1,1,1.256,6.469l-32.734,6.354a122.365,122.365,0,0,1-91.779-18.561L110.649,875.44l-.009-.006L92.722,863.374A62.4,62.4,0,0,0,7.938,877.628Z" transform="translate(1085.322 5852.545)" fill="#024778"/>
    <path id="Path_10830" data-name="Path 10830" d="M383.3,1234.89a13.468,13.468,0,1,1,18.693-3.653,13.468,13.468,0,0,1-18.693,3.653" transform="translate(1130.477 5638.977)" fill="#024778"/>
    <path id="Path_10831" data-name="Path 10831" d="M668.673,437.038a2.961,2.961,0,0,0,2.958-2.958V402.559a.455.455,0,0,1,.455-.455h92.978a.455.455,0,0,1,.455.455v15.953a2.958,2.958,0,0,0,5.916,0V399.273l.007-.145V395.5c0-27.523,11.107-54.214,31.274-75.154a116.73,116.73,0,0,0,32.252-72.387v-.006a118.672,118.672,0,0,0,.025-17.1c-4.116-57.434-50.518-103.79-107.937-107.827-2.467-.183-5.075-.264-8.458-.264a2.961,2.961,0,0,0-2.957,2.957v56.265a.455.455,0,0,1-.455.455h-.442a9.254,9.254,0,0,1-6.808-3.247,21.834,21.834,0,1,0-19.186,36.329,22.81,22.81,0,0,0,3.122.217,21.52,21.52,0,0,0,15.826-6.88,10.409,10.409,0,0,1,7.486-3.513h0a.456.456,0,0,1,.455.455v38.536a.456.456,0,0,1-.455.455H678.35a2.961,2.961,0,0,0-2.957,2.957v3.393a16.138,16.138,0,0,0,5.385,11.8,15.911,15.911,0,0,1-9.031,27.385,16.855,16.855,0,0,1-1.915.111,15.659,15.659,0,0,1-10.57-4.033,15.907,15.907,0,0,1-.13-23.638,15.1,15.1,0,0,0,5.187-11.188v-3.829a2.961,2.961,0,0,0-2.958-2.957H605.154a2.957,2.957,0,0,0-2.95,3.173,116.906,116.906,0,0,0,32.012,72.121c20.321,21.246,31.513,48.36,31.513,76.345v2.435c-.008.118-.014.2-.014.282V434.08a2.961,2.961,0,0,0,2.958,2.958M718.6,320.994a2.961,2.961,0,0,0-2.957,2.958v71.763a.455.455,0,0,1-.455.455H672.1a.455.455,0,0,1-.455-.452c-.188-29.255-11.961-57.567-33.15-79.721a111.338,111.338,0,0,1-30.058-64.787.455.455,0,0,1,.452-.5h49.063a.455.455,0,0,1,.455.455v.416a9.255,9.255,0,0,1-3.248,6.808,21.822,21.822,0,0,0,14.74,37.962,21.782,21.782,0,0,0,21.587-18.767,21.765,21.765,0,0,0-6.655-18.951,10.329,10.329,0,0,1-3.521-7.467.456.456,0,0,1,.455-.456h33.422a.455.455,0,0,1,.455.455v55.817a2.963,2.963,0,0,0,2.957,2.968h3.393a16.254,16.254,0,0,0,11.816-5.375,15.634,15.634,0,0,1,6.446-4.184,15.918,15.918,0,0,1,5.129-.842,16.653,16.653,0,0,1,2.259.155,15.786,15.786,0,0,1,9.977,5.6,16.425,16.425,0,0,1,1.289,1.786,15.5,15.5,0,0,1,2.286,6.486A15.915,15.915,0,0,1,733.635,326.2q-.29-.315-.592-.615A15.653,15.653,0,0,0,727,321.763a14.049,14.049,0,0,0-4.57-.769Zm109.688-70.288a.454.454,0,0,1,.452.5,111.147,111.147,0,0,1-30.285,65.037c-21.233,22.049-32.928,50.2-32.928,79.257v.211a.455.455,0,0,1-.455.455H722.011a.455.455,0,0,1-.455-.455V327.377a.455.455,0,0,1,.455-.455h.425a8.273,8.273,0,0,1,3.149.633,10.266,10.266,0,0,1,3.248,2.189c.142.141.281.284.417.433a21.84,21.84,0,0,0,37.83-17.279,21.258,21.258,0,0,0-2.175-7.174A22.429,22.429,0,0,0,759,298.435a21.526,21.526,0,0,0-10.539-4.6,23.091,23.091,0,0,0-3.072-.208,21.793,21.793,0,0,0-7.172,1.2l-.06.019c-.184.064-.335.124-.486.184l-.2.078-.2.077c-.117.044-.235.089-.351.138l-.172.079a21.751,21.751,0,0,0-7.256,5.112,10.383,10.383,0,0,1-7.475,3.512h0a.455.455,0,0,1-.455-.455v-52.4a.455.455,0,0,1,.455-.455h36.834a2.961,2.961,0,0,0,2.958-2.958v-3.855a15.027,15.027,0,0,0-5.219-11.193,15.9,15.9,0,0,1,.132-23.626,15.685,15.685,0,0,1,10.594-4.039,17,17,0,0,1,1.916.11,15.911,15.911,0,0,1,9.022,27.4,16.115,16.115,0,0,0-5.372,11.787v3.418a2.961,2.961,0,0,0,2.958,2.958Zm-60.907-51.583a21.823,21.823,0,0,0-14.766,37.96,9.916,9.916,0,0,1,2.938,4.5,8.153,8.153,0,0,1,.337,2.308v.442a.455.455,0,0,1-.455.455H722.011a.455.455,0,0,1-.455-.455V202.387a2.961,2.961,0,0,0-2.958-2.957h-3.393A16.253,16.253,0,0,0,703.39,204.8a15.7,15.7,0,0,1-11.552,5.016,16.631,16.631,0,0,1-2.286-.159,15.922,15.922,0,1,1,14.01-26.484,15.084,15.084,0,0,0,11.181,5.18H718.6a2.961,2.961,0,0,0,2.958-2.958v-56.23a.456.456,0,0,1,.455-.455h.01c1.664.038,3.172.108,4.608.214,54.506,3.832,98.556,47.835,102.463,102.353a109.956,109.956,0,0,1,.159,13.076.456.456,0,0,1-.455.434H779.247a.455.455,0,0,1-.455-.455,10.3,10.3,0,0,1,3.507-7.481,21.774,21.774,0,0,0,6.669-18.956A21.994,21.994,0,0,0,769.9,199.268a22.233,22.233,0,0,0-2.517-.144" transform="translate(601.607 6253.139)" fill="#024778"/>
    <path id="Path_10832" data-name="Path 10832" d="M1049.62,181.363A21.825,21.825,0,0,0,1059,139.81a10.332,10.332,0,0,1-5.648-6.021.454.454,0,0,1,.292-.574l35.046-11.338a2.957,2.957,0,0,0,1.9-3.725l-13.963-43.16a2.954,2.954,0,0,0-3.724-1.9l-3.228,1.045a16.254,16.254,0,0,0-9.587,8.751,15.778,15.778,0,0,1-11.671,8.88,15.328,15.328,0,0,1-2.718.243,16.072,16.072,0,0,1-14.444-9.25,15.911,15.911,0,0,1,14.424-22.6,15.993,15.993,0,0,1,7.916,2.1,15.919,15.919,0,0,0,7.865,2.174,14.157,14.157,0,0,0,4.368-.687l3.668-1.186a2.958,2.958,0,0,0,1.9-3.724l-18.37-56.78a2.954,2.954,0,0,0-3.724-1.9A116.708,116.708,0,0,0,974.153,147.1c.839,2.593,1.781,5.064,2.938,7.977a2.952,2.952,0,0,0,3.659,1.722l50.232-16.251a.465.465,0,0,1,.141-.022.456.456,0,0,1,.433.316l.128.4a9.257,9.257,0,0,1-.995,7.477,21.811,21.811,0,0,0,18.93,32.652m22-101.618a.455.455,0,0,1,.433.315l11.862,36.665a.455.455,0,0,1-.293.573l-35.046,11.338a2.958,2.958,0,0,0-1.9,3.725l1.045,3.228a16.141,16.141,0,0,0,8.755,9.569,15.93,15.93,0,0,1-6.847,30.309h0a15.919,15.919,0,0,1-13.8-23.813,15.1,15.1,0,0,0,1.492-12.242l-1.179-3.643a2.954,2.954,0,0,0-3.725-1.9l-50.418,16.312a.461.461,0,0,1-.14.022.455.455,0,0,1-.425-.293c-.661-1.737-1.183-3.208-1.644-4.631a110.793,110.793,0,0,1,68.1-138.4.455.455,0,0,1,.586.289L1064.72,57.4a.455.455,0,0,1-.293.573l-.42.136a8.229,8.229,0,0,1-2.535.395,10.032,10.032,0,0,1-4.942-1.389,21.925,21.925,0,0,0-10.855-2.878,21.659,21.659,0,0,0-6.676,1.05,21.847,21.847,0,0,0-13.13,29.914,22.1,22.1,0,0,0,19.867,12.716,21.008,21.008,0,0,0,3.723-.333,21.606,21.606,0,0,0,15.977-12.172,10.408,10.408,0,0,1,6.042-5.647.447.447,0,0,1,.141-.023" transform="translate(186.76 6322.47)" fill="#ffd729"/>
  </g>
</svg>
