<svg xmlns="http://www.w3.org/2000/svg" width="1921.032" height="204" viewBox="0 0 1921.032 204">
  <g id="Group_4475" data-name="Group 4475" transform="translate(0.058 -1176)">
    <path id="Path_3489" data-name="Path 3489" d="M-50.285,2582.124c-91.873-22.445-98.663,43.672-171.15-4.084s-94.428-68.754-206.128-20.518-158.3,83.53-306.75,28.731-162.177-38.512-423.674,16.941c-210.243,44.584-359.521-53.51-478.239-76.643" transform="translate(1636.455 -1292.541)" fill="none" stroke="#ffd729" stroke-width="3"/>
    <path id="Path_10834" data-name="Path 10834" d="M-20454.527,1961.258c10.99-2.62,31.148-6.122,35.51-6.168,26.7-.282,39.445,10.772,71.541,10.335s39.439-6.716,39.439-6.716" transform="translate(22228.037 -631.085)" fill="none" stroke="#ffd729" stroke-width="3"/>
    <g id="Group_4347" data-name="Group 4347" transform="translate(20 -107)">
      <g id="Group_4178" data-name="Group 4178" transform="translate(-21 425)">
        <path id="Path_10714" data-name="Path 10714" d="M-20501.723,1375.951a26.19,26.19,0,0,1-12.168,6.139c-7.225,1.351-13.293.416-14.662,2.25s-5.836,10.326-5.643,11.581,3.162,3.916,5.643,4.881,12.109-3.763,16.74-2.73a73.429,73.429,0,0,1,14.221,4.579,27.507,27.507,0,0,0,12.357,2.02c2.146-.384,13.574-8.749,13.574-8.749" transform="translate(22232 -508)" fill="none" stroke="#ffd729" stroke-width="3"/>
        <path id="Path_10715" data-name="Path 10715" d="M-20455.687,1416.063s-10.762,4.837-19.461,6.548-10.105,2.168-18.777,0-8.986-11.336-16.154-11.336-14.771.1-19.439,2.778-9.605,11.116-8.6,14.052.666,15.561,4.18,17.825,14.658,7.379,21.139,8.671,10.813-.166,16.162,0,8.1.933,8.438,6.673,3.781,16.961,7.205,22.406a41.474,41.474,0,0,1,5.844,13.011c1.234,4.559-1.854,12.838,0,15.58s14.725,12.592,14.725,12.592" transform="translate(22232 -508)" fill="none" stroke="#ffd729" stroke-width="3"/>
        <path id="Path_10716" data-name="Path 10716" d="M-20599.867,1450.717s-16.256,12.087-17.232,15.022,1.371,12.009,6.525,19.424,11.5,4.631,14.143,7.173,2.436,30.161,3.5,33.346,5.586,13.113,5.779,15.719,11.139,7.283,11.332,5.453-2.982-14.526,0-16.579,13.883-8.656,14.268-10.7-2.844-8.578,0-10.624,11.283-11.437,12.2-13.329,3.828-13.087,3.252-14.681-6.965-.491-10.693-1.7-6.619-14.886-13.141-15.832-20.57.375-22.992-1.381S-20599.867,1450.717-20599.867,1450.717Z" transform="translate(22232 -508)" fill="none" stroke="#ffd729" stroke-width="3"/>
        <path id="Path_10833" data-name="Path 10833" d="M-20599.252,1798.751s-1.119,1.457,3.113,3.333,11.762,5.448,14.9,5.573,9-.58,8.723,1.152-2.3,3.485-8.723,9.459-15.361,15.629-18.016,20.514-15.492,8.841-21.609,10.135-12.824.228-14.229,4.128-3.365,5.767-1.973,9.33,5.828,7.429,6.389,9.982,1.232,11.252-.885,11.056-9.119-3.451-10.453-5.4-3.371-1.7-5.437-5.652-8.041-11.43-8.316-13.372-1.445-6.9-1.445-6.9" transform="translate(22253 -933)" fill="none" stroke="#ffd729" stroke-width="3"/>
      </g>
      <g id="Ellipse_126" data-name="Ellipse 126" transform="translate(1565 1283)" fill="none" stroke="#ffd729" stroke-width="3">
        <circle cx="102" cy="102" r="102" stroke="none"/>
        <circle cx="102" cy="102" r="100.5" fill="none"/>
      </g>
    </g>
  </g>
</svg>
