<?xml version="1.0" encoding="UTF-8" standalone="no"?>
<!-- Created with Inkscape (http://www.inkscape.org/) -->

<svg
   version="1.1"
   id="svg2"
   width="512"
   height="512"
   viewBox="0 0 512 512"
   sodipodi:docname="email.png"
   inkscape:export-filename="email.svg"
   inkscape:export-xdpi="96"
   inkscape:export-ydpi="96"
   xmlns:inkscape="http://www.inkscape.org/namespaces/inkscape"
   xmlns:sodipodi="http://sodipodi.sourceforge.net/DTD/sodipodi-0.dtd"
   xmlns="http://www.w3.org/2000/svg"
   xmlns:svg="http://www.w3.org/2000/svg">
  <defs
     id="defs6" />
  <sodipodi:namedview
     id="namedview4"
     pagecolor="#ffffff"
     bordercolor="#000000"
     borderopacity="0.25"
     inkscape:showpageshadow="2"
     inkscape:pageopacity="0.0"
     inkscape:pagecheckerboard="0"
     inkscape:deskcolor="#d1d1d1"
     showgrid="false" />
  <g
     inkscape:groupmode="layer"
     inkscape:label="Image"
     id="g8">
    <path
       style="opacity:1;fill:#ffd729;fill-opacity:1;stroke:none;stroke-width:0;stroke-dasharray:none"
       d="m 34.008756,434.39295 c -3.020183,-0.81149 -5.888194,-1.87239 -6.373357,-2.35755 -0.509485,-0.50949 31.456437,-33.33576 75.672071,-77.70876 L 179.86165,277.5 l 23.31918,23.11364 c 12.82554,12.7125 25.19625,24.28329 27.49046,25.71286 10.00328,6.23325 26.16167,8.68047 37.3762,5.66071 11.19664,-3.01494 15.51518,-6.32565 40.25782,-30.86281 l 23.80531,-23.60761 76.61935,76.76694 c 46.87149,46.96178 76.26035,77.12534 75.69469,77.69004 -0.50856,0.5077 -3.6067,1.6213 -6.88476,2.47466 -5.30074,1.37992 -29.86019,1.54429 -222,1.48576 -187.144665,-0.057 -216.774351,-0.26315 -221.531144,-1.54124 z M 2.3303667,404.75 C 0.58943813,399.75653 0.5,392.48809 0.5,256 0.5,119.51191 0.58943813,112.24347 2.3303667,107.25 3.3370684,104.3625 4.4631641,102 4.8328018,102 5.2024394,102 40.152679,136.65 82.5,179 L 159.49513,256 82.5,333 C 40.152679,375.35 5.2024394,410 4.8328018,410 4.4631641,410 3.3370684,407.6375 2.3303667,404.75 Z M 429.50645,333.00645 352.51776,256.01289 429.50005,179.00645 C 471.84031,136.6529 506.78764,102 507.1608,102 c 0.37316,0 1.50213,2.3625 2.50883,5.25 1.74093,4.99347 1.83037,12.26191 1.83037,148.75 0,136.48809 -0.0894,143.75653 -1.83037,148.75 -1.0067,2.8875 -2.13279,5.25 -2.50243,5.25 -0.36964,0 -35.31698,-34.6471 -77.66075,-76.99355 z M 248.5,301.58472 C 244.38831,299.75228 26.457562,81.142004 27.602816,79.998754 28.096267,79.506167 31.182044,78.404934 34.460099,77.55157 39.756776,76.172706 64.416481,76 256,76 c 191.58352,0 216.24322,0.172706 221.5399,1.55157 3.27806,0.853364 6.38058,1.971343 6.8945,2.484398 1.24731,1.245215 -216.78169,219.692812 -221.15228,221.576872 -4.02973,1.73713 -10.85031,1.72415 -14.78212,-0.0281 z"
       id="path170" />
  </g>
</svg>
