<?xml version="1.0" encoding="UTF-8" standalone="no"?>
<!-- Created with Inkscape (http://www.inkscape.org/) -->

<svg
   version="1.1"
   id="svg195"
   width="547"
   height="547"
   viewBox="0 0 547 547"
   sodipodi:docname="phone-call.png"
   inkscape:export-filename="phone-call.svg"
   inkscape:export-xdpi="96"
   inkscape:export-ydpi="96"
   xmlns:inkscape="http://www.inkscape.org/namespaces/inkscape"
   xmlns:sodipodi="http://sodipodi.sourceforge.net/DTD/sodipodi-0.dtd"
   xmlns="http://www.w3.org/2000/svg"
   xmlns:svg="http://www.w3.org/2000/svg">
  <defs
     id="defs199" />
  <sodipodi:namedview
     id="namedview197"
     pagecolor="#ffffff"
     bordercolor="#000000"
     borderopacity="0.25"
     inkscape:showpageshadow="2"
     inkscape:pageopacity="0.0"
     inkscape:pagecheckerboard="0"
     inkscape:deskcolor="#d1d1d1"
     showgrid="false" />
  <g
     inkscape:groupmode="layer"
     inkscape:label="Image"
     id="g201">
    <path
       style="fill:#ffd729;fill-opacity:1"
       d="M 409.5,545.32443 C 366.43879,539.92882 319.71142,520.53422 267,486.1786 208.25176,447.88836 145.23859,390.00114 97.535994,330.5 45.591646,265.70798 12.18595,200.57447 2.9095803,146 1.1514991,135.65691 0.86936758,130.82543 1.2745344,118 1.8444906,99.958204 3.0812845,94.476955 9.6232478,81 14.230544,71.508611 14.262942,71.471802 45.367362,40.389555 74.233587,11.543906 77.04599,9.0151284 84,5.6529308 c 18.98373,-9.1784507 40.58245,-6.61293122 58,6.8893012 3.025,2.345006 23.29539,22.194824 45.04531,44.110708 32.23351,32.479466 40.13208,40.971502 42.71881,45.92851 10.7213,20.54552 7.46446,44.15857 -8.26412,59.91723 -5.88118,5.89243 -9.00927,7.77355 -24.85314,14.94574 C 179.38952,185.25647 167,204.05195 167,222.4201 c 0,5.17302 4.47793,21.1337 8.89357,31.69933 9.70192,23.21449 33.51978,54.55051 57.89422,76.16864 14.28246,12.66738 19.22346,16.48052 32.96536,25.44053 12.74979,8.31313 22.99591,13.40553 36.74685,18.26346 19.90403,7.03169 40.67849,2.52173 55.47022,-12.04212 3.45887,-3.40559 6.82623,-7.98701 8.48755,-11.54763 7.9445,-17.02706 9.80339,-20.41743 13.49256,-24.60854 7.11729,-8.08568 18.18113,-13.81789 30.45445,-15.77856 9.71466,-1.55192 19.25944,0.0943 29.59522,5.10436 8.3678,4.05613 9.1707,4.79104 51.62279,47.25032 26.60783,26.61234 44.16269,44.94472 45.8381,47.86829 7.31168,12.75883 8.70803,29.9537 3.61961,44.5726 -1.591,4.57093 -4.14657,10.19593 -5.67903,12.5 -1.53247,2.30407 -16.31221,17.74314 -32.84388,34.30904 -32.18092,32.24754 -35.81204,35.14485 -49.96122,39.8646 -11.49785,3.83535 -30.75216,5.51206 -44.09637,3.84001 z"
       id="path1628" />
  </g>
</svg>
