<svg xmlns="http://www.w3.org/2000/svg" xmlns:xlink="http://www.w3.org/1999/xlink" width="69.228" height="69.204" viewBox="0 0 69.228 69.204">
  <defs>
    <clipPath id="clip-path">
      <rect id="Rectangle_2933" data-name="Rectangle 2933" width="69.228" height="69.204" transform="translate(0 0)" fill="none"/>
    </clipPath>
  </defs>
  <g id="Group_4378" data-name="Group 4378" transform="translate(0 0)">
    <g id="Group_4378-2" data-name="Group 4378" clip-path="url(#clip-path)">
      <path id="Path_10988" data-name="Path 10988" d="M.688,69.2A1.7,1.7,0,0,1,0,67.637Q.028,56.216.012,44.795c0-1.241.312-1.552,1.555-1.552h9.865c1.242,0,1.527.285,1.559,1.551,0,.086.015.173.033.366a7.12,7.12,0,0,0,3.333-3.882c1.382-4.657,2.7-9.331,4.048-14,.366-1.27.743-1.506,2.055-1.28,3.384.583,5.566,3.165,5.631,6.891a35.268,35.268,0,0,1-.438,4.494c-.136,1.206-.3,2.41-.46,3.694H40.655A4.371,4.371,0,0,1,45.187,44c.646,1.871.038,3.607-1.76,5.022a.659.659,0,0,0-.087.1,4.47,4.47,0,0,1-1.113,6.5,4.373,4.373,0,0,1,.907,3.466A4.254,4.254,0,0,1,41.3,61.971a16.272,16.272,0,0,1,.783,2.642,4.182,4.182,0,0,1-2.858,4.342c-.23.08-.458.166-.687.249h-19.6l-5.652-1.75-.972,1.75ZM22.44,28.265c-.075.222-.161.449-.228.681-1.225,4.281-2.437,8.566-3.683,12.84a7.092,7.092,0,0,1-.8,1.768,8.371,8.371,0,0,1-4.712,3.9v17.7c1.918.546,3.818,1.093,5.723,1.625a4.814,4.814,0,0,0,1.246.251q8.886.025,17.772.008a2.164,2.164,0,1,0-.031-4.321c-1.307-.009-2.613,0-3.92,0-.853,0-1.346-.405-1.346-1.08s.492-1.078,1.345-1.08c1.577,0,3.154,0,4.73,0s2.559-.833,2.569-2.147-.986-2.178-2.535-2.18c-1.239,0-2.477.005-3.716,0-.815,0-1.291-.392-1.312-1.047-.021-.679.476-1.109,1.313-1.112,1.622-.006,3.244,0,4.866,0a2.18,2.18,0,1,0,.031-4.326c-1.307,0-2.613.009-3.919,0a1.086,1.086,0,1,1,0-2.156c1.734-.01,3.469,0,5.2-.007a2.164,2.164,0,1,0-.107-4.321q-7.332-.01-14.663,0c-1.05,0-1.483-.453-1.362-1.445.236-1.921.532-3.836.723-5.762a21.066,21.066,0,0,0,.159-4.087,4.011,4.011,0,0,0-3.352-3.682M10.8,45.454H2.229V67H10.8Z"/>
      <path id="Path_10989" data-name="Path 10989" d="M69.229,27.693c-.388,1.379-.666,2.8-1.178,4.129-3.178,8.261-9.119,13.354-17.756,15.284a1.465,1.465,0,0,1-1.037-.05A1.673,1.673,0,0,1,48.611,46c-.047-.539.391-.847.929-.994a29.292,29.292,0,0,0,3.683-1.075c8.073-3.38,12.8-9.422,13.7-18.137a21.6,21.6,0,0,0-42.862-5.2c-.143.978-.189,1.972-.247,2.96-.048.8-.423,1.285-1.074,1.3-.675.01-1.092-.5-1.092-1.333A23.63,23.63,0,0,1,41.229.392C51.443-1.246,59.636,2.264,65.592,10.766a22.029,22.029,0,0,1,3.5,8.708c.032.173.091.341.139.512Z" fill="#ffc810"/>
      <path id="Path_10990" data-name="Path 10990" d="M12.314,69.2l.972-1.75,5.652,1.75Z" fill="#fff"/>
      <path id="Path_10991" data-name="Path 10991" d="M15.129,14c.093-.874-.254-1.986,1.1-2.113.751-.071.981.4,1.135,2.119.842.112,2.137-.266,2.074,1.183-.055,1.276-1.227.951-2.082,1.023-.122.872.251,2.13-1.146,2.108-1.338-.021-.981-1.236-1.074-2.054-1.8-.25-2.169-.459-2.138-1.195s.458-.961,2.133-1.071"/>
      <path id="Path_10992" data-name="Path 10992" d="M57.359,56.248c-.088,1.672-.359,2.159-1.143,2.133-.752-.025-.986-.473-1.076-2.158h-.7c-.921-.006-1.417-.377-1.429-1.066s.493-1.09,1.395-1.1c.223,0,.446,0,.736,0,.108-.882-.268-2.175,1.173-2.122,1.283.048.963,1.217,1.031,2.076.855.141,2.121-.251,2.108,1.142-.013,1.343-1.222,1-2.095,1.092"/>
      <path id="Path_10993" data-name="Path 10993" d="M45.71,30.07c0,.684.008,1.357,0,2.029-.012.74-.4,1.174-1.014,1.174s-1-.434-1.009-1.175c-.01-.672,0-1.344,0-2.028A3.842,3.842,0,0,1,40.1,27.033a2.706,2.706,0,0,1-.07-.6,1,1,0,0,1,.882-1.154c.6-.065.987.323,1.152.98a2.951,2.951,0,0,0,.6,1.3c.637.67,3.355.679,4.02.029a1.924,1.924,0,0,0,.609-1.146c.081-2.41.263-2.212-1.839-2.89-1.027-.331-2.056-.657-3.083-.99a3.039,3.039,0,0,1-2.352-3.208c0-.541,0-1.081,0-1.622a3.4,3.4,0,0,1,3.311-3.552c.087-.007.173-.025.344-.05,0-.628,0-1.251,0-1.874,0-.876.335-1.316.993-1.326.678-.01,1.03.45,1.034,1.357,0,.6,0,1.208,0,1.817a11.568,11.568,0,0,1,1.235.23,3.4,3.4,0,0,1,2.416,3.1,1.017,1.017,0,1,1-2.02.2c-.167-1.03-.6-1.412-1.613-1.423-.744-.008-1.488-.016-2.231,0a1.365,1.365,0,0,0-1.439,1.448c-.016.585.012,1.172-.008,1.757a1.08,1.08,0,0,0,.873,1.184c1.353.421,2.7.866,4.042,1.313a3.048,3.048,0,0,1,2.4,3.306A8.58,8.58,0,0,1,49.3,26.9,3.8,3.8,0,0,1,45.71,30.07" fill="#ffc810"/>
    </g>
  </g>
</svg>
