<svg xmlns="http://www.w3.org/2000/svg" xmlns:xlink="http://www.w3.org/1999/xlink" width="63.492" height="63.495" viewBox="0 0 63.492 63.495">
  <defs>
    <clipPath id="clip-path">
      <rect id="Rectangle_2934" data-name="Rectangle 2934" width="63.492" height="63.495" fill="none"/>
    </clipPath>
  </defs>
  <g id="Group_4379" data-name="Group 4379" transform="translate(0 0)">
    <g id="Group_4379-2" data-name="Group 4379" transform="translate(0 0)" clip-path="url(#clip-path)">
      <path id="Path_10994" data-name="Path 10994" d="M50.837,17.167c-.649,0-1.3.012-1.948,0a.935.935,0,0,1-1.026-.949.925.925,0,0,1,.956-1.022q2.009-.046,4.022,0a.986.986,0,1,1-.055,1.971c-.649.016-1.3,0-1.948,0" transform="translate(4.728 1.498)" fill="#ffc810"/>
      <path id="Path_10995" data-name="Path 10995" d="M50.792,24.39c-.629,0-1.257.012-1.886,0a.99.99,0,1,1-.045-1.978c1.3-.029,2.6-.026,3.9,0a.993.993,0,1,1-.018,1.981c-.649.014-1.3,0-1.948,0" transform="translate(4.728 2.211)" fill="#ffc810"/>
      <path id="Path_10996" data-name="Path 10996" d="M50.8,31.609c-.629,0-1.257.011-1.886,0a.943.943,0,0,1-1.048-.99.928.928,0,0,1,1-.982q1.979-.036,3.959,0a.941.941,0,0,1,.991.993.952.952,0,0,1-1.064.979c-.649.014-1.3,0-1.948,0" transform="translate(4.728 2.925)" fill="#ffc810"/>
      <path id="Path_10997" data-name="Path 10997" d="M50.809,38.727c-.649,0-1.3.013-1.947,0a.973.973,0,1,1-.015-1.946q1.978-.036,3.957,0a.93.93,0,0,1,1.005.968.942.942,0,0,1-1.053.982c-.649.014-1.3,0-1.947,0" transform="translate(4.728 3.631)" fill="#ffc810"/>
      <path id="Path_10998" data-name="Path 10998" d="M43.544,31.6c-.377,0-.756.025-1.131-.007a.913.913,0,0,1-.874-.967.869.869,0,0,1,.8-.966,16.735,16.735,0,0,1,2.382,0,.868.868,0,0,1,.783.978.911.911,0,0,1-.892.952c-.354.03-.712.005-1.068.005" transform="translate(4.104 2.926)" fill="#ffc810"/>
      <path id="Path_10999" data-name="Path 10999" d="M43.505,24.379c-.356,0-.713.021-1.067,0a.889.889,0,0,1-.89-.885c-.045-.52.179-.968.718-1.012a15.616,15.616,0,0,1,2.555,0c.509.042.705.5.678.982a.887.887,0,0,1-.864.911c-.374.034-.753.007-1.13.008" transform="translate(4.104 2.215)" fill="#ffc810"/>
      <path id="Path_11000" data-name="Path 11000" d="M43.464,17.166c-.314,0-.63.015-.943,0a.986.986,0,0,1-.048-1.967,18.228,18.228,0,0,1,2.136,0,.983.983,0,0,1-.077,1.962c-.355.019-.712,0-1.068,0" transform="translate(4.107 1.498)" fill="#ffc810"/>
      <path id="Path_11001" data-name="Path 11001" d="M54.558,54.567h0c0-.118,0-.231,0-.347v-.871l.01-.021c0-.387,0-.771-.02-1.154a8.678,8.678,0,0,0-5.232-7.825c-1.132-.537-2.333-.932-3.505-1.383-2.912-1.122-5.821-2.25-8.742-3.347-.427-.16-.613-.366-.545-.811a2.037,2.037,0,0,0,0-.441c-.157-2.325-.038-4.591,1.331-6.611A2.947,2.947,0,0,0,38.165,31a3.25,3.25,0,0,1,1.524-2.185,3.632,3.632,0,0,0,1.41-1.861,44.754,44.754,0,0,0,1.573-5.15,2.716,2.716,0,0,0-.974-2.885.453.453,0,0,1-.144-.359c.394-2.094.8-4.19,1.226-6.37a.675.675,0,0,1,.007-.1,7.671,7.671,0,0,0-.619-1.914,6.372,6.372,0,0,1-.479-1.2,5.729,5.729,0,0,0-4.242-3.731,1.222,1.222,0,0,1-.679-.54A8.5,8.5,0,0,0,31.145.51a18.714,18.714,0,0,0-9.214.137C16.907,2,13.832,5.2,12.92,10.352a21.048,21.048,0,0,0,.276,7.816c.06.305.153.578-.205.822a2.262,2.262,0,0,0-1.008,2.118,16.961,16.961,0,0,0,.39,2.41,11.249,11.249,0,0,0,1.593,4.2,12.068,12.068,0,0,0,1.611,1.533,2.342,2.342,0,0,1,.555.653C16.76,31.3,17.355,32.7,17.959,34.1a1.643,1.643,0,0,1,.2.577c.016,1.551.009,3.1.009,4.712-.273.111-.5.209-.737.3-3.961,1.544-7.951,3.019-11.877,4.649A8.43,8.43,0,0,0,.042,52.463c-.08,3.271-.02,6.546-.016,9.818,0,.9.308,1.213,1.206,1.213q26.06,0,52.117,0c.9,0,1.208-.3,1.21-1.206.005-1.678,0-3.357,0-5.035h0ZM37.9,42.081c-.91,2.158-1.78,4.218-2.674,6.338L29.5,46.77c-.032-.056-.065-.112-.1-.168a3.022,3.022,0,0,0,.421-.259c1.85-1.611,3.7-3.219,5.536-4.847a.661.661,0,0,1,.83-.137c.544.255,1.108.469,1.715.723M27.3,45.943l-3.833-3.2c-1.03-.859-2.064-1.713-3.083-2.583a.827.827,0,0,1-.316-.49c-.033-.83-.015-1.66-.015-2.617,3.95,3.761,9.708,4.484,14.478.04,0,.858.005,1.642-.008,2.424a.491.491,0,0,1-.163.316c-2.339,2.031-4.684,4.056-7.06,6.108M17.618,28.286a.934.934,0,0,0-.905-.847c-.322-.047-.792-.262-.882-.513q-.969-2.711-1.786-5.479a.749.749,0,0,1,.7-1.032c.676-.1.958-.638.783-1.381a25.679,25.679,0,0,1-.771-6.6A9.807,9.807,0,0,1,21.7,2.825a14.165,14.165,0,0,1,5.48-.807,9.625,9.625,0,0,1,4.335.657,7.53,7.53,0,0,1,3.919,3.644,1.409,1.409,0,0,0,.83.649c2.859.7,3.941,2.012,4.05,5.013a19.608,19.608,0,0,1-.944,6.187c-.088.3-.2.6-.268.9a.92.92,0,0,0,.723,1.235.837.837,0,0,1,.727,1.15c-.454,1.608-.924,3.213-1.461,4.794A1.431,1.431,0,0,1,37.571,27.4c-.477-.03-.675.385-.779.841a14.952,14.952,0,0,1-3.39,6.921,8.041,8.041,0,0,1-6.874,2.877,8.438,8.438,0,0,1-6-3.413,15.187,15.187,0,0,1-2.906-6.342m.939,13.087a.471.471,0,0,1,.392.078c2.053,1.723,4.1,3.455,6.26,5.284l-6.141,1.69c-.857-2.071-1.708-4.128-2.58-6.239.719-.286,1.389-.564,2.069-.813m2,20.145c-5.058-.016-10.114-.01-15.172-.01H2.014V59.864c0-2.371-.005-4.742,0-7.114A6.836,6.836,0,0,1,6.6,46.056c2.517-.981,5.041-1.947,7.563-2.918.133-.051.27-.089.443-.146.892,2.106,1.775,4.188,2.656,6.269.09.212.17.429.269.637a1.037,1.037,0,0,0,1.377.657c.772-.192,1.531-.445,2.307-.612a.821.821,0,0,1,.672.214c.69.818,1.354,1.659,1.976,2.528a.992.992,0,0,1,.075.785c-.848,2.5-1.74,4.983-2.587,7.483a.7.7,0,0,1-.8.566m2.822-.047c.077-.268.136-.505.215-.737.81-2.379,1.6-4.767,2.453-7.129a1.729,1.729,0,0,0-.375-1.945c-.665-.748-1.265-1.553-1.972-2.429,1.26-.344,2.368-.649,3.478-.946a.752.752,0,0,1,.372-.013c1.105.3,2.209.612,3.484.969A19.561,19.561,0,0,1,29.2,51.482a1.95,1.95,0,0,0-.514,2.415c.835,2.259,1.614,4.538,2.412,6.81.082.234.141.477.223.764Zm29.113-.233a1.242,1.242,0,0,1-.058.238c-.213.011-.435.031-.658.031-5.892,0-11.783-.007-17.675.014a.769.769,0,0,1-.881-.626c-.836-2.479-1.708-4.946-2.585-7.41a.818.818,0,0,1,.143-.908c.655-.79,1.256-1.625,1.92-2.409a.839.839,0,0,1,.672-.23c.636.118,1.256.324,1.883.486.869.223,1.231.043,1.571-.77q1.307-3.13,2.613-6.259c.079-.189.168-.372.286-.631,3.021,1.187,6.01,2.233,8.887,3.529a6.362,6.362,0,0,1,3.861,5.949c.089,3,.023,6,.022,8.995" transform="translate(0 0)"/>
      <path id="Path_11002" data-name="Path 11002" d="M49.663,48.533l-.01.021v.871c0-.3.007-.6.01-.892" transform="translate(4.905 4.794)" fill="#ffc810"/>
      <path id="Path_11003" data-name="Path 11003" d="M50.812,55.754c1.987,0,3.874.005,5.762,0a2.936,2.936,0,0,0,3.168-3.188q0-20.016,0-40.031a3.925,3.925,0,0,0-.077-.872,3,3,0,0,0-3.157-2.338q-8.749-.008-17.5.008c-.488,0-.718-.1-.872-.616-.057-.187-.126-.362-.193-.537a6.372,6.372,0,0,0,.479,1.2,7.671,7.671,0,0,1,.619,1.914.682.682,0,0,0-.007.1c.011-.059.022-.115.033-.175h.51q8.467,0,16.931,0c1.214,0,1.46.252,1.46,1.486q0,19.669-.007,39.338c0,1.208-.545,1.809-1.7,1.75-1.777-.088-3.561-.023-5.449-.023v2.685h0Z" transform="translate(3.748 0.807)" fill="#ffc810"/>
    </g>
  </g>
</svg>
