<svg xmlns="http://www.w3.org/2000/svg" xmlns:xlink="http://www.w3.org/1999/xlink" width="66.945" height="66.96" viewBox="0 0 66.945 66.96">
  <defs>
    <clipPath id="clip-path">
      <rect id="Rectangle_2929" data-name="Rectangle 2929" width="66.945" height="66.96" fill="none"/>
    </clipPath>
  </defs>
  <g id="Group_4375" data-name="Group 4375" transform="translate(0 0)">
    <g id="Group_4375-2" data-name="Group 4375" transform="translate(0 0)" clip-path="url(#clip-path)">
      <path id="Path_10971" data-name="Path 10971" d="M1.218,65.311H1.211A1.258,1.258,0,0,0,0,65.856v.559a1.267,1.267,0,0,0,1.213.545q29.572-.014,59.139-.01l5.5,0a2.648,2.648,0,0,0,.316-.009.793.793,0,0,0,.768-.824.77.77,0,0,0-.761-.787,4.8,4.8,0,0,0-.66-.011c-.117,0-.24.006-.371.006h-.171V64.4q0-2.074,0-4.148c0-3.1.008-6.3-.01-9.45a9.5,9.5,0,0,0-6.045-9.23c-1.056-.474-2.112-.921-3.229-1.394-.517-.218-1.043-.44-1.579-.671l-.393-.167.4-.149a8.033,8.033,0,0,0,3.964-2.971A7.672,7.672,0,0,0,57.877,27a11.736,11.736,0,0,1-2.653-7.82,42.092,42.092,0,0,0-.264-6.586A15.235,15.235,0,0,0,42.744.262c-.327-.053-.653-.116-.978-.179L41.333,0,38.5,0l-.108.033a2.041,2.041,0,0,1-.322.086,15.191,15.191,0,0,0-12.58,10.124A14.453,14.453,0,0,0,24.6,15.4c0,.29-.008.58-.013.87-.013.832-.027,1.694.02,2.535a11.815,11.815,0,0,1-2.751,8.187,7.664,7.664,0,0,0-1.4,6.742A7.841,7.841,0,0,0,25.14,39c.1.04.193.088.316.148l.566.274-1.938.84c-1.111.479-2.184.944-3.254,1.417a9.49,9.49,0,0,0-6.085,9.2c-.028,2.612-.02,5.269-.014,7.838q.005,1.532.008,3.063a2.323,2.323,0,0,0,.066.661.721.721,0,0,0,.822.555.745.745,0,0,0,.722-.689,2.623,2.623,0,0,0,.018-.467l0-.161c0-1.128,0-2.255-.007-3.383-.008-2.488-.016-5.06.02-7.59a7.717,7.717,0,0,1,4.829-7.4c1.407-.642,2.852-1.263,4.248-1.863q.853-.367,1.7-.736a2.659,2.659,0,0,1,.345-.115l.177-.053.223-.072v6.27l-1.054,0c-.644,0-1.274,0-1.9,0a2.991,2.991,0,0,0-2.242.918,2.848,2.848,0,0,0-.647,2.245c.251,2.543.529,5.127.8,7.626q.181,1.7.362,3.4c.1.939.194,1.88.292,2.835l.159,1.558h-5.5q-8.475,0-16.952-.01M55.056,41.683c1.128.476,2.295.969,3.429,1.485a7.688,7.688,0,0,1,4.853,7.385c.035,3.275.027,6.6.019,9.824q-.005,2.088-.007,4.174v.741H57.057l.122-1.219c.07-.732.142-1.453.218-2.174q.222-2.074.447-4.146c.275-2.535.55-5.07.808-7.607a2.8,2.8,0,0,0-3.091-3.415c-.783,0-1.566,0-2.358,0H51.824v-6.42l.238.1c.531.226,1.005.425,1.478.628q.759.324,1.516.642m1.575-13.638a6.146,6.146,0,0,1-3.021,9.566,6.342,6.342,0,0,1-5.978-1.065,4.5,4.5,0,0,1-1.65-2.52.74.74,0,0,1,.37-.94A9.489,9.489,0,0,0,51,24.611c.007-1.617.006-3.235,0-4.887V17.378h2.62l0,.592c0,.326,0,.669,0,1.011a13.475,13.475,0,0,0,.656,4.983,15,15,0,0,0,2.357,4.081M48.749,42.437a37.323,37.323,0,0,1-9.23,1.169,37.473,37.473,0,0,1-9.235-1.167.8.8,0,0,1-.712-.918v-.1c.009-1.74.073-1.833,1.683-2.495a6.466,6.466,0,0,0,4.089-4.517.445.445,0,0,1,.1-.173l.061-.092.128-.006a25.357,25.357,0,0,0,8.534-.01l.158-.027.036.156c.556,2.379,2.143,3.983,4.85,4.907a1.255,1.255,0,0,1,.965,1.453l0,.124c-.053,1.28-.121,1.36-1.421,1.691m1.371,1.311v2.928h-20.5V43.958l.213.052a38.432,38.432,0,0,0,20.073-.2ZM48.887,4.965l.146.136a13.743,13.743,0,0,1,4.593,10.358v.148l-.146.023a10.6,10.6,0,0,1-5.725-.719A12.973,12.973,0,0,1,45.891,13.9l-.279-.172c-.393-.238-.938-.426-1.3.044a.732.732,0,0,0-.164.558,1.133,1.133,0,0,0,.495.719,10.455,10.455,0,0,0,3.882,1.836.956.956,0,0,1,.854,1.154c-.048,1.272-.048,2.505,0,3.665a3.506,3.506,0,0,1-.555,2.016,7.718,7.718,0,0,1-3.379,3.024l-.143.069-.078-.139a3.013,3.013,0,0,0-3.169-1.48c-.307.02-.617.017-.918.014-.262,0-.528-.006-.791.007A2.7,2.7,0,0,0,37.764,27.8,2.618,2.618,0,0,0,40,30.551a16.738,16.738,0,0,0,3.174.027A2.581,2.581,0,0,0,45.3,28.99a2.027,2.027,0,0,1,.65-.685,28.749,28.749,0,0,1,3.064-1.856l.429-.219-.2.44c-.108.246-.209.5-.309.747a10.42,10.42,0,0,1-.755,1.616,7.247,7.247,0,0,1-5.84,3.693c-.832.052-1.689.094-2.55.094a18.4,18.4,0,0,1-3.368-.277,7.552,7.552,0,0,1-6.027-7.3c-.044-1.816-.034-3.671-.024-5.464q.009-1.221.01-2.453v-.143l.141-.024A26.712,26.712,0,0,0,48.776,5.132ZM43.87,27.9A1.042,1.042,0,0,1,42.816,29a7.847,7.847,0,0,1-.832.013l-.231,0-.127,0c-.114,0-.226,0-.341,0s-.229,0-.346,0c-.146,0-.292,0-.438-.016a1.241,1.241,0,0,1-.878-.425.965.965,0,0,1-.215-.729,1.05,1.05,0,0,1,1.136-1.011h.139c.7,0,1.392-.006,2.089,0a1.027,1.027,0,0,1,1.1,1.053M33.479,3.269c4.563-2.386,9.243-2.207,13.9.539l.146.085-.084.146c-3.874,6.75-12.169,11.613-19.459,11.613q-.783,0-1.548-.075l-.147-.015-.006-.149a13.448,13.448,0,0,1,7.2-12.144M23.687,36.148a6.149,6.149,0,0,1-.492-8.229,12.863,12.863,0,0,0,3.041-8.988c-.016-.31-.011-.622-.008-.951,0-.165,0-.335,0-.514V17.3h2.513v2.873q0,2.228,0,4.456a9.424,9.424,0,0,0,4.64,8.463.765.765,0,0,1,.372.945,4.66,4.66,0,0,1-1.619,2.537,6.428,6.428,0,0,1-3.993,1.37,6.325,6.325,0,0,1-4.456-1.792m.256,12.571a1.554,1.554,0,0,1,1.22-.355q4.129,0,8.261,0h22.03c.711,0,1.1.108,1.337.374s.3.658.232,1.359q-.65,6.188-1.314,12.374l-.262,2.448a.668.668,0,0,1-.047.168l-.067.2H25.314l-1.4-13.149c-.078-.733-.156-1.467-.221-2.2a1.511,1.511,0,0,1,.244-1.214" transform="translate(0.001 0)"/>
      <path id="Path_10972" data-name="Path 10972" d="M22.079,8.183A11.242,11.242,0,0,0,14.373.449c-.432-.126-.887-.222-1.326-.314-.2-.043-.41-.086-.615-.132H10.085c-.2.051-.438.1-.678.149a11.887,11.887,0,0,0-1.48.37,11.156,11.156,0,0,0-7.8,9.093c-.02.117-.053.235-.085.352L0,10.125l.006,2.3c.011.045.025.091.039.138a2.652,2.652,0,0,1,.088.358,11.405,11.405,0,0,0,10.783,9.586c2.178.047,4.393.033,6.537.022.8,0,1.591-.008,2.387-.009a1.158,1.158,0,0,0,1.264-.876,1.176,1.176,0,0,0-.667-1.4c-.29-.181-.582-.357-.886-.54l-.47-.284.287-.329c.085-.1.16-.185.235-.269A11.247,11.247,0,0,0,22.079,8.183m-4.131,10c-.967.943-1.007,1.286-.3,2.449l.159.26h-.3l-1.758,0c-.567,0-1.142,0-1.719,0-.9,0-1.808,0-2.7-.017a11.1,11.1,0,0,1-2.179-.247,9.607,9.607,0,1,1,8.8-2.452" transform="translate(0 0.001)" fill="#ffc810"/>
      <path id="Path_10973" data-name="Path 10973" d="M35.946,46.835h-.033a3.513,3.513,0,0,0-2.483,1.031,3.561,3.561,0,0,0,2.5,6.113h0a3.559,3.559,0,0,0,2.54-1.062A3.522,3.522,0,0,0,39.5,50.392a3.6,3.6,0,0,0-3.556-3.557m-.027,5.509H35.9a1.911,1.911,0,0,1-1.9-1.939,1.971,1.971,0,0,1,1.925-1.936h.007a1.978,1.978,0,0,1,1.946,1.994,1.932,1.932,0,0,1-1.95,1.881" transform="translate(4.436 6.421)"/>
      <path id="Path_10974" data-name="Path 10974" d="M6.537,9.2H6.523a.793.793,0,0,0-.573.244.806.806,0,0,0-.214.592.773.773,0,0,0,.8.757h.011a.794.794,0,0,0,.574-.241.805.805,0,0,0,.21-.594A.781.781,0,0,0,6.537,9.2" transform="translate(0.786 1.262)" fill="#ffc810"/>
      <path id="Path_10975" data-name="Path 10975" d="M9.933,10.794a.775.775,0,0,0,.866-.749A.8.8,0,0,0,9.469,9.4a.788.788,0,0,0-.266.561.775.775,0,0,0,.73.835" transform="translate(1.262 1.262)" fill="#ffc810"/>
      <path id="Path_10976" data-name="Path 10976" d="M12.671,10.038a.775.775,0,0,0,.8.76h.009a.776.776,0,0,0,.788-.832.781.781,0,0,0-.794-.762h-.011a.8.8,0,0,0-.577.243.811.811,0,0,0-.214.591" transform="translate(1.737 1.262)" fill="#ffc810"/>
    </g>
  </g>
</svg>
