<svg xmlns="http://www.w3.org/2000/svg" xmlns:xlink="http://www.w3.org/1999/xlink" width="48.698" height="60.937" viewBox="0 0 48.698 60.937">
  <defs>
    <clipPath id="clip-path">
      <rect id="Rectangle_2935" data-name="Rectangle 2935" width="48.698" height="60.937" fill="none"/>
    </clipPath>
  </defs>
  <g id="Group_4380" data-name="Group 4380" transform="translate(0 0)">
    <g id="Group_4380-2" data-name="Group 4380" transform="translate(0 0)" clip-path="url(#clip-path)">
      <path id="Path_11004" data-name="Path 11004" d="M0,4.729v52a3.9,3.9,0,0,0,4.211,4.2q20.134,0,40.267,0a3.9,3.9,0,0,0,4.211-4.2V41.867q0-16.351.006-32.7a3.4,3.4,0,0,0-1.063-2.583C45.757,4.73,44.066,3.037,42.467,1.4A4.859,4.859,0,0,0,40.378,0H3.288C.708.931,0,1.954,0,4.729M41.526,3.593l.043-.441L45.531,7.1l-.439.045a9.035,9.035,0,0,1-.906.049,2.678,2.678,0,0,1-2.013-.643,3.572,3.572,0,0,1-.646-2.955m-39.9.7A2.34,2.34,0,0,1,4.283,1.623H39.9v1.2c0,.676,0,1.324,0,1.972a3.875,3.875,0,0,0,4,4c.654.007,1.306.007,1.989,0l1.182,0v47.9a2.333,2.333,0,0,1-2.645,2.619H4.28a2.339,2.339,0,0,1-2.654-2.669q0-26.177,0-52.353" transform="translate(0 0)"/>
      <path id="Path_11005" data-name="Path 11005" d="M20.38,11.34c.454-.459.518-.929.177-1.289a.733.733,0,0,0-.532-.257h-.009a1.154,1.154,0,0,0-.781.4c-.393.393-.777.8-1.174,1.21l-.729.758-.149-.18a3.141,3.141,0,0,0-2.626-1.187h-.1c-1.2.022-2.422.019-3.6.015q-.726,0-1.451,0H8.941a2.853,2.853,0,0,0-3.07,3.038c-.015,1.84-.015,3.773,0,5.744a2.855,2.855,0,0,0,3.056,3.05q2.846.009,5.688,0a2.872,2.872,0,0,0,3.123-3.1l0-.57c.005-1.4.01-2.852-.009-4.276a1.473,1.473,0,0,1,.488-1.2c.6-.556,1.178-1.147,1.74-1.721ZM10.328,16.393q.9.918,1.816,1.816a.826.826,0,0,0,1.373-.007c.494-.485.98-.977,1.5-1.5l1.053-1.061v.507c0,.407,0,.8.007,1.189.008.93.017,1.807-.026,2.687a1.078,1.078,0,0,1-1.184.988q-1.644,0-3.287.006-1.41,0-2.821-.008A1.152,1.152,0,0,1,7.517,19.8c-.025-2.128-.024-4.2,0-6.17A1.155,1.155,0,0,1,8.78,12.436c1.873-.012,4-.026,6.051.014a1.8,1.8,0,0,1,.795.287c.11.059.22.119.334.168l.282.122-3.5,3.507-.466-.477c-.26-.268-.532-.548-.813-.819a.818.818,0,0,0-1.242-.089.842.842,0,0,0,.108,1.244" transform="translate(0.269 0.45)" fill="#ffc810"/>
      <path id="Path_11006" data-name="Path 11006" d="M40.723,12.718c-.069-.006-.141,0-.207-.005H23.462a1.106,1.106,0,0,0-.283.017.746.746,0,0,0-.659.715.738.738,0,0,0,.552.84,1.763,1.763,0,0,0,.527.049h.059q3.331,0,6.662,0h8.734l.474,0c.392,0,.8.007,1.193-.014a.8.8,0,0,0,.788-.8.82.82,0,0,0-.784-.807" transform="translate(1.034 0.584)"/>
      <path id="Path_11007" data-name="Path 11007" d="M40.84,40.107a1.9,1.9,0,0,0-.4-.019l-.153,0H23.751l-.147,0-.142,0a1.714,1.714,0,0,0-.221.013.753.753,0,0,0-.722.708.77.77,0,0,0,.578.863,1.644,1.644,0,0,0,.417.042q8.478,0,16.953,0a1.515,1.515,0,0,0,.561-.092.706.706,0,0,0,.465-.792.746.746,0,0,0-.654-.719" transform="translate(1.034 1.841)"/>
      <path id="Path_11008" data-name="Path 11008" d="M40.984,26.468a2.443,2.443,0,0,0-.706-.075q-8.259-.006-16.529,0a3.03,3.03,0,0,0-.611.043.752.752,0,0,0-.622.821.734.734,0,0,0,.68.738,3.762,3.762,0,0,0,.547.024h.078q4.073,0,8.145,0H33.62q3.312,0,6.611,0h.07a2.766,2.766,0,0,0,.6-.043.791.791,0,0,0,.084-1.507" transform="translate(1.034 1.212)"/>
      <path id="Path_11009" data-name="Path 11009" d="M33.318,31.284q-4.882-.008-9.765,0a1.161,1.161,0,0,0-.846.277.739.739,0,0,0-.2.553c.014.685.647.79,1.025.791q1.7,0,3.4,0h2.93c1.147,0,2.292,0,3.437,0a1.193,1.193,0,0,0,.862-.29.708.708,0,0,0,.194-.532c-.012-.493-.408-.8-1.035-.8" transform="translate(1.034 1.437)"/>
      <path id="Path_11010" data-name="Path 11010" d="M26.975,17.605h-1.49q-1.024,0-2.049.006c-.562,0-.908.291-.925.769-.017.5.325.817.916.853.083.005.168,0,.25,0h9.5a2.56,2.56,0,0,0,.335-.008.837.837,0,0,0,.836-.829.794.794,0,0,0-.858-.781c-1.208-.013-2.419-.013-3.629-.008l-1.608,0v0Z" transform="translate(1.034 0.808)"/>
      <path id="Path_11011" data-name="Path 11011" d="M33.3,44.994c-1.193-.028-2.408-.023-3.587-.021l-4.194,0-.609,0c-.523,0-1.069,0-1.6.017a.768.768,0,0,0-.8.777.8.8,0,0,0,.771.825,2.305,2.305,0,0,0,.338.014h.053q4.766,0,9.523,0a2.126,2.126,0,0,0,.59-.063.816.816,0,0,0,.554-.577.666.666,0,0,0-.18-.652,1.39,1.39,0,0,0-.865-.318" transform="translate(1.034 2.066)"/>
      <path id="Path_11012" data-name="Path 11012" d="M20.38,25c.454-.46.518-.93.177-1.289a.733.733,0,0,0-.532-.257h-.009a1.152,1.152,0,0,0-.781.4c-.383.383-.757.775-1.142,1.178l-.76.791-.149-.18a3.16,3.16,0,0,0-2.729-1.185c-1.2.023-2.412.019-3.585.014q-.742,0-1.482,0H8.941A2.854,2.854,0,0,0,5.871,27.5c-.015,1.84-.015,3.774,0,5.745A2.854,2.854,0,0,0,8.928,36.3q2.848.011,5.688,0a2.872,2.872,0,0,0,3.123-3.1l0-.57c.005-1.4.01-2.852-.009-4.276a1.473,1.473,0,0,1,.488-1.2c.6-.556,1.178-1.147,1.74-1.721ZM10.329,30.05q.9.918,1.815,1.816a.826.826,0,0,0,1.373-.007c.477-.469.948-.944,1.448-1.449L16.07,29.3V29.8c0,.407,0,.8.007,1.188.008.93.017,1.808-.026,2.688a1.077,1.077,0,0,1-1.185.987q-1.632.006-3.264.007-1.421,0-2.843-.009a1.152,1.152,0,0,1-1.243-1.209c-.025-2.128-.024-4.2,0-6.17A1.155,1.155,0,0,1,8.78,26.093c1.873-.012,4-.026,6.051.014a1.811,1.811,0,0,1,.8.288c.109.059.218.118.332.167l.28.122-3.5,3.507-.475-.486c-.258-.265-.527-.543-.8-.811a.819.819,0,0,0-1.242-.089.845.845,0,0,0,.109,1.245" transform="translate(0.269 1.077)" fill="#ffc810"/>
      <path id="Path_11013" data-name="Path 11013" d="M19.791,38.689c.454-.459.518-.929.177-1.289a.731.731,0,0,0-.531-.257h-.009a1.154,1.154,0,0,0-.781.4c-.406.406-.8.821-1.212,1.25l-.689.719-.15-.18a3.108,3.108,0,0,0-2.73-1.186c-1.212.023-2.446.019-3.64.014-.5,0-1,0-1.5,0h-.37a2.853,2.853,0,0,0-3.068,3.038c-.016,1.845-.016,3.778,0,5.745a2.855,2.855,0,0,0,3.056,3.05q2.844.009,5.688,0a2.871,2.871,0,0,0,3.122-3.1v-.313c.006-1.486.013-3.024-.008-4.533a1.473,1.473,0,0,1,.489-1.2c.6-.562,1.19-1.161,1.759-1.739ZM9.74,43.742q.9.918,1.815,1.817a.828.828,0,0,0,1.374-.008c.495-.487.984-.981,1.507-1.509l1.046-1.053v.507c0,.4,0,.794.007,1.177.008.934.016,1.816-.027,2.7a1.076,1.076,0,0,1-1.184.988q-1.644,0-3.287.006-1.41,0-2.82-.008a1.151,1.151,0,0,1-1.243-1.211C6.9,45.072,6.9,43,6.93,40.977a1.156,1.156,0,0,1,1.262-1.192c1.873-.012,4-.026,6.05.014a1.809,1.809,0,0,1,.795.286c.109.06.22.12.335.169l.282.122-3.5,3.507-.47-.479c-.258-.267-.529-.547-.81-.817a.813.813,0,0,0-1.242-.09.844.844,0,0,0,.109,1.245" transform="translate(0.242 1.706)" fill="#ffc810"/>
    </g>
  </g>
</svg>
