<svg xmlns="http://www.w3.org/2000/svg" xmlns:xlink="http://www.w3.org/1999/xlink" width="73.219" height="57.709" viewBox="0 0 73.219 57.709">
  <defs>
    <clipPath id="clip-path">
      <rect id="Rectangle_2932" data-name="Rectangle 2932" width="73.22" height="57.709" fill="none"/>
    </clipPath>
  </defs>
  <g id="Group_4377" data-name="Group 4377" transform="translate(0 0)">
    <g id="Group_4377-2" data-name="Group 4377" transform="translate(0 0)" clip-path="url(#clip-path)">
      <path id="Path_10982" data-name="Path 10982" d="M65.393,46.8a20.063,20.063,0,0,1,.411,2.725c.033.32.065.64.1.961H73.22V26.149H37.431V0H35.769V4.725l-5.7,0c-3.933-.006-8-.012-12,.029a13.242,13.242,0,0,0-3.659.527A9.505,9.505,0,0,0,8.29,10.6c-.928,2.081-1.963,4.153-2.963,6.156A79.1,79.1,0,0,0,0,29.154V47.966c.673,1.912,2.037,2.737,4.272,2.587.64-.042,1.289-.03,1.916-.021.283.005.567.01.85.01h3.506l.058.282a8.169,8.169,0,0,0,7.267,6.824A7.717,7.717,0,0,0,22.69,56.5a7.989,7.989,0,0,0,3.746-5.637l.051-.292H46.716l.126.47c.04.148.079.291.113.436A7.987,7.987,0,0,0,57.4,57.185,7.591,7.591,0,0,0,62.67,50.3a7.959,7.959,0,0,0-15.685-2.443,1.1,1.1,0,0,1-1.231,1h-.009q-7.148-.025-14.3-.014H26.575l-.9-3.064h5.046q6.517-.005,13.032.01c.422-.02.612-.065.813-.49a10.877,10.877,0,0,1,9.267-6.617A11.02,11.02,0,0,1,65.393,46.8M50.47,45.042a6.075,6.075,0,0,1,4.341-1.67,6.319,6.319,0,0,1-.023,12.637h-.129A6.386,6.386,0,0,1,50.133,54,6.173,6.173,0,0,1,48.41,49.54a6.482,6.482,0,0,1,2.061-4.5M1.725,30.512l.43.1a3.759,3.759,0,0,1,.012,7.156l-.442.116ZM10.51,48.827H8.27l-1.955,0q-1.553,0-3.1-.012a1.439,1.439,0,0,1-1.5-1.456,7.621,7.621,0,0,1-.012-.819l.006-.731h9.689ZM22.779,54.34a6.039,6.039,0,0,1-4.121,1.67c-.073,0-.146,0-.221,0A6.318,6.318,0,0,1,18.6,43.371a6.409,6.409,0,0,1,4.534,2.021,6.165,6.165,0,0,1,1.709,4.452,6.489,6.489,0,0,1-2.066,4.5M48.131,38.775a11.836,11.836,0,0,0-4.41,4.508,1.407,1.407,0,0,1-1.377.8h-.19c-5.218-.02-10.614-.043-15.919.01a3.958,3.958,0,0,1-3.605-1.447l-.183-.245.746-.745c.541-.542,1.109-1.113,1.7-1.657a1.21,1.21,0,0,1,.836-.2h.09q2.431-.007,4.861,0h1.96V28.628H31.05v9.491H30.7c-.463,0-.918.01-1.368.019a24.524,24.524,0,0,1-2.989-.049,3.492,3.492,0,0,0-3.421,1.421,13.988,13.988,0,0,1-1.729,1.759l-.248.226a1.367,1.367,0,0,1-1.044.324,7.893,7.893,0,0,0-6.583,1.829,1.411,1.411,0,0,1-.834.4c-2.786.015-5.572.012-8.417.013H1.7l0-1.145c0-.91,0-1.8.023-2.69.013-.42.627-.645.7-.669a5.469,5.469,0,0,0,3.951-6.071,5.335,5.335,0,0,0-3.475-4.494c-.131-.056-.266-.1-.436-.161l-.692-.249.136-.338c.093-.23.178-.455.263-.674.18-.468.351-.911.554-1.342q1.59-3.371,3.191-6.74,1.817-3.832,3.625-7.664a8.888,8.888,0,0,1,8.633-5.447H35.776V27.863H71.528V30.93H69.239v1.7h2.275V48.788H67.583l-.065-.27c-.073-.3-.139-.607-.2-.909a17.368,17.368,0,0,0-.473-1.849,12.717,12.717,0,0,0-18.709-6.984" transform="translate(0 0)"/>
      <path id="Path_10983" data-name="Path 10983" d="M8.423,26.988c.7-1.665,1.361-3.257,2.024-4.85,1.081-2.594,2.152-5.191,3.239-7.783a5.987,5.987,0,0,1,6-3.994c4.523.016,9.047,0,13.57.005.234,0,.468.019.738.031V26.988Zm23.2-2.353V12.758c-.279-.012-.513-.032-.748-.032q-5.559,0-11.117,0a3.7,3.7,0,0,0-3.9,2.6q-1.807,4.321-3.6,8.648c-.086.207-.153.423-.239.662Z" transform="translate(-0.993 -1.222)"/>
      <path id="Path_10984" data-name="Path 10984" d="M34.273,27.294H7.823l3.4-8.151q1.032-2.488,2.07-4.972a6.344,6.344,0,0,1,6.288-4.211h.034q4.523.017,9.044.007l4.524,0c.165,0,.331.01.509.019l.582.027Zm-25.39-.707H33.567v-15.9c-.133-.008-.259-.013-.385-.013H28.658q-4.523.005-9.048-.006h-.033a5.626,5.626,0,0,0-5.637,3.776q-1.04,2.484-2.069,4.97Zm23.023-1.646H11.449l.244-.69c.055-.161.108-.313.169-.461q1.8-4.324,3.6-8.648a4.032,4.032,0,0,1,4.222-2.817q5.557,0,11.117,0c.161,0,.323.01.5.019l.6.028Zm-19.458-.707H31.2V13.046c-.137-.007-.266-.013-.4-.013q-5.56-.005-11.117,0a3.374,3.374,0,0,0-3.571,2.383q-1.807,4.321-3.6,8.647c-.024.056-.046.115-.067.173" transform="translate(-0.922 -1.175)" fill="#fff"/>
      <rect id="Rectangle_2931" data-name="Rectangle 2931" width="30.21" height="1.596" transform="translate(35.832 30.99)" fill="#ffc810"/>
      <path id="Path_10985" data-name="Path 10985" d="M29.708,34.061h.026V32.466H25.762v1.6Z" transform="translate(-3.037 -3.828)" fill="#ffc810"/>
      <path id="Path_10986" data-name="Path 10986" d="M20.652,52.7h-.045a3.232,3.232,0,0,0-3.239,3.16,3.216,3.216,0,0,0,3.191,3.248h.022a3.209,3.209,0,0,0,2.275-.93,3.2,3.2,0,0,0-2.2-5.477m.967,4.319a1.526,1.526,0,0,1-1.032.423h-.057a1.54,1.54,0,0,1-1-2.631,1.4,1.4,0,0,1,1.074-.444,1.522,1.522,0,0,1,1.018,2.652" transform="translate(-2.048 -6.214)" fill="#ffc810"/>
      <path id="Path_10987" data-name="Path 10987" d="M61.6,52.7h0A3.2,3.2,0,0,0,61.56,59.1h.031a3.216,3.216,0,0,0,2.273-.929,3.188,3.188,0,0,0,.026-4.524A3.208,3.208,0,0,0,61.6,52.7m1.043,4.312a1.488,1.488,0,0,1-1.04.43h-.038a1.578,1.578,0,0,1-1.5-1.493,1.575,1.575,0,0,1,1.513-1.578,1.535,1.535,0,0,1,1.066,2.643" transform="translate(-6.883 -6.213)" fill="#ffc810"/>
    </g>
  </g>
</svg>
