<svg xmlns="http://www.w3.org/2000/svg" xmlns:xlink="http://www.w3.org/1999/xlink" width="57.15" height="62.42" viewBox="0 0 57.15 62.42">
  <defs>
    <clipPath id="clip-path">
      <rect id="Rectangle_2928" data-name="Rectangle 2928" width="57.15" height="62.42" fill="none"/>
    </clipPath>
  </defs>
  <g id="Group_4374" data-name="Group 4374" transform="translate(0 0)">
    <g id="Group_4374-2" data-name="Group 4374" transform="translate(0 0)" clip-path="url(#clip-path)">
      <path id="Path_10960" data-name="Path 10960" d="M24.53,5.576A6.267,6.267,0,0,0,16.32.327a6.293,6.293,0,0,0-4.3,6.181l0,10.916q0,14.555-.011,29.11a1.8,1.8,0,0,1-.377,1.11,8.873,8.873,0,0,0,3.907,14.318c.391.133.81.23,1.214.324.187.043.374.087.56.134l2.127-.033a3.116,3.116,0,0,1,.332-.091,8.65,8.65,0,0,0,6.82-5.6,8.476,8.476,0,0,0-1.507-8.879,2.045,2.045,0,0,1-.5-1.387Q24.6,26.663,24.591,6.9a12.213,12.213,0,0,0-.061-1.32m-.883,52.155a6.966,6.966,0,0,1-5.386,2.621A6.672,6.672,0,0,1,14.676,59.3a6.835,6.835,0,0,1-3.169-5.012,6.727,6.727,0,0,1,1.925-5.51,2.164,2.164,0,0,0,.656-1.666q-.013-11.865-.01-23.732,0-8.306,0-16.614A4.338,4.338,0,0,1,16.5,2.485a4.19,4.19,0,0,1,5.977,3.426c.033.479.033.963.032,1.431l0,24.109q0,7.781-.011,15.562a2.383,2.383,0,0,0,.727,1.828,6.649,6.649,0,0,1,.422,8.89" transform="translate(1.077 0)"/>
      <path id="Path_10961" data-name="Path 10961" d="M42.472,32.251a1,1,0,0,0-1.078.834,2.6,2.6,0,0,0-.041.309l-.008.082a4.2,4.2,0,0,1-4.37,3.995c-.663.006-1.326,0-1.991,0h-.165a4.249,4.249,0,0,1-4.505-4.5c-.007-1.142-.006-2.283,0-3.424l0-6.723c0-.12.011-.242.021-.363A3.926,3.926,0,0,1,32.5,19.1c1.8-.913,3.7-.7,5.649-.373a3.924,3.924,0,0,1,3.193,3.8c.134,1.3.878,1.257,1.125,1.242.651-.042.963-.51.93-1.392a6.074,6.074,0,0,0-4.674-5.646,14.309,14.309,0,0,0-2.9-.26c-.478,0-.991.016-1.547.047a6.2,6.2,0,0,0-6.033,6.3c-.052,3.336-.052,6.732,0,10.382a6.24,6.24,0,0,0,5.312,6.247,13.808,13.808,0,0,0,2.246.09c.364,0,.73-.008,1.095,0A6.214,6.214,0,0,0,41.4,37.844a5.974,5.974,0,0,0,2-4.6.972.972,0,0,0-.926-.994" transform="translate(3.231 1.887)" fill="#ffc810"/>
      <path id="Path_10962" data-name="Path 10962" d="M48.378,16.479h-.021a3.584,3.584,0,0,0-2.547,1.069,3.64,3.64,0,0,0,2.552,6.228h.007a3.643,3.643,0,0,0,2.6-1.1,3.561,3.561,0,0,0,1.051-2.562,3.694,3.694,0,0,0-3.647-3.637m.041,5.235h-.053a1.626,1.626,0,0,1-1.577-1.59,1.6,1.6,0,0,1,1.573-1.558h.008a1.553,1.553,0,0,1,1.567,1.54,1.589,1.589,0,0,1-1.517,1.607" transform="translate(5.124 1.888)" fill="#ffc810"/>
      <path id="Path_10963" data-name="Path 10963" d="M8.648,9.41C7.79,9.4,6.933,9.4,6.074,9.4l-1.107,0H3.248c-.408,0-.816,0-1.224.006a8.7,8.7,0,0,0-1.243.072.859.859,0,0,0-.748.747.855.855,0,0,0,.35.989,1.821,1.821,0,0,0,.887.26c2.185.023,4.365.018,6.548.012l.817,0a2.242,2.242,0,0,0,.484-.067.969.969,0,0,0,.756-1.107c-.082-.587-.495-.891-1.227-.9" transform="translate(0 1.078)"/>
      <path id="Path_10964" data-name="Path 10964" d="M.008,24.677c.069.611.49.925,1.255.936.813.012,1.628.01,2.44.007l1.178,0H5.8c.794,0,1.595,0,2.393,0a4.817,4.817,0,0,0,.921-.075.993.993,0,0,0,.25-1.839,1.961,1.961,0,0,0-.827-.16q-1.842-.01-3.686-.01-1.749,0-3.5.006a2.734,2.734,0,0,0-.6.072.974.974,0,0,0-.746,1.069" transform="translate(0 2.696)"/>
      <path id="Path_10965" data-name="Path 10965" d="M8.621,37.662c-.837,0-1.672,0-2.507,0H5l-.926,0c-.354,0-.711,0-1.066,0-.542,0-1.084,0-1.626.014a2.257,2.257,0,0,0-.889.179.923.923,0,0,0-.458,1.089,1.049,1.049,0,0,0,1.142.8c2.168.016,4.339.011,6.508,0l1.042,0a1.8,1.8,0,0,0,.416-.069,1,1,0,0,0,.671-.574.981.981,0,0,0-.037-.869,1.168,1.168,0,0,0-1.156-.565" transform="translate(0.001 4.314)"/>
      <path id="Path_10966" data-name="Path 10966" d="M5.482,14.189A.944.944,0,0,0,4.7,15.205a1,1,0,0,0,.927.945c.309.025.62.017.946.012.146,0,.294-.006.441-.006l.279.006.164,0c.317,0,.633.011.947-.01a.979.979,0,0,0,.956-.966.92.92,0,0,0-.8-1.006,21.857,21.857,0,0,0-3.081.006" transform="translate(0.538 1.619)"/>
      <path id="Path_10967" data-name="Path 10967" d="M4.7,19.844a1.036,1.036,0,0,0,1.067,1.044c.291.021.582.016.869.01l.4,0,.4,0c.29.006.58.01.867-.009a1.033,1.033,0,0,0,1.057-1.049,1,1,0,0,0-1.052-.988c-.848-.029-1.709-.031-2.559,0a1.022,1.022,0,0,0-1.053.991" transform="translate(0.538 2.158)"/>
      <path id="Path_10968" data-name="Path 10968" d="M5.526,28.3a.951.951,0,0,0-.83,1,1,1,0,0,0,.94.981,9.332,9.332,0,0,0,.937.013c.152,0,.3,0,.453-.006s.3,0,.444.006a8.836,8.836,0,0,0,.944-.011.984.984,0,0,0,.946-.974.929.929,0,0,0-.81-1,22.783,22.783,0,0,0-3.023,0" transform="translate(0.538 3.238)"/>
      <path id="Path_10969" data-name="Path 10969" d="M9.36,33.967a.982.982,0,0,0-.942-.976c-.312-.022-.626-.016-.961-.012-.143,0-.285.007-.427.007h0c-.149,0-.3,0-.446-.006s-.293-.007-.436-.007c-.171,0-.339,0-.507.018a1,1,0,0,0-.945.98.96.96,0,0,0,.827,1,22.239,22.239,0,0,0,3.023,0,.932.932,0,0,0,.815-1" transform="translate(0.538 3.778)"/>
      <path id="Path_10970" data-name="Path 10970" d="M16.03,47.642a3.547,3.547,0,0,0-1.813,4.045,3.671,3.671,0,0,0,3.545,2.769h.008a3.667,3.667,0,0,0,3.57-2.892,3.607,3.607,0,0,0-1.906-3.957,1.036,1.036,0,0,1-.643-1.1q.012-4.183.007-8.367V34.224q0-4.586,0-9.171a3.026,3.026,0,0,0-.077-.776.969.969,0,0,0-.941-.721.553.553,0,0,0-.061,0,.989.989,0,0,0-.944.868,5.268,5.268,0,0,0-.03.7V26.7q0,9.849.006,19.7a1.177,1.177,0,0,1-.716,1.244m1.723,1.606h.01a1.574,1.574,0,0,1,0,3.148h-.031A1.586,1.586,0,0,1,16.2,50.8a1.552,1.552,0,0,1,1.557-1.557" transform="translate(1.616 2.699)" fill="#ffc810"/>
    </g>
  </g>
</svg>
