<svg xmlns="http://www.w3.org/2000/svg" xmlns:xlink="http://www.w3.org/1999/xlink" width="59.401" height="57.027" viewBox="0 0 59.401 57.027">
  <defs>
    <clipPath id="clip-path">
      <rect id="Rectangle_2927" data-name="Rectangle 2927" width="59.401" height="57.027" transform="translate(0 0)" fill="none"/>
    </clipPath>
  </defs>
  <g id="Group_4373" data-name="Group 4373" transform="translate(0 0)">
    <g id="Group_4373-2" data-name="Group 4373" clip-path="url(#clip-path)">
      <path id="Path_10951" data-name="Path 10951" d="M51.931,50.411a.823.823,0,0,0,.871-.795.825.825,0,0,0-.8-.82.775.775,0,0,0-.835.769.8.8,0,0,0,.764.846"/>
      <path id="Path_10952" data-name="Path 10952" d="M54.536,46.625c.427.262.881.1,1.215-.418a22.553,22.553,0,0,0,3.065-7.428c.168-.788.293-1.6.415-2.393.055-.359.11-.717.17-1.075V32.054l-.064-.423c-.046-.323-.093-.645-.143-.965-1.359-8.69-6.092-14.912-14.066-18.5a25.544,25.544,0,0,0-2.7-.977c-.443-.141-.889-.285-1.336-.439l-.235-.082,0-.922c0-.562.008-1.142-.012-1.722a.891.891,0,0,1,.663-.957A3.6,3.6,0,0,0,43.848,3.18,3.606,3.606,0,0,0,40.318.041c-3.454-.055-6.11-.055-8.613,0A3.611,3.611,0,0,0,28.3,4.671a3.7,3.7,0,0,0,2.651,2.571l.243.078V9.983c0,.122-.007.243-.014.368l-.019.42-.381.126c-.116.04-.226.078-.338.1a23.087,23.087,0,0,0-12.51,7.928,1.455,1.455,0,0,1-1.245.578H16.67c-2.54-.014-5.085-.011-7.627-.007C8.408,19.5,8,19.828,8,20.33s.39.814,1.045.816l5.986,0c.133,0,.265.009.388.017l.663.035-.695,1.553c-.435.97-.865,1.926-1.266,2.893a1.032,1.032,0,0,1-1.071.74H13.04c-3.129-.013-6.256-.009-9.389-.01H1.2a3.975,3.975,0,0,0-.5.018.793.793,0,0,0-.7.735.787.787,0,0,0,.575.826,3.027,3.027,0,0,0,.729.065q4.248,0,8.491,0h3.457l-.667,5.2H10.311c-1.036,0-2.071,0-3.107.008a.82.82,0,1,0,.008,1.637c.757.012,1.517.009,2.276.007l3.129,0,.837,5.211H6a4.893,4.893,0,0,0-.542.017.806.806,0,0,0-.765.827.8.8,0,0,0,.756.783,3.924,3.924,0,0,0,.544.02l1.8,0c1.786,0,3.57.007,5.353-.013h.031a1.205,1.205,0,0,1,1.28.862,23.37,23.37,0,0,0,33.875,10.95,1.588,1.588,0,0,0,.79-.863.685.685,0,0,0-.126-.541c-.153-.236-.437-.672-1.529,0a21.293,21.293,0,0,1-15.688,2.8,21.679,21.679,0,0,1,.59-42.64A21.685,21.685,0,0,1,57.54,36.476a21.13,21.13,0,0,1-3.171,8.844,1.132,1.132,0,0,0-.2.834.748.748,0,0,0,.364.471M39.192,10.389h-6.32V7.348h6.32ZM36.984,5.661H33.521q-.76,0-1.519,0A1.994,1.994,0,0,1,29.813,3.7a1.9,1.9,0,0,1,.538-1.4,2.3,2.3,0,0,1,1.658-.63q4.044-.014,8.09,0a2.02,2.02,0,0,1,2.123,1.745,1.951,1.951,0,0,1-1.337,2.12,3.069,3.069,0,0,1-.909.111c-1,.008-2,.006-2.992.006"/>
      <path id="Path_10953" data-name="Path 10953" d="M36.076,15.815h-.094a17.86,17.86,0,0,0-17.8,17.769A17.9,17.9,0,0,0,35.97,51.532h.1a17.859,17.859,0,0,0,0-35.717M47.5,45.116a16.093,16.093,0,0,1-11.451,4.768h-.017a16.21,16.21,0,0,1-.006-32.419h.022A16.2,16.2,0,0,1,47.5,45.116"/>
      <path id="Path_10954" data-name="Path 10954" d="M.82,40.1A.819.819,0,0,0,0,40.887a.791.791,0,0,0,.227.584.9.9,0,0,0,.6.244.807.807,0,0,0,.811-.806.821.821,0,0,0-.81-.813Z"/>
      <path id="Path_10955" data-name="Path 10955" d="M44.172,26.7c.251-.245.5-.492.731-.756a.808.808,0,0,0-.038-1.116.824.824,0,0,0-1.129-.017,3.527,3.527,0,0,0-.258.247L42.316,26.22q-2.04,2.04-4.074,4.084a.949.949,0,0,1-1.128.262,2.94,2.94,0,0,0-2.156,0,.941.941,0,0,1-1.131-.272q-1.057-1.09-2.146-2.152a.893.893,0,0,0-.732-.336.762.762,0,0,0-.542.247.82.82,0,0,0,.1,1.235l.189.194c.538.555,1.093,1.128,1.668,1.652a1.377,1.377,0,0,1,.473,1.8,1.276,1.276,0,0,0-.085.441c-.006.075-.013.147-.021.212A3.26,3.26,0,0,0,34.7,36.662a3.278,3.278,0,0,0,4.456-4,1.125,1.125,0,0,1,.336-1.3c1.148-1.125,2.282-2.264,3.417-3.4Zm-7,8.152a1.615,1.615,0,0,1-1.129.465H36A1.662,1.662,0,0,1,34.4,33.691a1.626,1.626,0,0,1,1.635-1.657h0a1.643,1.643,0,0,1,1.174.483,1.613,1.613,0,0,1,.47,1.164,1.665,1.665,0,0,1-.509,1.172" fill="#ffc810"/>
      <path id="Path_10956" data-name="Path 10956" d="M36.867,21.144a.8.8,0,0,0-.788-.841h-.024a.807.807,0,0,0-.822.777,7.1,7.1,0,0,0,0,1.167.827.827,0,0,0,.852.77.807.807,0,0,0,.776-.805c.01-.123.006-.247,0-.371V21.3h0c0-.053,0-.1,0-.158" fill="#ffc810"/>
      <path id="Path_10957" data-name="Path 10957" d="M49.412,33.669a.821.821,0,0,0-.828-.8c-.206-.009-.4-.012-.57-.012-.2,0-.383,0-.56.016a.771.771,0,0,0-.757.754.79.79,0,0,0,.661.856,2.154,2.154,0,0,0,.361.032v0l.328-.01.21,0a2.153,2.153,0,0,0,.386-.007.835.835,0,0,0,.768-.83" fill="#ffc810"/>
      <path id="Path_10958" data-name="Path 10958" d="M35.209,46.19a.837.837,0,0,0,.792.851.824.824,0,0,0,.84-.791,6.7,6.7,0,0,0-.007-1.217.793.793,0,0,0-.847-.72.81.81,0,0,0-.776.808c-.008.121-.006.242,0,.362v.373c0,.111,0,.223,0,.334" fill="#ffc810"/>
      <path id="Path_10959" data-name="Path 10959" d="M25.38,33.62a.77.77,0,0,0-.706-.766c-.082-.01-.166-.015-.25-.018v.01l-.561,0-.2,0c-.07,0-.14,0-.209.008a.807.807,0,0,0-.8.793.793.793,0,0,0,.713.806,5.961,5.961,0,0,0,1.377-.015.735.735,0,0,0,.628-.812" fill="#ffc810"/>
    </g>
  </g>
</svg>
