<svg xmlns="http://www.w3.org/2000/svg" xmlns:xlink="http://www.w3.org/1999/xlink" width="62.005" height="62.337" viewBox="0 0 62.005 62.337">
  <defs>
    <clipPath id="clip-path">
      <rect id="Rectangle_2930" data-name="Rectangle 2930" width="62.005" height="62.337" transform="translate(0 0)" fill="none"/>
    </clipPath>
  </defs>
  <g id="Group_4376" data-name="Group 4376" transform="translate(0 0)">
    <g id="Group_4376-2" data-name="Group 4376" clip-path="url(#clip-path)">
      <path id="Path_10977" data-name="Path 10977" d="M60.9,44.046a3.91,3.91,0,0,0-4.8-.686c-1.607.906-3.2,1.831-4.795,2.757l-5.627,3.246-.13-.193a4.391,4.391,0,0,0-2.731-1.757L39.7,46.592c-3.452-.9-7.02-1.841-10.508-2.84a10.774,10.774,0,0,0-6.469-.051c-.9.285-1.806.494-2.763.716-.428.1-.861.2-1.3.307l-.311.077,0-.911c0-.4.008-.783-.008-1.163a.768.768,0,0,0-.827-.83c-2.76-.014-5.554-.014-8.31,0a.777.777,0,0,0-.824.837c-.012.21-.009.423-.006.651l0,.6H5.467c-1.469,0-2.932,0-4.4,0C.262,43.986,0,44.241,0,45.033Q0,52.1,0,59.171c0,.807.256,1.065,1.05,1.067,1.511.005,3.025,0,4.533,0H8.379v.59c0,.189,0,.355,0,.52.015.694.288.979.943.981q4.058.012,8.114,0c.615,0,.9-.294.912-.945.007-.271.005-.541,0-.837l0-.841.358.173c.185.089.355.18.518.267a4.64,4.64,0,0,0,.9.4c.234.065.468.137.7.208a8.963,8.963,0,0,0,2.387.5c3.942.056,7.948.047,11.828.038q1.937,0,3.875-.006a6.79,6.79,0,0,0,3.439-.9c5.745-3.308,11.685-6.728,17.6-10.185A4.623,4.623,0,0,0,61.4,48.8a3.848,3.848,0,0,0-.5-4.756M8.35,58.61h-6.7V45.625h6.7Zm8.371,2.077h-6.7V43.512h6.7ZM59.1,48.879l-1.4.812c-4.7,2.719-9.549,5.532-14.342,8.265a30.03,30.03,0,0,1-3.18,1.5l-.256.11a2.727,2.727,0,0,1-1.02.126l-.175,0q-2.5,0-4.99,0c-3.359,0-6.835-.008-10.254.021h-.046A8.552,8.552,0,0,1,19.5,58.463c-.273-.14-.547-.279-.824-.412a.784.784,0,0,1-.319-.666c-.009-3.044-.008-6.09-.008-9.185V46.448l.189-.047q.967-.24,1.919-.482c1.465-.369,2.98-.751,4.47-1.091a6.747,6.747,0,0,1,3.412.364c.207.06.413.119.619.174q5.186,1.38,10.367,2.779l3.2.86c1.306.352,2,1.029,2.112,2.073a2.319,2.319,0,0,1-.767,2.05,2.51,2.51,0,0,1-2.305.473q-2.548-.674-5.092-1.363l-2.88-.774q-2.073-.557-4.143-1.1a1.163,1.163,0,0,0-.888.045.706.706,0,0,0-.311.464c-.119.507.136.849.757,1.016l3.044.818c3.043.82,6.086,1.64,9.134,2.439a4.008,4.008,0,0,0,3.443-.564,4.076,4.076,0,0,0,1.621-3.151,1.109,1.109,0,0,1,.479-.8c3.35-1.956,6.74-3.915,10.075-5.822a2.481,2.481,0,0,1,1.9-.265A2.293,2.293,0,0,1,60.1,45.634a2.342,2.342,0,0,1-1,3.245"/>
      <path id="Path_10978" data-name="Path 10978" d="M37.35,42.428c.731.025,1.473.025,2.207,0a2.754,2.754,0,0,0,2.5-1.518.933.933,0,0,1,.972-.577c1.849.014,3.7.011,5.549.008h1.057a2.932,2.932,0,0,0,3.276-3.272V34.051l1.013,0c.531,0,1.029.007,1.532-.008a6.042,6.042,0,0,0,5.82-5.6,5.955,5.955,0,0,0-4.984-6.335,16.094,16.094,0,0,0-2.1-.143c-.337-.008-.678-.017-1.02-.034l-.233-.013-.005-.232A21.632,21.632,0,0,0,46.868,6.719,21.139,21.139,0,0,0,32.181.027,20.916,20.916,0,0,0,18.092,4.385a21.708,21.708,0,0,0-8.7,17.372L9.381,22H9.139c-.267,0-.529,0-.788-.006-.554-.006-1.074-.011-1.6.011a6.017,6.017,0,0,0-5.689,5.6,5.905,5.905,0,0,0,4.915,6.3,38.34,38.34,0,0,0,4.936.147c.5-.008,1-.015,1.5-.016.435,0,.7-.3.7-.8q.015-5.2,0-10.4a.777.777,0,0,0-.832-.831c-.213-.012-.428-.007-.643-.006l-.542,0-.008-.241A19.514,19.514,0,0,1,20,5.006C27.031.481,34.215.279,41.348,4.405c6.3,3.644,9.662,9.472,10.009,17.324l.012.26-.645,0c-.237,0-.436,0-.633.005-.581.026-.863.308-.865.862q-.018,5.169,0,10.339a.79.79,0,0,0,.868.86c.208.009.418.009.639,0l.581,0V35.21c0,.689,0,1.345,0,2-.008,1.043-.489,1.53-1.515,1.533-.939,0-1.875,0-2.812,0-1.327,0-2.662,0-3.992.008h-.011a.917.917,0,0,1-.911-.551,2.784,2.784,0,0,0-2.544-1.546c-.364-.009-.727-.014-1.085-.014s-.713.005-1.061.014a2.887,2.887,0,0,0-.031,5.772M55.043,23.613h.249a4.411,4.411,0,0,1,.012,8.822h-.261ZM7.308,32.339l-.212.032a2.844,2.844,0,0,1-.443.033A3.671,3.671,0,0,1,4.4,31.559a4.6,4.6,0,0,1-1.745-3.151,4.439,4.439,0,0,1,1.155-3.374A4.356,4.356,0,0,1,7.054,23.61h.254Zm4.166.094H8.96v-8.8h2.514ZM50.86,23.612h2.514v8.8H50.86ZM37.4,38.258c.7-.03,1.437-.03,2.179,0a1.276,1.276,0,0,1,1.26,1.315,1.307,1.307,0,0,1-1.224,1.263c-.054.005-.106.005-.156.005H38.15c-.111,0-.222,0-.332,0-.137,0-.273,0-.408-.013a1.283,1.283,0,0,1-1.251-1.317A1.264,1.264,0,0,1,37.4,38.258" fill="#ffc810"/>
      <path id="Path_10979" data-name="Path 10979" d="M46.622,22.6q.012-2.943,0-5.886c0-.738-.278-1-1.046-1.005h-1.2c-.669,0-1.338,0-2.008-.01a1.218,1.218,0,0,1-.485-.145c-.052-.025-.1-.05-.159-.07l-.243-.09.1-.239a1.689,1.689,0,0,0,.054-.161,1.106,1.106,0,0,1,.231-.46c.417-.432.842-.855,1.269-1.278.348-.346.7-.691,1.038-1.041.517-.528.521-.9.015-1.409q-2.069-2.091-4.16-4.163c-.54-.536-.9-.528-1.454.023-.3.292-.588.587-.88.882-.431.433-.861.867-1.3,1.291a1.719,1.719,0,0,1-.49.3c-.066.029-.131.058-.194.091l-.257.14-.1-.277c-.023-.066-.051-.13-.079-.195a1.491,1.491,0,0,1-.158-.554c-.015-.647-.014-1.3-.012-1.943,0-.4,0-.8,0-1.2-.007-.73-.273-1-.98-1.007q-2.942-.012-5.885,0c-.749,0-1,.265-1.009,1.041,0,.383,0,.766,0,1.149,0,.622,0,1.243-.011,1.865a2.045,2.045,0,0,1-.13.594c-.025.075-.049.15-.069.226l-.08.3-.277-.145c-.068-.035-.139-.066-.21-.1a1.741,1.741,0,0,1-.531-.313c-.441-.421-.87-.853-1.3-1.287-.278-.28-.555-.561-.836-.839-.587-.579-.938-.581-1.5-.021q-2.065,2.049-4.117,4.115c-.539.544-.535.9.014,1.453.32.324.644.646.966.967.436.433.872.865,1.3,1.306a1.247,1.247,0,0,1,.245.44c.021.055.042.109.067.161l.116.241-.249.1c-.057.022-.114.052-.171.08a1.236,1.236,0,0,1-.521.167c-.657.014-1.316.011-1.974.012-.412,0-.824,0-1.234,0-.758.006-1.014.266-1.016,1.035q-.008,2.908,0,5.82c0,.757.263,1.015,1.033,1.02.435,0,.873,0,1.305,0,.657,0,1.312,0,1.967.009.11,0,.681.081.722.408a1,1,0,0,1-.258.746c-.462.481-.937.952-1.41,1.423-.285.283-.571.566-.853.851-.6.6-.595.938.014,1.549q2.005,2.018,4.023,4.023c.6.6.945.591,1.551-.007.3-.294.592-.591.887-.887.459-.462.918-.924,1.386-1.378.078-.077.539-.429.8-.218a.994.994,0,0,1,.34.706c.013.667.012,1.333.011,2,0,.426,0,.852,0,1.277.006.756.267,1.012,1.035,1.017.675,0,1.353,0,2.029,0h1.731c.684,0,1.373,0,2.058,0,.758-.006,1.016-.266,1.021-1.033,0-.432,0-.863,0-1.294,0-.66,0-1.32.009-1.979,0-.11.08-.67.407-.717a.952.952,0,0,1,.749.255c.518.5,1.023,1.007,1.529,1.516l.7.7c.628.626.988.634,1.6.023q2.017-2.005,4.022-4.024c.593-.6.588-.932-.025-1.551-.283-.286-.569-.57-.855-.854-.443-.438-.886-.878-1.318-1.326a1.4,1.4,0,0,1-.268-.471c-.025-.059-.049-.12-.076-.175l-.124-.248.259-.1c.058-.022.115-.049.173-.075a1.282,1.282,0,0,1,.522-.159c.642-.013,1.286-.013,1.928-.01.425,0,.853,0,1.28,0,.728-.006,1-.273,1-.984m-1.645-.609H41.566c-.886,0-.971.062-1.287.919-.07.187-.15.374-.231.558-.536,1.221-.536,1.221.435,2.185.455.452.915.9,1.363,1.337l.74.723-3.331,3.332-2.334-2.336c-.692-.694-.8-.713-1.661-.308-.242.114-.487.224-.737.319-1.012.386-1.012.386-1.012,1.489v3.249H28.823V30.047c0-.889-.062-.973-.917-1.288-.19-.071-.374-.15-.558-.231-1.218-.535-1.218-.539-2.185.429q-.93.93-1.858,1.85a.394.394,0,0,1-.195.1l-.154.061-.091-.125-3.1-3.118.615-.61c.561-.556,1.145-1.135,1.727-1.715.693-.692.714-.8.308-1.662-.115-.24-.224-.487-.319-.736-.383-1-.4-1.014-1.488-1.014H17.358V17.3h3.408c.879,0,.975-.07,1.288-.919.069-.188.15-.372.231-.557.537-1.225.537-1.225-.432-2.188-.481-.478-.965-.952-1.439-1.417l-.668-.655,3.327-3.317,2.34,2.336c.693.693.8.713,1.66.3.242-.115.488-.224.738-.319,1-.381,1.012-.394,1.012-1.49V5.809h4.688V9.245c0,.886.062.97.919,1.286.189.069.374.149.559.23,1.222.539,1.22.535,2.184-.431q.928-.93,1.86-1.849a.344.344,0,0,1,.358-.081l.069.049,3.118,3.116-2.351,2.327c-.7.7-.716.788-.305,1.66.115.241.224.487.319.737.38,1,.394,1.011,1.49,1.011h3.246Z"/>
      <path id="Path_10980" data-name="Path 10980" d="M14.41,57.439a1.049,1.049,0,1,0-2.09.014c-.01.283-.01.567,0,.85a1.05,1.05,0,1,0,2.091-.013c.005-.131,0-.262,0-.393,0-.153.006-.306,0-.458"/>
      <path id="Path_10981" data-name="Path 10981" d="M31.174,13.611h-.018a6.028,6.028,0,0,0-4.237,10.31,5.965,5.965,0,0,0,4.23,1.756h.025a6.033,6.033,0,0,0,0-12.066m3.126,9.17a4.393,4.393,0,0,1-3.129,1.3h-.01a4.451,4.451,0,0,1-4.431-4.461A4.384,4.384,0,0,1,28.038,16.5a4.43,4.43,0,0,1,3.138-1.293H31.2A4.434,4.434,0,0,1,34.3,22.781"/>
    </g>
  </g>
</svg>
