<svg xmlns="http://www.w3.org/2000/svg" xmlns:xlink="http://www.w3.org/1999/xlink" width="61.353" height="60.937" viewBox="0 0 61.353 60.937">
  <defs>
    <clipPath id="clip-path">
      <rect id="Rectangle_2936" data-name="Rectangle 2936" width="61.353" height="60.937" fill="none"/>
    </clipPath>
  </defs>
  <g id="Group_4381" data-name="Group 4381" transform="translate(0 0)">
    <g id="Group_4381-2" data-name="Group 4381" transform="translate(0 0)" clip-path="url(#clip-path)">
      <path id="Path_11014" data-name="Path 11014" d="M29.076,40.614a1.385,1.385,0,0,0-.292-1.033q-1.207-1.753-2.423-3.5-1.305-1.883-2.608-3.772a3.365,3.365,0,0,1-.434-.886A12.02,12.02,0,0,0,12.59,23.018Q12.254,23,11.919,23a11.927,11.927,0,0,0-11.5,8.849c-.113.426-.206.867-.3,1.294-.041.2-.083.394-.126.59v2.344c.007.018.016.033.023.05a.736.736,0,0,1,.079.233,11.607,11.607,0,0,0,2.375,5.817q3.446,4.445,6.91,8.875l1.462,1.875c.779.994,1.371,1,2.148,0q4.031-5.155,8.052-10.316a12.137,12.137,0,0,0,2.244-4.183c.115-.407.218-.819.324-1.253.054-.218.109-.44.168-.672l.081-.318.348.47c.083.112.152.2.218.3l.9,1.294c.6.862,1.193,1.725,1.8,2.581a1.048,1.048,0,0,0,1.492.41.969.969,0,0,0,.459-.626m-9.387.338c-1.73,2.244-3.5,4.513-5.218,6.708q-1.081,1.383-2.161,2.766c-.048.062-.1.12-.168.194l-.244.272L9.783,48.173c-1.624-2.086-3.231-4.149-4.849-6.2a13.119,13.119,0,0,1-2.451-4.264,9.865,9.865,0,0,1,7.382-12.4A9.892,9.892,0,0,1,17.6,26.9a9.743,9.743,0,0,1,4.056,6.643,9.636,9.636,0,0,1-1.967,7.411" transform="translate(0 0.824)"/>
      <path id="Path_11015" data-name="Path 11015" d="M15.213,55.766a29.954,29.954,0,0,0,9.423,3.321c.781.134,1.581.239,2.356.341.349.046.7.091,1.046.14h3.7c.3-.038.623-.074.943-.111.692-.078,1.409-.157,2.1-.277a30.582,30.582,0,0,0,17.491-9.368c.7-.74.8-1.333.325-1.815a.913.913,0,0,0-.657-.313h-.01a1.787,1.787,0,0,0-1.158.687A30.7,30.7,0,0,1,46.012,52.5a.886.886,0,0,1-1.126.027,4.557,4.557,0,0,1-2.212-4.449c.2-2.552.423-5.1.641-7.65l.069-.809a1.481,1.481,0,0,0-.263-1.1.916.916,0,0,0-.653-.318c-.864-.07-1.1.617-1.154,1.207q-.127,1.426-.243,2.856c-.138,1.641-.28,3.338-.447,5A7.022,7.022,0,0,0,43.1,53.809a.319.319,0,0,1,.093.168c.005.016.01.035.017.052l.055.133-.127.065a28.227,28.227,0,0,1-17.076,2.985l-.224-.03.107-.2c.084-.155.168-.3.25-.446a8.753,8.753,0,0,0,.467-.9,1.123,1.123,0,0,1,1.157-.769h.078c.062,0,.123,0,.185,0a4.372,4.372,0,0,0,2.735-.9,4.51,4.51,0,0,0,1.776-3.893v-.064a4.953,4.953,0,0,1,.5-2.739.983.983,0,0,0,.12-.764,1.015,1.015,0,0,0-.494-.618,1.054,1.054,0,0,0-.81-.107.946.946,0,0,0-.576.489,7.749,7.749,0,0,0-.744,2.059,6.523,6.523,0,0,0-.075,1.331c0,.266.005.532-.01.794a2.336,2.336,0,0,1-2.368,2.34l-.066,0A7.636,7.636,0,0,1,26.91,52.8a1.448,1.448,0,0,0-1.6.958c-.349.7-.738,1.385-1.114,2.053-.165.293-.331.587-.494.884l-.06.11-.12-.035c-.26-.076-.517-.143-.769-.209a13.185,13.185,0,0,1-1.591-.492c-1.2-.486-2.409-1.014-3.578-1.525q-.7-.308-1.41-.613a1.08,1.08,0,0,0-1.491.428,1.039,1.039,0,0,0,.526,1.408" transform="translate(0.523 1.369)"/>
      <path id="Path_11016" data-name="Path 11016" d="M40.851,2.715a1.021,1.021,0,0,0-.865-1.138c-.416-.1-.834-.206-1.25-.311C37.327.909,35.869.541,34.418.32a28.837,28.837,0,0,0-12.93,1.018A30.547,30.547,0,0,0,2.877,17.345a1.067,1.067,0,0,0,.383,1.5,1.047,1.047,0,0,0,1.476-.578c.1-.191.2-.383.3-.577.081-.162.162-.323.247-.483a28.244,28.244,0,0,1,8.706-9.864.87.87,0,0,1,.722-.113c2.554.95,4.818,1.813,6.918,2.637a1.106,1.106,0,0,1,.6.683,3.948,3.948,0,0,0,2.01,2.554,3.752,3.752,0,0,0,3.085.213,14.237,14.237,0,0,0,1.451-.681c.317-.164.636-.327.96-.476a5.568,5.568,0,0,1,2.31-.509,5.425,5.425,0,0,1,5.395,5.841,2.06,2.06,0,0,1-1.727,2.084c-.466.119-.934.228-1.4.337l-.634.148a4.048,4.048,0,0,0-3.237,3.354c-.394,1.891-.687,3.353-.952,4.74A3.973,3.973,0,0,0,32.9,33.005c.366.06.745.094,1.113.127.411.037.837.076,1.253.15.719.124,1.224-.1,1.392-.615a1.04,1.04,0,0,0-.053-.833,1.124,1.124,0,0,0-.739-.522,10.952,10.952,0,0,0-2.2-.311,2.3,2.3,0,0,1-1.8-.768,2.214,2.214,0,0,1-.3-1.856c.139-.691.281-1.381.421-2.071.171-.831.342-1.662.505-2.494a2.063,2.063,0,0,1,1.669-1.733l.569-.129c.528-.12,1.054-.239,1.578-.375a3.868,3.868,0,0,0,3.063-3.025,6.95,6.95,0,0,0-1.743-6.464A7.429,7.429,0,0,0,28.38,10.5c-.183.092-.366.191-.546.289-.324.175-.658.355-1,.505a1.989,1.989,0,0,1-1.708-.05,1.53,1.53,0,0,1-.825-1.06,3.086,3.086,0,0,0-2.287-2.434c-1.177-.413-2.315-.855-3.52-1.322-.515-.2-1.034-.4-1.559-.6l-.283-.109.376-.25a1.81,1.81,0,0,1,.189-.119,28.312,28.312,0,0,1,21.851-1.9,2.513,2.513,0,0,0,.879.163,1,1,0,0,0,.905-.906" transform="translate(0.098 0)"/>
      <path id="Path_11017" data-name="Path 11017" d="M49.608.012c-.229,0-.459.007-.691.024a9.869,9.869,0,0,0-9.16,9.885A9.691,9.691,0,0,0,41.6,15.587c2.177,2.844,4.422,5.713,6.593,8.487l.522.667a1.211,1.211,0,0,0,.917.546h0a1.234,1.234,0,0,0,.932-.559l1.454-1.854c1.821-2.32,3.7-4.72,5.517-7.109A9.47,9.47,0,0,0,59.4,8.559,9.884,9.884,0,0,0,49.608.012M56.016,14.28c-1.448,1.914-2.885,3.772-4.407,5.738Q50.693,21.2,49.766,22.4l-.122.158L49.52,22.4q-.806-1.033-1.6-2.046c-1.31-1.673-2.548-3.254-3.789-4.881a13.5,13.5,0,0,1-1.565-2.425,7.607,7.607,0,0,1,.119-6.679A7.781,7.781,0,0,1,57.41,9.692a7.241,7.241,0,0,1-1.394,4.588" transform="translate(1.425 0)" fill="#ffc810"/>
      <path id="Path_11018" data-name="Path 11018" d="M58.573,24.209a23.876,23.876,0,0,0-.639-2.79,1.182,1.182,0,0,0-1.407-.983,1.2,1.2,0,0,0-.9,1.513,3.652,3.652,0,0,0,.1.405,28.825,28.825,0,0,1,.96,6.483,29.274,29.274,0,0,1-1.213,9.2,1.208,1.208,0,1,0,2.283.7,36.853,36.853,0,0,0,1.457-9.018c-.207-1.838-.38-3.68-.638-5.511" transform="translate(1.986 0.731)"/>
      <path id="Path_11019" data-name="Path 11019" d="M58.573,24.209a23.876,23.876,0,0,0-.639-2.79,1.182,1.182,0,0,0-1.407-.983,1.2,1.2,0,0,0-.9,1.513,3.652,3.652,0,0,0,.1.405,28.825,28.825,0,0,1,.96,6.483,29.274,29.274,0,0,1-1.213,9.2,1.208,1.208,0,1,0,2.283.7,36.853,36.853,0,0,0,1.457-9.018C59,27.882,58.831,26.039,58.573,24.209Z" transform="translate(1.986 0.731)" fill="none" stroke="#fff" stroke-miterlimit="10" stroke-width="0.3"/>
      <path id="Path_11020" data-name="Path 11020" d="M46.907,33.712h0a1.579,1.579,0,0,0-1.54,1.278,1.049,1.049,0,0,0,.3.756.951.951,0,0,0,.682.29h0a1.775,1.775,0,0,0,1.2-.536,1.167,1.167,0,0,0,.381-.788,1.01,1.01,0,0,0-1.023-1" transform="translate(1.627 1.208)" fill="#ffc810"/>
      <path id="Path_11021" data-name="Path 11021" d="M49.37,29.36a1.056,1.056,0,0,0-.186.017,1.087,1.087,0,0,0-.906,1.074c-.094.79.109,1.261.64,1.478a.931.931,0,0,0,.9-.047,1.428,1.428,0,0,0,.532-1.2,1.4,1.4,0,0,0-.4-1.109.86.86,0,0,0-.574-.209" transform="translate(1.73 1.052)" fill="#ffc810"/>
      <path id="Path_11022" data-name="Path 11022" d="M36.361,34.419h0c-.7,0-1.119.238-1.269.729a.956.956,0,0,0,.112.882,1.392,1.392,0,0,0,1.148.47h0a1.407,1.407,0,0,0,1.159-.482.941.941,0,0,0,.125-.863c-.147-.488-.575-.735-1.273-.736" transform="translate(1.256 1.234)" fill="#ffc810"/>
      <path id="Path_11023" data-name="Path 11023" d="M41.6,34.419h-.033c-.724,0-1.132.238-1.282.748a.957.957,0,0,0,.122.872,1.411,1.411,0,0,0,1.156.462h.007a1.393,1.393,0,0,0,1.127-.462.95.95,0,0,0,.146-.849,1.156,1.156,0,0,0-1.243-.77" transform="translate(1.442 1.234)" fill="#ffc810"/>
      <path id="Path_11024" data-name="Path 11024" d="M29.859,41.006a1.171,1.171,0,0,0-.843.437,1.661,1.661,0,0,0-.5,1.137,1.029,1.029,0,0,0,1.023.982h.031a1.664,1.664,0,0,0,1.292-1.55,1,1,0,0,0-1.007-1.006" transform="translate(1.023 1.47)" fill="#ffc810"/>
      <path id="Path_11025" data-name="Path 11025" d="M27.022,45.323l-.022,0c-.739.016-1.547.7-1.541,1.3a1.01,1.01,0,0,0,1.008,1.006l.016,0a1.809,1.809,0,0,0,1.251-.567,1.051,1.051,0,0,0,.328-.739,1.074,1.074,0,0,0-1.04-1" transform="translate(0.913 1.625)" fill="#ffc810"/>
      <path id="Path_11026" data-name="Path 11026" d="M22.325,47.558h-.012a1.533,1.533,0,0,0-1.541,1.272,1.06,1.06,0,0,0,.319.753.954.954,0,0,0,.668.284h.013A1.814,1.814,0,0,0,23,49.313a1.094,1.094,0,0,0,.347-.761,1.013,1.013,0,0,0-1.025-.993" transform="translate(0.745 1.705)" fill="#ffc810"/>
      <path id="Path_11027" data-name="Path 11027" d="M32.647,36.619h-.021A1.707,1.707,0,0,0,31.3,38.155a1.007,1.007,0,0,0,.318.727,1.048,1.048,0,0,0,.719.293h.035a1.668,1.668,0,0,0,1.285-1.561,1.009,1.009,0,0,0-1.013-1" transform="translate(1.122 1.313)" fill="#ffc810"/>
      <path id="Path_11028" data-name="Path 11028" d="M54.052,42.648h-.021A1.089,1.089,0,0,0,53,43.744a1.017,1.017,0,0,0,1.016,1.009h.016a1.08,1.08,0,0,0,1.038-1.09,1.044,1.044,0,0,0-1.015-1.014" transform="translate(1.9 1.529)"/>
      <path id="Path_11029" data-name="Path 11029" d="M11.747,28.141h0a6.773,6.773,0,0,0-.025,13.546h.054A6.79,6.79,0,0,0,18.527,34.9a6.786,6.786,0,0,0-6.781-6.756m.083,11.452c-.1,0-.195,0-.294-.01a4.7,4.7,0,0,1-4.476-4.866A4.787,4.787,0,0,1,8.666,31.38a4.581,4.581,0,0,1,3.381-1.13,4.8,4.8,0,0,1,3.271,1.634,4.458,4.458,0,0,1,1.114,3.257,4.714,4.714,0,0,1-4.6,4.453" transform="translate(0.178 1.009)"/>
      <path id="Path_11030" data-name="Path 11030" d="M49.464,4.972h-.019a4.95,4.95,0,0,0-4.869,4.87,4.922,4.922,0,0,0,4.872,4.874H49.5a4.871,4.871,0,0,0-.033-9.742m.01,7.661h-.012a2.79,2.79,0,0,1-1.987-.828A2.763,2.763,0,0,1,47.5,7.86a2.8,2.8,0,0,1,1.97-.809h.037A2.8,2.8,0,0,1,52.242,9.86a2.759,2.759,0,0,1-2.768,2.773" transform="translate(1.598 0.178)" fill="#ffc810"/>
    </g>
  </g>
</svg>
